<?xml version="1.0" encoding="UTF-8" standalone="no"?>
<svg width="50px" height="40px" viewBox="0 0 50 40" version="1.1" xmlns="http://www.w3.org/2000/svg" xmlns:xlink="http://www.w3.org/1999/xlink" xmlns:sketch="http://www.bohemiancoding.com/sketch/ns">
    <!-- Generator: Sketch 3.3.2 (12043) - http://www.bohemiancoding.com/sketch -->
    <title>check</title>
    <g fill-rule="evenodd">
        <g>
            <path d="M50,7.48387097 C50,8.34516129 49.7,9.07419355 49.0967742,9.67741935 L25.7419355,33.0322581 L21.3548387,37.4193548 C20.7516129,38.0225806 20.0225806,38.3225806 19.1612903,38.3225806 C18.3,38.3225806 17.5709677,38.0225806 16.9677419,37.4193548 L12.5806452,33.0322581 L0.903225806,21.3548387 C0.3,20.7516129 0,20.0225806 0,19.1612903 C0,18.3 0.3,17.5709677 0.903225806,16.9677419 L5.29032258,12.5806452 C5.89354839,11.9774194 6.62258065,11.6774194 7.48387097,11.6774194 C8.34516129,11.6774194 9.07419355,11.9774194 9.67741935,12.5806452 L19.1612903,22.0967742 L40.3225806,0.903225806 C40.9258065,0.3 41.6548387,0 42.516129,0 C43.3774194,0 44.1064516,0.3 44.7096774,0.903225806 L49.0967742,5.29032258 C49.7,5.89354839 50,6.62258065 50,7.48387097 L50,7.48387097 Z" id="Shape" sketch:type="MSShapeGroup"></path>
        </g>
    </g>
</svg>