<?xml version="1.0" encoding="UTF-8" standalone="no"?>
<svg width="162px" height="100px" viewBox="0 0 162 100" version="1.1" xmlns="http://www.w3.org/2000/svg" xmlns:xlink="http://www.w3.org/1999/xlink" xmlns:sketch="http://www.bohemiancoding.com/sketch/ns">
    <!-- Generator: Sketch 3.3.2 (12043) - http://www.bohemiancoding.com/sketch -->
    <title>cloud_web</title>
    <g fill-rule="evenodd">
        <g>
            <path d="M133.386454,99.8804781 L31.6135458,99.8804781 C15.3984064,99.8804781 0.0199203187,84.6215139 0.0199203187,68.5458167 C0.0199203187,54.8007968 11.0358566,42.2908367 25.2589641,39.6812749 C26.1553785,27.9880478 35.936255,18.7450199 47.8884462,18.7450199 C52.8884462,18.7450199 57.6693227,20.3784861 61.6334661,23.4661355 C69.5816733,8.90438247 84.4223108,0.0199203187 100.976096,0.0199203187 C124.780876,0.0199203187 144.063745,18.5458167 145.498008,42.3505976 C154.940239,47.1314741 160.756972,57.0517928 160.756972,68.5458167 C160.756972,83.6055777 150.278884,99.8804781 133.386454,99.8804781 L133.386454,99.8804781 Z M26.6932271,43.6653386 L26.4940239,43.7250996 C13.9043825,45.6374502 4.12350598,56.5737052 4.12350598,68.4860558 C4.12350598,82.2310757 17.7290837,95.7768924 31.6135458,95.7768924 L133.386454,95.7768924 C147.749004,95.7768924 156.633466,81.6135458 156.633466,68.5458167 C156.633466,58.2270916 151.294821,49.4621514 142.689243,45.5577689 L141.533865,45.0199203 L141.474104,43.7250996 C140.796813,21.4940239 123.007968,4.06374502 100.976096,4.06374502 C85.0996016,4.06374502 70.9561753,13.0876494 64.1035857,27.5896414 L62.8685259,30.1792829 L60.8167331,28.12749 C57.3306773,24.6414343 52.6693227,22.7888446 47.8884462,22.7888446 C37.6294821,22.7888446 29.2231076,31.1354582 29.2231076,41.4541833 C29.2231076,42.0717131 28.7450199,42.8286853 28.0677291,43.2270916 L28.0677291,43.2868526 L27.6494024,43.3466135 C27.3705179,43.4063745 27.1115538,43.4860558 26.752988,43.4860558 C26.7729084,43.5856574 26.6932271,43.5856574 26.6932271,43.6653386 L26.6932271,43.6653386 Z"></path>
            <g id="Group" transform="translate(34.661355, 43.027888)">
                <path d="M35.3187251,37.8486056 L31.2350598,37.8486056 L24.063745,14.0438247 C23.7250996,12.9880478 23.3466135,11.6533865 22.9282869,10.059761 C22.5099602,8.44621514 22.2908367,7.49003984 22.2709163,7.17131474 C21.9123506,9.30278884 21.3545817,11.6533865 20.5776892,14.2031873 L13.6055777,37.8486056 L9.52191235,37.8486056 L0.0597609562,2.29083665 L4.44223108,2.29083665 L10.059761,24.2430279 C10.8366534,27.3306773 11.4143426,30.1195219 11.752988,32.6095618 C12.1912351,29.6414343 12.8486056,26.7330677 13.7051793,23.9043825 L20.0796813,2.29083665 L24.4621514,2.29083665 L31.1354582,24.1035857 C31.9123506,26.6135458 32.5697211,29.4621514 33.1075697,32.6095618 C33.4063745,30.2988048 34.0039841,27.5099602 34.8605578,24.2031873 L40.4581673,2.29083665 L44.8406375,2.29083665 L35.3187251,37.8486056 L35.3187251,37.8486056 Z"></path>
                <path d="M61.0358566,38.3266932 C57.0916335,38.3266932 53.9840637,37.1314741 51.7131474,34.7211155 C49.4422311,32.3306773 48.2868526,28.9840637 48.2868526,24.7211155 C48.2868526,20.4183267 49.3426295,17.0119522 51.4541833,14.4820717 C53.5657371,11.9521912 56.4143426,10.6972112 59.9800797,10.6972112 C63.3266932,10.6972112 65.9561753,11.7928287 67.9083665,13.9840637 C69.8605578,16.1752988 70.8167331,19.0836653 70.8167331,22.6693227 L70.8167331,25.2191235 L52.4501992,25.2191235 C52.5298805,28.3466135 53.3266932,30.7171315 54.8207171,32.3505976 C56.314741,33.9641434 58.4262948,34.7808765 61.1553785,34.7808765 C64.0239044,34.7808765 66.8525896,34.1832669 69.6613546,32.9880478 L69.6613546,36.5936255 C68.2270916,37.2111554 66.8924303,37.6494024 65.6175299,37.9282869 C64.3824701,38.2071713 62.8486056,38.3266932 61.0358566,38.3266932 L61.0358566,38.3266932 Z M59.9601594,14.0836653 C57.8286853,14.0836653 56.1155378,14.7808765 54.8406375,16.1752988 C53.5657371,17.5697211 52.8087649,19.501992 52.5896414,21.9721116 L66.5139442,21.9721116 C66.5139442,19.4223108 65.9561753,17.4701195 64.8207171,16.1155378 C63.685259,14.7609562 62.0517928,14.0836653 59.9601594,14.0836653 L59.9601594,14.0836653 Z"></path>
                <path d="M90.1195219,10.7569721 C93.625498,10.7569721 96.3346614,11.9521912 98.2868526,14.3426295 C100.219124,16.7330677 101.195219,20.1195219 101.195219,24.501992 C101.195219,28.8844622 100.219124,32.2709163 98.2669323,34.7011952 C96.314741,37.1314741 93.6055777,38.3266932 90.1394422,38.3266932 C88.4063745,38.3266932 86.812749,38.0079681 85.3784861,37.3705179 C83.9442231,36.7330677 82.749004,35.7370518 81.7729084,34.4223108 L81.4741036,34.4223108 L80.6175299,37.8486056 L77.7290837,37.8486056 L77.7290837,0.0199203187 L81.7729084,0.0199203187 L81.7729084,9.20318725 C81.7729084,11.2549801 81.7131474,13.1075697 81.5737052,14.7410359 L81.7729084,14.7410359 C83.6454183,12.0916335 86.4342629,10.7569721 90.1195219,10.7569721 L90.1195219,10.7569721 Z M89.5418327,14.1434263 C86.7928287,14.1434263 84.8007968,14.940239 83.5856574,16.5139442 C82.3705179,18.0876494 81.752988,20.7569721 81.752988,24.501992 C81.752988,28.247012 82.3705179,30.9163347 83.625498,32.5298805 C84.8804781,34.1434263 86.87251,34.940239 89.6414343,34.940239 C92.1314741,34.940239 93.9641434,34.0438247 95.1792829,32.2310757 C96.3944223,30.4183267 97.0119522,27.8286853 97.0119522,24.4422311 C97.0119522,20.9760956 96.3944223,18.3864542 95.1792829,16.6932271 C93.9641434,15 92.0916335,14.1434263 89.5418327,14.1434263 L89.5418327,14.1434263 Z"></path>
            </g>
        </g>
    </g>
</svg>