<?xml version="1.0" encoding="UTF-8" standalone="no"?>
<svg width="161px" height="100px" viewBox="0 0 161 100" version="1.1" xmlns="http://www.w3.org/2000/svg" xmlns:xlink="http://www.w3.org/1999/xlink" xmlns:sketch="http://www.bohemiancoding.com/sketch/ns">
    <!-- Generator: Sketch 3.3.2 (12043) - http://www.bohemiancoding.com/sketch -->
    <title>cloud</title>
    <g fill-rule="evenodd">
        <g>
            <path d="M133.265306,99.3877551 L32.0408163,99.3877551 C15.9183673,99.3877551 0.612244898,84.2176871 0.612244898,68.2312925 C0.612244898,54.5578231 11.5646259,42.1088435 25.7142857,39.5238095 C26.5986395,27.8911565 36.3265306,18.707483 48.2312925,18.707483 C53.1972789,18.707483 57.9591837,20.3401361 61.9047619,23.4013605 C69.7959184,8.91156463 84.5578231,0.0680272109 101.020408,0.0680272109 C124.693878,0.0680272109 143.877551,18.5034014 145.306122,42.1768707 C154.693878,46.9387755 160.47619,56.8027211 160.47619,68.2312925 C160.47619,83.1972789 150.068027,99.3877551 133.265306,99.3877551 L133.265306,99.3877551 Z M27.1428571,43.4693878 L26.9387755,43.537415 C14.4217687,45.4421769 4.69387755,56.3265306 4.69387755,68.1632653 C4.69387755,81.8367347 18.2312925,95.3061224 32.0408163,95.3061224 L133.265306,95.3061224 C147.55102,95.3061224 156.394558,81.2244898 156.394558,68.2312925 C156.394558,57.9591837 151.088435,49.2517007 142.517007,45.3741497 L141.360544,44.829932 L141.292517,43.537415 C140.612245,21.4285714 122.92517,4.08163265 101.020408,4.08163265 C85.2380952,4.08163265 71.1564626,13.0612245 64.3537415,27.4829932 L63.1292517,30.0680272 L61.0884354,28.0272109 C57.6190476,24.5578231 52.9931973,22.7210884 48.2312925,22.7210884 C38.0272109,22.7210884 29.6598639,31.0204082 29.6598639,41.292517 C29.6598639,41.9047619 29.1836735,42.6530612 28.5034014,43.0612245 L28.5034014,43.1292517 L28.0952381,43.1972789 C27.8231293,43.2653061 27.5510204,43.3333333 27.2108844,43.3333333 C27.2108844,43.4013605 27.1428571,43.4013605 27.1428571,43.4693878 L27.1428571,43.4693878 Z"></path>
        </g>
    </g>
</svg>