<?xml version="1.0" encoding="UTF-8" standalone="no"?>
<svg width="144px" height="101px" viewBox="0 0 144 101" version="1.1" xmlns="http://www.w3.org/2000/svg" xmlns:xlink="http://www.w3.org/1999/xlink" xmlns:sketch="http://www.bohemiancoding.com/sketch/ns">
    <!-- Generator: Sketch 3.3.2 (12043) - http://www.bohemiancoding.com/sketch -->
    <title>desktop-large</title>
    <g fill-rule="evenodd">
        <g>
            <path d="M83.7678571,100 L60.7857143,100 C59.2678571,100 57.9285714,99.5535714 56.8214286,98.6607143 C55.625,97.7142857 55.0357143,96.5535714 55.0357143,95.2142857 C55.0357143,94.4285714 55.4464286,93.4464286 56.3928571,92.0535714 C57.1607143,90.9107143 57.9285714,89.5714286 58.6964286,88.0535714 C59.2321429,87 59.5535714,85.9642857 59.6964286,84.9642857 L12.9464286,84.9642857 C9.48214286,84.9642857 6.44642857,83.9642857 3.96428571,81.9821429 C1.41071429,79.9464286 0.107142857,77.4285714 0.107142857,74.5178571 L0.107142857,10.4464286 C0.107142857,7.53571429 1.41071429,5.03571429 3.96428571,2.98214286 C6.44642857,1 9.48214286,0 12.9464286,0 L131.125,0 C134.589286,0 137.625,1 140.107143,2.98214286 C142.660714,5.01785714 143.964286,7.53571429 143.964286,10.4464286 L143.964286,74.4821429 C143.964286,77.3928571 142.660714,79.8928571 140.107143,81.9464286 C137.625,83.9285714 134.589286,84.9285714 131.125,84.9285714 L84.875,84.9285714 C85.0178571,85.9107143 85.3571429,86.9464286 85.875,88 C86.6428571,89.5357143 87.4107143,90.9107143 88.1785714,92.0714286 C89.1785714,93.5892857 89.6428571,94.4464286 89.6428571,95.1964286 C89.6428571,96.4821429 89,97.6428571 87.7321429,98.6428571 C86.6071429,99.5535714 85.2857143,100 83.7678571,100 L83.7678571,100 Z M12.9464286,2.05357143 C9.94642857,2.05357143 7.35714286,2.91071429 5.25,4.58928571 C3.17857143,6.25 2.16071429,8.16071429 2.16071429,10.4285714 L2.16071429,74.4642857 C2.16071429,76.75 3.16071429,78.6607143 5.25,80.3035714 C7.375,82 9.96428571,82.8392857 12.9464286,82.8392857 L61.8035714,82.8392857 L61.8035714,83.875 C61.8035714,85.5178571 61.375,87.2142857 60.5178571,88.9285714 C59.7142857,90.5357143 58.8928571,91.9464286 58.0892857,93.1607143 C57.1071429,94.625 57.0892857,95.125 57.0892857,95.1785714 C57.0892857,95.8928571 57.4107143,96.4642857 58.1071429,97.0178571 C58.8571429,97.625 59.7321429,97.9107143 60.7857143,97.9107143 L83.7678571,97.9107143 C84.8214286,97.9107143 85.6964286,97.625 86.4464286,97.0178571 C87.1964286,96.4285714 87.5714286,95.8035714 87.5714286,95.1785714 C87.5178571,94.8214286 86.7142857,93.5714286 86.4464286,93.1785714 C85.6428571,91.9464286 84.8214286,90.5178571 84.0178571,88.8928571 C83.1607143,87.1607143 82.7321429,85.4821429 82.7321429,83.875 L82.7321429,82.8392857 L131.125,82.8392857 C134.125,82.8392857 136.714286,81.9821429 138.821429,80.3035714 C140.892857,78.6428571 141.910714,76.7321429 141.910714,74.4642857 L141.910714,10.4464286 C141.910714,8.16071429 140.910714,6.25 138.821429,4.60714286 C136.696429,2.91071429 134.107143,2.07142857 131.125,2.07142857 L12.9464286,2.07142857 L12.9464286,2.05357143 Z M131.125,62.3392857 L12.9464286,62.3392857 C12.0714286,62.3392857 11.2857143,62.0714286 10.6428571,61.5535714 C9.75,60.8392857 9.55357143,60 9.55357143,59.4285714 L9.55357143,10.4464286 C9.55357143,9.875 9.75,9.03571429 10.6428571,8.32142857 C11.3035714,7.80357143 12.0714286,7.53571429 12.9464286,7.53571429 L131.125,7.53571429 C132,7.53571429 132.785714,7.80357143 133.428571,8.32142857 C134.321429,9.03571429 134.517857,9.875 134.517857,10.4464286 L134.517857,59.4107143 C134.517857,59.9821429 134.321429,60.8214286 133.428571,61.5357143 C132.785714,62.0714286 132,62.3392857 131.125,62.3392857 L131.125,62.3392857 Z M12.9464286,9.58928571 C12.5357143,9.58928571 12.2142857,9.69642857 11.9285714,9.92857143 C11.625,10.1785714 11.625,10.3571429 11.625,10.4464286 L11.625,59.4107143 C11.625,59.5 11.625,59.6785714 11.9285714,59.9285714 C12.2142857,60.1607143 12.5357143,60.2678571 12.9464286,60.2678571 L131.125,60.2678571 C131.535714,60.2678571 131.857143,60.1607143 132.142857,59.9285714 C132.446429,59.6785714 132.446429,59.5 132.446429,59.4107143 L132.446429,10.4464286 C132.446429,10.3571429 132.446429,10.1785714 132.142857,9.92857143 C131.857143,9.69642857 131.535714,9.58928571 131.125,9.58928571 L12.9464286,9.58928571 L12.9464286,9.58928571 Z"></path>
            <g id="Group" transform="translate(17.857143, 20.535714)">
                <path d="M22.2857143,29.4642857 L18.875,29.4642857 L18.875,15.6607143 L3.42857143,15.6607143 L3.42857143,29.4642857 L0.0178571429,29.4642857 L0.0178571429,0.142857143 L3.42857143,0.142857143 L3.42857143,12.625 L18.875,12.625 L18.875,0.142857143 L22.2857143,0.142857143 L22.2857143,29.4642857 L22.2857143,29.4642857 Z"></path>
                <path d="M48.8035714,18.4464286 C48.8035714,22.0357143 47.8928571,24.8214286 46.0892857,26.8392857 C44.2857143,28.8571429 41.7857143,29.8571429 38.6071429,29.8571429 C36.6428571,29.8571429 34.8928571,29.3928571 33.375,28.4821429 C31.8571429,27.5714286 30.6785714,26.2321429 29.8392857,24.5178571 C29.0178571,22.7857143 28.5892857,20.7678571 28.5892857,18.4642857 C28.5892857,14.875 29.4821429,12.0892857 31.2678571,10.0892857 C33.0535714,8.08928571 35.5535714,7.08928571 38.7321429,7.08928571 C41.8035714,7.08928571 44.25,8.10714286 46.0535714,10.1607143 C47.8928571,12.1964286 48.8035714,14.9642857 48.8035714,18.4464286 L48.8035714,18.4464286 Z M32.0535714,18.4464286 C32.0535714,21.25 32.6071429,23.3928571 33.7321429,24.8571429 C34.8571429,26.3214286 36.5,27.0714286 38.6785714,27.0714286 C40.8571429,27.0714286 42.5178571,26.3392857 43.6428571,24.875 C44.7678571,23.4107143 45.3392857,21.2678571 45.3392857,18.4464286 C45.3392857,15.6607143 44.7678571,13.5357143 43.6428571,12.0714286 C42.5178571,10.625 40.8392857,9.89285714 38.6428571,9.89285714 C36.4642857,9.89285714 34.8214286,10.6071429 33.7142857,12.0357143 C32.6071429,13.4821429 32.0535714,15.625 32.0535714,18.4464286 L32.0535714,18.4464286 Z"></path>
                <path d="M82.6607143,29.4642857 L82.6607143,15.1607143 C82.6607143,13.4107143 82.2857143,12.0892857 81.5357143,11.2142857 C80.7857143,10.3392857 79.625,9.89285714 78.0535714,9.89285714 C75.9821429,9.89285714 74.4464286,10.4821429 73.4642857,11.6785714 C72.4821429,12.875 71.9821429,14.6964286 71.9821429,17.1785714 L71.9821429,29.4642857 L68.6607143,29.4642857 L68.6607143,15.1607143 C68.6607143,13.4107143 68.2857143,12.0892857 67.5357143,11.2142857 C66.7857143,10.3392857 65.625,9.89285714 64.0178571,9.89285714 C61.9285714,9.89285714 60.4107143,10.5178571 59.4285714,11.7678571 C58.4642857,13.0178571 57.9821429,15.0714286 57.9821429,17.9107143 L57.9821429,29.4642857 L54.6428571,29.4642857 L54.6428571,7.48214286 L57.3571429,7.48214286 L57.8928571,10.4821429 L58.0535714,10.4821429 C58.6785714,9.41071429 59.5714286,8.57142857 60.7142857,7.98214286 C61.8571429,7.375 63.1428571,7.07142857 64.5535714,7.07142857 C67.9821429,7.07142857 70.2321429,8.32142857 71.2857143,10.8035714 L71.4464286,10.8035714 C72.1071429,9.66071429 73.0535714,8.75 74.2857143,8.07142857 C75.5357143,7.41071429 76.9464286,7.07142857 78.5357143,7.07142857 C81.0178571,7.07142857 82.8928571,7.71428571 84.125,8.98214286 C85.3571429,10.2678571 85.9821429,12.3035714 85.9821429,15.1071429 L85.9821429,29.4642857 L82.6607143,29.4642857 L82.6607143,29.4642857 Z"></path>
                <path d="M102.125,29.8571429 C98.875,29.8571429 96.3035714,28.875 94.4285714,26.8928571 C92.5535714,24.9107143 91.6071429,22.1607143 91.6071429,18.6428571 C91.6071429,15.1071429 92.4821429,12.2857143 94.2321429,10.1964286 C95.9821429,8.10714286 98.3214286,7.07142857 101.267857,7.07142857 C104.017857,7.07142857 106.196429,7.98214286 107.803571,9.78571429 C109.410714,11.5892857 110.214286,13.9821429 110.214286,16.9464286 L110.214286,19.0535714 L95.0714286,19.0535714 C95.1428571,21.6428571 95.7857143,23.5892857 97.0357143,24.9285714 C98.2678571,26.2678571 100.017857,26.9285714 102.267857,26.9285714 C104.642857,26.9285714 106.982143,26.4285714 109.285714,25.4464286 L109.285714,28.4107143 C108.107143,28.9107143 107,29.2857143 105.946429,29.5 C104.875,29.75 103.607143,29.8571429 102.125,29.8571429 L102.125,29.8571429 Z M101.232143,9.875 C99.4642857,9.875 98.0535714,10.4464286 97.0178571,11.6071429 C95.9642857,12.75 95.3571429,14.3392857 95.1607143,16.375 L106.660714,16.375 C106.660714,14.2678571 106.196429,12.6607143 105.25,11.5535714 C104.303571,10.4285714 102.964286,9.875 101.232143,9.875 L101.232143,9.875 Z"></path>
            </g>
        </g>
    </g>
</svg>