<?xml version="1.0" encoding="UTF-8" standalone="no"?>
<svg width="116px" height="101px" viewBox="0 0 116 101" version="1.1" xmlns="http://www.w3.org/2000/svg" xmlns:xlink="http://www.w3.org/1999/xlink" xmlns:sketch="http://www.bohemiancoding.com/sketch/ns">
    <!-- Generator: Sketch 3.3.2 (12043) - http://www.bohemiancoding.com/sketch -->
    <title>desktop</title>
    <g fill-rule="evenodd">
        <g>
            <path d="M107.8,59.6 L107.8,9.6 C107.8,9.1 107.6,8.6 107.2,8.2 C106.8,7.8 106.4,7.6 105.8,7.6 L9.6,7.6 C9.1,7.6 8.6,7.8 8.2,8.2 C7.8,8.6 7.6,9 7.6,9.6 L7.6,59.6 C7.6,60.1 7.8,60.6 8.2,61 C8.6,61.4 9,61.6 9.6,61.6 L105.8,61.6 C106.3,61.6 106.8,61.4 107.2,61 C107.6,60.6 107.8,60.1 107.8,59.6 L107.8,59.6 Z M115.5,9.6 L115.5,75 C115.5,77.6 114.6,79.9 112.7,81.8 C110.8,83.7 108.6,84.6 105.9,84.6 L73.2,84.6 C73.2,86.1 73.5,87.6 74.2,89.3 C74.8,90.9 75.5,92.3 76.1,93.6 C76.7,94.9 77.1,95.7 77.1,96.2 C77.1,97.2 76.7,98.1 76,98.9 C75.3,99.7 74.3,100 73.3,100 L42.5,100 C41.5,100 40.6,99.6 39.8,98.9 C39,98.2 38.7,97.2 38.7,96.2 C38.7,95.6 39,94.8 39.7,93.6 C40.3,92.4 41,91 41.6,89.4 C42.2,87.8 42.6,86.2 42.6,84.7 L9.9,84.7 C7.3,84.7 5,83.8 3.1,81.9 C1.2,80 0.3,77.8 0.3,75.1 L0.3,9.7 C0.3,7.1 1.2,4.8 3.1,2.9 C5,1 7.2,0.1 9.9,0.1 L106.1,0.1 C108.7,0.1 111,1 112.9,2.9 C114.5,4.7 115.5,7 115.5,9.6 L115.5,9.6 Z"></path>
        </g>
    </g>
</svg>