<?xml version="1.0" encoding="UTF-8" standalone="no"?>
<svg width="101px" height="101px" viewBox="0 0 101 101" version="1.1" xmlns="http://www.w3.org/2000/svg" xmlns:xlink="http://www.w3.org/1999/xlink" xmlns:sketch="http://www.bohemiancoding.com/sketch/ns">
    <!-- Generator: Sketch 3.3.2 (12043) - http://www.bohemiancoding.com/sketch -->
    <title>offline</title>
    <g fill-rule="evenodd">
        <g>
            <path d="M50.0280505,78.0925666 C49.4880785,78.0925666 48.2398317,77.1037868 46.28331,75.1332398 C44.3197756,73.1556802 43.345021,71.9004208 43.345021,71.3674614 C43.345021,70.5049088 44.1865358,69.7826087 45.8625526,69.1935484 C47.5385694,68.6044881 48.9340813,68.3099579 50.0350631,68.3099579 C51.1360449,68.3099579 52.5245442,68.6044881 54.2075736,69.1935484 C55.8835905,69.7826087 56.7251052,70.5119215 56.7251052,71.3674614 C56.7251052,71.9074334 55.743338,73.1626928 53.7868163,75.1332398 C51.8162693,77.1037868 50.5680224,78.0925666 50.0280505,78.0925666 L50.0280505,78.0925666 Z M60.911641,67.173913 C60.85554,67.173913 60.3225806,66.8373072 59.2987377,66.1640954 C58.2748948,65.4908836 56.914446,64.8176718 55.2103787,64.1514727 C53.5063114,63.4782609 51.7812062,63.141655 50.0350631,63.141655 C48.2889201,63.141655 46.5638149,63.4782609 44.8597475,64.1514727 C43.1556802,64.8246844 41.7952314,65.4978962 40.7924264,66.1640954 C39.7826087,66.8373072 39.2426367,67.173913 39.1584853,67.173913 C38.6746143,67.173913 37.4193548,66.1640954 35.3927069,64.1514727 C33.3660589,62.1388499 32.3492286,60.8906031 32.3492286,60.4067321 C32.3492286,60.056101 32.4824684,59.7475456 32.7489481,59.4810659 C34.8457223,57.4123422 37.4754558,55.7854137 40.6451613,54.6072931 C43.8148668,53.4221599 46.9424965,52.8330996 50.0350631,52.8330996 C53.1276297,52.8330996 56.2552595,53.4221599 59.4249649,54.6072931 C62.5946704,55.7924264 65.2244039,57.4123422 67.3211781,59.4810659 C67.5876578,59.7475456 67.7208976,60.056101 67.7208976,60.4067321 C67.7208976,60.8906031 66.7040673,62.1388499 64.6774194,64.1514727 C62.6507714,66.1640954 61.3955119,67.173913 60.911641,67.173913 L60.911641,67.173913 Z M71.9074334,56.2131837 C71.6129032,56.2131837 71.3043478,56.1079944 70.9817672,55.8906031 C67.3281907,53.0715288 63.941094,50.9957924 60.8274895,49.6633941 C57.713885,48.3309958 54.1093969,47.6718093 50.0280505,47.6718093 C47.7419355,47.6718093 45.4558205,47.9663394 43.1556802,48.5553997 C40.85554,49.14446 38.8569425,49.8597475 37.1528752,50.6942496 C35.4488079,51.5287518 33.9200561,52.3632539 32.5806452,53.1907433 C31.2342216,54.0252454 30.1753156,54.7335203 29.3969144,55.3295933 C28.6185133,55.9186536 28.2047686,56.2131837 28.1486676,56.2131837 C27.6928471,56.2131837 26.4586255,55.2033661 24.4389902,53.1907433 C22.4193548,51.1781206 21.4165498,49.9298738 21.4165498,49.4460028 C21.4165498,49.1234222 21.5497896,48.828892 21.8162693,48.5624123 C25.3646564,45.0140252 29.6633941,42.2650771 34.7124825,40.3015428 C39.7615708,38.3380084 44.8667602,37.3632539 50.0280505,37.3632539 C55.1893408,37.3632539 60.2875175,38.345021 65.3436185,40.3015428 C70.3927069,42.2650771 74.6914446,45.0140252 78.2398317,48.5624123 C78.5063114,48.828892 78.6395512,49.1234222 78.6395512,49.4460028 C78.6395512,49.9298738 77.6297335,51.1781206 75.6171108,53.1907433 C73.6044881,55.2033661 72.3702665,56.2131837 71.9074334,56.2131837 L71.9074334,56.2131837 Z M82.8330996,45.2875175 C82.5385694,45.2875175 82.2440393,45.1683029 81.9495091,44.9228612 C77.1388499,40.7082749 72.1528752,37.5315568 66.9775596,35.3927069 C61.802244,33.2538569 56.1570827,32.1879383 50.0350631,32.1879383 C43.9130435,32.1879383 38.2608696,33.2538569 33.0925666,35.3927069 C27.9242637,37.5315568 22.9312763,40.7082749 18.1206171,44.9228612 C17.826087,45.1612903 17.5315568,45.2875175 17.2370266,45.2875175 C16.7812062,45.2875175 15.5399719,44.2776999 13.5063114,42.2650771 C11.4796634,40.2524544 10.4628331,39.0042076 10.4628331,38.5203366 C10.4628331,38.1697055 10.5960729,37.8611501 10.8625526,37.5946704 C15.8835905,32.5946704 21.858345,28.7307153 28.7938289,25.9887798 C35.7293128,23.2468443 42.8050491,21.8793829 50.0280505,21.8793829 C57.2580645,21.8793829 64.3338008,23.2468443 71.2622721,25.9887798 C78.1907433,28.7307153 84.1725105,32.5946704 89.200561,37.5946704 C89.4670407,37.8611501 89.6002805,38.1697055 89.6002805,38.5203366 C89.6002805,39.0042076 88.5834502,40.2524544 86.5568022,42.2650771 C84.5301543,44.2776999 83.2889201,45.2875175 82.8330996,45.2875175 L82.8330996,45.2875175 Z" id="Shape" sketch:type="MSShapeGroup"></path>
            <path d="M96.0659187,30.5329593 C93.5483871,24.5792426 89.943899,19.2356241 85.3576438,14.6493689 C80.7713885,10.0631136 75.42777,6.45862553 69.4740533,3.94109397 C63.3099579,1.33239832 56.7671809,0.0140252454 50.0210379,0.0140252454 C43.2748948,0.0140252454 36.7321178,1.33239832 30.5680224,3.94109397 C24.6143058,6.45862553 19.2706872,10.0631136 14.684432,14.6493689 C10.1051893,19.2426367 6.50771388,24.5862553 3.99018233,30.5329593 C1.38148668,36.6970547 0.0631136045,43.2398317 0.0631136045,49.9859748 C0.0631136045,56.7321178 1.38148668,63.2748948 3.99018233,69.4389902 C6.50771388,75.3927069 10.112202,80.7363254 14.6984572,85.3225806 C19.2847125,89.9018233 24.628331,93.5063114 30.5820477,96.0238429 C36.7461431,98.6325386 43.2889201,99.9509116 50.0350631,99.9509116 C56.7812062,99.9509116 63.3239832,98.6325386 69.4880785,96.0238429 C75.4417952,93.5063114 80.7854137,89.9018233 85.371669,85.315568 C89.9579243,80.7293128 93.5624123,75.3856942 96.0799439,69.4319776 C98.6886396,63.2678822 100.007013,56.7251052 100.007013,49.9789621 C100,43.2398317 98.6746143,36.6970547 96.0659187,30.5329593 L96.0659187,30.5329593 Z M5.67321178,49.9859748 C5.67321178,43.997195 6.84431978,38.1907433 9.15848527,32.7208976 C11.3955119,27.4403927 14.5932679,22.6928471 18.6676017,18.6185133 C22.7419355,14.5441795 27.4894811,11.3464236 32.769986,9.10939691 C38.2398317,6.79523142 44.0462833,5.62412342 50.0350631,5.62412342 C56.0238429,5.62412342 61.8302945,6.79523142 67.3001403,9.10939691 C70.2454418,10.3506311 73.0154278,11.9004208 75.6030856,13.7237027 L13.772791,75.5539972 C11.9424965,72.9663394 10.3997195,70.1893408 9.15848527,67.2510519 C6.84431978,61.7812062 5.67321178,55.9747546 5.67321178,49.9859748 L5.67321178,49.9859748 Z M90.9046283,67.2510519 C88.6676017,72.5315568 85.4698457,77.2791024 81.3955119,81.3534362 C77.3211781,85.42777 72.5736325,88.6255259 67.2931276,90.8625526 C61.8232819,93.1767181 56.0168303,94.3478261 50.0280505,94.3478261 C44.0392707,94.3478261 38.2328191,93.1767181 32.7629734,90.8625526 C27.4824684,88.6255259 22.7349229,85.42777 18.6605891,81.3534362 C18.197756,80.8906031 17.7489481,80.4207574 17.3141655,79.943899 L79.9859748,17.2720898 C80.4628331,17.7068724 80.9326788,18.1556802 81.3955119,18.6185133 C85.4698457,22.6928471 88.6676017,27.4403927 90.9046283,32.7208976 C93.2187938,38.1907433 94.3899018,43.997195 94.3899018,49.9859748 C94.3899018,55.9747546 93.2117812,61.7812062 90.9046283,67.2510519 L90.9046283,67.2510519 Z" id="Shape" sketch:type="MSShapeGroup"></path>
        </g>
    </g>
</svg>