<?xml version="1.0" encoding="UTF-8" standalone="no"?>
<svg width="82px" height="101px" viewBox="0 0 82 101" version="1.1" xmlns="http://www.w3.org/2000/svg" xmlns:xlink="http://www.w3.org/1999/xlink" xmlns:sketch="http://www.bohemiancoding.com/sketch/ns">
    <!-- Generator: Sketch 3.3.2 (12043) - http://www.bohemiancoding.com/sketch -->
    <title>tablet</title>
    <g fill-rule="evenodd">
        <g>
            <path d="M45.4545455,90.9090909 C45.4545455,89.6803977 45.0071023,88.6150568 44.1051136,87.7130682 C43.203125,86.8110795 42.1377841,86.3636364 40.9090909,86.3636364 C39.6803977,86.3636364 38.6150568,86.8110795 37.7130682,87.7130682 C36.8110795,88.6150568 36.3636364,89.6803977 36.3636364,90.9090909 C36.3636364,92.1377841 36.8110795,93.203125 37.7130682,94.1051136 C38.6150568,95.0071023 39.6803977,95.4545455 40.9090909,95.4545455 C42.1377841,95.4545455 43.203125,95.0071023 44.1051136,94.1051136 C45.0071023,93.203125 45.4545455,92.1377841 45.4545455,90.9090909 L45.4545455,90.9090909 Z M72.7272727,79.5454545 L72.7272727,11.3636364 C72.7272727,10.7457386 72.5,10.2130682 72.0525568,9.765625 C71.6051136,9.31818182 71.0724432,9.09090909 70.4545455,9.09090909 L11.3636364,9.09090909 C10.7457386,9.09090909 10.2130682,9.31818182 9.765625,9.765625 C9.31818182,10.2130682 9.09090909,10.7457386 9.09090909,11.3636364 L9.09090909,79.5454545 C9.09090909,80.1633523 9.31818182,80.6960227 9.765625,81.1434659 C10.2130682,81.5909091 10.7457386,81.8181818 11.3636364,81.8181818 L70.4545455,81.8181818 C71.0724432,81.8181818 71.6051136,81.5909091 72.0525568,81.1434659 C72.5,80.6960227 72.7272727,80.1633523 72.7272727,79.5454545 L72.7272727,79.5454545 Z M81.8181818,11.3636364 L81.8181818,88.6363636 C81.8181818,91.7613636 80.703125,94.4389205 78.4801136,96.6619318 C76.2571023,98.8849432 73.5795455,100 70.4545455,100 L11.3636364,100 C8.23863636,100 5.56107955,98.8849432 3.33806818,96.6619318 C1.11505682,94.4389205 0,91.7613636 0,88.6363636 L0,11.3636364 C0,8.23863636 1.11505682,5.56107955 3.33806818,3.33806818 C5.56107955,1.11505682 8.23863636,0 11.3636364,0 L70.4545455,0 C73.5795455,0 76.2571023,1.11505682 78.4801136,3.33806818 C80.703125,5.56107955 81.8181818,8.23863636 81.8181818,11.3636364 L81.8181818,11.3636364 Z" id="Shape" sketch:type="MSShapeGroup"></path>
        </g>
    </g>
</svg>