<?xml version="1.0" encoding="UTF-8" standalone="no"?>
<svg width="142px" height="101px" viewBox="0 0 142 101" version="1.1" xmlns="http://www.w3.org/2000/svg" xmlns:xlink="http://www.w3.org/1999/xlink" xmlns:sketch="http://www.bohemiancoding.com/sketch/ns">
    <!-- Generator: Sketch 3.3.2 (12043) - http://www.bohemiancoding.com/sketch -->
    <title>wifi</title>
    <g fill-rule="evenodd">
        <g>
            <path d="M70.3942652,100 C69.4408602,100 67.218638,98.2437276 63.7275986,94.7311828 C60.2365591,91.218638 58.4946237,88.9820789 58.4946237,88.0286738 C58.4946237,86.5017921 59.9856631,85.2114695 62.9749104,84.1577061 C65.9641577,83.1039427 68.437276,82.5806452 70.3942652,82.5806452 C72.3512545,82.5806452 74.8243728,83.1039427 77.8136201,84.1577061 C80.8028674,85.2114695 82.2939068,86.5017921 82.2939068,88.0286738 C82.2939068,88.9820789 80.5519713,91.218638 77.0609319,94.7311828 C73.5698925,98.2437276 71.3476703,100 70.3942652,100 L70.3942652,100 Z M89.7491039,80.5734767 C89.655914,80.5734767 88.6953405,79.9784946 86.8817204,78.781362 C85.0681004,77.5842294 82.6379928,76.3942652 79.6057348,75.1971326 C76.5734767,74 73.4982079,73.4050179 70.3942652,73.4050179 C67.2903226,73.4050179 64.2150538,74 61.1827957,75.1971326 C58.1505376,76.3942652 55.734767,77.5842294 53.9426523,78.781362 C52.1505376,79.9784946 51.1827957,80.5734767 51.0394265,80.5734767 C50.1792115,80.5734767 47.9426523,78.781362 44.3369176,75.1971326 C40.7311828,71.6129032 38.9247312,69.390681 38.9247312,68.5304659 C38.9247312,67.90681 39.1612903,67.3620072 39.6415771,66.8817204 C43.3691756,63.2043011 48.0501792,60.3082437 53.6917563,58.2078853 C59.3333333,56.1075269 64.8960573,55.0537634 70.3942652,55.0537634 C75.8924731,55.0537634 81.4551971,56.1075269 87.0967742,58.2078853 C92.7383513,60.3082437 97.4193548,63.2043011 101.146953,66.8817204 C101.62724,67.3620072 101.863799,67.90681 101.863799,68.5304659 C101.863799,69.390681 100.057348,71.6129032 96.4516129,75.1971326 C92.8458781,78.781362 90.609319,80.5734767 89.7491039,80.5734767 L89.7491039,80.5734767 Z M109.318996,61.0752688 C108.795699,61.0752688 108.243728,60.8817204 107.670251,60.5017921 C101.168459,55.483871 95.1469534,51.7921147 89.6057348,49.4265233 C84.0645161,47.0609319 77.655914,45.8781362 70.3942652,45.8781362 C66.3297491,45.8781362 62.2580645,46.4014337 58.172043,47.4551971 C54.0860215,48.5089606 50.5232975,49.7706093 47.4910394,51.2544803 C44.4587814,52.7383513 41.7419355,54.2150538 39.3548387,55.6989247 C36.9677419,57.1827957 35.0752688,58.4444444 33.6917563,59.4982079 C32.3082437,60.5519713 31.562724,61.0752688 31.4695341,61.0752688 C30.6594982,61.0752688 28.4587814,59.2831541 24.874552,55.6989247 C21.2903226,52.1146953 19.4982079,49.8924731 19.4982079,49.0322581 C19.4982079,48.4587814 19.734767,47.9354839 20.2150538,47.4551971 C26.5232975,41.1469534 34.172043,36.2508961 43.1541219,32.7598566 C52.1362007,29.2688172 61.218638,27.5268817 70.3942652,27.5268817 C79.5698925,27.5268817 88.6523297,29.2688172 97.6344086,32.7598566 C106.616487,36.2508961 114.265233,41.1469534 120.573477,47.4551971 C121.053763,47.9354839 121.290323,48.4587814 121.290323,49.0322581 C121.290323,49.8924731 119.498208,52.1146953 115.913978,55.6989247 C112.329749,59.2831541 110.129032,61.0752688 109.318996,61.0752688 L109.318996,61.0752688 Z M128.74552,41.6487455 C128.222222,41.6487455 127.691756,41.4336918 127.168459,41.0035842 C118.616487,33.4982079 109.734767,27.8494624 100.537634,24.0501792 C91.3405018,20.2508961 81.2903226,18.3512545 70.3942652,18.3512545 C59.4982079,18.3512545 49.4480287,20.2508961 40.2508961,24.0501792 C31.0537634,27.8494624 22.172043,33.4982079 13.6200717,41.0035842 C13.0967742,41.4336918 12.5663082,41.6487455 12.0430108,41.6487455 C11.2329749,41.6487455 9.01792115,39.8566308 5.41218638,36.2724014 C1.80645161,32.688172 0,30.4659498 0,29.6057348 C0,28.9820789 0.23655914,28.437276 0.716845878,27.9569892 C9.65591398,19.0681004 20.2867384,12.1863799 32.6164875,7.31182796 C44.9462366,2.43727599 57.5412186,0 70.3942652,0 C83.2473118,0 95.8422939,2.43727599 108.172043,7.31182796 C120.501792,12.1863799 131.132616,19.0681004 140.071685,27.9569892 C140.551971,28.437276 140.78853,28.9820789 140.78853,29.6057348 C140.78853,30.4659498 138.982079,32.688172 135.376344,36.2724014 C131.770609,39.8566308 129.555556,41.6487455 128.74552,41.6487455 L128.74552,41.6487455 Z"></path>
        </g>
    </g>
</svg>