<?xml version="1.0" encoding="utf-8"?>
<!-- Generator: Adobe Illustrator 24.2.1, SVG Export Plug-In . SVG Version: 6.00 Build 0)  -->
<svg version="1.1" xmlns="http://www.w3.org/2000/svg" xmlns:xlink="http://www.w3.org/1999/xlink" x="0px" y="0px" width="150px"
	 height="162px" viewBox="0 0 150 162" enable-background="new 0 0 150 162" xml:space="preserve">
<g id="Layer_1">
	<g>
		<linearGradient id="SVGID_1_" gradientUnits="userSpaceOnUse" x1="-4.7899" y1="91.5778" x2="116.4818" y2="58.4123">
			<stop  offset="0" style="stop-color:#103436"/>
			<stop  offset="9.938070e-02" style="stop-color:#1C3535"/>
			<stop  offset="0.2776" style="stop-color:#3B3634"/>
			<stop  offset="0.5142" style="stop-color:#6D3832"/>
			<stop  offset="0.7967" style="stop-color:#B23C2E"/>
			<stop  offset="1" style="stop-color:#E83E2C"/>
		</linearGradient>
		<path fill="url(#SVGID_1_)" d="M132.2,85.8c0.2-0.7,0.8-1.2,1.6-1.2l6.5,0h0c3.7,0,6.7-3,6.7-6.7c0-1.8-0.7-3.5-2-4.7
			c-1.3-1.3-2.9-2-4.7-2l-6.5,0c-0.8,0-1.4-0.5-1.6-1.2l-0.2-0.6c-0.2-0.7,0.1-1.5,0.8-1.9l5.7-3.3c3.2-1.8,4.3-5.9,2.5-9.1
			c-1.2-2.1-3.4-3.3-5.8-3.4c-1.2,0-2.3,0.3-3.3,0.9l-5.7,3.3c-0.6,0.4-1.5,0.2-2-0.3c-0.1-0.1-0.3-0.3-0.4-0.4
			c-0.5-0.5-0.6-1.3-0.3-2l3.3-5.7c1.8-3.2,0.7-7.3-2.4-9.1c-0.5-0.3-1.1-0.5-1.7-0.7l-0.9-16.9l-48-14.6l-48,14.6l-3.2,59.1
			c-1.7,30.6,51.1,54,51.1,54s10.9-4.8,22.6-13c1.2,1.5,3.1,2.4,5.1,2.4h0c3.7,0,6.7-3,6.7-6.7l0-6.5c0-0.8,0.5-1.4,1.2-1.6l0.6-0.2
			c0.7-0.2,1.5,0.2,1.9,0.8l3.3,5.7c1.2,2.1,3.4,3.3,5.8,3.4c1.2,0,2.3-0.3,3.3-0.9c1.5-0.9,2.7-2.3,3.1-4.1
			c0.5-1.7,0.2-3.5-0.7-5.1l-3.3-5.7c-0.4-0.7-0.3-1.5,0.3-2l0.4-0.4c0.5-0.5,1.4-0.6,2-0.2l5.6,3.3c1,0.6,2.2,0.9,3.3,0.9
			c2.4,0,4.6-1.3,5.8-3.3c0.9-1.5,1.1-3.3,0.7-5.1c-0.5-1.7-1.6-3.2-3.1-4.1l-5.7-3.3c-0.7-0.4-1-1.1-0.8-1.9
			C132.1,86.2,132.2,86,132.2,85.8z M101.5,122l0-1.3c-2.2,0-4-1.8-4-4l0-6.5c0-2-1.3-3.7-3.2-4.2l-0.5-0.1
			c-0.4-0.1-0.8-0.2-1.1-0.2c-1.5,0-3,0.8-3.8,2.2l-3.3,5.6c-0.7,1.2-2,2-3.5,2c-0.7,0-1.4-0.2-2-0.5c-0.9-0.5-1.6-1.4-1.9-2.4
			c-0.3-1-0.1-2.1,0.4-3l3.3-5.7c1-1.7,0.7-3.9-0.7-5.3c-0.1-0.1-0.3-0.3-0.4-0.4c-0.8-0.8-1.9-1.3-3.1-1.3c-0.8,0-1.5,0.2-2.2,0.6
			l-5.7,3.3c-0.6,0.4-1.3,0.5-2,0.5c-1.4,0-2.8-0.8-3.5-2c-0.5-0.9-0.7-2-0.4-3c0.3-1,0.9-1.9,1.9-2.4l5.7-3.3c1.7-1,2.6-3,2-4.9
			l-0.1-0.5c-0.5-1.9-2.2-3.2-4.2-3.2l-6.5,0c-1.1,0-2.1-0.4-2.8-1.2c-0.8-0.8-1.2-1.8-1.2-2.8c0-2.2,1.8-4,4-4l6.5,0
			c2,0,3.7-1.3,4.2-3.2c0-0.2,0.1-0.4,0.1-0.5c0.5-1.9-0.3-3.9-2-4.9l-5.7-3.3c-1.9-1.1-2.6-3.6-1.5-5.5c0.7-1.2,2-2,3.5-2
			c0.7,0,1.4,0.2,2,0.5l5.7,3.3c0.7,0.4,1.4,0.6,2.2,0.6c1.2,0,2.3-0.5,3.1-1.3l0.4-0.4c1.4-1.4,1.7-3.5,0.7-5.3l-3.3-5.7
			c-1.1-1.9-0.4-4.4,1.5-5.5c0.6-0.4,1.3-0.5,2-0.5c1.4,0,2.8,0.8,3.5,2l3.3,5.7c0.8,1.3,2.2,2.2,3.8,2.2c0.4,0,0.8-0.1,1.1-0.1
			l0.5-0.1c1.9-0.5,3.2-2.2,3.2-4.2l0-6.5c0-2.2,1.8-4,4-4c2.2,0,4,1.8,4,4l0,6.5c0,2,1.3,3.7,3.2,4.2c0.2,0,0.4,0.1,0.5,0.1
			c0.4,0.1,0.7,0.2,1.1,0.2c1.6,0,3-0.8,3.8-2.2l3.3-5.7c0.7-1.2,2-2,3.5-2c0.7,0,1.4,0.2,2,0.5c1.9,1.1,2.6,3.6,1.5,5.5l-3.3,5.6
			c-1,1.7-0.7,3.9,0.7,5.3c0.1,0.1,0.3,0.3,0.4,0.4c0.8,0.8,1.9,1.3,3.1,1.3c0.8,0,1.5-0.2,2.2-0.6l5.7-3.3c0.6-0.4,1.3-0.5,2-0.5
			c1.4,0,2.8,0.8,3.5,2c1.1,1.9,0.4,4.4-1.5,5.5l-5.7,3.3c-1.7,1-2.6,3-2,4.9l0.1,0.5c0.5,1.9,2.2,3.2,4.2,3.2l6.5,0
			c1.1,0,2.1,0.4,2.8,1.2c0.8,0.8,1.2,1.8,1.2,2.8c0,2.2-1.8,4-4,4l-6.5,0c-2,0-3.7,1.3-4.2,3.2c0,0.2-0.1,0.4-0.1,0.5
			c-0.5,1.9,0.3,3.9,2,4.9l5.7,3.3c0.9,0.5,1.6,1.4,1.9,2.4c0.3,1,0.1,2.1-0.4,3c-0.7,1.2-2,2-3.5,2c-0.7,0-1.4-0.2-2-0.5l-5.7-3.3
			c-0.7-0.4-1.4-0.6-2.2-0.6c-1.2,0-2.3,0.5-3.1,1.3l-0.4,0.4c-1.4,1.4-1.7,3.5-0.7,5.3l3.3,5.7c0.5,0.9,0.7,2,0.4,3
			c-0.3,1-0.9,1.9-1.9,2.4c-0.6,0.4-1.3,0.5-2,0.5c-1.4,0-2.8-0.8-3.5-2l-3.3-5.7c-0.8-1.3-2.2-2.2-3.8-2.2c-0.4,0-0.8,0.1-1.1,0.1
			l-0.5,0.1c-1.9,0.5-3.2,2.2-3.2,4.2l0,6.5c0,2.2-1.8,4-4,4V122L101.5,122L101.5,122z"/>
		<linearGradient id="SVGID_2_" gradientUnits="userSpaceOnUse" x1="-4.1877" y1="93.7789" x2="117.0842" y2="60.6134">
			<stop  offset="0" style="stop-color:#103436"/>
			<stop  offset="9.938070e-02" style="stop-color:#1C3535"/>
			<stop  offset="0.2776" style="stop-color:#3B3634"/>
			<stop  offset="0.5142" style="stop-color:#6D3832"/>
			<stop  offset="0.7967" style="stop-color:#B23C2E"/>
			<stop  offset="1" style="stop-color:#E83E2C"/>
		</linearGradient>
		<path fill="url(#SVGID_2_)" d="M117.1,63.5c1.6,0,2.9-1.3,2.9-2.9c0-1.6-1.3-2.9-2.9-2.9c-1.6,0-2.9,1.3-2.9,2.9
			C114.2,62.2,115.5,63.5,117.1,63.5z"/>
		<linearGradient id="SVGID_3_" gradientUnits="userSpaceOnUse" x1="-5.6312" y1="88.5021" x2="115.6413" y2="55.3364">
			<stop  offset="0" style="stop-color:#103436"/>
			<stop  offset="9.938070e-02" style="stop-color:#1C3535"/>
			<stop  offset="0.2776" style="stop-color:#3B3634"/>
			<stop  offset="0.5142" style="stop-color:#6D3832"/>
			<stop  offset="0.7967" style="stop-color:#B23C2E"/>
			<stop  offset="1" style="stop-color:#E83E2C"/>
		</linearGradient>
		<path fill="url(#SVGID_3_)" d="M92,64.7c1.6,0,2.9-1.3,2.9-2.9c0-1.6-1.3-2.9-2.9-2.9c-1.6,0-2.9,1.3-2.9,2.9
			C89.1,63.4,90.4,64.7,92,64.7z"/>
		<linearGradient id="SVGID_4_" gradientUnits="userSpaceOnUse" x1="-0.7673" y1="106.287" x2="120.5049" y2="73.1214">
			<stop  offset="0" style="stop-color:#103436"/>
			<stop  offset="9.938070e-02" style="stop-color:#1C3535"/>
			<stop  offset="0.2776" style="stop-color:#3B3634"/>
			<stop  offset="0.5142" style="stop-color:#6D3832"/>
			<stop  offset="0.7967" style="stop-color:#B23C2E"/>
			<stop  offset="1" style="stop-color:#E83E2C"/>
		</linearGradient>
		<path fill="url(#SVGID_4_)" d="M80.3,81.3c-1.5,0-2.8,1.2-2.8,2.8c0,1.5,1.2,2.8,2.8,2.8c1.5,0,2.8-1.2,2.8-2.8
			C83.1,82.6,81.8,81.3,80.3,81.3z"/>
		<linearGradient id="SVGID_5_" gradientUnits="userSpaceOnUse" x1="-4.7975" y1="91.5513" x2="116.4748" y2="58.3856">
			<stop  offset="0" style="stop-color:#103436"/>
			<stop  offset="9.938070e-02" style="stop-color:#1C3535"/>
			<stop  offset="0.2776" style="stop-color:#3B3634"/>
			<stop  offset="0.5142" style="stop-color:#6D3832"/>
			<stop  offset="0.7967" style="stop-color:#B23C2E"/>
			<stop  offset="1" style="stop-color:#E83E2C"/>
		</linearGradient>
		<path fill="url(#SVGID_5_)" d="M81.7,65.3c-1.4,0-2.6,1.2-2.6,2.6c0,1.5,1.2,2.6,2.6,2.6c1.5,0,2.6-1.2,2.6-2.6
			C84.3,66.5,83.1,65.3,81.7,65.3z"/>
		<linearGradient id="SVGID_6_" gradientUnits="userSpaceOnUse" x1="3.3892" y1="121.4848" x2="124.6612" y2="88.3192">
			<stop  offset="0" style="stop-color:#103436"/>
			<stop  offset="9.938070e-02" style="stop-color:#1C3535"/>
			<stop  offset="0.2776" style="stop-color:#3B3634"/>
			<stop  offset="0.5142" style="stop-color:#6D3832"/>
			<stop  offset="0.7967" style="stop-color:#B23C2E"/>
			<stop  offset="1" style="stop-color:#E83E2C"/>
		</linearGradient>
		<path fill="url(#SVGID_6_)" d="M91.6,94.6c-1.5,0-2.8,1.2-2.8,2.8c0,1.5,1.2,2.8,2.8,2.8c1.5,0,2.8-1.2,2.8-2.8
			C94.3,95.8,93.1,94.6,91.6,94.6z"/>
		<linearGradient id="SVGID_7_" gradientUnits="userSpaceOnUse" x1="-1.7795" y1="102.5859" x2="119.4929" y2="69.4202">
			<stop  offset="0" style="stop-color:#103436"/>
			<stop  offset="9.938070e-02" style="stop-color:#1C3535"/>
			<stop  offset="0.2776" style="stop-color:#3B3634"/>
			<stop  offset="0.5142" style="stop-color:#6D3832"/>
			<stop  offset="0.7967" style="stop-color:#B23C2E"/>
			<stop  offset="1" style="stop-color:#E83E2C"/>
		</linearGradient>
		<path fill="url(#SVGID_7_)" d="M92.9,73.8c-1.6,0-2.9,1.3-2.9,2.9c0,1.6,1.3,2.9,2.9,2.9c1.6,0,2.9-1.3,2.9-2.9
			C95.8,75.1,94.5,73.8,92.9,73.8z"/>
		<linearGradient id="SVGID_8_" gradientUnits="userSpaceOnUse" x1="1.3755" y1="114.1241" x2="122.648" y2="80.9584">
			<stop  offset="0" style="stop-color:#103436"/>
			<stop  offset="9.938070e-02" style="stop-color:#1C3535"/>
			<stop  offset="0.2776" style="stop-color:#3B3634"/>
			<stop  offset="0.5142" style="stop-color:#6D3832"/>
			<stop  offset="0.7967" style="stop-color:#B23C2E"/>
			<stop  offset="1" style="stop-color:#E83E2C"/>
		</linearGradient>
		<path fill="url(#SVGID_8_)" d="M102.9,87.2c0-1.7-1.4-3.1-3.1-3.1c-1.7,0-3.1,1.4-3.1,3.1c0,1.7,1.4,3.1,3.1,3.1
			C101.6,90.3,102.9,88.9,102.9,87.2z"/>
		<linearGradient id="SVGID_9_" gradientUnits="userSpaceOnUse" x1="-6.3479" y1="85.8802" x2="114.9242" y2="52.7146">
			<stop  offset="0" style="stop-color:#103436"/>
			<stop  offset="9.938070e-02" style="stop-color:#1C3535"/>
			<stop  offset="0.2776" style="stop-color:#3B3634"/>
			<stop  offset="0.5142" style="stop-color:#6D3832"/>
			<stop  offset="0.7967" style="stop-color:#B23C2E"/>
			<stop  offset="1" style="stop-color:#E83E2C"/>
		</linearGradient>
		<path fill="url(#SVGID_9_)" d="M101.5,58.9c1.4,0,2.5-1.1,2.5-2.5c0-1.4-1.1-2.5-2.5-2.5c-1.4,0-2.5,1.1-2.5,2.5
			C99,57.8,100.1,58.9,101.5,58.9z"/>
		<linearGradient id="SVGID_10_" gradientUnits="userSpaceOnUse" x1="-2.7558" y1="99.0144" x2="118.5164" y2="65.8488">
			<stop  offset="0" style="stop-color:#103436"/>
			<stop  offset="9.938070e-02" style="stop-color:#1C3535"/>
			<stop  offset="0.2776" style="stop-color:#3B3634"/>
			<stop  offset="0.5142" style="stop-color:#6D3832"/>
			<stop  offset="0.7967" style="stop-color:#B23C2E"/>
			<stop  offset="1" style="stop-color:#E83E2C"/>
		</linearGradient>
		<path fill="url(#SVGID_10_)" d="M106.7,72.1c1.7,0,3.1-1.4,3.1-3.1c0-1.7-1.4-3.1-3.1-3.1c-1.7,0-3.1,1.4-3.1,3.1
			C103.6,70.8,105,72.1,106.7,72.1z"/>
		<linearGradient id="SVGID_11_" gradientUnits="userSpaceOnUse" x1="4.8145" y1="126.6967" x2="126.0867" y2="93.531">
			<stop  offset="0" style="stop-color:#103436"/>
			<stop  offset="9.938070e-02" style="stop-color:#1C3535"/>
			<stop  offset="0.2776" style="stop-color:#3B3634"/>
			<stop  offset="0.5142" style="stop-color:#6D3832"/>
			<stop  offset="0.7967" style="stop-color:#B23C2E"/>
			<stop  offset="1" style="stop-color:#E83E2C"/>
		</linearGradient>
		<path fill="url(#SVGID_11_)" d="M110.6,94.7c-1.7,0-3.1,1.4-3.1,3.1c0,1.7,1.4,3.1,3.1,3.1c1.7,0,3.1-1.4,3.1-3.1
			C113.7,96.1,112.3,94.7,110.6,94.7z"/>
		<linearGradient id="SVGID_12_" gradientUnits="userSpaceOnUse" x1="0.2054" y1="109.8438" x2="121.4773" y2="76.6782">
			<stop  offset="0" style="stop-color:#103436"/>
			<stop  offset="9.938070e-02" style="stop-color:#1C3535"/>
			<stop  offset="0.2776" style="stop-color:#3B3634"/>
			<stop  offset="0.5142" style="stop-color:#6D3832"/>
			<stop  offset="0.7967" style="stop-color:#B23C2E"/>
			<stop  offset="1" style="stop-color:#E83E2C"/>
		</linearGradient>
		<path fill="url(#SVGID_12_)" d="M112.2,82.3c1.7,0,3.1-1.4,3.1-3.1c0-1.7-1.4-3.1-3.1-3.1c-1.7,0-3.1,1.4-3.1,3.1
			C109.1,80.9,110.5,82.3,112.2,82.3z"/>
		<linearGradient id="SVGID_13_" gradientUnits="userSpaceOnUse" x1="3.1813" y1="120.7237" x2="124.4535" y2="87.5581">
			<stop  offset="0" style="stop-color:#103436"/>
			<stop  offset="9.938070e-02" style="stop-color:#1C3535"/>
			<stop  offset="0.2776" style="stop-color:#3B3634"/>
			<stop  offset="0.5142" style="stop-color:#6D3832"/>
			<stop  offset="0.7967" style="stop-color:#B23C2E"/>
			<stop  offset="1" style="stop-color:#E83E2C"/>
		</linearGradient>
		<path fill="url(#SVGID_13_)" d="M117.6,88.7c0,1.5,1.2,2.8,2.8,2.8c1.5,0,2.8-1.2,2.8-2.8c0-1.5-1.2-2.8-2.8-2.8
			C118.8,85.9,117.6,87.1,117.6,88.7z"/>
		<linearGradient id="SVGID_14_" gradientUnits="userSpaceOnUse" x1="0.454" y1="110.7509" x2="121.7257" y2="77.5854">
			<stop  offset="0" style="stop-color:#103436"/>
			<stop  offset="9.938070e-02" style="stop-color:#1C3535"/>
			<stop  offset="0.2776" style="stop-color:#3B3634"/>
			<stop  offset="0.5142" style="stop-color:#6D3832"/>
			<stop  offset="0.7967" style="stop-color:#B23C2E"/>
			<stop  offset="1" style="stop-color:#E83E2C"/>
		</linearGradient>
		<path fill="url(#SVGID_14_)" d="M125,79.6c1.6,0,2.9-1.3,2.9-2.9c0-1.6-1.3-2.9-2.9-2.9c-1.6,0-2.9,1.3-2.9,2.9
			C122.1,78.3,123.4,79.6,125,79.6z"/>
	</g>
</g>
<g id="de">
	<g>
		<path fill="#103436" d="M17.3,156.6h-6l-1.7,2.8H6.4l8.4-12.9h2.9l3.2,12.9h-3L17.3,156.6z M16.8,154.4l-1.1-5l-3,5H16.8z"/>
		<path fill="#103436" d="M32.4,150.2c0.7,0.6,1,1.4,1,2.5c0,0.4,0,0.8-0.1,1.2l-1.1,5.5h-2.9l1.1-5.3c0-0.2,0.1-0.4,0.1-0.7
			c0-0.5-0.1-0.9-0.4-1.2c-0.3-0.3-0.7-0.4-1.3-0.4c-0.7,0-1.3,0.2-1.8,0.6c-0.5,0.4-0.8,1.1-1,1.9l-1,5H22l2-9.9h2.7l-0.2,1.1
			c0.9-0.8,2-1.2,3.3-1.2C30.9,149.3,31.8,149.6,32.4,150.2z"/>
		<path fill="#103436" d="M38.7,155.9c0,0.1,0,0.2,0,0.4c0,0.6,0.4,1,1.1,1c0.4,0,0.8-0.1,1.2-0.4l0.4,2c-0.6,0.4-1.5,0.6-2.5,0.6
			c-0.9,0-1.7-0.2-2.2-0.7c-0.6-0.5-0.8-1.2-0.8-2c0-0.2,0-0.5,0.1-0.9l0.8-4h-1.5l0.4-2.2H37l0.5-2.4h2.9l-0.5,2.4h2.5l-0.4,2.2
			h-2.5L38.7,155.9z"/>
		<path fill="#103436" d="M44.8,149.5h2.9l-2,9.9h-2.9L44.8,149.5z M45.5,147.7c-0.3-0.3-0.5-0.6-0.5-1.1c0-0.5,0.2-0.9,0.5-1.2
			c0.4-0.3,0.8-0.5,1.4-0.5c0.5,0,0.9,0.1,1.2,0.4c0.3,0.3,0.5,0.6,0.5,1c0,0.5-0.2,1-0.5,1.3c-0.4,0.3-0.8,0.5-1.4,0.5
			C46.2,148.1,45.8,148,45.5,147.7z"/>
		<path fill="#103436" d="M58,149.9c0.7,0.4,1.2,0.9,1.6,1.5c0.4,0.7,0.6,1.5,0.6,2.4c0,1.1-0.2,2.1-0.7,3c-0.5,0.9-1.1,1.6-2,2.1
			c-0.8,0.5-1.8,0.7-2.8,0.7c-0.8,0-1.4-0.1-2-0.4c-0.6-0.3-1-0.7-1.3-1.2l-0.3,1.5h-2.7l2.7-13.7h2.9l-0.9,4.6c0.8-0.7,1.8-1,2.9-1
			C56.6,149.3,57.3,149.5,58,149.9z M55.8,156.8c0.4-0.3,0.8-0.7,1-1.2c0.2-0.5,0.4-1.1,0.4-1.7c0-0.7-0.2-1.2-0.6-1.6
			c-0.4-0.4-1-0.6-1.7-0.6c-0.6,0-1.1,0.1-1.5,0.4c-0.4,0.3-0.8,0.7-1,1.2c-0.2,0.5-0.4,1.1-0.4,1.7c0,0.7,0.2,1.2,0.6,1.6
			c0.4,0.4,0.9,0.6,1.7,0.6C54.9,157.2,55.4,157,55.8,156.8z"/>
		<path fill="#103436" d="M73.1,149.5l-2,9.9h-2.7l0.2-1c-0.8,0.8-1.8,1.1-3,1.1c-0.8,0-1.5-0.2-2.1-0.5c-0.7-0.4-1.2-0.9-1.6-1.5
			c-0.4-0.7-0.6-1.5-0.6-2.4c0-1.1,0.2-2.1,0.7-3c0.5-0.9,1.1-1.6,2-2.1c0.8-0.5,1.8-0.7,2.8-0.7c1.5,0,2.6,0.5,3.2,1.5l0.3-1.3
			H73.1z M67.9,156.8c0.4-0.3,0.8-0.7,1-1.2c0.2-0.5,0.4-1.1,0.4-1.7c0-0.7-0.2-1.2-0.6-1.6c-0.4-0.4-1-0.6-1.7-0.6
			c-0.6,0-1.1,0.1-1.5,0.4c-0.4,0.3-0.8,0.7-1,1.2c-0.2,0.5-0.4,1.1-0.4,1.7c0,0.7,0.2,1.2,0.6,1.6c0.4,0.4,1,0.6,1.7,0.6
			C67,157.2,67.5,157,67.9,156.8z"/>
		<path fill="#103436" d="M81.2,153.8l3.4,5.6h-3.3l-2.4-3.9l-1.8,1.5l-0.5,2.4h-2.9l2.7-13.7h2.9l-1.5,7.7l4.8-3.9h3.7L81.2,153.8z
			"/>
		<path fill="#103436" d="M89.6,155.9c0,0.1,0,0.2,0,0.4c0,0.6,0.3,1,1.1,1c0.4,0,0.8-0.1,1.2-0.4l0.4,2c-0.6,0.4-1.5,0.6-2.5,0.6
			c-0.9,0-1.7-0.2-2.2-0.7c-0.6-0.5-0.8-1.2-0.8-2c0-0.2,0-0.5,0.1-0.9l0.8-4h-1.5l0.4-2.2h1.5l0.5-2.4h2.9l-0.5,2.4h2.5l-0.4,2.2
			h-2.5L89.6,155.9z"/>
		<path fill="#103436" d="M104,155.2h-7.6c0.1,1.4,1,2,2.6,2c0.5,0,1-0.1,1.4-0.2c0.5-0.2,0.9-0.4,1.2-0.7l1.2,1.9
			c-0.6,0.4-1.2,0.8-1.9,1c-0.7,0.2-1.5,0.3-2.2,0.3c-1,0-1.9-0.2-2.7-0.5c-0.8-0.4-1.4-0.9-1.8-1.6c-0.4-0.7-0.6-1.5-0.6-2.3
			c0-1.1,0.2-2.1,0.7-3c0.5-0.9,1.2-1.6,2.1-2.1c0.9-0.5,1.9-0.7,3-0.7c1,0,1.8,0.2,2.5,0.5c0.7,0.4,1.3,0.9,1.6,1.5
			c0.4,0.7,0.6,1.4,0.6,2.3C104.1,154.2,104.1,154.7,104,155.2z M97.6,152c-0.5,0.4-0.8,0.9-1,1.5h4.9c0-0.6-0.2-1.1-0.6-1.5
			c-0.4-0.4-0.9-0.5-1.6-0.5C98.6,151.5,98,151.7,97.6,152z"/>
		<path fill="#103436" d="M111,149.6c0.6-0.2,1.3-0.3,2.1-0.3l-0.5,2.7c-0.3,0-0.6,0-0.7,0c-0.9,0-1.6,0.2-2.1,0.6
			c-0.5,0.4-0.9,1.1-1.1,2l-1,4.8h-2.9l2-9.9h2.7l-0.2,1.2C109.8,150.2,110.3,149.9,111,149.6z"/>
		<path fill="#103436" d="M114.8,149.5h2.9l-2,9.9h-2.9L114.8,149.5z M115.5,147.7c-0.3-0.3-0.5-0.6-0.5-1.1c0-0.5,0.2-0.9,0.5-1.2
			c0.3-0.3,0.8-0.5,1.4-0.5c0.5,0,0.9,0.1,1.2,0.4c0.3,0.3,0.5,0.6,0.5,1c0,0.5-0.2,1-0.5,1.3s-0.8,0.5-1.4,0.5
			C116.2,148.1,115.8,148,115.5,147.7z"/>
		<path fill="#103436" d="M128.9,155.2h-7.6c0.1,1.4,1,2,2.6,2c0.5,0,1-0.1,1.4-0.2c0.5-0.2,0.9-0.4,1.2-0.7l1.2,1.9
			c-0.6,0.4-1.2,0.8-1.9,1c-0.7,0.2-1.5,0.3-2.2,0.3c-1,0-1.9-0.2-2.7-0.5c-0.8-0.4-1.4-0.9-1.8-1.6c-0.4-0.7-0.6-1.5-0.6-2.3
			c0-1.1,0.2-2.1,0.7-3c0.5-0.9,1.2-1.6,2.1-2.1c0.9-0.5,1.9-0.7,3-0.7c1,0,1.8,0.2,2.5,0.5c0.7,0.4,1.3,0.9,1.6,1.5
			c0.4,0.7,0.6,1.4,0.6,2.3C129.1,154.2,129.1,154.7,128.9,155.2z M122.5,152c-0.5,0.4-0.8,0.9-1,1.5h4.9c0-0.6-0.2-1.1-0.6-1.5
			c-0.4-0.4-0.9-0.5-1.6-0.5C123.6,151.5,123,151.7,122.5,152z"/>
		<path fill="#103436" d="M132.6,145.7h2.9l-2.7,13.7h-2.9L132.6,145.7z"/>
		<path fill="#103436" d="M138.2,145.7h2.9l-2.7,13.7h-2.9L138.2,145.7z"/>
	</g>
</g>
<g id="en" display="none">
	<g display="inline">
		<path fill="#103436" d="M19.6,156.6h-6l-1.7,2.8H8.7l8.4-12.9H20l3.2,12.9h-3L19.6,156.6z M19.1,154.4l-1.1-5l-3,5H19.1z"/>
		<path fill="#103436" d="M34.7,150.2c0.7,0.6,1,1.4,1,2.5c0,0.4,0,0.8-0.1,1.2l-1.1,5.5h-2.9l1.1-5.3c0-0.2,0.1-0.4,0.1-0.7
			c0-0.5-0.1-0.9-0.4-1.2s-0.7-0.4-1.3-0.4c-0.7,0-1.3,0.2-1.8,0.6c-0.5,0.4-0.8,1.1-1,1.9l-1,5h-2.9l2-9.9H29l-0.2,1.1
			c0.9-0.8,2-1.2,3.3-1.2C33.2,149.3,34,149.6,34.7,150.2z"/>
		<path fill="#103436" d="M41,155.9c0,0.1,0,0.2,0,0.4c0,0.6,0.4,1,1.1,1c0.4,0,0.8-0.1,1.2-0.4l0.4,2c-0.6,0.4-1.5,0.6-2.5,0.6
			c-0.9,0-1.7-0.2-2.2-0.7s-0.8-1.2-0.8-2c0-0.2,0-0.5,0.1-0.9l0.8-4h-1.5l0.4-2.2h1.5l0.5-2.4h2.9l-0.5,2.4h2.5l-0.4,2.2h-2.5
			L41,155.9z"/>
		<path fill="#103436" d="M47,149.5h2.9l-2,9.9h-2.9L47,149.5z M47.8,147.7c-0.3-0.3-0.5-0.6-0.5-1.1c0-0.5,0.2-0.9,0.5-1.2
			c0.4-0.3,0.8-0.5,1.4-0.5c0.5,0,0.9,0.1,1.2,0.4c0.3,0.3,0.5,0.6,0.5,1c0,0.5-0.2,1-0.5,1.3c-0.4,0.3-0.8,0.5-1.4,0.5
			C48.5,148.1,48.1,148,47.8,147.7z"/>
		<path fill="#103436" d="M60.3,149.9c0.7,0.4,1.2,0.9,1.6,1.5s0.6,1.5,0.6,2.4c0,1.1-0.2,2.1-0.7,3c-0.5,0.9-1.1,1.6-2,2.1
			c-0.8,0.5-1.8,0.7-2.8,0.7c-0.8,0-1.4-0.1-2-0.4c-0.6-0.3-1-0.7-1.3-1.2l-0.3,1.5h-2.7l2.7-13.7h2.9l-0.9,4.6c0.8-0.7,1.8-1,2.9-1
			C58.9,149.3,59.6,149.5,60.3,149.9z M58.1,156.8c0.4-0.3,0.8-0.7,1-1.2c0.2-0.5,0.4-1.1,0.4-1.7c0-0.7-0.2-1.2-0.6-1.6
			c-0.4-0.4-1-0.6-1.7-0.6c-0.6,0-1.1,0.1-1.5,0.4c-0.4,0.3-0.8,0.7-1,1.2c-0.2,0.5-0.4,1.1-0.4,1.7c0,0.7,0.2,1.2,0.6,1.6
			c0.4,0.4,0.9,0.6,1.7,0.6C57.2,157.2,57.7,157,58.1,156.8z"/>
		<path fill="#103436" d="M75.4,149.5l-2,9.9h-2.7l0.2-1c-0.8,0.8-1.8,1.1-3,1.1c-0.8,0-1.5-0.2-2.1-0.5c-0.7-0.4-1.2-0.9-1.6-1.5
			c-0.4-0.7-0.6-1.5-0.6-2.4c0-1.1,0.2-2.1,0.7-3c0.5-0.9,1.1-1.6,2-2.1s1.8-0.7,2.8-0.7c1.5,0,2.6,0.5,3.2,1.5l0.3-1.3H75.4z
			 M70.2,156.8c0.4-0.3,0.8-0.7,1-1.2c0.2-0.5,0.4-1.1,0.4-1.7c0-0.7-0.2-1.2-0.6-1.6c-0.4-0.4-1-0.6-1.7-0.6
			c-0.6,0-1.1,0.1-1.5,0.4c-0.4,0.3-0.8,0.7-1,1.2c-0.2,0.5-0.4,1.1-0.4,1.7c0,0.7,0.2,1.2,0.6,1.6c0.4,0.4,1,0.6,1.7,0.6
			C69.3,157.2,69.8,157,70.2,156.8z"/>
		<path fill="#103436" d="M78.6,159c-0.8-0.4-1.3-0.9-1.8-1.6c-0.4-0.7-0.6-1.4-0.6-2.3c0-1.1,0.3-2.1,0.8-2.9s1.2-1.6,2.2-2.1
			s2-0.8,3.1-0.8c1.1,0,2,0.2,2.7,0.7c0.8,0.4,1.3,1.1,1.7,1.9l-2.4,1.2c-0.4-0.9-1.2-1.3-2.2-1.3c-0.6,0-1.1,0.1-1.5,0.4
			c-0.4,0.3-0.8,0.7-1.1,1.2c-0.3,0.5-0.4,1.1-0.4,1.7c0,0.7,0.2,1.2,0.6,1.6s1,0.6,1.7,0.6c1.1,0,1.9-0.4,2.4-1.3l2.1,1.3
			c-0.5,0.8-1.1,1.3-2,1.8c-0.8,0.4-1.7,0.6-2.8,0.6C80.3,159.5,79.4,159.4,78.6,159z"/>
		<path fill="#103436" d="M91,155.9c0,0.1,0,0.2,0,0.4c0,0.6,0.4,1,1.1,1c0.4,0,0.8-0.1,1.2-0.4l0.4,2c-0.6,0.4-1.5,0.6-2.5,0.6
			c-0.9,0-1.7-0.2-2.2-0.7s-0.8-1.2-0.8-2c0-0.2,0-0.5,0.1-0.9l0.8-4h-1.5l0.4-2.2h1.5l0.5-2.4h2.9l-0.5,2.4h2.5l-0.4,2.2h-2.5
			L91,155.9z"/>
		<path fill="#103436" d="M105.4,155.2h-7.6c0.1,1.4,1,2,2.6,2c0.5,0,1-0.1,1.4-0.2c0.5-0.2,0.9-0.4,1.2-0.7l1.2,1.9
			c-0.6,0.4-1.2,0.8-1.9,1c-0.7,0.2-1.5,0.3-2.2,0.3c-1,0-1.9-0.2-2.7-0.5c-0.8-0.4-1.4-0.9-1.8-1.6c-0.4-0.7-0.6-1.5-0.6-2.3
			c0-1.1,0.2-2.1,0.7-3c0.5-0.9,1.2-1.6,2.1-2.1c0.9-0.5,1.9-0.7,3-0.7c1,0,1.8,0.2,2.5,0.5c0.7,0.4,1.3,0.9,1.6,1.5
			c0.4,0.7,0.6,1.4,0.6,2.3C105.6,154.2,105.5,154.7,105.4,155.2z M99,152c-0.5,0.4-0.8,0.9-1,1.5h4.9c0-0.6-0.2-1.1-0.6-1.5
			c-0.4-0.4-0.9-0.5-1.6-0.5C100,151.5,99.5,151.7,99,152z"/>
		<path fill="#103436" d="M112.4,149.6c0.6-0.2,1.3-0.3,2.1-0.3L114,152c-0.3,0-0.6,0-0.7,0c-0.9,0-1.6,0.2-2.1,0.6s-0.9,1.1-1.1,2
			l-1,4.8h-2.9l2-9.9h2.7l-0.2,1.2C111.3,150.2,111.8,149.9,112.4,149.6z"/>
		<path fill="#103436" d="M116.2,149.5h2.9l-2,9.9h-2.9L116.2,149.5z M116.9,147.7c-0.3-0.3-0.5-0.6-0.5-1.1c0-0.5,0.2-0.9,0.5-1.2
			c0.4-0.3,0.8-0.5,1.4-0.5c0.5,0,0.9,0.1,1.2,0.4c0.3,0.3,0.5,0.6,0.5,1c0,0.5-0.2,1-0.5,1.3c-0.4,0.3-0.8,0.5-1.4,0.5
			C117.6,148.1,117.2,148,116.9,147.7z"/>
		<path fill="#103436" d="M131.8,149.5l-2,9.9h-2.7l0.2-1c-0.8,0.8-1.8,1.1-3,1.1c-0.8,0-1.5-0.2-2.1-0.5c-0.7-0.4-1.2-0.9-1.6-1.5
			c-0.4-0.7-0.6-1.5-0.6-2.4c0-1.1,0.2-2.1,0.7-3c0.5-0.9,1.1-1.6,2-2.1s1.8-0.7,2.8-0.7c1.5,0,2.6,0.5,3.2,1.5l0.3-1.3H131.8z
			 M126.7,156.8c0.4-0.3,0.8-0.7,1-1.2c0.2-0.5,0.4-1.1,0.4-1.7c0-0.7-0.2-1.2-0.6-1.6c-0.4-0.4-1-0.6-1.7-0.6
			c-0.6,0-1.1,0.1-1.5,0.4c-0.4,0.3-0.8,0.7-1,1.2c-0.2,0.5-0.4,1.1-0.4,1.7c0,0.7,0.2,1.2,0.6,1.6c0.4,0.4,1,0.6,1.7,0.6
			C125.7,157.2,126.2,157,126.7,156.8z"/>
		<path fill="#103436" d="M135.2,145.7h2.9l-2.7,13.7h-2.9L135.2,145.7z"/>
	</g>
</g>
<g id="it" display="none">
	<g display="inline">
		<path fill="#103436" d="M19,156.6h-6l-1.7,2.8H8.1l8.4-12.9h2.9l3.2,12.9h-3L19,156.6z M18.5,154.4l-1.1-5l-3,5H18.5z"/>
		<path fill="#103436" d="M34.1,150.2c0.7,0.6,1,1.4,1,2.5c0,0.4,0,0.8-0.1,1.2l-1.1,5.5H31l1.1-5.3c0-0.2,0.1-0.4,0.1-0.7
			c0-0.5-0.1-0.9-0.4-1.2s-0.7-0.4-1.3-0.4c-0.7,0-1.3,0.2-1.8,0.6c-0.5,0.4-0.8,1.1-1,1.9l-1,5h-2.9l2-9.9h2.7l-0.2,1.1
			c0.9-0.8,2-1.2,3.3-1.2C32.6,149.3,33.5,149.6,34.1,150.2z"/>
		<path fill="#103436" d="M40.4,155.9c0,0.1,0,0.2,0,0.4c0,0.6,0.4,1,1.1,1c0.4,0,0.8-0.1,1.2-0.4l0.4,2c-0.6,0.4-1.5,0.6-2.5,0.6
			c-0.9,0-1.7-0.2-2.2-0.7s-0.8-1.2-0.8-2c0-0.2,0-0.5,0.1-0.9l0.8-4h-1.5l0.4-2.2h1.5l0.5-2.4h2.9l-0.5,2.4h2.5l-0.4,2.2h-2.5
			L40.4,155.9z"/>
		<path fill="#103436" d="M46.5,149.5h2.9l-2,9.9h-2.9L46.5,149.5z M47.2,147.7c-0.3-0.3-0.5-0.6-0.5-1.1c0-0.5,0.2-0.9,0.5-1.2
			c0.4-0.3,0.8-0.5,1.4-0.5c0.5,0,0.9,0.1,1.2,0.4c0.3,0.3,0.5,0.6,0.5,1c0,0.5-0.2,1-0.5,1.3c-0.4,0.3-0.8,0.5-1.4,0.5
			C47.9,148.1,47.5,148,47.2,147.7z"/>
		<path fill="#103436" d="M59.7,149.9c0.7,0.4,1.2,0.9,1.6,1.5s0.6,1.5,0.6,2.4c0,1.1-0.2,2.1-0.7,3c-0.5,0.9-1.1,1.6-2,2.1
			c-0.8,0.5-1.8,0.7-2.8,0.7c-0.8,0-1.4-0.1-2-0.4c-0.6-0.3-1-0.7-1.3-1.2l-0.3,1.5H50l2.7-13.7h2.9l-0.9,4.6c0.8-0.7,1.8-1,2.9-1
			C58.3,149.3,59.1,149.5,59.7,149.9z M57.5,156.8c0.4-0.3,0.8-0.7,1-1.2c0.2-0.5,0.4-1.1,0.4-1.7c0-0.7-0.2-1.2-0.6-1.6
			c-0.4-0.4-1-0.6-1.7-0.6c-0.6,0-1.1,0.1-1.5,0.4c-0.4,0.3-0.8,0.7-1,1.2c-0.2,0.5-0.4,1.1-0.4,1.7c0,0.7,0.2,1.2,0.6,1.6
			c0.4,0.4,0.9,0.6,1.7,0.6C56.6,157.2,57.1,157,57.5,156.8z"/>
		<path fill="#103436" d="M74.8,149.5l-2,9.9h-2.7l0.2-1c-0.8,0.8-1.8,1.1-3,1.1c-0.8,0-1.5-0.2-2.1-0.5c-0.7-0.4-1.2-0.9-1.6-1.5
			c-0.4-0.7-0.6-1.5-0.6-2.4c0-1.1,0.2-2.1,0.7-3c0.5-0.9,1.1-1.6,2-2.1s1.8-0.7,2.8-0.7c1.5,0,2.6,0.5,3.2,1.5l0.3-1.3H74.8z
			 M69.6,156.8c0.4-0.3,0.8-0.7,1-1.2c0.2-0.5,0.4-1.1,0.4-1.7c0-0.7-0.2-1.2-0.6-1.6c-0.4-0.4-1-0.6-1.7-0.6
			c-0.6,0-1.1,0.1-1.5,0.4c-0.4,0.3-0.8,0.7-1,1.2c-0.2,0.5-0.4,1.1-0.4,1.7c0,0.7,0.2,1.2,0.6,1.6c0.4,0.4,1,0.6,1.7,0.6
			C68.7,157.2,69.2,157,69.6,156.8z"/>
		<path fill="#103436" d="M79.4,155.9c0,0.1,0,0.2,0,0.4c0,0.6,0.4,1,1.1,1c0.4,0,0.8-0.1,1.2-0.4l0.4,2c-0.6,0.4-1.5,0.6-2.5,0.6
			c-0.9,0-1.7-0.2-2.2-0.7s-0.8-1.2-0.8-2c0-0.2,0-0.5,0.1-0.9l0.8-4h-1.5l0.4-2.2h1.5l0.5-2.4h2.9l-0.5,2.4h2.5l-0.4,2.2h-2.5
			L79.4,155.9z"/>
		<path fill="#103436" d="M87.2,155.9c0,0.1,0,0.2,0,0.4c0,0.6,0.4,1,1.1,1c0.4,0,0.8-0.1,1.2-0.4l0.4,2c-0.6,0.4-1.5,0.6-2.5,0.6
			c-0.9,0-1.7-0.2-2.2-0.7s-0.8-1.2-0.8-2c0-0.2,0-0.5,0.1-0.9l0.8-4h-1.5l0.4-2.2h1.5l0.5-2.4h2.9l-0.5,2.4h2.5l-0.4,2.2H88
			L87.2,155.9z"/>
		<path fill="#103436" d="M101.6,155.2H94c0.1,1.4,1,2,2.6,2c0.5,0,1-0.1,1.4-0.2c0.5-0.2,0.9-0.4,1.2-0.7l1.2,1.9
			c-0.6,0.4-1.2,0.8-1.9,1c-0.7,0.2-1.5,0.3-2.2,0.3c-1,0-1.9-0.2-2.7-0.5c-0.8-0.4-1.4-0.9-1.8-1.6c-0.4-0.7-0.6-1.5-0.6-2.3
			c0-1.1,0.2-2.1,0.7-3c0.5-0.9,1.2-1.6,2.1-2.1c0.9-0.5,1.9-0.7,3-0.7c1,0,1.8,0.2,2.5,0.5c0.7,0.4,1.3,0.9,1.6,1.5
			c0.4,0.7,0.6,1.4,0.6,2.3C101.7,154.2,101.7,154.7,101.6,155.2z M95.2,152c-0.5,0.4-0.8,0.9-1,1.5h4.9c0-0.6-0.2-1.1-0.6-1.5
			c-0.4-0.4-0.9-0.5-1.6-0.5C96.2,151.5,95.6,151.7,95.2,152z"/>
		<path fill="#103436" d="M108.6,149.6c0.6-0.2,1.3-0.3,2.1-0.3l-0.5,2.7c-0.3,0-0.6,0-0.7,0c-0.9,0-1.6,0.2-2.1,0.6s-0.9,1.1-1.1,2
			l-1,4.8h-2.9l2-9.9h2.7l-0.2,1.2C107.4,150.2,108,149.9,108.6,149.6z"/>
		<path fill="#103436" d="M112.4,149.5h2.9l-2,9.9h-2.9L112.4,149.5z M113.1,147.7c-0.3-0.3-0.5-0.6-0.5-1.1c0-0.5,0.2-0.9,0.5-1.2
			c0.4-0.3,0.8-0.5,1.4-0.5c0.5,0,0.9,0.1,1.2,0.4c0.3,0.3,0.5,0.6,0.5,1c0,0.5-0.2,1-0.5,1.3c-0.4,0.3-0.8,0.5-1.4,0.5
			C113.8,148.1,113.4,148,113.1,147.7z"/>
		<path fill="#103436" d="M118.5,159c-0.8-0.4-1.3-0.9-1.8-1.6c-0.4-0.7-0.6-1.4-0.6-2.3c0-1.1,0.3-2.1,0.8-2.9s1.2-1.6,2.2-2.1
			s2-0.8,3.1-0.8c1.1,0,2,0.2,2.7,0.7c0.8,0.4,1.3,1.1,1.7,1.9l-2.4,1.2c-0.4-0.9-1.2-1.3-2.2-1.3c-0.6,0-1.1,0.1-1.5,0.4
			c-0.4,0.3-0.8,0.7-1.1,1.2c-0.3,0.5-0.4,1.1-0.4,1.7c0,0.7,0.2,1.2,0.6,1.6s1,0.6,1.7,0.6c1.1,0,1.9-0.4,2.4-1.3l2.1,1.3
			c-0.5,0.8-1.1,1.3-2,1.8c-0.8,0.4-1.7,0.6-2.8,0.6C120.2,159.5,119.3,159.4,118.5,159z"/>
		<path fill="#103436" d="M129.3,159c-0.8-0.4-1.3-0.9-1.8-1.6c-0.4-0.7-0.6-1.4-0.6-2.3c0-1.1,0.3-2.1,0.8-2.9s1.2-1.6,2.1-2.1
			c0.9-0.5,1.9-0.8,3.1-0.8c1,0,1.9,0.2,2.6,0.6c0.7,0.4,1.3,0.9,1.7,1.6s0.6,1.4,0.6,2.3c0,1.1-0.3,2.1-0.8,2.9
			c-0.5,0.9-1.2,1.6-2.1,2.1s-1.9,0.8-3.1,0.8C130.9,159.5,130,159.4,129.3,159z M133.6,156.8c0.4-0.3,0.8-0.7,1-1.2
			c0.2-0.5,0.4-1.1,0.4-1.7c0-0.7-0.2-1.2-0.6-1.6c-0.4-0.4-0.9-0.6-1.7-0.6c-0.6,0-1.1,0.1-1.5,0.4c-0.4,0.3-0.8,0.7-1,1.2
			c-0.2,0.5-0.4,1.1-0.4,1.7c0,0.7,0.2,1.2,0.6,1.6c0.4,0.4,1,0.6,1.7,0.6C132.6,157.2,133.1,157,133.6,156.8z"/>
	</g>
</g>
<g id="fr" display="none">
	<g display="inline">
		<path fill="#103436" d="M16.1,156.6h-6l-1.7,2.8H5.2l8.4-12.9h2.9l3.2,12.9h-3L16.1,156.6z M15.6,154.4l-1.1-5l-3,5H15.6z"/>
		<path fill="#103436" d="M31.2,150.2c0.7,0.6,1,1.4,1,2.5c0,0.4,0,0.8-0.1,1.2l-1.1,5.5h-2.9l1.1-5.3c0-0.2,0.1-0.4,0.1-0.7
			c0-0.5-0.1-0.9-0.4-1.2s-0.7-0.4-1.3-0.4c-0.7,0-1.3,0.2-1.8,0.6c-0.5,0.4-0.8,1.1-1,1.9l-1,5h-2.9l2-9.9h2.7l-0.2,1.1
			c0.9-0.8,2-1.2,3.3-1.2C29.7,149.3,30.6,149.6,31.2,150.2z"/>
		<path fill="#103436" d="M37.5,155.9c0,0.1,0,0.2,0,0.4c0,0.6,0.4,1,1.1,1c0.4,0,0.8-0.1,1.2-0.4l0.4,2c-0.6,0.4-1.5,0.6-2.5,0.6
			c-0.9,0-1.7-0.2-2.2-0.7s-0.8-1.2-0.8-2c0-0.2,0-0.5,0.1-0.9l0.8-4h-1.5l0.4-2.2h1.5l0.5-2.4h2.9l-0.5,2.4h2.5l-0.4,2.2h-2.5
			L37.5,155.9z"/>
		<path fill="#103436" d="M43.6,149.5h2.9l-2,9.9h-2.9L43.6,149.5z M44.3,147.7c-0.3-0.3-0.5-0.6-0.5-1.1c0-0.5,0.2-0.9,0.5-1.2
			c0.4-0.3,0.8-0.5,1.4-0.5c0.5,0,0.9,0.1,1.2,0.4c0.3,0.3,0.5,0.6,0.5,1c0,0.5-0.2,1-0.5,1.3c-0.4,0.3-0.8,0.5-1.4,0.5
			C45,148.1,44.6,148,44.3,147.7z"/>
		<path fill="#103436" d="M56.8,149.9c0.7,0.4,1.2,0.9,1.6,1.5s0.6,1.5,0.6,2.4c0,1.1-0.2,2.1-0.7,3c-0.5,0.9-1.1,1.6-2,2.1
			c-0.8,0.5-1.8,0.7-2.8,0.7c-0.8,0-1.4-0.1-2-0.4c-0.6-0.3-1-0.7-1.3-1.2l-0.3,1.5h-2.7l2.7-13.7h2.9l-0.9,4.6c0.8-0.7,1.8-1,2.9-1
			C55.5,149.3,56.2,149.5,56.8,149.9z M54.7,156.8c0.4-0.3,0.8-0.7,1-1.2c0.2-0.5,0.4-1.1,0.4-1.7c0-0.7-0.2-1.2-0.6-1.6
			c-0.4-0.4-1-0.6-1.7-0.6c-0.6,0-1.1,0.1-1.5,0.4c-0.4,0.3-0.8,0.7-1,1.2c-0.2,0.5-0.4,1.1-0.4,1.7c0,0.7,0.2,1.2,0.6,1.6
			c0.4,0.4,0.9,0.6,1.7,0.6C53.7,157.2,54.2,157,54.7,156.8z"/>
		<path fill="#103436" d="M71.9,149.5l-2,9.9h-2.7l0.2-1c-0.8,0.8-1.8,1.1-3,1.1c-0.8,0-1.5-0.2-2.1-0.5c-0.7-0.4-1.2-0.9-1.6-1.5
			c-0.4-0.7-0.6-1.5-0.6-2.4c0-1.1,0.2-2.1,0.7-3c0.5-0.9,1.1-1.6,2-2.1s1.8-0.7,2.8-0.7c1.5,0,2.6,0.5,3.2,1.5l0.3-1.3H71.9z
			 M66.7,156.8c0.4-0.3,0.8-0.7,1-1.2c0.2-0.5,0.4-1.1,0.4-1.7c0-0.7-0.2-1.2-0.6-1.6c-0.4-0.4-1-0.6-1.7-0.6
			c-0.6,0-1.1,0.1-1.5,0.4c-0.4,0.3-0.8,0.7-1,1.2c-0.2,0.5-0.4,1.1-0.4,1.7c0,0.7,0.2,1.2,0.6,1.6c0.4,0.4,1,0.6,1.7,0.6
			C65.8,157.2,66.3,157,66.7,156.8z"/>
		<path fill="#103436" d="M75.1,159c-0.8-0.4-1.3-0.9-1.8-1.6c-0.4-0.7-0.6-1.4-0.6-2.3c0-1.1,0.3-2.1,0.8-2.9s1.2-1.6,2.2-2.1
			s2-0.8,3.1-0.8c1.1,0,2,0.2,2.7,0.7c0.8,0.4,1.3,1.1,1.7,1.9l-2.4,1.2c-0.4-0.9-1.2-1.3-2.2-1.3c-0.6,0-1.1,0.1-1.5,0.4
			c-0.4,0.3-0.8,0.7-1.1,1.2c-0.3,0.5-0.4,1.1-0.4,1.7c0,0.7,0.2,1.2,0.6,1.6s1,0.6,1.7,0.6c1.1,0,1.9-0.4,2.4-1.3l2.1,1.3
			c-0.5,0.8-1.1,1.3-2,1.8c-0.8,0.4-1.7,0.6-2.8,0.6C76.8,159.5,75.9,159.4,75.1,159z"/>
		<path fill="#103436" d="M87.5,155.9c0,0.1,0,0.2,0,0.4c0,0.6,0.4,1,1.1,1c0.4,0,0.8-0.1,1.2-0.4l0.4,2c-0.6,0.4-1.5,0.6-2.5,0.6
			c-0.9,0-1.7-0.2-2.2-0.7s-0.8-1.2-0.8-2c0-0.2,0-0.5,0.1-0.9l0.8-4h-1.5l0.4-2.2h1.5l0.5-2.4h2.9l-0.5,2.4h2.5l-0.4,2.2h-2.5
			L87.5,155.9z"/>
		<path fill="#103436" d="M101.9,155.2h-7.6c0.1,1.4,1,2,2.6,2c0.5,0,1-0.1,1.4-0.2c0.5-0.2,0.9-0.4,1.2-0.7l1.2,1.9
			c-0.6,0.4-1.2,0.8-1.9,1c-0.7,0.2-1.5,0.3-2.2,0.3c-1,0-1.9-0.2-2.7-0.5c-0.8-0.4-1.4-0.9-1.8-1.6c-0.4-0.7-0.6-1.5-0.6-2.3
			c0-1.1,0.2-2.1,0.7-3c0.5-0.9,1.2-1.6,2.1-2.1c0.9-0.5,1.9-0.7,3-0.7c1,0,1.8,0.2,2.5,0.5c0.7,0.4,1.3,0.9,1.6,1.5
			c0.4,0.7,0.6,1.4,0.6,2.3C102.1,154.2,102,154.7,101.9,155.2z M95.5,152c-0.5,0.4-0.8,0.9-1,1.5h4.9c0-0.6-0.2-1.1-0.6-1.5
			c-0.4-0.4-0.9-0.5-1.6-0.5C96.6,151.5,96,151.7,95.5,152z M99.1,145.6h3.2l-3.6,2.7h-2.3L99.1,145.6z"/>
		<path fill="#103436" d="M108.9,149.6c0.6-0.2,1.3-0.3,2.1-0.3l-0.5,2.7c-0.3,0-0.6,0-0.7,0c-0.9,0-1.6,0.2-2.1,0.6s-0.9,1.1-1.1,2
			l-1,4.8h-2.9l2-9.9h2.7l-0.2,1.2C107.8,150.2,108.3,149.9,108.9,149.6z"/>
		<path fill="#103436" d="M112.8,149.5h2.9l-2,9.9h-2.9L112.8,149.5z M113.5,147.7c-0.3-0.3-0.5-0.6-0.5-1.1c0-0.5,0.2-0.9,0.5-1.2
			c0.4-0.3,0.8-0.5,1.4-0.5c0.5,0,0.9,0.1,1.2,0.4c0.3,0.3,0.5,0.6,0.5,1c0,0.5-0.2,1-0.5,1.3c-0.4,0.3-0.8,0.5-1.4,0.5
			C114.2,148.1,113.8,148,113.5,147.7z"/>
		<path fill="#103436" d="M126.9,155.2h-7.6c0.1,1.4,1,2,2.6,2c0.5,0,1-0.1,1.4-0.2c0.5-0.2,0.9-0.4,1.2-0.7l1.2,1.9
			c-0.6,0.4-1.2,0.8-1.9,1c-0.7,0.2-1.5,0.3-2.2,0.3c-1,0-1.9-0.2-2.7-0.5c-0.8-0.4-1.4-0.9-1.8-1.6c-0.4-0.7-0.6-1.5-0.6-2.3
			c0-1.1,0.2-2.1,0.7-3c0.5-0.9,1.2-1.6,2.1-2.1c0.9-0.5,1.9-0.7,3-0.7c1,0,1.8,0.2,2.5,0.5c0.7,0.4,1.3,0.9,1.6,1.5
			c0.4,0.7,0.6,1.4,0.6,2.3C127.1,154.2,127,154.7,126.9,155.2z M120.5,152c-0.5,0.4-0.8,0.9-1,1.5h4.9c0-0.6-0.2-1.1-0.6-1.5
			c-0.4-0.4-0.9-0.5-1.6-0.5C121.6,151.5,121,151.7,120.5,152z"/>
		<path fill="#103436" d="M138.3,150.2c0.7,0.6,1,1.4,1,2.5c0,0.4,0,0.8-0.1,1.2l-1.1,5.5h-2.9l1.1-5.3c0-0.2,0.1-0.4,0.1-0.7
			c0-0.5-0.1-0.9-0.4-1.2s-0.7-0.4-1.3-0.4c-0.7,0-1.3,0.2-1.8,0.6c-0.5,0.4-0.8,1.1-1,1.9l-1,5h-2.9l2-9.9h2.7l-0.2,1.1
			c0.9-0.8,2-1.2,3.3-1.2C136.7,149.3,137.6,149.6,138.3,150.2z"/>
	</g>
</g>
<g id="nl" display="none">
	<g display="inline">
		<path fill="#103436" d="M14.4,156.6h-6l-1.7,2.8H3.5l8.4-12.9h2.9l3.2,12.9h-3L14.4,156.6z M13.9,154.4l-1.1-5l-3,5H13.9z"/>
		<path fill="#103436" d="M29.5,150.2c0.7,0.6,1,1.4,1,2.5c0,0.4,0,0.8-0.1,1.2l-1.1,5.5h-2.9l1.1-5.3c0-0.2,0.1-0.4,0.1-0.7
			c0-0.5-0.1-0.9-0.4-1.2s-0.7-0.4-1.3-0.4c-0.7,0-1.3,0.2-1.8,0.6c-0.5,0.4-0.8,1.1-1,1.9l-1,5h-2.9l2-9.9h2.7l-0.2,1.1
			c0.9-0.8,2-1.2,3.3-1.2C28,149.3,28.9,149.6,29.5,150.2z"/>
		<path fill="#103436" d="M35.8,155.9c0,0.1,0,0.2,0,0.4c0,0.6,0.4,1,1.1,1c0.4,0,0.8-0.1,1.2-0.4l0.4,2c-0.6,0.4-1.5,0.6-2.5,0.6
			c-0.9,0-1.7-0.2-2.2-0.7s-0.8-1.2-0.8-2c0-0.2,0-0.5,0.1-0.9l0.8-4h-1.5l0.4-2.2h1.5l0.5-2.4h2.9l-0.5,2.4h2.5l-0.4,2.2h-2.5
			L35.8,155.9z"/>
		<path fill="#103436" d="M41.9,149.5h2.9l-2,9.9h-2.9L41.9,149.5z M42.6,147.7c-0.3-0.3-0.5-0.6-0.5-1.1c0-0.5,0.2-0.9,0.5-1.2
			c0.4-0.3,0.8-0.5,1.4-0.5c0.5,0,0.9,0.1,1.2,0.4c0.3,0.3,0.5,0.6,0.5,1c0,0.5-0.2,1-0.5,1.3c-0.4,0.3-0.8,0.5-1.4,0.5
			C43.3,148.1,42.9,148,42.6,147.7z"/>
		<path fill="#103436" d="M55.1,149.9c0.7,0.4,1.2,0.9,1.6,1.5s0.6,1.5,0.6,2.4c0,1.1-0.2,2.1-0.7,3c-0.5,0.9-1.1,1.6-2,2.1
			c-0.8,0.5-1.8,0.7-2.8,0.7c-0.8,0-1.4-0.1-2-0.4c-0.6-0.3-1-0.7-1.3-1.2l-0.3,1.5h-2.7l2.7-13.7H51l-0.9,4.6c0.8-0.7,1.8-1,2.9-1
			C53.7,149.3,54.4,149.5,55.1,149.9z M52.9,156.8c0.4-0.3,0.8-0.7,1-1.2c0.2-0.5,0.4-1.1,0.4-1.7c0-0.7-0.2-1.2-0.6-1.6
			c-0.4-0.4-1-0.6-1.7-0.6c-0.6,0-1.1,0.1-1.5,0.4c-0.4,0.3-0.8,0.7-1,1.2c-0.2,0.5-0.4,1.1-0.4,1.7c0,0.7,0.2,1.2,0.6,1.6
			c0.4,0.4,0.9,0.6,1.7,0.6C52,157.2,52.5,157,52.9,156.8z"/>
		<path fill="#103436" d="M70.2,149.5l-2,9.9h-2.7l0.2-1c-0.8,0.8-1.8,1.1-3,1.1c-0.8,0-1.5-0.2-2.1-0.5c-0.7-0.4-1.2-0.9-1.6-1.5
			c-0.4-0.7-0.6-1.5-0.6-2.4c0-1.1,0.2-2.1,0.7-3c0.5-0.9,1.1-1.6,2-2.1s1.8-0.7,2.8-0.7c1.5,0,2.6,0.5,3.2,1.5l0.3-1.3H70.2z
			 M65,156.8c0.4-0.3,0.8-0.7,1-1.2c0.2-0.5,0.4-1.1,0.4-1.7c0-0.7-0.2-1.2-0.6-1.6c-0.4-0.4-1-0.6-1.7-0.6c-0.6,0-1.1,0.1-1.5,0.4
			c-0.4,0.3-0.8,0.7-1,1.2c-0.2,0.5-0.4,1.1-0.4,1.7c0,0.7,0.2,1.2,0.6,1.6c0.4,0.4,1,0.6,1.7,0.6C64.1,157.2,64.6,157,65,156.8z"/>
		<path fill="#103436" d="M73.4,159c-0.8-0.4-1.3-0.9-1.8-1.6c-0.4-0.7-0.6-1.4-0.6-2.3c0-1.1,0.3-2.1,0.8-2.9s1.2-1.6,2.2-2.1
			s2-0.8,3.1-0.8c1.1,0,2,0.2,2.7,0.7c0.8,0.4,1.3,1.1,1.7,1.9l-2.4,1.2c-0.4-0.9-1.2-1.3-2.2-1.3c-0.6,0-1.1,0.1-1.5,0.4
			c-0.4,0.3-0.8,0.7-1.1,1.2c-0.3,0.5-0.4,1.1-0.4,1.7c0,0.7,0.2,1.2,0.6,1.6s1,0.6,1.7,0.6c1.1,0,1.9-0.4,2.4-1.3l2.1,1.3
			c-0.5,0.8-1.1,1.3-2,1.8c-0.8,0.4-1.7,0.6-2.8,0.6C75.1,159.5,74.2,159.4,73.4,159z"/>
		<path fill="#103436" d="M85.8,155.9c0,0.1,0,0.2,0,0.4c0,0.6,0.4,1,1.1,1c0.4,0,0.8-0.1,1.2-0.4l0.4,2c-0.6,0.4-1.5,0.6-2.5,0.6
			c-0.9,0-1.7-0.2-2.2-0.7s-0.8-1.2-0.8-2c0-0.2,0-0.5,0.1-0.9l0.8-4h-1.5l0.4-2.2h1.5l0.5-2.4h2.9l-0.5,2.4h2.5l-0.4,2.2h-2.5
			L85.8,155.9z"/>
		<path fill="#103436" d="M100.2,155.2h-7.6c0.1,1.4,1,2,2.6,2c0.5,0,1-0.1,1.4-0.2c0.5-0.2,0.9-0.4,1.2-0.7l1.2,1.9
			c-0.6,0.4-1.2,0.8-1.9,1c-0.7,0.2-1.5,0.3-2.2,0.3c-1,0-1.9-0.2-2.7-0.5c-0.8-0.4-1.4-0.9-1.8-1.6c-0.4-0.7-0.6-1.5-0.6-2.3
			c0-1.1,0.2-2.1,0.7-3c0.5-0.9,1.2-1.6,2.1-2.1c0.9-0.5,1.9-0.7,3-0.7c1,0,1.8,0.2,2.5,0.5c0.7,0.4,1.3,0.9,1.6,1.5
			c0.4,0.7,0.6,1.4,0.6,2.3C100.4,154.2,100.3,154.7,100.2,155.2z M93.8,152c-0.5,0.4-0.8,0.9-1,1.5h4.9c0-0.6-0.2-1.1-0.6-1.5
			c-0.4-0.4-0.9-0.5-1.6-0.5C94.9,151.5,94.3,151.7,93.8,152z"/>
		<path fill="#103436" d="M107.2,149.6c0.6-0.2,1.3-0.3,2.1-0.3l-0.5,2.7c-0.3,0-0.6,0-0.7,0c-0.9,0-1.6,0.2-2.1,0.6s-0.9,1.1-1.1,2
			l-1,4.8h-2.9l2-9.9h2.7l-0.2,1.2C106.1,150.2,106.6,149.9,107.2,149.6z"/>
		<path fill="#103436" d="M111,149.5h2.9l-2,9.9h-2.9L111,149.5z M111.7,147.7c-0.3-0.3-0.5-0.6-0.5-1.1c0-0.5,0.2-0.9,0.5-1.2
			c0.4-0.3,0.8-0.5,1.4-0.5c0.5,0,0.9,0.1,1.2,0.4c0.3,0.3,0.5,0.6,0.5,1c0,0.5-0.2,1-0.5,1.3c-0.4,0.3-0.8,0.5-1.4,0.5
			C112.5,148.1,112.1,148,111.7,147.7z"/>
		<path fill="#103436" d="M125.2,155.2h-7.6c0.1,1.4,1,2,2.6,2c0.5,0,1-0.1,1.4-0.2c0.5-0.2,0.9-0.4,1.2-0.7l1.2,1.9
			c-0.6,0.4-1.2,0.8-1.9,1c-0.7,0.2-1.5,0.3-2.2,0.3c-1,0-1.9-0.2-2.7-0.5c-0.8-0.4-1.4-0.9-1.8-1.6c-0.4-0.7-0.6-1.5-0.6-2.3
			c0-1.1,0.2-2.1,0.7-3c0.5-0.9,1.2-1.6,2.1-2.1c0.9-0.5,1.9-0.7,3-0.7c1,0,1.8,0.2,2.5,0.5c0.7,0.4,1.3,0.9,1.6,1.5
			c0.4,0.7,0.6,1.4,0.6,2.3C125.4,154.2,125.3,154.7,125.2,155.2z M118.8,152c-0.5,0.4-0.8,0.9-1,1.5h4.9c0-0.6-0.2-1.1-0.6-1.5
			c-0.4-0.4-0.9-0.5-1.6-0.5C119.8,151.5,119.3,151.7,118.8,152z"/>
		<path fill="#103436" d="M136.8,155.2h-7.6c0.1,1.4,1,2,2.6,2c0.5,0,1-0.1,1.4-0.2c0.5-0.2,0.9-0.4,1.2-0.7l1.2,1.9
			c-0.6,0.4-1.2,0.8-1.9,1c-0.7,0.2-1.5,0.3-2.2,0.3c-1,0-1.9-0.2-2.7-0.5c-0.8-0.4-1.4-0.9-1.8-1.6c-0.4-0.7-0.6-1.5-0.6-2.3
			c0-1.1,0.2-2.1,0.7-3c0.5-0.9,1.2-1.6,2.1-2.1c0.9-0.5,1.9-0.7,3-0.7c1,0,1.8,0.2,2.5,0.5c0.7,0.4,1.3,0.9,1.6,1.5
			c0.4,0.7,0.6,1.4,0.6,2.3C136.9,154.2,136.9,154.7,136.8,155.2z M130.4,152c-0.5,0.4-0.8,0.9-1,1.5h4.9c0-0.6-0.2-1.1-0.6-1.5
			c-0.4-0.4-0.9-0.5-1.6-0.5C131.4,151.5,130.8,151.7,130.4,152z"/>
		<path fill="#103436" d="M140.5,145.7h2.9l-2.7,13.7h-2.9L140.5,145.7z"/>
	</g>
</g>
<g id="es" display="none">
	<g display="inline">
		<path fill="#103436" d="M11.5,156.6h-6l-1.7,2.8H0.6L9,146.5h2.9l3.2,12.9h-3L11.5,156.6z M11,154.4l-1.1-5l-3,5H11z"/>
		<path fill="#103436" d="M26.6,150.2c0.7,0.6,1,1.4,1,2.5c0,0.4,0,0.8-0.1,1.2l-1.1,5.5h-2.9l1.1-5.3c0-0.2,0.1-0.4,0.1-0.7
			c0-0.5-0.1-0.9-0.4-1.2s-0.7-0.4-1.3-0.4c-0.7,0-1.3,0.2-1.8,0.6c-0.5,0.4-0.8,1.1-1,1.9l-1,5h-2.9l2-9.9h2.7l-0.2,1.1
			c0.9-0.8,2-1.2,3.3-1.2C25.1,149.3,26,149.6,26.6,150.2z"/>
		<path fill="#103436" d="M32.9,155.9c0,0.1,0,0.2,0,0.4c0,0.6,0.4,1,1.1,1c0.4,0,0.8-0.1,1.2-0.4l0.4,2c-0.6,0.4-1.5,0.6-2.5,0.6
			c-0.9,0-1.7-0.2-2.2-0.7s-0.8-1.2-0.8-2c0-0.2,0-0.5,0.1-0.9l0.8-4h-1.5l0.4-2.2h1.5l0.5-2.4h2.9l-0.5,2.4h2.5l-0.4,2.2h-2.5
			L32.9,155.9z"/>
		<path fill="#103436" d="M39,149.5h2.9l-2,9.9H37L39,149.5z M39.7,147.7c-0.3-0.3-0.5-0.6-0.5-1.1c0-0.5,0.2-0.9,0.5-1.2
			c0.4-0.3,0.8-0.5,1.4-0.5c0.5,0,0.9,0.1,1.2,0.4c0.3,0.3,0.5,0.6,0.5,1c0,0.5-0.2,1-0.5,1.3c-0.4,0.3-0.8,0.5-1.4,0.5
			C40.4,148.1,40,148,39.7,147.7z"/>
		<path fill="#103436" d="M52.2,149.9c0.7,0.4,1.2,0.9,1.6,1.5s0.6,1.5,0.6,2.4c0,1.1-0.2,2.1-0.7,3c-0.5,0.9-1.1,1.6-2,2.1
			c-0.8,0.5-1.8,0.7-2.8,0.7c-0.8,0-1.4-0.1-2-0.4c-0.6-0.3-1-0.7-1.3-1.2l-0.3,1.5h-2.7l2.7-13.7h2.9l-0.9,4.6c0.8-0.7,1.8-1,2.9-1
			C50.9,149.3,51.6,149.5,52.2,149.9z M50.1,156.8c0.4-0.3,0.8-0.7,1-1.2c0.2-0.5,0.4-1.1,0.4-1.7c0-0.7-0.2-1.2-0.6-1.6
			c-0.4-0.4-1-0.6-1.7-0.6c-0.6,0-1.1,0.1-1.5,0.4c-0.4,0.3-0.8,0.7-1,1.2c-0.2,0.5-0.4,1.1-0.4,1.7c0,0.7,0.2,1.2,0.6,1.6
			c0.4,0.4,0.9,0.6,1.7,0.6C49.1,157.2,49.6,157,50.1,156.8z"/>
		<path fill="#103436" d="M67.3,149.5l-2,9.9h-2.7l0.2-1c-0.8,0.8-1.8,1.1-3,1.1c-0.8,0-1.5-0.2-2.1-0.5c-0.7-0.4-1.2-0.9-1.6-1.5
			c-0.4-0.7-0.6-1.5-0.6-2.4c0-1.1,0.2-2.1,0.7-3c0.5-0.9,1.1-1.6,2-2.1s1.8-0.7,2.8-0.7c1.5,0,2.6,0.5,3.2,1.5l0.3-1.3H67.3z
			 M62.1,156.8c0.4-0.3,0.8-0.7,1-1.2c0.2-0.5,0.4-1.1,0.4-1.7c0-0.7-0.2-1.2-0.6-1.6c-0.4-0.4-1-0.6-1.7-0.6
			c-0.6,0-1.1,0.1-1.5,0.4c-0.4,0.3-0.8,0.7-1,1.2c-0.2,0.5-0.4,1.1-0.4,1.7c0,0.7,0.2,1.2,0.6,1.6c0.4,0.4,1,0.6,1.7,0.6
			C61.2,157.2,61.7,157,62.1,156.8z"/>
		<path fill="#103436" d="M70.5,159c-0.8-0.4-1.3-0.9-1.8-1.6c-0.4-0.7-0.6-1.4-0.6-2.3c0-1.1,0.3-2.1,0.8-2.9s1.2-1.6,2.2-2.1
			s2-0.8,3.1-0.8c1.1,0,2,0.2,2.7,0.7c0.8,0.4,1.3,1.1,1.7,1.9l-2.4,1.2c-0.4-0.9-1.2-1.3-2.2-1.3c-0.6,0-1.1,0.1-1.5,0.4
			c-0.4,0.3-0.8,0.7-1.1,1.2c-0.3,0.5-0.4,1.1-0.4,1.7c0,0.7,0.2,1.2,0.6,1.6s1,0.6,1.7,0.6c1.1,0,1.9-0.4,2.4-1.3l2.1,1.3
			c-0.5,0.8-1.1,1.3-2,1.8c-0.8,0.4-1.7,0.6-2.8,0.6C72.2,159.5,71.3,159.4,70.5,159z"/>
		<path fill="#103436" d="M82.9,155.9c0,0.1,0,0.2,0,0.4c0,0.6,0.4,1,1.1,1c0.4,0,0.8-0.1,1.2-0.4l0.4,2c-0.6,0.4-1.5,0.6-2.5,0.6
			c-0.9,0-1.7-0.2-2.2-0.7s-0.8-1.2-0.8-2c0-0.2,0-0.5,0.1-0.9l0.8-4h-1.5l0.4-2.2h1.5l0.5-2.4h2.9l-0.5,2.4h2.5l-0.4,2.2h-2.5
			L82.9,155.9z"/>
		<path fill="#103436" d="M97.3,155.2h-7.6c0.1,1.4,1,2,2.6,2c0.5,0,1-0.1,1.4-0.2c0.5-0.2,0.9-0.4,1.2-0.7l1.2,1.9
			c-0.6,0.4-1.2,0.8-1.9,1c-0.7,0.2-1.5,0.3-2.2,0.3c-1,0-1.9-0.2-2.7-0.5c-0.8-0.4-1.4-0.9-1.8-1.6c-0.4-0.7-0.6-1.5-0.6-2.3
			c0-1.1,0.2-2.1,0.7-3c0.5-0.9,1.2-1.6,2.1-2.1c0.9-0.5,1.9-0.7,3-0.7c1,0,1.8,0.2,2.5,0.5c0.7,0.4,1.3,0.9,1.6,1.5
			c0.4,0.7,0.6,1.4,0.6,2.3C97.5,154.2,97.4,154.7,97.3,155.2z M90.9,152c-0.5,0.4-0.8,0.9-1,1.5h4.9c0-0.6-0.2-1.1-0.6-1.5
			c-0.4-0.4-0.9-0.5-1.6-0.5C92,151.5,91.4,151.7,90.9,152z"/>
		<path fill="#103436" d="M104.3,149.6c0.6-0.2,1.3-0.3,2.1-0.3L106,152c-0.3,0-0.6,0-0.7,0c-0.9,0-1.6,0.2-2.1,0.6s-0.9,1.1-1.1,2
			l-1,4.8h-2.9l2-9.9h2.7l-0.2,1.2C103.2,150.2,103.7,149.9,104.3,149.6z"/>
		<path fill="#103436" d="M108.2,149.5h2.9l-2,9.9h-2.9L108.2,149.5z M108.9,147.7c-0.3-0.3-0.5-0.6-0.5-1.1c0-0.5,0.2-0.9,0.5-1.2
			c0.4-0.3,0.8-0.5,1.4-0.5c0.5,0,0.9,0.1,1.2,0.4c0.3,0.3,0.5,0.6,0.5,1c0,0.5-0.2,1-0.5,1.3c-0.4,0.3-0.8,0.5-1.4,0.5
			C109.6,148.1,109.2,148,108.9,147.7z"/>
		<path fill="#103436" d="M123.7,149.5l-2,9.9H119l0.2-1c-0.8,0.8-1.8,1.1-3,1.1c-0.8,0-1.5-0.2-2.1-0.5c-0.7-0.4-1.2-0.9-1.6-1.5
			c-0.4-0.7-0.6-1.5-0.6-2.4c0-1.1,0.2-2.1,0.7-3c0.5-0.9,1.1-1.6,2-2.1s1.8-0.7,2.8-0.7c1.5,0,2.6,0.5,3.2,1.5l0.3-1.3H123.7z
			 M118.6,156.8c0.4-0.3,0.8-0.7,1-1.2c0.2-0.5,0.4-1.1,0.4-1.7c0-0.7-0.2-1.2-0.6-1.6c-0.4-0.4-1-0.6-1.7-0.6
			c-0.6,0-1.1,0.1-1.5,0.4c-0.4,0.3-0.8,0.7-1,1.2c-0.2,0.5-0.4,1.1-0.4,1.7c0,0.7,0.2,1.2,0.6,1.6c0.4,0.4,1,0.6,1.7,0.6
			C117.6,157.2,118.1,157,118.6,156.8z"/>
		<path fill="#103436" d="M134.8,150.2c0.7,0.6,1,1.4,1,2.5c0,0.4,0,0.8-0.1,1.2l-1.1,5.5h-2.9l1.1-5.3c0-0.2,0.1-0.4,0.1-0.7
			c0-0.5-0.1-0.9-0.4-1.2s-0.7-0.4-1.3-0.4c-0.7,0-1.3,0.2-1.8,0.6c-0.5,0.4-0.8,1.1-1,1.9l-1,5h-2.9l2-9.9h2.7l-0.2,1.1
			c0.9-0.8,2-1.2,3.3-1.2C133.3,149.3,134.2,149.6,134.8,150.2z"/>
		<path fill="#103436" d="M139.8,159c-0.8-0.4-1.3-0.9-1.8-1.6c-0.4-0.7-0.6-1.4-0.6-2.3c0-1.1,0.3-2.1,0.8-2.9s1.2-1.6,2.1-2.1
			c0.9-0.5,1.9-0.8,3.1-0.8c1,0,1.9,0.2,2.6,0.6c0.7,0.4,1.3,0.9,1.7,1.6s0.6,1.4,0.6,2.3c0,1.1-0.3,2.1-0.8,2.9
			c-0.5,0.9-1.2,1.6-2.1,2.1s-1.9,0.8-3.1,0.8C141.5,159.5,140.6,159.4,139.8,159z M144.1,156.8c0.4-0.3,0.8-0.7,1-1.2
			c0.2-0.5,0.4-1.1,0.4-1.7c0-0.7-0.2-1.2-0.6-1.6c-0.4-0.4-0.9-0.6-1.7-0.6c-0.6,0-1.1,0.1-1.5,0.4c-0.4,0.3-0.8,0.7-1,1.2
			c-0.2,0.5-0.4,1.1-0.4,1.7c0,0.7,0.2,1.2,0.6,1.6c0.4,0.4,1,0.6,1.7,0.6C143.2,157.2,143.7,157,144.1,156.8z"/>
	</g>
</g>
</svg>
