<svg xmlns="http://www.w3.org/2000/svg" width="53" height="53" viewBox="0 0 53 53"><circle cx="26.5" cy="26.5" r="26.5" fill="#72bfc1"/><path d="M19.4,30.1a.9.9,0,0,1-.8-.4l-3.2-3.1A7.9,7.9,0,0,1,26.6,15.4l3.1,3.2a1.1,1.1,0,0,1,0,1.7,1.2,1.2,0,0,1-.9.3h0a1.1,1.1,0,0,1-.8-.3l-3.2-3.1A4.9,4.9,0,0,0,21,15.6a5.1,5.1,0,0,0-3.8,1.6A5.3,5.3,0,0,0,15.6,21a5.1,5.1,0,0,0,1.6,3.8L20.3,28a1.2,1.2,0,0,1,0,1.7A1.5,1.5,0,0,1,19.4,30.1Z" fill="#fff"/><path d="M21,13.2a7.6,7.6,0,0,1,5.5,2.3l3.1,3.1a1,1,0,0,1,0,1.6,1.1,1.1,0,0,1-.8.3,1.1,1.1,0,0,1-.7-.3l-3.2-3.1a5.5,5.5,0,0,0-7.8,7.8l3.1,3.2a1.1,1.1,0,0,1,0,1.5,1.2,1.2,0,0,1-.8.4c-.3,0-.5-.2-.8-.4l-3.1-3.1A7.6,7.6,0,0,1,13.2,21,7.8,7.8,0,0,1,21,13.2h0m0-.2h0a8.1,8.1,0,0,0-5.7,13.7l3.2,3.1a1.1,1.1,0,0,0,.9.4,1.3,1.3,0,0,0,1-.4,1.4,1.4,0,0,0,0-1.9l-3.2-3.2A5.1,5.1,0,0,1,15.7,21a5.5,5.5,0,0,1,1.6-3.8A5.6,5.6,0,0,1,21,15.7a5.6,5.6,0,0,1,3.7,1.5l3.2,3.2a1.5,1.5,0,0,0,.9.4,1.5,1.5,0,0,0,1-.4,1.4,1.4,0,0,0,0-1.9l-3.1-3.2A7.9,7.9,0,0,0,21,13Z" fill="#fff"/><path d="M32,39.9a7.9,7.9,0,0,1-5.6-2.3l-3.1-3.2a1.1,1.1,0,0,1,0-1.7,1.3,1.3,0,0,1,.9-.4,1.2,1.2,0,0,1,.8.4l3.2,3.1A4.9,4.9,0,0,0,32,37.4a5.1,5.1,0,0,0,3.8-1.6A5.3,5.3,0,0,0,37.4,32a5.1,5.1,0,0,0-1.6-3.8L32.7,25a1.3,1.3,0,0,1-.4-.9,1.2,1.2,0,0,1,.4-.8,1,1,0,0,1,.9-.4.9.9,0,0,1,.8.4l3.2,3.1A7.9,7.9,0,0,1,32,39.9Z" fill="#fff"/><path d="M33.6,23a1,1,0,0,1,.8.4l3.1,3.1a7.8,7.8,0,1,1-11,11l-3.1-3.1a1,1,0,0,1,0-1.6,1.1,1.1,0,0,1,.8-.3,1.1,1.1,0,0,1,.7.3l3.2,3.1a5.5,5.5,0,0,0,7.8-7.8l-3.1-3.2a1.1,1.1,0,0,1-.3-.8A1.1,1.1,0,0,1,33.6,23h0m0-.2h0a1.3,1.3,0,0,0-1,.4,1.1,1.1,0,0,0-.4.9,1.8,1.8,0,0,0,.4,1l3.1,3.1A5.7,5.7,0,0,1,37.3,32a5.1,5.1,0,0,1-1.6,3.7A5.2,5.2,0,0,1,32,37.3a5.5,5.5,0,0,1-3.8-1.6l-3.1-3.1a1.8,1.8,0,0,0-.9-.4,1.5,1.5,0,0,0-1,.4,1.4,1.4,0,0,0,0,1.9l3.1,3.2A8.1,8.1,0,0,0,37.7,26.3l-3.2-3.1a1.1,1.1,0,0,0-.9-.4Z" fill="#fff"/><path d="M30.4,31.6a1.1,1.1,0,0,1-.8-.3l-7.9-7.9a1.2,1.2,0,0,1-.4-.8,1.3,1.3,0,0,1,1.3-1.3,1.2,1.2,0,0,1,.8.4l7.9,7.9a1.1,1.1,0,0,1,0,1.7A1.2,1.2,0,0,1,30.4,31.6Z" fill="#fff"/><path d="M22.6,21.5a1.3,1.3,0,0,1,.8.3l7.8,7.8a1.2,1.2,0,0,1,0,1.6,1.1,1.1,0,0,1-.8.3,1.3,1.3,0,0,1-.8-.3l-7.8-7.8a1.3,1.3,0,0,1-.3-.8,1.1,1.1,0,0,1,1.1-1.1m0-.3h0a1.8,1.8,0,0,0-1,.4,1.8,1.8,0,0,0-.4,1,1.5,1.5,0,0,0,.4.9l7.9,7.9a1.5,1.5,0,0,0,.9.4,1.8,1.8,0,0,0,1-.4,1.4,1.4,0,0,0,0-1.9l-7.9-7.9a1.5,1.5,0,0,0-.9-.4Z" fill="#fff"/></svg>