<svg xmlns="http://www.w3.org/2000/svg" width="53" height="53" viewBox="0 0 53 53"><circle cx="26.5" cy="26.5" r="26.5" fill="#72bfc1"/><path d="M12.5,35.8h28V17.2h-28V35.8Zm29.2,2.4H11.3A1.2,1.2,0,0,1,10.1,37V16a1.2,1.2,0,0,1,1.2-1.2H41.7A1.2,1.2,0,0,1,42.9,16V37a1.2,1.2,0,0,1-1.2,1.2Z" fill="#fff"/><path d="M41.7,38.2H11.3A1.2,1.2,0,0,1,10.1,37a1.2,1.2,0,0,1,.5-.9L23,25.6a1.2,1.2,0,0,1,1.5,1.8l-10,8.4h24l-10-8.4a1.2,1.2,0,0,1-.1-1.7,1.2,1.2,0,0,1,1.6-.1L42.4,36.1a1.2,1.2,0,0,1,.2,1.7,1.5,1.5,0,0,1-.9.4Z" fill="#fff"/><path d="M14.5,17.2l12,10.1,12-10.1ZM26.5,30a1.3,1.3,0,0,1-.8-.3L10.6,16.9a1.2,1.2,0,0,1-.2-1.7,1.5,1.5,0,0,1,.9-.4H41.7A1.2,1.2,0,0,1,42.9,16a1.2,1.2,0,0,1-.5.9L27.3,29.7a1.3,1.3,0,0,1-.8.3Z" fill="#fff"/></svg>