<?xml version="1.0" encoding="UTF-8"?>
<svg width="48px" height="13px" viewBox="0 0 48 13" version="1.1" xmlns="http://www.w3.org/2000/svg" xmlns:xlink="http://www.w3.org/1999/xlink">
    <!-- Generator: Sketch 54.1 (76490) - https://sketchapp.com -->
    <title>paypal svg</title>
    <desc>Created with Sketch.</desc>
    <g id="Working" stroke="none" stroke-width="1" fill="none" fill-rule="evenodd">
        <g id="MF_shoppingcart-v2-(D)" transform="translate(-844.000000, -649.000000)" fill-rule="nonzero">
            <g id="CTA-PayPalExpress" transform="translate(731.000000, 636.000000)">
                <g id="Label" transform="translate(41.000000, 11.000000)">
                    <g id="paypal-svg" transform="translate(72.000000, 1.000000)">
                        <path d="M32.7740066,7.79244339 C32.5739646,6.4789601 31.5709239,6.4789601 30.6009089,6.4789601 L30.0489062,6.4789601 L30.4362517,8.93136174 C30.4598416,9.07950604 30.5872268,9.18849119 30.7372583,9.18849119 L30.9906134,9.18849119 C31.6511294,9.18849119 32.2748452,9.18849119 32.5966109,8.81246885 C32.7886324,8.58742161 32.8466634,8.25338922 32.7740066,7.79244339 M32.3517482,11.219578 L28.6924894,11.219578 C28.4421359,11.2194536 28.2289611,11.0374751 28.1895536,10.7902425 L26.7109413,1.40761242 C26.6971703,1.31958575 26.722546,1.22993611 26.7804102,1.16218604 C26.8382744,1.09443597 26.9228507,1.05534865 27.0119479,1.05517994 L28.8897006,1.05517994 C29.0647374,1.05517994 29.2138253,1.18256518 29.2411895,1.35524294 L29.661089,4.01617892 C29.6997763,4.26292884 29.9130287,4.44551434 30.1630812,4.44551434 L31.3208714,4.44551434 C33.7317549,4.44551434 35.1226129,5.61132512 35.4858967,7.923603 C35.6496103,8.93419252 35.4925019,9.72869894 35.0192893,10.2849478 C34.4988971,10.8963969 33.5765336,11.2200498 32.35222,11.2200498" id="Shape" fill="#009CDE" transform="translate(31.127951, 6.137615) scale(-1, 1) rotate(-180.000000) translate(-31.127951, -6.137615) "></path>
                        <path d="M6.67418774,7.95568521 C6.47414574,6.64220191 5.47110498,6.64220191 4.50061822,6.64220191 L3.94861555,6.64220191 L4.33596101,9.09460355 C4.35955087,9.24274786 4.48693611,9.35173301 4.6369676,9.35173301 L4.89032268,9.35173301 C5.5508387,9.35173301 6.17455455,9.35173301 6.49632021,8.97571067 C6.68881345,8.75066342 6.7468445,8.41663103 6.67418774,7.95568521 M6.25192928,11.3828198 L2.59267051,11.3828198 C2.34261801,11.3828198 2.1293657,11.2007061 2.09020653,10.9534844 L0.611122434,1.57085424 C0.597183797,1.48279854 0.622498543,1.3930547 0.680398273,1.32526301 C0.738298004,1.25747132 0.822976949,1.21842944 0.912129022,1.21842176 L2.6596657,1.21842176 C2.9097182,1.21842176 3.12249872,1.40053546 3.16165788,1.64775718 L3.56127008,4.17894894 C3.59995744,4.42617065 3.81320976,4.60828436 4.06326226,4.60828436 L5.22105249,4.60828436 C7.63193598,4.60828436 9.022794,5.77456694 9.38607782,8.08684482 C9.54979143,9.09743434 9.39268298,9.89194075 8.91947043,10.4481896 C8.39907816,11.0596387 7.47671471,11.3832916 6.25240108,11.3832916 M14.7475807,4.58705348 C14.5777338,3.58589991 13.7836991,2.91358896 12.7698071,2.91358896 C12.2616815,2.91358896 11.8545206,3.07730257 11.5931449,3.38680151 C11.3336565,3.69346966 11.2364663,4.13082563 11.318559,4.6172485 C11.4761392,5.60990973 12.283856,6.30345155 13.2821788,6.30345155 C13.7799248,6.30345155 14.1833113,6.13832255 14.4503485,5.82599283 C14.7188011,5.51130412 14.8244837,5.07158917 14.7475807,4.58705348 M17.1896028,7.99814695 L15.4373482,7.99814695 C15.2868387,7.99832715 15.1586606,7.88877491 15.135398,7.74007391 L15.0589669,7.25034845 L14.9362996,7.42774419 C14.5569747,7.97833147 13.7110424,8.16280416 12.8665255,8.16280416 C10.9307417,8.16280416 9.27709267,6.69551499 8.95532701,4.63847938 C8.78783902,3.61137696 9.02562479,2.63051066 9.60782248,1.94593298 C10.1423687,1.31702737 10.9052647,1.05517994 11.8144178,1.05517994 C13.3751228,1.05517994 14.2403988,2.05727711 14.2403988,2.05727711 L14.1620805,1.57038244 C14.1481288,1.48224528 14.1735037,1.39242124 14.2315094,1.32461168 C14.2895152,1.25680211 14.3743244,1.2178195 14.4635589,1.21794996 L16.0412486,1.21794996 C16.2913011,1.21794996 16.5045534,1.39959187 16.5437125,1.64728538 L17.4910812,7.64524268 C17.5048776,7.73343214 17.4793816,7.82324172 17.4213056,7.89102736 C17.3632295,7.958813 17.2783931,7.99778204 17.1891311,7.99767516" id="Shape" fill="#003087" transform="translate(9.051062, 6.219236) scale(-1, 1) rotate(-180.000000) translate(-9.051062, -6.219236) "></path>
                        <path d="M40.8473997,7.8075409 C40.6775527,6.80638733 39.8835181,6.13407637 38.869626,6.13407637 C38.3615004,6.13407637 37.9543395,6.29778999 37.6929638,6.60728892 C37.4334754,6.91395708 37.3362852,7.35131305 37.4183779,7.83773592 C37.5759581,8.83039714 38.3832031,9.52393897 39.3819977,9.52393897 C39.8797437,9.52393897 40.2831302,9.35880996 40.5501674,9.04648024 C40.81862,8.73179154 40.9243026,8.29207658 40.8473997,7.8075409 M43.2894218,11.2186344 L41.5371671,11.2186344 C41.3866576,11.2188146 41.2584795,11.1092623 41.2352169,10.9605613 L41.1587858,10.4708359 L41.0361185,10.6482316 C40.6567936,11.1988189 39.8108613,11.3832916 38.9663444,11.3832916 C37.0310324,11.3832916 35.3773834,9.91600241 35.0551459,7.85896679 C34.8876579,6.83186437 35.1259155,5.85099808 35.7081132,5.1664204 C36.2426594,4.53751478 37.0055554,4.27566736 37.9147085,4.27566736 C39.4758853,4.27566736 40.3411613,5.27776453 40.3411613,5.27776453 L40.262843,4.79086986 C40.2485795,4.70283772 40.2737113,4.61298416 40.3315767,4.54512626 C40.3894421,4.47726836 40.4741978,4.43825869 40.5633778,4.43843738 L42.1405957,4.43843738 C42.3906482,4.43843738 42.6039005,4.62007929 42.6435314,4.8677728 L43.5909001,10.8657301 C43.6046965,10.9539196 43.5792005,11.0437291 43.5211245,11.1115148 C43.4630484,11.1793004 43.378212,11.2182695 43.28895,11.2181626" id="Shape" fill="#009CDE" transform="translate(39.298653, 7.829479) scale(-1, 1) rotate(-180.000000) translate(-39.298653, -7.829479) "></path>
                        <path d="M26.5222225,13.5913023 L24.7605319,13.5913023 C24.5921003,13.5913023 24.4349918,13.5077942 24.3406324,13.3681422 L21.910877,9.79003257 L20.8809438,13.2284903 C20.8164159,13.4438381 20.6183849,13.5914507 20.3935774,13.5917741 L18.6625536,13.5917741 C18.5640717,13.5917263 18.4716624,13.5441684 18.4143856,13.4640557 C18.3571087,13.3839429 18.3420012,13.2811179 18.3738137,13.1879157 L20.3129,7.49521118 L18.4889322,4.92155767 C18.4232279,4.82843401 18.4148731,4.70646339 18.4672658,4.6052503 C18.5196584,4.50403722 18.6240715,4.44044055 18.7380411,4.44032457 L20.4978445,4.44032457 C20.6639171,4.44032457 20.820082,4.52194548 20.915385,4.65876665 L26.772275,13.1124282 C26.8370924,13.2055686 26.844799,13.3270066 26.7922757,13.4275936 C26.7397525,13.5281806 26.6356969,13.59126 26.5222225,13.5913023" id="Path" fill="#003087" transform="translate(22.592169, 9.016049) scale(-1, 1) rotate(-180.000000) translate(-22.592169, -9.016049) "></path>
                        <path d="M45.3544779,10.9624475 L43.8522758,1.40808322 C43.8384922,1.31997521 43.863928,1.2302457 43.9218981,1.16247787 C43.9798682,1.09471004 44.0645745,1.05568179 44.1537542,1.05565074 L45.6639769,1.05565074 C45.9140294,1.05565074 46.1272817,1.23776444 46.1664408,1.48498615 L47.6474121,10.8680881 C47.6613638,10.9562252 47.6359889,11.0460493 47.5779832,11.1138588 C47.5199774,11.1816684 47.4351682,11.220651 47.3459337,11.2205206 L45.6559563,11.2205206 C45.5056315,11.2209034 45.3775506,11.1114634 45.3544779,10.9629193" id="Path" fill="#009CDE" transform="translate(45.749884, 6.138086) scale(-1, 1) rotate(-180.000000) translate(-45.749884, -6.138086) "></path>
                    </g>
                </g>
            </g>
        </g>
    </g>
</svg>