<?xml version="1.0" encoding="utf-8"?>
<!-- Generator: Adobe Illustrator 26.1.0, SVG Export Plug-In . SVG Version: 6.00 Build 0)  -->
<svg version="1.1" id="Ebene_1" xmlns="http://www.w3.org/2000/svg" xmlns:xlink="http://www.w3.org/1999/xlink" x="0px" y="0px"
	 width="221px" height="221px" viewBox="0 0 221 221" enable-background="new 0 0 221 221" xml:space="preserve">
<g>
	<path fill="#25D366" d="M110.9,219.4c-9.2,0-18.2-0.7-27.2-3c-8-2.1-15.7-5.1-23-9c-2.4-1.3-4.8-2.5-7.2-3.7
		c-1.5-0.7-3-0.9-4.6-0.4c-9.3,2.7-18.8,5-28.2,7.4c-2.7,0.7-5.5,1.4-8.2,2c-1,0.2-1.9-0.7-2-1.9c-0.1-0.7,0.1-1.4,0.3-2
		c2.4-9.7,5.2-19.2,7.9-28.8c0.4-1.5,0.8-3.1,1-4.7c0.5-2.7-0.4-5.1-1.8-7.4c-2.3-3.8-4.5-7.7-6.4-11.7c-3.9-8.3-7-16.8-8.7-25.9
		c-1.2-6.9-1.4-14-1.5-21c-0.1-10.7,2.2-20.9,5-31.1c5.2-18.9,15.8-34.3,30-47.5C47.8,20.3,60.7,12.6,75.1,7.5
		c8.7-3.1,17.8-5.1,27.1-5.6c5.8-0.3,11.6-0.5,17.4-0.1c4.1,0.3,8.1,1.1,12.2,1.9c5.4,1.1,10.8,2.2,16,4.2
		c19.3,7.3,35.4,19.1,48.2,35.4c11,13.9,18,29.6,21.4,47c1.8,9.3,2.5,18.7,2,28.1c-1.1,20.2-7.5,38.5-19.4,54.9
		c-7.9,10.9-17.1,20.5-28.4,28c-12.1,8-25.3,13.7-39.6,16.5C125.9,218.9,118.7,219.4,110.9,219.4z"/>
	<path fill="#F6FAF8" d="M66.7,48.6c1.7,0.1,3.4,0.1,5.1,0.3c1.2,0.2,2.1,0.7,3,1.5c1.1,1,2,2.3,2.6,3.7c1.7,3.5,3.6,7,4.9,10.7
		c1.4,3.8,3.5,7.2,4.6,11.1c0.7,2.4,0.9,4.8,0.9,7.3c0,0.9-0.3,1.8-0.8,2.6c-1.1,1.7-2.4,3.2-3.5,4.9c-1.2,1.8-2.7,3.3-4,5
		c-2,2.4-2.1,5.1-0.8,7.8c1.6,3.5,3.9,6.6,6.3,9.7c5,6.5,11,12.1,17.3,17.3c1.6,1.3,3.3,2.8,5.1,3.8c3.7,2.2,7.4,4.5,11.4,6.1
		c2,0.8,4,1.8,6,2.6c1.7,0.6,3,0.3,4.4-0.9c3.5-3.2,6.6-6.7,9.7-10.3c0.3-0.3,0.6-0.6,0.9-1c2.6-2.9,6-3.2,9.3-1.9
		c1.8,0.7,3.5,1.5,5.1,2.4c1.5,0.9,3.2,1.2,4.6,2.1c2.2,1.5,4.9,1.8,7,3.3c0.4,0.3,1,0.5,1.5,0.6c1.2,0.3,2.4,0.8,3.4,1.5
		c0.6,0.4,1.3,0.7,2.1,0.9c1.1,0.3,2,0.9,2.8,1.7c0.6,0.6,0.9,1.3,1,2.2c0.2,2.8-0.1,5.5-1.1,8.1c-0.5,1.2-0.8,2.5-1.1,3.8
		c-0.3,1.3-1.3,2.2-2.1,3.2c-5,5.6-10.9,9.9-18.2,12c-3.9,1.1-7.8,1.5-11.8,1c-2.2-0.2-4.4-1.1-6.6-1.5c-4-0.6-7.7-2.1-11.5-3.3
		c-2.7-0.8-5.3-2.2-8-3.3c-1-0.4-2-1-3.2-1.2c-0.2,0-0.4-0.1-0.6-0.3c-3.6-2.4-7.6-3.9-11.3-6.2c-1-0.6-1.9-1.2-2.8-2
		c-0.1-0.1-0.3-0.3-0.4-0.4c-6-3.4-11.3-7.7-16.2-12.5c-5.8-5.7-11.7-11.4-17-17.6c-6.5-7.4-11.6-15.7-15.9-24.6
		c-1.6-3.3-2.7-6.8-3.9-10.3c-0.5-1.5-0.7-3.1-0.7-4.7c0-2,0.1-4.1-0.1-6.1c-0.2-4,0.7-7.8,2.2-11.4c1.9-4.7,4.7-8.9,8.1-12.7
		c1.9-2.1,4.2-3.4,6.7-4.6c1.6-0.7,3.3-0.5,5-0.6C66,48.6,66.4,48.6,66.7,48.6z"/>
</g>
</svg>
