<svg xmlns="http://www.w3.org/2000/svg" width="75" height="75" viewBox="0 0 74.967 75"><path d="M0 0h74.967v74.967H0z" fill="#fff"/><path d="M74.967 40.606V.033H0V75h74.967V53.128c-.167 0 0-12.522 0-12.522" fill="#006FCF"/><path d="M65.784 36.43h5.677v-13.2h-6.178v1.837l-1.17-1.837H58.77v2.338l-1-2.328h-9.85c-.334 0-.668.167-1.002.167s-.5.167-.835.334-.5.167-.835.334v-.835H17.03l-.835 2.17-.835-2.17H8.68v2.338l-1-2.338H2.337L0 28.918v7.514h3.84l.668-1.837h1.336l.668 1.837h29.386v-1.67l1.17 1.67h8.18V35.43c.167.167.5.167.668.334s.5.167.668.334c.334.167.668.167 1.002.167h6l.668-1.837H55.6l.668 1.837h8.18v-1.67zm9.183 16.696V40.773H29.052l-1.17 1.67-1.17-1.67H13.357v13.2h13.357l1.17-1.67 1.17 1.67H37.4v-2.838h-.334c1.17 0 2.17-.167 3.005-.5v3.506h6v-1.67l1.17 1.67H72.13c1.002-.334 2.004-.5 2.838-1.002z" fill="#fff"/><path d="M72.128 49.955H67.62v1.837h4.34c1.837 0 3.005-1.17 3.005-2.838s-1.002-2.504-2.67-2.504H70.29c-.5 0-.835-.334-.835-.835s.334-.835.835-.835h3.84l.835-1.837H70.46c-1.837 0-3.005 1.17-3.005 2.67 0 1.67 1.002 2.505 2.67 2.505h2.004c.5 0 .835.334.835.835.167.668-.167 1.002-.835 1.002zm-8.18 0H59.44v1.837h4.34c1.837 0 3.005-1.17 3.005-2.838s-1.002-2.504-2.67-2.504H62.1c-.5 0-.835-.334-.835-.835s.334-.835.835-.835h3.84l.835-1.837h-4.508c-1.837 0-3.005 1.17-3.005 2.67 0 1.67 1.002 2.505 2.67 2.505h2.004c.5 0 .835.334.835.835.167.668-.334 1.002-.835 1.002zm-5.844-5.343v-1.837H51.1v8.85h7.012v-1.837h-5v-1.836h4.842v-1.837h-4.842v-1.67h5zm-11.354 0c.835 0 1.17.5 1.17 1.002s-.334 1.002-1.17 1.002h-2.504v-2.17zm-2.504 3.84h1.002l2.67 3.172h2.504l-3.005-3.34c1.503-.334 2.337-1.336 2.337-2.67 0-1.67-1.17-2.838-3.005-2.838h-4.675v8.85h2.004zm-5.343-2.67c0 .668-.334 1.17-1.17 1.17h-2.67v-2.337h2.504c.835 0 1.336.5 1.336 1.17zm-5.844-3.005v8.85h2.004V48.62h2.67c1.837 0 3.172-1.17 3.172-3.005 0-1.67-1.17-3.005-3.005-3.005zm-3.005 8.85h2.504l-3.506-4.508 3.506-4.34h-2.504l-2.17 2.838-2.17-2.838H23.2l3.506 4.34-3.506 4.34h2.504l2.17-2.838zm-7.513-7.012v-1.837H15.53v8.85h7.012V49.79h-5v-1.836h4.842v-1.837H17.53v-1.67h5zM63.113 28.92l3.506 5.343h2.504v-8.85H67.12v5.844l-.5-.835-3.172-5h-2.67v8.85h2.004v-6zm-8.682-.167l.668-1.837.668 1.837.835 2.003h-3.005zm3.506 5.5h2.17l-3.84-8.85h-2.67l-3.84 8.85h2.17l.835-1.837h4.34zm-9.35 0l.835-1.837h-.5c-1.503 0-2.337-1.002-2.337-2.504v-.167c0-1.503.835-2.504 2.337-2.504h2.17v-1.837h-2.337c-2.67 0-4.174 1.837-4.174 4.34v.167c0 2.67 1.503 4.34 4.007 4.34zm-7.513 0h2.004V25.58h-2.004v4.508zm-4.34-7.012c.835 0 1.17.5 1.17 1.002s-.334 1.002-1.17 1.002H34.23v-2.17zm-2.504 3.84h1.002l2.67 3.172h2.504l-3.005-3.34c1.503-.334 2.337-1.336 2.337-2.67 0-1.67-1.17-2.838-3.005-2.838h-4.675v8.85h2.004zm-3.673-3.84v-1.837h-7.012v8.85h7.012v-1.837h-5V30.58h4.842v-1.83h-4.842v-1.67h5zM15.36 34.26h1.837l2.504-7.18v7.18h2.004V25.4h-3.34l-2.004 6-2.004-6h-3.34v8.85h2.004v-7.18zm-10.853-5.5l.668-1.837.668 1.837.835 2.003H3.673zm3.506 5.5h2.17l-3.84-8.85H3.84L0 34.26h2.17l.835-1.837h4.34z" fill="#006FCF"/></svg>