<svg xmlns="http://www.w3.org/2000/svg" height="75" width="391" viewBox="0 0 390.946 75"><defs><clipPath id="A"><path d="M0 0h176.515v33.863H0z"/></clipPath></defs><g transform="scale(2.2148068)" clip-path="url(#A)"><path d="M69.652 26.5c-6.523 4.814-15.98 7.374-24.124 7.374-11.413 0-21.7-4.22-29.47-11.242-.6-.552-.066-1.305.668-.878 8.4 4.883 18.77 7.824 29.486 7.824 7.23 0 15.178-1.5 22.5-4.603 1.103-.467 2.028.727.948 1.525zm2.715-3.1c-.835-1.068-5.515-.506-7.618-.254-.637.077-.736-.48-.162-.883 3.734-2.623 9.853-1.866 10.564-.987.716.885-.2 7.02-3.687 9.947-.54.45-1.05.2-.812-.384.788-1.967 2.55-6.37 1.715-7.44z" fill-rule="evenodd" fill="#f79c34"/><path d="M64.897 3.724V1.176a.63.63 0 0 1 .646-.645L76.965.53c.365 0 .66.265.66.643v2.185c-.004.367-.313.845-.86 1.604L70.847 13.4c2.196-.05 4.52.278 6.515 1.4.45.253.57.628.606.995v2.72c0 .375-.4.808-.842.583-3.515-1.842-8.18-2.043-12.068.022-.397.212-.812-.216-.812-.6v-2.585c0-.413.008-1.12.425-1.75l6.854-9.834h-5.968c-.365 0-.658-.26-.66-.642zM23.233 19.64h-3.475c-.33-.02-.595-.27-.622-.587L19.14 1.22c0-.356.3-.64.67-.64h3.236a.66.66 0 0 1 .63.6v2.328h.066C24.586 1.252 26.175.2 28.316.2c2.173 0 3.536 1.05 4.5 3.303.842-2.25 2.756-3.303 4.8-3.303 1.46 0 3.05.6 4.022 1.952 1.103 1.502.877 3.678.877 5.592L42.52 19c0 .355-.3.64-.67.64h-3.47c-.35-.022-.624-.298-.624-.64l-.001-9.455c0-.75.065-2.626-.098-3.34-.26-1.202-1.037-1.54-2.042-1.54-.844 0-1.72.563-2.077 1.463s-.324 2.402-.324 3.416V19c0 .355-.3.64-.67.64h-3.47c-.35-.022-.624-.298-.624-.64l-.004-9.455c0-2 .325-4.915-2.14-4.915-2.498 0-2.4 2.85-2.4 4.915L23.903 19c0 .355-.3.64-.67.64zM87.488 3.842c-2.562 0-2.724 3.5-2.724 5.666s-.032 6.83 2.693 6.83c2.692 0 2.822-3.753 2.822-6.042 0-1.5-.066-3.303-.52-4.73-.4-1.24-1.168-1.726-2.27-1.726zM87.457.2c5.157 0 7.946 4.43 7.946 10.06 0 5.44-3.08 9.757-7.946 9.757-5.06 0-7.818-4.43-7.818-9.945 0-5.555 2.8-9.87 7.818-9.87zm14.635 19.44H98.63c-.347-.022-.623-.298-.623-.64L98 1.16c.03-.327.318-.582.668-.582l3.223-.001a.66.66 0 0 1 .618.499v2.728h.065C103.548 1.364 104.9.2 107.3.2c1.557 0 3.082.563 4.055 2.102.908 1.426.908 3.827.908 5.554V19.08c-.038.316-.322.56-.666.56h-3.483c-.322-.02-.58-.257-.62-.56V9.397c0-1.952.228-4.805-2.173-4.805-.843 0-1.622.563-2 1.426-.487 1.1-.552 2.177-.552 3.38V19c-.006.355-.306.64-.676.64zm-42.798-.043c-.23.206-.56.22-.82.08-1.154-.96-1.36-1.402-1.992-2.316-1.907 1.943-3.258 2.526-5.73 2.526-2.925 0-5.2-1.806-5.2-5.416 0-2.82 1.53-4.74 3.706-5.68 1.885-.828 4.518-.978 6.534-1.204v-.45c0-.83.065-1.805-.423-2.52-.423-.64-1.235-.903-1.95-.903-1.326 0-2.503.68-2.793 2.086-.06.313-.3.624-.603.64l-3.37-.365c-.284-.065-.6-.293-.52-.727C46.9 1.32 50.498.064 53.768.03h.258C55.7.05 57.838.5 59.14 1.76c1.7 1.58 1.527 3.686 1.527 5.98v5.413c0 1.63.677 2.343 1.312 3.22.223.317.272.692-.01.924l-2.664 2.308zm-3.502-8.472c0 1.354.032 2.482-.65 3.686-.553.977-1.43 1.58-2.406 1.58-1.332 0-2.112-1.015-2.112-2.52 0-2.96 2.654-3.498 5.168-3.498zm-42.05 8.472a.72.72 0 0 1-.821.081c-1.155-.96-1.362-1.402-1.992-2.316-1.908 1.943-3.258 2.526-5.73 2.526-2.925 0-5.2-1.806-5.2-5.416 0-2.82 1.527-4.74 3.706-5.68 1.885-.828 4.518-.978 6.533-1.204v-.45c0-.83.066-1.805-.422-2.52-.423-.64-1.236-.903-1.95-.903-1.326 0-2.505.68-2.793 2.086-.06.313-.3.624-.604.64L1.1 6.076C.817 6 .5 5.783.583 5.35 1.346 1.32 4.945.064 8.216.03h.258c1.674.02 3.812.48 5.114 1.73 1.7 1.58 1.527 3.686 1.527 5.98v5.413c0 1.63.677 2.343 1.312 3.22.22.317.272.692-.01.924l-2.665 2.308zm-3.504-8.472c0 1.354.033 2.482-.65 3.686-.552.977-1.43 1.58-2.406 1.58-1.332 0-2.112-1.015-2.112-2.52 0-2.96 2.655-3.498 5.168-3.498zM159.773 26.04v-1.3c0-.373.183-.63.572-.607.726.103 1.753.206 2.482.056.952-.198 1.635-.873 2.04-1.798l1.184-3.04-7.23-17.908c-.122-.304-.158-.868.45-.868h2.527c.482 0 .678.306.786.606l5.24 14.546 5.003-14.546c.102-.298.307-.606.785-.606h2.383c.603 0 .57.563.45.868l-7.17 18.467c-.928 2.458-2.164 6.373-4.948 7.053-1.396.365-3.157.233-4.2-.2-.26-.13-.36-.48-.36-.712zm-3.37-7.5a.61.61 0 0 1-.608.606h-1.782c-.385 0-.648-.278-.697-.606l-.18-1.213a10.41 10.41 0 0 1-2.914 1.726c-2.096.814-4.512.95-6.56-.3-1.48-.9-2.267-2.686-2.267-4.52 0-1.418.437-2.824 1.406-3.845 1.293-1.395 3.167-2.08 5.43-2.08 1.367 0 3.323.16 4.746.626v-2.44c0-2.482-1.045-3.556-3.8-3.556-2.106 0-3.717.318-5.96 1.015-.36.012-.57-.26-.57-.594v-1.4c0-.334.285-.657.594-.755 1.6-.7 3.86-1.134 6.28-1.214 3.143 0 6.88.7 6.88 5.543zm-3.425-3.564v-3.683c-1.196-.327-3.175-.463-3.94-.463-1.2 0-2.535.286-3.227 1.03-.517.546-.75 1.33-.75 2.088 0 .98.34 1.963 1.13 2.45.92.625 2.347.55 3.688.168 1.3-.366 2.5-1.013 3.1-1.6zm-22.85-11.982c3.954 0 5.03 3.1 5.03 6.67.022 2.4-.42 4.54-1.662 5.765-.93.917-1.97 1.167-3.533 1.167-1.392 0-3.223-.726-4.6-1.737V4.68c1.424-1.094 3.24-1.685 4.755-1.685zm-5.36 23.684h-2.387a.61.61 0 0 1-.607-.606V1.2a.61.61 0 0 1 .607-.606h1.827c.384 0 .647.278.696.606l.192 1.303c1.7-1.52 3.914-2.493 6.013-2.493 5.88 0 7.812 4.844 7.812 9.88 0 5.4-2.957 9.72-7.958 9.72a8.37 8.37 0 0 1-5.589-2.127v8.588a.61.61 0 0 1-.606.606z" fill-rule="evenodd" fill="#333e47"/></g></svg>