<svg xmlns="http://www.w3.org/2000/svg" height="75" width="225" viewBox="0 0 224.997 75"><path d="M70.486 56.572a7.713 7.713 0 0 1 .388-2.49 5.56 5.56 0 0 1 1.124-1.968 5.24 5.24 0 0 1 1.827-1.304 6.51 6.51 0 0 1 4.897 0 5.211 5.211 0 0 1 1.833 1.304 5.476 5.476 0 0 1 1.124 1.968 7.561 7.561 0 0 1 .394 2.49 7.646 7.646 0 0 1-.394 2.524 5.622 5.622 0 0 1-1.124 1.973 5.06 5.06 0 0 1-1.821 1.287 6.819 6.819 0 0 1-4.93 0 5.06 5.06 0 0 1-1.821-1.287 5.571 5.571 0 0 1-1.124-1.973 7.797 7.797 0 0 1-.371-2.524zm1.833 0a6.746 6.746 0 0 0 .23 1.748 4.762 4.762 0 0 0 .72 1.512 3.542 3.542 0 0 0 1.237 1.063 3.778 3.778 0 0 0 1.788.399 3.817 3.817 0 0 0 1.793-.399 3.519 3.519 0 0 0 1.231-1.063 4.644 4.644 0 0 0 .72-1.512 6.493 6.493 0 0 0 .236-1.748 6.246 6.246 0 0 0-.253-1.771 4.807 4.807 0 0 0-.748-1.512 3.649 3.649 0 0 0-1.237-1.046 4.121 4.121 0 0 0-3.491 0 3.547 3.547 0 0 0-1.237 1.046 4.7 4.7 0 0 0-.748 1.512 6.448 6.448 0 0 0-.242 1.771zM83.973 53.8h1.574v1.4h.034a2.586 2.586 0 0 1 1.158-1.181 3.57 3.57 0 0 1 1.726-.427 3.002 3.002 0 0 1 2.507 1.006 4.351 4.351 0 0 1 .798 2.811v5.24h-1.625v-4.565a5.189 5.189 0 0 0-.399-2.316 1.625 1.625 0 0 0-1.479-.86 2.535 2.535 0 0 0-1.203.27 2.215 2.215 0 0 0-.838.742 3.227 3.227 0 0 0-.483 1.124 6.364 6.364 0 0 0-.157 1.473v4.08H83.96zM94.3 49.64h1.625V62.6H94.3zm6.106 2.176h-1.833v-1.833h1.833zm-1.732 1.973h1.625v8.82h-1.625zm4.176.01h1.574v1.4h.034a2.586 2.586 0 0 1 1.158-1.181 3.592 3.592 0 0 1 1.732-.427 3.002 3.002 0 0 1 2.507 1.006 4.379 4.379 0 0 1 .793 2.811v5.24h-1.625v-4.565a5.11 5.11 0 0 0-.399-2.316 1.625 1.625 0 0 0-1.467-.832 2.547 2.547 0 0 0-1.203.27 2.249 2.249 0 0 0-.821.714 3.227 3.227 0 0 0-.483 1.124 6.684 6.684 0 0 0-.157 1.473v4.08h-1.625zm16.9 8.454l-.5.18c-.174.068-.365.124-.562.185a6.426 6.426 0 0 1-.742.146 7.084 7.084 0 0 1-.961.062 5.374 5.374 0 0 1-2.029-.349 3.783 3.783 0 0 1-1.422-.967 4.059 4.059 0 0 1-.838-1.507 6.443 6.443 0 0 1-.275-1.951 5.228 5.228 0 0 1 .292-1.799 4.216 4.216 0 0 1 .838-1.411 3.744 3.744 0 0 1 1.31-.922 4.205 4.205 0 0 1 1.687-.332 4.042 4.042 0 0 1 1.85.382 3.114 3.114 0 0 1 1.192 1.046 4.497 4.497 0 0 1 .652 1.58 9.557 9.557 0 0 1 .197 1.973h-6.308a2.912 2.912 0 0 0 .236 1.192 2.94 2.94 0 0 0 2.67 1.748 3.834 3.834 0 0 0 .821-.096 7.095 7.095 0 0 0 .798-.225 4.497 4.497 0 0 0 .658-.287 3.418 3.418 0 0 0 .439-.275zm-1.057-4.9a2.985 2.985 0 0 0-.146-.956 2.327 2.327 0 0 0-.422-.781 1.895 1.895 0 0 0-.691-.528 2.181 2.181 0 0 0-.933-.191 2.142 2.142 0 0 0-1.029.225 2.305 2.305 0 0 0-.708.562 2.507 2.507 0 0 0-.433.787 4.295 4.295 0 0 0-.202.877zm7.847-7.714h1.642v5.358a3.159 3.159 0 0 1 1.074-1.012 3.637 3.637 0 0 1 1.85-.405 3.688 3.688 0 0 1 1.687.365 3.486 3.486 0 0 1 1.192.978 4.222 4.222 0 0 1 .708 1.422 6.072 6.072 0 0 1 .23 1.687 7.14 7.14 0 0 1-.214 1.771 4.807 4.807 0 0 1-.675 1.524 3.373 3.373 0 0 1-2.895 1.479 4.003 4.003 0 0 1-1.94-.489 2.85 2.85 0 0 1-.647-.467 2.524 2.524 0 0 1-.422-.5h-.034v1.25h-1.557zm6.656 8.523a4.925 4.925 0 0 0-.112-1.175 3.373 3.373 0 0 0-.427-1.057 2.299 2.299 0 0 0-.759-.748 2.103 2.103 0 0 0-1.124-.287 2.249 2.249 0 0 0-1.124.287 2.552 2.552 0 0 0-.821.748 3.373 3.373 0 0 0-.489 1.068 4.891 4.891 0 0 0-.152 1.214 4.734 4.734 0 0 0 .146 1.124 3.463 3.463 0 0 0 .461 1.063 2.445 2.445 0 0 0 .804.787 2.193 2.193 0 0 0 1.181.304 1.9 1.9 0 0 0 1.124-.332 2.654 2.654 0 0 0 .759-.821 3.649 3.649 0 0 0 .433-1.079 4.104 4.104 0 0 0 .101-1.096zm3.892-3.75a6.111 6.111 0 0 1 1.332-.596 5.06 5.06 0 0 1 1.574-.236c1.265 0 2.176.3 2.72.916a3.997 3.997 0 0 1 .821 2.732V62a4.885 4.885 0 0 0 .051.562h-1.518V61.44h-.04a2.721 2.721 0 0 1-.377.439 3.171 3.171 0 0 1-.562.433 3.446 3.446 0 0 1-.781.337 3.373 3.373 0 0 1-.989.141 5.296 5.296 0 0 1-1.31-.157 2.918 2.918 0 0 1-1.029-.495 2.249 2.249 0 0 1-.663-.855 2.985 2.985 0 0 1-.236-1.242 2.249 2.249 0 0 1 .41-1.389 3.143 3.143 0 0 1 1.012-.888 4.447 4.447 0 0 1 1.327-.483 7.095 7.095 0 0 1 1.349-.146h.866l.866.034a2.648 2.648 0 0 0-.478-1.72 2.097 2.097 0 0 0-1.687-.562 4.031 4.031 0 0 0-1.372.242 3.969 3.969 0 0 0-1.197.669zm4.824 3.992h-1.04c-.174 0-.5 0-.843.045a4.11 4.11 0 0 0-1.012.214 2.35 2.35 0 0 0-.849.512 1.22 1.22 0 0 0-.354.928 1.169 1.169 0 0 0 .157.613 1.568 1.568 0 0 0 .388.45 1.754 1.754 0 0 0 .528.275 1.85 1.85 0 0 0 .562.096 2.389 2.389 0 0 0 1.833-.669 2.311 2.311 0 0 0 .624-1.647zm3.94-4.604h1.524v1.366h.034a2.811 2.811 0 0 1 .961-1.124 2.249 2.249 0 0 1 1.338-.444 4.036 4.036 0 0 1 .562.034l.5.1v1.445a2.249 2.249 0 0 0-.461-.118 2.485 2.485 0 0 0-.439-.039 2.018 2.018 0 0 0-1.748.973 4.593 4.593 0 0 0-.658 2.625V62.6h-1.625zm10.67-4.15h1.625v5.358h.034a3.159 3.159 0 0 1 1.074-1.012 4.2 4.2 0 0 1 3.514-.039 3.452 3.452 0 0 1 1.197.978 4.222 4.222 0 0 1 .708 1.422 6.285 6.285 0 0 1 .23 1.687 7.415 7.415 0 0 1-.214 1.771 4.807 4.807 0 0 1-.675 1.524 3.373 3.373 0 0 1-2.895 1.479 3.975 3.975 0 0 1-1.074-.14 4.036 4.036 0 0 1-.866-.349 2.85 2.85 0 0 1-.641-.472 2.524 2.524 0 0 1-.422-.5h-.04v1.248h-1.552zm6.656 8.523a4.925 4.925 0 0 0-.112-1.175 3.373 3.373 0 0 0-.427-1.057 2.299 2.299 0 0 0-.759-.748 2.103 2.103 0 0 0-1.124-.287 2.249 2.249 0 0 0-1.124.287 2.496 2.496 0 0 0-.821.748 3.373 3.373 0 0 0-.489 1.068 4.891 4.891 0 0 0-.152 1.214 4.734 4.734 0 0 0 .146 1.124 3.452 3.452 0 0 0 .455 1.063 2.558 2.558 0 0 0 .804.787 2.249 2.249 0 0 0 1.186.304 1.9 1.9 0 0 0 1.124-.332 2.654 2.654 0 0 0 .759-.821 3.649 3.649 0 0 0 .433-1.079 4.104 4.104 0 0 0 .101-1.096zm10.222 4.07l-.5.18c-.17.068-.365.124-.562.185a6.426 6.426 0 0 1-.742.146 6.965 6.965 0 0 1-.961.062 5.397 5.397 0 0 1-2.029-.349 3.716 3.716 0 0 1-1.417-.967 3.935 3.935 0 0 1-.838-1.507 6.437 6.437 0 0 1-.281-1.951 5.228 5.228 0 0 1 .298-1.799 4.042 4.042 0 0 1 .838-1.411 3.722 3.722 0 0 1 1.304-.922 4.228 4.228 0 0 1 1.687-.332 4.025 4.025 0 0 1 1.827.394 3.131 3.131 0 0 1 1.197 1.046 4.599 4.599 0 0 1 .647 1.58 9.175 9.175 0 0 1 .197 1.973h-6.28a3.002 3.002 0 0 0 .23 1.192 2.85 2.85 0 0 0 .641.928 2.923 2.923 0 0 0 .933.602 2.856 2.856 0 0 0 1.124.219 3.879 3.879 0 0 0 .821-.096 7.342 7.342 0 0 0 .793-.225 4.497 4.497 0 0 0 .658-.287 3.058 3.058 0 0 0 .439-.275zm-1.05-4.9a3.148 3.148 0 0 0-.146-.956 2.445 2.445 0 0 0-.427-.781 1.805 1.805 0 0 0-.691-.528 2.423 2.423 0 0 0-1.962.034 2.305 2.305 0 0 0-.708.562 2.625 2.625 0 0 0-.433.787 4.278 4.278 0 0 0-.197.866zm2.842 3.833l5.06-6.083h-4.84V53.8h6.746v1.417l-5.065 6.077h5.273V62.6h-7.173zm9.27-6.763a6.111 6.111 0 0 1 1.332-.596 5.06 5.06 0 0 1 1.568-.236c1.27 0 2.176.3 2.727.916a3.997 3.997 0 0 1 .821 2.732v4.773a4.885 4.885 0 0 0 .051.562h-1.5V61.44h-.04a2.721 2.721 0 0 1-.377.439 3.171 3.171 0 0 1-.562.433 3.446 3.446 0 0 1-.781.337 3.373 3.373 0 0 1-.995.141 5.279 5.279 0 0 1-1.304-.157 2.918 2.918 0 0 1-1.029-.495 2.249 2.249 0 0 1-.663-.855 2.985 2.985 0 0 1-.236-1.242 2.249 2.249 0 0 1 .41-1.389 3.143 3.143 0 0 1 1.012-.888 4.447 4.447 0 0 1 1.327-.483 6.999 6.999 0 0 1 1.349-.146h.866l.866.034a2.648 2.648 0 0 0-.478-1.72 2.097 2.097 0 0 0-1.687-.562 4.031 4.031 0 0 0-1.372.242 3.969 3.969 0 0 0-1.186.658zm4.824 3.992h-1.04c-.174 0-.5 0-.843.045a4.11 4.11 0 0 0-1.012.214 2.35 2.35 0 0 0-.849.512 1.22 1.22 0 0 0-.354.928 1.169 1.169 0 0 0 .157.613 1.568 1.568 0 0 0 .388.45 1.687 1.687 0 0 0 .528.275 1.85 1.85 0 0 0 .562.096 2.389 2.389 0 0 0 1.833-.669 2.311 2.311 0 0 0 .624-1.647zm3.94-8.765h1.625v5.414h.034a3.081 3.081 0 0 1 1.175-1.079 3.559 3.559 0 0 1 1.687-.382 3.013 3.013 0 0 1 2.507 1.006 4.379 4.379 0 0 1 .793 2.811v5.24h-1.625v-4.565a5.189 5.189 0 0 0-.399-2.316 1.625 1.625 0 0 0-1.467-.832 2.547 2.547 0 0 0-1.203.27 2.249 2.249 0 0 0-.838.742 3.227 3.227 0 0 0-.483 1.124 6.364 6.364 0 0 0-.157 1.473v4.08h-1.647zm10.34 0h1.636V62.6h-1.625zm10.93 12.604l-.5.18c-.174.068-.365.124-.562.185a6.308 6.308 0 0 1-.748.146 6.937 6.937 0 0 1-.956.062 5.425 5.425 0 0 1-2.035-.349 3.806 3.806 0 0 1-1.417-.967 4.059 4.059 0 0 1-.838-1.507 6.443 6.443 0 0 1-.275-1.951 5.228 5.228 0 0 1 .287-1.821 4.216 4.216 0 0 1 .838-1.411 3.772 3.772 0 0 1 1.304-.922 4.256 4.256 0 0 1 1.687-.332 4.042 4.042 0 0 1 1.85.382 3.114 3.114 0 0 1 1.192 1.046 4.497 4.497 0 0 1 .652 1.58 9.557 9.557 0 0 1 .197 1.973h-6.296a2.912 2.912 0 0 0 .236 1.192 2.862 2.862 0 0 0 1.574 1.529 2.811 2.811 0 0 0 1.096.219 3.834 3.834 0 0 0 .821-.096 7.449 7.449 0 0 0 .798-.225 4.497 4.497 0 0 0 .658-.287 3.868 3.868 0 0 0 .439-.275zm-1.057-4.9a2.985 2.985 0 0 0-.146-.956 2.327 2.327 0 0 0-.422-.781 1.895 1.895 0 0 0-.691-.528 2.181 2.181 0 0 0-.933-.191 2.142 2.142 0 0 0-1.029.225 2.181 2.181 0 0 0-.708.562 2.507 2.507 0 0 0-.433.787 4.295 4.295 0 0 0-.202.866zm3.473-3.554h1.574v1.4h.034a2.597 2.597 0 0 1 1.164-1.181 3.553 3.553 0 0 1 1.726-.427 3.002 3.002 0 0 1 2.507 1.006 4.385 4.385 0 0 1 .798 2.811v5.24h-1.63v-4.565a5.2 5.2 0 0 0-.394-2.316 1.63 1.63 0 0 0-1.473-.832 2.507 2.507 0 0 0-1.197.27 2.249 2.249 0 0 0-.843.742 3.334 3.334 0 0 0-.483 1.124 6.696 6.696 0 0 0-.152 1.473v4.08h-1.63z" fill="#b5b5b7"/><path d="M70.486 15.392h8.7a16.168 16.168 0 0 1 2.603.23 8.124 8.124 0 0 1 2.597.911 5.622 5.622 0 0 1 2.013 1.94 6.088 6.088 0 0 1 .804 3.3 5.234 5.234 0 0 1-1.355 3.699 6.184 6.184 0 0 1-3.598 1.855v.073a6.881 6.881 0 0 1 2.333.562 6.15 6.15 0 0 1 1.799 1.231 5.358 5.358 0 0 1 1.158 1.732 5.498 5.498 0 0 1 .41 2.119 6.836 6.836 0 0 1-.928 3.778 6.364 6.364 0 0 1-2.282 2.17 8.843 8.843 0 0 1-2.867 1.001 17.079 17.079 0 0 1-2.687.248h-8.7zm4.987 10.046h2.03a12.424 12.424 0 0 0 1.619-.107 4.632 4.632 0 0 0 1.518-.444 3.098 3.098 0 0 0 1.124-.928 2.474 2.474 0 0 0 .45-1.546 2.98 2.98 0 0 0-.427-1.687 2.743 2.743 0 0 0-1.124-.944 4.497 4.497 0 0 0-1.552-.394l-1.687-.073H75.5zm0 10.9h2.35a11.306 11.306 0 0 0 1.765-.141 5.622 5.622 0 0 0 1.653-.517 3.278 3.278 0 0 0 1.231-1.051 2.946 2.946 0 0 0 .483-1.743 3.705 3.705 0 0 0-.45-1.945 3.176 3.176 0 0 0-1.175-1.124 4.689 4.689 0 0 0-1.653-.562 14.69 14.69 0 0 0-1.855-.124h-2.35zm16.28-13.464a15.106 15.106 0 0 1 3.114-1.018 15.556 15.556 0 0 1 3.261-.371q4.2 0 6.055 1.833 1.855 1.833 1.855 5.92v4.824l.05 2.12.1 2.035.124 2.063h-4.2a8.534 8.534 0 0 1-.163-1.512q0-.804-.05-1.23h-.073a6.128 6.128 0 0 1-1.051 1.355 5.734 5.734 0 0 1-1.372.995 7.112 7.112 0 0 1-1.568.596 6.521 6.521 0 0 1-1.658.214 8.05 8.05 0 0 1-2.367-.354 6.302 6.302 0 0 1-2.046-1.051 5.436 5.436 0 0 1-1.445-1.687 4.846 4.846 0 0 1-.562-2.333 5.622 5.622 0 0 1 .888-3.317 6.184 6.184 0 0 1 2.249-1.923 9.074 9.074 0 0 1 3.013-.871 27.12 27.12 0 0 1 3.154-.197h2.637c0-1.495-.337-2.53-1-3.098S99 25 97.55 25a8.562 8.562 0 0 0-2.991.534 10.024 10.024 0 0 0-2.67 1.462zm2.564 12.076a1.855 1.855 0 0 0 .871 1.687 4.548 4.548 0 0 0 4.098.09 4.357 4.357 0 0 0 1.405-1.192 4.244 4.244 0 0 0 .804-1.748 10.232 10.232 0 0 0 .197-2.03h-2.07a14.763 14.763 0 0 0-1.743.107 6.555 6.555 0 0 0-1.687.427 3.373 3.373 0 0 0-1.316.944 2.524 2.524 0 0 0-.562 1.715zm15.64-13.02h4.24v4.166h.067a4.497 4.497 0 0 1 .467-1.439 5.903 5.903 0 0 1 1.051-1.501 6.184 6.184 0 0 1 1.546-1.175 4.07 4.07 0 0 1 1.962-.478q.354 0 .708 0a3.637 3.637 0 0 1 .748.124v4.8a2.856 2.856 0 0 0-.905-.287 6.746 6.746 0 0 0-1.231-.107 2.996 2.996 0 0 0-2.249.798 4.947 4.947 0 0 0-1.158 1.962 9.36 9.36 0 0 0-.427 2.44l-.05 2.282v6.746h-4.773zm12.783 0h14.538v3.935l-9.096 10.682h9.445v3.7h-15.275v-3.885l9.293-10.755h-8.905zm18.525.944a15.275 15.275 0 0 1 3.12-1.018 15.505 15.505 0 0 1 3.255-.371q4.2 0 6.06 1.833 1.85 1.833 1.85 5.92v4.824l.056 2.12.1 2.035.124 2.063h-4.205a8.545 8.545 0 0 1-.157-1.512l-.056-1.23h-.073a6.105 6.105 0 0 1-1.046 1.355 5.847 5.847 0 0 1-1.372.995 7.112 7.112 0 0 1-1.569.596 6.549 6.549 0 0 1-1.658.214 8.022 8.022 0 0 1-2.367-.354 6.33 6.33 0 0 1-2.052-1.051 5.498 5.498 0 0 1-1.439-1.687 4.79 4.79 0 0 1-.562-2.333 5.582 5.582 0 0 1 .894-3.317 6.072 6.072 0 0 1 2.249-1.923 9.04 9.04 0 0 1 3.008-.871 27.272 27.272 0 0 1 3.154-.197h2.665q0-2.25-.995-3.098c-.67-.562-1.687-.855-3.137-.855a8.54 8.54 0 0 0-2.991.534 9.934 9.934 0 0 0-2.67 1.462zm2.564 12.076a1.85 1.85 0 0 0 .877 1.687 4.537 4.537 0 0 0 4.093.09 4.318 4.318 0 0 0 1.411-1.192 4.166 4.166 0 0 0 .798-1.748 10.232 10.232 0 0 0 .197-2.03h-2.063a14.859 14.859 0 0 0-1.748.107 6.51 6.51 0 0 0-1.687.427 3.435 3.435 0 0 0-1.321.944 2.524 2.524 0 0 0-.557 1.715zm15.53-21.408h4.8v10.86h.073a6.634 6.634 0 0 1 2.406-2.136 7.044 7.044 0 0 1 3.373-.781 6.606 6.606 0 0 1 2.811.562 5.391 5.391 0 0 1 1.94 1.512 6.184 6.184 0 0 1 1.124 2.282 10.934 10.934 0 0 1 .354 2.85v11.564h-4.773v-9.793l-.05-1.782a5.521 5.521 0 0 0-.36-1.687 3.159 3.159 0 0 0-.922-1.282 2.71 2.71 0 0 0-1.765-.517 3.373 3.373 0 0 0-2.103.624 4.43 4.43 0 0 0-1.282 1.546 6.977 6.977 0 0 0-.641 1.979 11.806 11.806 0 0 0-.18 1.94v8.995h-4.773zm20.983 0h4.773v26.715h-4.773zm23.618 25.68a11.885 11.885 0 0 1-2.85 1.091 14.667 14.667 0 0 1-3.452.371q-4.56 0-7.072-2.474-2.513-2.474-2.513-7.04a12.93 12.93 0 0 1 .562-3.755 9.248 9.248 0 0 1 1.585-3.081 7.494 7.494 0 0 1 2.614-2.086 8.579 8.579 0 0 1 3.744-.765 9.484 9.484 0 0 1 4.239.838 6.898 6.898 0 0 1 2.698 2.294 9.45 9.45 0 0 1 1.405 3.514 22.431 22.431 0 0 1 .41 4.43h-12.7a4.784 4.784 0 0 0 1.585 3.424 5.448 5.448 0 0 0 3.654 1.192 9.197 9.197 0 0 0 3.238-.562 20.514 20.514 0 0 0 2.85-1.299zm-3.204-9.934a7.781 7.781 0 0 0-.304-1.642 4.093 4.093 0 0 0-.691-1.372 3.412 3.412 0 0 0-1.175-.944 3.823 3.823 0 0 0-1.715-.354 3.727 3.727 0 0 0-3.041 1.226 5.532 5.532 0 0 0-1.197 3.086zm7.408-7.358h4.526v2.474h.067a6.504 6.504 0 0 1 2.637-2.249 8.337 8.337 0 0 1 3.373-.658 6.623 6.623 0 0 1 2.811.562 5.391 5.391 0 0 1 1.94 1.512 6.184 6.184 0 0 1 1.124 2.282 10.934 10.934 0 0 1 .354 2.85v11.553h-4.773v-9.793l-.05-1.782a5.521 5.521 0 0 0-.36-1.687 3.12 3.12 0 0 0-.928-1.282 2.682 2.682 0 0 0-1.76-.517 3.373 3.373 0 0 0-2.103.624 4.43 4.43 0 0 0-1.282 1.546 6.977 6.977 0 0 0-.641 1.979 11.806 11.806 0 0 0-.18 1.94v8.995h-4.773z" fill="#4b4b4b"/><path d="M36.16.005c-.332.483-.843.444-1.332.444H17.04c-.495 0-1 .045-1.344-.433h18.17A20.63 20.63 0 0 0 36.16.004zM.005 16.235c.86 2.552 1.17 5.105.028 7.646a39.032 39.032 0 0 0-.028-7.646z" fill="#61a722"/><path d="M51.86 37.946a11.553 11.553 0 0 1 0-6.364v6.364z" fill="#60a620"/><path d="M51.844 31.583V16.246c0-1.434-.787-2.53-1.77-3.536L39.1 1.466c-.804-.82-1.687-1.546-2.94-1.44C29.34.06 22.492.04 15.695.003 14.346-.06 13.497.8 12.643 1.65 9.05 5.32 5.064 8.998 1.5 12.692a4.458 4.458 0 0 0-1.495 3.542l.028 7.646v13.8a5.251 5.251 0 0 0 1.124 2.935q10.738 15.74 21.447 31.454c2.66 3.9 4.06 3.935 6.7.056q10.75-15.74 21.442-31.482c.562-.8 1.124-1.62 1.124-2.682a26.484 26.484 0 0 1-.017-6.37zm-22.487 13.06c-5.268.708-10.608.163-16.163.26V13.773c0-.444.253-.472.855-.67a32.505 32.505 0 0 1 3.654-.95c6.375-1.355 10.192-1.54 16.905-.343a39.122 39.122 0 0 1 4.003.855l-1.585 5.273a40.157 40.157 0 0 0-17.731-.157v20.975c3.418 0 6.864.495 10.26-.388a6.443 6.443 0 0 0 4.531-3.868c1.124-2.755.23-4.756-2.575-5.695-2.485-.832-5.06-.703-7.6-.517-.63.045-1.26.152-2.007.248-.084-1.653-.096-3.182-.135-4.863 4.756-.838 9.377-1.124 13.92.562 3.53 1.332 5.268 3.907 5.28 7.663.017 6.65-4.42 11.778-11.632 12.745z" fill="#63a825"/><path d="M51.282 19.563a1.462 1.462 0 0 1 0 1.512c-.275-.607-.35-1.04 0-1.512z" fill="#61a822"/></svg>