<svg xmlns="http://www.w3.org/2000/svg" xmlns:xlink="http://www.w3.org/1999/xlink" width="96" height="64" viewBox="0 0 96 64"><defs><rect id="A" width="96" height="64" rx="5"/></defs><g fill-rule="evenodd"><mask id="B" fill="#fff"><use xlink:href="#A"/></mask><g mask="url(#B)" fill="#eb6f93"><path d="M0 0h96v64H0z"/></g><g fill-rule="nonzero" fill="#fff"><path d="M30.204 44H27.35c0 2.332-1.075 4.46-2.945 5.863l-1.127.84 4.38 5.94h3.598l-4.033-5.468c1.907-1.885 2.98-4.435 2.98-7.175zM20 44h2.92v12.643H20zm12.1 0h2.753v12.643H32.1zM59 47.658c-1.05 0-2.05.32-2.714 1.224v-.98h-2.612v8.743h2.65v-4.588c0-1.325.896-1.975 1.972-1.975 1.152 0 1.818.688 1.818 1.963v4.614h2.625v-5.57c0-2.04-1.626-3.428-3.74-3.428zm-15.826.242v.56c-.743-.5-1.64-.803-2.612-.803-2.56 0-4.635 2.065-4.635 4.614s2.074 4.614 4.635 4.614c.973 0 1.87-.293 2.612-.803v.56H45.8V47.9h-2.625zm-2.394 6.615c-1.32 0-2.38-1.007-2.38-2.243s1.063-2.243 2.38-2.243 2.38 1.007 2.38 2.243-1.063 2.243-2.38 2.243zm9.1-5.48V47.9h-2.7v8.743h2.702v-4.078c0-1.376 1.498-2.116 2.535-2.116h.026V47.9c-1.063 0-2.05.46-2.574 1.134zM70.907 47.9v.56c-.743-.5-1.64-.803-2.612-.803-2.56 0-4.635 2.065-4.635 4.614s2.074 4.614 4.635 4.614c.973 0 1.87-.293 2.612-.803v.56h2.625V47.9h-2.625zm-2.394 6.615c-1.32 0-2.38-1.007-2.38-2.243s1.063-2.243 2.38-2.243 2.38 1.007 2.38 2.243c.013 1.236-1.063 2.243-2.38 2.243zm7.823-.97a1.66 1.66 0 0 0-1.652 1.644c0 .904.743 1.644 1.652 1.644s1.652-.74 1.652-1.644c0-.918-.743-1.644-1.652-1.644zm-31.786-23.8a1.73 1.73 0 0 1 .032 2.438l-.132.14c-.66.675-1.752.692-2.44.03l-3.84-3.804c-1.057-1.06-1.2-2.37-.536-3.06l.135-.14a1.57 1.57 0 0 1 2.09-.135.69.69 0 1 0 .855-1.085 2.95 2.95 0 0 0-3.939.262l-.134.14c-1.246 1.28-.996 3.437.555 4.994l3.85 3.814a3.12 3.12 0 0 0 4.399-.06l.136-.142c1.182-1.226 1.156-3.18-.06-4.377a.69.69 0 1 0-.969.984zM42.253 9.122l1.57 12.923a.69.69 0 1 0 1.372-.167l-1.6-13.046c-.27-1.075.4-2.28 1.3-2.47a1.91 1.91 0 0 1 1.446.272 1.9 1.9 0 0 1 .82 1.221l2.736 11.7a.69.69 0 1 0 1.345-.314L48.5 7.565a3.29 3.29 0 0 0-1.4-2.083 3.29 3.29 0 0 0-2.495-.47c-1.675.357-2.775 2.32-2.353 4.1z"/><path d="M56.695 24.308l3.107-15.5a3.28 3.28 0 0 0-2.277-3.831c-1.844-.466-3.7.62-4.173 2.43l-3.44 11.787a.69.69 0 1 0 1.326.386l3.444-11.803c.3-1.094 1.393-1.742 2.476-1.468.927.276 1.5 1.246 1.3 2.218l-3.1 15.5a.69.69 0 0 0 1.355.271zM48.87 39.232c-4.925 0-9.04-3.613-9.04-8.747a.69.69 0 1 0-1.382 0c0 5.94 4.77 10.127 10.42 10.127a.69.69 0 1 0 0-1.381zm-2.437-12.075a1.71 1.71 0 0 1-.679.951l-.148.098c-.795.534-1.87.327-2.406-.462l-3.02-4.495c-.824-1.25-.716-2.566.077-3.1l.148-.098c1.017-.6 1.882-.142 2.77 1.15l2.526 3.76a.69.69 0 1 0 1.147-.769l-2.53-3.766c-1.25-1.82-2.797-2.62-4.644-1.547l-.192.126c-1.485 1.018-1.662 3.184-.453 5.018l3.026 4.503a3.12 3.12 0 0 0 4.319.836l.153-.102c.607-.417 1.042-1.025 1.236-1.725a.69.69 0 1 0-1.331-.369z"/><path d="M51.007 29.444c-1.435.8-2.328 2.3-2.44 4.592a.69.69 0 1 0 1.38.067c.1-2.067.904-3.183 2.204-3.672.696-.262 1.452-.314 2.12-.243l.173.023c.9.166 1.16-1.155.277-1.352l-5.312-1.186c-2.487-.68-2.862-1.6-2.4-3.134.2-.668.607-1.01 1.223-1.148.407-.1.863-.08 1.298-.003l.253.054 8.064 1.882a.61.61 0 0 1 .157.051c.133.06.272.157.408.302.54.577.84 1.666.688 3.454-.526 6.27-3.45 10.162-10.378 10.1a.69.69 0 0 0-.012 1.381c7.787.068 11.188-4.46 11.767-11.366.18-2.15-.222-3.623-1.056-4.513-.46-.49-.945-.7-1.317-.765l-7.973-1.862c-.05-.015-.185-.047-.362-.078-.598-.105-1.227-.12-1.836.015-1.08.24-1.897.926-2.247 2.1-.665 2.214.045 3.953 3.392 4.868l1.93.43z"/></g></g></svg>