<svg xmlns="http://www.w3.org/2000/svg" viewBox="0 0 180 63.97"><path d="M173.447 21.842a3.39 3.39 0 0 0-3.297 3.238 3.42 3.42 0 0 0 3.389 3.539 3.39 3.39 0 1 0-.092-6.777zm.104.578a2.67 2.67 0 0 1 2.559 2.721 2.64 2.64 0 0 1-2.559 2.709 2.72 2.72 0 0 1 0-5.43zm.242 1.123a1.34 1.34 0 0 0-.133.008h-1.28v3.12h.7v-1.28h.52l.46 1.23h.77l-.57-1.38a.79.79 0 0 0 .52-.77.85.85 0 0 0-.359-.771 1.34 1.34 0 0 0-.637-.156zm-.232.666a1.18 1.18 0 0 1 .35.051.37.37 0 0 1 .15.311.41.41 0 0 1-.15.359 1.05 1.05 0 0 1-.41 0h-.416l-.004.05v-.05h.004l.057-.72h.36a1.18 1.18 0 0 1 .061-.002zM121.68 1.43l-.93 6.05A10.22 10.22 0 0 0 115.67 6c-4.2 0-7.18 4.3-7.18 10.42 0 4.2 2 6.77 5.3 6.77a10.81 10.81 0 0 0 4.82-1.44l-1 6.36a16.25 16.25 0 0 1-5 .82c-6.1 0-9.9-4.62-9.9-12C102.7 7 107.93 0 115.47 0a9.25 9.25 0 0 1 2.56.31l2.36.6 1.3.52zM102.85 5.6a2 2 0 0 0-.56-.05c-1.85 0-2.93 1-4.67 3.7l.5-3.43H93l-3.5 22.62h5.7c2.05-13.85 2.56-16.2 5.28-16.2h.4a22.52 22.52 0 0 1 2.15-6.57h-.2zm-33.9 22.5a12.56 12.56 0 0 1-4 .77c-2.87 0-4.46-1.74-4.46-5a15.35 15.35 0 0 1 .15-2l.36-2.2.26-1.8L63.7 2.44h5.6l-.67 3.34h2.93l-.82 5.48h-2.87l-1.5 9.44-.1.93c0 1.18.6 1.7 1.94 1.7a4.14 4.14 0 0 0 1.54-.21l-.82 5zM46.58 12.93c0 2.87 1.33 4.82 4.3 6.3 2.25 1.12 2.66 1.48 2.66 2.5 0 1.38-1 2-3.23 2a14.18 14.18 0 0 1-5.08-.92l-.77 5.23h.26l1 .2 1.48.2 3.13.2c6 0 8.72-2.4 8.72-7.54a6.19 6.19 0 0 0-4-6.31c-2.36-1.13-2.6-1.4-2.6-2.46 0-1.24.92-1.85 2.77-1.85a30.39 30.39 0 0 1 4 .36l.82-5.23a34.75 34.75 0 0 0-5-.47c-6.4 0-8.6 3.44-8.56 7.65zM165.53.47l-1.23 8c-1.6-2.07-3.232-3.07-5.432-3.07-5.04 0-9.238 6.36-9.238 13.9 0 5.64 2.72 9.38 6.88 9.38a6.57 6.57 0 0 0 5.23-2.51l-.26 2.2h5.4l-.012-.04L171.13.47h-5.602zm-5.5 10.5c1.92 0 3 1.6 3 4.46 0 4.5-1.832 7.625-4.482 7.64l-.018.002c-1.903-.01-2.9-1.508-2.9-4.5 0-4.42 1.84-7.6 4.4-7.6zM81.3 5.16c-5.7 0-9.9 5.7-9.9 13.5 0 6.66 3.35 10.16 9.65 10.16a19 19 0 0 0 5.85-.92l.07-.04.87-5.6a13.24 13.24 0 0 1-5.9 1.439c-3.3 0-5-1.33-5-4a3.59 3.59 0 0 1 .06-.719h11.23a25 25 0 0 0 .77-5.56c0-5.03-3-8.26-7.7-8.26zm-.25 5.2c1.67 0 2.67 1.08 2.67 2.93a10.12 10.12 0 0 1 0 1.121l-6.27-.05c.52-2.56 1.932-4 3.602-4zM23.8 28.37h-5.64l3.23-21.4-7.28 21.4h-3.85L9.8 7.13 6.36 28.37H1.08L5.5.56h8.15l.2 17.24L19.4.56h8.82l-4.4 27.8zM37.16 5.23a21.89 21.89 0 0 0-6.77 1.23l-.77 5.078.5-.148.72-.26a16.91 16.91 0 0 1 4.721-.67c2.64 0 3.64.56 3.64 2.06A7.16 7.16 0 0 1 39 14a19.8 19.8 0 0 0-2.18-.15c-6.3 0-10 3.18-10 8.72 0 3.64 2.1 6.16 5.18 6.16A6.85 6.85 0 0 0 37.9 26l-.1 2.36h4.72l.08.04v-.57l.1-.82.102-1.15 1.34-9.5a30.33 30.33 0 0 0 .459-4.51c0-4.32-2.57-6.62-7.44-6.62zm-.02 12.97l1.28.102v.05c-.1 3.35-1.8 5.65-4.05 5.65a2.07 2.07 0 0 1-2.049-2.359c0-2.26 1.6-3.44 4.82-3.44zM130.2 5.17a21.89 21.89 0 0 0-6.77 1.23l-.77 5.08.5-.15.82-.2a17 17 0 0 1 4.719-.67c2.64 0 3.64.56 3.64 2.06a7.16 7.16 0 0 1-.199 1.48 20.5 20.5 0 0 0-2.311-.15c-6.3 0-10 3.18-10 8.72 0 3.64 2.1 6.16 5.18 6.16a6.84 6.84 0 0 0 6-2.73l-.15 2.36h4.73v-.72l.1-.77.15-1.13.16-1.44 1.18-8a30.33 30.33 0 0 0 .461-4.512c0-4.32-2.57-6.62-7.44-6.62zm0 13.03l1.28.102v.04c-.1 3.35-1.802 5.65-4.102 5.65a2.07 2.07 0 0 1-2.049-2.35c0-2.26 1.64-3.44 4.87-3.44zm21.24-12.6a2 2 0 0 0-.57-.05c-1.84 0-2.92 1-4.66 3.7l.5-3.43h-5.13l-3.5 22.62h5.7c2.06-13.85 2.57-16.2 5.3-16.2h.4a24.11 24.11 0 0 1 2.15-6.57h-.2z" fill="#c00"/><path d="M125.13 40.22c-6.1 0-10 5.38-10 13.34 0 5.7 2.36 10.36 8.1 10.36s10.06-4.1 10.06-13.55h-.06c0-5.7-2.82-10.148-8.1-10.148zm-.32 5.6c2.1 0 2.83 2.2 2.83 4.56l-.01-.02c0 5.13-1.602 8.16-4.102 8.16-1.84 0-2.92-2-2.92-5 0-3.6 1.64-7.7 4.2-7.7zm-7.96-9.5l-.85 6.05a9.08 9.08 0 0 0-4.72-1.49c-4 0-6.72 4.3-6.72 10.42 0 4.2 1.85 6.77 4.93 6.77a9.28 9.28 0 0 0 4.51-1.44l-.94 6.37a14.37 14.37 0 0 1-4.72.82c-5.7 0-9.3-4.6-9.3-12 0-10 4.93-16.93 12-16.93a7.85 7.85 0 0 1 2.36.31l2.15.62a4.5 4.5 0 0 1 1.33.51zm-35.03 4.1a2 2 0 0 0-.57 0c-1.74 0-2.7 1-4.36 3.7l.52-3.43h-4.77L69.4 63.25h5.3C76.6 49.4 77.1 47 79.6 47a1.43 1.43 0 0 1 .41 0 24.33 24.33 0 0 1 2-6.57l-.2-.1zm67.98-5.28l-1.17 8C147.2 41 145.55 40 143.55 40c-4.62 0-8.62 6.36-8.62 13.9 0 5.66 2.55 9.4 6.4 9.4a6 6 0 0 0 4.93-2.51L146 63h5l4-27.86h-5.2zm-5.27 10.47c1.82 0 2.82 1.54 2.82 4.42 0 4.5-1.7 7.64-4.2 7.64-1.8 0-2.72-1.46-2.72-4.46 0-4.47 1.7-7.602 4.1-7.602zM27 40.2c-5.3 0-9.25 5.8-9.27 13.5 0 6.67 3.1 10.148 9 10.148a16.22 16.22 0 0 0 5.43-.92h-.03L33 57.3a11.62 11.62 0 0 1-5.4 1.469c-3.07 0-4.67-1.38-4.67-4a4.25 4.25 0 0 1 0-.709h10.53a27.74 27.74 0 0 0 .658-5.59c0-5.08-2.77-8.26-7.13-8.26zm-.3 5.18c1.58 0 2.5 1.07 2.5 2.92 0 .26-.05.67-.05 1.13l-5.85-.05c.52-2.57 1.818-4 3.398-4zm63.23-5.18c-5.23 0-9.23 5.75-9.23 13.5 0 6.67 3 10.148 9 10.148a16.27 16.27 0 0 0 5.439-.92h-.02L96 57.3a11.59 11.59 0 0 1-5.41 1.469c-3.07 0-4.67-1.38-4.67-4a4.25 4.25 0 0 1 0-.709h10.54a27.74 27.74 0 0 0 .658-5.59c0-5.08-2.82-8.26-7.18-8.26zm-.3 5.18c1.58 0 2.5 1.07 2.5 2.92a10.2 10.2 0 0 1 0 1.129l-5.9-.05c.53-2.57 1.82-4 3.4-4zm74.2-5.18c-5.33 0-9.28 5.75-9.28 13.5 0 6.67 3.1 10.148 9 10.148a16.65 16.65 0 0 0 5.43-.92h.02l.94-5.6a11.56 11.56 0 0 1-5.48 1.43c-3.07 0-4.67-1.38-4.67-4a4.25 4.25 0 0 1 0-.709h10.5a27.13 27.13 0 0 0 .67-5.59c0-5.08-2.77-8.26-7.13-8.26zm-.35 5.17c1.58 0 2.5 1.07 2.5 2.92v1.14l-5.9-.06c.52-2.57 1.82-4 3.4-4zM16.47 41.44a7.54 7.54 0 0 0-4.42-1.28c-2.15 0-3.84.46-3.84 2.7 0 4 7.8 2.52 7.8 11.12 0 7.84-5.13 9.9-9.8 9.9A15.79 15.79 0 0 1 0 62.43l1.28-5.75a8.12 8.12 0 0 0 5 1.64c1.7 0 4.26-.46 4.26-3.38 0-4.57-7.8-2.87-7.8-10.88 0-7.33 4.56-9.5 9-9.5 2.46 0 4.82.36 6.15 1.3l-1.38 5.6zm31.18 21.5a10.84 10.84 0 0 1-4.71.87c-4.62 0-7.5-4.6-7.5-10.26 0-7.38 4.15-13.23 10.26-13.23a11.09 11.09 0 0 1 5 1.49l-1.2 5.38A6.3 6.3 0 0 0 46 46c-2.82 0-4.87 2.62-4.87 7.23 0 2.67 1.5 4.88 3.8 4.88a6.54 6.54 0 0 0 3.54-1l-.77 5.85zm19.8-5.7l-.67 5.84h-5.1l.4-3.64c-1.6 2.47-3.23 4.16-6.16 4.16-3.18 0-4.92-3.4-4.92-7.75a30.94 30.94 0 0 1 .41-4.72l1.44-10.46h5.7L57 51.2a25.86 25.86 0 0 0-.36 3.44c0 1.33.62 2.67 2.16 2.57 2.3 0 3.7-2.83 4.1-6.16l1.6-10.36H70l-2.54 16.57zm106.85 5.6h-.88V59.1h-1.23v-.82h3.34v.82h-1.23v3.75zm5.7 0h-.82v-3.8l-.77 3.8h-.82l-.77-3.8v3.8h-.8v-4.57h1.28l.72 3.6h.05l.72-3.6h1.2v4.57z" fill="#f90"/></svg>