<svg xmlns="http://www.w3.org/2000/svg" viewBox="0 0 307.143 75" height="75" width="308"><path d="M114.846 16.773H97.85a2.36 2.36 0 0 0-2.334 1.993L88.642 62.35c-.137.86.53 1.635 1.402 1.635h8.114a2.36 2.36 0 0 0 2.334-1.996l1.854-11.755a2.36 2.36 0 0 1 2.331-1.996h5.38c11.196 0 17.658-5.418 19.345-16.154.76-4.697.032-8.388-2.167-10.972-2.416-2.838-6.7-4.34-12.4-4.34zm1.96 15.918c-.93 6.1-5.6 6.1-10.095 6.1h-2.565l1.8-11.4c.107-.688.703-1.195 1.4-1.195h1.176c3.07 0 5.965 0 7.46 1.75.892 1.044 1.166 2.595.825 4.737zm48.846-.196h-8.14a1.42 1.42 0 0 0-1.399 1.195l-.36 2.276-.57-.825c-1.762-2.557-5.7-3.412-9.613-3.412-8.994 0-16.676 6.812-18.172 16.368-.778 4.767.328 9.325 3.032 12.503 2.48 2.923 6.03 4.14 10.252 4.14 7.247 0 11.266-4.66 11.266-4.66l-.363 2.262c-.137.865.53 1.64 1.397 1.64h7.332a2.36 2.36 0 0 0 2.334-1.996l4.4-27.857a1.41 1.41 0 0 0-1.394-1.635zm-11.345 15.84c-.785 4.65-4.476 7.77-9.183 7.77-2.363 0-4.252-.758-5.465-2.194-1.203-1.427-1.66-3.457-1.277-5.72.733-4.6 4.486-7.834 9.12-7.834 2.3 0 4.2.768 5.428 2.217 1.24 1.464 1.732 3.507 1.377 5.758zM209 32.495h-8.18a2.37 2.37 0 0 0-1.956 1.036l-11.28 16.616-4.782-15.968a2.37 2.37 0 0 0-2.267-1.685H172.5a1.42 1.42 0 0 0-1.345 1.874l9 26.438-8.47 11.957A1.42 1.42 0 0 0 172.849 75h8.17c.775 0 1.5-.378 1.94-1.014l27.204-39.267A1.42 1.42 0 0 0 209 32.495z" fill="#253b80"/><path d="M236.08 16.773h-17a2.36 2.36 0 0 0-2.331 1.993l-6.874 43.584c-.137.86.53 1.635 1.397 1.635h8.723a1.66 1.66 0 0 0 1.63-1.397l1.95-12.354a2.36 2.36 0 0 1 2.331-1.996h5.378c11.2 0 17.658-5.418 19.348-16.154.763-4.697.03-8.388-2.17-10.972-2.413-2.838-6.695-4.34-12.384-4.34zm1.96 15.918c-.927 6.1-5.587 6.1-10.095 6.1h-2.562l1.802-11.4a1.41 1.41 0 0 1 1.397-1.195h1.176c3.067 0 5.965 0 7.46 1.75.892 1.044 1.163 2.595.823 4.737zm48.843-.196h-8.134a1.41 1.41 0 0 0-1.397 1.195l-.36 2.276-.572-.825c-1.762-2.557-5.7-3.412-9.6-3.412-8.994 0-16.674 6.812-18.17 16.368-.775 4.767.326 9.325 3.03 12.503 2.485 2.923 6.03 4.14 10.252 4.14 7.247 0 11.266-4.66 11.266-4.66l-.363 2.262c-.137.865.53 1.64 1.402 1.64h7.33a2.36 2.36 0 0 0 2.331-1.996l4.4-27.857a1.42 1.42 0 0 0-1.404-1.635zm-11.345 15.84c-.78 4.65-4.476 7.77-9.183 7.77-2.358 0-4.252-.758-5.465-2.194-1.203-1.427-1.655-3.457-1.277-5.72.738-4.6 4.486-7.834 9.12-7.834 2.3 0 4.2.768 5.428 2.217 1.245 1.464 1.737 3.507 1.377 5.758zm20.94-30.367l-6.976 44.382c-.137.86.53 1.635 1.397 1.635h7.013a2.36 2.36 0 0 0 2.334-1.996l6.88-43.58a1.42 1.42 0 0 0-1.397-1.638h-7.853a1.42 1.42 0 0 0-1.397 1.198z" fill="#179bd7"/><path d="M18.058 72.455l1.3-8.256-2.895-.067H2.637l9.608-60.92c.03-.184.127-.355.268-.477s.323-.19.512-.19h23.312c7.74 0 13.08 1.6 15.868 4.79 1.307 1.49 2.14 3.05 2.542 4.764.422 1.8.43 3.95.017 6.57l-.03.19v1.68l1.307.74c1.1.584 1.976 1.253 2.647 2.018 1.118 1.275 1.842 2.895 2.147 4.816.316 1.976.21 4.327-.306 6.99-.596 3.062-1.56 5.73-2.863 7.91-1.198 2.01-2.724 3.678-4.536 4.97-1.73 1.228-3.785 2.16-6.11 2.756-2.252.587-4.82.882-7.635.882h-1.814a5.5 5.5 0 0 0-3.546 1.305c-.992.855-1.648 2.023-1.85 3.3l-.137.743-2.296 14.55-.104.534c-.027.17-.075.254-.144.31-.062.052-.152.087-.24.087z" fill="#253b80"/><path d="M57.28 19.054l-.24 1.367C53.967 36.205 43.45 41.658 30.017 41.658h-6.84a3.32 3.32 0 0 0-3.283 2.813L15.4 72.975a1.75 1.75 0 0 0 1.727 2.023h12.13a2.92 2.92 0 0 0 2.883-2.46l.12-.616 2.284-14.494.147-.795c.224-1.422 1.446-2.465 2.883-2.465h1.814c11.753 0 20.953-4.772 23.642-18.58 1.123-5.768.542-10.585-2.43-13.972-.9-1.02-2.016-1.87-3.32-2.56z" fill="#179bd7"/><path d="M54.064 17.772l-1.45-.373-1.538-.29c-1.844-.298-3.865-.44-6.03-.44H26.774a2.9 2.9 0 0 0-1.26.286c-.843.405-1.47 1.203-1.62 2.18l-4 25.337a3.32 3.32 0 0 1 3.283-2.813h6.84c13.433 0 23.95-5.455 27.025-21.236.092-.467.17-.922.24-1.367-.778-.413-1.62-.765-2.528-1.066-.224-.075-.455-.147-.688-.216z" fill="#222d65"/><path d="M23.893 19.134c.152-.977.778-1.774 1.62-2.177a2.91 2.91 0 0 1 1.26-.286h18.272c2.165 0 4.185.142 6.03.44l1.538.29 1.45.373.69.214c.907.3 1.75.656 2.528 1.066.915-5.833-.008-9.804-3.16-13.4C50.644 1.695 44.37 0 36.34 0H13.028a3.33 3.33 0 0 0-3.293 2.816l-9.7 61.547C-.167 65.58.773 66.68 2 66.68h14.392l3.614-22.926z" fill="#253b80"/></svg>