<svg xmlns="http://www.w3.org/2000/svg" viewBox="0 0 780.81 244.49"><path d="M605.3 46.26C601.22 57.34 593.9 64.2 580 64.2h-7.2L585 30.66h7c12.8 0 17.6 3.8 13.25 15.6m36.92-30.6c-6.25-9.1-19-13.57-38.94-13.6H557.1l-50 138.57h42.44l18.15-48.78c.9 2 11.6 48.78 11.6 48.78h44.6s-8.1-34.37-14.08-48.26a75.88 75.88 0 0 0-5.27-10.9C617.18 76.74 635.44 66.6 643 46c4.65-12.65 4.38-22.86-.78-30.36M215.85 2H137.2c-12.4 0-24.45 0-35.2 5.5S81.62 24.1 74.3 46.25a43.9 43.9 0 0 0-2.54 12.42 18.72 18.72 0 0 0 1.84 9.25 26.79 26.79 0 0 0 7.67 8.81 38 38 0 0 0 11.68 6l5.18 1.5q4 1.16 8 2.37a15.93 15.93 0 0 1 3.68 1.56 7.38 7.38 0 0 1 2.92 3 6.77 6.77 0 0 1 .7 2.86 9.41 9.41 0 0 1-.55 3.31c-1 3-2.53 5-5.44 6.14s-7.2 1.53-13.68 1.53H12.8L0 140.54h86.65c8.15 0 23.06 0 37.38-6.15s28.07-18.43 33.88-43c2.2-9.24 1.52-16.76-2.07-22.67s-10.1-10.2-19.56-13l-4.6-1.34-6.82-2a9.12 9.12 0 0 1-5.38-3.92 7.76 7.76 0 0 1-.81-6.22 9.08 9.08 0 0 1 4.49-5.45 18.09 18.09 0 0 1 8.77-2h50.37c.35-.52.67-1.08 1-1.6A111.83 111.83 0 0 1 215.85 2m36.95 68.62c-11.75 32.5-20.3 40.68-33.13 40.68-12.52 0-16.9-8-5.2-40.35 8.74-24.15 20.07-39.6 33.76-39.6 13 0 16 7.64 4.57 39.27M293.15 15c-6.86-9.95-18.6-15-34.9-15a71.18 71.18 0 0 0-30.77 7.11c-13.9 6.64-26.47 17.72-36.78 32.43a141.81 141.81 0 0 0-16.88 33c-8.45 23.36-8.35 42.3.3 54.8 4.9 7.06 15.06 15.5 35.75 15.5h.08c37.7 0 65.83-25 83.65-74.16 4.7-13 10.9-37.32-.43-53.72M443.75 2h-80.17c-22.4 0-39.1 11.45-47 32.9l-38.05 105.65h41.7L339.8 86.2h36.86l10.5-29.1H350.4l5.92-16.85a8.83 8.83 0 0 1 8.5-5.42h43.46c.36-.52.7-1.1 1-1.6C418.53 20.13 431.55 9.5 443.75 2m36.47 68.64c-11.75 32.5-20.3 40.68-33.13 40.68-12.52 0-16.9-8-5.18-40.35 8.73-24.15 20.06-39.6 33.76-39.6 13 0 16 7.64 4.56 39.27M520.57 15C513.7 5.05 502 0 485.64 0a71.08 71.08 0 0 0-30.74 7.11c-13.9 6.64-26.5 17.72-36.8 32.43a141 141 0 0 0-16.88 33c-8.45 23.36-8.35 42.3.3 54.8 4.88 7.06 15.05 15.5 35.76 15.5 37.7 0 65.85-25 83.65-74.16 4.72-13 10.92-37.32-.42-53.72m123.6-12.9a34.2 34.2 0 0 1 6.9 7.39c4.93 7.18 6.82 15.72 5.7 25.5H682l-38.08 105.7H682L720.07 35H769l11.86-32.9z" fill="#ee7f00"/><path d="M68.82 161.7a11 11 0 0 1-3.36 5.21q-2 1.5-6 1.5c-2.7 0-4.36-.48-4.94-1.44s-.44-2.62.42-5a11.08 11.08 0 0 1 3.34-5.24q2-1.45 6-1.46 4-.01 5 1.4.92 1.4-.4 5.07m-23 0a11 11 0 0 1-3.33 5.21q-2 1.5-6 1.5c-2.7 0-4.35-.48-5-1.44s-.47-2.62.4-5a11 11 0 0 1 3.36-5.24q2-1.45 6-1.46c2.74 0 4.4.47 5 1.4s.45 2.63-.43 5.07m12.32 55.94A45 45 0 0 1 52.21 229 36.41 36.41 0 0 1 33 242.68a43.28 43.28 0 0 1-12.75 1.81 32.35 32.35 0 0 1-11-1.63A13.79 13.79 0 0 1 2.44 238 14.45 14.45 0 0 1 0 229.73a33 33 0 0 1 2.28-11.5l15.08-41.84a2.44 2.44 0 0 1 .66-1 3.53 3.53 0 0 1 1.39-.69 14 14 0 0 1 2.28-.42 29.19 29.19 0 0 1 3.42-.17 25.72 25.72 0 0 1 3.26.17 9 9 0 0 1 2 .42 1.54 1.54 0 0 1 .88.69 1.32 1.32 0 0 1 0 1L16.58 217a23.19 23.19 0 0 0-1.58 7.1 9 9 0 0 0 1.08 5 7.13 7.13 0 0 0 3.4 3 13.57 13.57 0 0 0 5.52.9 18.75 18.75 0 0 0 6.2-1 18.19 18.19 0 0 0 5.44-3 22.38 22.38 0 0 0 4.49-4.78 27.44 27.44 0 0 0 3.3-6.46l14.92-41.4a2.44 2.44 0 0 1 .66-1 3.6 3.6 0 0 1 1.36-.69 13.61 13.61 0 0 1 2.28-.42 29.55 29.55 0 0 1 3.4-.17 25.48 25.48 0 0 1 3.24.17 8.88 8.88 0 0 1 1.92.42 1.34 1.34 0 0 1 .85.69 1.28 1.28 0 0 1 0 1zm59.66-24a10.17 10.17 0 0 0 .7-3.71 4.37 4.37 0 0 0-.9-2.74 5.56 5.56 0 0 0-2.58-1.68 16.37 16.37 0 0 0-4.93-.58h-7l-6.43 17.86h7.74a15.32 15.32 0 0 0 5-.72 13 13 0 0 0 3.68-2 13.42 13.42 0 0 0 2.82-2.91 15 15 0 0 0 1.86-3.55m-7.1 29.46a10.87 10.87 0 0 0 .75-4.28 5.29 5.29 0 0 0-1.17-3.16 6.79 6.79 0 0 0-3.19-2 19.63 19.63 0 0 0-5.91-.69H93l-7 19.56h10a18.86 18.86 0 0 0 5-.59 14.68 14.68 0 0 0 4.09-1.81 14.43 14.43 0 0 0 3.33-3 13.54 13.54 0 0 0 2.28-4.06m14.54-.48a28.33 28.33 0 0 1-3.4 6.65 29.13 29.13 0 0 1-4.66 5.26 30.33 30.33 0 0 1-5.62 3.93 36.17 36.17 0 0 1-6.38 2.71 41.21 41.21 0 0 1-6.85 1.57 53.27 53.27 0 0 1-7.63.51H72.6a3 3 0 0 1-2.56-1.05c-.54-.68-.52-1.8 0-3.37l21.62-60a6.66 6.66 0 0 1 2.4-3.38 5.94 5.94 0 0 1 3.29-1h17.14a40.44 40.44 0 0 1 10.22 1.06 13.55 13.55 0 0 1 6.16 3.23 8.78 8.78 0 0 1 2.58 5.44 17 17 0 0 1-1.21 7.76 22.94 22.94 0 0 1-2.33 4.71 23.36 23.36 0 0 1-3.28 4 24.58 24.58 0 0 1-4.12 3.2 23.78 23.78 0 0 1-4.83 2.22 12.83 12.83 0 0 1 4.67 1.87 9.07 9.07 0 0 1 3 3.43 11.13 11.13 0 0 1 1.1 4.91 18.14 18.14 0 0 1-1.23 6.33m50.9 15.16l-1.06 2.57a9.06 9.06 0 0 1-1 1.67 3.52 3.52 0 0 1-1 .93 1.89 1.89 0 0 1-1 .3h-34.16a3 3 0 0 1-2.54-1c-.55-.7-.54-1.8 0-3.38l21.62-60a6.49 6.49 0 0 1 2.39-3.37 5.9 5.9 0 0 1 3.3-1h34a1 1 0 0 1 .74.27 1.32 1.32 0 0 1 .31.92 6.64 6.64 0 0 1-.22 1.71 22.24 22.24 0 0 1-.82 2.63l-1 2.53a9.41 9.41 0 0 1-1 1.67 3.78 3.78 0 0 1-1 .93 1.72 1.72 0 0 1-1 .3h-24.25l-6 16.8H183a1.06 1.06 0 0 1 .76.28 1.46 1.46 0 0 1 .34.91 6.35 6.35 0 0 1-.21 1.65 22.14 22.14 0 0 1-.77 2.52 26.28 26.28 0 0 1-1.06 2.55 8.62 8.62 0 0 1-1 1.63 3.51 3.51 0 0 1-1 .88 2 2 0 0 1-1 .27h-20.5l-7 19.4h24.52a1.06 1.06 0 0 1 .77.29 1.32 1.32 0 0 1 .31.93 6 6 0 0 1-.2 1.68c-.17.68-.43 1.55-.8 2.58m64.93-43a9.31 9.31 0 0 0 .55-5.74c-.45-1.56-1.73-2.65-3.82-3.3a15.26 15.26 0 0 0-2.24-.42 30.7 30.7 0 0 0-3.65-.16h-6.2l-7 19.5h7.06a18.88 18.88 0 0 0 5.41-.72 15.63 15.63 0 0 0 4.41-2 13.58 13.58 0 0 0 3.34-3.12 14.64 14.64 0 0 0 2.18-4m1 46.68a3 3 0 0 1-.57 1 2.67 2.67 0 0 1-1.24.67 11.92 11.92 0 0 1-2.45.38q-1.56.1-4.2.1c-1.47 0-2.63 0-3.5-.1a6.39 6.39 0 0 1-1.93-.41 1.36 1.36 0 0 1-.81-.74 3.26 3.26 0 0 1-.13-1.09l-.56-15.37-.5-4.63a10 10 0 0 0-1.12-3.37 5.14 5.14 0 0 0-2.24-2 8.45 8.45 0 0 0-3.65-.7h-4.32l-9.44 26.2a2.27 2.27 0 0 1-.69 1 3.86 3.86 0 0 1-1.38.69 13.21 13.21 0 0 1-2.26.43 32.37 32.37 0 0 1-3.42.15 29.05 29.05 0 0 1-3.28-.15 8.66 8.66 0 0 1-2-.43 1.37 1.37 0 0 1-.86-.69 1.33 1.33 0 0 1 0-1l22.5-62.47a6.5 6.5 0 0 1 2.4-3.37 5.85 5.85 0 0 1 3.29-1h17.64l4.38.1 3.06.27a21.29 21.29 0 0 1 6.67 2 10.66 10.66 0 0 1 4.23 3.76 10.52 10.52 0 0 1 1.53 5.46 20.64 20.64 0 0 1-1.41 7.26 29 29 0 0 1-3.14 6.31 26.48 26.48 0 0 1-4.38 5.07 28.36 28.36 0 0 1-5.56 3.89 33.37 33.37 0 0 1-6.59 2.65 9.41 9.41 0 0 1 2.21 1.81 8.75 8.75 0 0 1 1.6 2.58 16.11 16.11 0 0 1 1 3.45 35.16 35.16 0 0 1 .47 4.4l.86 13.55v2.94a5.83 5.83 0 0 1-.26 1.47m86.07-1.76a8.87 8.87 0 0 1-1.61 2.05 5.33 5.33 0 0 1-2.08 1.17 13.2 13.2 0 0 1-3 .54l-4.47.13c-2 0-3.6 0-4.76-.13a8.43 8.43 0 0 1-2.68-.54 1.76 1.76 0 0 1-1.11-1.17 5.35 5.35 0 0 1 0-2.05l4.82-43.6h-.1l-26 43.6a9.49 9.49 0 0 1-1.45 2 4.91 4.91 0 0 1-1.93 1.2 10.91 10.91 0 0 1-3 .56c-1.2.1-2.77.14-4.7.14s-3.64 0-4.82-.14a8.26 8.26 0 0 1-2.68-.53 1.76 1.76 0 0 1-1.1-1.17 5.83 5.83 0 0 1-.05-2.05l6.15-60a17 17 0 0 1 .56-3 3 3 0 0 1 1.21-1.68 5.22 5.22 0 0 1 2.42-.71c1-.1 2.44-.14 4.22-.14l3.9.08a6.47 6.47 0 0 1 2.05.37 1.08 1.08 0 0 1 .69.86 5 5 0 0 1-.14 1.56l-7 52.7h.06l31.27-52.32a8.66 8.66 0 0 1 1.15-1.64 3.57 3.57 0 0 1 1.5-1 9.73 9.73 0 0 1 2.42-.48c1-.1 2.25-.14 3.83-.14l4 .1a6.35 6.35 0 0 1 2.16.45 1.41 1.41 0 0 1 .82 1 4.84 4.84 0 0 1 0 1.69l-6 52.32h.1l30.87-52.54a10.42 10.42 0 0 1 1-1.45A3 3 0 0 1 356 175a8.52 8.52 0 0 1 2.28-.48c.95-.1 2.24-.14 3.9-.14a35.05 35.05 0 0 1 3.55.14 2.13 2.13 0 0 1 1.62.71 2 2 0 0 1-.13 1.74 29.45 29.45 0 0 1-1.68 3.1zm71.4-1.9a27.24 27.24 0 0 1-1.06 2.57 9.06 9.06 0 0 1-1 1.67 3.52 3.52 0 0 1-1 .93 1.86 1.86 0 0 1-1 .3h-34.14a3.07 3.07 0 0 1-2.55-1c-.54-.7-.53-1.8 0-3.38l21.6-60a6.49 6.49 0 0 1 2.39-3.37 5.93 5.93 0 0 1 3.31-1h34a1 1 0 0 1 .75.27 1.37 1.37 0 0 1 .31.92 7.76 7.76 0 0 1-.23 1.71 22.24 22.24 0 0 1-.82 2.63 23.24 23.24 0 0 1-1.05 2.53 8.88 8.88 0 0 1-1 1.67 4.13 4.13 0 0 1-1 .93 1.8 1.8 0 0 1-1 .3h-24.2l-6.05 16.8h20.57a1.13 1.13 0 0 1 .78.28 1.51 1.51 0 0 1 .32.91 5.86 5.86 0 0 1-.2 1.65 22.14 22.14 0 0 1-.77 2.52 26.28 26.28 0 0 1-1.06 2.55 8.62 8.62 0 0 1-1 1.63 3.26 3.26 0 0 1-1 .88 2 2 0 0 1-1 .27H382l-7 19.4h24.52a1.09 1.09 0 0 1 .78.29 1.48 1.48 0 0 1 .32.93 6.09 6.09 0 0 1-.21 1.68 24.81 24.81 0 0 1-.8 2.58m29.36 3.55a2.16 2.16 0 0 1-.68 1 3.86 3.86 0 0 1-1.38.69 14.5 14.5 0 0 1-2.26.43 32.17 32.17 0 0 1-3.42.16 29 29 0 0 1-3.29-.16 9.53 9.53 0 0 1-2-.43 1.44 1.44 0 0 1-.88-.69 1.18 1.18 0 0 1 0-1l23.4-65a2.3 2.3 0 0 1 .69-.95 3.94 3.94 0 0 1 1.41-.69 14.11 14.11 0 0 1 2.28-.43 31.63 31.63 0 0 1 3.38-.16 28.91 28.91 0 0 1 3.31.16 8.72 8.72 0 0 1 2 .43 1.5 1.5 0 0 1 .89.69 1.25 1.25 0 0 1 0 .95zm67.4-18.7a30.81 30.81 0 0 1-5.43 9.52A33.19 33.19 0 0 1 483 239a35.31 35.31 0 0 1-9.48 4.12 38.9 38.9 0 0 1-10.29 1.38 31.22 31.22 0 0 1-6.34-.59 26.93 26.93 0 0 1-4.84-1.4 15.49 15.49 0 0 1-3.24-1.73 6.2 6.2 0 0 1-1.66-1.6 2.89 2.89 0 0 1-.26-2 18.64 18.64 0 0 1 1.06-3.75l1.1-2.76a11.53 11.53 0 0 1 1-1.81 3 3 0 0 1 1-1 2 2 0 0 1 1-.3 3 3 0 0 1 1.76.88 22.34 22.34 0 0 0 2.75 1.95 21.61 21.61 0 0 0 4.33 1.93 20.23 20.23 0 0 0 6.44.88 17.31 17.31 0 0 0 4.75-.62 15 15 0 0 0 4-1.72 12.46 12.46 0 0 0 3.12-2.76 12.68 12.68 0 0 0 2.07-3.67 5.63 5.63 0 0 0 .18-4 7.28 7.28 0 0 0-2.22-3 21.5 21.5 0 0 0-3.71-2.45l-4.46-2.42a30 30 0 0 1-4.27-2.9 12.08 12.08 0 0 1-4.58-9.22 19.71 19.71 0 0 1 1.41-7.39 28.07 28.07 0 0 1 4.95-8.7 30.16 30.16 0 0 1 7.14-6.21 31.19 31.19 0 0 1 8.59-3.7 36.16 36.16 0 0 1 9.31-1.22 30.25 30.25 0 0 1 4.71.37 25.33 25.33 0 0 1 4.16 1 16.7 16.7 0 0 1 3.22 1.43 5.24 5.24 0 0 1 1.68 1.32 2.42 2.42 0 0 1 .38.91 3.72 3.72 0 0 1 0 1 9.52 9.52 0 0 1-.38 1.55l-.77 2.3-1 2.6a12.75 12.75 0 0 1-.89 1.75 3.55 3.55 0 0 1-.89 1 1.76 1.76 0 0 1-1 .31 3 3 0 0 1-1.58-.73 24 24 0 0 0-2.53-1.63 19.06 19.06 0 0 0-3.68-1.59 15.76 15.76 0 0 0-5.06-.72 14.49 14.49 0 0 0-4.14.56 12.16 12.16 0 0 0-3.38 1.54 10 10 0 0 0-2.53 2.37 10.55 10.55 0 0 0-1.61 2.92 5.66 5.66 0 0 0-.19 4 7 7 0 0 0 2.24 3 22.18 22.18 0 0 0 3.83 2.44q2.26 1.17 4.5 2.42a32.37 32.37 0 0 1 4.33 2.9 12.63 12.63 0 0 1 3.29 3.88 12.4 12.4 0 0 1 1.4 5.31 18.86 18.86 0 0 1-1.33 7.21m72.45-5a45.27 45.27 0 0 1-5.95 11.35 37.15 37.15 0 0 1-8.47 8.46 36.6 36.6 0 0 1-10.73 5.26 43.36 43.36 0 0 1-12.77 1.81 32.37 32.37 0 0 1-10.91-1.67 13.76 13.76 0 0 1-6.86-4.91 14.23 14.23 0 0 1-2.42-8.22 32.49 32.49 0 0 1 2.27-11.5l15-41.84a2.37 2.37 0 0 1 .67-1 3.57 3.57 0 0 1 1.37-.69 14.38 14.38 0 0 1 2.29-.42 29.5 29.5 0 0 1 3.43-.17 25.83 25.83 0 0 1 3.26.17 9.08 9.08 0 0 1 2 .42 1.45 1.45 0 0 1 .87.69 1.15 1.15 0 0 1 0 1L527.24 217a23.8 23.8 0 0 0-1.56 7.1 9.21 9.21 0 0 0 1.08 5 7.07 7.07 0 0 0 3.41 3 13.52 13.52 0 0 0 5.46 1 18.9 18.9 0 0 0 6.21-1 18.26 18.26 0 0 0 5.43-3 21.66 21.66 0 0 0 4.49-4.78 27.07 27.07 0 0 0 3.3-6.46L570 176.4a2.41 2.41 0 0 1 .65-1 3.67 3.67 0 0 1 1.36-.69 13.75 13.75 0 0 1 2.29-.42 29.37 29.37 0 0 1 3.39-.17 25.26 25.26 0 0 1 3.24.17 8.74 8.74 0 0 1 1.92.42 1.18 1.18 0 0 1 .84 1.65zm68.28 20.73a7.36 7.36 0 0 1-1.21 2.18 7.56 7.56 0 0 1-1.7 1.59 6.41 6.41 0 0 1-2 .93 7.67 7.67 0 0 1-2.08.29h-5.9a10.57 10.57 0 0 1-3.06-.37 3.91 3.91 0 0 1-2-1.36 7.34 7.34 0 0 1-1.23-2.65 38.23 38.23 0 0 1-.8-4.33l-5.36-32.17q-.46-3.1-.77-6.2-.3-3.1-.4-6.46h-.1q-1.17 3.82-2.43 7.63l-2.73 7.84-13 36a2.54 2.54 0 0 1-.63 1 3.63 3.63 0 0 1-1.26.71 9.88 9.88 0 0 1-2.07.46 25.8 25.8 0 0 1-3.18.16 22.07 22.07 0 0 1-3-.16 5.7 5.7 0 0 1-1.73-.46 1.21 1.21 0 0 1-.69-.71 1.62 1.62 0 0 1 .08-1l22.28-61.83a7.15 7.15 0 0 1 6.8-5h7.43a12.12 12.12 0 0 1 3.24.34 4.55 4.55 0 0 1 2 1.14 5.26 5.26 0 0 1 1.23 2.21 21.16 21.16 0 0 1 .7 3.49l4.2 25.13.68 4.5.6 4.42.48 4.33.42 4.24q1.18-3.7 2.56-7.76 1.32-3.86 2.7-7.7l11.63-32.27a2.37 2.37 0 0 1 .67-1 4.07 4.07 0 0 1 1.31-.75 10.31 10.31 0 0 1 2.11-.45 31 31 0 0 1 3.16-.13 26.66 26.66 0 0 1 3 .13 5 5 0 0 1 1.7.45 1.33 1.33 0 0 1 .66.75 1.56 1.56 0 0 1-.09 1zm93.64-53.22a25.71 25.71 0 0 1-1.1 2.66 13.41 13.41 0 0 1-1 1.78 3.53 3.53 0 0 1-.93.93 1.76 1.76 0 0 1-.9.26 3.54 3.54 0 0 1-1.88-.95 22.55 22.55 0 0 0-3.29-2.08 32.52 32.52 0 0 0-5.28-2.07 29.48 29.48 0 0 0-17.36.77 31.55 31.55 0 0 0-8.61 4.89 36.07 36.07 0 0 0-7.1 7.6 41.38 41.38 0 0 0-5.07 9.81 32.59 32.59 0 0 0-2.19 10.4 14.72 14.72 0 0 0 1.63 7.52 10.8 10.8 0 0 0 5.07 4.58 19.44 19.44 0 0 0 8.1 1.54 22.85 22.85 0 0 0 4.77-.53 23.86 23.86 0 0 0 4.79-1.6l5.74-15.95h-12.9c-.62 0-1-.4-1-1.2a11.4 11.4 0 0 1 .94-4.07 23.89 23.89 0 0 1 1-2.49 9 9 0 0 1 1-1.63 3.7 3.7 0 0 1 1-.89 1.74 1.74 0 0 1 .95-.3h23a2.89 2.89 0 0 1 1.39.3 1.84 1.84 0 0 1 .85.87 2.81 2.81 0 0 1 .24 1.4 6.28 6.28 0 0 1-.4 1.9l-9.96 27.4a9.07 9.07 0 0 1-1.55 2.79 6.69 6.69 0 0 1-3 1.9l-4.74 1.43-5.7 1.28-5.76.8c-1.93.2-3.8.27-5.66.27a35.49 35.49 0 0 1-13.75-2.37 18 18 0 0 1-8.45-6.85 20.34 20.34 0 0 1-2.89-11 42.88 42.88 0 0 1 2.91-14.65 59.31 59.31 0 0 1 8-15.17A54.44 54.44 0 0 1 683 183a48.86 48.86 0 0 1 29.3-9.7 44.35 44.35 0 0 1 7.82.62 34.86 34.86 0 0 1 5.81 1.48 16.75 16.75 0 0 1 3.82 1.88 7 7 0 0 1 1.87 1.76 3.24 3.24 0 0 1 .27 2.1 21.09 21.09 0 0 1-1.13 4" fill="#3a3a3a"/></svg>