<?xml version="1.0" encoding="UTF-8"?>
<svg width="96px" height="64px" viewBox="0 0 96 64" version="1.1" xmlns="http://www.w3.org/2000/svg" xmlns:xlink="http://www.w3.org/1999/xlink">
    <!-- Generator: Sketch 47 (45396) - http://www.bohemiancoding.com/sketch -->
    <title>Badge / de_de / pay_later / descriptive /pink</title>
    <desc>Created with Sketch.</desc>
    <defs>
        <rect id="path-1" x="0" y="0" width="96" height="64" rx="5"></rect>
    </defs>
    <g id="Badges" stroke="none" stroke-width="1" fill="none" fill-rule="evenodd">
        <g id="DE" transform="translate(-140.000000, -116.000000)">
            <g id="Badge-/-de_de-/-pay_later-/-descriptive-/pink" transform="translate(140.000000, 116.000000)">
                <g id="BG-/-Radius-5">
                    <mask id="mask-2" fill="white">
                        <use xlink:href="#path-1"></use>
                    </mask>
                    <g id="BG"></g>
                    <g id="Color-/-Pink" mask="url(#mask-2)" fill-rule="evenodd" fill="#EB6F93">
                        <rect id="BG" x="0" y="0" width="96" height="64"></rect>
                    </g>
                </g>
                <path d="M19.1680001,57 L16.6240001,57 L14.5920001,53.112 C13.0400001,53.672 12.6880001,54.2 12.6880001,55.544 L12.6880001,57 L10.3840001,57 L10.3840001,45.8 L14.6560001,45.8 C17.1680001,45.8 18.6400001,47.08 18.6400001,49.272 C18.6400001,50.68 18.0320001,51.656 16.7040001,52.328 L19.1680001,57 Z M12.6880001,51.736 C13.0720001,51.448 13.6000001,51.224 14.3520001,50.968 L14.8320001,50.808 C15.8880001,50.456 16.3520001,49.992 16.3520001,49.24 C16.3520001,48.376 15.7440001,47.912 14.6080001,47.912 L12.6880001,47.912 L12.6880001,51.736 Z M27.2746668,53.064 C27.2746668,53.24 27.2746668,53.368 27.2426668,53.608 C25.1626668,53.624 23.1786668,53.864 21.8026668,54.248 C22.1546668,54.872 22.7946668,55.256 23.6426668,55.256 C24.4106668,55.256 25.1626668,54.936 25.7066668,54.392 L26.8426668,55.88 C26.0586668,56.728 24.8906668,57.208 23.6426668,57.208 C21.2426668,57.208 19.4506668,55.448 19.4506668,53.112 C19.4506668,50.808 21.1946668,49.048 23.4986668,49.048 C25.7226668,49.048 27.2586668,50.664 27.2746668,53.064 Z M23.4346668,51 C22.4426668,51 21.7386668,51.672 21.5786668,52.68 C22.6346668,52.376 23.8666668,52.184 25.0666668,52.136 C24.8586668,51.432 24.2506668,51 23.4346668,51 Z M32.0373334,57.208 C33.5893334,57.208 35.0773334,56.472 35.6533334,55.16 L33.7493334,54.184 C33.4133334,54.76 32.7893334,55.128 32.0373334,55.128 C30.8853334,55.128 30.0373334,54.248 30.0373334,53.128 C30.0373334,52.008 30.8853334,51.128 32.0373334,51.128 C32.7893334,51.128 33.4133334,51.496 33.7493334,52.072 L35.6533334,51.096 C35.0773334,49.784 33.5893334,49.048 32.0373334,49.048 C29.7173334,49.048 27.8613334,50.904 27.8613334,53.128 C27.8613334,55.352 29.7173334,57.208 32.0373334,57.208 Z M41.184,49.08 C40.224,49.08 39.456,49.4 38.896,49.992 L38.896,45.8 L36.72,45.8 L36.72,57 L38.896,57 L38.896,52.936 C38.896,51.8 39.584,51.064 40.656,51.064 C41.728,51.064 42.416,51.8 42.416,52.936 L42.416,57 L44.592,57 L44.592,52.536 C44.592,50.488 43.216,49.08 41.184,49.08 Z M50.7626667,49.08 C49.7066667,49.08 48.9226667,49.464 48.3786667,50.088 L48.3786667,49.256 L46.2666667,49.256 L46.2666667,57 L48.4426667,57 L48.4426667,52.936 C48.4426667,51.736 49.1946667,51.064 50.2026667,51.064 C51.2106667,51.064 51.9626667,51.736 51.9626667,52.936 L51.9626667,57 L54.1386667,57 L54.1386667,52.536 C54.1386667,50.6 52.8906667,49.08 50.7626667,49.08 Z M61.1413333,49.256 L61.1413333,53.4 C61.1413333,54.488 60.4853333,55.192 59.4613333,55.192 C58.4373333,55.192 57.7813333,54.488 57.7813333,53.4 L57.7813333,49.256 L55.6053333,49.256 L55.6053333,53.8 C55.6053333,55.832 56.9973333,57.176 58.9493333,57.176 C59.9253333,57.176 60.6773333,56.84 61.2053333,56.232 L61.2053333,57 L63.3173333,57 L63.3173333,49.256 L61.1413333,49.256 Z M69.616,49.08 C68.56,49.08 67.776,49.464 67.232,50.088 L67.232,49.256 L65.12,49.256 L65.12,57 L67.296,57 L67.296,52.936 C67.296,51.736 68.048,51.064 69.056,51.064 C70.064,51.064 70.816,51.736 70.816,52.936 L70.816,57 L72.992,57 L72.992,52.536 C72.992,50.6 71.744,49.08 69.616,49.08 Z M82.8906666,48.52 C82.8906666,49.832 82.4586666,50.76 81.7546666,51.592 C82.0266666,52.264 82.1706666,53.08 82.1706666,54.04 C82.1706666,56.696 81.0186666,59.928 77.0986666,59.928 C76.4906666,59.928 75.9466666,59.848 75.6586666,59.768 L75.6586666,57.752 C76.0106666,57.848 76.5066666,57.912 77.0186666,57.912 C78.3146666,57.912 79.4346666,57.512 79.8346666,56.104 C79.3706666,56.536 78.6666666,56.744 77.8986666,56.744 C75.6746666,56.744 74.0426666,55.096 74.0426666,52.984 C74.0426666,50.824 75.7706666,49.096 78.0906666,49.096 C78.9706666,49.096 79.7706666,49.336 80.4426666,49.832 C80.6346666,49.512 80.7626666,49.096 80.7626666,48.52 L82.8906666,48.52 Z M78.0426666,54.808 C79.1466666,54.808 79.9146666,53.976 79.9146666,52.952 C79.9146666,51.928 79.1466666,51.096 78.0426666,51.096 C76.9386666,51.096 76.1706666,51.928 76.1706666,52.952 C76.1706666,53.976 76.9386666,54.808 78.0426666,54.808 Z M85.2373332,57.128 C86.0373332,57.128 86.6933332,56.472 86.6933332,55.672 C86.6933332,54.872 86.0373332,54.216 85.2373332,54.216 C84.4373332,54.216 83.7813332,54.872 83.7813332,55.672 C83.7813332,56.472 84.4373332,57.128 85.2373332,57.128 Z" id="Rechnung." fill="#FFFFFF" fill-rule="evenodd"></path>
                <g id="Icons-/-Pay-later-/-White" transform="translate(22.000000, 15.000000)" fill-rule="nonzero" fill="#FFFFFF">
                    <path d="M0.719810127,1.52849965 C4.54695491,1.12259218 8.39310728,0.911515668 12.2427952,0.896161092 C14.9435099,0.896166667 16.9060905,0.984270774 19.5783414,1.18241499 C19.8077294,1.19942383 20.6359361,1.26191808 20.8189264,1.27551501 C21.2922534,1.31068515 21.664025,1.33691591 22.0241845,1.36004158 C23.1975262,1.43538129 24.1930474,1.4725 25.2482278,1.4725 C25.6279411,1.4725 25.9357595,1.17051606 25.9357595,0.798 C25.9357595,0.425483936 25.6279411,0.1235 25.2482278,0.1235 C24.2257818,0.1235 23.2593953,0.0874675968 22.1139903,0.0139216963 C21.7592409,-0.00885659215 21.3918171,-0.0347805986 20.9227758,-0.0696322886 C20.7408922,-0.0831469926 19.9125413,-0.145652112 19.681975,-0.162748325 C16.9779172,-0.363250985 14.9824078,-0.452833333 12.24,-0.452833333 C8.13294116,-0.436457802 4.03264712,-0.200336204 -0.0453826788,0.25448351 C-0.392808828,0.293231697 -0.655253165,0.581630263 -0.655253165,0.924666667 L-0.655253165,3.04 C-0.655253165,3.15057517 -0.627543009,3.25945459 -0.574562351,3.35705233 C-0.0288581285,4.36231531 0.317603058,5.45997388 0.446463636,6.59186756 C0.628205667,10.0896031 0.989193011,12.2789666 2.09415661,14.473512 C3.69629089,17.655478 6.55203436,19.4528333 10.8907595,19.4528333 C18.4709071,19.4577485 20.7140472,17.7729507 22.3404354,12.7478931 C22.3665527,12.6671983 22.5407598,12.1252473 22.5926863,11.9655842 C22.6908104,11.6638736 22.7740202,11.4153168 22.8578776,11.1756668 C22.7641909,11.4428721 23.9950592,7.79580779 24.2666924,7.15080504 C24.6656021,6.20357958 24.9586277,5.8805 25.2482278,5.8805 C25.6279411,5.8805 25.9357595,5.57851606 25.9357595,5.206 C25.9357595,4.83348394 25.6279411,4.5315 25.2482278,4.5315 C24.2216121,4.5315 23.5875689,5.23057324 22.9958233,6.63569437 C22.7020299,7.33331744 21.4441471,11.060426 21.5574498,10.7372739 C21.4697776,10.9878256 21.3836096,11.2452186 21.2826863,11.5555362 C21.2298978,11.7178498 21.055291,12.2610445 21.0298522,12.339643 C20.2978991,14.601161 19.7665217,15.5979016 18.6387332,16.4449711 C17.1777658,17.5422877 14.7695704,18.1063482 10.8912139,18.1038335 C7.08312988,18.1038333 4.70073914,16.604398 3.32701428,13.8760713 C2.33091344,11.8977359 1.99220321,9.84348157 1.81637481,6.48242886 C1.67147416,5.19920058 1.3007726,3.98884098 0.719810127,2.87459915 L0.719810127,1.52849965 Z" id="_Path_"></path>
                    <path d="M11.0973418,15.7763333 L11.0263291,15.7763333 C9.37055604,15.8324823 7.76500686,15.2134406 6.59126582,14.0663333 C4.19620253,11.685 4.23493671,7.733 4.23493671,7.543 C4.17683544,6.96666667 4.15101266,6.33333333 4.15101266,5.7 C4.08624999,5.12157522 4.26215493,4.5419865 4.6388815,4.09252223 C5.01560807,3.64305796 5.56127523,3.36175473 6.15227848,3.31233333 C7.8178481,3.12866667 10.3743038,3.04 12.0527848,3.021 C16.3651899,2.97033333 18.7150633,3.23 19.6705063,3.85066667 C20.9616456,4.674 20.7937975,5.90266667 19.6705063,9.41133333 L19.3670886,10.1713333 C18.2502532,13.7813333 17.6175949,15.7763333 11.0973418,15.7763333 Z M13.5365457,4.23997652 L7.00338115,12.2516432 C6.76617616,12.5425294 6.81424932,12.9669871 7.11075555,13.199696 C7.40726178,13.432405 7.8399202,13.385243 8.07712518,13.0943568 L14.6102897,5.08269014 C14.8474947,4.79180397 14.7994216,4.36734626 14.5029153,4.13463732 C14.2064091,3.90192838 13.7737507,3.94909035 13.5365457,4.23997652 Z M9.2048457,3.96755474 L5.4540862,8.56555474 C5.21683142,8.85640182 5.26483191,9.28086744 5.5612983,9.51362524 C5.85776468,9.74638303 6.29043117,9.69929235 6.52768595,9.40844526 L10.2784454,4.81044526 C10.5157002,4.51959818 10.4676997,4.09513256 10.1712333,3.86237476 C9.87476696,3.62961697 9.44210047,3.67670765 9.2048457,3.96755474 Z" id="Combined-Shape"></path>
                    <path d="M49.7766456,1.52849962 L49.7766456,2.87459635 C49.1956893,3.98876489 48.8251272,5.19744534 48.6834257,6.44213244 C48.5042525,9.84348157 48.1655423,11.8977359 47.1694414,13.8760713 C45.7957166,16.604398 43.4133258,18.1038333 39.6056962,18.1038333 C35.7313887,18.1038333 33.3237584,17.5361414 31.8610388,16.4341683 C30.7319258,15.5835253 30.1989183,14.584056 29.4629941,12.3178198 C29.4373786,12.2389384 29.2639588,11.7012969 29.2116111,11.5408447 C29.1113261,11.2334583 29.0258114,10.9786454 28.9390409,10.7310404 C29.0523086,11.0540927 27.7944258,7.3269841 27.5006323,6.62936104 C26.9088868,5.22423991 26.2748436,4.52516667 25.2482278,4.52516667 C24.8685146,4.52516667 24.5606962,4.8271506 24.5606962,5.19966667 C24.5606962,5.57218273 24.8685146,5.87416667 25.2482278,5.87416667 C25.537828,5.87416667 25.8308536,6.19724625 26.2297633,7.14447171 C26.5013965,7.78947445 27.7322648,11.4365387 27.6387156,11.1697261 C27.7218444,11.4069393 27.8044567,11.6531037 27.9019931,11.9520651 C27.9534961,12.1099285 28.1265292,12.646371 28.1528113,12.7273051 C29.7875585,17.7614154 32.0326861,19.4528333 39.6056962,19.4528333 C43.9444213,19.4528333 46.8001648,17.655478 48.4022991,14.473512 C49.5072627,12.2789666 49.86825,10.0896031 50.0533368,6.55157114 C50.1788526,5.45997388 50.5253138,4.36231531 51.071018,3.35705233 C51.1239987,3.25945459 51.1517089,3.15057517 51.1517089,3.04 L51.1517089,0.924666667 C51.1517089,0.581630263 50.8892645,0.293231697 50.5418384,0.25448351 C46.4638086,-0.200336204 42.3635145,-0.436457802 38.2592509,-0.452827759 C35.5140479,-0.452833333 33.5185385,-0.363250985 30.8144807,-0.162748325 C30.5839144,-0.145652112 29.7555635,-0.0831469926 29.5736799,-0.0696322886 C29.1046386,-0.0347805986 28.7372148,-0.00885659215 28.3824654,0.0139216963 C27.2370604,0.0874675968 26.2706739,0.1235 25.2482278,0.1235 C24.8685146,0.1235 24.5606962,0.425483936 24.5606962,0.798 C24.5606962,1.17051606 24.8685146,1.4725 25.2482278,1.4725 C26.3034083,1.4725 27.2989295,1.43538129 28.4722712,1.36004158 C28.8324307,1.33691591 29.2042023,1.31068515 29.6775293,1.27551501 C29.8605196,1.26191808 30.6887263,1.19942383 30.9181143,1.18241499 C33.5903652,0.984270774 35.5529458,0.896166667 38.2564557,0.896166667 C42.1034893,0.911515949 45.9495077,1.12259218 49.7766456,1.52849962 Z" id="_Path_2"></path>
                    <path d="M39.3797468,15.7763333 C32.8594937,15.7763333 32.2268354,13.7813333 31.0841772,10.1776667 L30.8324051,9.386 C29.6897468,5.87733333 29.5412658,4.655 30.8324051,3.82533333 C31.7878481,3.192 34.1377215,2.945 38.4501266,2.99566667 C40.1350633,2.99566667 42.6850633,3.10333333 44.3506329,3.287 C44.9452315,3.33947582 45.4930395,3.62527161 45.8698234,4.07957378 C46.2466072,4.53387596 46.4204397,5.11818874 46.3518987,5.7 C46.3518987,6.33333333 46.3518987,6.96666667 46.261519,7.6 C46.261519,7.714 46.3002532,11.6913333 43.9051899,14.0726667 C42.729896,15.2214104 41.1216594,15.840587 39.4636709,15.7826667 L39.3797468,15.7826667 L39.3797468,15.7763333 Z M35.5892761,3.96755474 L31.8385166,8.56555474 C31.6012618,8.85640182 31.6492623,9.28086744 31.9457287,9.51362524 C32.2421951,9.74638303 32.6748616,9.69929235 32.9121163,9.40844526 L36.6628758,4.81044526 C36.9001306,4.51959818 36.8521301,4.09513256 36.5556637,3.86237476 C36.2591973,3.62961697 35.8265309,3.67670765 35.5892761,3.96755474 Z M39.9209761,4.23997652 L33.3878115,12.2516432 C33.1506065,12.5425294 33.1986797,12.9669871 33.4951859,13.199696 C33.7916922,13.432405 34.2243506,13.385243 34.4615556,13.0943568 L40.9947201,5.08269014 C41.2319251,4.79180397 41.1838519,4.36734626 40.8873457,4.13463732 C40.5908395,3.90192838 40.1581811,3.94909035 39.9209761,4.23997652 Z" id="Combined-Shape"></path>
                </g>
            </g>
        </g>
    </g>
</svg>