<svg xmlns="http://www.w3.org/2000/svg" viewBox="0 0 190.05 81.95"><path d="M76.86 43.74l-9.53 25.68-1-5.22C64 57.8 58.8 51.1 52.83 48.37l8.7 33h10.3l15.32-37.63zm8.16 37.66l6.1-37.7h9.73l-6.1 37.7zm45.04-36.77a24.07 24.07 0 0 0-8.72-1.63c-9.63 0-16.4 5.12-16.45 12.44-.07 5.42 4.83 8.44 8.5 10.24s5.07 3 5.06 4.68c0 2.52-3 3.68-5.83 3.68a19.53 19.53 0 0 1-9.15-2l-1.27-.6-1.36 8.44a29.54 29.54 0 0 0 10.85 2c10.22 0 16.86-5.06 16.94-12.87 0-4.3-2.56-7.56-8.18-10.25-3.4-1.66-5.46-2.82-5.46-4.6 0-1.57 1.76-3.24 5.58-3.24a16.88 16.88 0 0 1 7.28 1.45l.87.43 1.33-8.17zm17.44-.9c-2.33 0-4.08.66-5.1 3.13L127.94 81.4h10.22l2-5.67h12.46l1.2 5.64h9L155 43.73h-7.5zm.68 10.13l.65 3.25 2.25 10.9H143l3.88-10.54 1.3-3.602z" fill="#11559c"/><path d="M58.5 43.72H42.8l-.1.65C54.92 47.5 63 55.15 66.32 64.2L62.9 46.9c-.6-2.38-2.3-3.1-4.4-3.17z" fill="#f2a724"/><path d="M13.36 34.6h-6.2L0 2.34 6.86 1.2l4.9 25.26L24.23 1.53h6.6zM37.7 10.95c-6 0-11.2 4.5-12.35 12-1.28 8.33 2.97 12 9.42 12a17.86 17.86 0 0 0 9.65-2.809v-4.5c-2.8 1.76-5.37 2.86-8.37 2.86-3.52 0-5.6-1.94-5.2-6.44h14.8l.01.02c.06-.38.18-.9.26-1.38 1-6.55-1.3-11.75-8.22-11.75zm-.75 3.94c2.77 0 3.9 2.02 3.72 5.6H31.5c1-3.78 3.15-5.6 5.45-5.6zm18.34 6.35l-2 13.23h-5.76l3.55-23.06h4.87V16c1.94-2.67 4.58-4.92 8.2-5.1v5.68a12.75 12.75 0 0 0-8.88 4.63zm8.8 13.23l3.55-23.06h5.73L69.8 34.47zm7.06-26.93A2.74 2.74 0 0 1 68.2 4.3 4 4 0 0 1 72.15 1 2.77 2.77 0 0 1 75 4.3a3.93 3.93 0 0 1-3.89 3.24zm18.1-2.44A3.09 3.09 0 0 0 85.77 8l-.52 3.4h4.4v4.68h-5.1l-2.83 18.4H76l2.83-18.38H75.5l.72-4.68h3.34l.6-4c.78-5.1 4.32-7 9.05-7a14 14 0 0 1 2.31.19v4.7a14 14 0 0 0-2.35-.19zm.06 29.37l3.55-23.06h5.73L95 34.47zm7-26.93a2.73 2.73 0 0 1-2.93-3.24 4 4 0 0 1 4-3.35 2.77 2.77 0 0 1 2.87 3.35 3.91 3.91 0 0 1-3.89 3.24zm16.56 3.4c-6.02 0-11.2 4.5-12.36 12-1.28 8.33 2.98 12 9.42 12a17.8 17.8 0 0 0 9.65-2.809v-4.5c-2.8 1.76-5.37 2.86-8.37 2.86-3.52 0-5.6-1.94-5.2-6.44h14.78l.03.02.27-1.38c1-6.55-1.3-11.75-8.22-11.75zm-.78 3.94c2.73 0 3.9 2.02 3.73 5.6h-9.17c1-3.78 3.14-5.6 5.44-5.6zM148 0l-5.9.9-1.7 11.14a15 15 0 0 0-5.211-.859c-5.37 0-10.68 3.8-12 12.4-1.2 7.78 2.1 11.36 6.94 11.36a10.76 10.76 0 0 0 7.631-3.67v3.2h4.95L148 0zm-12.373 15.764a8.42 8.42 0 0 1 4.043 1.006v.02l-1.53 9.932c-1.82 1.9-3.64 3.148-5.74 3.148-2.52 0-4.12-2.12-3.42-6.6.78-5.06 3.35-7.5 6.35-7.5a8.42 8.42 0 0 1 .297-.006zM161.44 8.35l-4.44.7-3.8 24.47a20.53 20.53 0 0 0 7 1.15l-.012.05c5.17 0 9.17-3.002 10.17-9.432.9-5.85-1.56-8.6-5.26-8.6A8.13 8.13 0 0 0 159.801 19l1.64-10.65zm1.97 12.12v.01c1.95 0 3.07 1.64 2.55 5-.6 3.98-2.53 5.64-5.28 5.64a6.45 6.45 0 0 1-2.67-.469l1.2-7.9c1.3-1.28 2.75-2.28 4.2-2.28zm17.2 14.93c-2.22 4.3-4.4 5.64-7.78 5.64a5.61 5.61 0 0 1-1.56-.18V37.3a7.74 7.74 0 0 0 2 .25 3.44 3.44 0 0 0 3.1-1.84l.58-1.16-3.68-17.2 4.6-.58L180 29.2l5.75-12.2h4.3l-9.45 18.4z" fill="#11559c"/></svg>