<svg xmlns="http://www.w3.org/2000/svg" width="400" height="141" viewBox="0 0 400 140.977"><path d="M254.667 8.5c0 .104-1.002.167-2.672.167-2.222 0-2.688.042-2.768.25-.075.196-.414.25-1.578.25-.877 0-1.482.068-1.482.166s-.53.167-1.256.167c-.962 0-1.277.058-1.35.25-.07.183-.36.25-1.078.25-.762 0-.982.056-.982.25 0 .188-.203.25-.823.25-.453 0-.87.075-.927.167s-.438.166-.848.166c-.51 0-.776.08-.842.25-.06.155-.312.25-.66.25-.31 0-.566.075-.566.167s-.3.167-.666.167c-.482 0-.667.07-.667.25s-.185.25-.667.25c-.366 0-.666.075-.666.166s-.228.167-.506.167c-.295 0-.545.104-.6.25-.052.137-.275.25-.494.25s-.4.075-.4.167-.265.166-.59.166c-.37 0-.624.093-.684.25-.053.138-.276.25-.495.25s-.4.075-.4.167-.187.167-.417.167c-.26 0-.416.094-.416.25s-.158.25-.417.25-.417.094-.417.25c0 .166-.166.25-.5.25-.275 0-.5.075-.5.166s-.152.167-.338.167-.382.112-.435.25-.22.252-.37.255c-.346.007-.858.388-.858.638 0 .105-.187.2-.416.2s-.417.075-.417.167-.152.167-.34.167-.38.112-.434.25-.2.25-.328.25-.232.075-.232.166-.153.167-.34.167-.382.112-.434.25-.2.25-.328.25-.233.058-.233.13-.262.27-.583.443-.583.415-.583.538-.08.223-.18.223c-.23 0-.655.424-.655.655 0 .098-.187.18-.416.18s-.417.075-.417.166-.113.167-.25.167a.25.25 0 0 0-.25.25c0 .137-.08.25-.18.25-.23 0-.654.424-.654.655a.18.18 0 0 1-.179.178c-.23 0-.655.424-.655.655a.18.18 0 0 1-.178.179c-.23 0-.655.424-.655.654 0 .1-.113.18-.25.18s-.25.08-.25.18c0 .23-.424.654-.655.654-.098 0-.178.095-.178.21s-.188.35-.417.523-.417.418-.417.546-.3.52-.666.868-.667.758-.667.9-.075.276-.167.276-.166.112-.166.25-.113.25-.25.25c-.156 0-.25.157-.25.416 0 .23-.075.417-.167.417s-.167.113-.167.25a.25.25 0 0 1-.25.25c-.155 0-.25.157-.25.417 0 .23-.075.416-.166.416s-.167.188-.167.417c0 .26-.094.417-.25.417s-.25.157-.25.416-.094.417-.25.417-.25.157-.25.417c0 .23-.075.416-.167.416s-.166.18-.166.4-.113.442-.25.495-.25.244-.25.425-.075.375-.167.43-.167.36-.167.677c0 .4-.076.573-.25.573s-.25.175-.25.574c0 .315-.075.62-.166.676s-.167.353-.167.66c0 .34-.097.593-.25.652-.184.07-.25.36-.25 1.1 0 .56-.074 1.005-.167 1.005s-.166.528-.166 1.25c0 1-.05 1.25-.25 1.25-.217 0-.25.648-.25 4.833s.033 4.834.25 4.834c.196 0 .25.23.25 1.083 0 .61.072 1.083.166 1.083s.167.3.167.667c0 .48.07.667.25.667.175 0 .25.176.25.583 0 .32.075.583.167.583s.166.3.166.667c0 .48.07.667.25.667.156 0 .25.157.25.416 0 .23.075.417.167.417s.167.188.167.417c0 .26.094.416.25.416s.25.158.25.417c0 .23.075.417.166.417s.167.152.167.338.112.382.25.435.25.2.25.328.112.232.25.232c.156 0 .25.157.25.417 0 .23.075.416.167.416s.166.113.166.25a.25.25 0 0 0 .25.25c.142 0 .25.15.25.346 0 .37.36.82.655.82.098 0 .18.112.18.25s.075.25.166.25.167.123.167.272.487.748 1.083 1.33 1.084 1.133 1.084 1.227.08.17.178.17c.23 0 .655.424.655.655 0 .098.08.178.178.178s.425.263.728.584.635.583.74.583.188.112.188.25.148.25.334.25.333.075.333.167.112.166.25.166.25.113.25.25.095.25.2.25.352.188.524.417.452.417.623.417.3.112.3.25.094.25.2.25.35.187.523.416.453.417.623.417.3.075.3.167.113.166.25.166a.25.25 0 0 1 .25.25c0 .156.158.25.417.25.23 0 .417.075.417.167s.112.167.25.167a.25.25 0 0 1 .25.25c0 .148.153.25.377.25.207 0 .517.187.7.416s.452.417.623.417.3.075.3.167.187.166.416.166c.26 0 .417.095.417.25 0 .138.146.25.325.25s.527.188.774.417.58.417.74.417a.44.44 0 0 1 .387.25c.053.137.248.25.434.25s.34.075.34.166.188.167.417.167c.26 0 .416.094.416.25s.158.25.417.25c.23 0 .417.075.417.167s.225.166.5.166c.333 0 .5.084.5.25 0 .156.157.25.416.25.23 0 .417.075.417.167s.188.167.417.167c.26 0 .416.094.416.25s.158.25.417.25c.23 0 .417.075.417.166s.187.167.416.167c.26 0 .417.094.417.25s.157.25.417.25.416.094.416.25.158.25.417.25c.23 0 .417.075.417.167s.187.166.416.166c.26 0 .417.095.417.25a.25.25 0 0 0 .25.25c.137 0 .25.075.25.167s.188.167.417.167c.26 0 .416.094.416.25s.158.25.417.25c.23 0 .417.075.417.166s.187.167.416.167c.26 0 .417.094.417.25a.25.25 0 0 0 .25.25c.137 0 .25.075.25.167s.188.166.417.166.416.08.416.18c0 .294.453.655.822.655.196 0 .345.108.345.25s.08.25.175.25.348.187.56.416.51.417.66.417.273.112.273.25a.25.25 0 0 0 .25.25c.137 0 .25.075.25.167s.112.166.25.166.25.08.25.18c0 .23.424.655.654.655.1 0 .18.187.18.416s.075.417.167.417.166.112.166.25.08.25.18.25c.296 0 .655.453.655.827 0 .192.112.393.25.446.154.06.25.313.25.66 0 .312.075.566.166.566.102 0 .167.75.167 1.917s-.065 1.916-.167 1.916c-.09 0-.166.3-.166.667 0 .48-.07.667-.25.667-.156 0-.25.157-.25.416 0 .23-.075.417-.167.417s-.167.188-.167.417c0 .26-.094.416-.25.416-.137 0-.25.08-.25.18 0 .23-.424.655-.654.655-.1 0-.18.08-.18.178 0 .23-.424.655-.655.655-.098 0-.178.112-.178.25s-.08.25-.18.25-.283.094-.41.208c-.55.495-.74.625-.903.625-.096 0-.174.075-.174.167s-.152.167-.34.167-.38.112-.434.25-.275.25-.495.25c-.243 0-.4.097-.4.25s-.157.25-.416.25c-.23 0-.417.075-.417.166s-.3.167-.667.167c-.48 0-.666.07-.666.25s-.186.25-.667.25c-.367 0-.667.075-.667.167s-.375.166-.833.166c-.63 0-.833.06-.833.25 0 .2-.25.25-1.25.25-.723 0-1.25.07-1.25.167 0 .108-1.973.167-5.584.167s-5.583-.06-5.583-.167c0-.1-.667-.167-1.667-.167-1.37 0-1.666-.044-1.666-.25 0-.2-.25-.25-1.25-.25-.723 0-1.25-.07-1.25-.166s-.473-.167-1.084-.167c-.852 0-1.083-.053-1.083-.25 0-.19-.204-.25-.833-.25-.46 0-.834-.075-.834-.167s-.3-.166-.666-.166c-.482 0-.667-.07-.667-.25s-.177-.25-.595-.25c-.328 0-.708-.113-.845-.25s-.428-.25-.645-.25-.442-.075-.498-.167-.353-.167-.66-.167c-.34 0-.593-.097-.652-.25-.056-.146-.305-.25-.6-.25-.278 0-.505-.075-.505-.166s-.217-.167-.482-.167c-.275 0-.524-.107-.578-.25s-.306-.25-.6-.25c-.278 0-.506-.075-.506-.167s-.18-.166-.4-.166-.442-.113-.494-.25-.286-.25-.518-.25-.422-.075-.422-.167-.263-.167-.583-.167c-.408 0-.584-.075-.584-.25 0-.155-.157-.25-.416-.25-.23 0-.417-.075-.417-.166s-.187-.167-.417-.167c-.26 0-.416-.094-.416-.25 0-.144-.15-.25-.357-.25a.78.78 0 0 1-.559-.277c-.33-.45-.75-.157-.75.522 0 .412-.075.588-.25.588-.19 0-.25.204-.25.834 0 .458-.075.833-.167.833s-.166.472-.166 1.083c0 .852-.054 1.084-.25 1.084s-.25.23-.25 1.083c0 .61-.073 1.083-.167 1.083s-.167.375-.167.834c0 .63-.06.833-.25.833-.196 0-.25.23-.25 1.083 0 .61-.072 1.084-.166 1.084s-.167.444-.167 1c0 .777-.056 1-.25 1s-.25.205-.25.845c0 .53-.094.94-.25 1.095s-.25.564-.25 1.072c0 .45-.075.82-.167.82s-.166.472-.166 1.083c0 .852-.054 1.084-.25 1.084-.19 0-.25.202-.25.823 0 .453-.075.87-.167.927s-.167.548-.167 1.093c0 .77-.055 1-.25 1s-.25.23-.25 1.083c0 .61-.072 1.084-.166 1.084s-.167.444-.167 1 .074 1 .167 1 .166.112.166.25c0 .155.158.25.417.25.23 0 .417.075.417.166s.3.167.666.167c.482 0 .667.07.667.25 0 .156.157.25.417.25.23 0 .416.075.416.167s.3.166.667.166c.48 0 .667.07.667.25 0 .19.203.25.833.25.458 0 .833.075.833.167s.3.167.667.167c.48 0 .667.07.667.25 0 .19.203.25.833.25s.833.06.833.25.204.25.834.25c.458 0 .833.075.833.166s.343.167.762.167c.455 0 .863.1 1.012.25.16.16.573.25 1.155.25.497 0 .904.075.904.167s.528.166 1.25.166c1 0 1.25.05 1.25.25s.26.25 1.334.25c.777 0 1.333.07 1.333.167s.716.167 1.816.167c1.46 0 1.834.05 1.91.25s.51.25 2.434.25c1.448 0 2.34.063 2.34.166 0 .11 2.278.167 6.5.167l6.5-.167c0-.102.833-.166 2.167-.166 1.814 0 2.166-.04 2.166-.25 0-.203.268-.25 1.407-.25.774 0 1.453-.075 1.5-.167s.626-.167 1.265-.167c.88 0 1.185-.06 1.258-.25.07-.183.36-.25 1.078-.25.544 0 .982-.074.982-.166s.378-.167.84-.167c.592 0 .867-.074.934-.25.065-.17.33-.25.82-.25.397 0 .768-.075.825-.167s.314-.166.573-.166.563-.113.677-.25.46-.25.77-.25c.4 0 .563-.077.563-.25 0-.18.186-.25.667-.25.367 0 .667-.075.667-.167s.262-.167.583-.167c.407 0 .583-.075.583-.25 0-.166.167-.25.5-.25.275 0 .5-.075.5-.166s.228-.167.506-.167c.295 0 .545-.104.6-.25.052-.137.275-.25.494-.25s.4-.075.4-.167.188-.166.417-.166c.26 0 .417-.095.417-.25 0-.167.166-.25.5-.25.275 0 .5-.075.5-.167s.152-.167.338-.167.382-.112.435-.25.275-.25.494-.25.4-.075.4-.166.153-.167.34-.167.382-.113.434-.25.228-.25.388-.25.433-.187.606-.417.472-.416.666-.416.495-.188.667-.417.482-.417.7-.417c.224 0 .377-.1.377-.25a.25.25 0 0 1 .25-.25c.137 0 .25-.075.25-.166s.14-.167.3-.167.45-.187.623-.417.407-.416.523-.416.21-.08.21-.18c0-.254.37-.59.8-.727.202-.064.367-.187.367-.272s.113-.156.25-.156a.25.25 0 0 0 .25-.25c0-.137.08-.25.18-.25.23 0 .655-.424.655-.654 0-.1.08-.18.178-.18.23 0 .655-.424.655-.655 0-.098.08-.178.18-.178.23 0 .654-.424.654-.655a.18.18 0 0 1 .179-.179c.23 0 .655-.424.655-.654 0-.1.112-.18.25-.18a.25.25 0 0 0 .25-.25c0-.138.07-.25.155-.25s.208-.165.272-.367c.136-.43.473-.8.727-.8.1 0 .18-.112.18-.25s.075-.25.167-.25.166-.187.166-.416.08-.417.18-.417c.222 0 .655-.42.655-.637 0-.088.112-.204.25-.257s.25-.248.25-.434.075-.34.166-.34.167-.187.167-.416c0-.26.094-.417.25-.417a.25.25 0 0 0 .25-.25c0-.138.074-.25.163-.25s.21-.187.27-.417.17-.416.253-.416.148-.188.148-.417.074-.417.164-.417.2-.187.268-.416.17-.417.253-.417.15-.254.15-.566c0-.348.095-.602.25-.66.137-.053.25-.286.25-.518s.075-.422.166-.422.167-.262.167-.583c0-.407.075-.583.25-.583.18 0 .25-.186.25-.667 0-.367.075-.667.167-.667s.166-.375.166-.833c0-.63.06-.833.25-.833s.25-.204.25-.834c0-.458.075-.833.167-.833s.167-.522.167-1.232c0-.942.06-1.255.25-1.328.215-.083.25-.834.25-5.35l-.25-5.256c-.2 0-.25-.25-.25-1.25 0-.722-.07-1.25-.167-1.25s-.167-.3-.167-.666c0-.482-.07-.667-.25-.667-.174 0-.25-.176-.25-.583 0-.32-.075-.584-.166-.584s-.167-.3-.167-.666c0-.482-.07-.667-.25-.667-.156 0-.25-.157-.25-.417 0-.23-.075-.416-.167-.416s-.166-.252-.166-.56c0-.403-.117-.648-.417-.873-.23-.173-.417-.483-.417-.7 0-.224-.1-.377-.25-.377s-.252-.155-.255-.375c-.006-.43-.358-.96-.638-.96-.105 0-.2-.187-.2-.416 0-.26-.094-.417-.25-.417a.25.25 0 0 1-.25-.25c0-.138-.075-.25-.167-.25s-.166-.14-.166-.3-.188-.45-.417-.623-.417-.407-.417-.523-.08-.21-.178-.21c-.23 0-.655-.424-.655-.654 0-.1-.113-.18-.25-.18s-.25-.08-.25-.18-.094-.283-.208-.4c-.495-.552-.625-.74-.625-.904 0-.096-.188-.174-.417-.174-.26 0-.417-.094-.417-.25 0-.137-.08-.25-.178-.25-.23 0-.655-.424-.655-.654 0-.1-.08-.18-.18-.18-.23 0-.654-.424-.654-.655 0-.098-.095-.178-.21-.178s-.35-.188-.523-.417-.42-.417-.548-.417-.408-.187-.62-.416-.472-.417-.576-.417-.19-.07-.19-.155-.165-.208-.367-.272c-.43-.137-.8-.474-.8-.728 0-.098-.187-.178-.416-.178s-.417-.075-.417-.167-.113-.167-.25-.167a.25.25 0 0 1-.25-.25c0-.148-.153-.25-.377-.25-.208 0-.518-.187-.7-.416s-.472-.417-.667-.417-.494-.187-.666-.417-.445-.416-.606-.416-.335-.113-.388-.25-.248-.25-.434-.25-.34-.075-.34-.167-.112-.167-.25-.167-.25-.073-.25-.163-.187-.21-.416-.268-.417-.172-.417-.253-.187-.15-.417-.15c-.26 0-.416-.094-.416-.25s-.158-.25-.417-.25c-.23 0-.417-.075-.417-.167s-.187-.166-.416-.166c-.26 0-.417-.095-.417-.25s-.157-.25-.417-.25c-.23 0-.416-.075-.416-.167s-.105-.167-.233-.167-.275-.112-.328-.25-.248-.25-.434-.25-.34-.075-.34-.166-.187-.167-.416-.167c-.26 0-.417-.094-.417-.25s-.155-.25-.4-.25c-.22 0-.442-.113-.495-.25s-.248-.25-.434-.25-.34-.075-.34-.167-.18-.166-.4-.166-.442-.113-.494-.25-.25-.25-.435-.25-.338-.075-.338-.167-.225-.167-.5-.167-.5-.085-.5-.2c0-.25-.512-.63-.858-.638-.15-.003-.317-.117-.37-.255s-.25-.25-.435-.25-.338-.075-.338-.167-.18-.166-.4-.166-.442-.113-.495-.25-.248-.25-.434-.25-.34-.075-.34-.167-.113-.167-.25-.167a.25.25 0 0 1-.25-.25c0-.155-.157-.25-.417-.25s-.416-.094-.416-.25c0-.137-.113-.25-.25-.25s-.25-.075-.25-.166-.188-.167-.417-.167-.417-.08-.417-.18c0-.222-.42-.654-.637-.654-.088 0-.204-.113-.256-.25a.42.42 0 0 0-.363-.25c-.146 0-.514-.263-.816-.584s-.635-.583-.74-.583-.19-.08-.19-.18c0-.23-.424-.654-.654-.654-.1 0-.18-.17-.184-.375-.006-.43-.358-.96-.638-.96-.105 0-.2-.187-.2-.416s-.075-.417-.167-.417-.167-.375-.167-.833c0-.63-.06-.834-.25-.834-.164 0-.25-.164-.25-.482 0-.275.108-.523.25-.578.172-.066.25-.334.25-.85 0-.415.075-.755.167-.755s.167-.263.167-.584c0-.407.075-.583.25-.583.137 0 .25-.113.25-.25s.075-.25.166-.25.167-.187.167-.417c0-.26.094-.416.25-.416.137 0 .25-.08.25-.18 0-.23.424-.655.655-.655.098 0 .178-.112.178-.25s.113-.25.25-.25.25-.075.25-.166.115-.167.256-.167.298-.112.35-.25.2-.25.328-.25.232-.075.232-.167.188-.166.417-.166c.26 0 .416-.095.416-.25s.158-.25.417-.25c.23 0 .417-.075.417-.167s.152-.167.338-.167.382-.112.435-.25c.062-.163.322-.25.744-.25.357 0 .65-.075.65-.166s.265-.167.59-.167c.37 0 .624-.093.684-.25.068-.175.34-.25.912-.25.614 0 .815-.062.815-.25 0-.204.278-.25 1.5-.25.89 0 1.5-.068 1.5-.167 0-.106 1.39-.166 3.834-.166l3.833.166c0 .102.75.167 1.917.167 1.592 0 1.916.042 1.916.25 0 .2.248.25 1.233.25.94 0 1.254.06 1.328.25.07.184.36.25 1.1.25.56 0 1.005.074 1.005.167s.367.166.816.166c.57 0 .844.075.91.25s.334.25.85.25c.415 0 .755.075.755.167s.3.167.667.167c.48 0 .667.07.667.25 0 .173.174.25.573.25.316 0 .62.075.677.166s.36.167.676.167c.4 0 .574.076.574.25 0 .18.185.25.666.25.367 0 .667.075.667.167s.188.166.417.166c.26 0 .416.095.416.25 0 .175.176.25.584.25.32 0 .583.075.583.167s.225.167.5.167c.333 0 .5.083.5.25 0 .19.204.25.833.25.773 0 .834-.03.834-.407 0-.224.075-.453.166-.5s.167-.54.167-1.075c0-.71.067-.998.25-1.07s.25-.36.25-1.1c0-.56.074-1.005.167-1.005s.166-.367.166-.816c0-.57.075-.844.25-.91s.25-.35.25-1.008c0-.502.075-.958.167-1.015s.167-.55.167-1.093c0-.77.055-1 .25-1s.25-.213.25-.917c0-.504.075-.917.166-.917s.167-.444.167-1c0-.777.056-1 .25-1s.25-.23.25-1.083c0-.61.073-1.083.167-1.083s.166-.375.166-.834c0-.63.06-.833.25-.833.196 0 .25-.23.25-1.066 0-.793.064-1.1.25-1.16.18-.07.25-.352.25-1.018 0-.507.075-.922.167-.922s.167-.404.167-.9c0-.645.07-.925.25-.994.146-.056.25-.306.25-.6 0-.338-.083-.506-.25-.506a.25.25 0 0 1-.25-.25c0-.18-.186-.25-.667-.25-.367 0-.667-.075-.667-.166S286.07 13 285.75 13c-.407 0-.583-.075-.583-.25 0-.18-.186-.25-.667-.25-.367 0-.667-.075-.667-.167s-.3-.166-.666-.166c-.482 0-.667-.07-.667-.25 0-.19-.204-.25-.833-.25-.46 0-.834-.075-.834-.167s-.254-.167-.565-.167c-.35 0-.602-.095-.662-.25-.067-.176-.342-.25-.934-.25-.46 0-.84-.075-.84-.166s-.444-.167-1-.167c-.777 0-1-.056-1-.25s-.23-.25-1.065-.25c-.794 0-1.1-.064-1.162-.25s-.38-.25-1.267-.25c-.67 0-1.172-.07-1.172-.167s-.606-.166-1.483-.166c-1.163 0-1.502-.054-1.578-.25-.08-.208-.545-.25-2.758-.25-1.595 0-2.703-.067-2.765-.167s-1.585-.167-4-.167l-3.906.167m-245.5 2.566c0 .348-.096.602-.25.66-.184.07-.25.36-.25 1.1 0 .56-.074 1.005-.167 1.005s-.167.263-.167.584V15h.834c.63 0 .833.06.833.25s.203.25.823.25c.453 0 .87.075.927.167s.55.166 1.093.166c.77 0 1 .056 1 .25 0 .176.178.25.596.25.327 0 .707.113.845.25s.544.25.905.25.654.075.654.167.367.167.816.167c.57 0 .844.075.91.25.06.157.315.25.685.25.323 0 .588.075.588.166s.375.167.834.167c.63 0 .833.06.833.25 0 .174.175.25.573.25.316 0 .62.075.677.167s.353.166.66.166c.34 0 .593.097.65.25s.315.25.685.25c.323 0 .588.075.588.167s.265.167.59.167c.37 0 .624.093.684.25s.313.25.662.25c.31 0 .565.075.565.166s.3.167.667.167c.48 0 .667.07.667.25 0 .173.174.25.565.25.35 0 .602.096.662.25.052.137.285.25.517.25s.422.075.422.167.255.166.566.166c.35 0 .602.096.66.25.053.138.244.25.425.25s.375.075.432.167.36.167.676.167c.4 0 .574.076.574.25 0 .155.157.25.416.25.23 0 .417.075.417.166s.188.167.417.167c.26 0 .416.094.416.25s.158.25.417.25c.23 0 .417.075.417.167s.18.166.4.166.442.113.494.25.25.25.435.25.338.075.338.167.188.167.417.167c.26 0 .417.094.417.25a.25.25 0 0 0 .25.25c.137 0 .25.073.25.163s.187.21.416.268.417.172.417.253.095.15.2.15.352.187.524.417.452.416.623.416.3.113.3.25a.25.25 0 0 0 .25.25c.137 0 .252.132.255.292.007.36.382.875.638.875.105 0 .2.188.2.417s.067.416.15.416.195.188.253.417.178.417.268.417.163.183.163.406.075.454.167.5.167.28.167.498.112.508.25.645.25.518.25.845c0 .418.074.596.25.596.19 0 .25.203.25.833 0 .458.075.833.166.833s.167.34.167.756c0 .517.08.785.25.85s.25.34.25.91c0 .45.075.816.167.816s.166.3.166.666c0 .482.07.667.25.667.19 0 .25.204.25.833 0 .46.075.834.167.834s.167.375.167.833c0 .63.06.833.25.833s.25.203.25.824c0 .453.075.87.166.926s.167.44.167.85c0 .51.08.776.25.84s.25.332.25.833.08.768.25.834.25.34.25.91c0 .45.075.816.167.816s.166.3.166.666c0 .482.07.667.25.667.19 0 .25.204.25.833 0 .46.075.834.167.834s.167.375.167.833c0 .63.06.833.25.833s.25.204.25.834c0 .458.075.833.166.833s.167.377.167.84c0 .59.074.866.25.934s.25.34.25.91c0 .45.065.816.145.816s.185.354.234.786.17.814.27.847.183.43.183.88.075.82.167.82.167.265.167.59c0 .37.093.624.25.684.175.068.25.34.25.912 0 .614.062.815.25.815s.25.204.25.834c0 .458.075.833.166.833s.167.375.167.833c0 .63.06.834.25.834s.25.203.25.833c0 .458.075.833.167.833s.166.378.166.84c0 .592.074.867.25.934.17.065.25.33.25.82 0 .397.075.768.167.825s.167.438.167.848c0 .51.08.776.25.842.163.062.25.322.25.744 0 .357.075.65.166.65s.167.34.167.756c0 .517.08.785.25.85s.25.34.25.91c0 .45.075.816.167.816s.166.34.166.755c0 .517.08.785.25.85s.25.34.25.91c0 .614.062.816.25.816s.25.204.25.833c0 .46.075.834.167.834s.167.377.167.838c0 .592.073.867.25.935.154.06.25.312.25.66 0 .31.075.566.166.566s.167.375.167.833c0 .63.06.833.25.833s.25.213.25.917c0 .504.075.917.167.917s.166.375.166.833c0 .63.06.833.25.833s.25.204.25.834c0 .458.075.833.167.833s.167.34.167.755c0 .518.078.786.25.85s.25.34.25.912c0 .614.062.815.25.815s.25.204.25.834c0 .458.075.833.166.833s.167.3.167.667c0 .48.07.666.25.666.19 0 .25.204.25.834 0 .458.075.833.167.833s.166.377.166.84c0 .59.074.866.25.934s.25.34.25.91c0 .45.075.816.167.816s.167.34.167.755c0 .518.078.786.25.85s.25.34.25.912c0 .448.075.815.166.815s.167.34.167.756c0 .517.08.785.25.85s.25.34.25.91c0 .45.075.816.167.816s.166.3.166.666c0 .482.07.667.25.667.19 0 .25.204.25.833s.06.834.25.834.25.203.25.833c0 .458.075.833.167.833s.167.378.167.84c0 .592.073.867.25.934s.25.34.25.912c0 .448.075.815.166.815s.167.34.167.756c0 .517.08.785.25.85s.25.34.25.91c0 .45.075.816.167.816s.166.3.166.666c0 .482.07.667.25.667.19 0 .25.204.25.833 0 .46.075.834.167.834s.167.256.167.57c0 1.202-1.6 1.097 16.766 1.097 18.035 0 17.234.04 17.234-.882 0-.17.112-.42.25-.558s.25-.432.25-.655.075-.405.166-.405.167-.18.167-.4.112-.442.25-.494c.157-.06.25-.315.25-.685 0-.323.075-.588.167-.588s.166-.188.166-.417c0-.26.095-.417.25-.417s.25-.157.25-.416c0-.23.075-.417.167-.417s.167-.3.167-.667c0-.48.07-.666.25-.666.155 0 .25-.158.25-.417 0-.23.075-.417.166-.417s.167-.262.167-.583c0-.407.075-.583.25-.583.153 0 .25-.156.25-.4 0-.22.112-.442.25-.495s.25-.286.25-.518.075-.422.167-.422.166-.254.166-.565c0-.35.096-.602.25-.662.138-.052.25-.248.25-.434s.075-.34.167-.34.167-.225.167-.5c0-.333.083-.5.25-.5.174 0 .25-.176.25-.583 0-.32.075-.583.166-.583s.167-.18.167-.4.113-.442.25-.495c.157-.06.25-.315.25-.684 0-.324.075-.59.167-.59s.166-.187.166-.417c0-.26.095-.416.25-.416s.25-.158.25-.417c0-.23.075-.417.167-.417s.167-.3.167-.666c0-.482.07-.667.25-.667.152 0 .25-.155.25-.4 0-.22.112-.442.25-.495.146-.056.25-.305.25-.6 0-.278.075-.505.166-.505s.167-.18.167-.4.113-.442.25-.495.25-.285.25-.517.075-.422.167-.422.166-.263.166-.584c0-.407.076-.583.25-.583.156 0 .25-.157.25-.417 0-.23.075-.416.167-.416s.167-.18.167-.4.112-.442.25-.495c.157-.06.25-.315.25-.684 0-.324.075-.59.166-.59s.167-.187.167-.417c0-.26.094-.416.25-.416.18 0 .25-.186.25-.667 0-.367.075-.667.167-.667s.166-.187.166-.416c0-.26.095-.417.25-.417.142 0 .25-.15.25-.345 0-.2.113-.458.25-.595s.25-.433.25-.655.075-.405.167-.405.167-.217.167-.482c0-.275.107-.524.25-.578s.25-.306.25-.6c0-.278.075-.506.166-.506s.167-.18.167-.4.113-.442.25-.494.25-.244.25-.425.075-.375.167-.432.166-.36.166-.676c0-.4.077-.574.25-.574.156 0 .25-.157.25-.416 0-.23.075-.417.167-.417s.167-.18.167-.4.112-.442.25-.495c.157-.06.25-.315.25-.684 0-.324.075-.59.166-.59s.167-.187.167-.416c0-.26.094-.417.25-.417.18 0 .25-.185.25-.667s.07-.666.25-.666c.156 0 .25-.158.25-.417 0-.23.075-.417.167-.417s.166-.18.166-.4.113-.442.25-.494c.146-.056.25-.306.25-.6 0-.278.075-.506.167-.506s.167-.18.167-.4.112-.442.25-.494c.157-.06.25-.315.25-.685 0-.323.075-.588.166-.588s.167-.188.167-.417c0-.26.094-.417.25-.417s.25-.156.25-.406c0-.224.075-.454.167-.5s.166-.36.166-.677c0-.4.077-.573.25-.573.153 0 .25-.156.25-.4 0-.22.113-.442.25-.495.157-.06.25-.315.25-.684 0-.324.075-.59.167-.59s.167-.187.167-.417c0-.26.094-.416.25-.416s.25-.158.25-.417c0-.23.075-.417.166-.417s.167-.254.167-.565c0-.35.096-.602.25-.662.137-.052.25-.285.25-.517s.075-.422.167-.422.166-.18.166-.4.113-.442.25-.495c.146-.056.25-.306.25-.6 0-.278.075-.505.167-.505s.167-.18.167-.4.112-.442.25-.495c.157-.06.25-.315.25-.684 0-.324.075-.59.166-.59s.167-.187.167-.417c0-.26.094-.416.25-.416s.25-.158.25-.417c0-.23.074-.417.165-.417s.212-.3.27-.666.172-.667.252-.667.145-.18.145-.4.113-.442.25-.495c.146-.056.25-.305.25-.6 0-.278.075-.505.167-.505s.167-.225.167-.5c0-.333.083-.5.25-.5.155 0 .25-.157.25-.417 0-.23.075-.416.166-.416s.167-.263.167-.584c0-.407.075-.583.25-.583.154 0 .25-.156.25-.407 0-.224.075-.453.167-.5s.166-.25.166-.43.113-.372.25-.425c.155-.06.25-.313.25-.66 0-.312.075-.566.167-.566s.167-.187.167-.417c0-.26.094-.416.25-.416.18 0 .25-.186.25-.667s.07-.667.25-.667c.155 0 .25-.157.25-.416 0-.23.075-.417.166-.417s.167-.155.167-.345.113-.458.25-.595.25-.47.25-.74.075-.488.167-.488.166-.187.166-.416c0-.26.095-.417.25-.417.175 0 .25-.176.25-.583 0-.32.075-.584.167-.584s.167-.18.167-.4.112-.442.25-.494.25-.286.25-.518.075-.422.166-.422.167-.263.167-.583c0-.408.075-.584.25-.584.156 0 .25-.157.25-.416 0-.23.075-.417.167-.417s.166-.2.166-.422.113-.465.25-.518c.152-.058.25-.3.25-.643s.098-.586.25-.644c.138-.053.25-.248.25-.434s.075-.34.167-.34.167-.3.167-.667c0-.48.07-.666.25-.666.155 0 .25-.158.25-.417 0-.23.075-.417.166-.417s.167-.18.167-.4.113-.442.25-.494c.157-.06.25-.315.25-.685 0-.323.075-.588.167-.588s.166-.188.166-.417c0-.26.095-.417.25-.417.175 0 .25-.176.25-.583 0-.32.075-.583.167-.583s.167-.18.167-.4.112-.442.25-.495.25-.254.25-.446a.98.98 0 0 1 .25-.601c.137-.137.25-.432.25-.655s.075-.404.166-.404.167-.18.167-.4.112-.442.25-.495.25-.244.25-.425.075-.375.167-.43.166-.36.166-.677c0-.4.077-.573.25-.573.156 0 .25-.158.25-.417 0-.23.075-.417.167-.417s.167-.3.167-.666c0-.482.07-.667.25-.667.155 0 .25-.157.25-.417 0-.23.075-.416.166-.416s.167-.18.167-.4.112-.442.25-.495c.146-.056.25-.306.25-.6 0-.278.075-.505.167-.505s.166-.225.166-.5c0-.334.084-.5.25-.5.173 0 .25-.174.25-.566 0-.35.096-.602.25-.66.138-.053.25-.25.25-.435s.075-.338.167-.338.167-.193.167-.43.112-.54.25-.678.25-.433.25-.655.075-.405.166-.405.167-.18.167-.4.112-.442.25-.495c.157-.06.25-.315.25-.684 0-.324.075-.59.167-.59s.166-.187.166-.416c0-.26.095-.417.25-.417s.25-.157.25-.417c0-.23.075-.416.167-.416s.167-.3.167-.667c0-.48.07-.667.25-.667.155 0 .25-.157.25-.416 0-.23.075-.417.166-.417s.167-.187.167-.417c0-.26.094-.416.25-.416.173 0 .25-.174.25-.566 0-.35.096-.602.25-.66.137-.053.25-.244.25-.425s.075-.375.167-.432.166-.436.166-.843v-.74h-16.5l-16.5.167c0 .09-.112.166-.25.166-.155 0-.25.158-.25.417 0 .23-.074.417-.164.417s-.213.3-.272.666-.172.667-.252.667-.145.155-.145.345a.97.97 0 0 1-.25.595c-.138.138-.25.47-.25.74s-.075.488-.167.488-.166.18-.166.4-.113.442-.25.494c-.146.056-.25.306-.25.6 0 .278-.075.506-.167.506s-.167.3-.167.666c0 .482-.07.667-.25.667-.155 0-.25.157-.25.417 0 .23-.075.416-.166.416s-.167.3-.167.667c0 .48-.07.667-.25.667-.156 0-.25.157-.25.416 0 .23-.075.417-.167.417s-.166.262-.166.583c0 .408-.076.584-.25.584-.152 0-.25.155-.25.396 0 .218-.113.5-.25.604s-.25.423-.25.687-.075.48-.167.48-.167.18-.167.4-.112.442-.25.495c-.157.06-.25.315-.25.684 0 .324-.075.59-.166.59s-.167.18-.167.4-.113.442-.25.495c-.157.06-.25.315-.25.684 0 .324-.075.59-.167.59s-.166.187-.166.416c0 .26-.095.417-.25.417-.175 0-.25.176-.25.583 0 .32-.075.584-.167.584s-.167.18-.167.4-.112.442-.25.494c-.155.06-.25.313-.25.667s-.095.607-.25.667c-.137.052-.25.243-.25.424s-.075.375-.166.432-.167.353-.167.66c0 .34-.097.593-.25.65-.146.056-.25.306-.25.6 0 .278-.075.506-.167.506s-.166.18-.166.4-.113.442-.25.494c-.157.06-.25.315-.25.685 0 .323-.075.588-.167.588s-.167.18-.167.4-.112.442-.25.495c-.157.06-.25.315-.25.684 0 .324-.075.59-.166.59s-.167.188-.167.417c0 .26-.094.416-.25.416-.175 0-.25.176-.25.584 0 .32-.075.583-.167.583s-.166.225-.166.5c0 .333-.084.5-.25.5-.173 0-.25.174-.25.566 0 .348-.096.602-.25.66-.138.053-.25.244-.25.425s-.075.375-.167.43-.167.36-.167.677c0 .4-.076.573-.25.573-.154 0-.25.157-.25.407 0 .224-.075.453-.166.5s-.167.36-.167.677c0 .398-.076.573-.25.573-.156 0-.25.157-.25.417 0 .23-.075.416-.167.416s-.166.255-.166.566c0 .35-.096.602-.25.66-.138.053-.25.286-.25.518s-.075.422-.167.422-.167.262-.167.583c0 .408-.075.584-.25.584s-.25.185-.25.666c0 .367-.075.667-.166.667s-.167.188-.167.417c0 .26-.094.416-.25.416-.173 0-.25.174-.25.566 0 .35-.096.602-.25.66-.138.053-.25.286-.25.518s-.075.422-.167.422-.166.254-.166.566c0 .348-.096.602-.25.66-.138.053-.25.248-.25.434s-.075.34-.167.34-.167.3-.167.667c0 .48-.07.666-.25.666-.155 0-.25.158-.25.417 0 .23-.075.417-.166.417s-.167.3-.167.666c0 .482-.07.667-.25.667-.156 0-.25.157-.25.417 0 .23-.075.416-.167.416s-.166.255-.166.566c0 .35-.096.602-.25.66-.138.053-.25.286-.25.518s-.075.422-.167.422-.167.262-.167.583c0 .408-.075.584-.25.584-.146 0-.252.155-.255.375-.003.206-.115.52-.25.698a1.38 1.38 0 0 0-.245.709c0 .21-.075.384-.166.384s-.167.18-.167.4-.112.442-.25.495c-.157.06-.25.315-.25.684 0 .324-.075.59-.167.59s-.166.262-.166.583c0 .408-.076.584-.25.584-.156 0-.25.157-.25.416 0 .23-.075.417-.167.417s-.167.3-.167.667c0 .48-.07.666-.25.666-.155 0-.25.158-.25.417 0 .23-.075.417-.166.417s-.167.3-.167.666c0 .482-.07.667-.25.667-.153 0-.25.155-.25.4 0 .22-.112.442-.25.495-.146.056-.25.305-.25.6 0 .278-.075.505-.167.505s-.166.178-.166.396-.113.5-.25.604-.25.423-.25.687-.075.48-.167.48-.167.18-.167.4-.112.442-.25.494c-.157.06-.25.315-.25.685 0 .323-.075.588-.166.588s-.167.18-.167.4-.113.442-.25.495c-.157.06-.25.315-.25.684 0 .324-.075.59-.167.59s-.166.188-.166.417c0 .26-.095.416-.25.416-.175 0-.25.176-.25.584 0 .32-.075.583-.167.583s-.167.2-.167.422-.112.465-.25.518c-.152.058-.25.3-.25.643s-.098.586-.25.644c-.203.078-.25-.074-.25-.816 0-.5-.075-.91-.166-.91S89 88.028 89 87.417c0-.852-.053-1.084-.25-1.084s-.25-.25-.25-1.25c0-.722-.07-1.25-.167-1.25-.092 0-.166-.446-.166-1.005 0-.74-.066-1.03-.25-1.1s-.25-.358-.25-1.068c0-.535-.075-1.02-.167-1.076s-.167-.58-.167-1.164c0-.722-.08-1.142-.25-1.312-.162-.163-.25-.576-.25-1.184 0-.676-.07-.96-.25-1.03s-.25-.36-.25-1.078c0-.544-.074-.983-.166-.983S86 72.36 86 71.75c0-.852-.053-1.083-.25-1.083s-.25-.25-.25-1.25c0-.723-.07-1.25-.167-1.25s-.166-.473-.166-1.084c0-.852-.054-1.083-.25-1.083s-.25-.23-.25-1.083c0-.61-.073-1.084-.167-1.084s-.167-.5-.167-1.172c0-.888-.06-1.195-.25-1.267s-.25-.368-.25-1.162c0-.6-.073-1.065-.166-1.065s-.167-.447-.167-1.006c0-.74-.066-1.03-.25-1.1s-.25-.376-.25-1.235c0-.626-.075-1.185-.167-1.242s-.166-.502-.166-.99c0-.585-.085-.957-.25-1.094-.17-.14-.25-.52-.25-1.187 0-.76-.056-.98-.25-.98-.2 0-.25-.25-.25-1.25 0-.722-.07-1.25-.167-1.25s-.167-.472-.167-1.083c0-.852-.053-1.083-.25-1.083s-.25-.232-.25-1.084c0-.61-.072-1.083-.166-1.083s-.167-.502-.167-1.172c0-.888-.06-1.195-.25-1.268S80 40.692 80 39.9c0-.6-.073-1.066-.167-1.066s-.166-.446-.166-1.005c0-.74-.066-1.03-.25-1.1s-.25-.36-.25-1.078c0-.544-.075-.982-.167-.982s-.167-.53-.167-1.256c0-.962-.058-1.277-.25-1.35-.183-.07-.25-.36-.25-1.078 0-.543-.074-.982-.166-.982S78 29.528 78 28.917c0-.852-.053-1.084-.25-1.084s-.25-.25-.25-1.25-.05-1.25-.25-1.25-.25-.23-.25-1.083c0-.61-.073-1.083-.167-1.083s-.166-.375-.166-.834c0-.63-.06-.833-.25-.833-.18 0-.25-.185-.25-.667 0-.366-.075-.666-.167-.666s-.167-.265-.167-.59c0-.37-.093-.624-.25-.684-.137-.053-.25-.276-.25-.495s-.075-.4-.166-.4-.167-.14-.167-.3-.187-.45-.417-.623-.416-.407-.416-.523-.113-.21-.25-.21-.25-.14-.25-.3-.188-.45-.417-.623-.417-.407-.417-.523-.112-.2-.25-.2-.25-.113-.25-.25-.067-.25-.15-.25-.326-.187-.542-.414-.523-.415-.684-.417-.29-.078-.29-.17-.113-.167-.25-.167a.25.25 0 0 1-.25-.25c0-.138-.146-.25-.324-.25s-.37-.075-.426-.167-.286-.166-.5-.166c-.25 0-.407-.096-.407-.25 0-.175-.176-.25-.583-.25-.32 0-.584-.075-.584-.167s-.3-.167-.666-.167c-.482 0-.667-.07-.667-.25 0-.203-.278-.25-1.5-.25-.89 0-1.5-.068-1.5-.166 0-.11-9.083-.167-26.917-.167H9.167v.566m157.5.267c0 .46-.075.834-.167.834s-.167.438-.167.982c0 .72-.067 1.008-.25 1.078-.176.068-.25.343-.25.934 0 .462-.075.84-.166.84s-.167.444-.167 1c0 .778-.056 1-.25 1s-.25.23-.25 1.066c0 .793-.064 1.1-.25 1.16-.17.065-.25.332-.25.84 0 .4-.075.792-.167.85s-.166.548-.166 1.093c0 .77-.056 1-.25 1s-.25.23-.25 1.083c0 .61-.073 1.084-.167 1.084s-.167.367-.167.815c0 .57-.075.844-.25.912-.184.07-.25.36-.25 1.1 0 .56-.074 1.005-.166 1.005s-.167.444-.167 1c0 .778-.056 1-.25 1s-.25.213-.25.917c0 .504-.075.916-.167.916s-.166.44-.166.983c0 .72-.067 1.007-.25 1.078s-.25.36-.25 1.1c0 .782-.056 1.005-.25 1.005s-.25.203-.25.823c0 .453-.075.87-.167.927s-.167.54-.167 1.075c0 .71-.067.998-.25 1.07s-.25.36-.25 1.1c0 .56-.074 1.005-.166 1.005s-.167.367-.167.816c0 .57-.075.844-.25.91s-.25.35-.25 1.008c0 .502-.075.958-.167 1.015s-.166.54-.166 1.075c0 .71-.068.998-.25 1.07s-.25.342-.25.934c0 .46-.075.84-.167.84s-.167.444-.167 1c0 .777-.055 1-.25 1s-.25.23-.25 1.083c0 .61-.072 1.083-.166 1.083s-.167.367-.167.816c0 .57-.075.844-.25.91-.183.07-.25.36-.25 1.084s-.067 1.013-.25 1.083-.25.35-.25 1.008c0 .502-.075.958-.167 1.015s-.166.54-.166 1.075c0 .71-.068.998-.25 1.07-.17.065-.25.332-.25.84 0 .4-.075.792-.167.848s-.167.55-.167 1.094c0 .77-.055 1-.25 1s-.25.23-.25 1.083c0 .61-.072 1.083-.166 1.083s-.167.375-.167.834c0 .63-.06.833-.25.833-.197 0-.25.23-.25 1.083 0 .61-.073 1.084-.167 1.084s-.166.438-.166.982c0 .72-.067 1.008-.25 1.078-.177.068-.25.343-.25.934 0 .462-.075.84-.167.84s-.167.44-.167.982c0 .72-.067 1.008-.25 1.078s-.25.36-.25 1.084-.066 1.013-.25 1.083c-.17.066-.25.334-.25.85 0 .415-.075.755-.166.755S151 83.8 151 84.4c0 .793-.064 1.1-.25 1.16s-.25.362-.25 1.1c0 .56-.074 1.006-.167 1.006s-.166.367-.166.815c0 .57-.075.844-.25.912-.184.07-.25.36-.25 1.1 0 .56-.074 1.005-.167 1.005s-.167.44-.167.982c0 .72-.067 1.008-.25 1.078-.176.068-.25.343-.25.935 0 .46-.075.838-.166.838s-.167.445-.167 1c0 .778-.056 1-.25 1s-.25.232-.25 1.084c0 .61-.073 1.083-.167 1.083s-.166.367-.166.816c0 .57-.075.844-.25.91-.184.07-.25.36-.25 1.083s-.067 1.013-.25 1.084-.25.36-.25 1.1c0 .56-.074 1.005-.167 1.005s-.167.367-.167.816c0 .57-.075.844-.25.91-.184.07-.25.36-.25 1.1 0 .56-.074 1.005-.166 1.005s-.167.445-.167 1c0 .778-.056 1-.25 1s-.25.213-.25.917c0 .504-.075.917-.167.917s-.166.444-.166 1c0 .777-.056 1-.25 1s-.25.23-.25 1.083c0 .61-.073 1.083-.167 1.083s-.167.367-.167.816c0 .57-.075.844-.25.91-.183.07-.25.36-.25 1.084s-.066 1.013-.25 1.083-.25.36-.25 1.1c0 .56-.074 1.005-.166 1.005s-.167.343-.167.762c0 .455-.1.863-.25 1.012s-.25.563-.25 1.062c0 .446-.075.858-.167.914s-.166.55-.166 1.094c0 .77-.056 1-.25 1s-.25.203-.25.833v.833H173V130c0-.63.06-.833.25-.833s.25-.204.25-.834c0-.458.075-.833.167-.833s.166-.472.166-1.083c0-.852.054-1.084.25-1.084s.25-.23.25-1.083c0-.61.073-1.083.167-1.083s.167-.367.167-.816c0-.57.075-.844.25-.91.184-.07.25-.362.25-1.1 0-.783.055-1.006.25-1.006s.25-.222.25-1c0-.555.074-1 .166-1s.167-.38.167-.845c0-.53.094-.94.25-1.095s.25-.564.25-1.072c0-.45.075-.82.167-.82s.166-.472.166-1.083c0-.852.054-1.084.25-1.084.19 0 .25-.202.25-.823 0-.453.075-.87.167-.927s.167-.548.167-1.093c0-.77.055-1 .25-1s.25-.23.25-1.083c0-.61.072-1.084.166-1.084s.167-.375.167-.833c0-.63.06-.833.25-.833s.25-.22.25-1c0-.545.075-1.037.167-1.094s.166-.548.166-1.093c0-.77.056-1 .25-1 .187 0 .252-.2.256-.792.003-.435.115-.937.25-1.115s.244-.678.244-1.125c0-.44.075-.8.167-.8s.167-.473.167-1.084c0-.852.053-1.083.25-1.083.19 0 .25-.204.25-.833 0-.46.075-.834.166-.834s.167-.472.167-1.083c0-.852.053-1.083.25-1.083s.25-.223.25-1c0-.556.074-1 .167-1s.166-.405.166-.9c0-.645.07-.926.25-.995s.25-.352.25-1.018c0-.507.075-.922.167-.922s.167-.472.167-1.083c0-.852.053-1.083.25-1.083.188 0 .25-.203.25-.824 0-.453.075-.87.166-.926s.167-.55.167-1.094c0-.77.056-1 .25-1s.25-.23.25-1.083.053-1.083.25-1.083c.19 0 .25-.204.25-.834 0-.458.075-.833.167-.833s.166-.466.166-1.066c0-.793.064-1.1.25-1.16s.25-.352.25-1.018c0-.507.075-.922.167-.922s.167-.404.167-.9c0-.645.07-.925.25-.994s.25-.352.25-1.018c0-.507.075-.922.166-.922s.167-.472.167-1.083c0-.852.053-1.084.25-1.084s.25-.23.25-1.083c0-.61.073-1.083.167-1.083s.166-.375.166-.834c0-.63.06-.833.25-.833.197 0 .25-.23.25-1.083 0-.61.073-1.084.167-1.084s.167-.444.167-1c0-.777.055-1 .25-1 .188 0 .25-.2.25-.813 0-.52.1-.887.25-1.02s.25-.5.25-1.104c0-.493.075-.896.166-.896s.167-.472.167-1.083c0-.852.053-1.084.25-1.084.19 0 .25-.203.25-.833 0-.458.075-.833.167-.833s.166-.473.166-1.084c0-.852.054-1.083.25-1.083s.25-.23.25-1.083c0-.61.073-1.084.167-1.084s.167-.375.167-.833c0-.63.06-.833.25-.833s.25-.223.25-1c0-.556.074-1 .166-1s.167-.473.167-1.084c0-.852.053-1.083.25-1.083.19 0 .25-.205.25-.845 0-.53.094-.94.25-1.095s.25-.564.25-1.072c0-.452.075-.82.167-.82s.166-.473.166-1.084c0-.852.054-1.083.25-1.083.19 0 .25-.204.25-.833 0-.46.075-.834.167-.834s.167-.472.167-1.083c0-.852.053-1.083.25-1.083s.25-.223.25-1c0-.556.074-1 .166-1s.167-.405.167-.9c0-.645.07-.926.25-.995s.25-.352.25-1.018c0-.507.075-.922.167-.922s.166-.472.166-1.083c0-.852.054-1.083.25-1.083.19 0 .25-.203.25-.824 0-.453.075-.87.167-.926s.167-.55.167-1.094c0-.77.055-1 .25-1s.25-.23.25-1.083.053-1.083.25-1.083c.19 0 .25-.204.25-.834 0-.458.075-.833.166-.833s.167-.444.167-1v-1h-31.833v.833m172-.666c0 .098-.61.166-1.5.166-1.223 0-1.5.047-1.5.25 0 .175-.176.25-.584.25-.32 0-.583.075-.583.167s-.265.167-.59.167c-.37 0-.624.093-.684.25-.053.137-.275.25-.495.25s-.4.075-.4.166-.112.167-.25.167a.25.25 0 0 0-.25.25c0 .142-.15.25-.345.25-.37 0-.82.36-.82.655a.18.18 0 0 1-.179.178c-.23 0-.655.424-.655.655 0 .098-.112.18-.25.18a.25.25 0 0 0-.25.25c0 .137-.08.25-.178.25-.23 0-.655.424-.655.654 0 .1-.08.18-.18.18-.294 0-.654.452-.654.82 0 .196-.11.346-.25.346a.25.25 0 0 0-.25.25c0 .137-.075.25-.167.25s-.167.187-.167.416c0 .26-.094.417-.25.417s-.25.157-.25.417c0 .23-.075.416-.166.416s-.167.3-.167.667c0 .48-.07.667-.25.667-.153 0-.25.155-.25.4 0 .22-.113.442-.25.494s-.25.25-.25.435-.075.338-.167.338-.166.255-.166.566c0 .35-.096.602-.25.66-.138.053-.25.286-.25.518s-.075.422-.167.422-.167.262-.167.583c0 .408-.075.584-.25.584-.155 0-.25.157-.25.416 0 .23-.075.417-.166.417s-.167.18-.167.4-.113.442-.25.495c-.157.06-.25.315-.25.684 0 .324-.075.59-.167.59s-.166.187-.166.416c0 .26-.095.417-.25.417-.18 0-.25.185-.25.667 0 .366-.075.666-.167.666s-.167.188-.167.417c0 .26-.094.417-.25.417-.14 0-.25.15-.25.345a.97.97 0 0 1-.25.595c-.137.138-.25.47-.25.738s-.075.488-.166.488-.167.18-.167.4-.113.442-.25.495c-.146.056-.25.306-.25.6 0 .278-.075.505-.167.505s-.166.188-.166.417c0 .26-.095.417-.25.417-.167 0-.25.166-.25.5 0 .275-.075.5-.167.5s-.167.262-.167.583c0 .407-.075.583-.25.583-.155 0-.25.158-.25.417 0 .23-.075.417-.166.417s-.167.18-.167.4-.113.442-.25.494c-.157.06-.25.315-.25.685 0 .323-.075.588-.167.588s-.166.188-.166.417c0 .26-.095.417-.25.417-.18 0-.25.185-.25.666s-.07.667-.25.667c-.156 0-.25.157-.25.417 0 .23-.075.416-.167.416s-.167.18-.167.4-.112.442-.25.495c-.146.056-.25.306-.25.6 0 .278-.075.505-.166.505s-.167.18-.167.4-.113.442-.25.495c-.157.06-.25.315-.25.684 0 .324-.075.59-.167.59s-.166.188-.166.417c0 .26-.095.416-.25.416s-.25.157-.25.407c0 .224-.075.453-.167.5s-.167.36-.167.677c0 .398-.076.573-.25.573-.155 0-.25.157-.25.417 0 .23-.075.416-.166.416s-.167.18-.167.4-.113.442-.25.495c-.157.06-.25.315-.25.684 0 .412-.075.59-.25.59-.156 0-.25.157-.25.417 0 .23-.075.416-.167.416s-.166.255-.166.566c0 .35-.096.602-.25.66-.138.053-.25.286-.25.518S310.092 58 310 58s-.167.18-.167.4-.112.442-.25.495c-.146.056-.25.305-.25.6 0 .278-.075.505-.166.505s-.167.18-.167.4-.113.442-.25.495c-.157.06-.25.315-.25.684 0 .324-.075.59-.167.59s-.166.187-.166.416c0 .26-.095.417-.25.417-.147 0-.253.155-.256.375a1.4 1.4 0 0 1-.25.699 1.38 1.38 0 0 0-.244.708c0 .212-.075.385-.167.385s-.167.18-.167.4-.112.442-.25.494c-.157.06-.25.315-.25.685 0 .323-.075.588-.166.588s-.167.188-.167.417c0 .26-.094.417-.25.417s-.25.157-.25.416c0 .23-.075.417-.167.417s-.166.254-.166.566c0 .348-.096.602-.25.66-.138.053-.25.244-.25.425s-.075.375-.167.43-.167.286-.167.5c0 .25-.096.407-.25.407-.174 0-.25.176-.25.583 0 .32-.075.584-.166.584s-.167.187-.167.416c0 .26-.094.417-.25.417-.18 0-.25.185-.25.667s-.07.666-.25.666c-.156 0-.25.158-.25.417 0 .23-.075.417-.167.417s-.166.155-.166.345-.113.458-.25.595-.25.47-.25.738-.075.488-.167.488-.167.188-.167.417c0 .26-.094.417-.25.417-.174 0-.25.176-.25.583 0 .32-.075.583-.166.583s-.167.225-.167.5c0 .334-.083.5-.25.5-.156 0-.25.158-.25.417 0 .23-.075.417-.167.417s-.166.262-.166.583c0 .407-.076.583-.25.583-.154 0-.25.157-.25.407 0 .224-.075.453-.167.5s-.167.25-.167.432-.112.372-.25.424c-.152.06-.25.31-.25.644s-.098.585-.25.644c-.137.052-.25.243-.25.424s-.075.375-.166.432-.167.36-.167.677c0 .398-.076.573-.25.573-.156 0-.25.157-.25.417 0 .23-.075.416-.167.416s-.166.18-.166.4-.113.442-.25.495c-.157.06-.25.315-.25.684 0 .324-.075.59-.167.59s-.167.188-.167.417c0 .26-.094.416-.25.416-.174 0-.25.176-.25.584 0 .32-.075.583-.166.583s-.167.18-.167.4-.113.442-.25.495-.25.253-.25.446a.98.98 0 0 1-.25.6c-.138.138-.25.433-.25.655s-.075.405-.167.405-.166.18-.166.4-.113.442-.25.495c-.157.06-.25.315-.25.684 0 .324-.075.59-.167.59s-.167.187-.167.416c0 .26-.094.417-.25.417s-.25.156-.25.407c0 .224-.075.453-.166.5s-.167.36-.167.676c0 .4-.076.574-.25.574-.156 0-.25.157-.25.416 0 .23-.075.417-.167.417s-.166.18-.166.4-.113.442-.25.495c-.157.06-.25.315-.25.684 0 .324-.075.59-.167.59s-.167.187-.167.416c0 .26-.094.417-.25.417-.173 0-.25.174-.25.566 0 .348-.095.602-.25.66-.137.053-.25.244-.25.425s-.075.375-.166.43-.167.254-.167.44-.112.448-.25.585a1.06 1.06 0 0 0-.25.655c0 .223-.075.405-.167.405s-.166.18-.166.4-.113.442-.25.494c-.157.06-.25.315-.25.685 0 .323-.075.588-.167.588s-.167.188-.167.417c0 .26-.094.417-.25.417s-.25.157-.25.416c0 .23-.075.417-.166.417s-.167.3-.167.667c0 .48-.07.666-.25.666-.156 0-.25.158-.25.417 0 .23-.075.417-.167.417s-.166.262-.166.583c0 .407-.076.583-.25.583-.153 0-.25.156-.25.4 0 .22-.113.442-.25.495s-.25.286-.25.518-.075.422-.167.422-.167.254-.167.565c0 .35-.095.602-.25.662-.137.052-.25.248-.25.434s-.075.34-.166.34-.167.225-.167.5c0 .333-.083.5-.25.5-.175 0-.25.176-.25.583 0 .32-.075.583-.167.583s-.166.188-.166.417c0 .26-.095.417-.25.417-.18 0-.25.185-.25.666 0 .367-.075.667-.167.667s-.167.188-.167.417c0 .26-.094.416-.25.416s-.25.158-.25.417c0 .23-.075.417-.166.417s-.167.3-.167.666c0 .482-.07.667-.25.667-.153 0-.25.155-.25.4 0 .22-.113.442-.25.495-.145.055-.25.304-.25.59 0 .272-.075.542-.167.598s-.166.25-.166.427c0 .318.28.323 16.75.323h16.75v-.4c0-.22.112-.442.25-.494.157-.06.25-.315.25-.685 0-.323.075-.588.166-.588s.167-.255.167-.566c0-.35.096-.602.25-.66s.25-.315.25-.685c0-.323.075-.588.167-.588s.166-.18.166-.4.113-.442.25-.495c.157-.06.25-.315.25-.684 0-.324.075-.59.167-.59s.167-.263.167-.583c0-.408.075-.584.25-.584.18 0 .25-.185.25-.666 0-.367.075-.667.166-.667s.167-.18.167-.4.112-.442.25-.495c.157-.06.25-.315.25-.684 0-.324.075-.59.167-.59s.166-.262.166-.583c0-.407.076-.583.25-.583.18 0 .25-.186.25-.667s.07-.667.25-.667c.156 0 .25-.157.25-.416 0-.23.075-.417.167-.417s.167-.292.167-.65c0-.423.087-.682.25-.745.146-.056.25-.305.25-.6 0-.278.075-.505.166-.505s.167-.112.167-.25c0-.22 2.25-.25 19.25-.25 21.917 0 19.917-.142 19.917 1.417 0 .412.075.75.166.75s.167.446.167 1.005c0 .74.066 1.03.25 1.1s.25.36.25 1.078c0 .544.074.982.167.982s.166.407.166.905c0 .582.1.994.25 1.155s.25.574.25 1.17c0 .505.075.965.167 1.02s.167.474.167.927c0 .62.06.823.25.823.196 0 .25.232.25 1.084s.053 1.083.25 1.083.25.22.25 1c0 .545.075 1.037.166 1.093s.167.36.167.677v.573h29.333v-1.25c0-1-.05-1.25-.25-1.25-.194 0-.25-.22-.25-1 0-.544-.075-1.036-.166-1.093s-.167-.55-.167-1.093c0-.77-.056-1-.25-1s-.25-.232-.25-1.084c0-.596-.066-1.083-.147-1.083s-.18-.464-.22-1.032c-.042-.58-.16-1.06-.27-1.097s-.195-.406-.195-.885c0-.617-.062-.82-.25-.82-.197 0-.25-.232-.25-1.084 0-.61-.073-1.083-.167-1.083s-.167-.444-.167-1c0-.778-.055-1-.25-1s-.25-.23-.25-1.083c0-.61-.072-1.084-.166-1.084s-.167-.375-.167-.833c0-.63-.06-.833-.25-.833-.197 0-.25-.232-.25-1.084 0-.61-.073-1.083-.167-1.083s-.166-.472-.166-1.083c0-.852-.054-1.084-.25-1.084s-.25-.22-.25-1c0-.544-.075-1.036-.167-1.093s-.167-.468-.167-.915c0-.5-.096-.907-.25-1.06s-.25-.557-.25-1.012c0-.42-.075-.762-.166-.762s-.167-.446-.167-1.005c0-.74-.066-1.03-.25-1.1s-.25-.368-.25-1.162c0-.836-.054-1.065-.25-1.065s-.25-.22-.25-1c0-.545-.075-1.037-.167-1.094s-.166-.548-.166-1.093c0-.77-.056-1-.25-1s-.25-.213-.25-.917c0-.504-.075-.916-.167-.916s-.167-.445-.167-1c0-.778-.055-1-.25-1s-.25-.232-.25-1.084c0-.61-.072-1.083-.166-1.083s-.167-.446-.167-1.005c0-.74-.066-1.03-.25-1.1s-.25-.36-.25-1.078c0-.544-.074-.983-.167-.983s-.166-.377-.166-.838c0-.592-.074-.867-.25-.935-.183-.07-.25-.36-.25-1.078 0-.543-.075-.982-.167-.982s-.167-.446-.167-1.005c0-.74-.066-1.03-.25-1.1s-.25-.36-.25-1.084-.066-1.013-.25-1.083c-.175-.067-.25-.34-.25-.91 0-.45-.075-.816-.166-.816s-.167-.472-.167-1.083c0-.852-.053-1.084-.25-1.084s-.25-.222-.25-1c0-.555-.074-1-.167-1s-.166-.472-.166-1.083c0-.852-.054-1.083-.25-1.083s-.25-.22-.25-1c0-.545-.075-1.037-.167-1.094s-.167-.473-.167-.926c0-.62-.06-.824-.25-.824-.196 0-.25-.23-.25-1.083 0-.61-.072-1.083-.166-1.083s-.167-.447-.167-1.006c0-.74-.066-1.03-.25-1.1s-.25-.36-.25-1.078c0-.543-.074-.982-.167-.982s-.166-.407-.166-.905c0-.582-.1-.994-.25-1.155-.15-.15-.25-.556-.25-1.01 0-.567-.065-.762-.25-.762-.197 0-.25-.232-.25-1.084 0-.61-.073-1.083-.167-1.083s-.167-.446-.167-1.005c0-.74-.066-1.03-.25-1.1s-.25-.36-.25-1.078c0-.544-.074-.983-.166-.983s-.167-.446-.167-1.005c0-.74-.066-1.03-.25-1.1-.175-.067-.25-.34-.25-.91 0-.45-.075-.816-.167-.816s-.166-.472-.166-1.083c0-.852-.054-1.084-.25-1.084s-.25-.23-.25-1.083c0-.61-.073-1.083-.167-1.083s-.167-.37-.167-.822c0-.508-.095-.917-.25-1.07s-.25-.566-.25-1.095c0-.64-.06-.846-.25-.846s-.25-.222-.25-1c0-.555-.074-1-.166-1s-.167-.472-.167-1.083c0-.852-.053-1.083-.25-1.083s-.25-.232-.25-1.084c0-.61-.073-1.083-.167-1.083s-.166-.444-.166-1c0-.778-.056-1-.25-1s-.25-.213-.25-.917c0-.504-.075-.916-.167-.916s-.167-.445-.167-1c0-.778-.055-1-.25-1s-.25-.232-.25-1.084c0-.61-.072-1.083-.166-1.083s-.167-.446-.167-1.005c0-.74-.066-1.03-.25-1.1s-.25-.36-.25-1.078c0-.544-.074-.983-.167-.983s-.166-.377-.166-.838c0-.592-.074-.867-.25-.935-.183-.07-.25-.36-.25-1.078V10.5h-14l-14 .167m5.762 35.777c.16.062.238.354.238.907 0 .45.075.816.166.816s.167.446.167 1.005c0 .74.066 1.03.25 1.1s.25.36.25 1.078c0 .544.074.982.167.982s.166.473.166 1.084c0 .852.054 1.083.25 1.083s.25.22.25 1c0 .545.075 1.037.167 1.093s.167.44.167.85c0 .51.08.776.25.84.186.07.25.368.25 1.16 0 .836.054 1.066.25 1.066s.25.222.25 1c0 .556.074 1 .166 1s.167.446.167 1.005c0 .74.066 1.03.25 1.1s.25.368.25 1.162c0 .6.073 1.065.167 1.065s.166.375.166.834c0 .63.06.833.25.833.197 0 .25.23.25 1.083 0 .61.073 1.084.167 1.084s.167.444.167 1c0 .777.055 1 .25 1s.25.23.25 1.083c0 .61.072 1.083.166 1.083s.167.375.167.834c0 .63.06.833.25.833.197 0 .25.23.25 1.083 0 .61.073 1.084.167 1.084s.166.446.166 1.005c0 .74.066 1.03.25 1.1s.25.36.25 1.083.067 1.013.25 1.084.25.36.25 1.078c0 .543.075.982.167.982s.167.375.167.833c0 .63.06.834.25.834.166 0 .25.166.25.5v.5h-24.334v-.483c0-.274.108-.523.25-.578s.25-.305.25-.6c0-.278.075-.505.167-.505s.167-.3.167-.667c0-.48.07-.666.25-.666.174 0 .25-.176.25-.584 0-.32.075-.583.166-.583s.167-.225.167-.5c0-.333.083-.5.25-.5.173 0 .25-.174.25-.566 0-.348.096-.602.25-.66s.25-.315.25-.684c0-.324.075-.59.167-.59s.166-.254.166-.566c0-.348.096-.602.25-.66.138-.053.25-.286.25-.518s.075-.422.167-.422.167-.254.167-.565c0-.35.095-.602.25-.662s.25-.315.25-.684c0-.324.075-.59.166-.59s.167-.254.167-.565c0-.35.096-.602.25-.662.137-.052.25-.285.25-.517s.075-.422.167-.422.166-.263.166-.584c0-.407.076-.583.25-.583.18 0 .25-.185.25-.667 0-.366.075-.666.167-.666s.167-.263.167-.584c0-.407.075-.583.25-.583.157 0 .25-.16.25-.43 0-.235.112-.54.25-.678s.25-.432.25-.655.075-.405.166-.405.167-.3.167-.666c0-.482.07-.667.25-.667.175 0 .25-.176.25-.583 0-.32.075-.584.167-.584s.166-.217.166-.482c0-.275.108-.523.25-.578s.25-.306.25-.6c0-.278.075-.505.167-.505s.167-.3.167-.667c0-.48.07-.667.25-.667.174 0 .25-.176.25-.583 0-.32.075-.583.166-.583s.167-.3.167-.667c0-.48.07-.667.25-.667.156 0 .25-.157.25-.416 0-.23.075-.417.167-.417s.166-.3.166-.667c0-.48.07-.666.25-.666.173 0 .25-.174.25-.566 0-.35.096-.602.25-.66s.25-.315.25-.685c0-.323.075-.588.167-.588s.167-.18.167-.4.112-.442.25-.495c.157-.06.25-.315.25-.684 0-.324.075-.59.166-.59s.167-.254.167-.566c0-.348.096-.602.25-.66s.25-.315.25-.684c0-.324.075-.59.167-.59s.166-.18.166-.4.113-.442.25-.495c.157-.06.25-.315.25-.684 0-.324.075-.59.167-.59s.167-.256.167-.57c0-.66.39-.917.47-.31.03.22.16.44.292.49" fill="#1c1c74" fill-rule="evenodd"/></svg>