<svg xmlns="http://www.w3.org/2000/svg" viewBox="0 0 202.2 100.06"><defs><style>.cls-1{fill:#00b67a;}.cls-2{fill:#dcdce6;}.cls-3{fill:#fff;}.cls-4{fill:#005128;}.cls-5{fill:#bababa;}</style></defs><title>Artboard 1</title><g id="Layer_1" data-name="Layer 1"><rect class="cls-1" x="31.8" y="42.68" width="25.95" height="25.95"/><rect class="cls-1" x="59.91" y="42.68" width="25.95" height="25.95"/><rect class="cls-1" x="88.03" y="42.68" width="25.95" height="25.95"/><rect class="cls-1" x="116.14" y="42.68" width="25.95" height="25.95"/><rect class="cls-1" x="144.14" y="42.68" width="25.95" height="25.95"/><rect class="cls-2" x="157.23" y="42.68" width="12.98" height="25.95"/><path class="cls-3" d="M44.77,60.17l3.95-1,1.65,5.08Zm9.09-6.57h-7l-2.14-6.54L42.64,53.6h-7l5.62,4.06L39.18,64.2l5.62-4.06,3.46-2.48,5.6-4.06Z"/><path class="cls-3" d="M72.89,60.17l4-1,1.65,5.08ZM82,53.6H75l-2.13-6.54L70.75,53.6H63.81l5.62,4.06L67.29,64.2l5.63-4.06,3.46-2.48L82,53.6Z"/><path class="cls-3" d="M101,60.17l4-1,1.65,5.08Zm9.09-6.57h-7L101,47.06,98.87,53.6h-7l5.62,4.06L95.41,64.2,101,60.14l3.46-2.48,5.6-4.06Z"/><path class="cls-3" d="M129.12,60.17l3.94-1,1.65,5.08Zm9.08-6.57h-6.95l-2.13-6.54L127,53.6h-7l5.63,4.06-2.14,6.54,5.62-4.06,3.47-2.48,5.59-4.06Z"/><path class="cls-3" d="M157.23,60.17l4-1,1.65,5.08Zm9.09-6.57h-6.95l-2.14-6.54L155.1,53.6h-6.95l5.62,4.06-2.13,6.54,5.62-4.06,3.46-2.48,5.6-4.06Z"/><path d="M118.52,86.49h8.66V88.1h-3.41v9.09H121.9V88.1h-3.4l0-1.61Zm8.28,3h1.6v1.5h0a2,2,0,0,1,.3-.61,2.09,2.09,0,0,1,.53-.54,2.44,2.44,0,0,1,.68-.4,2,2,0,0,1,.76-.16h.41a.91.91,0,0,0,.23,0v1.64a2.07,2.07,0,0,0-.37,0,2.31,2.31,0,0,0-.37,0,1.84,1.84,0,0,0-.81.17,1.82,1.82,0,0,0-.67.5,2.55,2.55,0,0,0-.46.83,3.3,3.3,0,0,0-.17,1.14v3.68h-1.71l0-7.71Zm12.39,7.75H137.5V96.11h0a2.42,2.42,0,0,1-.94.94,2.49,2.49,0,0,1-1.27.35,2.84,2.84,0,0,1-2.21-.75,3.34,3.34,0,0,1-.68-2.28V89.44h1.71v4.75a2,2,0,0,0,.4,1.44,1.4,1.4,0,0,0,1.1.43,2.07,2.07,0,0,0,.9-.17,1.54,1.54,0,0,0,.58-.44,1.69,1.69,0,0,0,.33-.67,3.22,3.22,0,0,0,.1-.84v-4.5h1.71v7.75Zm2.91-2.48a1.3,1.3,0,0,0,.57,1.05,2.2,2.2,0,0,0,1.18.3,3.62,3.62,0,0,0,.54,0,2.5,2.5,0,0,0,.57-.14.9.9,0,0,0,.44-.32.67.67,0,0,0,.16-.52.76.76,0,0,0-.24-.55,2.1,2.1,0,0,0-.57-.34,4.87,4.87,0,0,0-.8-.21l-.91-.2a9.07,9.07,0,0,1-.93-.26,2.75,2.75,0,0,1-.8-.41,1.8,1.8,0,0,1-.56-.66,2.06,2.06,0,0,1-.21-1,1.73,1.73,0,0,1,.31-1.06,2.36,2.36,0,0,1,.79-.68,3.53,3.53,0,0,1,1.05-.37,5.42,5.42,0,0,1,1.1-.1,5.18,5.18,0,0,1,1.14.12,3,3,0,0,1,1,.42,2.25,2.25,0,0,1,.73.74,2.6,2.6,0,0,1,.37,1.1h-1.79a1.08,1.08,0,0,0-.55-.83,2.35,2.35,0,0,0-1-.21l-.42,0a1.79,1.79,0,0,0-.47.11,1.12,1.12,0,0,0-.38.24.57.57,0,0,0-.15.42.61.61,0,0,0,.21.49,1.9,1.9,0,0,0,.57.33,4.83,4.83,0,0,0,.8.22c.3,0,.61.13.93.2a9.41,9.41,0,0,1,.91.25,2.45,2.45,0,0,1,.8.42,2,2,0,0,1,.57.64,2,2,0,0,1,.21,1,2.08,2.08,0,0,1-.31,1.17,2.55,2.55,0,0,1-.81.79,4.15,4.15,0,0,1-1.11.44,5.78,5.78,0,0,1-1.22.14,4.85,4.85,0,0,1-1.35-.17,3.22,3.22,0,0,1-1.09-.5,2.4,2.4,0,0,1-.71-.84,2.72,2.72,0,0,1-.28-1.2h1.72v0Zm5.63-5.27H149V87.1h1.71v2.33h1.54V90.7h-1.54v4.14a3.38,3.38,0,0,0,0,.47.71.71,0,0,0,.1.32.48.48,0,0,0,.24.2,1.12,1.12,0,0,0,.46.08,2.06,2.06,0,0,0,.35,0,2.08,2.08,0,0,0,.36-.06v1.33l-.56.06a3.26,3.26,0,0,1-.55,0,3.9,3.9,0,0,1-1.09-.13,1.72,1.72,0,0,1-.64-.37,1.22,1.22,0,0,1-.31-.62,4.22,4.22,0,0,1-.1-.85V90.71h-1.3V89.42h0Zm5.75,0h1.61V90.5h0a2.09,2.09,0,0,1,1-1,3.18,3.18,0,0,1,1.39-.3,3.47,3.47,0,0,1,1.6.33,3,3,0,0,1,1.13.88,3.7,3.7,0,0,1,.67,1.31,6,6,0,0,1,.23,1.6,5.73,5.73,0,0,1-.2,1.51,3.92,3.92,0,0,1-.62,1.3,3,3,0,0,1-2.52,1.24,4.63,4.63,0,0,1-.74-.07,2.9,2.9,0,0,1-.71-.21,2.38,2.38,0,0,1-.63-.39,2.09,2.09,0,0,1-.49-.54h0v3.87h-1.71V89.44Zm6,3.88a3.47,3.47,0,0,0-.14-1,2.58,2.58,0,0,0-.41-.87,2.27,2.27,0,0,0-.67-.61,1.81,1.81,0,0,0-.93-.23,1.91,1.91,0,0,0-1.63.74,3.43,3.43,0,0,0-.54,2,3.66,3.66,0,0,0,.15,1.08,2.38,2.38,0,0,0,.42.86,2.11,2.11,0,0,0,.69.57,2,2,0,0,0,.92.21,1.89,1.89,0,0,0,1-.24,2.44,2.44,0,0,0,.67-.61,2.6,2.6,0,0,0,.37-.87,5.05,5.05,0,0,0,.11-1Zm3-6.83h1.72V88.1h-1.72Zm0,3h1.72v7.75h-1.72V89.44Zm3.24-3h1.71v10.7H165.7V86.49Zm6.93,10.91a4.11,4.11,0,0,1-1.65-.31,3.84,3.84,0,0,1-1.23-.84A3.79,3.79,0,0,1,169,95a5.13,5.13,0,0,1-.27-1.64,4.54,4.54,0,0,1,.27-1.63,3.84,3.84,0,0,1,.75-1.29,3.39,3.39,0,0,1,1.23-.85,4.29,4.29,0,0,1,1.65-.31,4.16,4.16,0,0,1,1.66.31,3.43,3.43,0,0,1,2,2.14,5,5,0,0,1,.27,1.63,4.55,4.55,0,0,1-.27,1.64,4.06,4.06,0,0,1-.75,1.3,3.59,3.59,0,0,1-1.23.84,4.31,4.31,0,0,1-1.66.31Zm0-1.35a1.93,1.93,0,0,0,1.67-.87,2.55,2.55,0,0,0,.4-.87,3.76,3.76,0,0,0,.13-1,3.62,3.62,0,0,0-.13-1,2.32,2.32,0,0,0-.4-.87,2.12,2.12,0,0,0-.68-.62,2.1,2.1,0,0,0-1-.24,2,2,0,0,0-1,.24,2.13,2.13,0,0,0-.68.62,2.32,2.32,0,0,0-.4.87,3.62,3.62,0,0,0-.13,1,3.76,3.76,0,0,0,.13,1,2.39,2.39,0,0,0,.4.87,2.15,2.15,0,0,0,.68.63,1.88,1.88,0,0,0,1,.24Zm4.43-6.61h1.29V87.1h1.72v2.33h1.54V90.7h-1.54v4.14c0,.18,0,.32,0,.47a1.1,1.1,0,0,0,.1.32.55.55,0,0,0,.25.2,1.07,1.07,0,0,0,.45.08,2.11,2.11,0,0,0,.36,0,2.46,2.46,0,0,0,.36-.06v1.33l-.56.06a3.44,3.44,0,0,1-.56,0,3.87,3.87,0,0,1-1.08-.13,1.64,1.64,0,0,1-.64-.37,1.32,1.32,0,0,1-.32-.62,6.42,6.42,0,0,1-.1-.85V90.71h-1.29V89.42h0Z"/><path class="cls-1" d="M116.52,86.49h-7.83l-2.41-7.44-2.43,7.44H96l6.34,4.6-2.43,7.45,6.33-4.61,6.34,4.61-2.41-7.45Z"/><path class="cls-4" d="M110.73,92.77l-.54-1.69-3.91,2.84Z"/><path class="cls-5" d="M22.93,91.89V95.5h-1.3V85.86h2.84a5.37,5.37,0,0,1,1.59.21,3.07,3.07,0,0,1,1.12.61,2.42,2.42,0,0,1,.67.94,3.37,3.37,0,0,1,.21,1.23,3.06,3.06,0,0,1-.23,1.23,2.74,2.74,0,0,1-.69,1,3.21,3.21,0,0,1-1.12.63,4.87,4.87,0,0,1-1.55.22Zm0-1h1.54a3,3,0,0,0,1-.15,2.3,2.3,0,0,0,.72-.41,1.79,1.79,0,0,0,.44-.64,2.16,2.16,0,0,0,.15-.81,1.83,1.83,0,0,0-.57-1.44,2.47,2.47,0,0,0-1.73-.52H22.93Z"/><path class="cls-5" d="M31.94,88.58a3.4,3.4,0,0,1,1.34.25,2.82,2.82,0,0,1,1,.7A3.22,3.22,0,0,1,35,90.64a4.69,4.69,0,0,1,0,2.9,3.09,3.09,0,0,1-.65,1.1,2.7,2.7,0,0,1-1,.7,3.77,3.77,0,0,1-2.7,0,2.7,2.7,0,0,1-1-.7,3,3,0,0,1-.65-1.1,4.69,4.69,0,0,1,0-2.9,3.07,3.07,0,0,1,.65-1.11,2.82,2.82,0,0,1,1-.7A3.44,3.44,0,0,1,31.94,88.58Zm0,6.08a1.74,1.74,0,0,0,1.5-.68,3.82,3.82,0,0,0,0-3.78,1.74,1.74,0,0,0-1.5-.68,2.21,2.21,0,0,0-.89.17,1.69,1.69,0,0,0-.64.51A2.33,2.33,0,0,0,30,91a4,4,0,0,0-.13,1.08,3.15,3.15,0,0,0,.5,1.89A1.8,1.8,0,0,0,31.94,94.66Z"/><path class="cls-5" d="M35.86,88.69h.94a.36.36,0,0,1,.24.07.34.34,0,0,1,.13.17l1.31,4.39c0,.15.07.31.1.46s.06.3.08.45c0-.15.08-.3.12-.45s.09-.31.14-.46l1.44-4.41a.3.3,0,0,1,.12-.17.27.27,0,0,1,.2-.07h.53a.32.32,0,0,1,.22.07.3.3,0,0,1,.12.17L43,93.32c0,.15.09.31.13.46l.12.45a4,4,0,0,1,.09-.45c0-.15.07-.3.11-.46l1.33-4.39a.27.27,0,0,1,.13-.17.32.32,0,0,1,.22-.07H46L43.77,95.5h-.94c-.12,0-.2-.08-.25-.23l-1.5-4.62a1.81,1.81,0,0,1-.09-.31c0-.11,0-.21-.07-.32,0,.11,0,.21-.07.32s-.05.21-.08.32l-1.53,4.61a.27.27,0,0,1-.27.23h-.9Z"/><path class="cls-5" d="M49.85,88.58a3.24,3.24,0,0,1,1.13.2,2.54,2.54,0,0,1,.9.6,2.6,2.6,0,0,1,.59,1,3.49,3.49,0,0,1,.22,1.29.79.79,0,0,1-.06.38.26.26,0,0,1-.23.09H47.85A4.13,4.13,0,0,0,48,93.22a2.24,2.24,0,0,0,.45.79,1.66,1.66,0,0,0,.67.48,2.21,2.21,0,0,0,.87.16,2.57,2.57,0,0,0,.78-.11,3,3,0,0,0,.56-.22,3.1,3.1,0,0,0,.39-.23A.53.53,0,0,1,52,94a.27.27,0,0,1,.22.11l.34.44a2.18,2.18,0,0,1-.53.47,3.35,3.35,0,0,1-.66.32,4.64,4.64,0,0,1-.73.2,4.74,4.74,0,0,1-.75.06,3.46,3.46,0,0,1-1.3-.24,2.82,2.82,0,0,1-1-.7,3,3,0,0,1-.67-1.14A4.65,4.65,0,0,1,46.67,92a4.12,4.12,0,0,1,.21-1.33,3.26,3.26,0,0,1,.63-1.07,3,3,0,0,1,1-.71A3.21,3.21,0,0,1,49.85,88.58Zm0,.88a1.84,1.84,0,0,0-1.36.5,2.36,2.36,0,0,0-.62,1.39h3.72a2.7,2.7,0,0,0-.11-.77,1.65,1.65,0,0,0-.35-.59,1.45,1.45,0,0,0-.55-.39A1.67,1.67,0,0,0,49.87,89.46Z"/><path class="cls-5" d="M54.15,95.5V88.69h.69a.38.38,0,0,1,.27.07.45.45,0,0,1,.1.26l.07,1a3,3,0,0,1,.8-1.09,1.77,1.77,0,0,1,1.15-.4,1.93,1.93,0,0,1,.42,0,1,1,0,0,1,.35.15l-.09.89a.19.19,0,0,1-.2.17,1.3,1.3,0,0,1-.28,0,1.68,1.68,0,0,0-.41,0,1.48,1.48,0,0,0-.57.1,1.36,1.36,0,0,0-.46.28,2,2,0,0,0-.35.45,4,4,0,0,0-.28.62V95.5Z"/><path class="cls-5" d="M61.56,88.58a3.25,3.25,0,0,1,1.14.2,2.73,2.73,0,0,1,.9.6,2.6,2.6,0,0,1,.59,1,3.71,3.71,0,0,1,.22,1.29.79.79,0,0,1-.06.38.26.26,0,0,1-.23.09H59.57a3.49,3.49,0,0,0,.17,1.13,2.39,2.39,0,0,0,.44.79,1.69,1.69,0,0,0,.68.48,2.21,2.21,0,0,0,.87.16,2.57,2.57,0,0,0,.78-.11,3.27,3.27,0,0,0,.56-.22,4,4,0,0,0,.39-.23.53.53,0,0,1,.27-.1.27.27,0,0,1,.23.11l.34.44a2.38,2.38,0,0,1-.53.47,3.18,3.18,0,0,1-.67.32,4.25,4.25,0,0,1-.72.2,4.84,4.84,0,0,1-.75.06,3.46,3.46,0,0,1-1.3-.24,2.82,2.82,0,0,1-1-.7,3.2,3.2,0,0,1-.68-1.14A4.65,4.65,0,0,1,58.38,92a4.12,4.12,0,0,1,.22-1.33,3.26,3.26,0,0,1,.63-1.07,2.89,2.89,0,0,1,1-.71A3.19,3.19,0,0,1,61.56,88.58Zm0,.88a1.88,1.88,0,0,0-1.37.5,2.36,2.36,0,0,0-.61,1.39h3.72a2.39,2.39,0,0,0-.12-.77,1.63,1.63,0,0,0-.34-.59,1.45,1.45,0,0,0-.55-.39A1.7,1.7,0,0,0,61.59,89.46Z"/><path class="cls-5" d="M70.79,95.5a.31.31,0,0,1-.32-.25l-.11-.83a3.51,3.51,0,0,1-1,.85,2.56,2.56,0,0,1-1.28.32A2.5,2.5,0,0,1,67,95.36a2.23,2.23,0,0,1-.81-.66,3.16,3.16,0,0,1-.52-1.09,5.61,5.61,0,0,1-.18-1.5,4.88,4.88,0,0,1,.2-1.4,3.49,3.49,0,0,1,.58-1.12,2.62,2.62,0,0,1,.93-.75,2.72,2.72,0,0,1,1.23-.28,2.49,2.49,0,0,1,1.07.22,2.68,2.68,0,0,1,.8.59V85.59H71.5V95.5Zm-2.32-.88a2,2,0,0,0,1-.27,3,3,0,0,0,.81-.76V90.31a2,2,0,0,0-.73-.63,2.05,2.05,0,0,0-.87-.18,1.73,1.73,0,0,0-1.46.68,3.17,3.17,0,0,0-.51,1.93,5.24,5.24,0,0,0,.11,1.14,2.16,2.16,0,0,0,.34.78,1.28,1.28,0,0,0,.54.45A1.91,1.91,0,0,0,68.47,94.62Z"/><path class="cls-5" d="M76.84,95.5V85.59h1.21v4.08a3.47,3.47,0,0,1,1-.8,2.68,2.68,0,0,1,1.25-.29,2.38,2.38,0,0,1,1.08.23,2.26,2.26,0,0,1,.82.66,3.21,3.21,0,0,1,.51,1,5,5,0,0,1,.18,1.39,5.46,5.46,0,0,1-.2,1.51,3.42,3.42,0,0,1-.58,1.16,2.49,2.49,0,0,1-.93.74,2.7,2.7,0,0,1-1.22.27,2.28,2.28,0,0,1-1.13-.25,2.51,2.51,0,0,1-.81-.72l-.06.62a.28.28,0,0,1-.31.26Zm3-6a1.89,1.89,0,0,0-1,.27,2.73,2.73,0,0,0-.8.76v3.3a1.89,1.89,0,0,0,.72.62,2,2,0,0,0,.86.18A1.71,1.71,0,0,0,81.1,94a3.32,3.32,0,0,0,.51-2,3,3,0,0,0-.45-1.84A1.53,1.53,0,0,0,79.87,89.53Z"/><path class="cls-5" d="M86.27,97.51a.57.57,0,0,1-.15.21.43.43,0,0,1-.28.08H85l1.24-2.7-2.81-6.41h1a.37.37,0,0,1,.25.07.38.38,0,0,1,.12.17l1.83,4.29c0,.11.07.21.1.3s.06.2.08.3c.06-.2.12-.4.2-.6l1.77-4.29a.29.29,0,0,1,.14-.17.31.31,0,0,1,.21-.07h.95Z"/></g><g id="Layer_3" data-name="Layer 3"><path d="M48.39,31.76a4.4,4.4,0,0,0,1.75-.33,3.65,3.65,0,0,0,1.32-.92,3.93,3.93,0,0,0,.81-1.43,6,6,0,0,0,.29-1.89V16.27H56V27.19a8.59,8.59,0,0,1-.52,3,6.82,6.82,0,0,1-1.51,2.38,7,7,0,0,1-2.38,1.57,9.14,9.14,0,0,1-6.3,0,6.71,6.71,0,0,1-3.88-3.95,8.37,8.37,0,0,1-.52-3V16.27h3.39v10.9a5.87,5.87,0,0,0,.28,1.89,4.17,4.17,0,0,0,.81,1.45,3.61,3.61,0,0,0,1.31.92A4.45,4.45,0,0,0,48.39,31.76Z"/><path d="M72.24,16.27v2.79H66.76V34.5H63.37V19.06H57.86V16.27Z"/><path d="M83.94,27.77c.13.29.24.58.36.88.12-.3.24-.6.37-.9s.26-.57.4-.84l5.4-10.1a1.42,1.42,0,0,1,.2-.3.63.63,0,0,1,.24-.16.73.73,0,0,1,.3-.06l.39,0h2.56V34.5h-3V22.72c0-.21,0-.45,0-.71s0-.53.06-.8L85.74,31.55a1.51,1.51,0,0,1-.49.54,1.28,1.28,0,0,1-.71.2h-.46a1.28,1.28,0,0,1-.71-.2,1.42,1.42,0,0,1-.49-.54L77.3,21.17c0,.28,0,.55.07.82s0,.51,0,.73V34.5h-3V16.27H77l.39,0a.68.68,0,0,1,.29.06.76.76,0,0,1,.25.16,1.44,1.44,0,0,1,.21.3l5.45,10.12Q83.76,27.34,83.94,27.77Z"/><path d="M113.85,34.5h-2.62a1.13,1.13,0,0,1-.72-.23,1.2,1.2,0,0,1-.41-.54L108.74,30h-7.55l-1.36,3.72a1.22,1.22,0,0,1-.4.53,1.12,1.12,0,0,1-.72.24H96.07l7.16-18.23h3.47Zm-9.93-21a1.42,1.42,0,0,1-.14.64,1.64,1.64,0,0,1-.37.53,1.71,1.71,0,0,1-.56.35,1.67,1.67,0,0,1-.67.13,1.5,1.5,0,0,1-.62-.13,1.54,1.54,0,0,1-.52-.35,1.77,1.77,0,0,1-.36-.53,1.67,1.67,0,0,1,0-1.29,1.7,1.7,0,0,1,.36-.54,1.79,1.79,0,0,1,.52-.38,1.5,1.5,0,0,1,.62-.13,1.67,1.67,0,0,1,.67.13,2,2,0,0,1,.56.38,1.58,1.58,0,0,1,.37.54A1.44,1.44,0,0,1,103.92,13.49Zm-1.86,14.12h5.81l-2.22-6.06c-.1-.27-.21-.58-.33-.95s-.25-.76-.36-1.19c-.12.43-.24.83-.35,1.2s-.22.69-.33,1Zm7.31-14.12a1.76,1.76,0,0,1-.49,1.17,1.62,1.62,0,0,1-.54.35,1.65,1.65,0,0,1-.66.13A1.61,1.61,0,0,1,107,15a1.53,1.53,0,0,1-.54-.35,1.64,1.64,0,0,1-.37-.53,1.67,1.67,0,0,1,0-1.29,1.58,1.58,0,0,1,.37-.54,1.75,1.75,0,0,1,.54-.38,1.61,1.61,0,0,1,.65-.13,1.65,1.65,0,0,1,.66.13,1.88,1.88,0,0,1,.54.38,1.53,1.53,0,0,1,.35.54A1.58,1.58,0,0,1,109.37,13.49Z"/><path d="M119.23,27.38V34.5h-3.39V16.27h5.56a11.52,11.52,0,0,1,3.2.39,6.09,6.09,0,0,1,2.18,1.07A4.25,4.25,0,0,1,128,19.39a5.78,5.78,0,0,1,.13,3.86,4.93,4.93,0,0,1-.78,1.49,5,5,0,0,1-1.26,1.17,6.43,6.43,0,0,1-1.71.81,3.25,3.25,0,0,1,1.11,1.05l4.56,6.73h-3a1.49,1.49,0,0,1-.75-.18,1.58,1.58,0,0,1-.52-.51L121.92,28a1.4,1.4,0,0,0-.47-.47,1.75,1.75,0,0,0-.77-.13Zm0-2.44h2.12A5.21,5.21,0,0,0,123,24.7a3.14,3.14,0,0,0,1.17-.66,2.57,2.57,0,0,0,.69-1,3.5,3.5,0,0,0,.23-1.27,2.57,2.57,0,0,0-.92-2.13,4.34,4.34,0,0,0-2.79-.75h-2.17Z"/><path d="M135.74,23.91h.8a2,2,0,0,0,.79-.13,1.31,1.31,0,0,0,.54-.43l5-6.36a1.87,1.87,0,0,1,.66-.56,2.23,2.23,0,0,1,.88-.16h2.92l-6.13,7.58a6.53,6.53,0,0,1-.56.59,2.22,2.22,0,0,1-.57.39,2.33,2.33,0,0,1,.75.43,3.69,3.69,0,0,1,.65.7l6.33,8.54h-3a1.91,1.91,0,0,1-.9-.17,1.49,1.49,0,0,1-.5-.5l-5.15-6.73a1.59,1.59,0,0,0-.57-.48,2.35,2.35,0,0,0-.9-.14h-1.07v8h-3.39V16.26h3.39Z"/><path d="M162.67,16.27v2.79h-5.48V34.5H153.8V19.06h-5.5V16.27Z"/></g></svg>