<?xml version="1.0" encoding="utf-8"?>
<!-- Generator: Adobe Illustrator 17.0.0, SVG Export Plug-In . SVG Version: 6.00 Build 0)  -->
<!DOCTYPE svg PUBLIC "-//W3C//DTD SVG 1.1//EN" "http://www.w3.org/Graphics/SVG/1.1/DTD/svg11.dtd">
<svg version="1.1" id="Laag_1" xmlns="http://www.w3.org/2000/svg" xmlns:xlink="http://www.w3.org/1999/xlink" x="0px" y="0px"
	 width="342px" height="310px" viewBox="0 0 342 310" enable-background="new 0 0 342 310" xml:space="preserve">
<g>
	<path fill-rule="evenodd" clip-rule="evenodd" fill="#F4F4F4" d="M282.448,93.43c0,11.517-9.336,20.923-20.923,20.923
		c-11.587,0-20.923-9.406-20.923-20.923c0-11.586,9.336-21.01,20.923-21.01C273.111,72.42,282.448,81.844,282.448,93.43
		L282.448,93.43z M282.448,93.43"/>
	<path fill-rule="evenodd" clip-rule="evenodd" fill="#F4F4F4" d="M322.392,281.823c1.099,0,1.989-0.872,1.989-1.971V32.617
		c0-1.152-0.89-2.042-1.989-2.042H19.193c-1.082,0-1.971,0.89-1.971,2.042v247.235c0,1.099,0.89,1.971,1.971,1.971H322.392z
		 M31.199,44.553h279.204v223.381H31.199V44.553z M31.199,44.553"/>
	<path fill-rule="evenodd" clip-rule="evenodd" fill="#F4F4F4" d="M225.333,138.958c-1.169-1.85-3.613-2.321-5.392-1.029
		l-38.583,27.136c-0.89,0.61-2.112,0.348-2.652-0.611L133.23,85.927c-1.082-1.902-2.792-1.902-3.804,0.07l-4.502,8.656
		L45.107,248.493c-1.03,1.989-0.07,3.542,2.112,3.542h246.484c2.042,0,2.932-1.501,1.693-3.333L225.333,138.958z M225.333,138.958"
		/>
</g>
</svg>
