<?xml version="1.0" encoding="UTF-8" standalone="no"?>
<svg width="50px" height="51px" viewBox="0 0 50 51" version="1.1" xmlns="http://www.w3.org/2000/svg" xmlns:xlink="http://www.w3.org/1999/xlink" xmlns:sketch="http://www.bohemiancoding.com/sketch/ns">
    <!-- Generator: Sketch 3.3.2 (12043) - http://www.bohemiancoding.com/sketch -->
    <title>arrows</title>
    <g fill-rule="evenodd">
        <g>
            <path d="M49.9009901,24.7029703 C49.9009901,25.1980198 49.7524752,25.5445545 49.4059406,25.990099 L42.3762376,33.0693069 C42.029703,33.4158416 41.5346535,33.5643564 41.0891089,33.5643564 C40.5940594,33.5643564 40.2475248,33.4158416 39.8019802,33.0693069 C39.4554455,32.7227723 39.3069307,32.2277228 39.3069307,31.7821782 L39.3069307,28.3168317 L28.7623762,28.3168317 L28.7623762,38.8118812 L32.2277228,38.8118812 C32.7227723,38.8118812 33.0693069,38.960396 33.5148515,39.3069307 C33.8613861,39.6534653 34.009901,40.1485149 34.009901,40.5940594 C34.009901,41.039604 33.8613861,41.4356436 33.5148515,41.8811881 L26.4356436,48.960396 C26.0891089,49.3069307 25.5940594,49.4554455 25.1485149,49.4554455 C24.6534653,49.4554455 24.3069307,49.3069307 23.8613861,48.960396 L16.7821782,41.9306931 C16.4356436,41.5841584 16.2871287,41.0891089 16.2871287,40.6435644 C16.2871287,40.1980198 16.4356436,39.8019802 16.7821782,39.3564356 C17.1287129,39.009901 17.6237624,38.8613861 18.0693069,38.8613861 L21.5346535,38.8613861 L21.5346535,28.3663366 L11.039604,28.3663366 L11.039604,31.8316832 C11.039604,32.3267327 10.8910891,32.6732673 10.5445545,33.1188119 C10.1980198,33.4653465 9.7029703,33.6138614 9.25742574,33.6138614 C8.81188119,33.6138614 8.41584158,33.4653465 7.97029703,33.1188119 L0.940594059,26.0891089 C0.594059406,25.7425743 0.445544554,25.2475248 0.445544554,24.8019802 C0.445544554,24.3069307 0.594059406,23.960396 0.940594059,23.5148515 L7.92079208,16.3366337 C8.26732673,15.990099 8.76237624,15.8415842 9.20792079,15.8415842 C9.65346535,15.8415842 10.049505,15.990099 10.4950495,16.3366337 C10.8415842,16.6831683 10.990099,17.1782178 10.990099,17.6237624 L10.990099,21.0891089 L21.5346535,21.0891089 L21.5346535,10.5940594 L18.0693069,10.5940594 C17.5742574,10.5940594 17.2277228,10.4455446 16.7821782,10.0990099 C16.4356436,9.75247525 16.2871287,9.25742574 16.2871287,8.81188119 C16.2871287,8.31683168 16.4356436,7.97029703 16.7821782,7.52475248 L23.8118812,0.495049505 C24.1584158,0.148514851 24.6534653,0 25.0990099,0 C25.5940594,0 25.9405941,0.148514851 26.3861386,0.495049505 L33.4158416,7.52475248 C33.7623762,7.87128713 33.9108911,8.36633663 33.9108911,8.81188119 C33.9108911,9.30693069 33.7623762,9.65346535 33.4158416,10.0990099 C33.0693069,10.4455446 32.5742574,10.5940594 32.1287129,10.5940594 L28.6633663,10.5940594 L28.6633663,21.0891089 L39.1584158,21.0891089 L39.1584158,17.6237624 C39.1584158,17.1287129 39.3069307,16.7821782 39.6534653,16.3366337 C40,15.990099 40.4950495,15.8415842 40.9405941,15.8415842 C41.4356436,15.8415842 41.7821782,15.990099 42.2277228,16.3366337 L49.2574257,23.3663366 C49.7524752,23.8613861 49.9009901,24.2079208 49.9009901,24.7029703 L49.9009901,24.7029703 Z" id="Shape" sketch:type="MSShapeGroup"></path>
        </g>
    </g>
</svg>