<?xml version="1.0" encoding="UTF-8"?>
<svg width="17px" height="18px" viewBox="0 0 17 18" version="1.1" xmlns="http://www.w3.org/2000/svg" xmlns:xlink="http://www.w3.org/1999/xlink">
    <!-- Generator: sketchtool 55.2 (78181) - https://sketchapp.com -->
    <title>67CF5196-42CC-49E9-9115-00D5D8318EE8</title>
    <desc>Created with sketchtool.</desc>
    <g id="Working" stroke="none" stroke-width="1" fill="none" fill-rule="evenodd">
        <g id="MixPix_General-Optimisations-Edit-Mode-(S)" transform="translate(-25.000000, -364.000000)" fill="#FFFFFF" fill-rule="nonzero">
            <g id="Delete" transform="translate(25.000000, 364.000000)">
                <g id="freeprints-delete">
                    <path d="M15.6348837,2.27368421 L10.5488372,2.27368421 L10.5488372,0.473684211 C10.5488372,0.151578947 10.3039535,0 9.98372093,0 L6.21627907,0 C5.89604651,0 5.65116279,0.151578947 5.65116279,0.473684211 L5.65116279,2.27368421 L0.565116279,2.27368421 C0.253011176,2.27368421 0,2.52817498 0,2.84210526 C0,3.15603554 0.253011176,3.41052632 0.565116279,3.41052632 L2.44883721,3.41052632 L2.44883721,17.4315789 C2.44883721,17.7455092 2.70184839,18 3.01395349,18 L13.1860465,18 C13.4981516,18 13.7511628,17.7455092 13.7511628,17.4315789 L13.7511628,3.41052632 L15.6348837,3.41052632 C15.9469888,3.41052632 16.2,3.15603554 16.2,2.84210526 C16.2,2.52817498 15.9469888,2.27368421 15.6348837,2.27368421 Z M6.78139535,1.13684211 L9.41860465,1.13684211 L9.41860465,2.27368421 L6.78139535,2.27368421 L6.78139535,1.13684211 Z M12.6209302,16.8631579 L3.57906977,16.8631579 L3.57906977,3.41052632 L12.6209302,3.41052632 L12.6209302,16.8631579 Z" id="Shape"></path>
                    <path d="M9.9,16.2 C10.3970563,16.2 10.8,15.9409647 10.8,15.6214286 L10.8,5.97857143 C10.8,5.65903525 10.3970563,5.4 9.9,5.4 C9.40294373,5.4 9,5.65903525 9,5.97857143 L9,15.6214286 C9,15.9409647 9.40294373,16.2 9.9,16.2 L9.9,16.2 Z" id="Shape"></path>
                    <path d="M6.3,16.2 C6.79705627,16.2 7.2,15.9409647 7.2,15.6214286 L7.2,5.97857143 C7.2,5.65903525 6.79705627,5.4 6.3,5.4 C5.80294373,5.4 5.4,5.65903525 5.4,5.97857143 L5.4,15.6214286 C5.4,15.9409647 5.80294373,16.2 6.3,16.2 Z" id="Shape"></path>
                </g>
            </g>
        </g>
    </g>
</svg>