<?xml version="1.0" encoding="UTF-8" standalone="no"?>
<svg width="45px" height="50px" viewBox="0 0 45 50" version="1.1" xmlns="http://www.w3.org/2000/svg" xmlns:xlink="http://www.w3.org/1999/xlink" xmlns:sketch="http://www.bohemiancoding.com/sketch/ns">
    <!-- Generator: Sketch 3.3.2 (12043) - http://www.bohemiancoding.com/sketch -->
    <title>file</title>
    <g fill-rule="evenodd">
        <g>
            <path d="M42.1,10.5 C42.6,11 43.1,11.8 43.5,12.6 C43.9,13.5 44.1,14.3 44.1,15.1 L44.1,47.4 C44.1,48.1 43.8,48.8 43.4,49.3 C42.9,49.8 42.3,50 41.5,50 L3,50 C2.3,50 1.6,49.7 1.1,49.3 C0.7,48.8 0.4,48.2 0.4,47.4 L0.4,2.6 C0.4,1.9 0.7,1.2 1.1,0.7 C1.5,0.2 2.4,0 3,0 L28.6,0 C29.3,0 30.2,0.1 31.1,0.5 C32,0.9 32.7,1.4 33.2,1.9 L42.1,10.5 L42.1,10.5 Z M29.3,3.6 L29.3,14.1 L40.1,14.1 C39.8,13.6 39.7,13.2 39.5,13 L30.5,4.2 C30.3,4 30,3.9 29.3,3.6 L29.3,3.6 Z M40.3,46.4 L40.3,17.7 L28.4,17.7 C27.7,17.7 27,17.4 26.5,17 C26,16.5 25.8,15.9 25.8,15.1 L25.8,3.4 L3.9,3.4 L3.9,46.5 L40.3,46.4 L40.3,46.4 Z" id="Shape" sketch:type="MSShapeGroup"></path>
        </g>
    </g>
</svg>