<?xml version="1.0" encoding="UTF-8" standalone="no"?>
<svg width="51px" height="50px" viewBox="0 0 51 50" version="1.1" xmlns="http://www.w3.org/2000/svg" xmlns:xlink="http://www.w3.org/1999/xlink" xmlns:sketch="http://www.bohemiancoding.com/sketch/ns">
    <!-- Generator: Sketch 3.3.2 (12043) - http://www.bohemiancoding.com/sketch -->
    <title>floppy</title>
    <g fill-rule="evenodd">
        <g>
            <path d="M12.5,45.9 L37.5,45.9 L37.5,33.4 L12.5,33.4 L12.5,45.9 L12.5,45.9 Z M41.6,45.9 L45.7,45.9 L45.7,16.8 C45.7,16.6 45.6,16.1 45.4,15.6 C45.2,15.1 45.1,14.7 44.8,14.5 L35.7,5.4 C35.5,5.2 35.1,5.1 34.6,4.8 C34.1,4.6 33.6,4.5 33.4,4.5 L33.4,18 C33.4,18.9 33.2,19.6 32.5,20.2 C31.8,20.8 31,21 30.2,21 L11.4,21 C10.5,21 9.8,20.8 9.2,20.1 C8.6,19.4 8.3,18.7 8.3,17.9 L8.3,4.4 L4.2,4.4 L4.2,46 L8.3,46 L8.3,32.5 C8.3,31.6 8.5,30.9 9.2,30.3 C9.8,29.7 10.6,29.4 11.4,29.4 L38.5,29.4 C39.4,29.4 40.1,29.6 40.7,30.3 C41.3,30.9 41.6,31.7 41.6,32.5 L41.6,45.9 L41.6,45.9 Z M29.1,15.6 L29.1,5.3 C29.1,5.1 29,4.8 28.9,4.6 C28.7,4.4 28.4,4.4 28.2,4.4 L22,4.4 C21.8,4.4 21.5,4.5 21.3,4.6 C21.1,4.8 21.1,5.1 21.1,5.3 L21.1,15.6 C21.1,15.8 21.2,16.1 21.3,16.3 C21.4,16.5 21.8,16.5 22,16.5 L28.2,16.5 C28.4,16.5 28.7,16.4 28.9,16.3 C29.1,16.2 29.1,15.9 29.1,15.6 L29.1,15.6 Z M50,16.6 L50,46.8 C50,47.7 49.8,48.4 49.1,49 C48.5,49.6 47.7,49.9 46.9,49.9 L3.1,49.9 C2.2,49.9 1.5,49.7 0.9,49 C0.2,48.5 0,47.7 0,46.9 L0,3.1 C0,2.2 0.2,1.5 0.9,0.9 C1.6,0.3 2.3,0 3.1,0 L33.3,0 C34.2,0 35.2,0.2 36.1,0.6 C37,0.9 38,1.6 38.6,2.1 L47.7,11.2 C48.3,11.8 48.8,12.6 49.2,13.7 C49.8,14.9 50,15.8 50,16.6 L50,16.6 Z" id="Shape" sketch:type="MSShapeGroup"></path>
        </g>
    </g>
</svg>