<?xml version="1.0" encoding="UTF-8" standalone="no"?>
<svg width="50px" height="62px" viewBox="0 0 50 62" version="1.1" xmlns="http://www.w3.org/2000/svg" xmlns:xlink="http://www.w3.org/1999/xlink" xmlns:sketch="http://www.bohemiancoding.com/sketch/ns">
    <!-- Generator: Sketch 3.3.2 (12043) - http://www.bohemiancoding.com/sketch -->
    <title>lock</title>
    <g fill-rule="evenodd">
        <g fill="#010101">
            <path d="M14.1,28.2 L36.1,28.2 L36.1,19.8 C36.1,16.8 34.9,14.1 32.8,12 C30.6,9.8 28,8.7 25,8.7 C22,8.7 19.3,9.9 17.2,12 C15.1,14.3 14.2,16.9 14.2,19.8 L14.1,28.2 L14.1,28.2 Z M50,32 L50,56.9 C50,58.1 49.8,59.1 48.8,59.9 C47.9,60.8 47,61.1 45.8,61.1 L4.3,61.1 C3.1,61.1 2.1,60.9 1.3,59.9 C0.4,59 0,58 0,56.8 L0,32 C0,30.8 0.2,29.8 1.2,29 C2.1,28.1 3,27.8 4.2,27.8 L5.5,27.8 L5.5,19.5 C5.5,14.3 7.3,9.7 11.2,5.8 C15,2 19.6,0 25.1,0 C30.6,0 34.9,1.8 38.8,5.7 C42.6,9.5 44.5,14 44.5,19.4 L44.5,27.7 L45.7,27.7 C46.9,27.7 47.9,27.9 48.7,28.9 C49.4,29.9 50,30.9 50,32 L50,32 Z" id="Shape" sketch:type="MSShapeGroup"></path>
        </g>
    </g>
</svg>