<?xml version="1.0" encoding="UTF-8"?>
<svg width="16px" height="16px" viewBox="0 0 16 16" version="1.1" xmlns="http://www.w3.org/2000/svg" xmlns:xlink="http://www.w3.org/1999/xlink">
    <title>pencil</title>
    <g id="One-Page-Checkout" stroke="none" stroke-width="1" fill="none" fill-rule="evenodd">
        <g id="OPC_Dropdown" transform="translate(-1149.000000, -489.000000)" fill="#35B2B6" fill-rule="nonzero">
            <path d="M1164.80019,492.094054 L1163.37712,493.517162 L1160.48291,490.622985 L1161.90597,489.199878 C1162.0339,489.071901 1162.20744,489 1162.38839,489 C1162.56935,489 1162.74289,489.071901 1162.87082,489.199878 L1164.80019,491.129329 C1164.92813,491.257256 1165,491.430769 1165,491.611691 C1165,491.792614 1164.92813,491.966126 1164.80019,492.094054 L1164.80019,492.094054 Z M1151.61385,499.49208 L1154.50803,502.386256 L1162.4124,494.481887 L1159.51817,491.587711 L1151.61385,499.49208 Z M1149.01502,504.558891 C1148.97797,504.679612 1149.01064,504.810926 1149.09993,504.900219 C1149.18922,504.989512 1149.32054,505.022177 1149.44126,504.985126 L1153.48538,503.293019 L1150.70704,500.514768 L1149.01502,504.558891 Z" id="pencil"></path>
        </g>
    </g>
</svg>