<?xml version="1.0" encoding="UTF-8" standalone="no"?>
<svg width="50px" height="56px" viewBox="0 0 50 56" version="1.1" xmlns="http://www.w3.org/2000/svg" xmlns:xlink="http://www.w3.org/1999/xlink" xmlns:sketch="http://www.bohemiancoding.com/sketch/ns">
    <!-- Generator: Sketch 3.3.2 (12043) - http://www.bohemiancoding.com/sketch -->
    <title>user</title>
    <g fill-rule="evenodd">
        <g fill="#74C100">
            <path d="M49.8913043,45.2173913 C49.8913043,48.0434783 49.0217391,50.326087 47.2826087,51.8478261 C45.5434783,53.3695652 43.2608696,54.3478261 40.4347826,54.3478261 L9.56521739,54.3478261 C6.63043478,54.3478261 4.45652174,53.5869565 2.7173913,51.8478261 C0.97826087,50.2173913 0.108695652,47.9347826 0.108695652,45.2173913 C0.108695652,44.0217391 0.108695652,42.7173913 0.217391304,41.5217391 C0.326086957,40.326087 0.434782609,39.0217391 0.760869565,37.6086957 C0.97826087,36.1956522 1.30434783,34.8913043 1.63043478,33.8043478 C1.95652174,32.7173913 2.5,31.5217391 3.15217391,30.4347826 C3.69565217,29.3478261 4.56521739,28.3695652 5.32608696,27.5 C6.08695652,26.7391304 7.06521739,26.0869565 8.26086957,25.6521739 C9.45652174,25.2173913 10.7608696,25 12.173913,25 C12.3913043,25 12.826087,25.2173913 13.6956522,25.7608696 C14.4565217,26.3043478 15.4347826,26.8478261 16.3043478,27.5 C17.2826087,28.0434783 18.4782609,28.6956522 20.1086957,29.2391304 C21.7391304,29.7826087 23.1521739,30 24.7826087,30 C26.4130435,30 27.9347826,29.7826087 29.4565217,29.2391304 C31.0869565,28.6956522 32.2826087,28.1521739 33.2608696,27.5 C34.2391304,26.9565217 35.1086957,26.3043478 35.8695652,25.7608696 C36.6304348,25.2173913 37.173913,25 37.3913043,25 C38.8043478,25 40.2173913,25.2173913 41.3043478,25.6521739 C42.5,26.1956522 43.4782609,26.7391304 44.2391304,27.5 C45,28.2608696 45.7608696,29.2391304 46.4130435,30.4347826 C47.0652174,31.6304348 47.5,32.7173913 47.9347826,33.8043478 C48.3695652,34.8913043 48.5869565,36.3043478 48.8043478,37.6086957 C49.0217391,38.9130435 49.2391304,40.326087 49.3478261,41.5217391 C49.8913043,42.7173913 49.8913043,43.9130435 49.8913043,45.2173913 L49.8913043,45.2173913 Z M38.4782609,13.4782609 C38.4782609,17.2826087 37.173913,20.4347826 34.4565217,23.0434783 C31.7391304,25.7608696 28.5869565,27.0652174 24.8913043,27.0652174 C21.0869565,27.0652174 17.9347826,25.7608696 15.326087,23.0434783 C12.6086957,20.326087 11.3043478,17.173913 11.3043478,13.4782609 C11.3043478,9.7826087 12.6086957,6.52173913 15.326087,3.91304348 C18.1521739,1.30434783 21.3043478,0 25,0 C28.8043478,0 31.9565217,1.30434783 34.5652174,4.02173913 C37.173913,6.63043478 38.4782609,9.89130435 38.4782609,13.4782609 L38.4782609,13.4782609 Z" id="Shape" sketch:type="MSShapeGroup"></path>
        </g>
    </g>
</svg>