<?xml version="1.0" encoding="UTF-8"?>
<svg width="212px" height="96px" viewBox="0 0 212 96" version="1.1" xmlns="http://www.w3.org/2000/svg" xmlns:xlink="http://www.w3.org/1999/xlink">
    <!-- Generator: sketchtool 61 (101010) - https://sketch.com -->
    <title>1CBE6AB5-7871-436A-8380-23F89E94DD11</title>
    <desc>Created with sketchtool.</desc>
    <g id="Mug" stroke="none" stroke-width="1" fill="none" fill-rule="evenodd">
        <g id="Desktop" transform="translate(-129.000000, -689.000000)" fill-rule="nonzero">
            <g id="final_mugs_01" transform="translate(129.000000, 689.000000)">
                <rect id="Rectangle" fill="#FFFFFF" x="0" y="0" width="212" height="96"></rect>
                <path d="M122.084211,68.7421384 L118.005263,68.7421384 L118.005263,64 L95,64 L95,86.7295597 C95,88.5283019 96.4684211,90 98.2631579,90 L114.905263,90 C116.7,90 118.168421,88.5283019 118.168421,86.7295597 L118.168421,83.9496855 L122.247368,83.9496855 C124.368421,83.9496855 126,82.1509434 126,80.1886792 L126,72.5031447 C125.836842,70.3773585 124.205263,68.7421384 122.084211,68.7421384 Z M122.9,79.8616352 C122.9,80.8427673 122.084211,81.4968553 121.268421,81.4968553 L118.168421,81.4968553 L118.168421,71.1949686 L121.268421,71.1949686 C122.247368,71.1949686 122.9,72.0125786 122.9,72.8301887 L122.9,79.8616352 Z" id="Shape" fill="#0D6A6D"></path>
            </g>
        </g>
    </g>
</svg>