<?xml version="1.0" encoding="UTF-8"?>
<svg width="212px" height="96px" viewBox="0 0 212 96" version="1.1" xmlns="http://www.w3.org/2000/svg" xmlns:xlink="http://www.w3.org/1999/xlink">
    <!-- Generator: sketchtool 61 (101010) - https://sketch.com -->
    <title>C8BB48C2-5658-4179-BB2C-788C6C8F1BAD</title>
    <desc>Created with sketchtool.</desc>
    <g id="Mug" stroke="none" stroke-width="1" fill="none" fill-rule="evenodd">
        <g id="Desktop" transform="translate(-682.000000, -689.000000)" fill-rule="nonzero">
            <g id="final_mugs_03" transform="translate(682.000000, 689.000000)">
                <rect id="Rectangle" fill="#FFFFFF" x="0" y="0" width="212" height="96"></rect>
                <path d="M48.2473684,68.7421384 L44.1684211,68.7421384 L44.1684211,64 L21,64 L21,86.7295597 C21,88.5283019 22.4684211,90 24.2631579,90 L40.9052632,90 C42.7,90 44.1684211,88.5283019 44.1684211,86.7295597 L44.1684211,83.9496855 L48.2473684,83.9496855 C50.3684211,83.9496855 52,82.1509434 52,80.1886792 L52,72.5031447 C52,70.3773585 50.3684211,68.7421384 48.2473684,68.7421384 Z M48.9,79.8616352 C48.9,80.8427673 48.0842105,81.4968553 47.2684211,81.4968553 L44.1684211,81.4968553 L44.1684211,71.1949686 L47.2684211,71.1949686 C48.2473684,71.1949686 48.9,72.0125786 48.9,72.8301887 L48.9,79.8616352 Z" id="Shape" fill="#0D6A6D"></path>
                <path d="M83.2275132,68.7421384 L79.1269841,68.7421384 L79.1269841,64 L56,64 L56,86.7295597 C56,88.5283019 57.4761905,90 59.2804233,90 L76.010582,90 C77.8148148,90 79.2910053,88.5283019 79.2910053,86.7295597 L79.2910053,83.9496855 L83.2275132,83.9496855 C85.3597884,83.9496855 87,82.1509434 87,80.1886792 L87,72.5031447 C87,70.3773585 85.3597884,68.7421384 83.2275132,68.7421384 Z M84.047619,79.8616352 C84.047619,80.8427673 83.2275132,81.4968553 82.4074074,81.4968553 L79.2910053,81.4968553 L79.2910053,71.1949686 L82.4074074,71.1949686 C83.3915344,71.1949686 84.047619,72.0125786 84.047619,72.8301887 L84.047619,79.8616352 Z" id="Shape" fill="#0D6A6D"></path>
                <path d="M120.247368,68.7421384 L116.168421,68.7421384 L116.168421,64 L93,64 L93,86.7295597 C93,88.5283019 94.4684211,90 96.2631579,90 L112.905263,90 C114.7,90 116.168421,88.5283019 116.168421,86.7295597 L116.168421,83.9496855 L120.247368,83.9496855 C122.368421,83.9496855 124,82.1509434 124,80.1886792 L124,72.5031447 C124,70.3773585 122.368421,68.7421384 120.247368,68.7421384 Z M120.9,79.8616352 C120.9,80.8427673 120.084211,81.4968553 119.268421,81.4968553 L116.168421,81.4968553 L116.168421,71.1949686 L119.268421,71.1949686 C120.247368,71.1949686 120.9,72.0125786 120.9,72.8301887 L120.9,79.8616352 Z" id="Shape" fill="#0D6A6D"></path>
                <path d="M155.084211,68.7421384 L151.005263,68.7421384 L151.005263,64 L128,64 L128,86.7295597 C128,88.5283019 129.468421,90 131.263158,90 L147.905263,90 C149.7,90 151.168421,88.5283019 151.168421,86.7295597 L151.168421,83.9496855 L155.247368,83.9496855 C157.368421,83.9496855 159,82.1509434 159,80.1886792 L159,72.5031447 C158.836842,70.3773585 157.205263,68.7421384 155.084211,68.7421384 Z M155.9,79.8616352 C155.9,80.8427673 155.084211,81.4968553 154.268421,81.4968553 L151.168421,81.4968553 L151.168421,71.1949686 L154.268421,71.1949686 C155.247368,71.1949686 155.9,72.0125786 155.9,72.8301887 L155.9,79.8616352 Z" id="Shape" fill="#0D6A6D"></path>
                <path d="M190.247368,68.7421384 L186.168421,68.7421384 L186.168421,64 L163,64 L163,86.7295597 C163,88.5283019 164.468421,90 166.263158,90 L182.905263,90 C184.7,90 186.168421,88.5283019 186.168421,86.7295597 L186.168421,83.9496855 L190.247368,83.9496855 C192.368421,83.9496855 194,82.1509434 194,80.1886792 L194,72.5031447 C194,70.3773585 192.368421,68.7421384 190.247368,68.7421384 Z M190.9,79.8616352 C190.9,80.8427673 190.084211,81.4968553 189.268421,81.4968553 L186.168421,81.4968553 L186.168421,71.1949686 L189.268421,71.1949686 C190.247368,71.1949686 190.9,72.0125786 190.9,72.8301887 L190.9,79.8616352 Z" id="Shape" fill="#0D6A6D"></path>
                <path d="M48.2473684,34.7421384 L44.1684211,34.7421384 L44.1684211,30 L21,30 L21,52.7295597 C21,54.5283019 22.4684211,56 24.2631579,56 L40.9052632,56 C42.7,56 44.1684211,54.5283019 44.1684211,52.7295597 L44.1684211,49.9496855 L48.2473684,49.9496855 C50.3684211,49.9496855 52,48.1509434 52,46.1886792 L52,38.5031447 C52,36.3773585 50.3684211,34.7421384 48.2473684,34.7421384 Z M48.9,45.8616352 C48.9,46.8427673 48.0842105,47.4968553 47.2684211,47.4968553 L44.1684211,47.4968553 L44.1684211,37.1949686 L47.2684211,37.1949686 C48.2473684,37.1949686 48.9,38.0125786 48.9,38.8301887 L48.9,45.8616352 Z" id="Shape" fill="#0D6A6D"></path>
                <path d="M83.2275132,34.7421384 L79.1269841,34.7421384 L79.1269841,30 L56,30 L56,52.7295597 C56,54.5283019 57.4761905,56 59.2804233,56 L76.010582,56 C77.8148148,56 79.2910053,54.5283019 79.2910053,52.7295597 L79.2910053,49.9496855 L83.2275132,49.9496855 C85.3597884,49.9496855 87,48.1509434 87,46.1886792 L87,38.5031447 C87,36.3773585 85.3597884,34.7421384 83.2275132,34.7421384 Z M84.047619,45.8616352 C84.047619,46.8427673 83.2275132,47.4968553 82.4074074,47.4968553 L79.2910053,47.4968553 L79.2910053,37.1949686 L82.4074074,37.1949686 C83.3915344,37.1949686 84.047619,38.0125786 84.047619,38.8301887 L84.047619,45.8616352 Z" id="Shape" fill="#0D6A6D"></path>
                <path d="M120.247368,34.7421384 L116.168421,34.7421384 L116.168421,30 L93,30 L93,52.7295597 C93,54.5283019 94.4684211,56 96.2631579,56 L112.905263,56 C114.7,56 116.168421,54.5283019 116.168421,52.7295597 L116.168421,49.9496855 L120.247368,49.9496855 C122.368421,49.9496855 124,48.1509434 124,46.1886792 L124,38.5031447 C124,36.3773585 122.368421,34.7421384 120.247368,34.7421384 Z M120.9,45.8616352 C120.9,46.8427673 120.084211,47.4968553 119.268421,47.4968553 L116.168421,47.4968553 L116.168421,37.1949686 L119.268421,37.1949686 C120.247368,37.1949686 120.9,38.0125786 120.9,38.8301887 L120.9,45.8616352 Z" id="Shape" fill="#0D6A6D"></path>
                <path d="M155.084211,34.7421384 L151.005263,34.7421384 L151.005263,30 L128,30 L128,52.7295597 C128,54.5283019 129.468421,56 131.263158,56 L147.905263,56 C149.7,56 151.168421,54.5283019 151.168421,52.7295597 L151.168421,49.9496855 L155.247368,49.9496855 C157.368421,49.9496855 159,48.1509434 159,46.1886792 L159,38.5031447 C158.836842,36.3773585 157.205263,34.7421384 155.084211,34.7421384 Z M155.9,45.8616352 C155.9,46.8427673 155.084211,47.4968553 154.268421,47.4968553 L151.168421,47.4968553 L151.168421,37.1949686 L154.268421,37.1949686 C155.247368,37.1949686 155.9,38.0125786 155.9,38.8301887 L155.9,45.8616352 Z" id="Shape" fill="#0D6A6D"></path>
                <path d="M190.247368,34.7421384 L186.168421,34.7421384 L186.168421,30 L163,30 L163,52.7295597 C163,54.5283019 164.468421,56 166.263158,56 L182.905263,56 C184.7,56 186.168421,54.5283019 186.168421,52.7295597 L186.168421,49.9496855 L190.247368,49.9496855 C192.368421,49.9496855 194,48.1509434 194,46.1886792 L194,38.5031447 C194,36.3773585 192.368421,34.7421384 190.247368,34.7421384 Z M190.9,45.8616352 C190.9,46.8427673 190.084211,47.4968553 189.268421,47.4968553 L186.168421,47.4968553 L186.168421,37.1949686 L189.268421,37.1949686 C190.247368,37.1949686 190.9,38.0125786 190.9,38.8301887 L190.9,45.8616352 Z" id="Shape" fill="#0D6A6D"></path>
                <g id="Group" transform="translate(140.000000, 3.000000)">
                    <ellipse id="Oval" fill="#D40040" cx="21.5" cy="20.828" rx="20.3423077" ry="20.172"></ellipse>
                    <g transform="translate(4.961538, 18.040000)" fill="#FFFFFF">
                        <path d="M6.94615385,7.872 L8.6,7.708 L8.93076923,10.824 C8.6,11.152 8.10384615,11.48 7.60769231,11.808 C7.11153846,11.972 6.45,12.136 5.95384615,12.3 C5.12692308,12.464 4.46538462,12.3 3.63846154,11.972 C2.97692308,11.644 2.31538462,11.316 1.98461538,10.66 C1.48846154,10.168 1.32307692,9.512 1.15769231,8.692 C0.992307692,7.872 1.15769231,7.216 1.48846154,6.56 C1.81923077,5.904 2.15,5.412 2.81153846,4.92 C3.47307692,4.428 4.13461538,4.264 4.96153846,4.1 C5.62307692,3.936 6.28461538,4.1 6.78076923,4.264 C7.44230769,4.428 7.93846154,4.756 8.26923077,5.084 L7.27692308,6.232 C6.61538462,5.74 5.95384615,5.576 5.12692308,5.576 C4.63076923,5.576 4.13461538,5.74 3.80384615,6.068 C3.47307692,6.396 3.14230769,6.724 2.97692308,7.052 C2.81153846,7.38 2.81153846,7.872 2.81153846,8.364 C2.81153846,8.856 2.97692308,9.184 3.30769231,9.676 C3.63846154,10.004 3.96923077,10.332 4.3,10.496 C4.63076923,10.66 5.12692308,10.66 5.62307692,10.66 C6.11923077,10.66 6.61538462,10.496 6.94615385,10.168 L6.94615385,7.872 Z" id="Path"></path>
                        <path d="M12.0730769,5.412 C12.4038462,5.248 12.7346154,5.084 13.2307692,5.084 L13.3961538,6.724 C13.2307692,6.724 13.0653846,6.724 13.0653846,6.724 C12.5692308,6.724 12.2384615,6.888 11.9076923,7.216 C11.7423077,7.544 11.5769231,8.036 11.5769231,8.528 L11.9076923,11.316 L10.2538462,11.48 L9.59230769,5.576 L11.2461538,5.412 L11.4115385,6.232 C11.5769231,5.904 11.7423077,5.576 12.0730769,5.412 Z" id="Path"></path>
                        <path d="M18.5230769,5.084 C19.0192308,5.412 19.35,6.068 19.5153846,6.888 L20.0115385,10.332 L18.3576923,10.496 L18.1923077,9.84 C17.8615385,10.496 17.3653846,10.824 16.5384615,10.824 C16.0423077,10.824 15.7115385,10.824 15.3807692,10.66 C15.05,10.496 14.7192308,10.332 14.5538462,10.168 C14.3884615,10.004 14.2230769,9.676 14.2230769,9.348 C14.2230769,8.856 14.3884615,8.364 14.7192308,8.036 C15.05,7.708 15.7115385,7.38 16.5384615,7.38 L17.8615385,7.216 C17.8615385,6.888 17.6961538,6.56 17.3653846,6.396 C17.0346154,6.232 16.7038462,6.232 16.3730769,6.232 C16.0423077,6.232 15.7115385,6.396 15.3807692,6.56 C15.05,6.724 14.8846154,6.888 14.7192308,7.052 L13.8923077,5.904 C14.2230769,5.576 14.5538462,5.412 15.05,5.248 C15.5461538,5.084 15.8769231,4.92 16.3730769,4.92 C17.3653846,4.592 18.0269231,4.756 18.5230769,5.084 Z M17.6961538,9.348 C17.8615385,9.184 18.0269231,9.02 18.0269231,8.692 L18.0269231,8.036 L16.7038462,8.2 C16.0423077,8.364 15.7115385,8.528 15.7115385,9.02 C15.7115385,9.184 15.8769231,9.348 16.0423077,9.512 C16.2076923,9.676 16.5384615,9.676 16.7038462,9.676 C17.2,9.512 17.3653846,9.512 17.6961538,9.348 Z" id="Shape"></path>
                        <path d="M25.1384615,9.348 C24.9730769,9.512 24.8076923,9.676 24.4769231,9.676 C24.3115385,9.84 23.9807692,9.84 23.65,9.84 C22.9884615,10.004 22.3269231,9.84 21.9961538,9.512 C21.5,9.184 21.3346154,8.692 21.1692308,8.036 L20.8384615,5.576 L19.8461538,5.74 L19.6807692,4.428 L20.6730769,4.264 L20.5076923,2.788 L22.1615385,2.624 L22.3269231,4.1 L23.8153846,3.936 L23.9807692,5.248 L22.4923077,5.412 L22.8230769,7.872 C22.8230769,8.2 22.9884615,8.364 23.1538462,8.364 C23.3192308,8.528 23.4846154,8.528 23.65,8.528 C23.9807692,8.528 24.1461538,8.364 24.3115385,8.2 L25.1384615,9.348 Z" id="Path"></path>
                        <path d="M25.1384615,2.624 C24.9730769,2.46 24.8076923,2.296 24.8076923,1.968 C24.8076923,1.64 24.8076923,1.476 24.9730769,1.312 C25.1384615,1.148 25.4692308,0.984 25.6346154,0.984 C25.9653846,0.984 26.2961538,0.984 26.4615385,1.148 C26.6269231,1.312 26.7923077,1.476 26.7923077,1.804 C26.7923077,2.132 26.7923077,2.296 26.6269231,2.624 C26.4615385,2.788 26.1307692,2.952 25.9653846,2.952 C25.4692308,2.788 25.3038462,2.788 25.1384615,2.624 Z M25.1384615,3.608 L26.7923077,3.444 L27.4538462,9.348 L25.8,9.512 L25.1384615,3.608 Z" id="Shape"></path>
                        <path d="M29.4384615,9.02 C28.9423077,9.02 28.6115385,8.856 28.2807692,8.692 L28.7769231,7.38 C29.1076923,7.544 29.4384615,7.544 29.7692308,7.708 C30.1,7.708 30.5961538,7.708 30.9269231,7.708 C31.5884615,7.544 32.0846154,7.38 31.9192308,7.052 C31.9192308,6.888 31.7538462,6.724 31.5884615,6.724 C31.4230769,6.724 31.0923077,6.724 30.5961538,6.724 C30.1,6.724 29.7692308,6.724 29.4384615,6.56 C29.1076923,6.56 28.7769231,6.396 28.6115385,6.232 C28.2807692,6.068 28.1153846,5.74 28.1153846,5.248 C28.1153846,4.92 28.1153846,4.592 28.2807692,4.264 C28.4461538,3.936 28.7769231,3.608 29.1076923,3.444 C29.4384615,3.28 29.9346154,3.116 30.5961538,2.952 C31.0923077,2.952 31.4230769,2.952 31.9192308,2.952 C32.4153846,2.952 32.7461538,3.116 33.0769231,3.28 L32.5807692,4.592 C32.0846154,4.428 31.4230769,4.264 30.7615385,4.428 C30.4307692,4.428 30.1,4.592 29.9346154,4.756 C29.7692308,4.92 29.6038462,5.084 29.7692308,5.248 C29.7692308,5.412 29.9346154,5.576 30.1,5.576 C30.2653846,5.576 30.5961538,5.576 31.0923077,5.74 C31.5884615,5.74 31.9192308,5.74 32.25,5.904 C32.5807692,5.904 32.9115385,6.068 33.0769231,6.232 C33.4076923,6.396 33.5730769,6.724 33.5730769,7.216 C33.5730769,7.544 33.5730769,7.872 33.4076923,8.2 C33.2423077,8.528 32.9115385,8.856 32.5807692,9.02 C32.25,9.184 31.7538462,9.348 31.0923077,9.512 C30.4307692,9.184 29.9346154,9.184 29.4384615,9.02 Z" id="Path"></path>
                    </g>
                    <path d="M23.1538462,12.464 C23.8153846,12.956 24.1461538,13.612 24.1461538,14.432 C24.1461538,15.088 24.1461538,15.744 23.8153846,16.236 C23.4846154,16.892 23.1538462,17.384 22.4923077,17.712 C21.8307692,18.204 21.0038462,18.368 20.0115385,18.532 C19.1846154,18.696 18.3576923,18.696 17.6961538,18.532 C17.0346154,18.368 16.2076923,18.204 15.7115385,17.876 L16.5384615,15.744 C17.0346154,16.072 17.5307692,16.236 18.1923077,16.236 C18.8538462,16.236 19.35,16.4 20.0115385,16.236 C20.6730769,16.236 21.1692308,15.908 21.5,15.744 C21.8307692,15.416 21.9961538,15.088 21.9961538,14.596 C21.8307692,13.612 21.1692308,13.284 19.6807692,13.448 L18.1923077,13.776 L18.0269231,12.136 L20.0115385,9.348 L15.2153846,9.84 L14.8846154,7.708 L22.6576923,6.724 L22.8230769,8.364 L20.6730769,11.48 C21.8307692,11.644 22.6576923,11.972 23.1538462,12.464 Z" id="Path" fill="#FFFFFF"></path>
                </g>
            </g>
        </g>
    </g>
</svg>