<?xml version="1.0" encoding="UTF-8"?>
<svg width="212px" height="96px" viewBox="0 0 212 96" version="1.1" xmlns="http://www.w3.org/2000/svg" xmlns:xlink="http://www.w3.org/1999/xlink">
    <!-- Generator: sketchtool 61 (101010) - https://sketch.com -->
    <title>0B816D38-450C-497F-8DFB-7307730A642C</title>
    <desc>Created with sketchtool.</desc>
    <g id="Mug" stroke="none" stroke-width="1" fill="none" fill-rule="evenodd">
        <g id="Desktop" transform="translate(-406.000000, -689.000000)" fill-rule="nonzero">
            <g id="final_mugs_02" transform="translate(406.000000, 689.000000)">
                <rect id="Rectangle" fill="#FFFFFF" x="0" y="0" width="212" height="96"></rect>
                <g id="Group" transform="translate(38.000000, 63.000000)" fill="#0D6A6D">
                    <path d="M28.3255814,5.10588235 L24.4186047,5.10588235 L24.4186047,0.329411765 L1.30232558,0.329411765 L1.30232558,23.2235294 C1.30232558,25.0352941 2.76744186,26.5176471 4.55813953,26.5176471 L21.1627907,26.5176471 C22.9534884,26.5176471 24.4186047,25.0352941 24.4186047,23.2235294 L24.4186047,20.4235294 L28.4883721,20.4235294 C30.6046512,20.4235294 32.2325581,18.6117647 32.2325581,16.6352941 L32.2325581,8.89411765 C32.0697674,6.75294118 30.4418605,5.10588235 28.3255814,5.10588235 Z M29.1395349,16.3058824 C29.1395349,17.2941176 28.3255814,17.9529412 27.5116279,17.9529412 L24.4186047,17.9529412 L24.4186047,7.57647059 L27.5116279,7.57647059 C28.4883721,7.57647059 29.1395349,8.4 29.1395349,9.22352941 L29.1395349,16.3058824 Z" id="Shape"></path>
                    <path d="M63.9767442,5.10588235 L59.9069767,5.10588235 L59.9069767,0.329411765 L36.7906977,0.329411765 L36.7906977,23.2235294 C36.7906977,25.0352941 38.255814,26.5176471 40.0465116,26.5176471 L56.6511628,26.5176471 C58.4418605,26.5176471 59.9069767,25.0352941 59.9069767,23.2235294 L59.9069767,20.4235294 L63.9767442,20.4235294 C66.0930233,20.4235294 67.7209302,18.6117647 67.7209302,16.6352941 L67.7209302,8.89411765 C67.7209302,6.75294118 66.0930233,5.10588235 63.9767442,5.10588235 Z M64.627907,16.3058824 C64.627907,17.2941176 63.8139535,17.9529412 63,17.9529412 L59.9069767,17.9529412 L59.9069767,7.57647059 L63,7.57647059 C63.9767442,7.57647059 64.627907,8.4 64.627907,9.22352941 L64.627907,16.3058824 Z" id="Shape"></path>
                    <path d="M99.4651163,5.10588235 L95.3953488,5.10588235 L95.3953488,0.329411765 L72.4418605,0.329411765 L72.4418605,23.2235294 C72.4418605,25.0352941 73.9069767,26.5176471 75.6976744,26.5176471 L92.3023256,26.5176471 C94.0930233,26.5176471 95.5581395,25.0352941 95.5581395,23.2235294 L95.5581395,20.4235294 L99.627907,20.4235294 C101.744186,20.4235294 103.372093,18.6117647 103.372093,16.6352941 L103.372093,8.89411765 C103.209302,6.75294118 101.581395,5.10588235 99.4651163,5.10588235 Z M100.27907,16.3058824 C100.27907,17.2941176 99.4651163,17.9529412 98.6511628,17.9529412 L95.5581395,17.9529412 L95.5581395,7.57647059 L98.6511628,7.57647059 C99.627907,7.57647059 100.27907,8.4 100.27907,9.22352941 L100.27907,16.3058824 Z" id="Shape"></path>
                    <path d="M135.116279,5.10588235 L131.046512,5.10588235 L131.046512,0.329411765 L107.930233,0.329411765 L107.930233,23.2235294 C107.930233,25.0352941 109.395349,26.5176471 111.186047,26.5176471 L127.790698,26.5176471 C129.581395,26.5176471 131.046512,25.0352941 131.046512,23.2235294 L131.046512,20.4235294 L135.116279,20.4235294 C137.232558,20.4235294 138.860465,18.6117647 138.860465,16.6352941 L138.860465,8.89411765 C138.860465,6.75294118 137.232558,5.10588235 135.116279,5.10588235 Z M135.767442,16.3058824 C135.767442,17.2941176 134.953488,17.9529412 134.139535,17.9529412 L131.046512,17.9529412 L131.046512,7.57647059 L134.139535,7.57647059 C135.116279,7.57647059 135.767442,8.4 135.767442,9.22352941 L135.767442,16.3058824 Z" id="Shape"></path>
                </g>
                <g id="Group" transform="translate(153.000000, 28.000000)">
                    <ellipse id="Oval" fill="#D40040" cx="20.828" cy="21.8307692" rx="20.172" ry="20.3423077"></ellipse>
                    <g transform="translate(4.920000, 19.846154)" fill="#FFFFFF">
                        <path d="M6.232,7.11153846 L7.872,6.94615385 L8.2,10.0884615 C7.872,10.4192308 7.38,10.75 6.888,11.0807692 C6.396,11.4115385 5.74,11.4115385 5.248,11.5769231 C4.428,11.7423077 3.772,11.5769231 2.952,11.2461538 C2.296,10.9153846 1.64,10.5846154 1.312,9.92307692 C0.82,9.42692308 0.656,8.76538462 0.492,7.93846154 C0.328,7.11153846 0.492,6.45 0.82,5.78846154 C1.148,5.12692308 1.476,4.63076923 2.132,4.13461538 C2.788,3.63846154 3.444,3.47307692 4.264,3.30769231 C4.92,3.14230769 5.576,3.30769231 6.068,3.47307692 C6.724,3.63846154 7.216,3.96923077 7.544,4.3 L6.56,5.45769231 C5.904,4.96153846 5.248,4.79615385 4.428,4.79615385 C3.936,4.79615385 3.444,4.96153846 3.116,5.29230769 C2.788,5.62307692 2.46,5.95384615 2.296,6.28461538 C2.132,6.61538462 2.132,7.11153846 2.132,7.60769231 C2.132,8.10384615 2.296,8.43461538 2.624,8.93076923 C2.952,9.42692308 3.28,9.59230769 3.608,9.75769231 C3.936,9.92307692 4.428,9.92307692 4.92,9.92307692 C5.412,9.92307692 5.904,9.75769231 6.232,9.42692308 L6.232,7.11153846 Z" id="Path"></path>
                        <path d="M11.48,4.63076923 C11.808,4.46538462 12.136,4.3 12.628,4.3 L12.792,5.95384615 C12.628,5.95384615 12.464,5.95384615 12.464,5.95384615 C11.972,5.95384615 11.644,6.11923077 11.316,6.45 C11.152,6.78076923 10.988,7.27692308 10.988,7.77307692 L11.316,10.5846154 L9.676,10.75 L9.02,4.79615385 L10.66,4.63076923 L10.824,5.45769231 C10.824,5.12692308 11.152,4.79615385 11.48,4.63076923 Z" id="Path"></path>
                        <path d="M17.876,4.3 C18.368,4.63076923 18.696,5.29230769 18.86,6.11923077 L19.352,9.59230769 L17.712,9.75769231 L17.548,9.09615385 C17.22,9.75769231 16.728,10.0884615 15.908,10.0884615 C15.416,10.0884615 15.088,10.0884615 14.76,9.92307692 C14.432,9.75769231 14.104,9.59230769 13.94,9.42692308 C13.776,9.09615385 13.612,8.93076923 13.612,8.6 C13.612,8.10384615 13.776,7.60769231 14.104,7.27692308 C14.432,6.94615385 15.088,6.61538462 15.908,6.61538462 L17.22,6.45 C17.22,6.11923077 17.056,5.78846154 16.728,5.62307692 C16.4,5.45769231 16.072,5.45769231 15.744,5.45769231 C15.416,5.45769231 15.088,5.62307692 14.76,5.78846154 C14.432,5.95384615 14.268,6.11923077 14.104,6.28461538 L13.284,5.12692308 C13.612,4.79615385 13.94,4.63076923 14.432,4.46538462 C14.924,4.3 15.252,4.13461538 15.744,4.13461538 C16.564,3.80384615 17.384,3.96923077 17.876,4.3 Z M16.892,8.6 C17.056,8.43461538 17.22,8.26923077 17.22,7.93846154 L17.22,7.27692308 L16.072,7.44230769 C15.416,7.60769231 15.088,7.77307692 15.088,8.26923077 C15.088,8.43461538 15.252,8.6 15.416,8.76538462 C15.58,8.93076923 15.908,8.93076923 16.072,8.93076923 C16.4,8.93076923 16.728,8.76538462 16.892,8.6 Z" id="Shape"></path>
                        <path d="M24.272,8.6 C24.108,8.76538462 23.944,8.93076923 23.616,8.93076923 C23.452,9.09615385 23.124,9.09615385 22.796,9.09615385 C22.14,9.26153846 21.484,9.09615385 21.156,8.76538462 C20.664,8.43461538 20.5,7.93846154 20.336,7.27692308 L20.008,4.79615385 L19.024,4.96153846 L18.86,3.63846154 L19.844,3.47307692 L19.68,1.98461538 L21.32,1.81923077 L21.484,3.30769231 L22.96,3.14230769 L23.124,4.46538462 L21.648,4.63076923 L21.976,7.11153846 C21.976,7.44230769 22.14,7.60769231 22.304,7.60769231 C22.468,7.77307692 22.632,7.77307692 22.796,7.77307692 C23.124,7.77307692 23.288,7.60769231 23.452,7.44230769 L24.272,8.6 Z" id="Path"></path>
                        <path d="M24.272,1.81923077 C24.108,1.65384615 23.944,1.48846154 23.944,1.15769231 C23.944,0.826923077 23.944,0.661538462 24.108,0.496153846 C24.272,0.330769231 24.6,0.165384615 24.764,0.165384615 C25.092,0.165384615 25.42,0.165384615 25.584,0.330769231 C25.748,0.496153846 25.912,0.661538462 25.912,0.992307692 C25.912,1.32307692 25.912,1.48846154 25.748,1.81923077 C25.584,1.98461538 25.256,2.15 25.092,2.15 C24.764,1.98461538 24.436,1.98461538 24.272,1.81923077 Z M24.272,2.97692308 L25.912,2.81153846 L26.568,8.76538462 L24.928,8.93076923 L24.272,2.97692308 Z" id="Shape"></path>
                        <path d="M28.7,8.26923077 C28.208,8.26923077 27.88,8.10384615 27.552,7.93846154 L28.044,6.61538462 C28.372,6.78076923 28.7,6.78076923 29.028,6.94615385 C29.356,6.94615385 29.848,6.94615385 30.176,6.94615385 C30.832,6.78076923 31.324,6.61538462 31.16,6.28461538 C31.16,6.11923077 30.996,5.95384615 30.832,5.95384615 C30.668,5.95384615 30.34,5.95384615 29.848,5.95384615 C29.356,5.95384615 29.028,5.95384615 28.7,5.78846154 C28.372,5.78846154 28.044,5.62307692 27.88,5.45769231 C27.552,5.29230769 27.388,4.96153846 27.388,4.46538462 C27.388,4.13461538 27.388,3.80384615 27.552,3.47307692 C27.716,3.14230769 28.044,2.81153846 28.372,2.64615385 C28.7,2.48076923 29.192,2.31538462 29.848,2.15 C30.34,2.15 30.668,2.15 31.16,2.15 C31.652,2.15 31.98,2.31538462 32.308,2.48076923 L31.816,3.80384615 C31.324,3.63846154 30.668,3.47307692 30.012,3.63846154 C29.684,3.63846154 29.356,3.80384615 29.192,3.96923077 C29.028,4.13461538 28.864,4.3 29.028,4.46538462 C29.028,4.63076923 29.192,4.79615385 29.356,4.79615385 C29.52,4.79615385 29.848,4.79615385 30.34,4.96153846 C30.832,4.96153846 31.16,4.96153846 31.488,5.12692308 C31.816,5.12692308 32.144,5.29230769 32.308,5.45769231 C32.636,5.62307692 32.8,5.95384615 32.8,6.45 C32.8,6.78076923 32.8,7.11153846 32.636,7.44230769 C32.472,7.77307692 32.144,8.10384615 31.816,8.26923077 C31.488,8.43461538 30.996,8.6 30.34,8.76538462 C29.684,8.43461538 29.192,8.43461538 28.7,8.26923077 Z" id="Path"></path>
                    </g>
                    <polygon id="Path" fill="#FFFFFF" points="20.172 7.93846154 21.484 19.1846154 18.86 19.5153846 17.712 10.4192308 15.416 10.75 15.088 8.6"></polygon>
                </g>
            </g>
        </g>
    </g>
</svg>