<svg id="Layer_1" data-name="Layer 1" xmlns="http://www.w3.org/2000/svg" viewBox="0 0 100 100"><defs><style>.cls-1{fill:#484849;}.cls-2{fill:#35b2b6;}</style></defs><path class="cls-1" d="M57.92,15.51l7.71,15.55-2.57,1.58c-.64-1.1-1.31-2.13-1.86-3.23Q58.85,24.73,56.57,20c-.27-.57-.52-.78-1.16-.62C50.21,20.67,45,21.94,39.7,23.24c.42.89.88,1.72,1.23,2.6a12.57,12.57,0,0,1,0,10,2.9,2.9,0,0,0,.12,2.7c2.31,4.55,4.53,9.14,6.77,13.71.12.24.22.5.39.89L37.91,50.89c-1.33,3.48-2.63,6.89-4,10.53-.27-.45-.47-.74-.63-1.05-2.69-5.28-5.37-10.57-8.11-15.82a3.14,3.14,0,0,0-1.43-1.34,13.28,13.28,0,0,1-8.3-13.75c0-.06,0-.12-.12-.28l-5,1.18c.36,1.92.65,3.79,1.05,5.64A87,87,0,0,0,24.73,67.34,82.57,82.57,0,0,0,45.9,88.59c2.7,1.87,5.58,3.49,8.36,5.25a1,1,0,0,0,1.42-.15Q72.5,76.83,89.34,60c.15-.15.28-.3.5-.55L85.1,56.12,87,53.53l8,5.39c-.27.29-.49.54-.73.78Q75.42,78.57,56.56,97.43a1.32,1.32,0,0,1-1.85.33A92.06,92.06,0,0,1,34.44,83.51,86,86,0,0,1,18.07,62.78,90.83,90.83,0,0,1,7.85,34.61c-.36-1.94-.59-3.9-1-5.84-.13-.68,0-.91.7-1.06,2.66-.61,5.32-1.26,8-2a2.11,2.11,0,0,0,1.2-.93,13.25,13.25,0,0,1,8.82-6.88A13,13,0,0,1,36.34,20a1.92,1.92,0,0,0,1.72.29c6.55-1.63,13.11-3.21,19.66-4.81A.47.47,0,0,1,57.92,15.51ZM28.65,40.9a10,10,0,1,0-10-10A10.07,10.07,0,0,0,28.65,40.9Zm9.59-.79a14,14,0,0,1-9.59,4.07c1.59,3.1,3.12,6.09,4.77,9.33l2.46-6.37,6.49,1.38Z"/><path class="cls-2" d="M68,66.35c-1.25-4.83-2.32-9.54-3.71-14.17-.66-2.2,0-4.09.53-6.07q5.3-19.8,10.66-39.58a5,5,0,0,1,6.35-3.76c2.11.51,4.22,1.07,6.33,1.61a4.76,4.76,0,0,1,3.65,5.83c-1.39,5.47-2.9,10.9-4.36,16.35Q83.87,39.9,80.26,53.22a4.39,4.39,0,0,1-1.06,1.83c-3.41,3.51-6.87,7-10.32,10.45C68.62,65.76,68.35,66,68,66.35Zm-.56-17.54a23.42,23.42,0,0,1,2.31.65c.94.37,1.23,0,1.46-.88Q74.86,34.8,78.59,21c.6-2.25,1.22-4.51,1.85-6.85L77,13.3C73.8,25.16,70.63,37,67.43,48.81Zm10,2.61C80.62,39.49,83.8,27.7,87,15.81L83.57,15,74,50.54ZM87.75,12.66c.12-.23.17-.29.19-.35.2-.77.41-1.54.61-2.31.38-1.47,0-2.16-1.43-2.55Q84,6.61,80.89,5.86A1.67,1.67,0,0,0,78.73,7c-.35,1-.57,2-.89,3.2ZM69.56,59.48l5.76-5.26-7.63-2Z"/><path class="cls-1" d="M68.8,69.47h3c.53,3.47-2,6.64-5,6.31a15.77,15.77,0,0,1-3.55-1.08c-2.37-.9-2.49-.85-3,1.58-.73,3.39-2.93,5.81-5.85,6.38l-.63-3.06a5.15,5.15,0,0,0,3.39-4.4,7.13,7.13,0,0,1,.3-1.21c.89-2.61,2.88-3.62,5.57-2.79,1,.3,1.93.75,2.91,1.11,1.57.57,2.23.22,2.64-1.41C68.69,70.47,68.72,70,68.8,69.47Z"/><path class="cls-1" d="M57.12,62l1.77,2.72L38.37,78l-1.78-2.71Z"/><path class="cls-1" d="M33.36,71.34,31.6,68.61l12.29-7.94,1.79,2.7Z"/><path class="cls-1" d="M59.44,37.11c.23.92.47,1.74.6,2.59a.89.89,0,0,1-.5.68c-3.35.85-6.71,1.66-10.16,2.5l-.75-3.13Z"/><path class="cls-1" d="M46.08,36.2l-.74-3.13,10.72-2.62c.23.86.49,1.67.64,2.5a.87.87,0,0,1-.43.74C52.92,34.55,49.57,35.35,46.08,36.2Z"/><path class="cls-1" d="M53.93,58l-4.17,2.7L48,58l4.15-2.71Z"/><path class="cls-1" d="M12.05,20.73V17.64h3.14v3.09Z"/><path class="cls-1" d="M13.53,62.45H10.44V59.31h3.09Z"/><path class="cls-1" d="M38.54,15.74H35.45V12.63h3.09Z"/><path class="cls-1" d="M18.73,15.71V12.62h3.15v3.09Z"/><path class="cls-1" d="M10.2,69.1H7.1V66h3.1Z"/><path class="cls-1" d="M30.23,11v3.08H27.09V11Z"/><path class="cls-1" d="M8.55,72.66v3.09H5.41V72.66Z"/><path class="cls-1" d="M88.58,74.3v3.11H85.45V74.3Z"/><path class="cls-1" d="M7.09,79.3h3.09v3.11H7.09Z"/><path class="cls-1" d="M91.87,84.11H88.79V81h3.08Z"/><path class="cls-1" d="M13.55,86v3.1h-3.1V86Z"/><path class="cls-1" d="M75.24,87.66v3.1H72.1v-3.1Z"/><path class="cls-1" d="M85.43,90.74v-3.1h3.11v3.1Z"/><path class="cls-1" d="M20.21,89.31v3.1H17.1v-3.1Z"/><path class="cls-1" d="M30.42,92.43v-3.1h3.11v3.1Z"/><path class="cls-1" d="M26.85,94.13H23.78V91h3.07Z"/><path class="cls-1" d="M81.87,94.13H78.8V91h3.07Z"/></svg>