<svg id="Layer_1" data-name="Layer 1" xmlns="http://www.w3.org/2000/svg" viewBox="0 0 100 100"><defs><style>.cls-1{fill:#35b2b6;}.cls-2{fill:#484849;}</style></defs><rect class="cls-1" x="32.84" y="48.47" width="16.15" height="2.97" transform="translate(-3.32 2.91) rotate(-3.92)"/><path class="cls-1" d="M59.08,50.07l-.28-3,13.42-1.27a3.52,3.52,0,0,0,3.07-2.24l6-15.62a2.39,2.39,0,0,0,.15-.83,2.33,2.33,0,0,0-2.32-2.33H26.05v-3h53.1a5.3,5.3,0,0,1,5.29,5.3,5.37,5.37,0,0,1-.35,1.9l-6,15.62a6.49,6.49,0,0,1-5.59,4.13Z"/><rect class="cls-1" x="50.33" y="58.99" width="25.2" height="2.97"/><path class="cls-1" d="M38.76,59.65A19.15,19.15,0,0,1,30.47,48L23.66,19.76c-.9-3.74-2.71-5.33-6.05-5.33H8.69v-3h8.92c4.71,0,7.72,2.55,8.94,7.6l6.81,28.25a16.09,16.09,0,0,0,6.94,9.8Z"/><path class="cls-1" d="M66.62,70.87a5.94,5.94,0,1,1,5.94-5.94A5.95,5.95,0,0,1,66.62,70.87Zm0-8.91a3,3,0,1,0,3,3A3,3,0,0,0,66.62,62Z"/><rect class="cls-1" x="27.49" y="27.79" width="28.74" height="2.97"/><rect class="cls-1" x="59.19" y="27.79" width="2.97" height="2.97"/><rect class="cls-1" x="65.13" y="27.79" width="2.97" height="2.97"/><rect class="cls-1" x="71.08" y="27.79" width="2.97" height="2.97"/><path class="cls-2" d="M33.77,95.11,32,92.7c1.62-1.17,5.29-3.51,7.57-4,9.17-1.87,10.88-3.35,14.21-6.82a2.83,2.83,0,0,0,.4-3.77l-7.28-9.76a5.67,5.67,0,0,1-1.09-3.44,5.4,5.4,0,0,1,1.56-3.7l9.47-9.08a2.93,2.93,0,0,0,.85-2.08,3,3,0,0,0-3-3h0a2.94,2.94,0,0,0-2.09.87l-20.2,19.2a2.62,2.62,0,0,1-1.81.73A2.59,2.59,0,0,1,28,65.31V57.5a3,3,0,0,0-3-3h0a2.94,2.94,0,0,0-3,3V81.26c0,2.18-.66,6.14-2.77,8l-2-2.23c1.09-1,1.81-3.8,1.77-5.75V57.5a5.83,5.83,0,0,1,1.72-4.19A5.9,5.9,0,0,1,25,51.56h0A6,6,0,0,1,31,57.5v7L50.56,45.85a5.86,5.86,0,0,1,4.17-1.72h0a6,6,0,0,1,5.94,5.94,5.9,5.9,0,0,1-1.74,4.2l-9.46,9.07a2.43,2.43,0,0,0-.68,1.59,2.71,2.71,0,0,0,.5,1.66l7.32,9.83a5.78,5.78,0,0,1-.7,7.56c-3.84,4-6.2,5.7-15.74,7.65C38.77,91.92,35.81,93.63,33.77,95.11ZM30.39,65Z"/><polygon class="cls-2" points="14.63 54.53 11.66 54.53 11.66 57.5 14.63 57.5 14.63 54.53 14.63 54.53"/><polygon class="cls-2" points="16.12 66.41 13.15 66.41 13.15 69.38 16.12 69.38 16.12 66.41 16.12 66.41"/><polygon class="cls-2" points="16.12 42.65 13.15 42.65 13.15 45.62 16.12 45.62 16.12 42.65 16.12 42.65"/><polygon class="cls-2" points="22.06 32.25 19.09 32.25 19.09 35.22 22.06 35.22 22.06 32.25 22.06 32.25"/><polygon class="cls-2" points="51.77 91.66 48.8 91.66 48.8 94.63 51.77 94.63 51.77 91.66 51.77 91.66"/><polygon class="cls-2" points="63.65 90.18 60.68 90.18 60.68 93.15 63.65 93.15 63.65 90.18 63.65 90.18"/><polygon class="cls-2" points="88.9 54.53 85.93 54.53 85.93 57.5 88.9 57.5 88.9 54.53 88.9 54.53"/><polygon class="cls-2" points="87.41 66.41 84.44 66.41 84.44 69.38 87.41 69.38 87.41 66.41 87.41 66.41"/><polygon class="cls-2" points="87.41 42.65 84.44 42.65 84.44 45.62 87.41 45.62 87.41 42.65 87.41 42.65"/><polygon class="cls-2" points="81.47 76.81 78.5 76.81 78.5 79.78 81.47 79.78 81.47 76.81 81.47 76.81"/><polygon class="cls-2" points="74.05 84.23 71.08 84.23 71.08 87.21 74.05 87.21 74.05 84.23 74.05 84.23"/><rect class="cls-2" x="54.74" y="7" width="2.97" height="8.91"/><rect class="cls-2" x="45.1" y="8.54" width="2.97" height="8.74" transform="translate(-1.75 11.85) rotate(-14.23)"/><rect class="cls-2" x="61.49" y="11.43" width="8.74" height="2.97" transform="translate(37.14 73.57) rotate(-75.76)"/></svg>