<svg id="Layer_1" data-name="Layer 1" xmlns="http://www.w3.org/2000/svg" viewBox="0 0 100 100"><defs><style>.cls-1{fill:#484849;}.cls-2{fill:#35b2b6;}</style></defs><path class="cls-1" d="M88.53,64.94H57.08V61.8H88.53a3.16,3.16,0,0,0,3.15-3.15V20.9a3.15,3.15,0,0,0-3.15-3.14H27.19a3.15,3.15,0,0,0-3.14,3.14V39.78H20.9V20.9a6.29,6.29,0,0,1,6.29-6.29H88.53a6.3,6.3,0,0,1,6.3,6.29V58.65A6.3,6.3,0,0,1,88.53,64.94Z"/><rect class="cls-1" x="22.48" y="22.48" width="25.17" height="3.15"/><rect class="cls-1" x="50.79" y="22.48" width="6.29" height="3.15"/><rect class="cls-1" x="60.22" y="22.48" width="6.29" height="3.15"/><rect class="cls-1" x="72.81" y="22.48" width="20.45" height="3.15"/><path class="cls-2" d="M71.06,42.93c-2,0-6.31-.92-8.8-3.31a6.21,6.21,0,0,1-2-4.54,6.3,6.3,0,0,1,6.25-6.31h0a6.17,6.17,0,0,1,4.57,2c2.51,2.6,3.41,7.19,3.33,9.07-.09,2.19-.9,3-3.08,3.08Zm-4.57-11a3.15,3.15,0,0,0-3.12,3.16,3.07,3.07,0,0,0,1.06,2.28c1.91,1.82,5.59,2.5,6.74,2.43h.06v-.06c0-1.11-.63-4.88-2.44-6.75a3.06,3.06,0,0,0-2.28-1.05Z"/><path class="cls-2" d="M74.55,42.92h-.24c-2.18-.09-3-.9-3.08-3.08-.07-1.88.82-6.47,3.33-9.07a6.21,6.21,0,0,1,4.54-2h0a6.25,6.25,0,0,1,4.22,10.86C80.86,42,76.54,42.92,74.55,42.92Zm-.17-3.15h.19c1.26,0,4.77-.66,6.61-2.42a3.08,3.08,0,0,0,1.06-2.29,3.14,3.14,0,0,0-3.12-3.15,2.79,2.79,0,0,0-2.29,1c-1.81,1.88-2.5,5.64-2.45,6.76Z"/><path class="cls-2" d="M82.24,58.65H63.37a3.16,3.16,0,0,1-3.15-3.15V42.92a3.15,3.15,0,0,1,3.15-3.14H82.24a3.15,3.15,0,0,1,3.15,3.14V55.5A3.15,3.15,0,0,1,82.24,58.65ZM63.37,42.92h0V55.5H82.24V42.92Z"/><rect class="cls-2" x="71.23" y="41.35" width="3.15" height="15.73"/><polygon class="cls-1" points="17.76 5.17 14.61 5.17 14.61 8.32 17.76 8.32 17.76 5.17 17.76 5.17"/><polygon class="cls-1" points="24.05 8.32 20.9 8.32 20.9 11.46 24.05 11.46 24.05 8.32 24.05 8.32"/><polygon class="cls-1" points="8.32 14.61 5.17 14.61 5.17 17.76 8.32 17.76 8.32 14.61 8.32 14.61"/><polygon class="cls-1" points="17.76 24.05 14.61 24.05 14.61 27.19 17.76 27.19 17.76 24.05 17.76 24.05"/><polygon class="cls-1" points="11.46 20.9 8.32 20.9 8.32 24.05 11.46 24.05 11.46 20.9 11.46 20.9"/><polygon class="cls-1" points="11.46 8.32 8.32 8.32 8.32 11.46 11.46 11.46 11.46 8.32 11.46 8.32"/><polygon class="cls-1" points="72.81 71.23 69.66 71.23 69.66 74.38 72.81 74.38 72.81 71.23 72.81 71.23"/><polygon class="cls-1" points="79.1 74.38 75.95 74.38 75.95 77.53 79.1 77.53 79.1 74.38 79.1 74.38"/><polygon class="cls-1" points="63.37 80.67 60.22 80.67 60.22 83.82 63.37 83.82 63.37 80.67 63.37 80.67"/><polygon class="cls-1" points="82.24 80.67 79.1 80.67 79.1 83.82 82.24 83.82 82.24 80.67 82.24 80.67"/><polygon class="cls-1" points="72.81 90.11 69.66 90.11 69.66 93.25 72.81 93.25 72.81 90.11 72.81 90.11"/><polygon class="cls-1" points="66.52 86.96 63.37 86.96 63.37 90.11 66.52 90.11 66.52 86.96 66.52 86.96"/><polygon class="cls-1" points="79.1 86.96 75.95 86.96 75.95 90.11 79.1 90.11 79.1 86.96 79.1 86.96"/><polygon class="cls-1" points="66.52 74.38 63.37 74.38 63.37 77.53 66.52 77.53 66.52 74.38 66.52 74.38"/><path class="cls-2" d="M22.48,63.37a6.29,6.29,0,1,1,6.29-6.29A6.3,6.3,0,0,1,22.48,63.37Zm0-9.44a3.15,3.15,0,1,0,3.14,3.15A3.15,3.15,0,0,0,22.48,53.93Z"/><path class="cls-2" d="M38.2,79.1a6.3,6.3,0,1,1,6.3-6.29A6.29,6.29,0,0,1,38.2,79.1Zm0-9.44a3.15,3.15,0,1,0,3.15,3.15A3.15,3.15,0,0,0,38.2,69.66Z"/><rect class="cls-2" x="15.82" y="63.35" width="29.07" height="3.15" transform="translate(-37.02 40.48) rotate(-45)"/><path class="cls-2" d="M30.34,88.53A23.59,23.59,0,1,1,53.93,64.94,23.61,23.61,0,0,1,30.34,88.53Zm0-44A20.45,20.45,0,1,0,50.79,64.94,20.47,20.47,0,0,0,30.34,44.5Z"/><path class="cls-1" d="M23.69,94.08A30,30,0,0,1,7.29,84l2.42-2A26.94,26.94,0,0,0,24.39,91Z"/><path class="cls-1" d="M30.34,94.83A30.32,30.32,0,0,1,27,94.64l.34-3.12a26.74,26.74,0,0,0,3,.16Z"/></svg>