<?xml version="1.0" encoding="utf-8"?>
<!-- Generator: Adobe Illustrator 24.1.0, SVG Export Plug-In . SVG Version: 6.00 Build 0)  -->
<svg version="1.1" id="Ebene_1" xmlns="http://www.w3.org/2000/svg" xmlns:xlink="http://www.w3.org/1999/xlink" x="0px" y="0px"
	 width="970px" height="190px" viewBox="0 0 970 190" enable-background="new 0 0 970 190" xml:space="preserve">
<g>
	<g>
		<g>
			<path fill="#FFFFFF" d="M633.97,180.5V9.5h314.97c5.98,0,10.84,4.86,10.84,10.84V180.5H633.97z"/>
			<path d="M948.94,10c5.7,0,10.34,4.64,10.34,10.34V180H634.47V10H948.94 M948.94,9H633.47v172h326.81V20.34
				C960.27,14.08,955.2,9,948.94,9L948.94,9z"/>
		</g>
		<path fill="#060400" d="M658.12,9H19.41c-5.35,0-9.68,4.34-9.68,9.68V181h648.4V9z"/>
		<path fill="#FFFFFF" d="M148.38,35.17c3.32,0,6,0.31,8.02,0.96c2.03,0.65,3.48,1.77,4.34,3.37c0.85,1.6,1.36,3.05,1.52,4.33
			c0.16,1.29,0.24,3.16,0.24,5.62v89.04c0,2.46-0.11,4.3-0.32,5.53c-0.22,1.24-0.73,2.63-1.52,4.18c-0.81,1.55-2.22,2.64-4.26,3.29
			c-2.03,0.65-4.76,0.96-8.18,0.96c-2.78,0-5.08-0.26-6.89-0.8c-1.82-0.54-3.21-1.17-4.18-1.93c-0.96-0.74-1.68-1.85-2.17-3.29
			c-0.47-1.44-0.74-2.67-0.8-3.69c-0.05-1.01-0.08-2.54-0.08-4.57V84.42c-2.67,3.32-6.58,8.58-11.71,15.8
			c-5.13,7.22-8.93,12.38-11.39,15.49c-0.32,0.54-0.75,1.15-1.28,1.85c-0.54,0.69-1.85,1.66-3.93,2.89
			c-2.08,1.23-4.36,1.85-6.82,1.85c-2.35,0-4.52-0.56-6.5-1.68c-1.98-1.13-3.4-2.22-4.25-3.29l-1.28-1.77
			c-2.14-2.67-6.37-8.37-12.68-17.09c-6.31-8.71-9.73-13.4-10.26-14.03v54.06c0,2.46-0.08,4.3-0.24,5.53
			c-0.16,1.24-0.67,2.63-1.52,4.18c-0.86,1.55-2.3,2.64-4.34,3.29c-2.03,0.65-4.76,0.96-8.18,0.96c-3.32,0-5.96-0.31-7.94-0.96
			s-3.4-1.74-4.25-3.29c-0.86-1.55-1.36-2.97-1.52-4.25c-0.16-1.29-0.24-3.22-0.24-5.78V49.13c0-2.46,0.08-4.3,0.24-5.53
			c0.16-1.24,0.66-2.63,1.52-4.18c0.85-1.55,2.29-2.64,4.33-3.29c2.03-0.65,4.76-0.96,8.18-0.96c2.89,0,5.38,0.35,7.46,1.04
			c2.08,0.7,3.45,1.42,4.09,2.17l0.97,0.96l36.41,47.81c18.18-24.06,30.33-39.95,36.42-47.65
			C137.21,36.62,141.54,35.17,148.38,35.17z"/>
		<path fill="#FFFFFF" d="M244.28,43.35l43.31,89.52c1.82,3.64,2.73,6.36,2.73,8.18c0,3.85-3.11,7.33-9.31,10.43
			c-3.64,1.82-6.69,2.72-9.14,2.72c-1.71,0-3.24-0.47-4.57-1.44c-1.34-0.96-2.3-1.98-2.89-3.05c-0.58-1.07-1.42-2.67-2.48-4.81
			l-8.34-17.33h-44.44l-8.34,17.33c-1.07,2.14-1.9,3.69-2.48,4.65c-0.59,0.97-1.56,1.95-2.89,2.97c-1.34,1.02-2.86,1.52-4.57,1.52
			c-2.46,0-5.51-0.91-9.14-2.72c-6.21-2.99-9.31-6.42-9.31-10.27c0-1.82,0.91-4.54,2.73-8.18l43.31-89.68
			c1.17-2.46,2.97-4.44,5.38-5.94c2.41-1.5,4.95-2.24,7.62-2.24C237.22,35.01,241.49,37.79,244.28,43.35z M231.28,81.85
			l-10.58,21.98h21.34L231.28,81.85z"/>
		<path fill="#FFFFFF" d="M350.94,81.69h28.24c2.89,0.11,5.22,0.51,6.98,1.21c1.77,0.69,2.99,1.77,3.68,3.21
			c0.7,1.44,1.13,2.72,1.29,3.84c0.16,1.13,0.23,2.87,0.23,5.22v35.3c0,3.42-1.5,6.69-4.49,9.79s-6.31,5.61-9.95,7.54
			c-8.56,4.28-18.71,6.42-30.48,6.42c-15.94,0-29.79-6.01-41.55-18.05c-11.77-12.03-17.64-26.71-17.64-44.04
			c0-16.69,5.99-30.72,17.97-42.11c11.97-11.39,26.1-17.09,42.35-17.09c11.12,0,21.55,3.1,31.28,9.3c2.03,1.4,3.56,2.46,4.57,3.21
			c1.02,0.75,1.98,1.79,2.89,3.14c0.91,1.34,1.36,2.75,1.36,4.25c0,2.46-1.24,5.4-3.69,8.83c-4.17,5.66-7.97,8.5-11.39,8.5
			c-2.03,0-4.87-1.23-8.5-3.68c-5.35-3.42-11.12-5.13-17.32-5.13c-8.14,0-15.35,2.86-21.66,8.58c-6.32,5.72-9.46,13.23-9.46,22.54
			c0,9.19,3.21,17.04,9.62,23.51s13.68,9.71,21.81,9.71c5.89,0,11.17-0.97,15.89-2.89v-17.48h-12.68c-2.03,0-3.5-0.08-4.41-0.24
			c-0.91-0.16-1.93-0.58-3.05-1.28s-1.9-1.87-2.33-3.53c-0.42-1.66-0.64-3.93-0.64-6.82c0-2.78,0.24-5.03,0.72-6.74
			c0.48-1.7,1.37-2.89,2.65-3.53c1.28-0.64,2.37-1.04,3.29-1.2C347.43,81.77,348.9,81.69,350.94,81.69z"/>
		<path fill="#FFFFFF" d="M492.91,35.17c2.68,0,4.95,0.27,6.82,0.8c1.87,0.54,3.26,1.18,4.18,1.93c0.91,0.75,1.6,1.85,2.08,3.29
			c0.48,1.44,0.75,2.67,0.81,3.69c0.05,1.01,0.08,2.54,0.08,4.57v89.04c0,2.56-0.08,4.44-0.24,5.61c-0.16,1.18-0.67,2.57-1.52,4.18
			c-0.86,1.6-2.3,2.72-4.33,3.37c-2.03,0.64-4.77,0.96-8.18,0.96c-4.18,0-7.06-0.32-8.67-0.96c-1.6-0.65-2.95-1.66-4.01-3.05
			c-24.06-32.09-39.9-53.05-47.49-62.89v52.78c0,2.56-0.08,4.44-0.24,5.61c-0.16,1.18-0.66,2.57-1.52,4.18
			c-0.85,1.6-2.3,2.72-4.33,3.37c-2.03,0.64-4.76,0.96-8.18,0.96c-3.32,0-5.97-0.32-7.94-0.96c-1.98-0.65-3.4-1.77-4.26-3.37
			c-0.85-1.6-1.36-3.05-1.52-4.33c-0.16-1.29-0.24-3.15-0.24-5.62V48.8c0-2.46,0.11-4.27,0.32-5.45c0.22-1.17,0.73-2.52,1.52-4.01
			c0.81-1.5,2.22-2.56,4.26-3.21c2.03-0.65,4.76-0.96,8.18-0.96c2.99,0,5.42,0.3,7.29,0.88c1.87,0.59,3.18,1.23,3.93,1.93
			c0.74,0.7,1.71,1.79,2.89,3.29l0.81,0.96c22.56,30.7,37.65,50.96,45.24,60.8V48.8c0-2.46,0.11-4.27,0.32-5.45
			c0.22-1.17,0.72-2.52,1.52-4.01c0.8-1.5,2.22-2.56,4.25-3.21C486.76,35.49,489.49,35.17,492.91,35.17z"/>
		<path fill="#FFFFFF" d="M574.89,33.57c15.83,0,29.57,5.72,41.23,17.16s17.49,25.94,17.49,43.48c0,16.36-5.57,30.5-16.69,42.43
			c-11.13,11.93-24.65,17.89-40.6,17.89c-16.58,0-30.56-5.88-41.95-17.64s-17.09-25.77-17.09-42.04c0-8.87,1.6-17.19,4.81-24.94
			c3.21-7.76,7.49-14.26,12.84-19.5c5.34-5.23,11.49-9.36,18.44-12.35C560.35,35.07,567.51,33.57,574.89,33.57z M575.37,126.13
			c7.7,0,14.6-2.89,20.69-8.66c6.1-5.78,9.15-13.59,9.15-23.43c0-9.62-3.07-17.38-9.23-23.26c-6.15-5.88-12.97-8.83-20.45-8.83
			c-7.7,0-14.6,2.98-20.7,8.91c-6.09,5.93-9.14,13.72-9.14,23.34c0,9.41,3.07,17.08,9.22,23.02
			C561.07,123.16,567.88,126.13,575.37,126.13z"/>
	</g>
	<g>
		<path fill="#060400" d="M758.32,35.1c2.47,0,4.33,0.08,5.56,0.25c1.23,0.17,2.63,0.67,4.2,1.53c1.57,0.87,2.67,2.32,3.32,4.37
			c0.63,2.05,0.97,4.8,0.97,8.25c0,3.45-0.33,6.18-0.97,8.23c-0.65,2.05-1.78,3.48-3.4,4.28c-1.62,0.82-3.03,1.3-4.28,1.47
			c-1.23,0.15-3.15,0.23-5.73,0.23H708.6v16.33h31.79c2.58,0,4.5,0.08,5.73,0.23c1.23,0.17,2.63,0.68,4.2,1.53
			c1.57,0.87,2.67,2.35,3.32,4.45c0.65,2.1,0.97,4.88,0.97,8.33c0,2.8-0.27,5.11-0.82,6.95c-0.53,1.83-1.18,3.23-1.93,4.2
			c-0.75,0.97-1.85,1.7-3.3,2.18c-1.47,0.48-2.7,0.75-3.72,0.8c-1.03,0.07-2.57,0.08-4.6,0.08H708.6v30.54
			c0,2.6-0.08,4.48-0.25,5.66c-0.17,1.18-0.67,2.58-1.53,4.2c-0.87,1.62-2.32,2.75-4.37,3.4c-2.03,0.65-4.78,0.97-8.23,0.97
			c-2.8,0-5.11-0.27-6.93-0.8c-1.83-0.55-3.23-1.2-4.2-1.95c-0.97-0.75-1.7-1.85-2.18-3.32c-0.48-1.45-0.75-2.68-0.82-3.72
			c-0.05-1.02-0.07-2.55-0.07-4.6V49.33c0-5.5,1.02-9.23,3.07-11.23c2.03-2,5.91-3,11.61-3H758.32z"/>
		<path fill="#060400" d="M782.86,49.33c0-2.48,0.07-4.33,0.23-5.58c0.17-1.23,0.67-2.67,1.53-4.28c0.87-1.62,2.32-2.75,4.37-3.38
			c2.03-0.65,4.78-0.98,8.23-0.98c2.8,0,5.11,0.28,6.95,0.82c1.82,0.53,3.22,1.18,4.18,1.93c0.98,0.77,1.7,1.87,2.18,3.32
			c0.48,1.45,0.75,2.7,0.82,3.72c0.05,1.03,0.08,2.57,0.08,4.62v89.84c0,2.6-0.08,4.48-0.25,5.66c-0.17,1.18-0.67,2.58-1.53,4.2
			c-0.87,1.62-2.32,2.75-4.37,3.4c-2.03,0.65-4.78,0.97-8.23,0.97c-2.8,0-5.11-0.27-6.93-0.8c-1.83-0.55-3.23-1.2-4.2-1.95
			c-0.97-0.75-1.7-1.85-2.18-3.32c-0.48-1.45-0.75-2.68-0.82-3.72c-0.05-1.02-0.07-2.55-0.07-4.6V49.33z"/>
		<path fill="#060400" d="M897.14,93.62l32.46,35.7c3.65,4.1,5.48,7.38,5.48,9.86c0,3.12-2.1,6.56-6.3,10.35
			c-4.08,3.77-7.63,5.65-10.65,5.65c-2.7,0-5.91-2.15-9.68-6.46l-30.67-35.22l-30.67,35.22c-3.88,4.32-7.11,6.46-9.7,6.46
			c-2.9,0-6.45-1.88-10.65-5.65c-4.32-3.88-6.46-7.38-6.46-10.51c0-2.27,1.88-5.5,5.65-9.7l32.46-35.7L825.95,57.9
			c-3.77-3.98-5.65-7.21-5.65-9.7c0-3.12,2.15-6.63,6.46-10.5c4.08-3.78,7.63-5.66,10.65-5.66c2.7,0,5.93,2.15,9.7,6.46l30.67,35.22
			l30.67-35.22c3.87-4.32,7.1-6.46,9.68-6.46c2.9,0,6.45,1.88,10.65,5.66c4.2,3.77,6.3,7.26,6.3,10.5c0,2.58-1.83,5.81-5.48,9.7
			L897.14,93.62z"/>
	</g>
</g>
</svg>
