<?xml version="1.0" encoding="UTF-8"?>
<svg width="65px" height="10px" viewBox="0 0 65 10" version="1.1" xmlns="http://www.w3.org/2000/svg" xmlns:xlink="http://www.w3.org/1999/xlink">
    <!-- Generator: Sketch 54.1 (76490) - https://sketchapp.com -->
    <title>Mixpix_logo</title>
    <desc>Created with Sketch.</desc>
    <g id="Working" stroke="none" stroke-width="1" fill="none" fill-rule="evenodd">
        <g id="MixPix-LP-4-Pix-(S)-Navi" transform="translate(-19.000000, -252.000000)" fill="#FFFFFF" fill-rule="nonzero">
            <g id="Mixpix_logo" transform="translate(19.000000, 252.000000)">
                <g id="Group" transform="translate(13.333333, 0.000000)">
                    <path d="M5.14617934,6.75924007 C5.19426402,6.88082902 5.2423487,7.00241796 5.28819689,7.12621762 C5.33404507,6.99799655 5.38324801,6.8764076 5.43356919,6.75924007 C5.48389037,6.64317789 5.54203928,6.52490501 5.60689769,6.40663212 L8.96947076,0.369188256 C9.02985618,0.26417962 9.09135984,0.200069085 9.15621825,0.176856649 C9.22107666,0.153644214 9.31277304,0.142590674 9.43354387,0.142590674 L10.4254302,0.142590674 L10.4254302,9.96366149 L9.24679638,9.96366149 L9.24679638,2.74680484 C9.24679638,2.65063903 9.24903287,2.54784111 9.25350587,2.43841105 C9.25797886,2.328981 9.26468835,2.21734024 9.27475259,2.10238342 L5.87080433,8.24262522 C5.75562474,8.44822107 5.59347871,8.551019 5.3854845,8.551019 L5.19090927,8.551019 C4.98291506,8.551019 4.82076904,8.44822107 4.70558945,8.24262522 L1.22560029,2.08138169 C1.23901928,2.20075993 1.25020176,2.31682211 1.25691125,2.43067358 C1.26362074,2.54452504 1.26697549,2.64953368 1.26697549,2.74569948 L1.26697549,9.96255613 L0.088341627,9.96255613 L0.088341627,0.142590674 L1.080228,0.142590674 C1.19988058,0.142590674 1.2926952,0.153644214 1.35755361,0.176856649 C1.42241202,0.200069085 1.48503393,0.26417962 1.5443011,0.369188256 L4.97620557,6.41326425 C5.04106398,6.5226943 5.0969764,6.63765112 5.14617934,6.75924007 Z" id="Path"></path>
                    <polygon id="Path" points="15.1612124 9.96255613 13.8159595 9.96255613 13.8159595 0.142590674 15.1612124 0.142590674"></polygon>
                    <path d="M20.853097,4.91882556 L17.5732743,0.142590674 L18.9118177,0.142590674 C19.0091053,0.142590674 19.0806732,0.159170984 19.1265214,0.190120898 C19.1723696,0.222176166 19.2137448,0.267495682 19.2517652,0.327184801 L21.8449833,4.2611399 C21.8774125,4.16497409 21.9254972,4.05996546 21.9903556,3.94611399 L24.4382015,0.354818653 C24.4795767,0.290708117 24.5254249,0.239861831 24.5735095,0.200069085 C24.6215942,0.161381693 24.6808614,0.14148532 24.7501928,0.14148532 L26.0328238,0.14148532 L22.7395821,4.85692573 L26.1435304,9.96255613 L24.8128147,9.96255613 C24.7110541,9.96255613 24.6316585,9.93602763 24.5735095,9.88407599 C24.5153606,9.83212435 24.4683942,9.77354059 24.431492,9.70943005 L21.7689424,5.59088083 C21.7365132,5.68704663 21.695138,5.77879102 21.6436986,5.86500864 L19.0504805,9.70943005 C19.0091053,9.77354059 18.9610206,9.83212435 18.9084629,9.88407599 C18.854787,9.93713299 18.7798644,9.96255613 18.6825767,9.96255613 L17.4346115,9.96255613 L20.853097,4.91882556 Z" id="Path"></path>
                    <path d="M29.9142641,6.47405872 L29.9142641,9.96255613 L28.0490257,9.96255613 L28.0490257,0.0530569948 L31.3143112,0.0530569948 C31.984142,0.0530569948 32.5645129,0.130431779 33.0543057,0.286286701 C33.5440986,0.442141623 33.9489045,0.658791019 34.2676053,0.937340242 C34.5863061,1.21588946 34.8222565,1.54970639 34.9743383,1.93768566 C35.1264201,2.32566494 35.2035792,2.75122625 35.2035792,3.21215889 C35.2035792,3.69188256 35.1230654,4.13181347 34.9609193,4.53195164 C34.7987733,4.93208981 34.5561134,5.27585492 34.2329396,5.56324698 C33.9097658,5.85063903 33.5049599,6.07502591 33.01964,6.23530225 C32.5343202,6.39557858 31.96625,6.47516408 31.3143112,6.47516408 L29.9142641,6.47516408 L29.9142641,6.47405872 Z M29.9142641,5.03488774 L31.3143112,5.03488774 C31.6564952,5.03488774 31.9539493,4.99288428 32.2089099,4.90777202 C32.4627523,4.82376511 32.672983,4.70217617 32.839602,4.54411054 C33.0062211,4.38604491 33.1303466,4.19481865 33.2142153,3.96822107 C33.2969656,3.74162349 33.3394591,3.48960276 33.3394591,3.21105354 C33.3394591,2.94576857 33.2980839,2.70590674 33.2142153,2.49146805 C33.1314649,2.27702936 33.0062211,2.09354059 32.839602,1.94321244 C32.672983,1.79288428 32.4627523,1.67682211 32.2089099,1.59723661 C31.9550675,1.51765112 31.6564952,1.47785838 31.3143112,1.47785838 L29.9142641,1.47785838 L29.9142641,5.03488774 Z" id="Shape"></path>
                    <polygon id="Path" points="39.4752883 9.96255613 37.6033404 9.96255613 37.6033404 0.0530569948 39.4752883 0.0530569948"></polygon>
                    <path d="M44.8551816,4.86355786 L41.6592275,0.0530569948 L43.5177564,0.0530569948 C43.6474732,0.0530569948 43.7402879,0.0696373057 43.7984368,0.103903282 C43.8565857,0.138169257 43.9080251,0.194542314 43.9538733,0.271917098 L46.2351001,3.91074266 C46.2585834,3.85105354 46.2831848,3.79357513 46.311141,3.73609672 C46.3390972,3.67861831 46.3715264,3.6211399 46.4084286,3.56145078 L48.4950802,0.306183074 C48.5968408,0.137063903 48.7287942,0.0530569948 48.8898219,0.0530569948 L50.6790194,0.0530569948 L47.4483997,4.78839378 L50.7695976,9.96255613 L48.9043592,9.96255613 C48.7791153,9.96255613 48.6795912,9.93050086 48.6024321,9.86639033 C48.5263912,9.80227979 48.462651,9.72932642 48.4112116,9.64753022 L46.0886096,5.85063903 C46.0695994,5.90590674 46.0494709,5.95675302 46.0259877,6.0053886 C46.0025045,6.05291883 45.9801395,6.09823834 45.9566563,6.13913644 L43.7313419,9.64753022 C43.6799024,9.72490501 43.6183988,9.79675302 43.5445944,9.86307427 C43.47079,9.92939551 43.3779754,9.96255613 43.2672688,9.96255613 L41.5205647,9.96255613 L44.8551816,4.86355786 Z" id="Path"></path>
                </g>
                <rect id="Rectangle" x="0" y="0" width="10" height="10"></rect>
            </g>
        </g>
    </g>
</svg>