<?xml version="1.0" encoding="utf-8"?>
<!-- Generator: Adobe Illustrator 26.1.0, SVG Export Plug-In . SVG Version: 6.00 Build 0)  -->
<svg version="1.1" id="Ebene_1" xmlns="http://www.w3.org/2000/svg" xmlns:xlink="http://www.w3.org/1999/xlink" x="0px" y="0px"
	 width="221px" height="221px" viewBox="0 0 221 221" enable-background="new 0 0 221 221" xml:space="preserve">
<g>
	<g>
		<path fill="#4388FD" d="M110.9,219.4c-9.2,0-18.2-0.7-27.2-3c-8-2.1-15.7-5.1-23-9c-2.4-1.3-4.8-2.5-7.2-3.7
			c-1.5-0.7-3-0.9-4.6-0.4c-9.3,2.7-18.8,5-28.2,7.4c-2.7,0.7-5.5,1.4-8.2,2c-1,0.2-1.9-0.7-2-1.9c-0.1-0.7,0.1-1.4,0.3-2
			c2.4-9.7,5.2-19.2,7.9-28.8c0.4-1.5,0.8-3.1,1-4.7c0.5-2.7-0.4-5.1-1.8-7.4c-2.3-3.8-4.5-7.7-6.4-11.7c-3.9-8.3-7-16.8-8.7-25.9
			c-1.2-6.9-1.4-14-1.5-21c-0.1-10.7,2.2-20.9,5-31.1c5.2-18.9,15.8-34.3,30-47.5C47.8,20.3,60.7,12.6,75.1,7.5
			c8.7-3.1,17.8-5.1,27.1-5.6c5.8-0.3,11.6-0.5,17.4-0.1c4.1,0.3,8.1,1.1,12.2,1.9c5.4,1.1,10.8,2.2,16,4.2
			c19.3,7.3,35.4,19.1,48.2,35.4c11,13.9,18,29.6,21.4,47c1.8,9.3,2.5,18.7,2,28.1c-1.1,20.2-7.5,38.5-19.4,54.9
			c-7.9,10.9-17.1,20.5-28.4,28c-12.1,8-25.3,13.7-39.6,16.5C125.9,218.9,118.7,219.4,110.9,219.4z"/>
	</g>
	<path fill="#FEFEFE" d="M26,148.8c9.8-10.8,19.7-21.7,29.5-32.5c13.3-14.6,26.6-29.3,39.9-43.9c0.7-0.8,1-0.7,1.7,0
		c11.2,11.3,22.5,22.5,33.7,33.8c0.6,0.7,1.1,0.7,1.9,0.2c20.6-11.5,41.3-23,61.9-34.4c0.2-0.1,0.3,0,0.2,0.2
		c-9.8,10.8-19.7,21.7-29.5,32.5c-13.3,14.6-26.6,29.3-39.9,43.9c-0.7,0.8-1,0.7-1.7,0c-11.2-11.3-22.5-22.5-33.7-33.8
		c-0.6-0.7-1.1-0.7-1.9-0.2c-20.6,11.5-41.3,23-61.9,34.4C26.1,149.1,26,149,26,148.8z"/>
</g>
</svg>
