<?xml version="1.0" encoding="utf-8"?>
<!-- Generator: Adobe Illustrator 26.0.1, SVG Export Plug-In . SVG Version: 6.00 Build 0)  -->
<svg version="1.1" xmlns="http://www.w3.org/2000/svg" xmlns:xlink="http://www.w3.org/1999/xlink" x="0px" y="0px" width="365px"
	 height="35px" viewBox="0 0 365 35" enable-background="new 0 0 365 35" xml:space="preserve">
<g id="Ebene_3">
	<rect fill-rule="evenodd" clip-rule="evenodd" fill="#F2D662" width="365" height="35"/>
	<polygon fill="#484849" points="254.5,35 0,35 5,0 259.5,0 	"/>
	<polygon fill="#D40140" points="360,35 250.5,35 255.5,0 365,0 	"/>
</g>
<g id="Ebene_2">
	<g>
		<path fill="#F2D662" d="M17.6,26.2c-1.6-0.9-2.8-2-3.7-3.6c-0.9-1.5-1.3-3.2-1.3-5.1c0-1.9,0.5-3.6,1.4-5.1
			c0.9-1.5,2.1-2.7,3.7-3.6c1.6-0.9,3.3-1.3,5.3-1.3c1.6,0,3,0.3,4.4,0.8c1.3,0.6,2.4,1.4,3.3,2.4L28.2,13c-1.4-1.5-3.1-2.3-5.2-2.3
			c-1.3,0-2.5,0.3-3.6,0.9c-1.1,0.6-1.9,1.4-2.5,2.4c-0.6,1-0.9,2.2-0.9,3.5c0,1.3,0.3,2.5,0.9,3.5c0.6,1,1.4,1.8,2.5,2.4
			c1.1,0.6,2.2,0.9,3.6,0.9c2.1,0,3.8-0.8,5.2-2.3l2.3,2.2c-0.9,1.1-2,1.9-3.3,2.4c-1.3,0.6-2.8,0.8-4.4,0.8
			C20.9,27.5,19.1,27.1,17.6,26.2z"/>
		<path fill="#F2D662" d="M42.1,20.4v6.8h-3.6v-6.8L30.9,7.8h3.9l5.7,9.5l5.7-9.5h3.5L42.1,20.4z"/>
		<path fill="#F2D662" d="M68.1,18.9c0.6,0.8,0.9,1.8,0.9,3.1c0,1.7-0.6,3-1.9,3.9s-3.2,1.4-5.7,1.4h-9.6V7.8h9.1
			c2.3,0,4.1,0.4,5.3,1.3c1.2,0.9,1.9,2.1,1.9,3.7c0,1-0.2,1.8-0.7,2.6c-0.4,0.7-1.1,1.3-1.8,1.7C66.6,17.5,67.5,18.1,68.1,18.9z
			 M55.4,10.6V16h5.1c1.3,0,2.2-0.2,2.9-0.7c0.7-0.5,1-1.1,1-2c0-0.9-0.3-1.6-1-2c-0.7-0.5-1.6-0.7-2.9-0.7H55.4z M65.4,21.6
			c0-1.9-1.4-2.8-4.2-2.8h-5.8v5.6h5.8C64,24.4,65.4,23.4,65.4,21.6z"/>
		<path fill="#F2D662" d="M87.5,24.2v3H72.9V7.8h14.2v3H76.5v5h9.4v3h-9.4v5.4H87.5z"/>
		<path fill="#F2D662" d="M104.2,27.2l-4-5.7c-0.2,0-0.4,0-0.7,0h-4.4v5.7h-3.6V7.8h8c1.7,0,3.1,0.3,4.4,0.8
			c1.2,0.6,2.2,1.3,2.9,2.4c0.7,1,1,2.3,1,3.7c0,1.5-0.4,2.7-1.1,3.8c-0.7,1.1-1.7,1.8-3.1,2.4l4.5,6.4H104.2z M102.9,11.8
			c-0.8-0.7-2-1-3.6-1h-4.2v7.7h4.2c1.6,0,2.8-0.3,3.6-1c0.8-0.7,1.2-1.6,1.2-2.9C104.1,13.5,103.7,12.5,102.9,11.8z"/>
		<path fill="#F2D662" d="M137.2,27.2l0-12.9L130.8,25h-1.6l-6.4-10.5v12.7h-3.4V7.8h3l7.7,12.9l7.6-12.9h3l0,19.4H137.2z"/>
		<path fill="#F2D662" d="M149.6,26.2c-1.6-0.9-2.8-2.1-3.7-3.6c-0.9-1.5-1.4-3.2-1.4-5.1c0-1.9,0.5-3.6,1.4-5.1
			c0.9-1.5,2.2-2.7,3.7-3.6c1.6-0.9,3.4-1.3,5.4-1.3c2,0,3.8,0.4,5.4,1.3c1.6,0.9,2.8,2,3.7,3.6c0.9,1.5,1.4,3.2,1.4,5.1
			c0,1.9-0.5,3.6-1.4,5.1c-0.9,1.5-2.2,2.7-3.7,3.6c-1.6,0.9-3.4,1.3-5.4,1.3C153,27.5,151.2,27.1,149.6,26.2z M158.5,23.4
			c1-0.6,1.8-1.4,2.4-2.4c0.6-1,0.9-2.2,0.9-3.5c0-1.3-0.3-2.5-0.9-3.5c-0.6-1-1.4-1.9-2.4-2.4c-1-0.6-2.2-0.9-3.5-0.9
			c-1.3,0-2.5,0.3-3.5,0.9c-1,0.6-1.8,1.4-2.4,2.4c-0.6,1-0.9,2.2-0.9,3.5c0,1.3,0.3,2.5,0.9,3.5c0.6,1,1.4,1.9,2.4,2.4
			c1,0.6,2.2,0.9,3.5,0.9C156.3,24.3,157.4,24,158.5,23.4z"/>
		<path fill="#F2D662" d="M186.5,7.8v19.4h-3l-10.7-13.1v13.1h-3.6V7.8h3l10.7,13.1V7.8H186.5z"/>
		<path fill="#F2D662" d="M191.7,7.8h8.5c2.1,0,3.9,0.4,5.5,1.2c1.6,0.8,2.9,1.9,3.7,3.4c0.9,1.5,1.3,3.2,1.3,5.1
			c0,1.9-0.4,3.6-1.3,5.1c-0.9,1.5-2.1,2.6-3.7,3.4c-1.6,0.8-3.4,1.2-5.5,1.2h-8.5V7.8z M200,24.2c1.4,0,2.7-0.3,3.8-0.8
			c1.1-0.5,1.9-1.3,2.5-2.3s0.9-2.2,0.9-3.5c0-1.3-0.3-2.5-0.9-3.5s-1.4-1.8-2.5-2.3c-1.1-0.5-2.3-0.8-3.8-0.8h-4.7v13.3H200z"/>
		<path fill="#F2D662" d="M226.9,22.7h-9.7l-1.9,4.5h-3.7l8.7-19.4h3.5l8.8,19.4h-3.8L226.9,22.7z M225.7,19.9l-3.7-8.5l-3.6,8.5
			H225.7z"/>
		<path fill="#F2D662" d="M242.3,20.4v6.8h-3.6v-6.8l-7.6-12.6h3.9l5.7,9.5l5.7-9.5h3.5L242.3,20.4z"/>
		<path fill="#F2D662" d="M259.9,7.8h8.5c2.1,0,3.9,0.4,5.5,1.2c1.6,0.8,2.9,1.9,3.7,3.4c0.9,1.5,1.3,3.2,1.3,5.1
			c0,1.9-0.4,3.6-1.3,5.1c-0.9,1.5-2.1,2.6-3.7,3.4c-1.6,0.8-3.4,1.2-5.5,1.2h-8.5V7.8z M268.2,24.2c1.4,0,2.7-0.3,3.8-0.8
			c1.1-0.5,1.9-1.3,2.5-2.3s0.9-2.2,0.9-3.5c0-1.3-0.3-2.5-0.9-3.5s-1.4-1.8-2.5-2.3c-1.1-0.5-2.3-0.8-3.8-0.8h-4.7v13.3H268.2z"/>
		<path fill="#F2D662" d="M297.4,24.2v3h-14.6V7.8H297v3h-10.6v5h9.4v3h-9.4v5.4H297.4z"/>
		<path fill="#F2D662" d="M314,22.7h-9.7l-1.9,4.5h-3.7l8.7-19.4h3.5l8.8,19.4h-3.8L314,22.7z M312.8,19.9l-3.7-8.5l-3.6,8.5H312.8z
			"/>
		<path fill="#F2D662" d="M322.2,7.8h3.6v16.4h10.1v3h-13.8V7.8z"/>
		<path fill="#F2D662" d="M340.3,26.8c-1.4-0.4-2.5-1-3.3-1.7l1.2-2.8c0.8,0.6,1.8,1.1,2.9,1.5c1.2,0.4,2.3,0.6,3.5,0.6
			c1.4,0,2.5-0.2,3.2-0.7c0.7-0.5,1.1-1.1,1.1-1.8c0-0.6-0.2-1-0.6-1.4c-0.4-0.4-0.9-0.6-1.5-0.8c-0.6-0.2-1.4-0.4-2.5-0.7
			c-1.5-0.4-2.7-0.7-3.6-1.1c-0.9-0.4-1.7-0.9-2.4-1.7c-0.7-0.7-1-1.8-1-3c0-1.1,0.3-2,0.9-2.9c0.6-0.9,1.5-1.6,2.6-2.1
			c1.2-0.5,2.6-0.8,4.3-0.8c1.2,0,2.3,0.1,3.5,0.4c1.1,0.3,2.1,0.7,3,1.3l-1.1,2.8c-0.9-0.5-1.7-0.9-2.7-1.1
			c-0.9-0.3-1.8-0.4-2.7-0.4c-1.4,0-2.5,0.2-3.2,0.7c-0.7,0.5-1,1.1-1,1.9c0,0.6,0.2,1,0.6,1.4c0.4,0.4,0.9,0.6,1.5,0.8
			c0.6,0.2,1.4,0.4,2.5,0.7c1.4,0.3,2.6,0.7,3.5,1c0.9,0.4,1.7,0.9,2.4,1.7c0.7,0.7,1,1.7,1,3c0,1.1-0.3,2-0.9,2.9
			c-0.6,0.9-1.5,1.6-2.6,2.1c-1.2,0.5-2.6,0.8-4.3,0.8C343.2,27.5,341.7,27.3,340.3,26.8z"/>
	</g>
</g>
</svg>
