<?xml version="1.0" encoding="utf-8"?>
<!-- Generator: Adobe Illustrator 26.0.1, SVG Export Plug-In . SVG Version: 6.00 Build 0)  -->
<svg version="1.1" xmlns="http://www.w3.org/2000/svg" xmlns:xlink="http://www.w3.org/1999/xlink" x="0px" y="0px" width="365px"
	 height="35px" viewBox="0 0 365 35" enable-background="new 0 0 365 35" xml:space="preserve">
<g id="Ebene_3">
	<rect fill-rule="evenodd" clip-rule="evenodd" fill="#A10030" width="365" height="35"/>
	<polygon fill="#FFFFFF" points="360,35 0,35 5,0 365,0 	"/>
</g>
<g id="Ebene_2">
	<g>
		<path fill="#A10030" d="M35.5,28.2c-1.2-0.6-2.2-1.4-3-2.4l2.4-2.9c1.3,1.7,2.8,2.6,4.5,2.6c2.4,0,3.5-1.4,3.5-4.2V9.5h-8.1V6
			h12.3V21c0,2.7-0.6,4.7-2,6c-1.3,1.3-3.2,2-5.7,2C38.1,29,36.7,28.8,35.5,28.2z"/>
		<path fill="#A10030" d="M55.6,26.4c-1.8-1.8-2.6-4.3-2.6-7.6V6h4.2v12.7c0,4.5,1.9,6.7,5.8,6.7c3.8,0,5.8-2.2,5.8-6.7V6h4.2v12.8
			c0,3.3-0.9,5.8-2.6,7.6C68.5,28.2,66,29,62.9,29C59.8,29,57.3,28.2,55.6,26.4z"/>
		<path fill="#A10030" d="M78.8,6H83v19.2h11.9v3.6H78.8V6z"/>
		<path fill="#A10030" d="M115.3,25.2v3.5H98.2V6h16.6v3.5h-12.4v5.9h11v3.5h-11v6.3H115.3z"/>
		<path fill="#A10030" d="M134.9,28.7l-4.6-6.7c-0.2,0-0.5,0-0.9,0h-5.1v6.6H120V6h9.4c2,0,3.7,0.3,5.2,1s2.6,1.6,3.4,2.8
			c0.8,1.2,1.2,2.7,1.2,4.3c0,1.7-0.4,3.2-1.3,4.4c-0.8,1.2-2,2.2-3.6,2.8l5.2,7.5H134.9z M133.4,10.7c-1-0.8-2.4-1.2-4.2-1.2h-4.9
			v9.1h4.9c1.8,0,3.2-0.4,4.2-1.2c1-0.8,1.4-1.9,1.4-3.4S134.4,11.5,133.4,10.7z"/>
		<path fill="#A10030" d="M162.9,18.9c0.7,1,1.1,2.2,1.1,3.6c0,2-0.8,3.5-2.3,4.6c-1.5,1.1-3.7,1.6-6.6,1.6h-11.3V6h10.7
			c2.7,0,4.8,0.5,6.2,1.6c1.5,1.1,2.2,2.5,2.2,4.3c0,1.1-0.3,2.1-0.8,3c-0.5,0.9-1.2,1.5-2.1,2C161.2,17.3,162.2,18,162.9,18.9z
			 M148,9.3v6.3h6c1.5,0,2.6-0.3,3.4-0.8c0.8-0.5,1.2-1.3,1.2-2.3c0-1-0.4-1.8-1.2-2.4c-0.8-0.5-1.9-0.8-3.4-0.8H148z M159.8,22.1
			c0-2.2-1.6-3.3-4.9-3.3H148v6.6h6.8C158.1,25.4,159.8,24.3,159.8,22.1z"/>
		<path fill="#A10030" d="M168.1,28.2c-1.2-0.6-2.2-1.4-3-2.4l2.4-2.9c1.3,1.7,2.8,2.6,4.5,2.6c2.4,0,3.5-1.4,3.5-4.2V9.5h-8.1V6
			h12.3V21c0,2.7-0.6,4.7-2,6c-1.3,1.3-3.2,2-5.7,2C170.6,29,169.3,28.8,168.1,28.2z"/>
		<path fill="#A10030" d="M188.1,26.4c-1.8-1.8-2.6-4.3-2.6-7.6V6h4.2v12.7c0,4.5,1.9,6.7,5.8,6.7c3.8,0,5.8-2.2,5.8-6.7V6h4.2v12.8
			c0,3.3-0.9,5.8-2.6,7.6c-1.7,1.8-4.2,2.7-7.3,2.7C192.3,29,189.9,28.2,188.1,26.4z"/>
		<path fill="#A10030" d="M211.3,6h9.9c2.4,0,4.6,0.5,6.5,1.4c1.9,0.9,3.3,2.3,4.4,4c1,1.7,1.6,3.7,1.6,6s-0.5,4.2-1.6,6
			c-1,1.7-2.5,3.1-4.4,4c-1.9,0.9-4,1.4-6.5,1.4h-9.9V6z M221.1,25.1c1.7,0,3.1-0.3,4.4-1c1.3-0.6,2.2-1.6,2.9-2.7
			c0.7-1.2,1-2.6,1-4.1s-0.3-2.9-1-4.1c-0.7-1.2-1.7-2.1-2.9-2.7c-1.3-0.6-2.7-1-4.4-1h-5.5v15.6H221.1z"/>
		<path fill="#A10030" d="M252.6,23.5h-11.4l-2.2,5.3h-4.4L244.9,6h4.2l10.3,22.8h-4.4L252.6,23.5z M251.2,20.1l-4.3-9.9l-4.3,9.9
			H251.2z"/>
		<path fill="#A10030" d="M282.5,6v22.8H279l-12.6-15.4v15.4h-4.2V6h3.5l12.6,15.4V6H282.5z"/>
		<path fill="#A10030" d="M288.6,6h9.9c2.4,0,4.6,0.5,6.5,1.4c1.9,0.9,3.3,2.3,4.4,4c1,1.7,1.6,3.7,1.6,6s-0.5,4.2-1.6,6
			c-1,1.7-2.5,3.1-4.4,4c-1.9,0.9-4,1.4-6.5,1.4h-9.9V6z M298.3,25.1c1.7,0,3.1-0.3,4.4-1c1.3-0.6,2.2-1.6,2.9-2.7
			c0.7-1.2,1-2.6,1-4.1s-0.3-2.9-1-4.1c-0.7-1.2-1.7-2.1-2.9-2.7c-1.3-0.6-2.7-1-4.4-1h-5.5v15.6H298.3z"/>
		<path fill="#A10030" d="M332.5,25.2v3.5h-17.1V6H332v3.5h-12.4v5.9h11v3.5h-11v6.3H332.5z"/>
	</g>
</g>
<g id="Ebene_4">
	<g>
		<g>
			<polygon fill="#E4C769" points="354.1,10.4 357.7,17.7 365,18.6 359.2,23.5 361.4,31.5 354.1,27.2 346.8,31.5 349,23.5 
				343.1,18.6 350.4,17.7 			"/>
			<line fill="#FFFFFF" stroke="#E4C769" stroke-miterlimit="10" x1="354.1" y1="15.1" x2="354.1" y2="0"/>
		</g>
		<g>
			<polygon fill="#E4C769" points="342.7,4.2 344.9,8.6 349.3,9.1 345.8,12.1 347.1,17 342.7,14.4 338.3,17 339.6,12.1 336.1,9.1 
				340.5,8.6 			"/>
			<line fill="#FFFFFF" stroke="#E4C769" stroke-miterlimit="10" x1="342.7" y1="7.1" x2="342.7" y2="0"/>
		</g>
	</g>
	<g>
		<g>
			<polygon fill="#E4C769" points="10.9,10.4 7.3,17.7 0,18.6 5.8,23.5 3.6,31.5 10.9,27.2 18.2,31.5 16,23.5 21.9,18.6 14.6,17.7 
							"/>
			<line fill="none" stroke="#E4C769" stroke-miterlimit="10" x1="10.9" y1="15.1" x2="10.9" y2="0"/>
		</g>
		<g>
			<polygon fill="#E4C769" points="22.3,4.2 20.1,8.6 15.7,9.1 19.2,12.1 17.9,17 22.3,14.4 26.7,17 25.4,12.1 28.9,9.1 24.5,8.6 
							"/>
			<line fill="none" stroke="#E4C769" stroke-miterlimit="10" x1="22.3" y1="7.1" x2="22.3" y2="0"/>
		</g>
	</g>
</g>
</svg>
