<?xml version="1.0" encoding="UTF-8" standalone="no"?>
<svg
   xmlns:dc="http://purl.org/dc/elements/1.1/"
   xmlns:cc="http://creativecommons.org/ns#"
   xmlns:rdf="http://www.w3.org/1999/02/22-rdf-syntax-ns#"
   xmlns:svg="http://www.w3.org/2000/svg"
   xmlns="http://www.w3.org/2000/svg"
   xml:space="preserve"
   viewBox="0 0 12.9375 10.113356"
   height="20.226711"
   width="25.875"
   y="0px"
   x="0px"
   id="Ebene_1"
   version="1.1"><metadata
   id="metadata3907"><rdf:RDF><cc:Work
       rdf:about=""><dc:format>image/svg+xml</dc:format><dc:type
         rdf:resource="http://purl.org/dc/dcmitype/StillImage" /><dc:title></dc:title></cc:Work></rdf:RDF></metadata><defs
   id="defs3905">
</defs>
<path
  
   d="M 12.8,1.2 C 12.7,1.1 12.7,1 12.5,1 12.4,1 12.3,1 12.3,1 12.1,1 11.9,1 11.7,1.1 11.5,1.2 11.3,1.3 11.1,1.4 10.7,1.6 10.2,1.9 9.8,2.2 9.5,2.4 9.1,2.6 8.9,2.8 8.9,2.9 8.8,3 8.8,3.2 c 0,0 0,0.1 0,0.1 0,0 0.1,0 0.1,-0.1 C 9.2,3 9.6,2.7 10,2.4 10.4,2.1 10.8,1.7 11.2,1.5 11.6,1.3 12.3,1 12.6,1.1 c 0.2,0.1 0.2,0.4 0,1 -0.1,0.3 -0.6,1.3 -0.7,1.5 -0.1,0.3 -0.5,0.8 -1.6,1.9 -0.4,0.4 -0.7,0.7 -1,0.9 0,0 0,0 -0.1,0 0,0 0,0.1 0.1,0.1 0,0 0,0.1 0.1,0.1 0,0 0,0.1 0.1,0.1 0,0 0,0 0,0 0,0 0,0 0.1,0 0.3,-0.2 0.7,-0.6 1.1,-0.9 0.8,-0.7 1.4,-1.6 1.6,-2.1 0,0 0,-0.1 0,-0.1 0.2,-0.5 0.4,-0.9 0.5,-1.3 0.1,-0.6 0.1,-0.9 0,-1.1 z"
   id="path3854"
   style="fill:#007c6b" /><path   
   d="M 10.4,2.1 C 10.1,2.2 9.9,2.2 9.6,2.3 9.3,2.5 9,2.7 8.8,2.8 8.8,2.9 8.7,3 8.7,3.2 c 0,0 0,0.1 0,0.1 0,0 0.1,0 0.1,-0.1 C 9.1,3 9.5,2.7 9.9,2.4 c 0.2,0 0.4,-0.2 0.5,-0.3 z"
   id="path3856"
   style="fill:#0d5151" /><path   
   d="m 12.6,1.9 c 0,0.1 0,0.2 -0.1,0.3 C 12.4,2.5 11.9,3.5 11.8,3.7 11.7,4 11.3,4.5 10.2,5.6 9.8,6 9.5,6.3 9.2,6.5 c 0,0 0,0 -0.1,0 0,0 0,0.1 0.1,0.1 0,0 0,0.1 0.1,0.1 0,0 0,0.1 0.1,0.1 0,0 0,0 0,0 0,0 0,0 0.1,0 0.3,-0.2 0.7,-0.6 1.1,-0.9 0.8,-0.7 1.4,-1.6 1.6,-2.1 0,0 0,-0.1 0,-0.1 0.2,-0.5 0.4,-0.9 0.5,-1.3 0.1,-0.2 0.1,-0.3 0.1,-0.4 0,-0.1 -0.1,-0.1 -0.2,-0.1 z"
   id="path3858"
   style="fill:#0d5151" /><path  
   d="m 1.1,2 c 0.1,0 0.1,0 0.1,0 0,0 0.1,0 0.1,-0.1 0.1,0 0.1,0 0.2,0 0.1,0 0.1,0 0.1,0 0,0 0.1,0 0.1,-0.1 0,0 0.1,0 0.1,0 0,0 0.1,0 0.1,0 0,0 0,0 0,0 C 2.1,1.7 2.2,1.5 2.4,1.4 2.8,1.1 3.2,0.7 3.6,0.5 4,0.3 4.7,0 5,0.1 c 0.2,0.1 0.2,0.4 0,1 0,0.1 -0.2,0.5 -0.4,0.8 0.1,0 0.2,0 0.3,0 C 5,1.7 5.1,1.5 5.1,1.3 5.3,0.8 5.3,0.4 5.2,0.2 5.1,0.1 5.1,0 4.9,0 4.8,0 4.7,0 4.7,0 4.5,0 4.3,0 4.1,0.1 3.9,0.2 3.7,0.3 3.5,0.4 3.1,0.6 2.6,0.9 2.2,1.2 2,1.4 1.6,1.7 1.3,1.8 1.2,1.9 1.1,2 1.1,2 1,2 1,2 1.1,2 Z"
   id="path3860"
   style="fill:#007c6b" /><path   
   d="M 2.4,1.4 C 2.3,1.4 2.2,1.5 2,1.5 1.9,1.5 1.8,1.6 1.7,1.6 1.5,1.7 1.4,1.8 1.3,1.8 1.2,1.9 1.1,1.9 1,2 c 0,0 0,0 0.1,0 0.1,0 0.1,0 0.1,0 0,0 0.1,0 0.1,-0.1 0.1,0 0.1,0 0.2,0 0.1,0 0.1,0 0.1,0 0,0 0.1,0 0.1,-0.1 0,0 0.1,0 0.1,0 0,0 0.1,0 0.1,0 0,0 0,0 0,0 0.2,-0.1 0.3,-0.3 0.5,-0.4 0,0 0.1,-0.1 0.1,-0.1 0.1,0.1 0,0.1 -0.1,0.1 z"
   id="path3862"
   style="fill:#0d5151" /><path   
   d="M 5.2,0.7 C 5.2,0.8 5.1,1 5.1,1.1 5.1,1.2 4.9,1.6 4.7,1.9 4.8,1.9 4.9,1.9 5,1.9 5.1,1.7 5.2,1.5 5.2,1.3 5.3,1.1 5.3,0.9 5.4,0.7 c 0,-0.1 -0.1,0 -0.2,0 z"
   id="path3864"
   style="fill:#0d5151" /><path   
   d="M 9.3,7.4 C 9.5,7.2 9.7,7.1 9.7,7.1 L 9.4,6.8 C 9.1,6.5 8.7,6 8.6,5.8 8.4,5.4 8.7,3.9 8.9,3.1 c 0,0 0,0 0,0 L 9,2.5 c 0,0 -0.2,0 -0.5,-0.1 v 0 0 C 7.3,2.2 4.1,1.9 2.9,1.8 2.3,1.8 0.8,2.2 0.4,2.3 v 0 c -0.1,0 -0.1,0 -0.1,0 L 0.2,3 c 0,0 0,0 0.1,0 L 0.1,5.3 c 0,0 0,0 0.1,0 0,1.1 0.7,1.5 0.7,1.5 v 0 c 0.4,1 1.3,2.6 3.3,3.3 1.5,0.2 4.1,-1.9 5.1,-2.7 z M 0.5,5.9 c 0,0 0.1,-0.1 0.1,-0.1 0,0.1 0.1,0.3 0.1,0.5 0.1,0 -0.3,-0.2 -0.2,-0.4 z"
   id="path3866"
   style="fill:#34b1b5" /><path   
   d="M 9.7,7.1 C 9.7,7.1 7.9,8.7 7,9.1 6.8,9.2 6.5,9.4 6.2,9.5 5.7,9.7 5.1,9.9 4.9,9.9 1.6,9.3 3,1.7 3,1.7 l 2.5,0.2 3.4,0.4 c 0,0 -0.6,2.4 -0.4,3.2 0.1,0.6 1.2,1.6 1.2,1.6 z"
   id="path3868"
   style="fill:#126653" /><path   
   d="M 9.7,7 C 9.7,7 7.8,8.6 6.9,9 6.7,9.1 6.4,9.3 6.1,9.4 5.6,9.6 4.9,9.8 4.7,9.8 1.3,9.2 2.8,1.6 2.8,1.6 L 5.4,1.8 8.9,2.2 C 8.9,2.2 8.3,4.6 8.5,5.4 8.6,6.1 9.7,7 9.7,7 Z"
   id="path3870"
   style="fill:#008c79" /><path   
   d="m 8.5,5.5 c 0,0 0,-0.1 0,-0.1 -0.2,0 -0.3,0 -0.5,0 -1,0 -2,0 -2.9,0 -0.9,0 -1.8,0 -2.6,0 0,2 0.5,4.1 2.2,4.4 C 4.9,9.8 5.5,9.6 6.1,9.4 6.4,9.3 6.7,9.1 6.9,9 7.8,8.6 9.7,7 9.7,7 9.7,7 8.6,6.1 8.5,5.5 Z"
   id="path3872"
   style="fill:#056b5c" /><path  
   d="m 3.3,6.1 c 0.1,0 0.3,0 0.4,0 0.1,0 0.3,0 0.4,-0.1 0.1,0 0.2,0 0.3,-0.1 0.1,0 0.2,0 0.3,0 0.1,0 0.2,0 0.3,0 0.1,0 0.1,0 0.2,0 0.1,0 0.1,0 0.2,0 0.1,0 0.2,0 0.3,0 0.1,0 0.1,0 0.2,0 0,0 0.1,0 0.1,0 0.2,0 0.4,0 0.6,0 0.1,0 0.2,0 0.3,0 0.1,0 0.2,0 0.3,0 0.1,0 0.2,0 0.3,0 0.1,0 0.2,0 0.3,0 0.1,0 0.2,0 0.3,0 0.1,0 0.2,0 0.3,0 0,0 0,0 0.1,0 C 8.4,5.8 8.4,5.7 8.4,5.6 c 0,-0.2 0,-0.4 0,-0.7 0,0 0,0 0,0 -0.1,0 -0.3,0 -0.4,0 -0.1,0 -0.1,0 -0.2,0 -0.1,0 -0.1,0 -0.2,0 -0.2,0 -0.3,0 -0.5,0 -0.2,0 -0.4,0 -0.6,0 -0.2,0 -0.4,0 -0.6,0 -0.1,0 -0.1,0 -0.2,0 0,0 -0.1,0 -0.1,0 -0.1,0 -0.2,0 -0.3,0 -0.1,0 -0.2,0 -0.3,0 -0.1,0 -0.1,0 -0.2,0 0,0 0,0 0,0 -0.1,0 -0.1,0 -0.2,0 -0.2,0 -0.3,0 -0.5,-0.1 -0.1,0 -0.2,0 -0.3,0 -0.1,0 -0.2,0 -0.2,0 0,0 -0.1,0 -0.1,0 0,0 -0.1,0 -0.1,0 -0.1,0 -0.2,0 -0.2,0 0,0 0,0 0,0 -0.1,0 -0.1,0 -0.2,0 -0.2,0 -0.3,0 -0.5,-0.1 0,0.5 0,1.1 0,1.6 C 2.7,6.2 3,6.1 3.3,6.1 Z"
   id="path3874"
   style="fill:#007c6b" /><path   
   d="m 3,2.3 c 0.1,0 0.1,0 0.2,0 0.1,0 0.1,0 0.2,0 0.3,0 0.6,0 0.8,0 0.2,0 0.4,0 0.7,0 0.1,0 0.2,0 0.3,0 0.1,0 0.1,0 0.2,0 0,0 0.1,0 0.1,0 0.2,0 0.4,0 0.6,0.1 0.1,0 0.1,0 0.2,0 0.1,0 0.1,0 0.2,0 0,0 0.1,0 0.1,0 0.1,0 0.1,0 0.2,0 0.1,0 0.2,0 0.3,0 0.1,0 0.2,0.1 0.3,0.1 0.2,0 0.4,0 0.6,0.1 0.1,0 0.1,0 0.2,0 0,0 0.1,0 0.1,0 0.1,0 0.2,0 0.3,0 0,0 0.1,0 0.1,0 C 8.8,2.3 8.8,2 8.8,2 L 5.3,1.6 2.6,1.4 c 0,0 0,0.2 -0.1,0.6 H 3 Z"
   id="path3876"
   style="fill:#00a18a" /><path   
   d="m 0.8,6.2 c 0,0 0,-0.1 0,0 0,-0.1 0,-0.1 0,-0.2 0,0 0,0 0,-0.1 0,0 0,-0.1 0,-0.1 0,0 -0.1,0 -0.1,0 0,0 0,0.1 0,0.1 0,0 0,0.1 0,0.1 -0.1,0.1 0,0.2 0.1,0.2 0,0 0,0 0,0 0,0 0,0 0,0 z"
   id="path3878"
   style="fill:#0f4a47" /><path  
   d="m 8.2,3.2 c 0,0.1 0,0.1 0,0.2 0,0.1 0,0.1 0,0.2 0,0.1 -0.1,0.3 -0.1,0.4 0,0.1 0,0.1 -0.1,0.2 0,0.1 0,0.2 0,0.2 0,0.1 0,0.1 0,0.2 0,0.1 0,0.1 0,0.2 0,0.1 0,0.3 0,0.4 0,0 0,0 0,0 0,0 0,0 0,0 0,0 0,0 0,0 0,0 0,0 0,0 0,0 0,0 0,0 0,0.1 0,0.2 0,0.3 0,0.1 0,0.2 0.1,0.3 0,0 0,0.1 0.1,0.1 0,0 0,0.1 0.1,0.1 0,0 0,0 0,0 0,0 0,0 0,0 0,0 0,0.1 0.1,0.1 0,0 0,0 0,0 0,0 0.1,0.1 0.1,0.1 0,0 0,0 0,0 0,0 0.1,0.1 0.1,0.1 0,0 0,0.1 0.1,0.1 0,0 0.1,0.1 0.1,0.1 0,0 0.1,0.1 0.1,0.1 0,0 0,0 0,0 0,0 0,0 0,0 0,0 0,0 0,0.1 0,0 0,0 0,0 0,0 0,0 0.1,0.1 0,0 0,0 0,0 0,0 0,0 0,0 0,0 0,0 0,0.1 0,0 0.1,0 0.1,0.1 0.1,0.1 0.1,0.1 0.1,0.2 0,0.1 0.1,0.1 0.2,0.2 0,0 0,0 0,0 0.2,-0.2 0.4,-0.3 0.4,-0.3 0,0 -1,-1 -1.1,-1.5 C 8.5,4.8 9.1,2.4 9.1,2.4 H 8.7 C 8.7,2.6 8.6,2.8 8.5,3 8.3,3 8.3,3.1 8.2,3.2 Z"
   id="path3880"
   style="fill:#007c6b" /><path   
   d="M 1.5,7.7 2.3,8.1 C 2.3,8.1 1.8,8.1 1.7,8 1.6,7.8 1.5,7.7 1.5,7.7 Z"
   id="path3882"
   style="fill:#0d5151" /><path   
   d="M 8.8,6.8 C 8.6,6.6 8.6,6.6 8.6,6.6 v 0 L 7.6,7 6.4,7.4 5.3,7.7 C 5.3,7.8 8.9,7 8.8,6.8 Z"
   id="path3884"
   style="fill:#0f4a47" /><path   
   d="M 0.7,5.8 0.8,6.2 C 0.8,6.2 1.2,6 1.5,6.1 1.9,6.2 1,5.8 1,5.8 Z"
   id="path3886"
   style="fill:#0d5151" /><path   
   d="M 8.3,6.1 8.1,5.8 7.1,5.7 H 6.8 L 2.3,6.2 C 2.3,6.2 6,5.9 7,6 8,6.1 8.3,6.1 8.3,6.1 Z"
   id="path3888"
   style="fill:#0f4a47" /><path   
   d="M 0.2,5.1 1.7,4.6 c 0,0 0.6,-0.1 0.6,-0.1 0.1,0 0.2,0.1 0.2,0.1 0,0 -0.5,0.1 -0.8,0.2 -0.4,0 -1.5,0.3 -1.5,0.3 z"
   id="path3890"
   style="fill:#0d5151" /><path   
   d="M 7.9,4.9 H 6.8 L 5.5,4.8 3.5,4.6 2.6,4.5 c 0,0 2.9,0.6 3.4,0.6 0.4,0 1.9,0 1.9,0 z"
   id="path3892"
   style="fill:#0f4a47" /><path   
   d="M 0.3,2.9 1.3,2.7 1.7,2.5 2.3,2.4 C 2.3,2.4 1.8,2.5 1.5,2.6 1.1,2.7 0.3,2.9 0.3,2.9 Z"
   id="path3894"
   style="fill:#0d5151" /><path   
   d="M 8.3,2.8 7.2,2.6 c 0,0 -1.3,-0.1 -1.7,-0.2 -2.5,-0.1 -2.6,0 -2.6,0 0,0 2.8,0.3 3.8,0.5 1,0.2 1.6,0.4 1.6,0.4 z"
   id="path3896"
   style="fill:#0f4a47" /><path   
   d="M 1.3,1.9 C 1.6,1.8 2,1.5 2.4,1.2 2.8,0.9 3.3,0.6 3.7,0.4 3.9,0.3 4.1,0.2 4.3,0.1 4.5,0 4.7,0 4.9,0 5,0 5.1,0 5.1,0 5.2,0 5.3,0.1 5.3,0.2 5.4,0.4 5.4,0.7 5.2,1.2 5.1,1.4 5.1,1.6 5,1.8 4.9,1.8 4.9,1.8 4.8,1.8 4.9,1.5 5.1,1.2 5.1,1.1 5.2,0.8 5.2,0.6 5.2,0.4 5.2,0.2 5.1,0.1 5,0.1 5,0.1 4.9,0.1 4.8,0.1 4.5,0.1 4,0.3 3.6,0.5 3.4,0.6 3.2,0.8 2.9,1 2.7,1.1 2.6,1.3 2.4,1.4 2.2,1.5 2.1,1.6 1.9,1.8 c 0,0 0,0 0,0 C 1.6,1.8 1.3,1.9 1,2 1.2,1.9 1.3,1.9 1.3,1.9 Z M 4.8,1.8 C 4.1,1.7 3.3,1.7 2.9,1.7 2.7,1.7 2.5,1.7 2.2,1.8 2.3,1.7 2.5,1.6 2.6,1.5 2.8,1.4 3,1.2 3.1,1.1 3.3,0.9 3.5,0.7 3.8,0.6 4.2,0.4 4.7,0.2 5,0.2 c 0.1,0 0.1,0 0.1,0 0.1,0 0.1,0.2 0.1,0.3 0,0.2 0,0.4 -0.1,0.7 0,0 -0.2,0.3 -0.3,0.6 z M 0.2,2.8 0.3,2.2 C 0.5,2.1 2.3,1.7 2.9,1.7 4.1,1.7 7.3,2.1 8.5,2.3 8.5,2.4 8.4,2.6 8.4,2.8 8.2,2.8 7.9,2.7 7.5,2.7 6.1,2.5 3.9,2.4 2.9,2.4 v 0 C 2.6,2.4 2.1,2.5 1.3,2.7 0.8,2.7 0.3,2.8 0.2,2.8 Z M 0.2,5 0.4,2.8 C 0.9,2.7 2.4,2.3 3,2.3 v 0 c 1,0 3.2,0.2 4.6,0.3 0.3,0 0.6,0.1 0.9,0.1 C 8.4,2.9 8.4,3.1 8.3,3.4 8,4 8,4.3 7.9,4.6 c 0,0.1 0,0.2 0,0.3 -0.1,0 -0.3,0 -0.5,0 -0.5,0 -0.9,0 -1.4,0 C 5.4,4.9 4.8,4.8 4.2,4.7 3.5,4.6 2.8,4.5 2.3,4.5 c 0,0 -0.1,0 -0.1,0 C 2,4.5 1.5,4.6 0.9,4.8 0.6,4.9 0.3,5 0.2,5 Z M 0.5,6.1 C 0.4,5.9 0.2,5.6 0.2,5.1 0.6,5 1.8,4.6 2.3,4.6 c 0,0 0,0 0.1,0 0.4,0 1.1,0.1 1.8,0.2 0.6,0.1 1.2,0.1 1.8,0.2 0.4,0 0.9,0 1.4,0 0.2,0 0.3,0 0.5,0 0,0.3 0,0.5 0,0.6 0,0.1 0,0.1 0.1,0.2 -0.3,0 -0.9,-0.1 -1.1,-0.1 0,0 -0.1,0 -0.1,0 C 6,5.7 4.6,5.9 3.4,6.1 3,6.2 2.6,6.2 2.3,6.2 c 0,0 -0.1,0 -0.1,0 C 1.9,6.2 1.5,6.1 1.2,6 1,5.9 0.8,5.8 0.6,5.8 c -0.1,0 -0.1,0 -0.1,0.1 0,0 0,0.1 0,0.2 0.2,0.1 0.2,0.2 0.3,0.2 0,0 0,0.1 0.1,0.1 C 0.8,6.4 0.6,6.3 0.5,6.1 Z m 0.2,0 c 0,0.1 0,0.1 0,0 C 0.6,6.1 0.5,6 0.5,5.8 c 0,0 0,0 0.1,0 C 0.7,5.9 0.7,6 0.7,6.1 Z M 7.9,8.4 C 6.6,9.3 5.5,9.8 4.7,9.8 4.5,9.8 4.4,9.8 4.2,9.7 2.9,9.3 2.1,8.4 1.6,7.7 1.7,7.8 1.8,7.8 2,7.9 2.3,8.1 2.6,8.1 2.8,8.2 2.8,8.2 2.3,8 2,7.9 1.7,7.8 1.6,7.6 1.5,7.6 1.4,7.5 1.4,7.4 1.3,7.3 1.1,7 1,6.7 0.9,6.5 L 0.8,6.3 c 0,0 0,-0.1 0,-0.1 C 0.8,6.1 0.7,6 0.7,5.9 0.8,5.9 1,6 1.2,6 c 0.3,0.1 0.7,0.2 1,0.2 0,0 0.1,0 0.1,0 C 2.6,6.2 3,6.1 3.4,6.1 4.6,6 6,5.8 6.8,5.8 c 0,0 0.1,0 0.1,0 0.3,0 0.9,0.1 1.2,0.1 C 8.2,6.1 8.4,6.3 8.6,6.6 8.4,6.7 7.5,7 6.4,7.4 5.7,7.6 4.6,8 4.6,8 5.1,7.9 5.8,7.7 6.5,7.4 7.6,7 8.6,6.7 8.7,6.6 c 0,0 0,0.1 0.1,0.1 C 9.1,7 9.3,7.3 9.4,7.4 8.9,7.6 8.4,8 7.9,8.4 Z M 9.6,7 9.3,7.3 C 9.1,7.1 8.1,6.1 8,5.5 7.9,5.1 8,4.4 8.2,3.5 8.3,2.9 8.5,2.4 8.6,2.2 L 9,2.3 C 9,2.5 8.8,3.1 8.7,3.7 8.5,4.7 8.5,5.4 8.6,5.6 8.7,6.1 9.5,6.9 9.6,7 Z M 8.8,3.3 c 0,0 0.1,0 0.1,-0.1 C 9.1,3.1 9.3,2.9 9.5,2.8 9.7,2.7 9.8,2.6 10,2.4 10.2,2.3 10.4,2.1 10.5,2 c 0.2,-0.2 0.4,-0.4 0.7,-0.5 0.4,-0.2 0.9,-0.4 1.2,-0.4 0.1,0 0.1,0 0.1,0 0.1,0 0.1,0.2 0.1,0.3 0,0.2 0,0.4 -0.1,0.7 C 12.4,2.3 12.2,2.7 12,3.1 11.9,3.3 11.8,3.5 11.7,3.6 11.6,3.8 11.5,4 11.3,4.2 11,4.5 10.7,4.9 10.2,5.4 9.8,5.8 9.5,6.1 9.2,6.3 c 0,0 0,0 0,0 C 9,6 8.7,5.7 8.7,5.6 8.6,5.3 8.6,4.7 8.8,3.7 8.7,3.6 8.8,3.5 8.8,3.3 Z m 3.9,-1 c -0.1,0.4 -0.3,0.9 -0.5,1.3 0,0 0,0.1 0,0.1 C 12,4.2 11.3,5 10.6,5.8 10.2,6.2 9.8,6.5 9.5,6.7 c 0,0 0,0 0,0 C 9.4,6.6 9.4,6.5 9.3,6.4 c 0,0 0,0 0,0 C 9.6,6.2 10,5.9 10.4,5.5 10.9,5 11.3,4.6 11.5,4.3 11.7,4 11.9,3.8 11.9,3.6 c 0,-0.1 0.1,-0.3 0.3,-0.5 0.2,-0.4 0.4,-0.8 0.5,-1 0.1,-0.3 0.1,-0.5 0.1,-0.7 0,-0.2 -0.1,-0.3 -0.2,-0.3 0,0 -0.1,0 -0.2,0 -0.3,0 -0.8,0.2 -1.2,0.4 C 11,1.6 10.8,1.8 10.5,2 10.3,2.1 10.2,2.3 10,2.4 9.8,2.5 9.7,2.6 9.5,2.8 9.3,3 9.1,3.1 8.9,3.2 c 0,0 0,0 -0.1,0 C 8.8,3 8.9,2.9 8.9,2.8 9.2,2.7 9.5,2.4 9.8,2.2 10.2,1.9 10.7,1.6 11.1,1.4 11.3,1.3 11.5,1.2 11.7,1.1 11.9,1 12.1,1 12.3,1 c 0.1,0 0.2,0 0.2,0 0.1,0 0.2,0.1 0.2,0.2 0.2,0.2 0.2,0.5 0,1.1 z M 12.9,1.2 C 12.8,1.1 12.7,1 12.6,1 12.5,1 12.4,1 12.4,1 12.2,1 12,1 11.8,1.1 11.6,1.2 11.4,1.3 11.2,1.4 10.8,1.6 10.3,1.9 9.9,2.2 9.6,2.4 9.3,2.6 9,2.8 9.1,2.6 9.1,2.4 9.1,2.4 v 0 L 8.6,2.3 v 0 C 8.1,2.2 7.4,2.2 6.6,2.1 6.2,2.1 5.7,2 5.2,2 5.3,1.8 5.4,1.6 5.4,1.4 5.6,0.9 5.6,0.5 5.5,0.3 5.4,0.2 5.3,0.1 5.2,0.1 5.1,0.1 5,0.1 5,0.1 4.8,0.1 4.6,0.1 4.4,0.2 4.2,0.3 4,0.4 3.8,0.5 3.4,0.7 2.9,1 2.5,1.3 2,1.4 1.6,1.7 1.3,1.8 1.2,1.8 1.1,1.9 1,2 0.6,2.1 0.2,2.2 0.2,2.2 v 0 L 0.1,2.9 v 0 c 0,0 0,0 0.1,0 L 0,5.2 v 0 c 0,0 0,0 0.1,0 0,0.2 0,0.3 0,0.5 0,0.2 0.1,0.4 0.2,0.6 0.2,0.2 0.4,0.4 0.4,0.4 0.1,0.2 0.2,0.5 0.4,0.8 0.3,0.5 0.7,1 1.1,1.4 0.5,0.5 1.2,0.9 1.9,1.1 0.2,0.1 0.3,0.1 0.5,0.1 0.4,0 1,-0.1 1.6,-0.4 0.5,-0.2 1,-0.6 1.6,-1 0.6,-0.4 1,-0.8 1.4,-1.1 v 0 L 9.6,7.2 v 0 C 9.6,7.2 9.5,7.1 9.4,6.9 9.7,6.7 10.1,6.3 10.5,6 c 0.8,-0.7 1.4,-1.6 1.6,-2.1 0,0 0,-0.1 0,-0.1 0.2,-0.5 0.4,-0.9 0.5,-1.3 0.3,-0.8 0.4,-1.1 0.3,-1.3 z"
   id="path3898"
   style="fill:#122f26" />
</svg>