<?xml version="1.0" encoding="utf-8"?>
<!-- Generator: Adobe Illustrator 22.1.0, SVG Export Plug-In . SVG Version: 6.00 Build 0)  -->
<svg version="1.1" baseProfile="tiny" id="Ebene_1" xmlns="http://www.w3.org/2000/svg" xmlns:xlink="http://www.w3.org/1999/xlink"
	 x="0px" y="0px" width="75" height="75" viewBox="0 0 75 75" xml:space="preserve">
<g>
	<rect fill="#B3B3B3" width="13" height="13"/>
	<rect x="15.5" fill="#B3B3B3" width="13" height="13"/>
	<rect x="46.5" fill="#B3B3B3" width="13" height="13"/>
	<rect x="31" fill="#B3B3B3" width="13" height="13"/>
	<rect x="62" fill="#B3B3B3" width="13" height="13"/>
</g>
<g>
	<rect y="15.5" fill="#B3B3B3" width="13" height="13"/>
	<rect x="15.5" y="15.5" fill="#B3B3B3" width="13" height="13"/>
	<rect x="46.5" y="15.5" fill="#B3B3B3" width="13" height="13"/>
	<rect x="31" y="15.5" fill="#B3B3B3" width="13" height="13"/>
	<rect x="62" y="15.5" fill="#B3B3B3" width="13" height="13"/>
</g>
<g>
	<rect y="31" fill="#B3B3B3" width="13" height="13"/>
	<rect x="15.5" y="31" fill="#B3B3B3" width="13" height="13"/>
	<rect x="46.5" y="31" fill="#B3B3B3" width="13" height="13"/>
	<rect x="31" y="31" fill="#B3B3B3" width="13" height="13"/>
	<rect x="62" y="31" fill="#B3B3B3" width="13" height="13"/>
</g>
<g>
	<rect y="46.5" fill="#B3B3B3" width="13" height="13"/>
	<rect x="15.5" y="46.5" fill="#B3B3B3" width="13" height="13"/>
	<rect x="46.5" y="46.5" fill="#B3B3B3" width="13" height="13"/>
	<rect x="31" y="46.5" fill="#B3B3B3" width="13" height="13"/>
	<rect x="62" y="46.5" fill="#B3B3B3" width="13" height="13"/>
</g>
<g>
	<rect y="62" fill="#B3B3B3" width="13" height="13"/>
	<rect x="15.5" y="62" fill="#B3B3B3" width="13" height="13"/>
	<rect x="46.5" y="62" fill="#B3B3B3" width="13" height="13"/>
	<rect x="31" y="62" fill="#B3B3B3" width="13" height="13"/>
	<rect x="62" y="62" fill="#B3B3B3" width="13" height="13"/>
</g>
</svg>
