<?xml version="1.0" encoding="UTF-8" standalone="no"?>
<svg
   xmlns:dc="http://purl.org/dc/elements/1.1/"
   xmlns:cc="http://creativecommons.org/ns#"
   xmlns:rdf="http://www.w3.org/1999/02/22-rdf-syntax-ns#"
   xmlns:svg="http://www.w3.org/2000/svg"
   xmlns="http://www.w3.org/2000/svg"
   xml:space="preserve"
   viewBox="0 0 43.837502 41.200001"
   height="82.400002"
   width="87.675003"
   y="0px"
   x="0px"
   id="Ebene_1"
   version="1.1"><metadata
   id="metadata5153"><rdf:RDF><cc:Work
       rdf:about=""><dc:format>image/svg+xml</dc:format><dc:type
         rdf:resource="http://purl.org/dc/dcmitype/StillImage" /><dc:title></dc:title></cc:Work></rdf:RDF></metadata><defs
   id="defs5151" />
<path
   style="fill:#007c6b"
   id="path3854-82"
   d="M 28.2,1.3 C 28.1,1.2 28.1,1.1 27.9,1.1 c -0.1,0 -0.2,0 -0.2,0 -0.2,0 -0.4,0 -0.6,0.1 -0.2,0.1 -0.4,0.2 -0.6,0.3 -0.4,0.2 -0.9,0.5 -1.3,0.8 -0.3,0.2 -0.7,0.4 -0.9,0.6 0,0.1 -0.1,0.2 -0.1,0.4 0,0 0,0.1 0,0.1 0,0 0.1,0 0.1,-0.1 C 24.6,3.1 25,2.8 25.4,2.5 25.8,2.2 26.2,1.8 26.6,1.6 27,1.4 27.7,1.1 28,1.2 c 0.2,0.1 0.2,0.4 0,1 -0.1,0.3 -0.6,1.3 -0.7,1.5 -0.1,0.3 -0.5,0.8 -1.6,1.9 -0.4,0.4 -0.7,0.7 -1,0.9 0,0 0,0 -0.1,0 0,0 0,0.1 0.1,0.1 0,0 0,0.1 0.1,0.1 0,0 0,0.1 0.1,0.1 0,0 0,0 0,0 0,0 0,0 0.1,0 0.3,-0.2 0.7,-0.6 1.1,-0.9 0.8,-0.7 1.4,-1.6 1.6,-2.1 0,0 0,-0.1 0,-0.1 0.2,-0.5 0.4,-0.9 0.5,-1.3 0.1,-0.6 0.1,-0.9 0,-1.1 z" /><path
   style="fill:#0d5151"
   id="path3856-1"
   d="m 25.8,2.2 c -0.3,0.1 -0.5,0.1 -0.8,0.2 -0.3,0.2 -0.6,0.4 -0.8,0.5 0,0.1 -0.1,0.2 -0.1,0.4 0,0 0,0.1 0,0.1 0,0 0.1,0 0.1,-0.1 0.3,-0.2 0.7,-0.5 1.1,-0.8 0.2,0 0.4,-0.2 0.5,-0.3 z" /><path
   style="fill:#0d5151"
   id="path3858-1"
   d="m 28,2 c 0,0.1 0,0.2 -0.1,0.3 -0.1,0.3 -0.6,1.3 -0.7,1.5 -0.1,0.3 -0.5,0.8 -1.6,1.9 -0.4,0.4 -0.7,0.7 -1,0.9 0,0 0,0 -0.1,0 0,0 0,0.1 0.1,0.1 0,0 0,0.1 0.1,0.1 0,0 0,0.1 0.1,0.1 0,0 0,0 0,0 0,0 0,0 0.1,0 0.3,-0.2 0.7,-0.6 1.1,-0.9 0.8,-0.7 1.4,-1.6 1.6,-2.1 0,0 0,-0.1 0,-0.1 C 27.8,3.3 28,2.9 28.1,2.5 28.2,2.3 28.2,2.2 28.2,2.1 28.2,2 28.1,2 28,2 Z" /><path
   style="fill:#007c6b"
   id="path3860-1"
   d="m 16.5,2.1 c 0.1,0 0.1,0 0.1,0 0,0 0.1,0 0.1,-0.1 0.1,0 0.1,0 0.2,0 0.1,0 0.1,0 0.1,0 0,0 0.1,0 0.1,-0.1 0,0 0.1,0 0.1,0 0,0 0.1,0 0.1,0 0,0 0,0 0,0 0.2,-0.1 0.3,-0.3 0.5,-0.4 0.4,-0.3 0.8,-0.7 1.2,-0.9 0.4,-0.2 1.1,-0.5 1.4,-0.4 0.2,0.1 0.2,0.4 0,1 0,0.1 -0.2,0.5 -0.4,0.8 0.1,0 0.2,0 0.3,0 0.1,-0.2 0.2,-0.4 0.2,-0.6 0.2,-0.5 0.2,-0.9 0.1,-1.1 -0.1,-0.1 -0.1,-0.2 -0.3,-0.2 -0.1,0 -0.2,0 -0.2,0 -0.2,0 -0.4,0 -0.6,0.1 C 19.3,0.3 19.1,0.4 18.9,0.5 18.5,0.7 18,1 17.6,1.3 17.4,1.5 17,1.8 16.7,1.9 16.6,2 16.5,2.1 16.5,2.1 c -0.1,0 -0.1,0 0,0 z" /><path
   style="fill:#0d5151"
   id="path3862-2"
   d="m 17.8,1.5 c -0.1,0 -0.2,0.1 -0.4,0.1 -0.1,0 -0.2,0.1 -0.3,0.1 -0.2,0.1 -0.3,0.2 -0.4,0.2 -0.1,0.1 -0.2,0.1 -0.3,0.2 0,0 0,0 0.1,0 0.1,0 0.1,0 0.1,0 0,0 0.1,0 0.1,-0.1 0.1,0 0.1,0 0.2,0 0.1,0 0.1,0 0.1,0 0,0 0.1,0 0.1,-0.1 0,0 0.1,0 0.1,0 0,0 0.1,0 0.1,0 0,0 0,0 0,0 0.2,-0.1 0.3,-0.3 0.5,-0.4 0,0 0.1,-0.1 0.1,-0.1 0.1,0.1 0,0.1 -0.1,0.1 z" /><path
   style="fill:#0d5151"
   id="path3864-4"
   d="m 20.6,0.8 c 0,0.1 -0.1,0.3 -0.1,0.4 0,0.1 -0.2,0.5 -0.4,0.8 0.1,0 0.2,0 0.3,0 0.1,-0.2 0.2,-0.4 0.2,-0.6 0.1,-0.2 0.1,-0.4 0.2,-0.6 0,-0.1 -0.1,0 -0.2,0 z" /><path
   style="fill:#34b1b5"
   id="path3866-7"
   d="M 24.7,7.5 C 24.9,7.3 25.1,7.2 25.1,7.2 L 24.8,6.9 C 24.5,6.6 24.1,6.1 24,5.9 23.8,5.5 24.1,4 24.3,3.2 c 0,0 0,0 0,0 l 0.1,-0.6 c 0,0 -0.2,0 -0.5,-0.1 v 0 0 C 22.7,2.3 19.5,2 18.3,1.9 c -0.6,0 -2.1,0.4 -2.5,0.5 v 0 c -0.1,0 -0.1,0 -0.1,0 l -0.1,0.7 c 0,0 0,0 0.1,0 l -0.2,2.3 c 0,0 0,0 0.1,0 0,1.1 0.7,1.5 0.7,1.5 v 0 c 0.4,1 1.3,2.6 3.3,3.3 1.5,0.2 4.1,-1.9 5.1,-2.7 z M 15.9,6 C 15.9,6 16,5.9 16,5.9 16,6 16.1,6.2 16.1,6.4 16.2,6.4 15.8,6.2 15.9,6 Z" /><path
   style="fill:#126653"
   id="path3868-1"
   d="m 25.1,7.2 c 0,0 -1.8,1.6 -2.7,2 C 22.2,9.3 21.9,9.5 21.6,9.6 21.1,9.8 20.5,10 20.3,10 17,9.4 18.4,1.8 18.4,1.8 l 2.5,0.2 3.4,0.4 c 0,0 -0.6,2.4 -0.4,3.2 0.1,0.6 1.2,1.6 1.2,1.6 z" /><path
   style="fill:#008c79"
   id="path3870-6"
   d="m 25.1,7.1 c 0,0 -1.9,1.6 -2.8,2 C 22.1,9.2 21.8,9.4 21.5,9.5 21,9.7 20.3,9.9 20.1,9.9 16.7,9.3 18.2,1.7 18.2,1.7 l 2.6,0.2 3.5,0.4 c 0,0 -0.6,2.4 -0.4,3.2 0.1,0.7 1.2,1.6 1.2,1.6 z" /><path
   style="fill:#056b5c"
   id="path3872-4"
   d="m 23.9,5.6 c 0,0 0,-0.1 0,-0.1 -0.2,0 -0.3,0 -0.5,0 -1,0 -2,0 -2.9,0 -0.9,0 -1.8,0 -2.6,0 0,2 0.5,4.1 2.2,4.4 0.2,0 0.8,-0.2 1.4,-0.4 0.3,-0.1 0.6,-0.3 0.8,-0.4 0.9,-0.4 2.8,-2 2.8,-2 0,0 -1.1,-0.9 -1.2,-1.5 z" /><path
   style="fill:#007c6b"
   id="path3874-9"
   d="m 18.7,6.2 c 0.1,0 0.3,0 0.4,0 0.1,0 0.3,0 0.4,-0.1 0.1,0 0.2,0 0.3,-0.1 0.1,0 0.2,0 0.3,0 0.1,0 0.2,0 0.3,0 0.1,0 0.1,0 0.2,0 0.1,0 0.1,0 0.2,0 0.1,0 0.2,0 0.3,0 0.1,0 0.1,0 0.2,0 0,0 0.1,0 0.1,0 0.2,0 0.4,0 0.6,0 0.1,0 0.2,0 0.3,0 0.1,0 0.2,0 0.3,0 0.1,0 0.2,0 0.3,0 0.1,0 0.2,0 0.3,0 0.1,0 0.2,0 0.3,0 0.1,0 0.2,0 0.3,0 0,0 0,0 0.1,0 -0.1,-0.1 -0.1,-0.2 -0.1,-0.3 0,-0.2 0,-0.4 0,-0.7 0,0 0,0 0,0 -0.1,0 -0.3,0 -0.4,0 -0.1,0 -0.1,0 -0.2,0 -0.1,0 -0.1,0 -0.2,0 -0.2,0 -0.3,0 -0.5,0 -0.2,0 -0.4,0 -0.6,0 -0.2,0 -0.4,0 -0.6,0 -0.1,0 -0.1,0 -0.2,0 0,0 -0.1,0 -0.1,0 -0.1,0 -0.2,0 -0.3,0 -0.1,0 -0.2,0 -0.3,0 -0.1,0 -0.1,0 -0.2,0 0,0 0,0 0,0 -0.1,0 -0.1,0 -0.2,0 -0.2,0 -0.3,0 -0.5,-0.1 -0.1,0 -0.2,0 -0.3,0 -0.1,0 -0.2,0 -0.2,0 0,0 -0.1,0 -0.1,0 0,0 -0.1,0 -0.1,0 -0.1,0 -0.2,0 -0.2,0 0,0 0,0 0,0 -0.1,0 -0.1,0 -0.2,0 -0.2,0 -0.3,0 -0.5,-0.1 0,0.5 0,1.1 0,1.6 0.2,-0.1 0.5,-0.2 0.8,-0.2 z" /><path
   style="fill:#00a18a"
   id="path3876-0"
   d="m 18.4,2.4 c 0.1,0 0.1,0 0.2,0 0.1,0 0.1,0 0.2,0 0.3,0 0.6,0 0.8,0 0.2,0 0.4,0 0.7,0 0.1,0 0.2,0 0.3,0 0.1,0 0.1,0 0.2,0 0,0 0.1,0 0.1,0 0.2,0 0.4,0 0.6,0.1 0.1,0 0.1,0 0.2,0 0.1,0 0.1,0 0.2,0 0,0 0.1,0 0.1,0 0.1,0 0.1,0 0.2,0 0.1,0 0.2,0 0.3,0 0.1,0 0.2,0.1 0.3,0.1 0.2,0 0.4,0 0.6,0.1 0.1,0 0.1,0 0.2,0 0,0 0.1,0 0.1,0 0.1,0 0.2,0 0.3,0 0,0 0.1,0 0.1,0 0.1,-0.3 0.1,-0.6 0.1,-0.6 L 20.7,1.7 18,1.5 c 0,0 0,0.2 -0.1,0.6 h 0.5 z" /><path
   style="fill:#0f4a47"
   id="path3878-9"
   d="m 16.2,6.3 c 0,0 0,-0.1 0,0 0,-0.1 0,-0.1 0,-0.2 0,0 0,0 0,-0.1 0,0 0,-0.1 0,-0.1 0,0 -0.1,0 -0.1,0 0,0 0,0.1 0,0.1 0,0 0,0.1 0,0.1 -0.1,0.1 0,0.2 0.1,0.2 0,0 0,0 0,0 0,0 0,0 0,0 z" /><path
   style="fill:#007c6b"
   id="path3880-48"
   d="m 23.6,3.3 c 0,0.1 0,0.1 0,0.2 0,0.1 0,0.1 0,0.2 0,0.1 -0.1,0.3 -0.1,0.4 0,0.1 0,0.1 -0.1,0.2 0,0.1 0,0.2 0,0.2 0,0.1 0,0.1 0,0.2 0,0.1 0,0.1 0,0.2 0,0.1 0,0.3 0,0.4 0,0 0,0 0,0 0,0 0,0 0,0 0,0 0,0 0,0 0,0 0,0 0,0 0,0 0,0 0,0 0,0.1 0,0.2 0,0.3 0,0.1 0,0.2 0.1,0.3 0,0 0,0.1 0.1,0.1 0,0 0,0.1 0.1,0.1 0,0 0,0 0,0 0,0 0,0 0,0 0,0 0,0.1 0.1,0.1 0,0 0,0 0,0 0,0 0.1,0.1 0.1,0.1 0,0 0,0 0,0 0,0 0.1,0.1 0.1,0.1 0,0 0,0.1 0.1,0.1 0,0 0.1,0.1 0.1,0.1 0,0 0.1,0.1 0.1,0.1 0,0 0,0 0,0 0,0 0,0 0,0 0,0 0,0 0,0.1 0,0 0,0 0,0 0,0 0,0 0.1,0.1 0,0 0,0 0,0 0,0 0,0 0,0 0,0 0,0 0,0.1 0,0 0.1,0 0.1,0.1 0.1,0.1 0.1,0.1 0.1,0.2 0,0.1 0.1,0.1 0.2,0.2 0,0 0,0 0,0 0.2,-0.2 0.4,-0.3 0.4,-0.3 0,0 -1,-1 -1.1,-1.5 -0.2,-0.8 0.4,-3.2 0.4,-3.2 h -0.4 c 0,0.2 -0.1,0.4 -0.2,0.6 -0.2,0 -0.2,0.1 -0.3,0.2 z" /><path
   style="fill:#0d5151"
   id="path3882-6"
   d="m 16.9,7.8 0.8,0.4 c 0,0 -0.5,0 -0.6,-0.1 C 17,7.9 16.9,7.8 16.9,7.8 Z" /><path
   style="fill:#0f4a47"
   id="path3884-0"
   d="M 24.2,6.9 C 24,6.7 24,6.7 24,6.7 v 0 l -1,0.4 -1.2,0.4 -1.1,0.3 c 0,0.1 3.6,-0.7 3.5,-0.9 z" /><path
   style="fill:#0d5151"
   id="path3886-0"
   d="m 16.1,5.9 0.1,0.4 c 0,0 0.4,-0.2 0.7,-0.1 0.4,0.1 -0.5,-0.3 -0.5,-0.3 z" /><path
   style="fill:#0f4a47"
   id="path3888-2"
   d="m 23.7,6.2 -0.2,-0.3 -1,-0.1 h -0.3 l -4.5,0.5 c 0,0 3.7,-0.3 4.7,-0.2 1,0.1 1.3,0.1 1.3,0.1 z" /><path
   style="fill:#0d5151"
   id="path3890-49"
   d="m 15.6,5.2 1.5,-0.5 c 0,0 0.6,-0.1 0.6,-0.1 0.1,0 0.2,0.1 0.2,0.1 0,0 -0.5,0.1 -0.8,0.2 -0.4,0 -1.5,0.3 -1.5,0.3 z" /><path
   style="fill:#0f4a47"
   id="path3892-7"
   d="M 23.3,5 H 22.2 L 20.9,4.9 18.9,4.7 18,4.6 c 0,0 2.9,0.6 3.4,0.6 0.4,0 1.9,0 1.9,0 z" /><path
   style="fill:#0d5151"
   id="path3894-5"
   d="m 15.7,3 1,-0.2 0.4,-0.2 0.6,-0.1 c 0,0 -0.5,0.1 -0.8,0.2 C 16.5,2.8 15.7,3 15.7,3 Z" /><path
   style="fill:#0f4a47"
   id="path3896-0"
   d="M 23.7,2.9 22.6,2.7 c 0,0 -1.3,-0.1 -1.7,-0.2 -2.5,-0.1 -2.6,0 -2.6,0 0,0 2.8,0.3 3.8,0.5 1,0.2 1.6,0.4 1.6,0.4 z" /><path
   style="fill:#122f26"
   id="path3898-1"
   d="M 16.7,2 C 17,1.9 17.4,1.6 17.8,1.3 18.2,1 18.7,0.7 19.1,0.5 c 0.2,-0.1 0.4,-0.2 0.6,-0.3 0.2,-0.1 0.4,-0.1 0.6,-0.1 0.1,0 0.2,0 0.2,0 0.1,0 0.2,0.1 0.2,0.2 0.1,0.2 0.1,0.5 -0.1,1 -0.1,0.2 -0.1,0.4 -0.2,0.6 -0.1,0 -0.1,0 -0.2,0 0.1,-0.3 0.3,-0.6 0.3,-0.7 0.1,-0.3 0.1,-0.5 0.1,-0.7 0,-0.2 -0.1,-0.3 -0.2,-0.3 0,0 -0.1,0 -0.2,0 -0.3,0 -0.8,0.2 -1.2,0.4 -0.2,0.1 -0.4,0.3 -0.7,0.5 -0.2,0.1 -0.3,0.3 -0.5,0.4 -0.2,0.1 -0.3,0.2 -0.5,0.4 0,0 0,0 0,0 C 17,1.9 16.7,2 16.4,2.1 16.6,2 16.7,2 16.7,2 Z M 20.2,1.9 C 19.5,1.8 18.7,1.8 18.3,1.8 c -0.2,0 -0.4,0 -0.7,0.1 0.1,-0.1 0.3,-0.2 0.4,-0.3 0.2,-0.1 0.4,-0.3 0.5,-0.4 0.2,-0.2 0.4,-0.4 0.7,-0.5 0.4,-0.2 0.9,-0.4 1.2,-0.4 0.1,0 0.1,0 0.1,0 0.1,0 0.1,0.2 0.1,0.3 0,0.2 0,0.4 -0.1,0.7 0,0 -0.2,0.3 -0.3,0.6 z m -4.6,1 0.1,-0.6 c 0.2,-0.1 2,-0.5 2.6,-0.5 1.2,0 4.4,0.4 5.6,0.6 0,0.1 -0.1,0.3 -0.1,0.5 C 23.6,2.9 23.3,2.8 22.9,2.8 21.5,2.6 19.3,2.5 18.3,2.5 v 0 c -0.3,0 -0.8,0.1 -1.6,0.3 -0.5,0 -1,0.1 -1.1,0.1 z m 0,2.2 0.2,-2.2 c 0.5,-0.1 2,-0.5 2.6,-0.5 v 0 c 1,0 3.2,0.2 4.6,0.3 0.3,0 0.6,0.1 0.9,0.1 -0.1,0.2 -0.1,0.4 -0.2,0.7 -0.3,0.6 -0.3,0.9 -0.4,1.2 0,0.1 0,0.2 0,0.3 C 23.2,5 23,5 22.8,5 22.3,5 21.9,5 21.4,5 20.8,5 20.2,4.9 19.6,4.8 18.9,4.7 18.2,4.6 17.7,4.6 c 0,0 -0.1,0 -0.1,0 -0.2,0 -0.7,0.1 -1.3,0.3 C 16,5 15.7,5.1 15.6,5.1 Z m 0.3,1.1 C 15.8,6 15.6,5.7 15.6,5.2 16,5.1 17.2,4.7 17.7,4.7 c 0,0 0,0 0.1,0 0.4,0 1.1,0.1 1.8,0.2 0.6,0.1 1.2,0.1 1.8,0.2 0.4,0 0.9,0 1.4,0 0.2,0 0.3,0 0.5,0 0,0.3 0,0.5 0,0.6 0,0.1 0,0.1 0.1,0.2 -0.3,0 -0.9,-0.1 -1.1,-0.1 0,0 -0.1,0 -0.1,0 -0.8,0 -2.2,0.2 -3.4,0.4 -0.4,0.1 -0.8,0.1 -1.1,0.1 0,0 -0.1,0 -0.1,0 -0.3,0 -0.7,-0.1 -1,-0.2 C 16.4,6 16.2,5.9 16,5.9 c -0.1,0 -0.1,0 -0.1,0.1 0,0 0,0.1 0,0.2 0.2,0.1 0.2,0.2 0.3,0.2 0,0 0,0.1 0.1,0.1 -0.1,0 -0.3,-0.1 -0.4,-0.3 z m 0.2,0 c 0,0.1 0,0.1 0,0 -0.1,0 -0.2,-0.1 -0.2,-0.3 0,0 0,0 0.1,0 0.1,0.1 0.1,0.2 0.1,0.3 z m 7.2,2.3 C 22,9.4 20.9,9.9 20.1,9.9 19.9,9.9 19.8,9.9 19.6,9.8 18.3,9.4 17.5,8.5 17,7.8 17.1,7.9 17.2,7.9 17.4,8 17.7,8.2 18,8.2 18.2,8.3 18.2,8.3 17.7,8.1 17.4,8 17.1,7.9 17,7.7 16.9,7.7 16.8,7.6 16.8,7.5 16.7,7.4 16.5,7.1 16.4,6.8 16.3,6.6 L 16.2,6.4 c 0,0 0,-0.1 0,-0.1 0,-0.1 -0.1,-0.2 -0.1,-0.3 0.1,0 0.3,0.1 0.5,0.1 0.3,0.1 0.7,0.2 1,0.2 0,0 0.1,0 0.1,0 0.3,0 0.7,-0.1 1.1,-0.1 1.2,-0.1 2.6,-0.3 3.4,-0.3 0,0 0.1,0 0.1,0 0.3,0 0.9,0.1 1.2,0.1 0.1,0.2 0.3,0.4 0.5,0.7 C 23.8,6.8 22.9,7.1 21.8,7.5 21.1,7.7 20,8.1 20,8.1 20.5,8 21.2,7.8 21.9,7.5 23,7.1 24,6.8 24.1,6.7 c 0,0 0,0.1 0.1,0.1 0.3,0.3 0.5,0.6 0.6,0.7 -0.5,0.2 -1,0.6 -1.5,1 z M 25,7.1 24.7,7.4 C 24.5,7.2 23.5,6.2 23.4,5.6 23.3,5.2 23.4,4.5 23.6,3.6 23.7,3 23.9,2.5 24,2.3 l 0.4,0.1 c 0,0.2 -0.2,0.8 -0.3,1.4 -0.2,1 -0.2,1.7 -0.1,1.9 0.1,0.5 0.9,1.3 1,1.4 z M 24.2,3.4 c 0,0 0.1,0 0.1,-0.1 0.2,-0.1 0.4,-0.3 0.6,-0.4 0.2,-0.1 0.3,-0.2 0.5,-0.4 0.2,-0.1 0.4,-0.3 0.5,-0.4 0.2,-0.2 0.4,-0.4 0.7,-0.5 0.4,-0.2 0.9,-0.4 1.2,-0.4 0.1,0 0.1,0 0.1,0 0.1,0 0.1,0.2 0.1,0.3 0,0.2 0,0.4 -0.1,0.7 -0.1,0.2 -0.3,0.6 -0.5,1 -0.1,0.2 -0.2,0.4 -0.3,0.5 -0.1,0.2 -0.2,0.4 -0.4,0.6 -0.3,0.3 -0.6,0.7 -1.1,1.2 -0.4,0.4 -0.7,0.7 -1,0.9 0,0 0,0 0,0 C 24.4,6.1 24.1,5.8 24.1,5.7 24,5.4 24,4.8 24.2,3.8 c -0.1,-0.1 0,-0.2 0,-0.4 z m 3.9,-1 c -0.1,0.4 -0.3,0.9 -0.5,1.3 0,0 0,0.1 0,0.1 -0.2,0.5 -0.9,1.3 -1.6,2.1 -0.4,0.4 -0.8,0.7 -1.1,0.9 0,0 0,0 0,0 -0.1,-0.1 -0.1,-0.2 -0.2,-0.3 0,0 0,0 0,0 0.3,-0.2 0.7,-0.5 1.1,-0.9 0.5,-0.5 0.9,-0.9 1.1,-1.2 0.2,-0.3 0.4,-0.5 0.4,-0.7 0,-0.1 0.1,-0.3 0.3,-0.5 0.2,-0.4 0.4,-0.8 0.5,-1 0.1,-0.3 0.1,-0.5 0.1,-0.7 0,-0.2 -0.1,-0.3 -0.2,-0.3 0,0 -0.1,0 -0.2,0 -0.3,0 -0.8,0.2 -1.2,0.4 -0.2,0.1 -0.4,0.3 -0.7,0.5 -0.2,0.1 -0.3,0.3 -0.5,0.4 -0.2,0.1 -0.3,0.2 -0.5,0.4 -0.2,0.2 -0.4,0.3 -0.6,0.4 0,0 0,0 -0.1,0 0,-0.2 0.1,-0.3 0.1,-0.4 0.3,-0.1 0.6,-0.4 0.9,-0.6 0.4,-0.3 0.9,-0.6 1.3,-0.8 0.2,-0.1 0.4,-0.2 0.6,-0.3 0.2,-0.1 0.4,-0.1 0.6,-0.1 0.1,0 0.2,0 0.2,0 0.1,0 0.2,0.1 0.2,0.2 0.2,0.2 0.2,0.5 0,1.1 z M 28.3,1.3 C 28.2,1.2 28.1,1.1 28,1.1 c -0.1,0 -0.2,0 -0.2,0 -0.2,0 -0.4,0 -0.6,0.1 C 27,1.3 26.8,1.4 26.6,1.5 26.2,1.7 25.7,2 25.3,2.3 25,2.5 24.7,2.7 24.4,2.9 24.5,2.7 24.5,2.5 24.5,2.5 v 0 L 24,2.4 v 0 C 23.5,2.3 22.8,2.3 22,2.2 21.6,2.2 21.1,2.1 20.6,2.1 20.7,1.9 20.8,1.7 20.8,1.5 21,1 21,0.6 20.9,0.4 20.8,0.3 20.7,0.2 20.6,0.2 c -0.1,0 -0.2,0 -0.2,0 -0.2,0 -0.4,0 -0.6,0.1 C 19.6,0.4 19.4,0.5 19.2,0.6 18.8,0.8 18.3,1.1 17.9,1.4 17.4,1.5 17,1.8 16.7,1.9 16.6,1.9 16.5,2 16.4,2.1 16,2.2 15.6,2.3 15.6,2.3 v 0 L 15.5,3 v 0 c 0,0 0,0 0.1,0 l -0.2,2.3 v 0 c 0,0 0,0 0.1,0 0,0.2 0,0.3 0,0.5 0,0.2 0.1,0.4 0.2,0.6 0.2,0.2 0.4,0.4 0.4,0.4 0.1,0.2 0.2,0.5 0.4,0.8 0.3,0.5 0.7,1 1.1,1.4 0.5,0.5 1.2,0.9 1.9,1.1 0.2,0.1 0.3,0.1 0.5,0.1 0.4,0 1,-0.1 1.6,-0.4 0.5,-0.2 1,-0.6 1.6,-1 0.6,-0.4 1,-0.8 1.4,-1.1 v 0 L 25,7.3 v 0 C 25,7.3 24.9,7.2 24.8,7 25.1,6.8 25.5,6.4 25.9,6.1 26.7,5.4 27.3,4.5 27.5,4 c 0,0 0,-0.1 0,-0.1 C 27.7,3.4 27.9,3 28,2.6 28.3,1.8 28.4,1.5 28.3,1.3 Z" /><path
   style="fill:#007c6b"
   id="path3854-82-4"
   d="m 12.8,16.5 c -0.1,-0.1 -0.1,-0.2 -0.3,-0.2 -0.1,0 -0.2,0 -0.2,0 -0.2,0 -0.4,0 -0.6,0.1 -0.2,0.1 -0.4,0.2 -0.6,0.3 -0.4,0.2 -0.9,0.5 -1.3,0.8 -0.3,0.2 -0.7,0.4 -0.9,0.6 0,0.1 -0.1,0.2 -0.1,0.4 0,0 0,0.1 0,0.1 0,0 0.1,0 0.1,-0.1 0.3,-0.2 0.7,-0.5 1.1,-0.8 0.4,-0.3 0.8,-0.7 1.2,-0.9 0.4,-0.2 1.1,-0.5 1.4,-0.4 0.2,0.1 0.2,0.4 0,1 -0.1,0.3 -0.6,1.3 -0.7,1.5 -0.1,0.3 -0.5,0.8 -1.6,1.9 -0.4,0.4 -0.7,0.7 -1,0.9 0,0 0,0 -0.1,0 0,0 0,0.1 0.1,0.1 0,0 0,0.1 0.1,0.1 0,0 0,0.1 0.1,0.1 0,0 0,0 0,0 0,0 0,0 0.1,0 0.3,-0.2 0.7,-0.6 1.1,-0.9 0.8,-0.7 1.4,-1.6 1.6,-2.1 0,0 0,-0.1 0,-0.1 0.2,-0.5 0.4,-0.9 0.5,-1.3 0.1,-0.6 0.1,-0.9 0,-1.1 z" /><path
   style="fill:#0d5151"
   id="path3856-1-0"
   d="M 10.4,17.4 C 10.1,17.5 9.9,17.5 9.6,17.6 9.3,17.8 9,18 8.8,18.1 c 0,0.1 -0.1,0.2 -0.1,0.4 0,0 0,0.1 0,0.1 0,0 0.1,0 0.1,-0.1 0.3,-0.2 0.7,-0.5 1.1,-0.8 0.2,0 0.4,-0.2 0.5,-0.3 z" /><path
   style="fill:#0d5151"
   id="path3858-1-8"
   d="m 12.6,17.2 c 0,0.1 0,0.2 -0.1,0.3 -0.1,0.3 -0.6,1.3 -0.7,1.5 -0.1,0.3 -0.5,0.8 -1.6,1.9 -0.4,0.4 -0.7,0.7 -1,0.9 0,0 0,0 -0.1,0 0,0 0,0.1 0.1,0.1 0,0 0,0.1 0.1,0.1 0,0 0,0.1 0.1,0.1 0,0 0,0 0,0 0,0 0,0 0.1,0 0.3,-0.2 0.7,-0.6 1.1,-0.9 0.8,-0.7 1.4,-1.6 1.6,-2.1 0,0 0,-0.1 0,-0.1 0.2,-0.5 0.4,-0.9 0.5,-1.3 0.1,-0.2 0.1,-0.3 0.1,-0.4 0,-0.1 -0.1,-0.1 -0.2,-0.1 z" /><path
   style="fill:#007c6b"
   id="path3860-1-2"
   d="m 1.1,17.3 c 0.1,0 0.1,0 0.1,0 0,0 0.1,0 0.1,-0.1 0.1,0 0.1,0 0.2,0 0.1,0 0.1,0 0.1,0 0,0 0.1,0 0.1,-0.1 0,0 0.1,0 0.1,0 0,0 0.1,0 0.1,0 0,0 0,0 0,0 C 2.1,17 2.2,16.8 2.4,16.7 2.8,16.4 3.2,16 3.6,15.8 4,15.6 4.7,15.3 5,15.4 c 0.2,0.1 0.2,0.4 0,1 0,0.1 -0.2,0.5 -0.4,0.8 0.1,0 0.2,0 0.3,0 C 5,17 5.1,16.8 5.1,16.6 5.3,16.1 5.3,15.7 5.2,15.5 5.1,15.4 5.1,15.3 4.9,15.3 c -0.1,0 -0.2,0 -0.2,0 -0.2,0 -0.4,0 -0.6,0.1 -0.2,0.1 -0.4,0.2 -0.6,0.3 -0.4,0.2 -0.9,0.5 -1.3,0.8 -0.2,0.2 -0.6,0.5 -0.9,0.6 -0.1,0.1 -0.2,0.2 -0.2,0.2 -0.1,0 -0.1,0 0,0 z" /><path
   style="fill:#0d5151"
   id="path3862-2-7"
   d="m 2.4,16.7 c -0.1,0 -0.2,0.1 -0.4,0.1 -0.1,0 -0.2,0.1 -0.3,0.1 -0.2,0.1 -0.3,0.2 -0.4,0.2 -0.1,0.1 -0.2,0.1 -0.3,0.2 0,0 0,0 0.1,0 0.1,0 0.1,0 0.1,0 0,0 0.1,0 0.1,-0.1 0.1,0 0.1,0 0.2,0 0.1,0 0.1,0 0.1,0 0,0 0.1,0 0.1,-0.1 0,0 0.1,0 0.1,0 0,0 0.1,0 0.1,0 0,0 0,0 0,0 0.2,-0.1 0.3,-0.3 0.5,-0.4 0,0 0.1,-0.1 0.1,-0.1 0.1,0.1 0,0.1 -0.1,0.1 z" /><path
   style="fill:#0d5151"
   id="path3864-4-1"
   d="m 5.2,16 c 0,0.1 -0.1,0.3 -0.1,0.4 0,0.1 -0.2,0.5 -0.4,0.8 0.1,0 0.2,0 0.3,0 0.1,-0.2 0.2,-0.4 0.2,-0.6 0.1,-0.2 0.1,-0.4 0.2,-0.6 0,-0.1 -0.1,0 -0.2,0 z" /><path
   style="fill:#34b1b5"
   id="path3866-7-0"
   d="M 9.3,22.7 C 9.5,22.5 9.7,22.4 9.7,22.4 L 9.4,22.1 c -0.3,-0.3 -0.7,-0.8 -0.8,-1 -0.2,-0.4 0.1,-1.9 0.3,-2.7 0,0 0,0 0,0 L 9,17.8 c 0,0 -0.2,0 -0.5,-0.1 v 0 0 C 7.3,17.5 4.1,17.2 2.9,17.1 c -0.6,0 -2.1,0.4 -2.5,0.5 v 0 c -0.1,0 -0.1,0 -0.1,0 l -0.1,0.7 c 0,0 0,0 0.1,0 l -0.2,2.3 c 0,0 0,0 0.1,0 0,1.1 0.7,1.5 0.7,1.5 v 0 c 0.4,1 1.3,2.6 3.3,3.3 1.5,0.2 4.1,-1.9 5.1,-2.7 z M 0.5,21.2 c 0,0 0.1,-0.1 0.1,-0.1 0,0.1 0.1,0.3 0.1,0.5 0.1,0 -0.3,-0.2 -0.2,-0.4 z" /><path
   style="fill:#126653"
   id="path3868-1-0"
   d="m 9.7,22.4 c 0,0 -1.8,1.6 -2.7,2 C 6.8,24.5 6.5,24.7 6.2,24.8 5.7,25 5.1,25.2 4.9,25.2 1.6,24.6 3,17 3,17 l 2.5,0.2 3.4,0.4 c 0,0 -0.6,2.4 -0.4,3.2 0.1,0.6 1.2,1.6 1.2,1.6 z" /><path
   style="fill:#008c79"
   id="path3870-6-3"
   d="m 9.7,22.3 c 0,0 -1.9,1.6 -2.8,2 C 6.7,24.4 6.4,24.6 6.1,24.7 5.6,24.9 4.9,25.1 4.7,25.1 1.3,24.5 2.8,16.9 2.8,16.9 l 2.6,0.2 3.5,0.4 c 0,0 -0.6,2.4 -0.4,3.2 0.1,0.7 1.2,1.6 1.2,1.6 z" /><path
   style="fill:#056b5c"
   id="path3872-4-9"
   d="m 8.5,20.8 c 0,0 0,-0.1 0,-0.1 -0.2,0 -0.3,0 -0.5,0 -1,0 -2,0 -2.9,0 -0.9,0 -1.8,0 -2.6,0 0,2 0.5,4.1 2.2,4.4 0.2,0 0.8,-0.2 1.4,-0.4 0.3,-0.1 0.6,-0.3 0.8,-0.4 0.9,-0.4 2.8,-2 2.8,-2 0,0 -1.1,-0.9 -1.2,-1.5 z" /><path
   style="fill:#007c6b"
   id="path3874-9-8"
   d="m 3.3,21.4 c 0.1,0 0.3,0 0.4,0 0.1,0 0.3,0 0.4,-0.1 0.1,0 0.2,0 0.3,-0.1 0.1,0 0.2,0 0.3,0 0.1,0 0.2,0 0.3,0 0.1,0 0.1,0 0.2,0 0.1,0 0.1,0 0.2,0 0.1,0 0.2,0 0.3,0 0.1,0 0.1,0 0.2,0 0,0 0.1,0 0.1,0 0.2,0 0.4,0 0.6,0 0.1,0 0.2,0 0.3,0 0.1,0 0.2,0 0.3,0 0.1,0 0.2,0 0.3,0 0.1,0 0.2,0 0.3,0 0.1,0 0.2,0 0.3,0 0.1,0 0.2,0 0.3,0 0,0 0,0 0.1,0 C 8.4,21.1 8.4,21 8.4,20.9 c 0,-0.2 0,-0.4 0,-0.7 0,0 0,0 0,0 -0.1,0 -0.3,0 -0.4,0 -0.1,0 -0.1,0 -0.2,0 -0.1,0 -0.1,0 -0.2,0 -0.2,0 -0.3,0 -0.5,0 -0.2,0 -0.4,0 -0.6,0 -0.2,0 -0.4,0 -0.6,0 -0.1,0 -0.1,0 -0.2,0 0,0 -0.1,0 -0.1,0 -0.1,0 -0.2,0 -0.3,0 -0.1,0 -0.2,0 -0.3,0 -0.1,0 -0.1,0 -0.2,0 0,0 0,0 0,0 -0.1,0 -0.1,0 -0.2,0 -0.2,0 -0.3,0 -0.5,-0.1 -0.1,0 -0.2,0 -0.3,0 -0.1,0 -0.2,0 -0.2,0 0,0 -0.1,0 -0.1,0 0,0 -0.1,0 -0.1,0 -0.1,0 -0.2,0 -0.2,0 0,0 0,0 0,0 -0.1,0 -0.1,0 -0.2,0 -0.2,0 -0.3,0 -0.5,-0.1 0,0.5 0,1.1 0,1.6 0.2,-0.1 0.5,-0.2 0.8,-0.2 z" /><path
   style="fill:#00a18a"
   id="path3876-0-2"
   d="m 3,17.6 c 0.1,0 0.1,0 0.2,0 0.1,0 0.1,0 0.2,0 0.3,0 0.6,0 0.8,0 0.2,0 0.4,0 0.7,0 0.1,0 0.2,0 0.3,0 0.1,0 0.1,0 0.2,0 0,0 0.1,0 0.1,0 0.2,0 0.4,0 0.6,0.1 0.1,0 0.1,0 0.2,0 0.1,0 0.1,0 0.2,0 0,0 0.1,0 0.1,0 0.1,0 0.1,0 0.2,0 0.1,0 0.2,0 0.3,0 0.1,0 0.2,0.1 0.3,0.1 0.2,0 0.4,0 0.6,0.1 0.1,0 0.1,0 0.2,0 0,0 0.1,0 0.1,0 0.1,0 0.2,0 0.3,0 0,0 0.1,0 0.1,0 0.1,-0.3 0.1,-0.6 0.1,-0.6 L 5.3,16.9 2.6,16.7 c 0,0 0,0.2 -0.1,0.6 H 3 Z" /><path
   style="fill:#0f4a47"
   id="path3878-9-0"
   d="m 0.8,21.5 c 0,0 0,-0.1 0,0 0,-0.1 0,-0.1 0,-0.2 0,0 0,0 0,-0.1 0,0 0,-0.1 0,-0.1 0,0 -0.1,0 -0.1,0 0,0 0,0.1 0,0.1 0,0 0,0.1 0,0.1 -0.1,0.1 0,0.2 0.1,0.2 0,0 0,0 0,0 0,0 0,0 0,0 z" /><path
   style="fill:#007c6b"
   id="path3880-48-4"
   d="m 8.2,18.5 c 0,0.1 0,0.1 0,0.2 0,0.1 0,0.1 0,0.2 0,0.1 -0.1,0.3 -0.1,0.4 0,0.1 0,0.1 -0.1,0.2 0,0.1 0,0.2 0,0.2 0,0.1 0,0.1 0,0.2 0,0.1 0,0.1 0,0.2 0,0.1 0,0.3 0,0.4 0,0 0,0 0,0 0,0 0,0 0,0 0,0 0,0 0,0 0,0 0,0 0,0 0,0 0,0 0,0 0,0.1 0,0.2 0,0.3 0,0.1 0,0.2 0.1,0.3 0,0 0,0.1 0.1,0.1 0,0 0,0.1 0.1,0.1 0,0 0,0 0,0 0,0 0,0 0,0 0,0 0,0.1 0.1,0.1 0,0 0,0 0,0 0,0 0.1,0.1 0.1,0.1 0,0 0,0 0,0 0,0 0.1,0.1 0.1,0.1 0,0 0,0.1 0.1,0.1 0,0 0.1,0.1 0.1,0.1 0,0 0.1,0.1 0.1,0.1 0,0 0,0 0,0 0,0 0,0 0,0 0,0 0,0 0,0.1 0,0 0,0 0,0 0,0 0,0 0.1,0.1 0,0 0,0 0,0 0,0 0,0 0,0 0,0 0,0 0,0.1 0,0 0.1,0 0.1,0.1 0.1,0.1 0.1,0.1 0.1,0.2 0,0.1 0.1,0.1 0.2,0.2 0,0 0,0 0,0 0.2,-0.2 0.4,-0.3 0.4,-0.3 0,0 -1,-1 -1.1,-1.5 -0.2,-0.8 0.4,-3.2 0.4,-3.2 H 8.7 c 0,0.2 -0.1,0.4 -0.2,0.6 -0.2,0 -0.2,0.1 -0.3,0.2 z" /><path
   style="fill:#0d5151"
   id="path3882-6-4"
   d="m 1.5,23 0.8,0.4 c 0,0 -0.5,0 -0.6,-0.1 C 1.6,23.1 1.5,23 1.5,23 Z" /><path
   style="fill:#0f4a47"
   id="path3884-0-4"
   d="M 8.8,22.1 C 8.6,21.9 8.6,21.9 8.6,21.9 v 0 l -1,0.4 -1.2,0.4 -1.1,0.3 c 0,0.1 3.6,-0.7 3.5,-0.9 z" /><path
   style="fill:#0d5151"
   id="path3886-0-5"
   d="m 0.7,21.1 0.1,0.4 c 0,0 0.4,-0.2 0.7,-0.1 C 1.9,21.5 1,21.1 1,21.1 Z" /><path
   style="fill:#0f4a47"
   id="path3888-2-8"
   d="M 8.3,21.4 8.1,21.1 7.1,21 H 6.8 l -4.5,0.5 c 0,0 3.7,-0.3 4.7,-0.2 1,0.1 1.3,0.1 1.3,0.1 z" /><path
   style="fill:#0d5151"
   id="path3890-49-6"
   d="m 0.2,20.4 1.5,-0.5 c 0,0 0.6,-0.1 0.6,-0.1 0.1,0 0.2,0.1 0.2,0.1 0,0 -0.5,0.1 -0.8,0.2 -0.4,0 -1.5,0.3 -1.5,0.3 z" /><path
   style="fill:#0f4a47"
   id="path3892-7-4"
   d="M 7.9,20.2 H 6.8 L 5.5,20.1 3.5,19.9 2.6,19.8 c 0,0 2.9,0.6 3.4,0.6 0.4,0 1.9,0 1.9,0 z" /><path
   style="fill:#0d5151"
   id="path3894-5-7"
   d="m 0.3,18.2 1,-0.2 0.4,-0.2 0.6,-0.1 c 0,0 -0.5,0.1 -0.8,0.2 -0.4,0.1 -1.2,0.3 -1.2,0.3 z" /><path
   style="fill:#0f4a47"
   id="path3896-0-6"
   d="M 8.3,18.1 7.2,17.9 c 0,0 -1.3,-0.1 -1.7,-0.2 -2.5,-0.1 -2.6,0 -2.6,0 0,0 2.8,0.3 3.8,0.5 1,0.2 1.6,0.4 1.6,0.4 z" /><path
   style="fill:#122f26"
   id="path3898-1-2"
   d="m 1.3,17.2 c 0.3,-0.1 0.7,-0.4 1.1,-0.7 0.4,-0.3 0.9,-0.6 1.3,-0.8 0.2,-0.1 0.4,-0.2 0.6,-0.3 0.2,-0.1 0.4,-0.1 0.6,-0.1 0.1,0 0.2,0 0.2,0 0.1,0 0.2,0.1 0.2,0.2 0.1,0.2 0.1,0.5 -0.1,1 -0.1,0.2 -0.1,0.4 -0.2,0.6 -0.1,0 -0.1,0 -0.2,0 0.1,-0.3 0.3,-0.6 0.3,-0.7 0.1,-0.3 0.1,-0.5 0.1,-0.7 0,-0.2 -0.1,-0.3 -0.2,-0.3 0,0 -0.1,0 -0.2,0 -0.3,0 -0.8,0.2 -1.2,0.4 -0.2,0.1 -0.4,0.3 -0.7,0.5 -0.2,0.1 -0.3,0.3 -0.5,0.4 -0.2,0.1 -0.3,0.2 -0.5,0.4 0,0 0,0 0,0 -0.3,0 -0.6,0.1 -0.9,0.2 0.2,-0.1 0.3,-0.1 0.3,-0.1 z M 4.8,17.1 C 4.1,17 3.3,17 2.9,17 2.7,17 2.5,17 2.2,17.1 2.3,17 2.5,16.9 2.6,16.8 2.8,16.7 3,16.5 3.1,16.4 3.3,16.2 3.5,16 3.8,15.9 4.2,15.7 4.7,15.5 5,15.5 c 0.1,0 0.1,0 0.1,0 0.1,0 0.1,0.2 0.1,0.3 0,0.2 0,0.4 -0.1,0.7 0,0 -0.2,0.3 -0.3,0.6 z m -4.6,1 0.1,-0.6 c 0.2,-0.1 2,-0.5 2.6,-0.5 1.2,0 4.4,0.4 5.6,0.6 0,0.1 -0.1,0.3 -0.1,0.5 C 8.2,18.1 7.9,18 7.5,18 6.1,17.8 3.9,17.7 2.9,17.7 v 0 c -0.3,0 -0.8,0.1 -1.6,0.3 -0.5,0 -1,0.1 -1.1,0.1 z m 0,2.2 0.2,-2.2 C 0.9,18 2.4,17.6 3,17.6 v 0 c 1,0 3.2,0.2 4.6,0.3 0.3,0 0.6,0.1 0.9,0.1 -0.1,0.2 -0.1,0.4 -0.2,0.7 -0.3,0.6 -0.3,0.9 -0.4,1.2 0,0.1 0,0.2 0,0.3 -0.1,0 -0.3,0 -0.5,0 -0.5,0 -0.9,0 -1.4,0 C 5.4,20.2 4.8,20.1 4.2,20 3.5,19.9 2.8,19.8 2.3,19.8 c 0,0 -0.1,0 -0.1,0 -0.2,0 -0.7,0.1 -1.3,0.3 -0.3,0.1 -0.6,0.2 -0.7,0.2 z m 0.3,1.1 c -0.1,-0.2 -0.3,-0.5 -0.3,-1 0.4,-0.1 1.6,-0.5 2.1,-0.5 0,0 0,0 0.1,0 0.4,0 1.1,0.1 1.8,0.2 0.6,0.1 1.2,0.1 1.8,0.2 0.4,0 0.9,0 1.4,0 0.2,0 0.3,0 0.5,0 0,0.3 0,0.5 0,0.6 0,0.1 0,0.1 0.1,0.2 C 7.7,21.1 7.1,21 6.9,21 6.9,21 6.8,21 6.8,21 6,21 4.6,21.2 3.4,21.4 3,21.5 2.6,21.5 2.3,21.5 c 0,0 -0.1,0 -0.1,0 -0.3,0 -0.7,-0.1 -1,-0.2 C 1,21.2 0.8,21.1 0.6,21.1 c -0.1,0 -0.1,0 -0.1,0.1 0,0 0,0.1 0,0.2 0.2,0.1 0.2,0.2 0.3,0.2 0,0 0,0.1 0.1,0.1 -0.1,0 -0.3,-0.1 -0.4,-0.3 z m 0.2,0 c 0,0.1 0,0.1 0,0 -0.1,0 -0.2,-0.1 -0.2,-0.3 0,0 0,0 0.1,0 0.1,0.1 0.1,0.2 0.1,0.3 z m 7.2,2.3 c -1.3,0.9 -2.4,1.4 -3.2,1.4 -0.2,0 -0.3,0 -0.5,-0.1 -1.3,-0.4 -2.1,-1.3 -2.6,-2 0.1,0.1 0.2,0.1 0.4,0.2 0.3,0.2 0.6,0.2 0.8,0.3 0,0 -0.5,-0.2 -0.8,-0.3 C 1.7,23.1 1.6,22.9 1.5,22.9 1.4,22.8 1.4,22.7 1.3,22.6 1.1,22.3 1,22 0.9,21.8 L 0.8,21.6 c 0,0 0,-0.1 0,-0.1 0,-0.1 -0.1,-0.2 -0.1,-0.3 0.1,0 0.3,0.1 0.5,0.1 0.3,0.1 0.7,0.2 1,0.2 0,0 0.1,0 0.1,0 0.3,0 0.7,-0.1 1.1,-0.1 1.2,-0.1 2.6,-0.3 3.4,-0.3 0,0 0.1,0 0.1,0 0.3,0 0.9,0.1 1.2,0.1 0.1,0.2 0.3,0.4 0.5,0.7 C 8.4,22 7.5,22.3 6.4,22.7 5.7,22.9 4.6,23.3 4.6,23.3 5.1,23.2 5.8,23 6.5,22.7 7.6,22.3 8.6,22 8.7,21.9 c 0,0 0,0.1 0.1,0.1 0.3,0.3 0.5,0.6 0.6,0.7 -0.5,0.2 -1,0.6 -1.5,1 z M 9.6,22.3 9.3,22.6 C 9.1,22.4 8.1,21.4 8,20.8 7.9,20.4 8,19.7 8.2,18.8 8.3,18.2 8.5,17.7 8.6,17.5 L 9,17.6 c 0,0.2 -0.2,0.8 -0.3,1.4 -0.2,1 -0.2,1.7 -0.1,1.9 0.1,0.5 0.9,1.3 1,1.4 z M 8.8,18.6 c 0,0 0.1,0 0.1,-0.1 0.2,-0.1 0.4,-0.3 0.6,-0.4 0.2,-0.1 0.3,-0.2 0.5,-0.4 0.2,-0.1 0.4,-0.3 0.5,-0.4 0.2,-0.2 0.4,-0.4 0.7,-0.5 0.4,-0.2 0.9,-0.4 1.2,-0.4 0.1,0 0.1,0 0.1,0 0.1,0 0.1,0.2 0.1,0.3 0,0.2 0,0.4 -0.1,0.7 -0.1,0.2 -0.3,0.6 -0.5,1 -0.1,0.2 -0.2,0.4 -0.3,0.5 -0.1,0.2 -0.2,0.4 -0.4,0.6 -0.3,0.3 -0.6,0.7 -1.1,1.2 -0.4,0.4 -0.7,0.7 -1,0.9 0,0 0,0 0,0 C 9,21.3 8.7,21 8.7,20.9 8.6,20.6 8.6,20 8.8,19 c -0.1,-0.1 0,-0.2 0,-0.4 z m 3.9,-1 c -0.1,0.4 -0.3,0.9 -0.5,1.3 0,0 0,0.1 0,0.1 -0.2,0.5 -0.9,1.3 -1.6,2.1 -0.4,0.4 -0.8,0.7 -1.1,0.9 0,0 0,0 0,0 -0.1,-0.1 -0.1,-0.2 -0.2,-0.3 0,0 0,0 0,0 0.3,-0.2 0.7,-0.5 1.1,-0.9 0.5,-0.5 0.9,-0.9 1.1,-1.2 0.2,-0.3 0.4,-0.5 0.4,-0.7 0,-0.1 0.1,-0.3 0.3,-0.5 0.2,-0.4 0.4,-0.8 0.5,-1 0.1,-0.3 0.1,-0.5 0.1,-0.7 0,-0.2 -0.1,-0.3 -0.2,-0.3 0,0 -0.1,0 -0.2,0 -0.3,0 -0.8,0.2 -1.2,0.4 -0.2,0.1 -0.4,0.3 -0.7,0.5 -0.2,0.1 -0.3,0.3 -0.5,0.4 -0.2,0.1 -0.3,0.2 -0.5,0.4 -0.2,0.2 -0.4,0.3 -0.6,0.4 0,0 0,0 -0.1,0 0,-0.2 0.1,-0.3 0.1,-0.4 0.3,-0.1 0.6,-0.4 0.9,-0.6 0.4,-0.3 0.9,-0.6 1.3,-0.8 0.2,-0.1 0.4,-0.2 0.6,-0.3 0.2,-0.1 0.4,-0.1 0.6,-0.1 0.1,0 0.2,0 0.2,0 0.1,0 0.2,0.1 0.2,0.2 0.2,0.2 0.2,0.5 0,1.1 z m 0.2,-1.1 c -0.1,-0.1 -0.2,-0.2 -0.3,-0.2 -0.1,0 -0.2,0 -0.2,0 -0.2,0 -0.4,0 -0.6,0.1 -0.2,0.1 -0.4,0.2 -0.6,0.3 -0.4,0.2 -0.9,0.5 -1.3,0.8 -0.3,0.2 -0.6,0.4 -0.9,0.6 0.1,-0.2 0.1,-0.4 0.1,-0.4 v 0 L 8.6,17.6 v 0 C 8.1,17.5 7.4,17.5 6.6,17.4 6.2,17.4 5.7,17.3 5.2,17.3 5.3,17.1 5.4,16.9 5.4,16.7 5.6,16.2 5.6,15.8 5.5,15.6 5.4,15.5 5.3,15.4 5.2,15.4 c -0.1,0 -0.2,0 -0.2,0 -0.2,0 -0.4,0 -0.6,0.1 C 4.2,15.6 4,15.7 3.8,15.8 3.4,16 2.9,16.3 2.5,16.6 2,16.7 1.6,17 1.3,17.1 1.2,17.1 1.1,17.2 1,17.3 0.6,17.4 0.2,17.5 0.2,17.5 v 0 l -0.1,0.7 v 0 c 0,0 0,0 0.1,0 L 0,20.5 v 0 c 0,0 0,0 0.1,0 0,0.2 0,0.3 0,0.5 0,0.2 0.1,0.4 0.2,0.6 0.2,0.2 0.4,0.4 0.4,0.4 0.1,0.2 0.2,0.5 0.4,0.8 0.3,0.5 0.7,1 1.1,1.4 0.5,0.5 1.2,0.9 1.9,1.1 0.2,0.1 0.3,0.1 0.5,0.1 0.4,0 1,-0.1 1.6,-0.4 0.5,-0.2 1,-0.6 1.6,-1 0.6,-0.4 1,-0.8 1.4,-1.1 v 0 l 0.4,-0.4 v 0 c 0,0 -0.1,-0.1 -0.2,-0.3 0.3,-0.2 0.7,-0.6 1.1,-0.9 0.8,-0.7 1.4,-1.6 1.6,-2.1 0,0 0,-0.1 0,-0.1 0.2,-0.5 0.4,-0.9 0.5,-1.3 0.3,-0.8 0.4,-1.1 0.3,-1.3 z" /><path
   style="fill:#007c6b"
   id="path3854-82-4-6"
   d="m 28.2,16.6 c -0.1,-0.1 -0.1,-0.2 -0.3,-0.2 -0.1,0 -0.2,0 -0.2,0 -0.2,0 -0.4,0 -0.6,0.1 -0.2,0.1 -0.4,0.2 -0.6,0.3 -0.4,0.2 -0.9,0.5 -1.3,0.8 -0.3,0.2 -0.7,0.4 -0.9,0.6 0,0.1 -0.1,0.2 -0.1,0.4 0,0 0,0.1 0,0.1 0,0 0.1,0 0.1,-0.1 0.3,-0.2 0.7,-0.5 1.1,-0.8 0.4,-0.3 0.8,-0.7 1.2,-0.9 0.4,-0.2 1.1,-0.5 1.4,-0.4 0.2,0.1 0.2,0.4 0,1 -0.1,0.3 -0.6,1.3 -0.7,1.5 -0.1,0.3 -0.5,0.8 -1.6,1.9 -0.4,0.4 -0.7,0.7 -1,0.9 0,0 0,0 -0.1,0 0,0 0,0.1 0.1,0.1 0,0 0,0.1 0.1,0.1 0,0 0,0.1 0.1,0.1 0,0 0,0 0,0 0,0 0,0 0.1,0 0.3,-0.2 0.7,-0.6 1.1,-0.9 0.8,-0.7 1.4,-1.6 1.6,-2.1 0,0 0,-0.1 0,-0.1 0.2,-0.5 0.4,-0.9 0.5,-1.3 0.1,-0.6 0.1,-0.9 0,-1.1 z" /><path
   style="fill:#0d5151"
   id="path3856-1-0-8"
   d="m 25.8,17.5 c -0.3,0.1 -0.5,0.1 -0.8,0.2 -0.3,0.2 -0.6,0.4 -0.8,0.5 0,0.1 -0.1,0.2 -0.1,0.4 0,0 0,0.1 0,0.1 0,0 0.1,0 0.1,-0.1 0.3,-0.2 0.7,-0.5 1.1,-0.8 0.2,0 0.4,-0.2 0.5,-0.3 z" /><path
   style="fill:#0d5151"
   id="path3858-1-8-2"
   d="m 28,17.3 c 0,0.1 0,0.2 -0.1,0.3 -0.1,0.3 -0.6,1.3 -0.7,1.5 -0.1,0.3 -0.5,0.8 -1.6,1.9 -0.4,0.4 -0.7,0.7 -1,0.9 0,0 0,0 -0.1,0 0,0 0,0.1 0.1,0.1 0,0 0,0.1 0.1,0.1 0,0 0,0.1 0.1,0.1 0,0 0,0 0,0 0,0 0,0 0.1,0 0.3,-0.2 0.7,-0.6 1.1,-0.9 0.8,-0.7 1.4,-1.6 1.6,-2.1 0,0 0,-0.1 0,-0.1 0.2,-0.5 0.4,-0.9 0.5,-1.3 0.1,-0.2 0.1,-0.3 0.1,-0.4 0,-0.1 -0.1,-0.1 -0.2,-0.1 z" /><path
   style="fill:#007c6b"
   id="path3860-1-2-8"
   d="m 16.5,17.4 c 0.1,0 0.1,0 0.1,0 0,0 0.1,0 0.1,-0.1 0.1,0 0.1,0 0.2,0 0.1,0 0.1,0 0.1,0 0,0 0.1,0 0.1,-0.1 0,0 0.1,0 0.1,0 0,0 0.1,0 0.1,0 0,0 0,0 0,0 0.2,-0.1 0.3,-0.3 0.5,-0.4 0.4,-0.3 0.8,-0.7 1.2,-0.9 0.4,-0.2 1.1,-0.5 1.4,-0.4 0.2,0.1 0.2,0.4 0,1 0,0.1 -0.2,0.5 -0.4,0.8 0.1,0 0.2,0 0.3,0 0.1,-0.2 0.2,-0.4 0.2,-0.6 0.2,-0.5 0.2,-0.9 0.1,-1.1 -0.1,-0.1 -0.1,-0.2 -0.3,-0.2 -0.1,0 -0.2,0 -0.2,0 -0.2,0 -0.4,0 -0.6,0.1 -0.2,0.1 -0.4,0.2 -0.6,0.3 -0.4,0.2 -0.9,0.5 -1.3,0.8 -0.2,0.2 -0.6,0.5 -0.9,0.6 -0.1,0.1 -0.2,0.2 -0.2,0.2 -0.1,0 -0.1,0 0,0 z" /><path
   style="fill:#0d5151"
   id="path3862-2-7-9"
   d="m 17.8,16.8 c -0.1,0 -0.2,0.1 -0.4,0.1 -0.1,0 -0.2,0.1 -0.3,0.1 -0.2,0.1 -0.3,0.2 -0.4,0.2 -0.1,0.1 -0.2,0.1 -0.3,0.2 0,0 0,0 0.1,0 0.1,0 0.1,0 0.1,0 0,0 0.1,0 0.1,-0.1 0.1,0 0.1,0 0.2,0 0.1,0 0.1,0 0.1,0 0,0 0.1,0 0.1,-0.1 0,0 0.1,0 0.1,0 0,0 0.1,0 0.1,0 0,0 0,0 0,0 0.2,-0.1 0.3,-0.3 0.5,-0.4 0,0 0.1,-0.1 0.1,-0.1 0.1,0.1 0,0.1 -0.1,0.1 z" /><path
   style="fill:#0d5151"
   id="path3864-4-1-6"
   d="m 20.6,16.1 c 0,0.1 -0.1,0.3 -0.1,0.4 0,0.1 -0.2,0.5 -0.4,0.8 0.1,0 0.2,0 0.3,0 0.1,-0.2 0.2,-0.4 0.2,-0.6 0.1,-0.2 0.1,-0.4 0.2,-0.6 0,-0.1 -0.1,0 -0.2,0 z" /><path
   style="fill:#34b1b5"
   id="path3866-7-0-3"
   d="m 24.7,22.8 c 0.2,-0.2 0.4,-0.3 0.4,-0.3 l -0.3,-0.3 c -0.3,-0.3 -0.7,-0.8 -0.8,-1 -0.2,-0.4 0.1,-1.9 0.3,-2.7 0,0 0,0 0,0 l 0.1,-0.6 c 0,0 -0.2,0 -0.5,-0.1 v 0 0 c -1.2,-0.2 -4.4,-0.5 -5.6,-0.6 -0.6,0 -2.1,0.4 -2.5,0.5 v 0 c -0.1,0 -0.1,0 -0.1,0 l -0.1,0.7 c 0,0 0,0 0.1,0 l -0.2,2.3 c 0,0 0,0 0.1,0 0,1.1 0.7,1.5 0.7,1.5 v 0 c 0.4,1 1.3,2.6 3.3,3.3 1.5,0.2 4.1,-1.9 5.1,-2.7 z m -8.8,-1.5 c 0,0 0.1,-0.1 0.1,-0.1 0,0.1 0.1,0.3 0.1,0.5 0.1,0 -0.3,-0.2 -0.2,-0.4 z" /><path
   style="fill:#126653"
   id="path3868-1-0-6"
   d="m 25.1,22.5 c 0,0 -1.8,1.6 -2.7,2 -0.2,0.1 -0.5,0.3 -0.8,0.4 -0.5,0.2 -1.1,0.4 -1.3,0.4 -3.3,-0.6 -1.9,-8.2 -1.9,-8.2 l 2.5,0.2 3.4,0.4 c 0,0 -0.6,2.4 -0.4,3.2 0.1,0.6 1.2,1.6 1.2,1.6 z" /><path
   style="fill:#008c79"
   id="path3870-6-3-0"
   d="m 25.1,22.4 c 0,0 -1.9,1.6 -2.8,2 -0.2,0.1 -0.5,0.3 -0.8,0.4 C 21,25 20.3,25.2 20.1,25.2 16.7,24.6 18.2,17 18.2,17 l 2.6,0.2 3.5,0.4 c 0,0 -0.6,2.4 -0.4,3.2 0.1,0.7 1.2,1.6 1.2,1.6 z" /><path
   style="fill:#056b5c"
   id="path3872-4-9-0"
   d="m 23.9,20.9 c 0,0 0,-0.1 0,-0.1 -0.2,0 -0.3,0 -0.5,0 -1,0 -2,0 -2.9,0 -0.9,0 -1.8,0 -2.6,0 0,2 0.5,4.1 2.2,4.4 0.2,0 0.8,-0.2 1.4,-0.4 0.3,-0.1 0.6,-0.3 0.8,-0.4 0.9,-0.4 2.8,-2 2.8,-2 0,0 -1.1,-0.9 -1.2,-1.5 z" /><path
   style="fill:#007c6b"
   id="path3874-9-8-4"
   d="m 18.7,21.5 c 0.1,0 0.3,0 0.4,0 0.1,0 0.3,0 0.4,-0.1 0.1,0 0.2,0 0.3,-0.1 0.1,0 0.2,0 0.3,0 0.1,0 0.2,0 0.3,0 0.1,0 0.1,0 0.2,0 0.1,0 0.1,0 0.2,0 0.1,0 0.2,0 0.3,0 0.1,0 0.1,0 0.2,0 0,0 0.1,0 0.1,0 0.2,0 0.4,0 0.6,0 0.1,0 0.2,0 0.3,0 0.1,0 0.2,0 0.3,0 0.1,0 0.2,0 0.3,0 0.1,0 0.2,0 0.3,0 0.1,0 0.2,0 0.3,0 0.1,0 0.2,0 0.3,0 0,0 0,0 0.1,0 -0.1,-0.1 -0.1,-0.2 -0.1,-0.3 0,-0.2 0,-0.4 0,-0.7 0,0 0,0 0,0 -0.1,0 -0.3,0 -0.4,0 -0.1,0 -0.1,0 -0.2,0 -0.1,0 -0.1,0 -0.2,0 -0.2,0 -0.3,0 -0.5,0 -0.2,0 -0.4,0 -0.6,0 -0.2,0 -0.4,0 -0.6,0 -0.1,0 -0.1,0 -0.2,0 0,0 -0.1,0 -0.1,0 -0.1,0 -0.2,0 -0.3,0 -0.1,0 -0.2,0 -0.3,0 -0.1,0 -0.1,0 -0.2,0 0,0 0,0 0,0 -0.1,0 -0.1,0 -0.2,0 -0.2,0 -0.3,0 -0.5,-0.1 -0.1,0 -0.2,0 -0.3,0 -0.1,0 -0.2,0 -0.2,0 0,0 -0.1,0 -0.1,0 0,0 -0.1,0 -0.1,0 -0.1,0 -0.2,0 -0.2,0 0,0 0,0 0,0 -0.1,0 -0.1,0 -0.2,0 -0.2,0 -0.3,0 -0.5,-0.1 0,0.5 0,1.1 0,1.6 0.2,-0.1 0.5,-0.2 0.8,-0.2 z" /><path
   style="fill:#00a18a"
   id="path3876-0-2-9"
   d="m 18.4,17.7 c 0.1,0 0.1,0 0.2,0 0.1,0 0.1,0 0.2,0 0.3,0 0.6,0 0.8,0 0.2,0 0.4,0 0.7,0 0.1,0 0.2,0 0.3,0 0.1,0 0.1,0 0.2,0 0,0 0.1,0 0.1,0 0.2,0 0.4,0 0.6,0.1 0.1,0 0.1,0 0.2,0 0.1,0 0.1,0 0.2,0 0,0 0.1,0 0.1,0 0.1,0 0.1,0 0.2,0 0.1,0 0.2,0 0.3,0 0.1,0 0.2,0.1 0.3,0.1 0.2,0 0.4,0 0.6,0.1 0.1,0 0.1,0 0.2,0 0,0 0.1,0 0.1,0 0.1,0 0.2,0 0.3,0 0,0 0.1,0 0.1,0 0.1,-0.3 0.1,-0.6 0.1,-0.6 L 20.7,17 18,16.8 c 0,0 0,0.2 -0.1,0.6 h 0.5 z" /><path
   style="fill:#0f4a47"
   id="path3878-9-0-3"
   d="m 16.2,21.6 c 0,0 0,-0.1 0,0 0,-0.1 0,-0.1 0,-0.2 0,0 0,0 0,-0.1 0,0 0,-0.1 0,-0.1 0,0 -0.1,0 -0.1,0 0,0 0,0.1 0,0.1 0,0 0,0.1 0,0.1 -0.1,0.1 0,0.2 0.1,0.2 0,0 0,0 0,0 0,0 0,0 0,0 z" /><path
   style="fill:#007c6b"
   id="path3880-48-4-1"
   d="m 23.6,18.6 c 0,0.1 0,0.1 0,0.2 0,0.1 0,0.1 0,0.2 0,0.1 -0.1,0.3 -0.1,0.4 0,0.1 0,0.1 -0.1,0.2 0,0.1 0,0.2 0,0.2 0,0.1 0,0.1 0,0.2 0,0.1 0,0.1 0,0.2 0,0.1 0,0.3 0,0.4 0,0 0,0 0,0 0,0 0,0 0,0 0,0 0,0 0,0 0,0 0,0 0,0 0,0 0,0 0,0 0,0.1 0,0.2 0,0.3 0,0.1 0,0.2 0.1,0.3 0,0 0,0.1 0.1,0.1 0,0 0,0.1 0.1,0.1 0,0 0,0 0,0 0,0 0,0 0,0 0,0 0,0.1 0.1,0.1 0,0 0,0 0,0 0,0 0.1,0.1 0.1,0.1 0,0 0,0 0,0 0,0 0.1,0.1 0.1,0.1 0,0 0,0.1 0.1,0.1 0,0 0.1,0.1 0.1,0.1 0,0 0.1,0.1 0.1,0.1 0,0 0,0 0,0 0,0 0,0 0,0 0,0 0,0 0,0.1 0,0 0,0 0,0 0,0 0,0 0.1,0.1 0,0 0,0 0,0 0,0 0,0 0,0 0,0 0,0 0,0.1 0,0 0.1,0 0.1,0.1 0.1,0.1 0.1,0.1 0.1,0.2 0,0.1 0.1,0.1 0.2,0.2 0,0 0,0 0,0 0.2,-0.2 0.4,-0.3 0.4,-0.3 0,0 -1,-1 -1.1,-1.5 -0.2,-0.8 0.4,-3.2 0.4,-3.2 h -0.4 c 0,0.2 -0.1,0.4 -0.2,0.6 -0.2,0 -0.2,0.1 -0.3,0.2 z" /><path
   style="fill:#0d5151"
   id="path3882-6-4-5"
   d="m 16.9,23.1 0.8,0.4 c 0,0 -0.5,0 -0.6,-0.1 -0.1,-0.2 -0.2,-0.3 -0.2,-0.3 z" /><path
   style="fill:#0f4a47"
   id="path3884-0-4-9"
   d="M 24.2,22.2 C 24,22 24,22 24,22 v 0 l -1,0.4 -1.2,0.4 -1.1,0.3 c 0,0.1 3.6,-0.7 3.5,-0.9 z" /><path
   style="fill:#0d5151"
   id="path3886-0-5-3"
   d="m 16.1,21.2 0.1,0.4 c 0,0 0.4,-0.2 0.7,-0.1 0.4,0.1 -0.5,-0.3 -0.5,-0.3 z" /><path
   style="fill:#0f4a47"
   id="path3888-2-8-6"
   d="m 23.7,21.5 -0.2,-0.3 -1,-0.1 h -0.3 l -4.5,0.5 c 0,0 3.7,-0.3 4.7,-0.2 1,0.1 1.3,0.1 1.3,0.1 z" /><path
   style="fill:#0d5151"
   id="path3890-49-6-2"
   d="M 15.6,20.5 17.1,20 c 0,0 0.6,-0.1 0.6,-0.1 0.1,0 0.2,0.1 0.2,0.1 0,0 -0.5,0.1 -0.8,0.2 -0.4,0 -1.5,0.3 -1.5,0.3 z" /><path
   style="fill:#0f4a47"
   id="path3892-7-4-5"
   d="M 23.3,20.3 H 22.2 L 20.9,20.2 18.9,20 18,19.9 c 0,0 2.9,0.6 3.4,0.6 0.4,0 1.9,0 1.9,0 z" /><path
   style="fill:#0d5151"
   id="path3894-5-7-7"
   d="m 15.7,18.3 1,-0.2 0.4,-0.2 0.6,-0.1 c 0,0 -0.5,0.1 -0.8,0.2 -0.4,0.1 -1.2,0.3 -1.2,0.3 z" /><path
   style="fill:#0f4a47"
   id="path3896-0-6-0"
   d="M 23.7,18.2 22.6,18 c 0,0 -1.3,-0.1 -1.7,-0.2 -2.5,-0.1 -2.6,0 -2.6,0 0,0 2.8,0.3 3.8,0.5 1,0.2 1.6,0.4 1.6,0.4 z" /><path
   style="fill:#122f26"
   id="path3898-1-2-3"
   d="m 16.7,17.3 c 0.3,-0.1 0.7,-0.4 1.1,-0.7 0.4,-0.3 0.9,-0.6 1.3,-0.8 0.2,-0.1 0.4,-0.2 0.6,-0.3 0.2,-0.1 0.4,-0.1 0.6,-0.1 0.1,0 0.2,0 0.2,0 0.1,0 0.2,0.1 0.2,0.2 0.1,0.2 0.1,0.5 -0.1,1 -0.1,0.2 -0.1,0.4 -0.2,0.6 -0.1,0 -0.1,0 -0.2,0 0.1,-0.3 0.3,-0.6 0.3,-0.7 0.1,-0.3 0.1,-0.5 0.1,-0.7 0,-0.2 -0.1,-0.3 -0.2,-0.3 0,0 -0.1,0 -0.2,0 -0.3,0 -0.8,0.2 -1.2,0.4 -0.2,0.1 -0.4,0.3 -0.7,0.5 -0.2,0.1 -0.3,0.3 -0.5,0.4 -0.2,0.1 -0.3,0.2 -0.5,0.4 0,0 0,0 0,0 -0.3,0 -0.6,0.1 -0.9,0.2 0.2,-0.1 0.3,-0.1 0.3,-0.1 z m 3.5,-0.1 c -0.7,-0.1 -1.5,-0.1 -1.9,-0.1 -0.2,0 -0.4,0 -0.7,0.1 0.1,-0.1 0.3,-0.2 0.4,-0.3 0.2,-0.1 0.4,-0.3 0.5,-0.4 0.2,-0.2 0.4,-0.4 0.7,-0.5 0.4,-0.2 0.9,-0.4 1.2,-0.4 0.1,0 0.1,0 0.1,0 0.1,0 0.1,0.2 0.1,0.3 0,0.2 0,0.4 -0.1,0.7 0,0 -0.2,0.3 -0.3,0.6 z m -4.6,1 0.1,-0.6 c 0.2,-0.1 2,-0.5 2.6,-0.5 1.2,0 4.4,0.4 5.6,0.6 0,0.1 -0.1,0.3 -0.1,0.5 -0.2,0 -0.5,-0.1 -0.9,-0.1 -1.4,-0.2 -3.6,-0.3 -4.6,-0.3 v 0 c -0.3,0 -0.8,0.1 -1.6,0.3 -0.5,0 -1,0.1 -1.1,0.1 z m 0,2.2 0.2,-2.2 c 0.5,-0.1 2,-0.5 2.6,-0.5 v 0 c 1,0 3.2,0.2 4.6,0.3 0.3,0 0.6,0.1 0.9,0.1 -0.1,0.2 -0.1,0.4 -0.2,0.7 -0.3,0.6 -0.3,0.9 -0.4,1.2 0,0.1 0,0.2 0,0.3 -0.1,0 -0.3,0 -0.5,0 -0.5,0 -0.9,0 -1.4,0 -0.6,0 -1.2,-0.1 -1.8,-0.2 -0.7,-0.1 -1.4,-0.2 -1.9,-0.2 0,0 -0.1,0 -0.1,0 -0.2,0 -0.7,0.1 -1.3,0.3 -0.3,0.1 -0.6,0.2 -0.7,0.2 z m 0.3,1.1 C 15.8,21.3 15.6,21 15.6,20.5 16,20.4 17.2,20 17.7,20 c 0,0 0,0 0.1,0 0.4,0 1.1,0.1 1.8,0.2 0.6,0.1 1.2,0.1 1.8,0.2 0.4,0 0.9,0 1.4,0 0.2,0 0.3,0 0.5,0 0,0.3 0,0.5 0,0.6 0,0.1 0,0.1 0.1,0.2 -0.3,0 -0.9,-0.1 -1.1,-0.1 0,0 -0.1,0 -0.1,0 -0.8,0 -2.2,0.2 -3.4,0.4 -0.4,0.1 -0.8,0.1 -1.1,0.1 0,0 -0.1,0 -0.1,0 -0.3,0 -0.7,-0.1 -1,-0.2 -0.2,-0.1 -0.4,-0.2 -0.6,-0.2 -0.1,0 -0.1,0 -0.1,0.1 0,0 0,0.1 0,0.2 0.2,0.1 0.2,0.2 0.3,0.2 0,0 0,0.1 0.1,0.1 -0.1,0 -0.3,-0.1 -0.4,-0.3 z m 0.2,0 c 0,0.1 0,0.1 0,0 -0.1,0 -0.2,-0.1 -0.2,-0.3 0,0 0,0 0.1,0 0.1,0.1 0.1,0.2 0.1,0.3 z m 7.2,2.3 c -1.3,0.9 -2.4,1.4 -3.2,1.4 -0.2,0 -0.3,0 -0.5,-0.1 -1.3,-0.4 -2.1,-1.3 -2.6,-2 0.1,0.1 0.2,0.1 0.4,0.2 0.3,0.2 0.6,0.2 0.8,0.3 0,0 -0.5,-0.2 -0.8,-0.3 C 17.1,23.2 17,23 16.9,23 16.8,22.9 16.8,22.8 16.7,22.7 16.5,22.4 16.4,22.1 16.3,21.9 l -0.1,-0.2 c 0,0 0,-0.1 0,-0.1 0,-0.1 -0.1,-0.2 -0.1,-0.3 0.1,0 0.3,0.1 0.5,0.1 0.3,0.1 0.7,0.2 1,0.2 0,0 0.1,0 0.1,0 0.3,0 0.7,-0.1 1.1,-0.1 1.2,-0.1 2.6,-0.3 3.4,-0.3 0,0 0.1,0 0.1,0 0.3,0 0.9,0.1 1.2,0.1 0.1,0.2 0.3,0.4 0.5,0.7 -0.2,0.1 -1.1,0.4 -2.2,0.8 -0.7,0.2 -1.8,0.6 -1.8,0.6 0.5,-0.1 1.2,-0.3 1.9,-0.6 1.1,-0.4 2.1,-0.7 2.2,-0.8 0,0 0,0.1 0.1,0.1 0.3,0.3 0.5,0.6 0.6,0.7 -0.5,0.2 -1,0.6 -1.5,1 z m 1.7,-1.4 -0.3,0.3 c -0.2,-0.2 -1.2,-1.2 -1.3,-1.8 -0.1,-0.4 0,-1.1 0.2,-2 0.1,-0.6 0.3,-1.1 0.4,-1.3 l 0.4,0.1 c 0,0.2 -0.2,0.8 -0.3,1.4 -0.2,1 -0.2,1.7 -0.1,1.9 0.1,0.5 0.9,1.3 1,1.4 z m -0.8,-3.7 c 0,0 0.1,0 0.1,-0.1 0.2,-0.1 0.4,-0.3 0.6,-0.4 0.2,-0.1 0.3,-0.2 0.5,-0.4 0.2,-0.1 0.4,-0.3 0.5,-0.4 0.2,-0.2 0.4,-0.4 0.7,-0.5 0.4,-0.2 0.9,-0.4 1.2,-0.4 0.1,0 0.1,0 0.1,0 0.1,0 0.1,0.2 0.1,0.3 0,0.2 0,0.4 -0.1,0.7 -0.1,0.2 -0.3,0.6 -0.5,1 -0.1,0.2 -0.2,0.4 -0.3,0.5 -0.1,0.2 -0.2,0.4 -0.4,0.6 -0.3,0.3 -0.6,0.7 -1.1,1.2 -0.4,0.4 -0.7,0.7 -1,0.9 0,0 0,0 0,0 C 24.4,21.4 24.1,21.1 24.1,21 24,20.7 24,20.1 24.2,19.1 c -0.1,-0.1 0,-0.2 0,-0.4 z m 3.9,-1 c -0.1,0.4 -0.3,0.9 -0.5,1.3 0,0 0,0.1 0,0.1 -0.2,0.5 -0.9,1.3 -1.6,2.1 -0.4,0.4 -0.8,0.7 -1.1,0.9 0,0 0,0 0,0 -0.1,-0.1 -0.1,-0.2 -0.2,-0.3 0,0 0,0 0,0 0.3,-0.2 0.7,-0.5 1.1,-0.9 0.5,-0.5 0.9,-0.9 1.1,-1.2 0.2,-0.3 0.4,-0.5 0.4,-0.7 0,-0.1 0.1,-0.3 0.3,-0.5 0.2,-0.4 0.4,-0.8 0.5,-1 0.1,-0.3 0.1,-0.5 0.1,-0.7 0,-0.2 -0.1,-0.3 -0.2,-0.3 0,0 -0.1,0 -0.2,0 -0.3,0 -0.8,0.2 -1.2,0.4 -0.2,0.1 -0.4,0.3 -0.7,0.5 -0.2,0.1 -0.3,0.3 -0.5,0.4 -0.2,0.1 -0.3,0.2 -0.5,0.4 -0.2,0.2 -0.4,0.3 -0.6,0.4 0,0 0,0 -0.1,0 0,-0.2 0.1,-0.3 0.1,-0.4 0.3,-0.1 0.6,-0.4 0.9,-0.6 0.4,-0.3 0.9,-0.6 1.3,-0.8 0.2,-0.1 0.4,-0.2 0.6,-0.3 0.2,-0.1 0.4,-0.1 0.6,-0.1 0.1,0 0.2,0 0.2,0 0.1,0 0.2,0.1 0.2,0.2 0.2,0.2 0.2,0.5 0,1.1 z m 0.2,-1.1 c -0.1,-0.1 -0.2,-0.2 -0.3,-0.2 -0.1,0 -0.2,0 -0.2,0 -0.2,0 -0.4,0 -0.6,0.1 -0.2,0.1 -0.4,0.2 -0.6,0.3 -0.4,0.2 -0.9,0.5 -1.3,0.8 -0.3,0.2 -0.6,0.4 -0.9,0.6 0.1,-0.2 0.1,-0.4 0.1,-0.4 v 0 L 24,17.7 v 0 c -0.5,-0.1 -1.2,-0.1 -2,-0.2 -0.4,0 -0.9,-0.1 -1.4,-0.1 0.1,-0.2 0.2,-0.4 0.2,-0.6 0.2,-0.5 0.2,-0.9 0.1,-1.1 -0.1,-0.1 -0.2,-0.2 -0.3,-0.2 -0.1,0 -0.2,0 -0.2,0 -0.2,0 -0.4,0 -0.6,0.1 -0.2,0.1 -0.4,0.2 -0.6,0.3 -0.4,0.2 -0.9,0.5 -1.3,0.8 -0.5,0.1 -0.9,0.4 -1.2,0.5 -0.1,0 -0.2,0.1 -0.3,0.2 -0.4,0.1 -0.8,0.2 -0.8,0.2 v 0 l -0.1,0.7 v 0 c 0,0 0,0 0.1,0 l -0.2,2.3 v 0 c 0,0 0,0 0.1,0 0,0.2 0,0.3 0,0.5 0,0.2 0.1,0.4 0.2,0.6 0.2,0.2 0.4,0.4 0.4,0.4 0.1,0.2 0.2,0.5 0.4,0.8 0.3,0.5 0.7,1 1.1,1.4 0.5,0.5 1.2,0.9 1.9,1.1 0.2,0.1 0.3,0.1 0.5,0.1 0.4,0 1,-0.1 1.6,-0.4 0.5,-0.2 1,-0.6 1.6,-1 0.6,-0.4 1,-0.8 1.4,-1.1 v 0 L 25,22.6 v 0 c 0,0 -0.1,-0.1 -0.2,-0.3 0.3,-0.2 0.7,-0.6 1.1,-0.9 0.8,-0.7 1.4,-1.6 1.6,-2.1 0,0 0,-0.1 0,-0.1 0.2,-0.5 0.4,-0.9 0.5,-1.3 0.3,-0.8 0.4,-1.1 0.3,-1.3 z" /><path
   style="fill:#007c6b"
   id="path3854-82-4-6-4"
   d="m 43.7,16.6 c -0.1,-0.1 -0.1,-0.2 -0.3,-0.2 -0.1,0 -0.2,0 -0.2,0 -0.2,0 -0.4,0 -0.6,0.1 -0.2,0.1 -0.4,0.2 -0.6,0.3 -0.4,0.2 -0.9,0.5 -1.3,0.8 -0.3,0.2 -0.7,0.4 -0.9,0.6 0,0.1 -0.1,0.2 -0.1,0.4 0,0 0,0.1 0,0.1 0,0 0.1,0 0.1,-0.1 0.3,-0.2 0.7,-0.5 1.1,-0.8 0.4,-0.3 0.8,-0.7 1.2,-0.9 0.4,-0.2 1.1,-0.5 1.4,-0.4 0.2,0.1 0.2,0.4 0,1 -0.1,0.3 -0.6,1.3 -0.7,1.5 -0.1,0.3 -0.5,0.8 -1.6,1.9 -0.4,0.4 -0.7,0.7 -1,0.9 0,0 0,0 -0.1,0 0,0 0,0.1 0.1,0.1 0,0 0,0.1 0.1,0.1 0,0 0,0.1 0.1,0.1 0,0 0,0 0,0 0,0 0,0 0.1,0 0.3,-0.2 0.7,-0.6 1.1,-0.9 0.8,-0.7 1.4,-1.6 1.6,-2.1 0,0 0,-0.1 0,-0.1 0.2,-0.5 0.4,-0.9 0.5,-1.3 0.1,-0.6 0.1,-0.9 0,-1.1 z" /><path
   style="fill:#0d5151"
   id="path3856-1-0-8-8"
   d="m 41.3,17.5 c -0.3,0.1 -0.5,0.1 -0.8,0.2 -0.3,0.2 -0.6,0.4 -0.8,0.5 0,0.1 -0.1,0.2 -0.1,0.4 0,0 0,0.1 0,0.1 0,0 0.1,0 0.1,-0.1 0.3,-0.2 0.7,-0.5 1.1,-0.8 0.2,0 0.4,-0.2 0.5,-0.3 z" /><path
   style="fill:#0d5151"
   id="path3858-1-8-2-7"
   d="m 43.5,17.3 c 0,0.1 0,0.2 -0.1,0.3 -0.1,0.3 -0.6,1.3 -0.7,1.5 -0.1,0.3 -0.5,0.8 -1.6,1.9 -0.4,0.4 -0.7,0.7 -1,0.9 0,0 0,0 -0.1,0 0,0 0,0.1 0.1,0.1 0,0 0,0.1 0.1,0.1 0,0 0,0.1 0.1,0.1 0,0 0,0 0,0 0,0 0,0 0.1,0 0.3,-0.2 0.7,-0.6 1.1,-0.9 0.8,-0.7 1.4,-1.6 1.6,-2.1 0,0 0,-0.1 0,-0.1 0.2,-0.5 0.4,-0.9 0.5,-1.3 0.1,-0.2 0.1,-0.3 0.1,-0.4 0,-0.1 -0.1,-0.1 -0.2,-0.1 z" /><path
   style="fill:#007c6b"
   id="path3860-1-2-8-8"
   d="m 32,17.4 c 0.1,0 0.1,0 0.1,0 0,0 0.1,0 0.1,-0.1 0.1,0 0.1,0 0.2,0 0.1,0 0.1,0 0.1,0 0,0 0.1,0 0.1,-0.1 0,0 0.1,0 0.1,0 0,0 0.1,0 0.1,0 0,0 0,0 0,0 0.2,-0.1 0.3,-0.3 0.5,-0.4 0.4,-0.3 0.8,-0.7 1.2,-0.9 0.4,-0.2 1.1,-0.5 1.4,-0.4 0.2,0.1 0.2,0.4 0,1 0,0.1 -0.2,0.5 -0.4,0.8 0.1,0 0.2,0 0.3,0 0.1,-0.2 0.2,-0.4 0.2,-0.6 0.2,-0.5 0.2,-0.9 0.1,-1.1 -0.1,-0.1 -0.1,-0.2 -0.3,-0.2 -0.1,0 -0.2,0 -0.2,0 -0.2,0 -0.4,0 -0.6,0.1 -0.2,0.1 -0.4,0.2 -0.6,0.3 -0.4,0.2 -0.9,0.5 -1.3,0.8 -0.2,0.2 -0.6,0.5 -0.9,0.6 -0.1,0.1 -0.2,0.2 -0.2,0.2 -0.1,0 -0.1,0 0,0 z" /><path
   style="fill:#0d5151"
   id="path3862-2-7-9-7"
   d="m 33.3,16.8 c -0.1,0 -0.2,0.1 -0.4,0.1 -0.1,0 -0.2,0.1 -0.3,0.1 -0.2,0.1 -0.3,0.2 -0.4,0.2 -0.1,0.1 -0.2,0.1 -0.3,0.2 0,0 0,0 0.1,0 0.1,0 0.1,0 0.1,0 0,0 0.1,0 0.1,-0.1 0.1,0 0.1,0 0.2,0 0.1,0 0.1,0 0.1,0 0,0 0.1,0 0.1,-0.1 0,0 0.1,0 0.1,0 0,0 0.1,0 0.1,0 0,0 0,0 0,0 0.2,-0.1 0.3,-0.3 0.5,-0.4 0,0 0.1,-0.1 0.1,-0.1 0.1,0.1 0,0.1 -0.1,0.1 z" /><path
   style="fill:#0d5151"
   id="path3864-4-1-6-5"
   d="m 36.1,16.1 c 0,0.1 -0.1,0.3 -0.1,0.4 0,0.1 -0.2,0.5 -0.4,0.8 0.1,0 0.2,0 0.3,0 0.1,-0.2 0.2,-0.4 0.2,-0.6 0.1,-0.2 0.1,-0.4 0.2,-0.6 0,-0.1 -0.1,0 -0.2,0 z" /><path
   style="fill:#34b1b5"
   id="path3866-7-0-3-0"
   d="m 40.2,22.8 c 0.2,-0.2 0.4,-0.3 0.4,-0.3 l -0.3,-0.3 c -0.3,-0.3 -0.7,-0.8 -0.8,-1 -0.2,-0.4 0.1,-1.9 0.3,-2.7 0,0 0,0 0,0 l 0.1,-0.6 c 0,0 -0.2,0 -0.5,-0.1 v 0 0 c -1.2,-0.2 -4.4,-0.5 -5.6,-0.6 -0.6,0 -2.1,0.4 -2.5,0.5 v 0 c -0.1,0 -0.1,0 -0.1,0 l -0.1,0.7 c 0,0 0,0 0.1,0 L 31,20.7 c 0,0 0,0 0.1,0 0,1.1 0.7,1.5 0.7,1.5 v 0 c 0.4,1 1.3,2.6 3.3,3.3 1.5,0.2 4.1,-1.9 5.1,-2.7 z m -8.8,-1.5 c 0,0 0.1,-0.1 0.1,-0.1 0,0.1 0.1,0.3 0.1,0.5 0.1,0 -0.3,-0.2 -0.2,-0.4 z" /><path
   style="fill:#126653"
   id="path3868-1-0-6-0"
   d="m 40.6,22.5 c 0,0 -1.8,1.6 -2.7,2 -0.2,0.1 -0.5,0.3 -0.8,0.4 -0.5,0.2 -1.1,0.4 -1.3,0.4 -3.3,-0.6 -1.9,-8.2 -1.9,-8.2 l 2.5,0.2 3.4,0.4 c 0,0 -0.6,2.4 -0.4,3.2 0.1,0.6 1.2,1.6 1.2,1.6 z" /><path
   style="fill:#008c79"
   id="path3870-6-3-0-9"
   d="m 40.6,22.4 c 0,0 -1.9,1.6 -2.8,2 -0.2,0.1 -0.5,0.3 -0.8,0.4 -0.5,0.2 -1.2,0.4 -1.4,0.4 C 32.2,24.6 33.7,17 33.7,17 l 2.6,0.2 3.5,0.4 c 0,0 -0.6,2.4 -0.4,3.2 0.1,0.7 1.2,1.6 1.2,1.6 z" /><path
   style="fill:#056b5c"
   id="path3872-4-9-0-0"
   d="m 39.4,20.9 c 0,0 0,-0.1 0,-0.1 -0.2,0 -0.3,0 -0.5,0 -1,0 -2,0 -2.9,0 -0.9,0 -1.8,0 -2.6,0 0,2 0.5,4.1 2.2,4.4 0.2,0 0.8,-0.2 1.4,-0.4 0.3,-0.1 0.6,-0.3 0.8,-0.4 0.9,-0.4 2.8,-2 2.8,-2 0,0 -1.1,-0.9 -1.2,-1.5 z" /><path
   style="fill:#007c6b"
   id="path3874-9-8-4-8"
   d="m 34.2,21.5 c 0.1,0 0.3,0 0.4,0 0.1,0 0.3,0 0.4,-0.1 0.1,0 0.2,0 0.3,-0.1 0.1,0 0.2,0 0.3,0 0.1,0 0.2,0 0.3,0 0.1,0 0.1,0 0.2,0 0.1,0 0.1,0 0.2,0 0.1,0 0.2,0 0.3,0 0.1,0 0.1,0 0.2,0 0,0 0.1,0 0.1,0 0.2,0 0.4,0 0.6,0 0.1,0 0.2,0 0.3,0 0.1,0 0.2,0 0.3,0 0.1,0 0.2,0 0.3,0 0.1,0 0.2,0 0.3,0 0.1,0 0.2,0 0.3,0 0.1,0 0.2,0 0.3,0 0,0 0,0 0.1,0 -0.1,-0.1 -0.1,-0.2 -0.1,-0.3 0,-0.2 0,-0.4 0,-0.7 0,0 0,0 0,0 -0.1,0 -0.3,0 -0.4,0 -0.1,0 -0.1,0 -0.2,0 -0.1,0 -0.1,0 -0.2,0 -0.2,0 -0.3,0 -0.5,0 -0.2,0 -0.4,0 -0.6,0 -0.2,0 -0.4,0 -0.6,0 -0.1,0 -0.1,0 -0.2,0 0,0 -0.1,0 -0.1,0 -0.1,0 -0.2,0 -0.3,0 -0.1,0 -0.2,0 -0.3,0 -0.1,0 -0.1,0 -0.2,0 0,0 0,0 0,0 -0.1,0 -0.1,0 -0.2,0 -0.2,0 -0.3,0 -0.5,-0.1 -0.1,0 -0.2,0 -0.3,0 -0.1,0 -0.2,0 -0.2,0 0,0 -0.1,0 -0.1,0 0,0 -0.1,0 -0.1,0 -0.1,0 -0.2,0 -0.2,0 0,0 0,0 0,0 -0.1,0 -0.1,0 -0.2,0 -0.2,0 -0.3,0 -0.5,-0.1 0,0.5 0,1.1 0,1.6 0.2,-0.1 0.5,-0.2 0.8,-0.2 z" /><path
   style="fill:#00a18a"
   id="path3876-0-2-9-4"
   d="m 33.9,17.7 c 0.1,0 0.1,0 0.2,0 0.1,0 0.1,0 0.2,0 0.3,0 0.6,0 0.8,0 0.2,0 0.4,0 0.7,0 0.1,0 0.2,0 0.3,0 0.1,0 0.1,0 0.2,0 0,0 0.1,0 0.1,0 0.2,0 0.4,0 0.6,0.1 0.1,0 0.1,0 0.2,0 0.1,0 0.1,0 0.2,0 0,0 0.1,0 0.1,0 0.1,0 0.1,0 0.2,0 0.1,0 0.2,0 0.3,0 0.1,0 0.2,0.1 0.3,0.1 0.2,0 0.4,0 0.6,0.1 0.1,0 0.1,0 0.2,0 0,0 0.1,0 0.1,0 0.1,0 0.2,0 0.3,0 0,0 0.1,0 0.1,0 0.1,-0.3 0.1,-0.6 0.1,-0.6 L 36.2,17 33.5,16.8 c 0,0 0,0.2 -0.1,0.6 h 0.5 z" /><path
   style="fill:#0f4a47"
   id="path3878-9-0-3-9"
   d="m 31.7,21.6 c 0,0 0,-0.1 0,0 0,-0.1 0,-0.1 0,-0.2 0,0 0,0 0,-0.1 0,0 0,-0.1 0,-0.1 0,0 -0.1,0 -0.1,0 0,0 0,0.1 0,0.1 0,0 0,0.1 0,0.1 -0.1,0.1 0,0.2 0.1,0.2 0,0 0,0 0,0 0,0 0,0 0,0 z" /><path
   style="fill:#007c6b"
   id="path3880-48-4-1-9"
   d="m 39.1,18.6 c 0,0.1 0,0.1 0,0.2 0,0.1 0,0.1 0,0.2 0,0.1 -0.1,0.3 -0.1,0.4 0,0.1 0,0.1 -0.1,0.2 0,0.1 0,0.2 0,0.2 0,0.1 0,0.1 0,0.2 0,0.1 0,0.1 0,0.2 0,0.1 0,0.3 0,0.4 0,0 0,0 0,0 0,0 0,0 0,0 0,0 0,0 0,0 0,0 0,0 0,0 0,0 0,0 0,0 0,0.1 0,0.2 0,0.3 0,0.1 0,0.2 0.1,0.3 0,0 0,0.1 0.1,0.1 0,0 0,0.1 0.1,0.1 0,0 0,0 0,0 0,0 0,0 0,0 0,0 0,0.1 0.1,0.1 0,0 0,0 0,0 0,0 0.1,0.1 0.1,0.1 0,0 0,0 0,0 0,0 0.1,0.1 0.1,0.1 0,0 0,0.1 0.1,0.1 0,0 0.1,0.1 0.1,0.1 0,0 0.1,0.1 0.1,0.1 0,0 0,0 0,0 0,0 0,0 0,0 0,0 0,0 0,0.1 0,0 0,0 0,0 0,0 0,0 0.1,0.1 0,0 0,0 0,0 0,0 0,0 0,0 0,0 0,0 0,0.1 0,0 0.1,0 0.1,0.1 0.1,0.1 0.1,0.1 0.1,0.2 0,0.1 0.1,0.1 0.2,0.2 0,0 0,0 0,0 0.2,-0.2 0.4,-0.3 0.4,-0.3 0,0 -1,-1 -1.1,-1.5 -0.2,-0.8 0.4,-3.2 0.4,-3.2 h -0.4 c 0,0.2 -0.1,0.4 -0.2,0.6 -0.2,0 -0.2,0.1 -0.3,0.2 z" /><path
   style="fill:#0d5151"
   id="path3882-6-4-5-9"
   d="m 32.4,23.1 0.8,0.4 c 0,0 -0.5,0 -0.6,-0.1 -0.1,-0.2 -0.2,-0.3 -0.2,-0.3 z" /><path
   style="fill:#0f4a47"
   id="path3884-0-4-9-7"
   d="M 39.7,22.2 C 39.5,22 39.5,22 39.5,22 v 0 l -1,0.4 -1.2,0.4 -1.1,0.3 c 0,0.1 3.6,-0.7 3.5,-0.9 z" /><path
   style="fill:#0d5151"
   id="path3886-0-5-3-9"
   d="m 31.6,21.2 0.1,0.4 c 0,0 0.4,-0.2 0.7,-0.1 0.4,0.1 -0.5,-0.3 -0.5,-0.3 z" /><path
   style="fill:#0f4a47"
   id="path3888-2-8-6-6"
   d="M 39.2,21.5 39,21.2 38,21.1 h -0.3 l -4.5,0.5 c 0,0 3.7,-0.3 4.7,-0.2 1,0.1 1.3,0.1 1.3,0.1 z" /><path
   style="fill:#0d5151"
   id="path3890-49-6-2-1"
   d="M 31.1,20.5 32.6,20 c 0,0 0.6,-0.1 0.6,-0.1 0.1,0 0.2,0.1 0.2,0.1 0,0 -0.5,0.1 -0.8,0.2 -0.4,0 -1.5,0.3 -1.5,0.3 z" /><path
   style="fill:#0f4a47"
   id="path3892-7-4-5-6"
   d="m 38.8,20.3 h -1.1 l -1.3,-0.1 -2,-0.2 -0.9,-0.1 c 0,0 2.9,0.6 3.4,0.6 0.4,0 1.9,0 1.9,0 z" /><path
   style="fill:#0d5151"
   id="path3894-5-7-7-8"
   d="m 31.2,18.3 1,-0.2 0.4,-0.2 0.6,-0.1 c 0,0 -0.5,0.1 -0.8,0.2 -0.4,0.1 -1.2,0.3 -1.2,0.3 z" /><path
   style="fill:#0f4a47"
   id="path3896-0-6-0-3"
   d="M 39.2,18.2 38.1,18 c 0,0 -1.3,-0.1 -1.7,-0.2 -2.5,-0.1 -2.6,0 -2.6,0 0,0 2.8,0.3 3.8,0.5 1,0.2 1.6,0.4 1.6,0.4 z" /><path
   style="fill:#122f26"
   id="path3898-1-2-3-9"
   d="m 32.2,17.3 c 0.3,-0.1 0.7,-0.4 1.1,-0.7 0.4,-0.3 0.9,-0.6 1.3,-0.8 0.2,-0.1 0.4,-0.2 0.6,-0.3 0.2,-0.1 0.4,-0.1 0.6,-0.1 0.1,0 0.2,0 0.2,0 0.1,0 0.2,0.1 0.2,0.2 0.1,0.2 0.1,0.5 -0.1,1 -0.1,0.2 -0.1,0.4 -0.2,0.6 -0.1,0 -0.1,0 -0.2,0 0.1,-0.3 0.3,-0.6 0.3,-0.7 0.1,-0.3 0.1,-0.5 0.1,-0.7 0,-0.2 -0.1,-0.3 -0.2,-0.3 0,0 -0.1,0 -0.2,0 -0.3,0 -0.8,0.2 -1.2,0.4 -0.2,0.1 -0.4,0.3 -0.7,0.5 -0.2,0.1 -0.3,0.3 -0.5,0.4 -0.2,0.1 -0.3,0.2 -0.5,0.4 0,0 0,0 0,0 -0.3,0 -0.6,0.1 -0.9,0.2 0.2,-0.1 0.3,-0.1 0.3,-0.1 z m 3.5,-0.1 c -0.7,-0.1 -1.5,-0.1 -1.9,-0.1 -0.2,0 -0.4,0 -0.7,0.1 0.1,-0.1 0.3,-0.2 0.4,-0.3 0.2,-0.1 0.4,-0.3 0.5,-0.4 0.2,-0.2 0.4,-0.4 0.7,-0.5 0.4,-0.2 0.9,-0.4 1.2,-0.4 0.1,0 0.1,0 0.1,0 0.1,0 0.1,0.2 0.1,0.3 0,0.2 0,0.4 -0.1,0.7 0,0 -0.2,0.3 -0.3,0.6 z m -4.6,1 0.1,-0.6 c 0.2,-0.1 2,-0.5 2.6,-0.5 1.2,0 4.4,0.4 5.6,0.6 0,0.1 -0.1,0.3 -0.1,0.5 -0.2,0 -0.5,-0.1 -0.9,-0.1 -1.4,-0.2 -3.6,-0.3 -4.6,-0.3 v 0 c -0.3,0 -0.8,0.1 -1.6,0.3 -0.5,0 -1,0.1 -1.1,0.1 z m 0,2.2 0.2,-2.2 c 0.5,-0.1 2,-0.5 2.6,-0.5 v 0 c 1,0 3.2,0.2 4.6,0.3 0.3,0 0.6,0.1 0.9,0.1 -0.1,0.2 -0.1,0.4 -0.2,0.7 -0.3,0.6 -0.3,0.9 -0.4,1.2 0,0.1 0,0.2 0,0.3 -0.1,0 -0.3,0 -0.5,0 -0.5,0 -0.9,0 -1.4,0 -0.6,0 -1.2,-0.1 -1.8,-0.2 -0.7,-0.1 -1.4,-0.2 -1.9,-0.2 0,0 -0.1,0 -0.1,0 -0.2,0 -0.7,0.1 -1.3,0.3 -0.3,0.1 -0.6,0.2 -0.7,0.2 z m 0.3,1.1 c -0.1,-0.2 -0.3,-0.5 -0.3,-1 0.4,-0.1 1.6,-0.5 2.1,-0.5 0,0 0,0 0.1,0 0.4,0 1.1,0.1 1.8,0.2 0.6,0.1 1.2,0.1 1.8,0.2 0.4,0 0.9,0 1.4,0 0.2,0 0.3,0 0.5,0 0,0.3 0,0.5 0,0.6 0,0.1 0,0.1 0.1,0.2 -0.3,0 -0.9,-0.1 -1.1,-0.1 0,0 -0.1,0 -0.1,0 -0.8,0 -2.2,0.2 -3.4,0.4 -0.4,0.1 -0.8,0.1 -1.1,0.1 0,0 -0.1,0 -0.1,0 -0.3,0 -0.7,-0.1 -1,-0.2 -0.2,-0.1 -0.4,-0.2 -0.6,-0.2 -0.1,0 -0.1,0 -0.1,0.1 0,0 0,0.1 0,0.2 0.2,0.1 0.2,0.2 0.3,0.2 0,0 0,0.1 0.1,0.1 -0.1,0 -0.3,-0.1 -0.4,-0.3 z m 0.2,0 c 0,0.1 0,0.1 0,0 -0.1,0 -0.2,-0.1 -0.2,-0.3 0,0 0,0 0.1,0 0.1,0.1 0.1,0.2 0.1,0.3 z m 7.2,2.3 c -1.3,0.9 -2.4,1.4 -3.2,1.4 -0.2,0 -0.3,0 -0.5,-0.1 -1.3,-0.4 -2.1,-1.3 -2.6,-2 0.1,0.1 0.2,0.1 0.4,0.2 0.3,0.2 0.6,0.2 0.8,0.3 0,0 -0.5,-0.2 -0.8,-0.3 C 32.6,23.2 32.5,23 32.4,23 32.3,22.9 32.3,22.8 32.2,22.7 32,22.4 31.9,22.1 31.8,21.9 l -0.1,-0.2 c 0,0 0,-0.1 0,-0.1 0,-0.1 -0.1,-0.2 -0.1,-0.3 0.1,0 0.3,0.1 0.5,0.1 0.3,0.1 0.7,0.2 1,0.2 0,0 0.1,0 0.1,0 0.3,0 0.7,-0.1 1.1,-0.1 1.2,-0.1 2.6,-0.3 3.4,-0.3 0,0 0.1,0 0.1,0 0.3,0 0.9,0.1 1.2,0.1 0.1,0.2 0.3,0.4 0.5,0.7 -0.2,0.1 -1.1,0.4 -2.2,0.8 -0.7,0.2 -1.8,0.6 -1.8,0.6 0.5,-0.1 1.2,-0.3 1.9,-0.6 1.1,-0.4 2.1,-0.7 2.2,-0.8 0,0 0,0.1 0.1,0.1 0.3,0.3 0.5,0.6 0.6,0.7 -0.5,0.2 -1,0.6 -1.5,1 z m 1.7,-1.4 -0.3,0.3 C 40,22.5 39,21.5 38.9,20.9 c -0.1,-0.4 0,-1.1 0.2,-2 0.1,-0.6 0.3,-1.1 0.4,-1.3 l 0.4,0.1 c 0,0.2 -0.2,0.8 -0.3,1.4 -0.2,1 -0.2,1.7 -0.1,1.9 0.1,0.5 0.9,1.3 1,1.4 z m -0.8,-3.7 c 0,0 0.1,0 0.1,-0.1 0.2,-0.1 0.4,-0.3 0.6,-0.4 0.2,-0.1 0.3,-0.2 0.5,-0.4 0.2,-0.1 0.4,-0.3 0.5,-0.4 0.2,-0.2 0.4,-0.4 0.7,-0.5 0.4,-0.2 0.9,-0.4 1.2,-0.4 0.1,0 0.1,0 0.1,0 0.1,0 0.1,0.2 0.1,0.3 0,0.2 0,0.4 -0.1,0.7 -0.1,0.2 -0.3,0.6 -0.5,1 -0.1,0.2 -0.2,0.4 -0.3,0.5 -0.1,0.2 -0.2,0.4 -0.4,0.6 -0.3,0.3 -0.6,0.7 -1.1,1.2 -0.4,0.4 -0.7,0.7 -1,0.9 0,0 0,0 0,0 -0.2,-0.3 -0.5,-0.6 -0.5,-0.7 -0.1,-0.3 -0.1,-0.9 0.1,-1.9 -0.1,-0.1 0,-0.2 0,-0.4 z m 3.9,-1 c -0.1,0.4 -0.3,0.9 -0.5,1.3 0,0 0,0.1 0,0.1 -0.2,0.5 -0.9,1.3 -1.6,2.1 -0.4,0.4 -0.8,0.7 -1.1,0.9 0,0 0,0 0,0 -0.1,-0.1 -0.1,-0.2 -0.2,-0.3 0,0 0,0 0,0 0.3,-0.2 0.7,-0.5 1.1,-0.9 0.5,-0.5 0.9,-0.9 1.1,-1.2 0.2,-0.3 0.4,-0.5 0.4,-0.7 0,-0.1 0.1,-0.3 0.3,-0.5 0.2,-0.4 0.4,-0.8 0.5,-1 0.1,-0.3 0.1,-0.5 0.1,-0.7 0,-0.2 -0.1,-0.3 -0.2,-0.3 0,0 -0.1,0 -0.2,0 -0.3,0 -0.8,0.2 -1.2,0.4 -0.2,0.1 -0.4,0.3 -0.7,0.5 -0.2,0.1 -0.3,0.3 -0.5,0.4 -0.2,0.1 -0.3,0.2 -0.5,0.4 -0.2,0.2 -0.4,0.3 -0.6,0.4 0,0 0,0 -0.1,0 0,-0.2 0.1,-0.3 0.1,-0.4 0.3,-0.1 0.6,-0.4 0.9,-0.6 0.4,-0.3 0.9,-0.6 1.3,-0.8 0.2,-0.1 0.4,-0.2 0.6,-0.3 0.2,-0.1 0.4,-0.1 0.6,-0.1 0.1,0 0.2,0 0.2,0 0.1,0 0.2,0.1 0.2,0.2 0.2,0.2 0.2,0.5 0,1.1 z m 0.2,-1.1 c -0.1,-0.1 -0.2,-0.2 -0.3,-0.2 -0.1,0 -0.2,0 -0.2,0 -0.2,0 -0.4,0 -0.6,0.1 -0.2,0.1 -0.4,0.2 -0.6,0.3 -0.4,0.2 -0.9,0.5 -1.3,0.8 -0.3,0.2 -0.6,0.4 -0.9,0.6 C 40,18 40,17.8 40,17.8 v 0 l -0.5,-0.1 v 0 c -0.5,-0.1 -1.2,-0.1 -2,-0.2 -0.4,0 -0.9,-0.1 -1.4,-0.1 0.1,-0.2 0.2,-0.4 0.2,-0.6 0.2,-0.5 0.2,-0.9 0.1,-1.1 -0.1,-0.1 -0.2,-0.2 -0.3,-0.2 -0.1,0 -0.2,0 -0.2,0 -0.2,0 -0.4,0 -0.6,0.1 -0.2,0.1 -0.4,0.2 -0.6,0.3 -0.4,0.2 -0.9,0.5 -1.3,0.8 -0.5,0.1 -0.9,0.4 -1.2,0.5 -0.1,0 -0.2,0.1 -0.3,0.2 -0.4,0.1 -0.8,0.2 -0.8,0.2 v 0 L 31,18.3 v 0 c 0,0 0,0 0.1,0 l -0.2,2.3 v 0 c 0,0 0,0 0.1,0 0,0.2 0,0.3 0,0.5 0,0.2 0.1,0.4 0.2,0.6 0.2,0.2 0.4,0.4 0.4,0.4 0.1,0.2 0.2,0.5 0.4,0.8 0.3,0.5 0.7,1 1.1,1.4 0.5,0.5 1.2,0.9 1.9,1.1 0.2,0.1 0.3,0.1 0.5,0.1 0.4,0 1,-0.1 1.6,-0.4 0.5,-0.2 1,-0.6 1.6,-1 0.6,-0.4 1,-0.8 1.4,-1.1 v 0 l 0.4,-0.4 v 0 c 0,0 -0.1,-0.1 -0.2,-0.3 0.3,-0.2 0.7,-0.6 1.1,-0.9 0.8,-0.7 1.4,-1.6 1.6,-2.1 0,0 0,-0.1 0,-0.1 0.2,-0.5 0.4,-0.9 0.5,-1.3 0.3,-0.8 0.4,-1.1 0.3,-1.3 z" /><path
   style="fill:#007c6b"
   id="path3854-82-4-6-4-2"
   d="m 28.2,32.1 c -0.1,-0.1 -0.1,-0.2 -0.3,-0.2 -0.1,0 -0.2,0 -0.2,0 -0.2,0 -0.4,0 -0.6,0.1 -0.2,0.1 -0.4,0.2 -0.6,0.3 -0.4,0.2 -0.9,0.5 -1.3,0.8 -0.3,0.2 -0.7,0.4 -0.9,0.6 0,0.1 -0.1,0.2 -0.1,0.4 0,0 0,0.1 0,0.1 0,0 0.1,0 0.1,-0.1 0.3,-0.2 0.7,-0.5 1.1,-0.8 0.4,-0.3 0.8,-0.7 1.2,-0.9 0.4,-0.2 1.1,-0.5 1.4,-0.4 0.2,0.1 0.2,0.4 0,1 -0.1,0.3 -0.6,1.3 -0.7,1.5 -0.1,0.3 -0.5,0.8 -1.6,1.9 -0.4,0.4 -0.7,0.7 -1,0.9 0,0 0,0 -0.1,0 0,0 0,0.1 0.1,0.1 0,0 0,0.1 0.1,0.1 0,0 0,0.1 0.1,0.1 0,0 0,0 0,0 0,0 0,0 0.1,0 0.3,-0.2 0.7,-0.6 1.1,-0.9 0.8,-0.7 1.4,-1.6 1.6,-2.1 0,0 0,-0.1 0,-0.1 0.2,-0.5 0.4,-0.9 0.5,-1.3 0.1,-0.6 0.1,-0.9 0,-1.1 z" /><path
   style="fill:#0d5151"
   id="path3856-1-0-8-8-1"
   d="m 25.8,33 c -0.3,0.1 -0.5,0.1 -0.8,0.2 -0.3,0.2 -0.6,0.4 -0.8,0.5 0,0.1 -0.1,0.2 -0.1,0.4 0,0 0,0.1 0,0.1 0,0 0.1,0 0.1,-0.1 0.3,-0.2 0.7,-0.5 1.1,-0.8 0.2,0 0.4,-0.2 0.5,-0.3 z" /><path
   style="fill:#0d5151"
   id="path3858-1-8-2-7-0"
   d="m 28,32.8 c 0,0.1 0,0.2 -0.1,0.3 -0.1,0.3 -0.6,1.3 -0.7,1.5 -0.1,0.3 -0.5,0.8 -1.6,1.9 -0.4,0.4 -0.7,0.7 -1,0.9 0,0 0,0 -0.1,0 0,0 0,0.1 0.1,0.1 0,0 0,0.1 0.1,0.1 0,0 0,0.1 0.1,0.1 0,0 0,0 0,0 0,0 0,0 0.1,0 0.3,-0.2 0.7,-0.6 1.1,-0.9 0.8,-0.7 1.4,-1.6 1.6,-2.1 0,0 0,-0.1 0,-0.1 0.2,-0.5 0.4,-0.9 0.5,-1.3 0.1,-0.2 0.1,-0.3 0.1,-0.4 0,-0.1 -0.1,-0.1 -0.2,-0.1 z" /><path
   style="fill:#007c6b"
   id="path3860-1-2-8-8-0"
   d="m 16.5,32.9 c 0.1,0 0.1,0 0.1,0 0,0 0.1,0 0.1,-0.1 0.1,0 0.1,0 0.2,0 0.1,0 0.1,0 0.1,0 0,0 0.1,0 0.1,-0.1 0,0 0.1,0 0.1,0 0,0 0.1,0 0.1,0 0,0 0,0 0,0 0.2,-0.1 0.3,-0.3 0.5,-0.4 0.4,-0.3 0.8,-0.7 1.2,-0.9 0.4,-0.2 1.1,-0.5 1.4,-0.4 0.2,0.1 0.2,0.4 0,1 0,0.1 -0.2,0.5 -0.4,0.8 0.1,0 0.2,0 0.3,0 0.1,-0.2 0.2,-0.4 0.2,-0.6 0.2,-0.5 0.2,-0.9 0.1,-1.1 -0.1,-0.1 -0.1,-0.2 -0.3,-0.2 -0.1,0 -0.2,0 -0.2,0 -0.2,0 -0.4,0 -0.6,0.1 -0.2,0.1 -0.4,0.2 -0.6,0.3 -0.4,0.2 -0.9,0.5 -1.3,0.8 -0.2,0.2 -0.6,0.5 -0.9,0.6 -0.1,0.1 -0.2,0.2 -0.2,0.2 -0.1,0 -0.1,0 0,0 z" /><path
   style="fill:#0d5151"
   id="path3862-2-7-9-7-8"
   d="m 17.8,32.3 c -0.1,0 -0.2,0.1 -0.4,0.1 -0.1,0 -0.2,0.1 -0.3,0.1 -0.2,0.1 -0.3,0.2 -0.4,0.2 -0.1,0.1 -0.2,0.1 -0.3,0.2 0,0 0,0 0.1,0 0.1,0 0.1,0 0.1,0 0,0 0.1,0 0.1,-0.1 0.1,0 0.1,0 0.2,0 0.1,0 0.1,0 0.1,0 0,0 0.1,0 0.1,-0.1 0,0 0.1,0 0.1,0 0,0 0.1,0 0.1,0 0,0 0,0 0,0 0.2,-0.1 0.3,-0.3 0.5,-0.4 0,0 0.1,-0.1 0.1,-0.1 0.1,0.1 0,0.1 -0.1,0.1 z" /><path
   style="fill:#0d5151"
   id="path3864-4-1-6-5-2"
   d="m 20.6,31.6 c 0,0.1 -0.1,0.3 -0.1,0.4 0,0.1 -0.2,0.5 -0.4,0.8 0.1,0 0.2,0 0.3,0 0.1,-0.2 0.2,-0.4 0.2,-0.6 0.1,-0.2 0.1,-0.4 0.2,-0.6 0,-0.1 -0.1,0 -0.2,0 z" /><path
   style="fill:#34b1b5"
   id="path3866-7-0-3-0-9"
   d="M 24.7,38.3 C 24.9,38.1 25.1,38 25.1,38 l -0.3,-0.3 c -0.3,-0.3 -0.7,-0.8 -0.8,-1 -0.2,-0.4 0.1,-1.9 0.3,-2.7 0,0 0,0 0,0 l 0.1,-0.6 c 0,0 -0.2,0 -0.5,-0.1 v 0 0 c -1.2,-0.2 -4.4,-0.5 -5.6,-0.6 -0.6,0 -2.1,0.4 -2.5,0.5 v 0 c -0.1,0 -0.1,0 -0.1,0 l -0.1,0.7 c 0,0 0,0 0.1,0 l -0.2,2.3 c 0,0 0,0 0.1,0 0,1.1 0.7,1.5 0.7,1.5 v 0 c 0.4,1 1.3,2.6 3.3,3.3 1.5,0.2 4.1,-1.9 5.1,-2.7 z m -8.8,-1.5 c 0,0 0.1,-0.1 0.1,-0.1 0,0.1 0.1,0.3 0.1,0.5 0.1,0 -0.3,-0.2 -0.2,-0.4 z" /><path
   style="fill:#126653"
   id="path3868-1-0-6-0-4"
   d="m 25.1,38 c 0,0 -1.8,1.6 -2.7,2 -0.2,0.1 -0.5,0.3 -0.8,0.4 -0.5,0.2 -1.1,0.4 -1.3,0.4 -3.3,-0.6 -1.9,-8.2 -1.9,-8.2 l 2.5,0.2 3.4,0.4 c 0,0 -0.6,2.4 -0.4,3.2 0.1,0.6 1.2,1.6 1.2,1.6 z" /><path
   style="fill:#008c79"
   id="path3870-6-3-0-9-9"
   d="m 25.1,37.9 c 0,0 -1.9,1.6 -2.8,2 -0.2,0.1 -0.5,0.3 -0.8,0.4 -0.5,0.2 -1.2,0.4 -1.4,0.4 -3.4,-0.6 -1.9,-8.2 -1.9,-8.2 l 2.6,0.2 3.5,0.4 c 0,0 -0.6,2.4 -0.4,3.2 0.1,0.7 1.2,1.6 1.2,1.6 z" /><path
   style="fill:#056b5c"
   id="path3872-4-9-0-0-5"
   d="m 23.9,36.4 c 0,0 0,-0.1 0,-0.1 -0.2,0 -0.3,0 -0.5,0 -1,0 -2,0 -2.9,0 -0.9,0 -1.8,0 -2.6,0 0,2 0.5,4.1 2.2,4.4 0.2,0 0.8,-0.2 1.4,-0.4 0.3,-0.1 0.6,-0.3 0.8,-0.4 0.9,-0.4 2.8,-2 2.8,-2 0,0 -1.1,-0.9 -1.2,-1.5 z" /><path
   style="fill:#007c6b"
   id="path3874-9-8-4-8-3"
   d="m 18.7,37 c 0.1,0 0.3,0 0.4,0 0.1,0 0.3,0 0.4,-0.1 0.1,0 0.2,0 0.3,-0.1 0.1,0 0.2,0 0.3,0 0.1,0 0.2,0 0.3,0 0.1,0 0.1,0 0.2,0 0.1,0 0.1,0 0.2,0 0.1,0 0.2,0 0.3,0 0.1,0 0.1,0 0.2,0 0,0 0.1,0 0.1,0 0.2,0 0.4,0 0.6,0 0.1,0 0.2,0 0.3,0 0.1,0 0.2,0 0.3,0 0.1,0 0.2,0 0.3,0 0.1,0 0.2,0 0.3,0 0.1,0 0.2,0 0.3,0 0.1,0 0.2,0 0.3,0 0,0 0,0 0.1,0 -0.1,-0.1 -0.1,-0.2 -0.1,-0.3 0,-0.2 0,-0.4 0,-0.7 0,0 0,0 0,0 -0.1,0 -0.3,0 -0.4,0 -0.1,0 -0.1,0 -0.2,0 -0.1,0 -0.1,0 -0.2,0 -0.2,0 -0.3,0 -0.5,0 -0.2,0 -0.4,0 -0.6,0 -0.2,0 -0.4,0 -0.6,0 -0.1,0 -0.1,0 -0.2,0 0,0 -0.1,0 -0.1,0 -0.1,0 -0.2,0 -0.3,0 -0.1,0 -0.2,0 -0.3,0 -0.1,0 -0.1,0 -0.2,0 0,0 0,0 0,0 -0.1,0 -0.1,0 -0.2,0 -0.2,0 -0.3,0 -0.5,-0.1 -0.1,0 -0.2,0 -0.3,0 -0.1,0 -0.2,0 -0.2,0 0,0 -0.1,0 -0.1,0 0,0 -0.1,0 -0.1,0 -0.1,0 -0.2,0 -0.2,0 0,0 0,0 0,0 -0.1,0 -0.1,0 -0.2,0 -0.2,0 -0.3,0 -0.5,-0.1 0,0.5 0,1.1 0,1.6 0.2,-0.1 0.5,-0.2 0.8,-0.2 z" /><path
   style="fill:#00a18a"
   id="path3876-0-2-9-4-5"
   d="m 18.4,33.2 c 0.1,0 0.1,0 0.2,0 0.1,0 0.1,0 0.2,0 0.3,0 0.6,0 0.8,0 0.2,0 0.4,0 0.7,0 0.1,0 0.2,0 0.3,0 0.1,0 0.1,0 0.2,0 0,0 0.1,0 0.1,0 0.2,0 0.4,0 0.6,0.1 0.1,0 0.1,0 0.2,0 0.1,0 0.1,0 0.2,0 0,0 0.1,0 0.1,0 0.1,0 0.1,0 0.2,0 0.1,0 0.2,0 0.3,0 0.1,0 0.2,0.1 0.3,0.1 0.2,0 0.4,0 0.6,0.1 0.1,0 0.1,0 0.2,0 0,0 0.1,0 0.1,0 0.1,0 0.2,0 0.3,0 0,0 0.1,0 0.1,0 0.1,-0.3 0.1,-0.6 0.1,-0.6 L 20.7,32.5 18,32.3 c 0,0 0,0.2 -0.1,0.6 h 0.5 z" /><path
   style="fill:#0f4a47"
   id="path3878-9-0-3-9-0"
   d="m 16.2,37.1 c 0,0 0,-0.1 0,0 0,-0.1 0,-0.1 0,-0.2 0,0 0,0 0,-0.1 0,0 0,-0.1 0,-0.1 0,0 -0.1,0 -0.1,0 0,0 0,0.1 0,0.1 0,0 0,0.1 0,0.1 -0.1,0.1 0,0.2 0.1,0.2 0,0 0,0 0,0 0,0 0,0 0,0 z" /><path
   style="fill:#007c6b"
   id="path3880-48-4-1-9-7"
   d="m 23.6,34.1 c 0,0.1 0,0.1 0,0.2 0,0.1 0,0.1 0,0.2 0,0.1 -0.1,0.3 -0.1,0.4 0,0.1 0,0.1 -0.1,0.2 0,0.1 0,0.2 0,0.2 0,0.1 0,0.1 0,0.2 0,0.1 0,0.1 0,0.2 0,0.1 0,0.3 0,0.4 0,0 0,0 0,0 0,0 0,0 0,0 0,0 0,0 0,0 0,0 0,0 0,0 0,0 0,0 0,0 0,0.1 0,0.2 0,0.3 0,0.1 0,0.2 0.1,0.3 0,0 0,0.1 0.1,0.1 0,0 0,0.1 0.1,0.1 0,0 0,0 0,0 0,0 0,0 0,0 0,0 0,0.1 0.1,0.1 0,0 0,0 0,0 0,0 0.1,0.1 0.1,0.1 0,0 0,0 0,0 0,0 0.1,0.1 0.1,0.1 0,0 0,0.1 0.1,0.1 0,0 0.1,0.1 0.1,0.1 0,0 0.1,0.1 0.1,0.1 0,0 0,0 0,0 0,0 0,0 0,0 0,0 0,0 0,0.1 0,0 0,0 0,0 0,0 0,0 0.1,0.1 0,0 0,0 0,0 0,0 0,0 0,0 0,0 0,0 0,0.1 0,0 0.1,0 0.1,0.1 0.1,0.1 0.1,0.1 0.1,0.2 0,0.1 0.1,0.1 0.2,0.2 0,0 0,0 0,0 0.2,-0.2 0.4,-0.3 0.4,-0.3 0,0 -1,-1 -1.1,-1.5 -0.2,-0.8 0.4,-3.2 0.4,-3.2 h -0.4 c 0,0.2 -0.1,0.4 -0.2,0.6 -0.2,0 -0.2,0.1 -0.3,0.2 z" /><path
   style="fill:#0d5151"
   id="path3882-6-4-5-9-9"
   d="m 16.9,38.6 0.8,0.4 c 0,0 -0.5,0 -0.6,-0.1 -0.1,-0.2 -0.2,-0.3 -0.2,-0.3 z" /><path
   style="fill:#0f4a47"
   id="path3884-0-4-9-7-0"
   d="M 24.2,37.7 C 24,37.5 24,37.5 24,37.5 v 0 l -1,0.4 -1.2,0.4 -1.1,0.3 c 0,0.1 3.6,-0.7 3.5,-0.9 z" /><path
   style="fill:#0d5151"
   id="path3886-0-5-3-9-7"
   d="m 16.1,36.7 0.1,0.4 c 0,0 0.4,-0.2 0.7,-0.1 0.4,0.1 -0.5,-0.3 -0.5,-0.3 z" /><path
   style="fill:#0f4a47"
   id="path3888-2-8-6-6-8"
   d="m 23.7,37 -0.2,-0.3 -1,-0.1 h -0.3 l -4.5,0.5 c 0,0 3.7,-0.3 4.7,-0.2 1,0.1 1.3,0.1 1.3,0.1 z" /><path
   style="fill:#0d5151"
   id="path3890-49-6-2-1-3"
   d="m 15.6,36 1.5,-0.5 c 0,0 0.6,-0.1 0.6,-0.1 0.1,0 0.2,0.1 0.2,0.1 0,0 -0.5,0.1 -0.8,0.2 -0.4,0 -1.5,0.3 -1.5,0.3 z" /><path
   style="fill:#0f4a47"
   id="path3892-7-4-5-6-5"
   d="m 23.3,35.8 h -1.1 l -1.3,-0.1 -2,-0.2 -0.9,-0.1 c 0,0 2.9,0.6 3.4,0.6 0.4,0 1.9,0 1.9,0 z" /><path
   style="fill:#0d5151"
   id="path3894-5-7-7-8-1"
   d="m 15.7,33.8 1,-0.2 0.4,-0.2 0.6,-0.1 c 0,0 -0.5,0.1 -0.8,0.2 -0.4,0.1 -1.2,0.3 -1.2,0.3 z" /><path
   style="fill:#0f4a47"
   id="path3896-0-6-0-3-0"
   d="m 23.7,33.7 -1.1,-0.2 c 0,0 -1.3,-0.1 -1.7,-0.2 -2.5,-0.1 -2.6,0 -2.6,0 0,0 2.8,0.3 3.8,0.5 1,0.2 1.6,0.4 1.6,0.4 z" /><path
   style="fill:#122f26"
   id="path3898-1-2-3-9-0"
   d="m 16.7,32.8 c 0.3,-0.1 0.7,-0.4 1.1,-0.7 0.4,-0.3 0.9,-0.6 1.3,-0.8 0.2,-0.1 0.4,-0.2 0.6,-0.3 0.2,-0.1 0.4,-0.1 0.6,-0.1 0.1,0 0.2,0 0.2,0 0.1,0 0.2,0.1 0.2,0.2 0.1,0.2 0.1,0.5 -0.1,1 -0.1,0.2 -0.1,0.4 -0.2,0.6 -0.1,0 -0.1,0 -0.2,0 0.1,-0.3 0.3,-0.6 0.3,-0.7 0.1,-0.3 0.1,-0.5 0.1,-0.7 0,-0.2 -0.1,-0.3 -0.2,-0.3 0,0 -0.1,0 -0.2,0 -0.3,0 -0.8,0.2 -1.2,0.4 -0.2,0.1 -0.4,0.3 -0.7,0.5 -0.2,0.1 -0.3,0.3 -0.5,0.4 -0.2,0.1 -0.3,0.2 -0.5,0.4 0,0 0,0 0,0 -0.3,0 -0.6,0.1 -0.9,0.2 0.2,-0.1 0.3,-0.1 0.3,-0.1 z m 3.5,-0.1 c -0.7,-0.1 -1.5,-0.1 -1.9,-0.1 -0.2,0 -0.4,0 -0.7,0.1 0.1,-0.1 0.3,-0.2 0.4,-0.3 0.2,-0.1 0.4,-0.3 0.5,-0.4 0.2,-0.2 0.4,-0.4 0.7,-0.5 0.4,-0.2 0.9,-0.4 1.2,-0.4 0.1,0 0.1,0 0.1,0 0.1,0 0.1,0.2 0.1,0.3 0,0.2 0,0.4 -0.1,0.7 0,0 -0.2,0.3 -0.3,0.6 z m -4.6,1 0.1,-0.6 c 0.2,-0.1 2,-0.5 2.6,-0.5 1.2,0 4.4,0.4 5.6,0.6 0,0.1 -0.1,0.3 -0.1,0.5 -0.2,0 -0.5,-0.1 -0.9,-0.1 -1.4,-0.2 -3.6,-0.3 -4.6,-0.3 v 0 c -0.3,0 -0.8,0.1 -1.6,0.3 -0.5,0 -1,0.1 -1.1,0.1 z m 0,2.2 0.2,-2.2 c 0.5,-0.1 2,-0.5 2.6,-0.5 v 0 c 1,0 3.2,0.2 4.6,0.3 0.3,0 0.6,0.1 0.9,0.1 -0.1,0.2 -0.1,0.4 -0.2,0.7 -0.3,0.6 -0.3,0.9 -0.4,1.2 0,0.1 0,0.2 0,0.3 -0.1,0 -0.3,0 -0.5,0 -0.5,0 -0.9,0 -1.4,0 -0.6,0 -1.2,-0.1 -1.8,-0.2 -0.7,-0.1 -1.4,-0.2 -1.9,-0.2 0,0 -0.1,0 -0.1,0 -0.2,0 -0.7,0.1 -1.3,0.3 -0.3,0.1 -0.6,0.2 -0.7,0.2 z m 0.3,1.1 c -0.1,-0.2 -0.3,-0.5 -0.3,-1 0.4,-0.1 1.6,-0.5 2.1,-0.5 0,0 0,0 0.1,0 0.4,0 1.1,0.1 1.8,0.2 0.6,0.1 1.2,0.1 1.8,0.2 0.4,0 0.9,0 1.4,0 0.2,0 0.3,0 0.5,0 0,0.3 0,0.5 0,0.6 0,0.1 0,0.1 0.1,0.2 -0.3,0 -0.9,-0.1 -1.1,-0.1 0,0 -0.1,0 -0.1,0 -0.8,0 -2.2,0.2 -3.4,0.4 -0.4,0.1 -0.8,0.1 -1.1,0.1 0,0 -0.1,0 -0.1,0 -0.3,0 -0.7,-0.1 -1,-0.2 -0.2,-0.1 -0.4,-0.2 -0.6,-0.2 -0.1,0 -0.1,0 -0.1,0.1 0,0 0,0.1 0,0.2 0.2,0.1 0.2,0.2 0.3,0.2 0,0 0,0.1 0.1,0.1 -0.1,0 -0.3,-0.1 -0.4,-0.3 z m 0.2,0 c 0,0.1 0,0.1 0,0 -0.1,0 -0.2,-0.1 -0.2,-0.3 0,0 0,0 0.1,0 0.1,0.1 0.1,0.2 0.1,0.3 z m 7.2,2.3 c -1.3,0.9 -2.4,1.4 -3.2,1.4 -0.2,0 -0.3,0 -0.5,-0.1 -1.3,-0.4 -2.1,-1.3 -2.6,-2 0.1,0.1 0.2,0.1 0.4,0.2 0.3,0.2 0.6,0.2 0.8,0.3 0,0 -0.5,-0.2 -0.8,-0.3 -0.3,-0.1 -0.4,-0.3 -0.5,-0.3 -0.1,-0.1 -0.1,-0.2 -0.2,-0.3 -0.2,-0.3 -0.3,-0.6 -0.4,-0.8 l -0.1,-0.2 c 0,0 0,-0.1 0,-0.1 0,-0.1 -0.1,-0.2 -0.1,-0.3 0.1,0 0.3,0.1 0.5,0.1 0.3,0.1 0.7,0.2 1,0.2 0,0 0.1,0 0.1,0 0.3,0 0.7,-0.1 1.1,-0.1 1.2,-0.1 2.6,-0.3 3.4,-0.3 0,0 0.1,0 0.1,0 0.3,0 0.9,0.1 1.2,0.1 0.1,0.2 0.3,0.4 0.5,0.7 -0.2,0.1 -1.1,0.4 -2.2,0.8 -0.7,0.2 -1.8,0.6 -1.8,0.6 0.5,-0.1 1.2,-0.3 1.9,-0.6 1.1,-0.4 2.1,-0.7 2.2,-0.8 0,0 0,0.1 0.1,0.1 0.3,0.3 0.5,0.6 0.6,0.7 -0.5,0.2 -1,0.6 -1.5,1 z M 25,37.9 24.7,38.2 C 24.5,38 23.5,37 23.4,36.4 c -0.1,-0.4 0,-1.1 0.2,-2 0.1,-0.6 0.3,-1.1 0.4,-1.3 l 0.4,0.1 c 0,0.2 -0.2,0.8 -0.3,1.4 -0.2,1 -0.2,1.7 -0.1,1.9 0.1,0.5 0.9,1.3 1,1.4 z m -0.8,-3.7 c 0,0 0.1,0 0.1,-0.1 0.2,-0.1 0.4,-0.3 0.6,-0.4 0.2,-0.1 0.3,-0.2 0.5,-0.4 0.2,-0.1 0.4,-0.3 0.5,-0.4 0.2,-0.2 0.4,-0.4 0.7,-0.5 0.4,-0.2 0.9,-0.4 1.2,-0.4 0.1,0 0.1,0 0.1,0 0.1,0 0.1,0.2 0.1,0.3 0,0.2 0,0.4 -0.1,0.7 -0.1,0.2 -0.3,0.6 -0.5,1 -0.1,0.2 -0.2,0.4 -0.3,0.5 -0.1,0.2 -0.2,0.4 -0.4,0.6 -0.3,0.3 -0.6,0.7 -1.1,1.2 -0.4,0.4 -0.7,0.7 -1,0.9 0,0 0,0 0,0 -0.2,-0.3 -0.5,-0.6 -0.5,-0.7 -0.1,-0.3 -0.1,-0.9 0.1,-1.9 -0.1,-0.1 0,-0.2 0,-0.4 z m 3.9,-1 c -0.1,0.4 -0.3,0.9 -0.5,1.3 0,0 0,0.1 0,0.1 -0.2,0.5 -0.9,1.3 -1.6,2.1 -0.4,0.4 -0.8,0.7 -1.1,0.9 0,0 0,0 0,0 -0.1,-0.1 -0.1,-0.2 -0.2,-0.3 0,0 0,0 0,0 0.3,-0.2 0.7,-0.5 1.1,-0.9 0.5,-0.5 0.9,-0.9 1.1,-1.2 0.2,-0.3 0.4,-0.5 0.4,-0.7 0,-0.1 0.1,-0.3 0.3,-0.5 0.2,-0.4 0.4,-0.8 0.5,-1 0.1,-0.3 0.1,-0.5 0.1,-0.7 0,-0.2 -0.1,-0.3 -0.2,-0.3 0,0 -0.1,0 -0.2,0 -0.3,0 -0.8,0.2 -1.2,0.4 -0.2,0.1 -0.4,0.3 -0.7,0.5 -0.2,0.1 -0.3,0.3 -0.5,0.4 -0.2,0.1 -0.3,0.2 -0.5,0.4 -0.2,0.2 -0.4,0.3 -0.6,0.4 0,0 0,0 -0.1,0 0,-0.2 0.1,-0.3 0.1,-0.4 0.3,-0.1 0.6,-0.4 0.9,-0.6 0.4,-0.3 0.9,-0.6 1.3,-0.8 0.2,-0.1 0.4,-0.2 0.6,-0.3 0.2,-0.1 0.4,-0.1 0.6,-0.1 0.1,0 0.2,0 0.2,0 0.1,0 0.2,0.1 0.2,0.2 0.2,0.2 0.2,0.5 0,1.1 z m 0.2,-1.1 C 28.2,32 28.1,31.9 28,31.9 c -0.1,0 -0.2,0 -0.2,0 -0.2,0 -0.4,0 -0.6,0.1 -0.2,0.1 -0.4,0.2 -0.6,0.3 -0.4,0.2 -0.9,0.5 -1.3,0.8 -0.3,0.2 -0.6,0.4 -0.9,0.6 0.1,-0.2 0.1,-0.4 0.1,-0.4 v 0 L 24,33.2 v 0 C 23.5,33.1 22.8,33.1 22,33 21.6,33 21.1,32.9 20.6,32.9 20.7,32.7 20.8,32.5 20.8,32.3 21,31.8 21,31.4 20.9,31.2 20.8,31.1 20.7,31 20.6,31 c -0.1,0 -0.2,0 -0.2,0 -0.2,0 -0.4,0 -0.6,0.1 -0.2,0.1 -0.4,0.2 -0.6,0.3 -0.4,0.2 -0.9,0.5 -1.3,0.8 -0.5,0.1 -0.9,0.4 -1.2,0.5 -0.1,0 -0.2,0.1 -0.3,0.2 -0.4,0.1 -0.8,0.2 -0.8,0.2 v 0 l -0.1,0.7 v 0 c 0,0 0,0 0.1,0 l -0.2,2.3 v 0 c 0,0 0,0 0.1,0 0,0.2 0,0.3 0,0.5 0,0.2 0.1,0.4 0.2,0.6 0.2,0.2 0.4,0.4 0.4,0.4 0.1,0.2 0.2,0.5 0.4,0.8 0.3,0.5 0.7,1 1.1,1.4 0.5,0.5 1.2,0.9 1.9,1.1 0.2,0.1 0.3,0.1 0.5,0.1 0.4,0 1,-0.1 1.6,-0.4 0.5,-0.2 1,-0.6 1.6,-1 0.6,-0.4 1,-0.8 1.4,-1.1 v 0 L 25,38.1 v 0 c 0,0 -0.1,-0.1 -0.2,-0.3 0.3,-0.2 0.7,-0.6 1.1,-0.9 0.8,-0.7 1.4,-1.6 1.6,-2.1 0,0 0,-0.1 0,-0.1 0.2,-0.5 0.4,-0.9 0.5,-1.3 0.3,-0.8 0.4,-1.1 0.3,-1.3 z" /></svg>