<?xml version="1.0" encoding="UTF-8" standalone="no"?>
<svg width="54px" height="50px" viewBox="0 0 54 50" version="1.1" xmlns="http://www.w3.org/2000/svg" xmlns:xlink="http://www.w3.org/1999/xlink" xmlns:sketch="http://www.bohemiancoding.com/sketch/ns">
    <!-- Generator: Sketch 3.3.2 (12043) - http://www.bohemiancoding.com/sketch -->
    <title>arrow-up</title>
    <g fill-rule="evenodd">
            <path d="M52.9211957,26.4605978 C52.9211957,27.6154891 52.5033967,28.6345109 51.6644022,29.517663 L49.1168478,32.0652174 C48.2574728,32.9245924 47.2248641,33.3559783 46.0258152,33.3559783 C44.8029891,33.3559783 43.7839674,32.9245924 42.96875,32.0652174 L32.982337,22.1127717 L32.982337,46.0258152 C32.982337,47.2044837 32.5577446,48.1589674 31.7085598,48.8960598 C30.859375,49.6331522 29.8335598,50 28.6345109,50 L24.2866848,50 C23.0876359,50 22.0618207,49.6331522 21.2126359,48.8960598 C20.3634511,48.1589674 19.9388587,47.2044837 19.9388587,46.0258152 L19.9388587,22.1127717 L9.95244565,32.0652174 C9.13722826,32.9245924 8.11820652,33.3559783 6.89538043,33.3559783 C5.67255435,33.3559783 4.65353261,32.9245924 3.83831522,32.0652174 L1.29076087,29.517663 C0.43138587,28.658288 0,27.6392663 0,26.4605978 C0,25.2615489 0.43138587,24.2289402 1.29076087,23.3695652 L23.4035326,1.25679348 C24.1949728,0.417798913 25.2139946,0 26.4605978,0 C27.6834239,0 28.7126359,0.417798913 29.5516304,1.25679348 L51.6644022,23.3695652 C52.5033967,24.2527174 52.9211957,25.2819293 52.9211957,26.4605978 L52.9211957,26.4605978 Z"></path>
    </g>
</svg>