<?xml version="1.0" encoding="UTF-8" standalone="no"?>
<svg width="54px" height="50px" viewBox="0 0 54 50" version="1.1" xmlns="http://www.w3.org/2000/svg" xmlns:xlink="http://www.w3.org/1999/xlink" xmlns:sketch="http://www.bohemiancoding.com/sketch/ns">
    <!-- Generator: Sketch 3.3.2 (12043) - http://www.bohemiancoding.com/sketch -->
    <title>arrow-down</title>
    <g fill-rule="evenodd">
        <path d="M53.4369552,23.7356709 C53.4369552,24.9269499 53.0211314,25.9384131 52.1894838,26.7700607 L30.2407313,48.7525287 C29.3641298,49.5841762 28.3414281,50 27.1726261,50 C25.9813472,50 24.9698839,49.5841762 24.1382364,48.7525287 L2.18948384,26.7700607 C1.33535931,25.9608901 0.908297054,24.9494268 0.908297054,23.7356709 C0.908297054,22.544392 1.33535931,21.5216903 2.18948384,20.6675657 L4.68442652,18.1389076 C5.561028,17.3072601 6.58372974,16.8914363 7.75253171,16.8914363 C8.94381065,16.8914363 9.9552739,17.3072601 10.7869215,18.1389076 L20.6992613,28.0512475 L20.6992613,4.31557653 C20.6992613,3.14677456 21.1263236,2.13531131 21.9804481,1.28118678 C22.8345726,0.427062261 23.8460359,0 25.0148378,0 L29.3304144,0 C30.4992164,0 31.5106796,0.427062261 32.3648041,1.28118678 C33.2189287,2.13531131 33.6459909,3.14677456 33.6459909,4.31557653 L33.6459909,28.0512475 L43.5583308,18.1389076 C44.3899783,17.3072601 45.4014416,16.8914363 46.5927205,16.8914363 C47.7615225,16.8914363 48.7842242,17.3072601 49.6608257,18.1389076 L52.1894838,20.6675657 C53.0211314,21.5441672 53.4369552,22.566869 53.4369552,23.7356709 L53.4369552,23.7356709 Z" id="arrow-down" fill="#000000" sketch:type="MSShapeGroup"></path>
    </g>
</svg>