<?xml version="1.0" encoding="UTF-8"?>
<svg width="200px" height="25px" viewBox="0 0 200 25" version="1.1" xmlns="http://www.w3.org/2000/svg" xmlns:xlink="http://www.w3.org/1999/xlink">
    <!-- Generator: sketchtool 61.2 (101010) - https://sketch.com -->
    <title>07DC62E2-D03E-40C9-832D-381E20E62615</title>
    <desc>Created with sketchtool.</desc>
    <g id="!!-meinfotoDE" stroke="none" stroke-width="1" fill="none" fill-rule="evenodd">
        <g id="mfDE-B2B-AccountRegistration(DT)" transform="translate(-367.000000, -421.000000)" fill-rule="nonzero">
            <g id="B2B-Block" transform="translate(221.000000, 317.000000)">
                <g id="!picanova-b2b-logo" transform="translate(146.000000, 104.000000)">
                    <path d="M9.21069192,18.9112199 L8.08824011,16.8984896 C8.02789317,16.7989456 7.9218066,16.7360311 7.80541761,16.7307621 L2.5687822,16.7307621 C2.51486332,16.721091 2.46363623,16.7000224 2.41853275,16.6689678 C2.37764586,16.6332079 2.35360846,16.5819887 2.35224622,16.5277235 L2.35224622,11.2928594 C2.34541659,11.1759087 2.2830021,11.0692731 2.18432036,11.0059571 L0.169210028,9.88924496 C0.13462313,9.86364352 0.0879736724,9.86146392 0.051145035,9.88372861 C0.0143163975,9.9059933 -0.00538446722,9.94828487 0.00128416688,9.99076424 L0.00128416688,19.0789474 L9.11347168,19.0789474 C9.21953012,19.0789474 9.28139755,19.0039114 9.21069192,18.9112199 Z" id="Path" fill="#1D1D1B"></path>
                    <path d="M0.238712652,0.660692511 C0.155639746,0.646859682 0.0725430945,0.685148723 0.0292116474,0.757225795 C-0.0141197997,0.829302867 -0.00886650377,0.920497642 0.0424561134,0.987143566 L2.28850316,5.01772593 C2.41352491,5.21498559 2.62632402,5.33982003 2.85982775,5.35288234 L13.3530107,5.35288234 C13.4577294,5.37480247 13.555225,5.42270593 13.6364923,5.49216813 C13.7210602,5.56391097 13.7703668,5.66867988 13.7716913,5.77944506 L13.7716913,16.2258788 C13.7854882,16.4587088 13.9103924,16.6707903 14.107508,16.79608 L18.1460314,19.0377106 C18.3335655,19.1421749 18.4818482,19.0377106 18.4818482,18.8418399 L18.4818482,0.660692511 L0.238712652,0.660692511 Z" id="Path" fill="#E30613"></path>
                    <path d="M24.431377,3.79495472 C24.3770413,3.23552442 24.5723823,2.68043922 24.9668793,2.27326019 C25.3416402,1.95951926 25.7908054,1.74343483 26.2729825,1.64492003 C26.6343377,1.58080369 27.2873892,1.5081385 28.2277835,1.43119889 C29.1681778,1.35425928 30.526525,1.31578947 32.2679959,1.31578947 C35.8641332,1.31578947 38.537291,2.01109559 40.2874692,3.40170782 C42.0098212,4.73985893 42.9799227,6.80348269 42.8996755,8.9584575 C42.9092279,9.99224932 42.7216961,11.0186708 42.3467585,11.9847489 C41.9711273,12.9274262 41.3621269,13.7633308 40.5748119,14.4168955 C39.6448742,15.1625733 38.5669452,15.709923 37.4096886,16.0240784 C35.8614047,16.4396151 34.2602154,16.6339609 32.6554732,16.6011255 C32.185276,16.6011255 31.7063715,16.6011255 31.2231134,16.5498324 C30.7398552,16.4985394 30.2957801,16.4857161 29.8908882,16.4515207 C29.4859962,16.4173253 29.137702,16.38313 28.8460056,16.3361113 C28.5543093,16.2890926 28.3758085,16.271995 28.3105034,16.271995 L28.3105034,24.3421053 L24.431377,24.3421053 L24.431377,3.79495472 Z M28.3496865,12.9293963 L29.6557896,13.1131965 C30.573015,13.2217847 31.4965832,13.2703354 32.4203746,13.2585269 C33.4638213,13.2814548 34.5058639,13.1708134 35.5201927,12.9293963 C36.2377361,12.7626338 36.910352,12.4462969 37.4924085,12.0018466 C37.9501036,11.6395213 38.3041426,11.1667345 38.5198763,10.6297568 C38.7265211,10.096134 38.8298776,9.52932384 38.8246337,8.9584575 C38.8249558,8.4132242 38.7337579,7.87166554 38.5547057,7.35554893 C38.3581247,6.81182379 38.0077504,6.33438098 37.5446526,5.97918478 C36.9362398,5.52894007 36.2418668,5.20333642 35.502778,5.02171407 C34.4189388,4.75293931 33.3027982,4.63070191 32.185276,4.65838813 C31.1055641,4.65838813 30.243536,4.65838813 29.5730697,4.72250447 C29.1556634,4.74180497 28.7398424,4.78605599 28.3279181,4.85501158 L28.3496865,12.9293963 Z" id="Shape" fill="#1D1D1B"></path>
                    <path d="M47.8548512,0.000402309963 C48.4702564,-0.0112693474 49.0632567,0.231457392 49.4941262,0.671390031 C49.9345579,1.10203866 50.1772393,1.69594003 50.1645421,2.31206323 C50.1772393,2.92818644 49.9345579,3.52208781 49.4941262,3.95273644 C48.5824576,4.84757504 47.1229195,4.84757504 46.2112509,3.95273644 C45.771968,3.52164451 45.5308097,2.92763837 45.5451602,2.31206323 C45.5381344,1.69684391 45.7792194,1.10476948 46.2139028,0.669715309 C46.6485863,0.234661142 47.2401561,-0.00662945948 47.8548512,0.000402309963 Z M45.9430845,9.31630926 C45.8985412,8.80403889 46.0971794,8.30060684 46.4794172,7.957018 C46.9204545,7.64865118 47.4516542,7.49631514 47.9889344,7.5241227 C48.361749,7.51970865 48.7332417,7.56928326 49.0918767,7.6713071 C49.424922,7.77520197 49.6498357,7.84446522 49.7622926,7.8920837 L49.7622926,24.3421053 L45.9430845,24.3421053 L45.9430845,9.31630926 Z" id="Shape" fill="#1D1D1B"></path>
                    <path d="M68.6468647,23.3132829 C68.3321142,23.5185823 68.0046249,23.70343 67.6664025,23.8666939 C67.2334974,24.0717152 66.7882676,24.2493261 66.3333179,24.3984874 C65.7715079,24.5856468 65.1965249,24.7301698 64.6132088,24.8308398 C63.9027369,24.949799 63.1832978,25.0062187 62.4630724,24.9994572 C61.2795695,24.9961212 60.1050275,24.7929726 58.988452,24.3984874 C57.9297642,24.0386497 56.9562619,23.4631647 56.1287706,22.7079895 C55.2903391,21.9394835 54.6259947,20.9987695 54.180747,19.9495813 C53.6864652,18.7574193 53.4434011,17.4751693 53.4669017,16.1837919 C53.4455009,14.8784168 53.6838168,13.5819068 54.1678462,12.3704438 C54.6004557,11.3023629 55.2593458,10.3418804 56.0986687,9.55582973 C56.9399607,8.78349811 57.9311958,8.19466825 59.0099534,7.82642016 C60.1729715,7.42918585 61.3939111,7.23044109 62.6221825,7.23842091 C63.5552104,7.22357379 64.4869714,7.31348328 65.4001587,7.50647939 C66.0496357,7.64365451 66.6775097,7.86910765 67.2664771,8.1766256 C67.6792545,8.38779674 68.0337722,8.69819181 68.2985426,9.0802421 C68.4970105,9.37725489 68.6060113,9.72554113 68.6124625,10.0832997 C68.6169449,10.5345999 68.4648861,10.9733681 68.1824352,11.324151 C67.9312392,11.6459851 67.642484,11.9363016 67.3223807,12.1888558 C66.811278,11.7346919 66.2303875,11.3667521 65.6022716,11.0993278 C64.717873,10.7284082 63.7649229,10.5515278 62.8070942,10.5805049 C62.0881434,10.5743767 61.3731717,10.6883387 60.69136,10.9177398 C60.0542031,11.1302369 59.4723711,11.4832918 58.988452,11.951062 C58.4954818,12.4334248 58.109992,13.0155228 57.8574803,13.6588539 C57.5595354,14.4318022 57.4134974,15.2555048 57.427453,16.0843509 C57.4046824,16.9405817 57.5508377,17.7928663 57.8574803,18.5919947 C58.1165754,19.2553017 58.5276297,19.8478134 59.0572564,20.3214043 C59.5693808,20.771124 60.1701925,21.1070404 60.8203682,21.3071678 C61.51619,21.5255 62.241611,21.6334428 62.9705046,21.6271085 C63.8834342,21.6668766 64.794885,21.5197853 65.6495746,21.1947562 C66.1249252,20.9948239 66.5873885,20.76523 67.0342624,20.5073158 L68.6468647,23.3132829 Z" id="Path" fill="#1D1D1B"></path>
                    <path d="M85.7926353,24.4551094 C85.5692024,24.4984867 85.2211627,24.5505395 84.7442195,24.60693 C84.2672763,24.6633205 83.7086942,24.719711 83.0641763,24.7761015 C82.4196584,24.832492 81.7020952,24.880207 80.9157834,24.9235843 C80.1294716,24.9669616 79.2873016,24.992988 78.4236477,24.992988 C76.9973466,25.034863 75.5717165,24.8890458 74.1827201,24.5592149 C73.2524478,24.3344174 72.3759722,23.9244472 71.6046487,23.3533257 C71.0212602,22.9094818 70.5743324,22.3078995 70.3156129,21.6182333 C70.0849253,20.9667605 69.9671887,20.2800224 69.9675733,19.5881753 C69.9565959,18.762488 70.1024523,17.9423262 70.3972519,17.1720591 C70.6826925,16.4758837 71.1561419,15.8746749 71.7636297,15.4369667 C72.50966,14.9167302 73.3534638,14.5565048 74.2428751,14.3785604 C75.4666927,14.1240062 76.7145413,14.0061783 77.9638916,14.0272042 C78.8232487,14.0272042 79.6052638,14.0532306 80.3614981,14.1096211 C81.1177323,14.1660116 81.6806113,14.2180643 82.0587284,14.2614416 C82.0813531,13.591175 81.9504878,12.9246757 81.6763145,12.3138004 C81.4396702,11.8234461 81.0777612,11.4056806 80.6278988,11.1035735 C80.1403829,10.7967376 79.596866,10.591714 79.0294945,10.5006289 C78.3483412,10.3825837 77.6581329,10.3259699 76.9670373,10.3314574 C75.9356641,10.2952029 74.9059939,10.4420224 73.924913,10.7652305 C73.3898987,10.9404904 72.8810553,11.1885805 72.4124444,11.5026448 C72.2057972,11.311798 72.0212856,11.0978788 71.8624558,10.8649983 C71.62462,10.534066 71.5022173,10.132848 71.5144162,9.72417507 C71.5170189,9.399632 71.6028806,9.08130774 71.7636297,8.80023838 C71.9789755,8.45533047 72.2835489,8.17635253 72.6444708,7.99342042 C73.1786361,7.72240108 73.7511701,7.53656636 74.3417012,7.44252859 C75.2318128,7.29278358 76.1335078,7.22454832 77.0357859,7.23865523 C78.2381753,7.22799064 79.4377628,7.3575347 80.6107116,7.62471329 C81.606011,7.84844821 82.5487372,8.26537369 83.3864352,8.85229115 C84.1489415,9.41404887 84.7579919,10.1617235 85.156711,11.0254944 C85.6159652,12.0702803 85.8376599,13.2056209 85.8055256,14.3481963 L85.7926353,24.4551094 Z M82.0329477,17.0028876 C81.8138116,16.9551726 81.3970234,16.8901066 80.7868798,16.7990142 C79.875497,16.6944331 78.9583644,16.649516 78.0412337,16.6645446 C76.5344942,16.6645446 75.4373816,16.8944443 74.7498958,17.3542438 C74.0473256,17.8395573 73.6543022,18.6661588 73.7186673,19.5231093 C73.7151019,19.9041257 73.7881909,20.2819074 73.9335066,20.6335684 C74.0930488,20.9918488 74.3548645,21.2939181 74.6854441,21.5011146 C75.1318058,21.7641203 75.6228969,21.940656 76.1334609,22.0216423 C76.886562,22.155167 77.6505244,22.2161693 78.4150541,22.203827 C79.2258875,22.2146113 80.0366182,22.1754992 80.8427381,22.0867083 C81.4399913,22.0086291 81.8395924,21.9479009 82.0372445,21.9045236 L82.0329477,17.0028876 Z" id="Shape" fill="#1D1D1B"></path>
                    <path d="M89.7733445,14.299336 C89.7598355,13.2755633 89.9791631,12.2617047 90.4153808,11.3314728 C90.8172381,10.47786 91.4045611,9.72071514 92.1362129,9.11307008 C92.9082753,8.48421868 93.7985859,8.00989343 94.7567694,7.71693244 C95.82215,7.38914127 96.933385,7.2272882 98.0499353,7.23727779 C99.163351,7.23108944 100.271113,7.3928658 101.334366,7.71693244 C102.292727,8.00948214 103.183116,8.48384905 103.954923,9.11307008 C104.685182,9.71894665 105.268564,10.4767817 105.662652,11.3314728 C106.078908,12.266878 106.28592,13.2788828 106.269747,14.299336 L106.269747,24.3421053 L102.417529,24.3421053 L102.417529,15.2629279 C102.417529,13.7597245 102.041916,12.6162621 101.299425,11.8368233 C100.556934,11.0573845 99.4606682,10.6633824 98.0193622,10.6633824 C96.5780561,10.6633824 95.4555844,11.0531018 94.7261962,11.8368233 C93.996808,12.6205447 93.6255625,13.7682898 93.6255625,15.2629279 L93.6255625,24.3421053 L89.7689769,24.3421053 L89.7733445,14.299336 Z" id="Path" fill="#1D1D1B"></path>
                    <path d="M118.154013,7.23712845 C119.399848,7.22805708 120.636007,7.45581324 121.796357,7.90821254 C122.89017,8.33076232 123.890199,8.96328742 124.739754,9.76992969 C125.571463,10.5687396 126.234254,11.5256479 126.688994,12.5841533 C127.165212,13.702347 127.404646,14.9066048 127.392284,16.1214159 C127.402132,17.3233936 127.162691,18.5144212 126.688994,19.6197123 C126.235486,20.6801642 125.572573,21.6387211 124.739754,22.4382655 C123.887457,23.244624 122.888375,23.880959 121.796357,24.3129714 C119.45349,25.2290095 116.850194,25.2290095 114.507327,24.3129714 C113.41531,23.880959 112.416227,23.244624 111.56393,22.4382655 C110.731118,21.6396372 110.069467,20.6807713 109.619031,19.6197123 C109.142152,18.5152646 108.901157,17.3238668 108.911401,16.1214159 C108.898265,14.9061004 109.139267,13.7013955 109.619031,12.5841533 C110.070611,11.5249888 110.732151,10.5677564 111.56393,9.76992969 C112.413485,8.96328742 113.413515,8.33076232 114.507327,7.90821254 C115.669065,7.45537423 116.906729,7.22761221 118.154013,7.23712845 Z M118.154013,21.6157093 C118.881239,21.6192071 119.601247,21.4717606 120.268222,21.1826888 C120.902177,20.9159272 121.470841,20.5156876 121.935279,20.009374 C122.396138,19.5025321 122.759615,18.9154941 123.007578,18.2775441 C123.270526,17.5862698 123.401569,16.8520614 123.393953,16.1127567 C123.399359,15.3637741 123.268447,14.6200287 123.007578,13.9176623 C122.768931,13.2660972 122.404642,12.6674514 121.935279,12.1555254 C121.47014,11.6579644 120.907055,11.2614787 120.281246,10.9908698 C118.920132,10.4310981 117.392235,10.4310981 116.031121,10.9908698 C115.409789,11.2610234 114.850005,11.6543184 114.385771,12.1468662 C113.913576,12.6574593 113.547633,13.2563976 113.30913,13.9090032 C113.048262,14.6113696 112.917349,15.355115 112.922755,16.1040976 C112.915139,16.8434022 113.046182,17.5776107 113.30913,18.268885 C113.55705,18.9078356 113.922159,19.4951316 114.385771,20.0007149 C114.844459,20.5038998 115.405353,20.9038786 116.031121,21.1740296 C116.699855,21.468117 117.423155,21.6185821 118.154013,21.6157093 L118.154013,21.6157093 Z" id="Shape" fill="#1D1D1B"></path>
                    <path d="M135.83723,24.3294195 C134.776326,22.4350143 133.808433,20.6519618 132.93355,18.980262 C132.058667,17.3085622 131.304408,15.8186915 130.670772,14.5106498 C130.042949,13.2054272 129.559002,12.1144527 129.218932,11.2377265 C128.974136,10.6980294 128.804077,10.1292785 128.713186,9.54629334 C128.704341,9.10675714 128.882538,8.68309128 129.205852,8.37497585 C129.601543,8.02933301 130.127064,7.85790409 130.657692,7.90137455 C131.050166,7.89133848 131.442118,7.93547553 131.82178,8.03246062 C132.005237,8.07151409 132.181602,8.13708451 132.344966,8.22697544 C132.780954,9.4067501 133.277981,10.5992105 133.796806,11.8128138 C134.315632,13.0264171 134.821378,14.1681346 135.331484,15.2464232 C135.84159,16.3247119 136.308098,17.3099717 136.748446,18.2064313 C137.188793,19.1028909 137.550664,19.8175215 137.842776,20.3841516 C138.270044,19.5976351 138.732191,18.6701659 139.229218,17.601744 C139.726244,16.533322 140.204378,15.4747667 140.663618,14.4260781 C141.121406,13.3773895 141.535594,12.4259584 141.910544,11.5633274 C142.285494,10.7006965 142.547087,10.0748662 142.704042,9.68160799 C142.88395,9.20274801 143.159528,8.76303159 143.51498,8.3876616 C143.921366,8.03954671 144.457196,7.86835375 144.99734,7.9140603 C145.528744,7.89234359 146.057442,7.99838509 146.536377,8.22274686 C146.763993,8.33424131 146.983903,8.45995378 147.194719,8.59909075 C147.05811,9.05859677 146.827036,9.68583658 146.501498,10.4808102 C146.175961,11.2757838 145.782118,12.1651957 145.319971,13.1490461 C144.857823,14.1300773 144.365157,15.157623 143.833252,16.2274545 C143.301346,17.297286 142.78252,18.341746 142.263694,19.3523773 C141.744869,20.3630087 141.256562,21.3102113 140.798775,22.1855279 C140.340987,23.0608446 139.948598,23.7754751 139.634686,24.3421053 L135.83723,24.3294195 Z" id="Path" fill="#1D1D1B"></path>
                    <path d="M164.353378,24.4568337 C164.129766,24.5000737 163.781449,24.5519618 163.304124,24.6081738 C162.8268,24.6643859 162.267771,24.7205979 161.622738,24.77681 C160.977705,24.8330221 160.259568,24.8805861 159.472628,24.9238261 C158.685687,24.9670662 157.842844,24.9930102 156.9785,24.9930102 C155.551059,25.0347527 154.124289,24.8893969 152.734182,24.5606098 C151.803166,24.3365237 150.92599,23.9278509 150.15405,23.3585367 C149.570195,22.9160973 149.12291,22.3164187 148.863984,21.628935 C148.633112,20.9795238 148.515281,20.2949589 148.515666,19.6053011 C148.502522,18.7820496 148.648568,17.9640717 148.945688,17.1968309 C149.228352,16.5023216 149.701012,15.9026069 150.308858,15.4672292 C151.055485,14.9486391 151.899963,14.5895535 152.790085,14.4121722 C154.002381,14.1494219 155.239556,14.0203804 156.479674,14.0273359 C157.339718,14.0273359 158.118058,14.0532799 158.874897,14.109492 C159.631736,14.165704 160.195065,14.2175921 160.573484,14.2608321 C160.595433,13.5844168 160.459961,12.912196 160.177864,12.2977343 C159.94103,11.8089317 159.578832,11.3924882 159.12861,11.0913371 C158.640704,10.7854722 158.096753,10.5810974 157.528928,10.4903006 C156.84723,10.3726289 156.15647,10.3161942 155.464822,10.3216644 C154.432625,10.2855246 153.402131,10.4318795 152.420266,10.7540648 C151.884824,10.9287701 151.375574,11.1760751 150.906589,11.4891455 C150.699776,11.2989027 150.515117,11.0856604 150.35616,10.8535169 C150.118134,10.5236319 149.995634,10.1236835 150.007843,9.71630383 C150.010447,9.39278778 150.096378,9.07547087 150.257255,8.79529096 C150.472773,8.45147453 150.77759,8.17337942 151.1388,7.9910262 C151.673393,7.72086452 152.246384,7.53561787 152.837388,7.44187769 C153.728211,7.29260656 154.630627,7.22458722 155.533626,7.2386495 C156.736988,7.22778673 157.937561,7.3569237 159.111409,7.62348586 C160.107504,7.84651277 161.050984,8.26211887 161.889352,8.84717901 C162.675151,9.4123754 163.300659,10.1739922 163.704045,11.0567451 C164.163666,12.0982247 164.385538,13.2299725 164.353378,14.3689322 L164.353378,24.4568337 Z M160.590685,17.0281947 C160.371374,16.9806307 159.954252,16.9157706 159.343621,16.8249665 C158.43151,16.7207164 157.513644,16.6759414 156.59578,16.6909224 C155.087836,16.6909224 153.989847,16.9200946 153.301811,17.378439 C152.59868,17.8622168 152.205342,18.6862025 152.269758,19.5404411 C152.265586,19.9207364 152.340278,20.2977325 152.48907,20.6473861 C152.645549,21.0052467 152.906491,21.3068393 153.237308,21.5121869 C153.683057,21.7798624 154.1745,21.9616901 154.686482,22.0483634 C155.43871,22.1816862 156.201877,22.2424981 156.965599,22.2299716 C157.777081,22.2407217 158.58846,22.2017334 159.395224,22.1132235 C159.992954,22.0353914 160.392875,21.9748554 160.590685,21.9316153 L160.590685,17.0281947 Z" id="Shape" fill="#1D1D1B"></path>
                    <path d="M170.961229,15.0050474 C170.935521,14.734804 171.030629,14.4669214 171.221869,14.2709229 C171.388516,14.1212021 171.594047,14.0195823 171.815789,13.9772731 C172.160785,13.9205503 172.508928,13.8841287 172.858352,13.8682031 C173.332633,13.8346431 174.024827,13.8178632 174.926388,13.8178632 C175.740364,13.8010035 176.553168,13.8870074 177.344793,14.073758 C177.881481,14.1967207 178.387276,14.4250354 178.831728,14.7449575 C179.168457,14.992108 179.428775,15.3261015 179.583741,15.7098069 C179.722213,16.076325 179.793108,16.4641217 179.793108,16.8550411 C179.798144,17.1582581 179.751941,17.4601969 179.656379,17.7485756 C179.57339,17.9868097 179.459969,18.2137511 179.318827,18.4239701 C179.1887,18.6051401 179.03337,18.7675253 178.857365,18.9063948 C178.70356,19.0274033 178.535763,19.1301908 178.357447,19.2126296 C179.498051,19.5598401 180.254173,20.6215784 180.194752,21.7925529 C180.199242,22.2207554 180.128413,22.6465057 179.985384,23.051052 C179.831358,23.4583244 179.559606,23.812605 179.203462,24.0704364 C178.725227,24.4017472 178.182761,24.6330592 177.609707,24.7500259 C176.743701,24.9327293 175.858968,25.0157904 174.973389,24.9975308 C174.460653,24.9975308 173.96928,24.9975308 173.507818,24.9723608 L172.285797,24.9262158 C171.931154,24.9262158 171.636331,24.8884608 171.4056,24.8674858 C171.174869,24.8465109 171.025321,24.8381209 170.97832,24.8381209 L170.961229,15.0050474 Z M175.827949,18.4868951 C176.149633,18.4924105 176.470474,18.4528591 176.780783,18.3694351 C177.009447,18.304696 177.222879,18.1963597 177.408885,18.0506154 C177.563702,17.9243165 177.682876,17.7610884 177.754982,17.5765807 C177.824286,17.3868598 177.858999,17.186634 177.857529,16.9850861 C177.860565,16.7692755 177.813821,16.5555881 177.7208,16.3600315 C177.619549,16.1567324 177.460834,15.9863442 177.26361,15.8692168 C177.00081,15.7120668 176.71134,15.6026501 176.40905,15.546202 C175.979129,15.4584222 175.540635,15.4176222 175.101573,15.4245471 C174.482017,15.4245471 173.96928,15.4245471 173.57191,15.4748871 C173.324365,15.4877152 173.077647,15.5129179 172.832715,15.550397 L172.832715,18.4868951 L175.827949,18.4868951 Z M172.836988,23.2482169 C172.93099,23.2482169 173.170267,23.2943619 173.554819,23.3279219 C173.939371,23.3614818 174.477744,23.3740668 175.187029,23.3740668 C175.667824,23.3816844 176.148336,23.3465831 176.62269,23.2691919 C176.952871,23.22116 177.271397,23.114549 177.562706,22.9545671 C177.783399,22.8348677 177.963236,22.6539276 178.079715,22.4343874 C178.187343,22.2029145 178.239943,21.9504415 178.233536,21.6960679 C178.235633,21.4862599 178.200945,21.2776618 178.130989,21.0794033 C178.056156,20.8870205 177.934381,20.7156063 177.776346,20.5801987 C177.580714,20.4249453 177.355586,20.30944 177.114062,20.2404039 C176.780491,20.148735 176.43488,20.1063204 176.08859,20.114554 L172.836988,20.114554 L172.836988,23.2482169 Z" id="Shape" fill="#1D1D1B"></path>
                    <path d="M180.858086,22.7137064 C181.007939,22.6169282 181.251985,22.4570338 181.581661,22.2298153 C181.911337,22.0025969 182.279547,21.7501319 182.673446,21.4682128 C183.067345,21.1862936 183.456962,20.9043744 183.842298,20.626663 C184.227634,20.3489516 184.553028,20.0754479 184.8142,19.8440217 C185.353757,19.3784256 185.835222,18.8515826 186.248506,18.2745313 C186.580268,17.80081 186.755206,17.238017 186.749443,16.6629635 C186.749932,16.4168144 186.70346,16.1727568 186.612434,15.9434384 C186.517619,15.7113254 186.371356,15.5028982 186.184283,15.3333149 C185.974912,15.1437312 185.72676,15.0002739 185.456427,14.91254 C185.115991,14.7994853 184.758165,14.7453835 184.398894,14.7526455 C184.03815,14.7448616 183.679212,14.8048441 183.341361,14.929371 C183.073318,15.0301397 182.823294,15.1721729 182.60066,15.3501459 C182.417796,15.4870293 182.25998,15.6535101 182.133976,15.8424525 C182.044083,15.9674132 181.965298,16.0997441 181.898493,16.2379809 C181.788715,16.2124506 181.682374,16.1743189 181.581661,16.1243717 C181.465059,16.0712359 181.356899,16.001789 181.260548,15.918192 C181.159362,15.8358468 181.072583,15.7377704 181.003657,15.6278573 C180.931725,15.515894 180.894531,15.385765 180.896619,15.2533676 C180.89536,15.0988653 180.925945,14.9457119 180.986531,14.8031385 C181.043789,14.6648925 181.117058,14.5335872 181.204888,14.4118178 C181.299616,14.2953737 181.40417,14.1869905 181.517438,14.0878212 C181.713254,13.920334 181.930617,13.7788644 182.163946,13.6670463 C182.48367,13.5123631 182.819617,13.3924336 183.165819,13.3093876 C184.22091,13.0753295 185.319624,13.1130133 186.355544,13.4187891 C186.825573,13.5759079 187.26131,13.8185716 187.639996,14.1341064 C187.983551,14.4279705 188.254437,14.7949215 188.432076,15.2070824 C188.610219,15.6283714 188.700487,16.0805216 188.697529,16.536731 C188.700208,16.8857605 188.657036,17.2336701 188.569084,17.5718373 C188.487637,17.8729963 188.37427,18.1649283 188.230845,18.4428413 C188.09363,18.7009055 187.934659,18.9472189 187.755597,19.1791974 C187.575774,19.4064158 187.39595,19.621011 187.211846,19.8229829 C186.973607,20.0783474 186.720578,20.3199931 186.454018,20.5467158 C186.132905,20.8244272 185.798947,21.1021386 185.452145,21.3882655 C185.105343,21.6743925 184.779948,21.9184419 184.467398,22.1540758 L183.773794,22.6590057 L188.778878,22.6590057 L188.778878,24.3421053 L180.858086,24.3421053 L180.858086,22.7137064 Z" id="Path" fill="#1D1D1B"></path>
                    <path d="M190.763209,15.0051127 C190.737501,14.7348697 190.832609,14.4669873 191.02385,14.2709889 C191.18998,14.1205344 191.395734,14.018804 191.617769,13.9773394 C191.961288,13.9203094 192.308027,13.8838853 192.65606,13.8682696 C193.134613,13.8347096 193.826807,13.8179297 194.728368,13.8179297 C195.540947,13.800777 196.352376,13.8867873 197.142501,14.0738242 C197.680801,14.1959205 198.188164,14.4242869 198.633708,14.7450232 C198.969186,14.9934126 199.229209,15.3270279 199.385721,15.7098716 C199.524193,16.0763893 199.595088,16.4641857 199.595088,16.8551047 C199.600125,17.1583214 199.553922,17.4602599 199.458359,17.7486383 C199.375743,17.9877848 199.260774,18.2149485 199.116535,18.4240322 C198.989144,18.606049 198.835088,18.7686088 198.659345,18.9064564 C198.50554,19.0274649 198.337743,19.1302522 198.159427,19.2126909 C199.300031,19.5599011 200.056153,20.6216384 199.996732,21.7926118 C199.999062,22.2206502 199.928293,22.6460441 199.787364,23.0511097 C199.633339,23.4583817 199.361586,23.812662 199.005442,24.0704931 C198.527208,24.4018036 197.984741,24.6331154 197.411687,24.750082 C196.545645,24.9325596 195.66094,25.0156182 194.775369,24.9975866 C194.262633,24.9975866 193.771261,24.9975866 193.309798,24.9724166 L192.083504,24.9262717 C191.728862,24.9262717 191.438311,24.8885168 191.20758,24.8675418 C190.976849,24.8465668 190.827301,24.8381768 190.7803,24.8381768 L190.763209,15.0051127 Z M195.629929,18.4869571 C195.950223,18.4927652 196.269697,18.453205 196.578491,18.3694973 C196.808827,18.3056872 197.023836,18.1972876 197.210865,18.0506778 C197.365682,17.9243791 197.484857,17.7611511 197.556962,17.5766436 C197.626266,17.3869229 197.660979,17.1866973 197.659554,16.9851495 C197.660423,16.7695509 197.613778,16.5563143 197.52278,16.3600955 C197.421529,16.1567967 197.262814,15.9864086 197.06559,15.8692813 C196.80279,15.7121315 196.51332,15.6027149 196.21103,15.5462669 C195.78111,15.4584871 195.342615,15.4176872 194.903553,15.4246121 C194.283997,15.4246121 193.771261,15.4246121 193.37389,15.474952 C193.126346,15.4877801 192.879628,15.5129827 192.634696,15.5504619 L192.634696,18.4869571 L195.629929,18.4869571 Z M192.638968,23.2482744 C192.73297,23.2482744 192.972247,23.2944193 193.352526,23.3279793 C193.732805,23.3615392 194.279724,23.3741242 194.989009,23.3741242 C195.469799,23.381559 195.950294,23.3464589 196.42467,23.2692494 C196.754852,23.2212176 197.073377,23.1146067 197.364686,22.9546249 C197.585379,22.8349256 197.765216,22.6539857 197.881695,22.4344457 C197.989323,22.202973 198.041923,21.9505002 198.035516,21.6961269 C198.038313,21.4859118 198.002116,21.2769521 197.928696,21.0794629 C197.856499,20.8857221 197.734297,20.7137075 197.574054,20.5802587 C197.38007,20.424929 197.156318,20.3093845 196.916042,20.2404643 C196.582471,20.1487955 196.236861,20.1063809 195.89057,20.1146145 L192.638968,20.1146145 L192.638968,23.2482744 Z" id="Shape" fill="#1D1D1B"></path>
                </g>
            </g>
        </g>
    </g>
</svg>