<?xml version="1.0" encoding="UTF-8" standalone="no"?>
<svg width="105px" height="100px" viewBox="0 0 105 100" version="1.1" xmlns="http://www.w3.org/2000/svg" xmlns:xlink="http://www.w3.org/1999/xlink" xmlns:sketch="http://www.bohemiancoding.com/sketch/ns">
    <!-- Generator: Sketch 3.3.2 (12043) - http://www.bohemiancoding.com/sketch -->
    <title>brush</title>
    <g fill-rule="evenodd">
            <path d="M102.840909,2.5 C98.4090909,-1.93181818 93.0681818,3.40909091 93.0681818,3.40909091 C93.0681818,3.40909091 66.3636364,30.1136364 61.0227273,35.5681818 C55.6818182,40.9090909 40.4545455,47.0454545 40.4545455,47.0454545 L58.0681818,64.6590909 C58.0681818,64.6590909 64.5454545,49.7727273 69.8863636,44.4318182 C75.2272727,39.0909091 101.931818,12.3863636 101.931818,12.3863636 C101.931818,12.3863636 107.272727,6.93181818 102.840909,2.5 L102.840909,2.5 Z"></path>
            <path d="M20.4545455,64.6590909 C12.3863636,84.0909091 13.6363636,95.1136364 0,98.5227273 C52.7272727,107.727273 52.7272727,70 52.7272727,70 L35.1136364,52.3863636 C35.1136364,52.3863636 24.4318182,55.1136364 20.4545455,64.6590909 L20.4545455,64.6590909 Z M15.3409091,92.6136364 C19.3181818,87.9545455 25.6818182,65.6818182 33.75,60 C39.4318182,63.8636364 33.5227273,81.7045455 15.3409091,92.6136364 L15.3409091,92.6136364 Z"></path>
    </g>
</svg>