<?xml version="1.0" encoding="UTF-8" standalone="no"?>
<svg width="64px" height="49px" viewBox="0 0 64 49" version="1.1" xmlns="http://www.w3.org/2000/svg" xmlns:xlink="http://www.w3.org/1999/xlink" xmlns:sketch="http://www.bohemiancoding.com/sketch/ns">
    <!-- Generator: Sketch 3.3.2 (12043) - http://www.bohemiancoding.com/sketch -->
    <title>check</title>
    <g fill-rule="evenodd">
            <path d="M62.75,9.625 C62.75,10.75 62.375,11.625 61.625,12.375 L32.375,41.5 L26.875,47 C26.125,47.75 25.25,48.125 24.125,48.125 C23,48.125 22.125,47.75 21.375,47 L15.875,41.5 L1.25,26.875 C0.5,26.125 0.125,25.25 0.125,24.125 C0.125,23 0.5,22.125 1.25,21.375 L6.75,15.875 C7.5,15.125 8.375,14.75 9.5,14.75 C10.625,14.75 11.5,15.125 12.25,15.875 L24.125,27.75 L50.625,1.25 C51.375,0.5 52.25,0.125 53.375,0.125 C54.5,0.125 55.375,0.5 56.125,1.25 L61.625,6.75 C62.375,7.625 62.75,8.5 62.75,9.625 L62.75,9.625 Z"></path>
    </g>
</svg>