<?xml version="1.0" encoding="UTF-8"?>
<svg width="70px" height="61px" viewBox="0 0 70 61" version="1.1" xmlns="http://www.w3.org/2000/svg" xmlns:xlink="http://www.w3.org/1999/xlink">
    <!-- Generator: sketchtool 61.2 (101010) - https://sketch.com -->
    <title>F1928FFF-17BC-458A-86C4-E0ED037E704A</title>
    <desc>Created with sketchtool.</desc>
    <g id="!!-meinfotoDE" stroke="none" stroke-width="1" fill="none" fill-rule="evenodd">
        <g id="mfDE-B2B-AccountRegistration(DT)" transform="translate(-582.000000, -492.000000)" fill-rule="nonzero">
            <g id="B2B-Block" transform="translate(221.000000, 317.000000)">
                <g id="Cloud" transform="translate(350.000000, 175.000000)">
                    <g id="cloud-icon" transform="translate(11.000000, 0.000000)">
                        <g id="Group">
                            <path d="M52.3740002,20.0340001 L61.3060003,25.2280001 C61.1105828,25.1013162 60.8914989,25.0155877 60.6620003,24.9760001 L51.7160002,19.7820001 C51.9498492,19.8216271 52.1735051,19.9072826 52.3740002,20.0340001 L52.3740002,20.0340001 Z" id="Path" fill="#0397A0"></path>
                            <path d="M49.3500002,8.21800003 L58.2960002,13.4120001 C57.3302289,12.8668301 56.2234466,12.6230454 55.1180002,12.7120001 L46.1720002,7.51800003 C47.2774466,7.42904541 48.3842289,7.67283006 49.3500002,8.21800003 Z" id="Path" fill="#BB192A"></path>
                            <path d="M48.1180002,2.64600001 L44.9960002,0.826000004 C43.0780002,-0.294000001 40.4180002,-0.126000001 37.4920002,1.55400001 C33.0680001,4.11600002 29.3020001,9.42200004 27.7480001,14.7700001 C26.2780001,14.7280001 24.6260001,15.1900001 22.8620001,16.2120001 C18.4100001,18.7740001 14.6020001,24.1500001 13.0760001,29.5400001 C12.1784161,29.8044303 11.3176594,30.1807173 10.514,30.6600001 C4.69000002,34.0200001 -0.0140000001,42.1680002 -3.11690313e-05,48.8600002 C0.0140000001,52.1780002 1.17600001,54.5160002 3.08000001,55.6220002 C6.04800003,57.3580002 7.18200003,57.9180002 10.15,59.6540003 C8.26000004,58.5480002 7.08400003,56.2100002 7.08400003,52.8920002 C7.05600003,46.2000002 11.7740001,38.0520002 17.5980001,34.6920001 C18.4016594,34.2127173 19.2624161,33.8364303 20.1600001,33.5720001 C21.6860001,28.1820001 25.4940001,22.8060001 29.9460001,20.2440001 C31.6960001,19.2220001 33.3620001,18.7600001 34.8320001,18.8020001 C36.3720002,13.4540001 40.1520002,8.14800003 44.5760002,5.60000002 C47.5020002,3.90600002 50.1620002,3.73800002 52.0800002,4.85800002 C50.1340002,3.73800002 50.0640002,3.76600002 48.1180002,2.64600001 Z" id="Path" fill="#BB192A"></path>
                            <path d="M44.5760002,5.60000002 C50.4000002,2.22600001 55.1320002,4.92800002 55.1600002,11.62 C55.1600002,11.9840001 55.1320002,12.3480001 55.1180002,12.7120001 C58.7860003,12.4880001 61.3480003,15.2460001 61.3620003,20.1740001 C61.3570743,21.7997264 61.1213898,23.4165221 60.6620003,24.9760001 C61.8100003,25.2140001 62.5660003,26.2920001 62.5800003,28.0000001 C62.5800003,30.7580001 60.6480003,34.1040001 58.2540002,35.4900002 L17.2760001,59.1360003 C17.057482,59.2676307 16.8279545,59.3800523 16.5900001,59.4720003 C11.27,61.9360003 7.09800003,59.1640003 7.08387604,52.8920002 C7.05600003,46.2000002 11.7740001,38.0520002 17.5980001,34.6920001 C18.4016594,34.2127173 19.2624161,33.8364303 20.1600001,33.5720001 C21.6860001,28.1820001 25.4940001,22.8060001 29.9460001,20.2440001 C31.6960001,19.2220001 33.3620001,18.7600001 34.8320001,18.8020001 C36.3720002,13.4540001 40.1520002,8.14800003 44.5760002,5.60000002 Z" id="Path" fill="#E0E0E0"></path>
                        </g>
                        <g id="Group" transform="translate(46.340000, 17.080000)">
                            <path d="M21.8400001,20.2300001 C21.6440001,20.8460001 21.2100001,21.4620001 20.6920001,21.7560001" id="Path" fill="#00ACB0"></path>
                            <path d="M21.9380001,19.6140001 C21.9317116,19.8226701 21.8987781,20.0296807 21.8400001,20.2300001" id="Path" fill="#00ACB0"></path>
                            <line x1="21.9240001" y1="17.4020001" x2="21.9380001" y2="19.6140001" id="Path" fill="#00ACB0"></line>
                            <path d="M21.7840001,16.4780001 L21.7840001,16.4780001 C21.8400001,16.7860001 21.8820001,17.0940001 21.9240001,17.4020001" id="Path" fill="#FFFFFF"></path>
                            <path d="M8.48400004,20.6080001 C8.63800004,21.0420001 8.77800004,21.5180001 8.93200004,21.9100001 C9.09943934,22.4063202 9.43654027,22.8276964 9.88400004,23.1000001 M8.41400004,20.4540001 C8.43997026,20.5040935 8.46333474,20.5554954 8.48400004,20.6080001 M7.77000003,19.5300001 C8.05000003,19.6980001 8.26000004,20.0480001 8.41400004,20.4540001" id="Shape" fill="#FFFFFF"></path>
                            <path d="M6.66400003,19.6420001 C8.21800003,18.7600001 8.47000004,20.7480001 8.93200004,21.9100001 C9.39400004,23.0720001 10.626,23.8000001 12.0260001,23.0020001 C12.2998843,22.8296372 12.5576027,22.632834 12.7960001,22.4140001 C13.7340001,21.5040001 14.4060001,20.3280001 14.8680001,19.0820001 C15.4280001,17.6260001 15.7780001,16.0020001 16.6740001,14.6160001 C17.1220001,13.9300001 17.5980001,13.4680001 18.0740001,13.1880001 C19.3480001,12.4600001 20.5800001,13.0900001 21.0980001,14.1260001 C21.6160001,15.1620001 21.7700001,16.2260001 21.9240001,17.4020001 L21.9240001,19.6140001 C21.9240001,20.3980001 21.3640001,21.3640001 20.6780001,21.7560001 L5.44600002,30.5620001 C4.76000002,30.9540001 4.20000002,30.6320001 4.20000002,29.8480001 L4.17200002,22.7360001 C4.17200002,22.7220001 5.81000002,20.3140001 6.07600003,20.0760001 C6.2624147,19.9187779 6.45882665,19.7738072 6.66400003,19.6420001 Z" id="Path" fill="#6F6F6E"></path>
                            <path d="M23.5900001,2.54800001 C23.5903854,2.38214796 23.5668086,2.21711009 23.5200001,2.05800001 C23.3240001,1.48400001 22.7640001,1.31600001 22.1060001,1.69400001 L3.93400002,12.1800001 C3.40026015,12.5202864 2.98085612,13.0128423 2.73000001,13.5940001 C2.55153828,13.955736 2.45588904,14.3526803 2.45000001,14.7560001 L2.52000001,39.5500002 C2.52000001,40.4880002 3.19200001,40.8660002 4.00400002,40.3900002 L22.1760001,29.9040001 C23.0020001,29.4280001 23.6600001,28.2800001 23.6600001,27.3420001 L23.5900001,2.54800001 Z M20.6920001,21.7560001 L5.44600002,30.5620001 L5.26400002,30.6600001 L5.12400002,30.7020001 L5.01200002,30.7020001 C4.84859185,30.7396054 4.67693414,30.7105164 4.53503831,30.6211746 C4.39314249,30.5318328 4.29271707,30.3896102 4.25600002,30.2260001 C4.24486478,30.2095733 4.23990508,30.1897345 4.24200002,30.1700001 C4.21329221,30.0842892 4.19909704,29.9943864 4.20000002,29.9040001 L4.20000002,29.8340001 L4.17200002,22.7220001 L4.17200002,22.7220001 L4.17200002,15.6380001 C4.17772449,15.297732 4.25901861,14.9629915 4.41000002,14.6580001 C4.61969573,14.1733041 4.97107745,13.7633587 5.41800002,13.4820001 L20.6500001,4.67600002 C21.2100001,4.35400002 21.6860001,4.49400002 21.8400001,4.98400002 C21.8870421,5.11415996 21.910739,5.25160199 21.9100001,5.39000002 L21.9380001,17.4020001 L21.9380001,19.6140001 C21.9380001,20.3980001 21.3780001,21.3640001 20.6920001,21.7560001" id="Shape" fill="#E0E0E0"></path>
                            <path d="M2.95400001,40.5020002 C1.19000001,39.4660002 2.32400001,40.0400002 0.560000002,39.0040002 C0.294000001,38.8500002 0.126000001,38.5280002 0.126000001,38.0520002 L2.52000001,39.5500002 C2.52000001,40.0120002 2.68800001,40.3480002 2.95400001,40.5020002 Z" id="Path" fill="#C5C5C4"></path>
                            <path d="M20.7620001,0.0980000004 C22.5260001,1.134 21.3920001,0.574000002 23.1560001,1.59600001 C22.8900001,1.42800001 22.5120001,1.45600001 22.1060001,1.69400001 L19.7120001,0.210000001 C20.1180001,-0.0280000001 20.4960001,-0.0560000002 20.7620001,0.0980000004 Z" id="Path" fill="#C5C5C4"></path>
                            <path d="M21.8260001,4.98400002 C21.8730421,5.11415996 21.896739,5.25160199 21.8960001,5.39000002 L21.9240001,17.4020001 C21.7700001,16.2260001 21.5460001,15.0500001 21.0980001,14.1260001 C20.6500001,13.2020001 19.3480001,12.4600001 18.0740001,13.1880001 C17.5980001,13.4680001 17.1220001,13.9300001 16.6740001,14.6160001 C15.7780001,16.0020001 15.4280001,17.6260001 14.8680001,19.0820001 C14.4060001,20.3280001 13.7340001,21.5040001 12.7960001,22.4140001 C12.5576027,22.632834 12.2998843,22.8296372 12.0260001,23.0020001 C10.626,23.8000001 9.40800004,23.1560001 8.93200004,21.9100001 C8.45600004,20.6640001 8.21800003,18.7600001 6.66400003,19.6420001 C6.45882665,19.7738072 6.2624147,19.9187779 6.07600003,20.0760001 C5.81000002,20.3140001 4.17200002,22.7220001 4.17200002,22.7360001 L4.17200002,15.6380001 C4.17772449,15.297732 4.25901861,14.9629915 4.41000002,14.6580001 C4.61969573,14.1733041 4.97107745,13.7633587 5.41800002,13.4820001 L20.6500001,4.67600002 C21.1960001,4.35400002 21.672,4.49400002 21.8260001,4.98400002 Z M15.0780001,15.1060001 C16.3660001,14.3640001 17.4020001,12.5580001 17.4020001,11.088 C17.4020001,9.61800004 16.3520001,9.00200004 15.0640001,9.75800004 C13.7760001,10.514 12.7400001,12.2920001 12.7400001,13.7760001 C12.7400001,15.2600001 13.7900001,15.8480001 15.0780001,15.1060001" id="Shape" fill="#FFFFFF"></path>
                            <path d="M15.0640001,9.75800004 C16.3520001,9.00200004 17.3880001,9.60400004 17.4020001,11.088 C17.4160001,12.5720001 16.3660001,14.3640001 15.0780001,15.1060001 C13.7900001,15.8480001 12.7400001,15.2460001 12.7400001,13.7760001 C12.7400001,12.3060001 13.7760001,10.5 15.0640001,9.75800004 Z" id="Path" fill="#E01E31"></path>
                            <polygon id="Path" fill="#C5C5C4" points="2.52000001 39.5500002 0.126000001 38.0520002 0.0560000002 13.2720001 2.45000001 14.7560001"></polygon>
                            <polygon id="Path" fill="#C5C5C4" points="3.93400002 12.1800001 1.54000001 10.696 19.7120001 0.210000001 22.1060001 1.69400001"></polygon>
                            <path d="M2.45000001,14.7560001 L0.0560000002,13.2720001 C0.0634796809,12.8644006 0.158994961,12.4632364 0.336000001,12.0960001 C0.590641901,11.5209076 1.00950433,11.0338583 1.54000001,10.696 L3.93400002,12.1800001 C3.40026015,12.5202864 2.98085612,13.0128423 2.73000001,13.5940001 C2.55153828,13.955736 2.45588904,14.3526803 2.45000001,14.7560001 L2.45000001,14.7560001 Z" id="Path" fill="#C5C5C4"></path>
                        </g>
                    </g>
                </g>
            </g>
        </g>
    </g>
</svg>