<?xml version="1.0" encoding="UTF-8" standalone="no"?>
<svg width="37px" height="50px" viewBox="0 0 37 50" version="1.1" xmlns="http://www.w3.org/2000/svg" xmlns:xlink="http://www.w3.org/1999/xlink" xmlns:sketch="http://www.bohemiancoding.com/sketch/ns">
    <!-- Generator: Sketch 3.3.2 (12043) - http://www.bohemiancoding.com/sketch -->
    <title>eur</title>
    <g fill-rule="evenodd">
            <path d="M34.2198582,41.5957447 L35.4609929,47.1631206 C35.5319149,47.4468085 35.4964539,47.7304965 35.3546099,47.9432624 C35.212766,48.1914894 35,48.3687943 34.751773,48.4751773 L34.5744681,48.5106383 C34.4680851,48.5815603 34.3617021,48.6170213 34.1843972,48.6524823 C34.0425532,48.6879433 33.8297872,48.7588652 33.6170213,48.8297872 C33.4042553,48.9007092 33.1205674,48.9716312 32.8723404,49.0425532 C32.5886525,49.1134752 32.2695035,49.1843972 31.9858156,49.2198582 C31.6666667,49.2907801 31.3120567,49.3617021 30.9219858,49.3971631 C30.5319149,49.4680851 30.141844,49.5035461 29.751773,49.5744681 C29.3617021,49.6453901 28.9361702,49.6808511 28.4751773,49.6808511 C28.0141844,49.6808511 27.5531915,49.7163121 27.1276596,49.7163121 C21.6666667,49.7163121 16.8794326,48.1914894 12.8014184,45.141844 C8.72340426,42.0921986 5.92198582,37.9787234 4.46808511,32.8014184 L1.13475177,32.8014184 C0.815602837,32.8014184 0.567375887,32.6950355 0.354609929,32.4468085 C0.141843972,32.2340426 1.59872116e-13,31.9503546 1.59872116e-13,31.6666667 L1.59872116e-13,27.6595745 C1.59872116e-13,27.3404255 0.106382979,27.0921986 0.354609929,26.8794326 C0.567375887,26.6666667 0.85106383,26.5248227 1.13475177,26.5248227 L3.43971631,26.5248227 C3.36879433,25.177305 3.40425532,23.9716312 3.4751773,22.8368794 L1.13475177,22.8368794 C0.815602837,22.8368794 0.531914894,22.7304965 0.319148936,22.5177305 C0.106382979,22.3049645 1.59872116e-13,22.0212766 1.59872116e-13,21.7021277 L1.59872116e-13,17.7304965 C1.59872116e-13,17.4113475 0.106382979,17.1276596 0.319148936,16.9148936 C0.531914894,16.7021277 0.815602837,16.5957447 1.13475177,16.5957447 L4.57446809,16.5957447 C6.13475177,11.6666667 9.0070922,7.73049645 13.1205674,4.75177305 C17.2340426,1.73758865 21.9148936,0.24822695 27.1631206,0.24822695 C29.5390071,0.24822695 31.8085106,0.531914894 33.9716312,1.06382979 C34.2198582,1.13475177 34.4680851,1.31205674 34.6808511,1.59574468 C34.822695,1.84397163 34.858156,2.12765957 34.787234,2.44680851 L33.2624113,8.0141844 C33.1914894,8.33333333 33.0141844,8.54609929 32.7659574,8.72340426 C32.5177305,8.86524823 32.2340426,8.90070922 31.9148936,8.82978723 L31.7730496,8.79432624 C31.6666667,8.79432624 31.5248227,8.72340426 31.3475177,8.68794326 L30.7092199,8.54609929 L29.929078,8.40425532 L29.0070922,8.29787234 L27.9787234,8.19148936 L26.9503546,8.15602837 C24.0070922,8.15602837 21.3475177,8.90070922 19.0070922,10.3900709 C16.6666667,11.8794326 14.893617,13.9361702 13.7588652,16.5602837 L30.177305,16.5602837 C30.5673759,16.5602837 30.8510638,16.7021277 31.0638298,16.9858156 C31.3120567,17.2695035 31.3829787,17.5886525 31.3120567,17.9078014 L30.4609929,21.9148936 C30.3191489,22.5177305 29.964539,22.8368794 29.3262411,22.8368794 L12.2340426,22.8368794 C12.1631206,23.7234043 12.1631206,24.929078 12.2340426,26.5248227 L28.3333333,26.5248227 C28.6879433,26.5248227 28.9716312,26.6666667 29.2198582,26.9503546 C29.4326241,27.2340426 29.5035461,27.5531915 29.4326241,27.9078014 L28.5815603,31.8439716 C28.5106383,32.0921986 28.4042553,32.3404255 28.1914894,32.5177305 C27.9787234,32.6950355 27.7304965,32.8014184 27.4822695,32.8014184 L13.9007092,32.8014184 C15.035461,35.5319149 16.7730496,37.6950355 19.1489362,39.3262411 C21.5248227,40.9219858 24.1843972,41.7375887 27.1631206,41.7375887 C27.5886525,41.7375887 28.0141844,41.7021277 28.4397163,41.6666667 C28.8652482,41.6312057 29.2553191,41.5957447 29.6099291,41.5248227 C29.964539,41.4539007 30.3191489,41.4184397 30.6382979,41.3475177 C30.9574468,41.2765957 31.2765957,41.2056738 31.4893617,41.1702128 C31.7375887,41.0992908 31.9503546,41.0638298 32.1631206,40.9929078 L32.5886525,40.8865248 L32.7659574,40.8156028 C33.0851064,40.6737589 33.3687943,40.7092199 33.6879433,40.8865248 C33.9716312,41.0283688 34.1489362,41.2765957 34.2198582,41.5957447 L34.2198582,41.5957447 Z"></path>
    </g>
</svg>