<?xml version="1.0" encoding="UTF-8" standalone="no"?>
<svg width="105px" height="100px" viewBox="0 0 105 100" version="1.1" xmlns="http://www.w3.org/2000/svg" xmlns:xlink="http://www.w3.org/1999/xlink" xmlns:sketch="http://www.bohemiancoding.com/sketch/ns">
    <!-- Generator: Sketch 3.3.2 (12043) - http://www.bohemiancoding.com/sketch -->
    <title>facebook-thumb</title>
    <g fill-rule="evenodd">
            <g>
                <path d="M31.7525773,89.6907216 L32.5773196,90.1030928 C33.2989691,90.4123711 34.0206186,90.9278351 34.8453608,91.5463918 C38.4536082,94.5360825 43.2989691,94.6391753 43.4020619,94.6391753 L83.7113402,94.6391753 C87.4226804,94.4329897 90.2061856,91.443299 90.2061856,87.8350515 C90.2061856,86.7010309 89.8969072,85.6701031 89.3814433,84.742268 L87.8350515,81.9587629 L91.0309278,81.443299 C94.4329897,80.9278351 96.9072165,78.0412371 96.9072165,74.742268 C96.9072165,73.2989691 96.3917526,71.8556701 95.4639175,70.6185567 L93.4020619,68.0412371 L96.5979381,67.1134021 C99.4845361,66.185567 101.546392,63.6082474 101.546392,60.6185567 C101.546392,58.1443299 100.206186,55.8762887 97.9381443,54.742268 L94.8453608,52.9896907 L97.7319588,50.9278351 C99.4845361,49.5876289 100.515464,47.7319588 100.515464,45.5670103 C100.515464,43.814433 99.7938144,42.1649485 98.4536082,40.9278351 C97.0103093,39.5876289 94.4329897,37.1134021 92.4742268,37.1134021 L63.9175258,37.2164948 L66.7010309,24.4329897 C68.0412371,23.0927835 67.2164948,20.5154639 67.2164948,19.3814433 C67.2164948,11.6494845 60,2.4742268 53.814433,2.4742268 C52.6804124,2.4742268 49.8969072,4.32989691 48.8659794,4.84536082 L51.6494845,17.628866 C51.7525773,18.8659794 51.6494845,20 51.3402062,21.1340206 C51.0309278,22.2680412 50.6185567,23.2989691 50,24.3298969 L35.8762887,50 L31.6494845,53.5051546 L31.7525773,89.6907216 L31.7525773,89.6907216 Z" fill="#FFFFFF"></path>
                <g>
                    <path d="M44.742268,97.0103093 L44.742268,97.0103093 C44.5360825,97.0103093 38.556701,97.0103093 34.0206186,93.0927835 C33.6082474,92.7835052 33.2989691,92.5773196 32.9896907,92.371134 L29.5876289,90.8247423 L29.5876289,51.5463918 L34.4329897,47.4226804 L47.3195876,23.6082474 C47.628866,22.9896907 47.9381443,22.371134 48.1443299,21.7525773 C48.3505155,21.1340206 48.3505155,20.4123711 48.3505155,19.6907216 L46.9072165,3.71134021 L47.7319588,2.98969072 C49.5876289,1.44329897 51.9587629,0.618556701 54.4329897,0.618556701 C62.7835052,0.618556701 69.3814433,11.8556701 69.3814433,21.443299 C69.3814433,22.6804124 69.2783505,23.9175258 69.0721649,25.1546392 L67.5257732,34.9484536 L90.9278351,34.9484536 C93.9175258,34.9484536 96.8041237,36.185567 98.9690722,38.3505155 C101.030928,40.4123711 102.164948,43.0927835 102.164948,45.8762887 C102.164948,48.3505155 101.340206,50.6185567 99.8969072,52.4742268 C101.958763,54.5360825 103.195876,57.3195876 103.195876,60.2061856 C103.195876,64.1237113 101.237113,67.5257732 98.0412371,69.4845361 C98.556701,70.8247423 98.8659794,72.2680412 98.8659794,73.7113402 C98.8659794,78.1443299 96.185567,81.9587629 92.2680412,83.7113402 C92.4742268,84.5360825 92.5773196,85.3608247 92.5773196,86.2886598 C92.5773196,92.0618557 88.0412371,96.8041237 82.371134,97.1134021 L82.2680412,97.1134021 L44.742268,97.1134021 L44.742268,97.0103093 Z M33.9175258,88.0412371 L34.742268,88.4536082 C35.4639175,88.7628866 36.0824742,89.1752577 36.8041237,89.7938144 C40.1030928,92.5773196 44.6391753,92.6804124 44.742268,92.6804124 L82.0618557,92.6804124 C85.4639175,92.4742268 88.1443299,89.5876289 88.1443299,86.185567 C88.1443299,85.1546392 87.9381443,84.1237113 87.4226804,83.1958763 L86.0824742,80.5154639 L89.0721649,80 C92.1649485,79.4845361 94.4329897,76.8041237 94.4329897,73.6082474 C94.4329897,72.1649485 94.0206186,70.8247423 93.0927835,69.6907216 L91.2371134,67.2164948 L94.2268041,66.2886598 C96.9072165,65.4639175 98.7628866,62.9896907 98.7628866,60.1030928 C98.7628866,57.7319588 97.5257732,55.5670103 95.4639175,54.4329897 L92.5773196,52.7835052 L95.257732,50.8247423 C96.9072165,49.5876289 97.8350515,47.7319588 97.8350515,45.6701031 C97.8350515,44.0206186 97.2164948,42.4742268 95.9793814,41.2371134 C94.6391753,39.8969072 92.8865979,39.1752577 91.0309278,39.1752577 L62.4742268,39.1752577 L64.742268,24.3298969 C64.8453608,23.2989691 64.9484536,22.2680412 64.9484536,21.2371134 C64.9484536,13.814433 60.1030928,4.74226804 54.4329897,4.74226804 C53.4020619,4.74226804 52.371134,5.05154639 51.443299,5.56701031 L52.4742268,19.2783505 C52.5773196,20.4123711 52.4742268,21.5463918 52.1649485,22.6804124 C51.8556701,23.7113402 51.443299,24.742268 50.9278351,25.7731959 L37.8350515,50.2061856 L33.9175258,53.5051546 L33.9175258,88.0412371 L33.9175258,88.0412371 Z" fill="#32363B"></path>
                    <path d="M2.37113402,46.8041237 C2.26804124,46.8041237 2.26804124,46.9072165 2.37113402,46.8041237 L2.26804124,97.7319588 C2.26804124,97.8350515 2.37113402,97.8350515 2.37113402,97.8350515 L31.6494845,97.8350515 C31.7525773,97.8350515 31.7525773,97.7319588 31.7525773,97.7319588 L31.7525773,46.9072165 C31.7525773,46.8041237 31.6494845,46.8041237 31.6494845,46.8041237 L2.37113402,46.8041237 L2.37113402,46.8041237 Z" fill="#758FB5"></path>
                    <path d="M29.3814433,99.8969072 L4.53608247,99.8969072 C2.06185567,99.8969072 0,97.8350515 0,95.3608247 L0,48.4536082 C0,45.9793814 2.06185567,43.9175258 4.53608247,43.9175258 L29.4845361,43.9175258 C31.9587629,43.9175258 34.0206186,45.9793814 34.0206186,48.4536082 L34.0206186,95.4639175 C33.9175258,97.9381443 31.8556701,99.8969072 29.3814433,99.8969072 L29.3814433,99.8969072 Z M4.53608247,48.4536082 C4.43298969,48.4536082 4.43298969,48.556701 4.53608247,48.4536082 L4.43298969,95.5670103 C4.43298969,95.6701031 4.53608247,95.6701031 4.53608247,95.6701031 L29.4845361,95.6701031 C29.5876289,95.6701031 29.5876289,95.5670103 29.5876289,95.5670103 L29.5876289,48.556701 C29.5876289,48.4536082 29.4845361,48.4536082 29.4845361,48.4536082 L4.53608247,48.4536082 L4.53608247,48.4536082 Z" fill="#32363B"></path>
                </g>
            </g>
    </g>
</svg>