<?xml version="1.0" encoding="UTF-8" standalone="no"?>
<svg width="50px" height="50px" viewBox="0 0 50 50" version="1.1" xmlns="http://www.w3.org/2000/svg" xmlns:xlink="http://www.w3.org/1999/xlink" xmlns:sketch="http://www.bohemiancoding.com/sketch/ns">
    <!-- Generator: Sketch 3.3.2 (12043) - http://www.bohemiancoding.com/sketch -->
    <title>facebook</title>
    <g fill-rule="evenodd">
        <g fill="#3A589B">
            <path d="M21.09375,37.96875 L26.5625,37.96875 L26.5625,24.6875 L30.3125,24.6875 L30.78125,20.15625 L26.5625,20.15625 L26.5625,17.8125 C26.5625,16.5625 26.71875,15.9375 28.4375,15.9375 L30.78125,15.9375 L30.78125,11.40625 L27.03125,11.40625 C22.65625,11.40625 21.09375,13.59375 21.09375,17.34375 L21.09375,20.15625 L18.28125,20.15625 L18.28125,24.6875 L21.09375,24.6875 L21.09375,37.96875 L21.09375,37.96875 Z M24.6875,49.0625 C11.09375,49.0625 0.15625,38.125 0.15625,24.53125 C0.15625,10.9375 11.09375,0 24.6875,0 C38.28125,0 49.21875,10.9375 49.21875,24.53125 C49.0625,38.125 38.125,49.0625 24.6875,49.0625 L24.6875,49.0625 Z"></path>
        </g>
    </g>
</svg>