<?xml version="1.0" encoding="UTF-8" standalone="no"?>
<svg width="113px" height="99px" viewBox="0 0 113 99" version="1.1" xmlns="http://www.w3.org/2000/svg" xmlns:xlink="http://www.w3.org/1999/xlink" xmlns:sketch="http://www.bohemiancoding.com/sketch/ns">
    <!-- Generator: Sketch 3.3.2 (12043) - http://www.bohemiancoding.com/sketch -->
    <title>gift</title>
    <g fill-rule="evenodd">
            <path d="M67.8651685,86.2921348 L67.8651685,33.9325843 L44.494382,33.9325843 L44.494382,86.2921348 C44.494382,87.5280899 44.9438202,88.4269663 45.8426966,89.1011236 C46.741573,89.7752809 47.8651685,90.1123596 49.2134831,90.1123596 L63.258427,90.1123596 C64.6067416,90.1123596 65.7303371,89.7752809 66.6292135,89.1011236 C67.5280899,88.4269663 67.8651685,87.5280899 67.8651685,86.2921348 L67.8651685,86.2921348 Z M34.494382,24.494382 L48.7640449,24.494382 L39.5505618,12.6966292 C38.3146067,11.2359551 36.6292135,10.4494382 34.494382,10.4494382 C32.5842697,10.4494382 30.8988764,11.1235955 29.5505618,12.4719101 C28.2022472,13.8202247 27.5280899,15.505618 27.5280899,17.4157303 C27.5280899,19.3258427 28.2022472,21.011236 29.5505618,22.3595506 C30.8988764,23.8202247 32.5842697,24.494382 34.494382,24.494382 L34.494382,24.494382 Z M84.8314607,17.5280899 C84.8314607,15.6179775 84.1573034,13.9325843 82.8089888,12.5842697 C81.4606742,11.2359551 79.7752809,10.5617978 77.8651685,10.5617978 C75.7303371,10.5617978 74.0449438,11.3483146 72.8089888,12.8089888 L63.7078652,24.6067416 L77.8651685,24.6067416 C79.7752809,24.6067416 81.4606742,23.9325843 82.8089888,22.5842697 C84.1573034,21.1235955 84.8314607,19.4382022 84.8314607,17.5280899 L84.8314607,17.5280899 Z M112.359551,36.1797753 L112.359551,59.5505618 C112.359551,60.2247191 112.134831,60.7865169 111.685393,61.2359551 C111.235955,61.6853933 110.674157,61.9101124 110,61.9101124 L103.033708,61.9101124 L103.033708,92.3595506 C103.033708,94.2696629 102.359551,95.9550562 101.011236,97.3033708 C99.6629213,98.6516854 97.9775281,99.3258427 96.0674157,99.3258427 L16.5168539,99.3258427 C14.6067416,99.3258427 12.9213483,98.6516854 11.5730337,97.3033708 C10.2247191,95.9550562 9.5505618,94.2696629 9.5505618,92.3595506 L9.5505618,61.9101124 L2.58426966,61.9101124 C1.91011236,61.9101124 1.34831461,61.6853933 0.898876404,61.2359551 C0.449438202,60.7865169 0.224719101,60.2247191 0.224719101,59.5505618 L0.224719101,36.1797753 C0.224719101,35.505618 0.449438202,34.9438202 0.898876404,34.494382 C1.34831461,34.0449438 1.91011236,33.8202247 2.58426966,33.8202247 L34.7191011,33.8202247 C30.2247191,33.8202247 26.2921348,32.247191 23.1460674,28.988764 C20,25.7303371 18.3146067,21.9101124 18.3146067,17.4157303 C18.3146067,12.9213483 19.8876404,8.98876404 23.1460674,5.84269663 C26.2921348,2.69662921 30.2247191,1.01123596 34.7191011,1.01123596 C39.8876404,1.01123596 44.0449438,2.92134831 46.9662921,6.62921348 L56.2921348,18.6516854 L65.6179775,6.62921348 C68.5393258,2.92134831 72.6966292,1.01123596 77.8651685,1.01123596 C82.3595506,1.01123596 86.2921348,2.58426966 89.4382022,5.84269663 C92.5842697,8.98876404 94.2696629,12.9213483 94.2696629,17.4157303 C94.2696629,21.9101124 92.6966292,25.8426966 89.4382022,28.988764 C86.1797753,32.1348315 82.3595506,33.8202247 77.8651685,33.8202247 L110,33.8202247 C110.674157,33.8202247 111.235955,34.0449438 111.685393,34.494382 C112.134831,34.9438202 112.359551,35.505618 112.359551,36.1797753 L112.359551,36.1797753 Z" id="Shape" sketch:type="MSShapeGroup"></path>
    </g>
</svg>