<?xml version="1.0" encoding="UTF-8" standalone="no"?>
<svg width="51px" height="50px" viewBox="0 0 51 50" version="1.1" xmlns="http://www.w3.org/2000/svg" xmlns:xlink="http://www.w3.org/1999/xlink" xmlns:sketch="http://www.bohemiancoding.com/sketch/ns">
    <!-- Generator: Sketch 3.3.2 (12043) - http://www.bohemiancoding.com/sketch -->
    <title>google</title>
    <g fill-rule="evenodd">
            <g>
                <circle fill="#E02F2F" cx="25" cy="25" r="25"></circle>
                <g transform="translate(9.375000, 7.812500)" id="Shape" fill="#FFFFFF">
                    <path d="M20.3125,1.559375 L10.68125,1.559375 C6.275,1.559375 2.1265625,4.6515625 2.1265625,8.5171875 C2.1265625,12.4671875 5.1296875,15.5390625 9.6125,15.5390625 C9.925,15.5390625 10.228125,15.46875 10.525,15.446875 C10.23125,16.0015625 10.028125,16.5984375 10.028125,17.25 C10.028125,18.3484375 10.6171875,19.225 11.3625,19.9515625 C10.803125,19.9515625 10.2546875,19.959375 9.659375,19.959375 C4.2015625,19.9609375 0,23.434375 0,27.0390625 C0,30.5890625 4.60625,32.8125 10.0640625,32.8125 C16.2875,32.8125 19.725,29.278125 19.725,25.728125 C19.725,22.8828125 18.884375,21.1765625 16.2890625,19.3359375 C15.4,18.709375 13.7015625,17.1796875 13.7015625,16.2796875 C13.7015625,15.2265625 14.0015625,14.7078125 15.5890625,13.4671875 C17.2125,12.1984375 18.3640625,10.684375 18.3640625,8.60625 C18.3640625,6.1359375 17.3015625,3.121875 15.234375,3.121875 L18.75,3.121875 L20.3125,1.559375 L20.3125,1.559375 Z M17.0796875,25.1125 C17.1546875,25.44375 17.2,25.7828125 17.2,26.1265625 C17.2,28.9953125 15.3484375,31.2375 10.04375,31.2375 C6.2703125,31.2375 3.546875,28.85 3.546875,25.98125 C3.546875,23.1703125 6.9265625,20.828125 10.7015625,20.8703125 C11.5796875,20.8796875 12.4015625,21.021875 13.1453125,21.259375 C15.19375,22.6859375 16.6625,23.490625 17.0796875,25.1125 L17.0796875,25.1125 Z M11.0359375,14.4109375 C8.503125,14.3375 6.0953125,11.578125 5.659375,8.2546875 C5.2234375,4.9265625 6.921875,2.38125 9.453125,2.45625 C11.984375,2.534375 14.39375,5.203125 14.8296875,8.528125 C15.2671875,11.853125 13.56875,14.4859375 11.0359375,14.4109375 L11.0359375,14.4109375 Z"></path>
                    <path d="M28.125,14.0484375 L28.125,9.3609375 L25,9.3609375 L25,14.0484375 L20.3125,14.0484375 L20.3125,17.1734375 L25,17.1734375 L25,21.8609375 L28.125,21.8609375 L28.125,17.1734375 L32.8125,17.1734375 L32.8125,14.0484375 L28.125,14.0484375 Z"></path>
                </g>
            </g>
    </g>
</svg>