<?xml version="1.0" encoding="UTF-8" standalone="no"?>
<svg width="57px" height="50px" viewBox="0 0 57 50" version="1.1" xmlns="http://www.w3.org/2000/svg" xmlns:xlink="http://www.w3.org/1999/xlink" xmlns:sketch="http://www.bohemiancoding.com/sketch/ns">
    <!-- Generator: Sketch 3.3.2 (12043) - http://www.bohemiancoding.com/sketch -->
    <title>heart</title>
    <g fill-rule="evenodd">
            <path d="M28.5714286,49.1428571 C28,49.1428571 27.5714286,49 27.1428571,48.5714286 L7.28571429,29.4285714 C7.14285714,29.2857143 6.71428571,29 6.42857143,28.5714286 C6,28.1428571 5.42857143,27.4285714 4.71428571,26.4285714 C4,25.4285714 3.14285714,24.4285714 2.57142857,23.2857143 C2,22.2857143 1.42857143,21 0.857142857,19.4285714 C0.285714286,17.8571429 0.142857143,16.4285714 0.142857143,15 C0.142857143,10.2857143 1.42857143,6.71428571 4.14285714,4 C6.85714286,1.28571429 10.5714286,0 15.2857143,0 C16.5714286,0 18,0.285714286 19.2857143,0.714285714 C20.7142857,1.14285714 22,1.85714286 23.1428571,2.57142857 C24.2857143,3.28571429 25.2857143,4.14285714 26.1428571,4.71428571 C27,5.42857143 27.8571429,6.14285714 28.5714286,6.85714286 C29.2857143,6.14285714 30.1428571,5.42857143 31,4.71428571 C31.8571429,4 32.8571429,3.28571429 34,2.57142857 C35.1428571,1.85714286 36.4285714,1.14285714 37.8571429,0.714285714 C39.2857143,0.285714286 40.5714286,0 41.8571429,0 C46.5714286,0 50.2857143,1.28571429 53,4 C55.7142857,6.71428571 57,10.2857143 57,15 C57,19.7142857 54.5714286,24.4285714 49.7142857,29.2857143 L30,48.5714286 C29.5714286,49 29.1428571,49.1428571 28.5714286,49.1428571 L28.5714286,49.1428571 Z"></path>
    </g>
</svg>