<?xml version="1.0" encoding="UTF-8" standalone="no"?>
<svg
   xmlns:dc="http://purl.org/dc/elements/1.1/"
   xmlns:cc="http://creativecommons.org/ns#"
   xmlns:rdf="http://www.w3.org/1999/02/22-rdf-syntax-ns#"
   xmlns:svg="http://www.w3.org/2000/svg"
   xmlns="http://www.w3.org/2000/svg"
   xmlns:sodipodi="http://sodipodi.sourceforge.net/DTD/sodipodi-0.dtd"
   xmlns:inkscape="http://www.inkscape.org/namespaces/inkscape"
   width="45"
   height="60"
   viewBox="0 0 45 60"
   version="1.1"
   id="svg12"
   sodipodi:docname="hochkant.svg"
   inkscape:version="0.92.4 (5da689c313, 2019-01-14)">
  <metadata
     id="metadata18">
    <rdf:RDF>
      <cc:Work
         rdf:about="">
        <dc:format>image/svg+xml</dc:format>
        <dc:type
           rdf:resource="http://purl.org/dc/dcmitype/StillImage" />
        <dc:title></dc:title>
      </cc:Work>
    </rdf:RDF>
  </metadata>
  <defs
     id="defs16">
    <clipPath
       clipPathUnits="userSpaceOnUse"
       id="clipPath4551">
      <rect
         style="stroke-width:0;stroke-miterlimit:4;stroke-dasharray:none"
         id="rect4553"
         width="45"
         height="60"
         x="0"
         y="0" />
    </clipPath>
  </defs>
  <sodipodi:namedview
     pagecolor="#ffffff"
     bordercolor="#666666"
     borderopacity="1"
     objecttolerance="10"
     gridtolerance="10"
     guidetolerance="10"
     inkscape:pageopacity="0"
     inkscape:pageshadow="2"
     inkscape:window-width="2048"
     inkscape:window-height="1017"
     id="namedview14"
     showgrid="false"
     inkscape:zoom="6.6939442"
     inkscape:cx="61.119601"
     inkscape:cy="24.855001"
     inkscape:window-x="2040"
     inkscape:window-y="-8"
     inkscape:window-maximized="1"
     inkscape:current-layer="svg12" />
  <g
     inkscape:groupmode="layer"
     id="layer1"
     inkscape:label="Layer 1"
     style="display:none" />
  <g
     id="g4539"
     style="display:inline"
     clip-path="url(#clipPath4551)">
    <path
       style="fill:#f5f5f5"
       inkscape:connector-curvature="0"
       id="path2"
       d="m 0.5,0.5 h 120 v 60 H 0.5 Z" />
    <path
       style="display:inline;fill:#cdcdcd"
       inkscape:connector-curvature="0"
       id="path4"
       d="M 119,1 V 59 H 1 V 1 Z m 1,-1 H 0 v 60 h 120 z" />
    <path
       style="display:inline;fill:#e0e0e0"
       inkscape:connector-curvature="0"
       id="path6"
       d="M 8,59 8.52,58.38 25,39 l 9,7 19,-21 11,9 6,-6 21,17 3,-3 22,17 z" />
    <path
       style="display:inline;fill:#e0e0e0;stroke-width:0;stroke-miterlimit:4;stroke-dasharray:none"
       d="M 38,26.5 A 6.5,6.5 0 0 1 31.5,33 6.5,6.5 0 0 1 25,26.5 6.5,6.5 0 0 1 31.5,20 6.5,6.5 0 0 1 38,26.5 Z"
       id="circle8"
       inkscape:connector-curvature="0" />
    <path
       d="M 44,1 V 59 H -74 V 1 Z M 45,0 H -75 V 60 H 45 Z"
       id="path4530"
       inkscape:connector-curvature="0"
       style="display:inline;fill:#cdcdcd" />
  </g>
</svg>
