<svg xmlns="http://www.w3.org/2000/svg" width="200" height="200" viewBox="0 0 200 200"><path d="M100.7,186.1a84.7,84.7,0,0,0,13.2-1c39.4-5.9,70.5-38.9,74-78.6a87.5,87.5,0,0,0-95-95.2C53.2,14.7,20,45.9,14.2,85.3a86.1,86.1,0,0,0,8.5,52.8l-8.9,33.2A11.4,11.4,0,0,0,28,185.5l33.2-8.9A86.2,86.2,0,0,0,100.7,186.1ZM116,128.2v14.6a7.3,7.3,0,0,1-7.3,7.3H94.1a7.3,7.3,0,0,1-7.3-7.3V128.2a7.3,7.3,0,0,1,7.3-7.3h14.6A7.3,7.3,0,0,1,116,128.2ZM130.2,77c1.6,22-13,21.6-15.5,33.4a4.2,4.2,0,0,1-4,3.2H90.9a3.7,3.7,0,0,1-3.6-4.2c2-16.5,18.7-17.1,19.1-28.4.1-4.9-4.1-7.5-8.6-7.6a11.1,11.1,0,0,0-10.5,7.8,4.4,4.4,0,0,1-4.1,3.2H69.3a3.3,3.3,0,0,1-3.4-3.6c1.7-16.6,15.1-30.6,32-30.6C113.3,50.1,128.8,58,130.2,77Z" /></svg>