<svg xmlns="http://www.w3.org/2000/svg" width="200" height="200" viewBox="0 0 200 200"><path d="M81.7,173.2a11,11,0,1,1-11-11A11,11,0,0,1,81.7,173.2Zm62.5-11a11,11,0,1,0,11,11A11.1,11.1,0,0,0,144.2,162.2ZM191.7,43.3,177,109.5a11,11,0,0,1-10.8,8.6H72.7l3.2,14.7h79.3a7.3,7.3,0,0,1,7.3,7.3v7.4a7.3,7.3,0,0,1-7.3,7.3H67a10.9,10.9,0,0,1-10.7-8.6L32.4,37.3H15.6a7.4,7.4,0,0,1-7.4-7.4V22.6a7.4,7.4,0,0,1,7.4-7.4H41.3a11,11,0,0,1,10.8,8.7l1.3,6H180.9a11,11,0,0,1,8.6,4.1A11.3,11.3,0,0,1,191.7,43.3Z"/></svg>