<svg xmlns="http://www.w3.org/2000/svg" width="282.6" height="200" viewBox="0 0 282.6 200"><path d="M271.5,142.9c0-10.9-1.7-26.7-3.7-32.6s-17.4-11.7-17.4-11.7l-27-34.4a6.8,6.8,0,0,0-5.5-2.6H189.2a4.5,4.5,0,0,0-4.5,4.4v70.7h-6.8V46.1c0-4.3-3.1-6.2-6.9-6.2H64.7c-3.8,0-6.9,2.8-6.9,6.2V154a6.4,6.4,0,0,0,6.4,6.4h12v-.5a27.3,27.3,0,0,1,54.6,0v.5h66.8c0-.2-.1-.4-.1-.6a27.4,27.4,0,1,1,54.7,0v.6h17.5a32,32,0,0,0,3.5-13.6C273.2,144.8,271.5,145.3,271.5,142.9Zm-36.9-43H192.3V69h25.9l18.2,24.4C240,98.2,239.2,99.9,234.6,99.9Z" /><path d="M103.5,140.6a19.3,19.3,0,1,0,19.3,19.3A19.3,19.3,0,0,0,103.5,140.6Z" /><path d="M224.9,140.4a19.4,19.4,0,1,0,19.3,19.4A19.4,19.4,0,0,0,224.9,140.4Z" /><path d="M49.8,57.9H14.5a7,7,0,1,0,0,14H49.8Z" /><path d="M49.8,85.8H25.4a7,7,0,1,0,0,14H49.8Z" /><path d="M49.8,113.7H36.3a7,7,0,1,0,0,14H49.8Z" /></svg>