<?xml version="1.0" encoding="UTF-8" standalone="no"?>
<svg width="50px" height="50px" viewBox="0 0 50 50" version="1.1" xmlns="http://www.w3.org/2000/svg" xmlns:xlink="http://www.w3.org/1999/xlink" xmlns:sketch="http://www.bohemiancoding.com/sketch/ns">
    <!-- Generator: Sketch 3.3.2 (12043) - http://www.bohemiancoding.com/sketch -->
    <title>info-circle</title>
    <g fill-rule="evenodd">
            <path d="M32.6960784,40.2941176 L32.6960784,35.1960784 C32.6960784,34.9019608 32.5980392,34.6568627 32.4019608,34.4607843 C32.2058824,34.2647059 31.9607843,34.1666667 31.6666667,34.1666667 L28.627451,34.1666667 L28.627451,17.8431373 C28.627451,17.5490196 28.5294118,17.3039216 28.3333333,17.1078431 C28.1372549,16.9117647 27.8921569,16.8137255 27.5980392,16.8137255 L17.4019608,16.8137255 C17.1078431,16.8137255 16.8627451,16.9117647 16.6666667,17.1078431 C16.4705882,17.3039216 16.372549,17.5490196 16.372549,17.8431373 L16.372549,22.9411765 C16.372549,23.2352941 16.4705882,23.4803922 16.6666667,23.6764706 C16.8627451,23.872549 17.1078431,23.9705882 17.4019608,23.9705882 L20.4411765,23.9705882 L20.4411765,34.1666667 L17.4019608,34.1666667 C17.1078431,34.1666667 16.8627451,34.2647059 16.6666667,34.4607843 C16.4705882,34.6568627 16.372549,34.9019608 16.372549,35.1960784 L16.372549,40.2941176 C16.372549,40.5882353 16.4705882,40.8333333 16.6666667,41.0294118 C16.8627451,41.2254902 17.1078431,41.3235294 17.4019608,41.3235294 L31.7156863,41.3235294 C32.0098039,41.3235294 32.254902,41.2254902 32.4509804,41.0294118 C32.6470588,40.8333333 32.6960784,40.6372549 32.6960784,40.2941176 L32.6960784,40.2941176 Z M28.5784314,11.7156863 L28.5784314,6.61764706 C28.5784314,6.32352941 28.4803922,6.07843137 28.2843137,5.88235294 C28.0882353,5.68627451 27.8431373,5.58823529 27.5490196,5.58823529 L21.4215686,5.58823529 C21.127451,5.58823529 20.8823529,5.68627451 20.6862745,5.88235294 C20.4901961,6.07843137 20.3921569,6.32352941 20.3921569,6.61764706 L20.3921569,11.7156863 C20.3921569,12.0098039 20.4901961,12.254902 20.6862745,12.4509804 C20.8823529,12.6470588 21.127451,12.745098 21.4215686,12.745098 L27.5490196,12.745098 C27.8431373,12.745098 28.0882353,12.6470588 28.2843137,12.4509804 C28.4803922,12.254902 28.5784314,12.0098039 28.5784314,11.7156863 L28.5784314,11.7156863 Z M49.0196078,25 C49.0196078,29.4607843 47.9411765,33.5294118 45.7352941,37.3039216 C43.5294118,41.0784314 40.5882353,44.0196078 36.8137255,46.2254902 C33.0392157,48.4313725 28.9705882,49.5098039 24.5098039,49.5098039 C20.0490196,49.5098039 15.9803922,48.4313725 12.2058824,46.2254902 C8.43137255,44.0196078 5.49019608,41.0784314 3.28431373,37.3039216 C1.07843137,33.5294118 0,29.4607843 0,25 C0,20.5392157 1.07843137,16.4705882 3.28431373,12.6960784 C5.49019608,8.92156863 8.43137255,5.98039216 12.2058824,3.7745098 C15.9803922,1.56862745 20.0490196,0.490196078 24.5098039,0.490196078 C28.9705882,0.490196078 33.0392157,1.56862745 36.8137255,3.7745098 C40.5882353,5.98039216 43.5294118,8.92156863 45.7352941,12.6960784 C47.9411765,16.4705882 49.0196078,20.5392157 49.0196078,25 L49.0196078,25 Z" id="Shape"></path>
    </g>
</svg>