<svg xmlns="http://www.w3.org/2000/svg" width="24" height="24" viewBox="0 0 24 24">
  <defs>
    <linearGradient id="a" x1="-.167%" x2="93.417%" y1="99.542%" y2="6.792%">
      <stop offset="0%" stop-color="#F9ED32"/>
      <stop offset="9%" stop-color="#F9ED32"/>
      <stop offset="29%" stop-color="#F49A51"/>
      <stop offset="49%" stop-color="#F04A6F"/>
      <stop offset="58%" stop-color="#EE2A7B"/>
      <stop offset="62%" stop-color="#E22A82"/>
      <stop offset="69%" stop-color="#C12A94"/>
      <stop offset="78%" stop-color="#8D2AB1"/>
      <stop offset="89%" stop-color="#452AD9"/>
      <stop offset="98%" stop-color="#002AFF"/>
      <stop offset="100%" stop-color="#002AFF"/>
    </linearGradient>
  </defs>
  <g fill="none">
    <circle cx="12" cy="12" r="12" fill="url(#a)"/>
    <path fill="#FFF" d="M12,6.06 C13.94,6.06 14.17,6.06 14.93,6.06 C15.7499057,5.97018889 16.5662745,6.25726811 17.1495032,6.84049679 C17.7327319,7.42372546 18.0198111,8.24009431 17.93,9.06 C17.93,9.82 17.93,10.06 17.93,11.99 C17.93,13.92 17.93,14.16 17.93,14.92 C18.0198111,15.7399057 17.7327319,16.5562745 17.1495032,17.1395032 C16.5662745,17.7227319 15.7499057,18.0098111 14.93,17.92 C14.17,17.92 13.93,17.92 12,17.92 C10.07,17.92 9.83,17.92 9.07,17.92 C8.25009431,18.0098111 7.43372546,17.7227319 6.85049679,17.1395032 C6.26726811,16.5562745 5.98018889,15.7399057 6.07,14.92 C6.07,14.16 6.07,13.92 6.07,11.99 C6.07,10.06 6.07,9.83 6.07,9.06 C5.98018889,8.24009431 6.26726811,7.42372546 6.85049679,6.84049679 C7.43372546,6.25726811 8.25009431,5.97018889 9.07,6.06 C9.84,6.06 10.06,6.06 12,6.06 Z M12,4.75 C10,4.75 9.78,4.75 9,4.75 C7.85838578,4.68763278 6.74464933,5.11676158 5.9400339,5.92902181 C5.13541846,6.74128205 4.7168404,7.85902657 4.79,9 C4.79,9.77 4.79,10 4.79,12 C4.79,14 4.79,14.22 4.79,15 C4.72871072,16.1342424 5.15254547,17.2410535 5.95574597,18.044254 C6.75894648,18.8474545 7.86575764,19.2712893 9,19.21 C9.77,19.21 10,19.21 12,19.21 C14,19.21 14.22,19.21 15,19.21 C16.1342424,19.2712893 17.2410535,18.8474545 18.044254,18.044254 C18.8474545,17.2410535 19.2712893,16.1342424 19.21,15 C19.21,14.23 19.21,14 19.21,12 C19.21,10 19.21,9.78 19.21,9 C19.2712893,7.86575764 18.8474545,6.75894648 18.044254,5.95574597 C17.2410535,5.15254547 16.1342424,4.72871072 15,4.79 C14.22,4.76 14,4.75 12,4.75 Z M12,8.28 C9.94550073,8.28 8.28,9.94550073 8.28,12 C8.28,14.0544993 9.94550073,15.72 12,15.72 C14.0544993,15.72 15.72,14.0544993 15.72,12 C15.72,11.0133947 15.3280726,10.0671981 14.6304372,9.36956277 C13.9328019,8.67192745 12.9866053,8.28 12,8.28 Z M12,14.42 C11.0212014,14.42 10.1387816,13.8303859 9.76421153,12.9260939 C9.38964151,12.0218019 9.59668644,10.9809167 10.2888016,10.2888016 C10.9809167,9.59668644 12.0218019,9.38964151 12.9260939,9.76421153 C13.8303859,10.1387816 14.42,11.0212014 14.42,12 C14.42,13.3365291 13.3365291,14.42 12,14.42 L12,14.42 Z M15.87,7.26 C15.3895123,7.26 15,7.64951227 15,8.13 C15,8.61048773 15.3895123,9 15.87,9 C16.3504877,9 16.74,8.61048773 16.74,8.13 C16.74,7.64951227 16.3504877,7.26 15.87,7.26 L15.87,7.26 Z"/>
  </g>
</svg>
