<svg xmlns="http://www.w3.org/2000/svg" viewBox="0 0 1080 100.4"><path d="M1.8 3.1h95.8v94.5H1.8z" fill="#35b2b6"/><path d="M509.7 92.3c-7.8-4.1-14-9.9-18.4-17.2-4.5-7.4-6.7-15.7-6.7-24.9 0-9.3 2.2-17.6 6.7-24.9 4.5-7.4 10.6-13.1 18.4-17.2s16.6-6.2 26.4-6.2c8.2 0 15.7 1.4 22.3 4.3s12.2 7 16.7 12.3L561 31.2c-6.4-7.3-14.4-11-23.8-11-5.9 0-11.1 1.3-15.7 3.8s-8.2 6.1-10.8 10.6-3.9 9.7-3.9 15.5 1.3 11 3.9 15.5 6.2 8.1 10.8 10.6 9.8 3.8 15.7 3.8c9.5 0 17.4-3.7 23.8-11.1l14.1 12.8c-4.5 5.4-10.1 9.6-16.8 12.4-6.7 2.9-14.1 4.3-22.4 4.3-9.7.1-18.4-2-26.2-6.1zm146.9-15.5h-44l-8.4 20h-22.5L624 3.3h21.7L688 96.9h-23l-8.4-20.1zm-7-16.4l-15-35.8-15 35.8h30zm138.5-57v93.5h-18l-47.3-56.8v56.8h-21.7V3.4h18.2l47.2 56.8V3.4h21.6zm116.3 0l-41.1 93.5h-21.7L800.8 3.4h23.7l28.9 66.8 29.3-66.8h21.7zm60.7 73.4h-44l-8.4 20h-22.5l42.3-93.5h21.7l42.4 93.5h-23l-8.5-20zm-7-16.4l-15-35.8-15 35.8h30zm58 35.1c-7-2-12.6-4.6-16.9-7.8l7.5-16.3c4.1 2.9 8.9 5.3 14.5 7.1s11.2 2.7 16.8 2.7c6.2 0 10.8-.9 13.8-2.7s4.5-4.3 4.5-7.3c0-2.2-.9-4.1-2.6-5.5-1.8-1.5-4-2.7-6.8-3.5-2.8-.9-6.5-1.9-11.2-2.9-7.2-1.7-13.1-3.4-17.8-5.1A28.68 28.68 0 0 1 1006 46c-3.3-3.7-4.9-8.7-4.9-15 0-5.4 1.5-10.4 4.5-14.8s7.5-7.9 13.5-10.5 13.3-3.9 22-3.9c6.1 0 12 .7 17.8 2.1s10.8 3.5 15.2 6.1l-6.8 16.4c-8.8-4.9-17.5-7.4-26.3-7.4-6.1 0-10.7 1-13.6 2.9-2.9 2-4.4 4.5-4.4 7.8 0 3.2 1.7 5.6 5.1 7.2s8.6 3.1 15.5 4.6c7.2 1.7 13.1 3.4 17.8 5.1a30.2 30.2 0 0 1 11.9 8c3.3 3.7 4.9 8.6 4.9 14.8 0 5.3-1.5 10.2-4.5 14.6s-7.6 7.9-13.6 10.5c-6.1 2.6-13.4 3.9-22.1 3.9-7.7.1-14.9-.9-21.9-2.9zM203 56.7c3 3.9 4.6 8.8 4.6 14.5 0 8.1-3.2 14.4-9.6 18.8s-15.8 6.6-28 6.6h-48.7V3.7h46c11.5 0 20.3 2.2 26.4 6.5s9.2 10.2 9.2 17.6c0 4.5-1.1 8.5-3.3 12.1-2.2 3.5-5.3 6.3-9.2 8.4 5.3 1.7 9.5 4.5 12.6 8.4zm-60.1-36.8v21.9h21.7c5.4 0 9.5-.9 12.2-2.8 2.8-1.9 4.2-4.6 4.2-8.2s-1.4-6.3-4.2-8.2c-2.8-1.8-6.9-2.7-12.2-2.7h-21.7zm38.4 57.7c2.9-1.9 4.4-4.7 4.4-8.6 0-7.7-5.8-11.5-17.4-11.5h-25.4v22.9h25.4c5.7 0 10-1 13-2.8zm114 1.7v17.2h-72.9V3.7h71.2V21H244v20.2h43.7v16.7H244v21.5h51.3zm30.8 15.8c-7-2-12.5-4.6-16.7-7.8l7.4-16.2c4 2.9 8.8 5.3 14.4 7 5.6 1.8 11.1 2.7 16.7 2.7 6.2 0 10.8-.9 13.7-2.7 3-1.8 4.4-4.2 4.4-7.2 0-2.2-.9-4-2.6-5.5s-4-2.6-6.7-3.5-6.4-1.9-11.1-2.9c-7.2-1.7-13-3.4-17.6-5-4.6-1.7-8.5-4.4-11.8-8.1s-4.9-8.7-4.9-14.8c0-5.4 1.5-10.3 4.4-14.7 3-4.4 7.4-7.8 13.4-10.4s13.2-3.8 21.9-3.8c6 0 11.9.7 17.6 2.1s10.8 3.4 15.1 6.1L377 26.7c-8.7-4.9-17.4-7.3-26.1-7.3-6.1 0-10.6 1-13.5 2.9S333 26.8 333 30s1.7 5.5 5 7.1c3.4 1.5 8.5 3.1 15.4 4.6 7.2 1.7 13 3.4 17.6 5 4.6 1.7 8.5 4.3 11.8 8 3.3 3.6 4.9 8.5 4.9 14.7 0 5.3-1.5 10.1-4.5 14.5s-7.5 7.8-13.5 10.4-13.3 3.8-21.9 3.8c-7.6 0-14.8-1-21.7-3zm97.8-73.9h-30.1V3.7h82.1v17.5h-30.1v75.3H424V21.2z" fill="#484849"/></svg>