<?xml version="1.0" encoding="utf-8"?>
<!-- Generator: Adobe Illustrator 26.0.1, SVG Export Plug-In . SVG Version: 6.00 Build 0)  -->
<svg version="1.1" id="Isolationsmodus" xmlns="http://www.w3.org/2000/svg" xmlns:xlink="http://www.w3.org/1999/xlink" x="0px"
	 y="0px" width="1143.3px" height="131.2px" viewBox="0 0 1143.3 131.2" enable-background="new 0 0 1143.3 131.2"
	 xml:space="preserve">
<g>
	<path fill="#35B2B6" d="M86.3,129.9V63h46.9v2.7c0,20,0,40,0,60.1c0,3.8-0.4,4.1-4.3,4.1H86.3z"/>
	<path fill="#35B2B6" d="M66.8,63.2v66.6c-0.9,0-1.8,0.1-2.7,0.1h-40c-3.9,0-4.2-0.3-4.2-4c0-20.1,0-40.2,0-60.3v-2.4H66.8z"/>
	<path fill="#35B2B6" d="M72.9,32.4c-6.4-1-12.6-1.8-18.6-3c-7.7-1.6-15-4.2-21-9.4S28.6,6.4,36.1,3c10.8-4.9,26.5-1.5,33.9,7.5
		c2.7,3.3,4.7,7.1,7,10.5c1.6-5.5,5-10.4,9.7-13.8c8.2-6,17.5-8.1,27.5-5.3c4.8,1.3,8.9,3.9,9.4,9.3s-2.8,8.6-6.9,11.2
		c-9.2,5.6-19.5,7.9-30.2,9c-0.7,0.1-1.3,0.1-2,0.2l-4,0.4v97.8h-7.5V32.4z M83.7,25.1c6.6-1.5,12.9-2.6,18.9-4.4
		c4-1.3,7.8-3.1,11.3-5.5c3.4-2.3,2.9-4.6-1.1-5.8c-3.1-0.9-6.4-1.3-9.6-1.1C94.3,8.6,85.5,16,83.7,25.1z M69.2,24.5
		c-2.8-11.6-15.6-19-27-15.9c-1.9,0.5-4.5,1.8-5,3.3c-0.8,2.3,1.9,3.7,3.8,4.8C49.7,21.6,59.2,23.4,69.2,24.5z"/>
	<path fill="#35B2B6" d="M86.4,31.7h50.8c3.2,0,3.9,0.6,3.9,3.6c0,6.2,0,12.4,0,18.6c0,2.2-0.9,3.3-3.3,3.3H87.1
		c-0.2,0-0.5-0.1-0.7-0.2L86.4,31.7z"/>
	<path fill="#35B2B6" d="M66.7,31.9v25.3H16.4c-4,0-4.4-0.4-4.4-4.3c0-6.1,0-12.1,0-18.2c0-1.9,0.6-3.1,2.9-3.1h51
		C66.1,31.8,66.4,31.8,66.7,31.9z"/>
</g>
<path fill="#484849" d="M562.2,124c-7.8-4.1-14.3-10.3-18.8-17.8c-4.6-7.8-7-16.7-6.8-25.8c-0.1-9,2.2-18,6.8-25.7
	c4.5-7.5,11-13.7,18.8-17.8c8.3-4.4,17.5-6.6,26.8-6.5c7.8-0.1,15.5,1.4,22.7,4.4c6.6,2.8,12.4,7.2,17,12.7l-14.3,13.3
	c-6.5-7.6-14.6-11.3-24.3-11.3c-5.6-0.1-11.1,1.3-16,3.9c-4.6,2.6-8.4,6.4-11,11c-2.7,4.9-4,10.4-3.9,16c-0.1,5.6,1.3,11.1,3.9,16
	c2.6,4.6,6.4,8.4,11,11c4.9,2.7,10.4,4,16,3.9c9.7,0,17.8-3.8,24.3-11.5l14.3,13.3c-4.6,5.6-10.5,10-17.1,12.8
	c-7.2,3-15,4.5-22.8,4.4C579.6,130.6,570.4,128.4,562.2,124z"/>
<path fill="#484849" d="M712.8,108.1h-44.9l-8.6,20.7h-22.9l43.1-96.6h22.1l43.2,96.6h-23.5L712.8,108.1z M705.8,91.1l-15.3-37
	l-15.3,37H705.8z"/>
<path fill="#484849" d="M846.7,32.2v96.6h-18.3l-48.2-58.6v58.6h-22.1V32.2h18.5l48,58.6V32.2H846.7z"/>
<path fill="#484849" d="M965.2,32.2l-41.8,96.6h-22.1l-41.7-96.6h24.2l29.4,69l29.8-69L965.2,32.2z"/>
<path fill="#484849" d="M1027,108.1h-44.8l-8.6,20.7h-22.9l43.1-96.6h22.1l43.2,96.6h-23.5L1027,108.1z M1020,91.1l-15.3-37
	l-15.3,37H1020z"/>
<path fill="#484849" d="M1079.9,127.4c-7.1-2.1-12.9-4.8-17.2-8.1l7.6-16.8c4.5,3.2,9.5,5.7,14.8,7.3c5.5,1.8,11.3,2.7,17.1,2.8
	c6.3,0,11-0.9,14.1-2.8s4.6-4.4,4.6-7.5c0-2.2-1-4.3-2.7-5.7c-2-1.7-4.4-2.9-6.9-3.7c-2.8-0.9-6.6-1.9-11.4-3
	c-6.1-1.4-12.2-3.1-18.1-5.2c-4.7-1.7-8.8-4.6-12.1-8.4c-3.3-3.9-5-9-5-15.5c-0.1-5.4,1.5-10.8,4.6-15.3c3-4.6,7.6-8.2,13.7-10.8
	s13.6-4,22.4-4c6.1,0,12.1,0.8,18,2.2c5.5,1.3,10.7,3.4,15.4,6.3l-6.9,17c-8.9-5.1-17.8-7.6-26.8-7.6c-6.3,0-10.9,1-13.9,3
	c-2.8,1.7-4.5,4.7-4.5,8c0,3.3,1.7,5.8,5.2,7.4c3.4,1.6,8.7,3.2,15.8,4.8c6.1,1.4,12.2,3.1,18.1,5.3c4.6,1.7,8.7,4.6,12,8.3
	c3.3,3.8,5,8.9,5,15.3c0,5.4-1.6,10.7-4.6,15.1c-3.1,4.5-7.7,8.2-13.9,10.8c-6.2,2.7-13.7,4-22.5,4
	C1094.5,130.5,1087.1,129.4,1079.9,127.4z"/>
<path fill="#484849" d="M249.7,87.3c3.2,4.3,4.8,9.6,4.7,15c0,8.4-3.3,14.9-9.8,19.4c-6.5,4.5-16.1,6.8-28.6,6.8h-49.6V32.5h46.9
	c11.7,0,20.7,2.2,26.9,6.7c6,4.1,9.6,10.9,9.4,18.2c0.2,8.9-4.8,17.1-12.7,21.1C241.9,80,246.4,83.1,249.7,87.3z M188.5,49.3v22.6
	h22.1c5.5,0,9.6-1,12.5-2.9c2.8-1.9,4.4-5.1,4.2-8.5c0.2-3.4-1.4-6.6-4.2-8.4c-2.8-1.9-7-2.8-12.5-2.8L188.5,49.3z M227.6,108.9
	c3-1.9,4.5-4.9,4.4-8.9c0-7.9-5.9-11.9-17.7-11.9h-25.9v23.7h25.9C220.2,111.7,224.6,110.8,227.6,108.9L227.6,108.9z"/>
<path fill="#484849" d="M343.7,110.6v17.8h-74.2V32.5h72.5v17.8h-50.4v20.8H336v17.3h-44.5v22.2H343.7z"/>
<path fill="#484849" d="M375.1,127c-7.1-2.1-12.8-4.7-17-8l7.5-16.7c4.5,3.2,9.4,5.6,14.7,7.3c5.5,1.8,11.2,2.7,17,2.7
	c6.3,0,11-0.9,14-2.8c3-1.9,4.5-4.4,4.5-7.5c0-2.2-1-4.3-2.7-5.7c-2-1.6-4.4-2.9-6.9-3.6c-2.8-0.9-6.5-1.9-11.3-3
	c-6.1-1.4-12.1-3.1-18-5.2c-4.6-1.7-8.8-4.6-12-8.3c-3.3-3.8-5-9-5-15.3c-0.1-5.4,1.5-10.7,4.5-15.1c3-4.5,7.6-8.1,13.7-10.8
	c6.1-2.6,13.5-4,22.3-4c6.1,0,12.1,0.7,18,2.2c5.4,1.3,10.6,3.4,15.3,6.3l-6.9,16.9c-8.9-5-17.7-7.5-26.6-7.5c-6.2,0-10.8,1-13.8,3
	c-2.8,1.7-4.5,4.7-4.5,8c0,3.3,1.7,5.7,5.1,7.3c3.4,1.6,8.7,3.2,15.7,4.7c6.1,1.4,12.1,3.1,17.9,5.2c4.6,1.7,8.7,4.5,12,8.2
	c3.3,3.7,5,8.8,5,15.2c0,5.4-1.6,10.6-4.6,15c-3.1,4.5-7.7,8.1-13.8,10.8c-6.1,2.6-13.6,4-22.3,4C389.7,130.1,382.3,129.1,375.1,127
	z"/>
<path fill="#484849" d="M474.7,50.6H444V32.5h83.6v18.1h-30.7v77.8h-22.2V50.6z"/>
</svg>
