<svg xmlns="http://www.w3.org/2000/svg" viewBox="0 0 15.955 12.05" height="75" width="100"><g transform="matrix(.25087 0 0 .243564 -260.956116 -165.363434)"><path d="M1102.5 727.74v.13h.12c.026 0 .05-.006.065-.016s.024-.027.024-.05-.01-.037-.024-.047-.04-.016-.065-.016zm.12-.1c.06 0 .11.013.142.04s.05.065.05.112c0 .04-.012.072-.04.1s-.064.042-.114.048l.158.18h-.123l-.146-.18h-.047v.18h-.103v-.48zm-.03.648a.38.38 0 0 0 .156-.033c.05-.02.09-.05.128-.086s.065-.08.086-.13a.41.41 0 0 0 0-.315c-.02-.05-.05-.093-.086-.13a.41.41 0 0 0-.128-.086.4.4 0 0 0-.156-.03c-.056 0-.1.01-.16.03s-.094.05-.13.086a.39.39 0 0 0-.116.286.39.39 0 0 0 .031.158.38.38 0 0 0 .085.129.41.41 0 0 0 .13.086c.05.02.102.033.16.033m0-.924c.074 0 .14.014.206.04s.12.064.167.112.085.1.112.165.04.13.04.2-.014.14-.04.2-.065.118-.112.165a.57.57 0 0 1-.167.111.52.52 0 0 1-.206.041.53.53 0 0 1-.209-.041c-.065-.028-.12-.065-.17-.11s-.085-.102-.113-.165-.04-.13-.04-.2.014-.14.04-.2.065-.12.113-.165a.5.5 0 0 1 .169-.112.53.53 0 0 1 .209-.041m-48.7-1.854c0-.917.6-1.67 1.584-1.67.94 0 1.573.72 1.573 1.67s-.634 1.67-1.573 1.67c-.982 0-1.584-.754-1.584-1.67m4.226 0v-2.6h-1.135v.634c-.36-.47-.906-.765-1.65-.765-1.464 0-2.61 1.148-2.61 2.74s1.147 2.74 2.61 2.74c.743 0 1.29-.295 1.65-.765v.634h1.135zm38.355 0c0-.917.6-1.67 1.584-1.67.94 0 1.573.72 1.573 1.67s-.632 1.67-1.573 1.67c-.983 0-1.584-.754-1.584-1.67m4.228 0v-4.706h-1.136v2.73c-.36-.47-.906-.765-1.65-.765-1.464 0-2.61 1.148-2.61 2.74s1.147 2.74 2.61 2.74c.743 0 1.29-.295 1.65-.765v.634h1.136zm-28.494-1.725c.73 0 1.2.46 1.32 1.266h-2.71c.12-.754.58-1.266 1.388-1.266m.022-1.016c-1.53 0-2.6 1.114-2.6 2.74 0 1.66 1.114 2.74 2.676 2.74.786 0 1.506-.196 2.14-.73l-.556-.84c-.437.35-.995.546-1.52.546-.73 0-1.397-.34-1.56-1.28h3.876l.022-.437c-.01-1.627-1.016-2.74-2.48-2.74m13.705 2.74c0-.917.6-1.67 1.584-1.67.94 0 1.573.72 1.573 1.67s-.634 1.67-1.573 1.67c-.983 0-1.584-.754-1.584-1.67m4.226 0v-2.6h-1.135v.634c-.36-.47-.906-.765-1.65-.765-1.464 0-2.61 1.148-2.61 2.74s1.147 2.74 2.61 2.74c.742 0 1.287-.295 1.65-.765v.634h1.135zm-10.636 0c0 1.584 1.103 2.74 2.785 2.74.786 0 1.3-.175 1.877-.622l-.545-.918c-.426.306-.874.47-1.366.47-.906-.01-1.573-.666-1.573-1.67s.666-1.66 1.573-1.67c.493 0 .94.164 1.366.47l.545-.918c-.568-.448-1.09-.622-1.877-.622-1.682 0-2.785 1.158-2.785 2.74m14.634-2.74c-.655 0-1.08.306-1.376.765v-.634h-1.125v5.22h1.136v-2.926c0-.864.37-1.344 1.114-1.344.23 0 .47.033.7.13l.35-1.07c-.25-.1-.58-.142-.81-.142m-30.426.546c-.546-.36-1.3-.546-2.13-.546-1.323 0-2.174.634-2.174 1.67 0 .852.634 1.376 1.8 1.54l.536.076c.623.088.916.25.916.546 0 .404-.415.634-1.2.634-.786 0-1.354-.25-1.736-.546l-.535.884c.622.46 1.41.678 2.26.678 1.507 0 2.38-.7 2.38-1.704 0-.918-.687-1.398-1.824-1.56l-.535-.078c-.49-.065-.885-.162-.885-.512 0-.383.37-.61.994-.61a3.37 3.37 0 0 1 1.627.448zm14.645-.546c-.655 0-1.08.306-1.375.765v-.634h-1.125v5.22h1.135v-2.926c0-.864.37-1.344 1.114-1.344.23 0 .47.033.7.13l.35-1.07c-.25-.1-.58-.142-.81-.142m-9.686.13h-1.856v-1.584h-1.147v1.584h-1.06v1.038h1.06v2.38c0 1.21.47 1.932 1.813 1.932.493 0 1.06-.152 1.42-.404l-.328-.973c-.34.196-.7.295-1.005.295-.568 0-.753-.35-.753-.874v-2.36h1.856zm-16.97 5.22v-3.276c0-1.234-.786-2.064-2.054-2.075-.666-.01-1.354.196-1.835.93-.36-.58-.927-.93-1.725-.93-.557 0-1.102.164-1.53.775v-.644h-1.136v5.22h1.146v-2.894c0-.906.502-1.388 1.28-1.388.754 0 1.135.49 1.135 1.376v2.905h1.148v-2.894c0-.906.524-1.388 1.277-1.388.775 0 1.146.49 1.146 1.376v2.905z" fill="#231f20"/><path d="M1103.2 710.77v-.762h-.2l-.23.523-.23-.523h-.2v.762h.14v-.575l.215.496h.146l.215-.497v.576zm-1.26 0v-.632h.255v-.13h-.65v.13h.255v.632z" fill="#f79410"/><path d="M1080.6 714.05h-17.202v-30.915h17.202z" fill="#ff5f00"/><path d="M1064.5 698.6c0-6.27 2.936-11.857 7.51-15.457-3.344-2.633-7.564-4.204-12.15-4.204-10.858 0-19.66 8.803-19.66 19.66s8.8 19.66 19.66 19.66c4.586 0 8.806-1.57 12.15-4.204-4.573-3.6-7.51-9.186-7.51-15.457" fill="#eb001b"/><path d="M1103.8 698.6c0 10.86-8.8 19.66-19.66 19.66a19.58 19.58 0 0 1-12.151-4.204c4.574-3.6 7.5-9.186 7.5-15.457s-2.936-11.857-7.5-15.457a19.58 19.58 0 0 1 12.151-4.204c10.857 0 19.66 8.803 19.66 19.66" fill="#f79e1b"/></g></svg>