<?xml version="1.0" encoding="utf-8"?>
<!-- Generator: Adobe Illustrator 27.6.1, SVG Export Plug-In . SVG Version: 6.00 Build 0)  -->
<svg version="1.1" id="Layer_1" xmlns="http://www.w3.org/2000/svg" xmlns:xlink="http://www.w3.org/1999/xlink" x="0px" y="0px"
	 viewBox="0 0 160 80" enable-background="new 0 0 160 80" xml:space="preserve">
<g>
	<path fill="#2FA84A" d="M155,80H5c-2.761,0-5-2.239-5-5V5c0-2.761,2.239-5,5-5h150c2.761,0,5,2.239,5,5v70
		C160,77.761,157.761,80,155,80z"/>
</g>
<g>
	<g>
		<rect x="78.116" y="43.063" fill="none" width="69.1" height="25.359"/>
		<path fill="#FFFFFF" d="M83.362,49.144h-0.758l-3.121-4.793h-0.031c0.042,0.562,0.062,1.078,0.062,1.547v3.246h-0.613v-5.711h0.75
			l3.113,4.773h0.031c-0.005-0.07-0.017-0.297-0.035-0.678c-0.018-0.382-0.024-0.654-0.02-0.818v-3.277h0.621V49.144z"/>
		<path fill="#FFFFFF" d="M87.468,49.144l-0.129-0.609h-0.031c-0.213,0.268-0.426,0.449-0.639,0.545
			c-0.212,0.095-0.477,0.143-0.795,0.143c-0.424,0-0.757-0.109-0.998-0.328c-0.24-0.219-0.361-0.53-0.361-0.934
			c0-0.865,0.691-1.318,2.074-1.359l0.727-0.023v-0.266c0-0.336-0.072-0.584-0.217-0.744s-0.375-0.24-0.693-0.24
			c-0.356,0-0.76,0.109-1.211,0.328l-0.199-0.496c0.211-0.115,0.442-0.205,0.693-0.27c0.252-0.065,0.504-0.098,0.756-0.098
			c0.511,0,0.889,0.113,1.135,0.34s0.369,0.59,0.369,1.09v2.922H87.468z M86.003,48.687c0.404,0,0.721-0.111,0.951-0.332
			c0.23-0.222,0.346-0.531,0.346-0.93v-0.387l-0.648,0.027c-0.516,0.018-0.887,0.098-1.115,0.24
			c-0.228,0.142-0.342,0.362-0.342,0.662c0,0.234,0.071,0.412,0.213,0.535C85.55,48.625,85.748,48.687,86.003,48.687z"/>
		<path fill="#FFFFFF" d="M90.995,49.222c-0.619,0-1.1-0.191-1.439-0.572c-0.34-0.382-0.51-0.922-0.51-1.619
			c0-0.717,0.173-1.27,0.518-1.66c0.346-0.391,0.837-0.586,1.475-0.586c0.206,0,0.412,0.021,0.617,0.066
			c0.206,0.044,0.367,0.096,0.484,0.156l-0.199,0.551c-0.143-0.058-0.299-0.105-0.469-0.143c-0.169-0.038-0.318-0.057-0.449-0.057
			c-0.869,0-1.305,0.555-1.305,1.664c0,0.525,0.106,0.93,0.318,1.211c0.213,0.281,0.527,0.422,0.943,0.422
			c0.357,0,0.723-0.077,1.098-0.23v0.574C91.791,49.147,91.431,49.222,90.995,49.222z"/>
		<path fill="#FFFFFF" d="M96.022,49.144v-2.77c0-0.35-0.079-0.609-0.238-0.781c-0.158-0.172-0.407-0.258-0.746-0.258
			c-0.45,0-0.779,0.122-0.986,0.367c-0.207,0.244-0.311,0.646-0.311,1.203v2.238h-0.648v-6.078h0.648v1.84
			c0,0.221-0.01,0.404-0.031,0.551h0.039c0.128-0.206,0.31-0.368,0.545-0.486c0.236-0.119,0.505-0.178,0.807-0.178
			c0.523,0,0.916,0.124,1.178,0.373c0.262,0.248,0.393,0.644,0.393,1.186v2.793H96.022z"/>
		<path fill="#FFFFFF" d="M100.933,49.144v-2.77c0-0.35-0.079-0.609-0.238-0.781c-0.158-0.172-0.407-0.258-0.746-0.258
			c-0.45,0-0.779,0.122-0.986,0.367c-0.207,0.244-0.311,0.646-0.311,1.203v2.238h-0.648v-6.078h0.648v1.84
			c0,0.221-0.01,0.404-0.031,0.551h0.039c0.128-0.206,0.31-0.368,0.545-0.486c0.236-0.119,0.505-0.178,0.807-0.178
			c0.523,0,0.916,0.124,1.178,0.373c0.262,0.248,0.393,0.644,0.393,1.186v2.793H100.933z"/>
		<path fill="#FFFFFF" d="M105.546,49.144l-0.129-0.609h-0.031c-0.213,0.268-0.426,0.449-0.639,0.545
			c-0.212,0.095-0.477,0.143-0.795,0.143c-0.424,0-0.757-0.109-0.998-0.328c-0.24-0.219-0.361-0.53-0.361-0.934
			c0-0.865,0.691-1.318,2.074-1.359l0.727-0.023v-0.266c0-0.336-0.072-0.584-0.217-0.744s-0.375-0.24-0.693-0.24
			c-0.356,0-0.76,0.109-1.211,0.328l-0.199-0.496c0.211-0.115,0.442-0.205,0.693-0.27c0.252-0.065,0.504-0.098,0.756-0.098
			c0.511,0,0.889,0.113,1.135,0.34s0.369,0.59,0.369,1.09v2.922H105.546z M104.081,48.687c0.404,0,0.721-0.111,0.951-0.332
			c0.23-0.222,0.346-0.531,0.346-0.93v-0.387l-0.648,0.027c-0.516,0.018-0.887,0.098-1.115,0.24
			c-0.228,0.142-0.342,0.362-0.342,0.662c0,0.234,0.071,0.412,0.213,0.535C103.628,48.625,103.826,48.687,104.081,48.687z"/>
		<path fill="#FFFFFF" d="M108.011,49.144h-0.648v-6.078h0.648V49.144z"/>
		<path fill="#FFFFFF" d="M110.769,48.687c0.115,0,0.226-0.009,0.332-0.025c0.107-0.018,0.191-0.035,0.254-0.053v0.496
			c-0.07,0.033-0.174,0.062-0.311,0.084c-0.137,0.021-0.26,0.033-0.369,0.033c-0.828,0-1.242-0.437-1.242-1.309v-2.547h-0.613
			v-0.312l0.613-0.27l0.273-0.914h0.375v0.992h1.242v0.504h-1.242v2.52c0,0.258,0.062,0.455,0.184,0.594
			C110.388,48.617,110.556,48.687,110.769,48.687z"/>
		<path fill="#FFFFFF" d="M112.155,43.702c0-0.148,0.037-0.258,0.109-0.326c0.073-0.069,0.164-0.104,0.273-0.104
			c0.104,0,0.194,0.035,0.27,0.105c0.076,0.07,0.113,0.178,0.113,0.324c0,0.146-0.037,0.254-0.113,0.326
			c-0.075,0.071-0.165,0.107-0.27,0.107c-0.109,0-0.2-0.036-0.273-0.107C112.192,43.956,112.155,43.848,112.155,43.702z
			 M112.858,49.144h-0.648v-4.281h0.648V49.144z"/>
		<path fill="#FFFFFF" d="M117.737,44.862v0.41l-0.793,0.094c0.073,0.091,0.139,0.21,0.195,0.357
			c0.058,0.146,0.086,0.312,0.086,0.498c0,0.419-0.143,0.754-0.43,1.004c-0.286,0.25-0.68,0.375-1.18,0.375
			c-0.127,0-0.247-0.011-0.359-0.031c-0.275,0.146-0.414,0.329-0.414,0.551c0,0.117,0.049,0.203,0.145,0.26
			c0.097,0.056,0.262,0.084,0.496,0.084h0.758c0.464,0,0.82,0.098,1.068,0.293c0.249,0.195,0.373,0.479,0.373,0.852
			c0,0.474-0.189,0.835-0.57,1.084c-0.38,0.248-0.935,0.373-1.664,0.373c-0.56,0-0.991-0.104-1.295-0.312
			c-0.303-0.209-0.455-0.503-0.455-0.883c0-0.261,0.084-0.486,0.25-0.676c0.167-0.19,0.401-0.319,0.703-0.387
			c-0.109-0.05-0.201-0.127-0.275-0.23c-0.074-0.104-0.111-0.226-0.111-0.363c0-0.156,0.042-0.293,0.125-0.41
			c0.084-0.117,0.215-0.23,0.395-0.34c-0.221-0.092-0.401-0.246-0.541-0.465c-0.139-0.219-0.209-0.469-0.209-0.75
			c0-0.469,0.141-0.83,0.422-1.084s0.68-0.381,1.195-0.381c0.225,0,0.426,0.025,0.605,0.078H117.737z M114.323,49.862
			c0,0.231,0.098,0.407,0.293,0.527c0.195,0.119,0.476,0.18,0.84,0.18c0.545,0,0.947-0.082,1.209-0.244
			c0.262-0.163,0.393-0.384,0.393-0.662c0-0.232-0.071-0.393-0.215-0.482c-0.143-0.09-0.412-0.135-0.809-0.135h-0.777
			c-0.294,0-0.523,0.07-0.688,0.211S114.323,49.599,114.323,49.862z M114.675,46.233c0,0.299,0.085,0.525,0.254,0.68
			c0.17,0.153,0.405,0.23,0.707,0.23c0.633,0,0.949-0.308,0.949-0.922c0-0.644-0.32-0.965-0.961-0.965
			c-0.305,0-0.539,0.082-0.703,0.246S114.675,45.91,114.675,46.233z"/>
		<path fill="#FFFFFF" d="M120.425,49.222c-0.633,0-1.132-0.193-1.498-0.578c-0.365-0.386-0.549-0.921-0.549-1.605
			c0-0.69,0.17-1.238,0.51-1.645s0.797-0.609,1.369-0.609c0.537,0,0.961,0.176,1.273,0.529c0.312,0.353,0.469,0.818,0.469,1.396
			v0.41h-2.949c0.014,0.502,0.141,0.884,0.381,1.145c0.241,0.26,0.58,0.391,1.018,0.391c0.461,0,0.917-0.097,1.367-0.289v0.578
			c-0.229,0.099-0.445,0.17-0.65,0.213C120.961,49.2,120.714,49.222,120.425,49.222z M120.249,45.327
			c-0.344,0-0.617,0.111-0.822,0.336c-0.204,0.224-0.324,0.533-0.361,0.93h2.238c0-0.409-0.091-0.723-0.273-0.939
			C120.849,45.436,120.588,45.327,120.249,45.327z"/>
		<path fill="#FFFFFF" d="M83.858,55.88c0,0.914-0.23,1.633-0.693,2.156c-0.462,0.523-1.104,0.785-1.928,0.785
			c-0.841,0-1.49-0.257-1.947-0.771c-0.457-0.514-0.686-1.24-0.686-2.178c0-0.93,0.229-1.65,0.688-2.162s1.109-0.768,1.953-0.768
			c0.82,0,1.461,0.261,1.922,0.781C83.628,54.245,83.858,54.964,83.858,55.88z M79.308,55.88c0,0.773,0.165,1.36,0.494,1.76
			c0.33,0.4,0.808,0.6,1.436,0.6c0.633,0,1.111-0.199,1.434-0.598c0.323-0.398,0.484-0.985,0.484-1.762
			c0-0.768-0.16-1.351-0.482-1.748c-0.321-0.396-0.797-0.596-1.428-0.596c-0.633,0-1.114,0.2-1.443,0.6
			C79.472,54.536,79.308,55.117,79.308,55.88z"/>
		<path fill="#FFFFFF" d="M87.964,58.743v-2.77c0-0.349-0.079-0.609-0.238-0.781c-0.158-0.172-0.407-0.258-0.746-0.258
			c-0.447,0-0.775,0.121-0.984,0.363c-0.208,0.242-0.312,0.643-0.312,1.199v2.246h-0.648v-4.281h0.527l0.105,0.586h0.031
			c0.133-0.211,0.319-0.374,0.559-0.49c0.24-0.115,0.507-0.174,0.801-0.174c0.516,0,0.904,0.125,1.164,0.373
			c0.261,0.249,0.391,0.646,0.391,1.193v2.793H87.964z"/>
		<path fill="#FFFFFF" d="M89.585,56.896v-0.594h1.918v0.594H89.585z"/>
		<path fill="#FFFFFF" d="M97.175,55.833c0,0.943-0.256,1.664-0.768,2.162c-0.512,0.499-1.248,0.748-2.209,0.748h-1.582v-5.711h1.75
			c0.889,0,1.578,0.246,2.07,0.738S97.175,54.95,97.175,55.833z M96.472,55.856c0-0.744-0.187-1.306-0.561-1.684
			c-0.373-0.377-0.929-0.566-1.666-0.566H93.28v4.562h0.809c0.792,0,1.387-0.194,1.785-0.584
			C96.272,57.196,96.472,56.62,96.472,55.856z"/>
		<path fill="#FFFFFF" d="M100.159,58.821c-0.633,0-1.132-0.192-1.498-0.578c-0.365-0.385-0.549-0.92-0.549-1.605
			c0-0.689,0.17-1.238,0.51-1.645s0.797-0.609,1.369-0.609c0.537,0,0.961,0.177,1.273,0.529c0.312,0.354,0.469,0.818,0.469,1.396
			v0.41h-2.949c0.014,0.503,0.141,0.885,0.381,1.145c0.241,0.261,0.58,0.391,1.018,0.391c0.461,0,0.917-0.096,1.367-0.289v0.578
			c-0.229,0.1-0.445,0.17-0.65,0.213C100.695,58.8,100.448,58.821,100.159,58.821z M99.983,54.927c-0.344,0-0.617,0.112-0.822,0.336
			c-0.204,0.225-0.324,0.534-0.361,0.93h2.238c0-0.408-0.091-0.722-0.273-0.939C100.583,55.036,100.322,54.927,99.983,54.927z"/>
		<path fill="#FFFFFF" d="M108.296,58.743v-2.785c0-0.341-0.072-0.597-0.219-0.768c-0.146-0.17-0.372-0.256-0.68-0.256
			c-0.403,0-0.701,0.116-0.895,0.348c-0.192,0.232-0.289,0.589-0.289,1.07v2.391h-0.648v-2.785c0-0.341-0.072-0.597-0.219-0.768
			c-0.146-0.17-0.373-0.256-0.684-0.256c-0.406,0-0.703,0.122-0.893,0.365c-0.188,0.244-0.283,0.643-0.283,1.197v2.246h-0.648
			v-4.281h0.527l0.105,0.586h0.031c0.123-0.208,0.295-0.371,0.518-0.488s0.473-0.176,0.748-0.176c0.67,0,1.107,0.242,1.312,0.727
			h0.031c0.128-0.224,0.312-0.4,0.555-0.531c0.242-0.13,0.519-0.195,0.828-0.195c0.484,0,0.848,0.125,1.088,0.373
			c0.241,0.249,0.361,0.646,0.361,1.193v2.793H108.296z"/>
		<path fill="#FFFFFF" d="M112.913,58.743l-0.129-0.609h-0.031c-0.213,0.269-0.426,0.45-0.639,0.545
			c-0.212,0.096-0.477,0.143-0.795,0.143c-0.424,0-0.757-0.109-0.998-0.328c-0.24-0.219-0.361-0.529-0.361-0.934
			c0-0.864,0.691-1.317,2.074-1.359l0.727-0.023v-0.266c0-0.336-0.072-0.584-0.217-0.744s-0.375-0.24-0.693-0.24
			c-0.356,0-0.76,0.109-1.211,0.328l-0.199-0.496c0.211-0.114,0.442-0.204,0.693-0.27c0.252-0.064,0.504-0.098,0.756-0.098
			c0.511,0,0.889,0.113,1.135,0.34s0.369,0.59,0.369,1.09v2.922H112.913z M111.448,58.286c0.404,0,0.721-0.11,0.951-0.332
			c0.23-0.221,0.346-0.531,0.346-0.93v-0.387l-0.648,0.027c-0.516,0.019-0.887,0.099-1.115,0.24
			c-0.228,0.143-0.342,0.363-0.342,0.662c0,0.234,0.071,0.413,0.213,0.535C110.995,58.226,111.193,58.286,111.448,58.286z"/>
		<path fill="#FFFFFF" d="M117.659,58.743v-2.77c0-0.349-0.079-0.609-0.238-0.781c-0.158-0.172-0.407-0.258-0.746-0.258
			c-0.447,0-0.775,0.121-0.984,0.363c-0.208,0.242-0.312,0.643-0.312,1.199v2.246h-0.648v-4.281h0.527l0.105,0.586h0.031
			c0.133-0.211,0.319-0.374,0.559-0.49c0.24-0.115,0.507-0.174,0.801-0.174c0.516,0,0.904,0.125,1.164,0.373
			c0.261,0.249,0.391,0.646,0.391,1.193v2.793H117.659z"/>
		<path fill="#FFFFFF" d="M122.554,58.169h-0.035c-0.299,0.436-0.747,0.652-1.344,0.652c-0.56,0-0.995-0.191-1.307-0.574
			c-0.311-0.383-0.467-0.927-0.467-1.633c0-0.705,0.156-1.254,0.469-1.645s0.748-0.586,1.305-0.586c0.581,0,1.026,0.211,1.336,0.633
			h0.051l-0.027-0.309l-0.016-0.301v-1.742h0.648v6.078h-0.527L122.554,58.169z M121.257,58.278c0.443,0,0.764-0.12,0.963-0.361
			c0.199-0.24,0.299-0.629,0.299-1.166v-0.137c0-0.606-0.101-1.039-0.303-1.299c-0.201-0.259-0.523-0.389-0.967-0.389
			c-0.38,0-0.671,0.148-0.873,0.443c-0.201,0.296-0.303,0.713-0.303,1.252c0,0.547,0.101,0.96,0.301,1.238
			C120.575,58.14,120.869,58.278,121.257,58.278z"/>
		<path fill="#FFFFFF" d="M82.522,64.296c0,0.578-0.197,1.023-0.592,1.334c-0.395,0.312-0.959,0.467-1.693,0.467h-0.672v2.246
			h-0.664v-5.711h1.48C81.81,62.632,82.522,63.187,82.522,64.296z M79.565,65.526h0.598c0.588,0,1.015-0.095,1.277-0.285
			c0.264-0.189,0.395-0.494,0.395-0.914c0-0.377-0.123-0.658-0.371-0.844c-0.247-0.185-0.633-0.277-1.156-0.277h-0.742V65.526z"/>
		<path fill="#FFFFFF" d="M85.573,63.983c0.19,0,0.361,0.016,0.512,0.047l-0.09,0.602c-0.177-0.039-0.333-0.059-0.469-0.059
			c-0.346,0-0.643,0.141-0.889,0.422s-0.369,0.632-0.369,1.051v2.297H83.62v-4.281h0.535l0.074,0.793h0.031
			c0.159-0.278,0.351-0.493,0.574-0.645C85.06,64.06,85.306,63.983,85.573,63.983z"/>
		<path fill="#FFFFFF" d="M90.581,66.198c0,0.698-0.176,1.243-0.527,1.635c-0.352,0.393-0.837,0.588-1.457,0.588
			c-0.383,0-0.723-0.09-1.02-0.27s-0.525-0.438-0.688-0.773c-0.161-0.336-0.242-0.729-0.242-1.18c0-0.697,0.175-1.241,0.523-1.631
			c0.35-0.389,0.834-0.584,1.453-0.584c0.6,0,1.075,0.199,1.428,0.598C90.405,64.979,90.581,65.519,90.581,66.198z M87.319,66.198
			c0,0.547,0.109,0.964,0.328,1.25c0.219,0.287,0.541,0.43,0.965,0.43c0.425,0,0.747-0.143,0.967-0.428
			c0.221-0.285,0.33-0.702,0.33-1.252c0-0.544-0.109-0.957-0.33-1.24c-0.22-0.282-0.545-0.424-0.975-0.424
			c-0.424,0-0.744,0.14-0.961,0.418C87.428,65.231,87.319,65.646,87.319,66.198z"/>
		<path fill="#FFFFFF" d="M94.632,67.769h-0.035c-0.299,0.436-0.747,0.652-1.344,0.652c-0.56,0-0.995-0.191-1.307-0.574
			c-0.311-0.383-0.467-0.927-0.467-1.633c0-0.705,0.156-1.254,0.469-1.645s0.748-0.586,1.305-0.586c0.581,0,1.026,0.211,1.336,0.633
			h0.051l-0.027-0.309l-0.016-0.301v-1.742h0.648v6.078h-0.527L94.632,67.769z M93.335,67.878c0.443,0,0.764-0.12,0.963-0.361
			c0.199-0.24,0.299-0.629,0.299-1.166v-0.137c0-0.606-0.101-1.039-0.303-1.299c-0.201-0.259-0.523-0.389-0.967-0.389
			c-0.38,0-0.671,0.148-0.873,0.443c-0.201,0.296-0.303,0.713-0.303,1.252c0,0.547,0.101,0.96,0.301,1.238
			C92.653,67.739,92.947,67.878,93.335,67.878z"/>
		<path fill="#FFFFFF" d="M97.229,64.062v2.777c0,0.35,0.08,0.609,0.238,0.781c0.159,0.172,0.408,0.258,0.746,0.258
			c0.448,0,0.775-0.122,0.982-0.367c0.207-0.244,0.311-0.645,0.311-1.199v-2.25h0.648v4.281H99.62l-0.094-0.574h-0.035
			c-0.133,0.211-0.316,0.373-0.553,0.484c-0.235,0.112-0.504,0.168-0.807,0.168c-0.521,0-0.91-0.123-1.17-0.371
			c-0.259-0.247-0.389-0.643-0.389-1.188v-2.801H97.229z"/>
		<path fill="#FFFFFF" d="M102.171,66.151c0.112-0.158,0.283-0.367,0.512-0.625l1.383-1.465h0.77l-1.734,1.824l1.855,2.457h-0.785
			l-1.512-2.023l-0.488,0.422v1.602h-0.641v-6.078h0.641v3.223c0,0.144-0.01,0.365-0.031,0.664H102.171z"/>
		<path fill="#FFFFFF" d="M107.112,67.886c0.115,0,0.226-0.008,0.332-0.025c0.107-0.017,0.191-0.034,0.254-0.053v0.496
			c-0.07,0.034-0.174,0.062-0.311,0.084c-0.137,0.022-0.26,0.033-0.369,0.033c-0.828,0-1.242-0.436-1.242-1.309v-2.547h-0.613
			v-0.312l0.613-0.27l0.273-0.914h0.375v0.992h1.242v0.504h-1.242v2.52c0,0.258,0.062,0.456,0.184,0.594
			C106.731,67.817,106.899,67.886,107.112,67.886z"/>
		<path fill="#FFFFFF" d="M108.499,62.901c0-0.148,0.037-0.257,0.109-0.326c0.073-0.068,0.164-0.104,0.273-0.104
			c0.104,0,0.194,0.035,0.27,0.105c0.076,0.07,0.113,0.179,0.113,0.324c0,0.146-0.037,0.255-0.113,0.326
			c-0.075,0.072-0.165,0.107-0.27,0.107c-0.109,0-0.2-0.035-0.273-0.107C108.536,63.156,108.499,63.048,108.499,62.901z
			 M109.202,68.343h-0.648v-4.281h0.648V68.343z"/>
		<path fill="#FFFFFF" d="M114.272,66.198c0,0.698-0.176,1.243-0.527,1.635c-0.352,0.393-0.837,0.588-1.457,0.588
			c-0.383,0-0.723-0.09-1.02-0.27s-0.525-0.438-0.688-0.773c-0.161-0.336-0.242-0.729-0.242-1.18c0-0.697,0.175-1.241,0.523-1.631
			c0.35-0.389,0.834-0.584,1.453-0.584c0.6,0,1.075,0.199,1.428,0.598C114.097,64.979,114.272,65.519,114.272,66.198z
			 M111.011,66.198c0,0.547,0.109,0.964,0.328,1.25c0.219,0.287,0.541,0.43,0.965,0.43c0.425,0,0.747-0.143,0.967-0.428
			c0.221-0.285,0.33-0.702,0.33-1.252c0-0.544-0.109-0.957-0.33-1.24c-0.22-0.282-0.545-0.424-0.975-0.424
			c-0.424,0-0.744,0.14-0.961,0.418C111.119,65.231,111.011,65.646,111.011,66.198z"/>
		<path fill="#FFFFFF" d="M118.339,68.343v-2.77c0-0.349-0.079-0.609-0.238-0.781c-0.158-0.172-0.407-0.258-0.746-0.258
			c-0.447,0-0.775,0.121-0.984,0.363c-0.208,0.242-0.312,0.643-0.312,1.199v2.246h-0.648v-4.281h0.527l0.105,0.586h0.031
			c0.133-0.211,0.319-0.374,0.559-0.49c0.24-0.115,0.507-0.174,0.801-0.174c0.516,0,0.904,0.125,1.164,0.373
			c0.261,0.249,0.391,0.646,0.391,1.193v2.793H118.339z"/>
	</g>
	<g>
		<rect x="78.116" y="11.577" fill="none" width="80.884" height="27.627"/>
		<path fill="#FFFFFF" d="M80.504,19.178h-1.489v-7.139h4.092v1.24h-2.603v1.841h2.422v1.235h-2.422V19.178z"/>
		<path fill="#FFFFFF" d="M90.313,12.039v4.619c0,0.527-0.118,0.99-0.354,1.387c-0.236,0.397-0.577,0.702-1.023,0.913
			c-0.445,0.211-0.973,0.317-1.582,0.317c-0.918,0-1.631-0.235-2.139-0.706s-0.762-1.114-0.762-1.931v-4.6h1.509v4.37
			c0,0.55,0.111,0.954,0.332,1.211c0.222,0.257,0.588,0.386,1.099,0.386c0.495,0,0.854-0.129,1.077-0.388
			c0.223-0.259,0.334-0.665,0.334-1.218v-4.36H90.313z M85.719,10.667c0-0.211,0.062-0.375,0.184-0.488s0.287-0.171,0.495-0.171
			c0.215,0,0.384,0.06,0.506,0.181s0.183,0.28,0.183,0.479c0,0.195-0.062,0.353-0.186,0.471c-0.123,0.119-0.291,0.178-0.503,0.178
			c-0.208,0-0.373-0.057-0.495-0.171S85.719,10.872,85.719,10.667z M87.687,10.667c0-0.228,0.066-0.395,0.198-0.5
			s0.295-0.159,0.49-0.159c0.212,0,0.38,0.059,0.506,0.176c0.125,0.117,0.188,0.278,0.188,0.483c0,0.199-0.063,0.356-0.19,0.474
			s-0.294,0.176-0.503,0.176c-0.195,0-0.358-0.053-0.49-0.159S87.687,10.888,87.687,10.667z"/>
		<path fill="#FFFFFF" d="M93.575,16.438v2.739h-1.514v-7.139h2.08c0.971,0,1.688,0.177,2.153,0.53
			c0.466,0.353,0.698,0.89,0.698,1.609c0,0.42-0.115,0.793-0.347,1.121c-0.23,0.327-0.558,0.583-0.981,0.769
			c1.074,1.605,1.774,2.642,2.1,3.11h-1.68l-1.704-2.739H93.575z M93.575,15.208h0.488c0.479,0,0.832-0.08,1.06-0.239
			c0.229-0.16,0.342-0.41,0.342-0.752c0-0.338-0.116-0.58-0.349-0.723c-0.233-0.143-0.594-0.215-1.082-0.215h-0.459V15.208z"/>
		<path fill="#FFFFFF" d="M107.184,15.54c0,1.175-0.334,2.075-1.003,2.7s-1.635,0.938-2.898,0.938h-2.021v-7.139h2.241
			c1.166,0,2.07,0.308,2.715,0.923S107.184,14.437,107.184,15.54z M105.611,15.579c0-1.533-0.677-2.3-2.031-2.3h-0.806v4.648h0.649
			C104.883,17.928,105.611,17.145,105.611,15.579z"/>
		<path fill="#FFFFFF" d="M108.663,19.178v-7.139h1.514v7.139H108.663z"/>
		<path fill="#FFFFFF" d="M116.085,19.178h-4.111v-7.139h4.111v1.24h-2.598v1.567h2.417v1.24h-2.417v1.841h2.598V19.178z"/>
		<path fill="#FFFFFF" d="M89.062,22.756v6.875c0,1.495-0.423,2.652-1.27,3.473s-2.066,1.23-3.66,1.23
			c-1.558,0-2.754-0.398-3.59-1.195s-1.254-1.942-1.254-3.438v-6.945h3.102v6.703c0,0.808,0.151,1.394,0.453,1.758
			c0.302,0.365,0.747,0.547,1.336,0.547c0.63,0,1.087-0.181,1.371-0.543c0.284-0.362,0.426-0.954,0.426-1.777v-6.688H89.062z"/>
		<path fill="#FFFFFF" d="M96.437,34.178l-2.336-8.227h-0.07c0.109,1.401,0.164,2.49,0.164,3.266v4.961H91.46V22.756h4.109
			l2.383,8.109h0.062l2.336-8.109h4.117v11.422h-2.836V29.17c0-0.26,0.004-0.549,0.012-0.867c0.008-0.317,0.043-1.096,0.105-2.336
			h-0.07l-2.305,8.211H96.437z"/>
		<path fill="#FFFFFF" d="M119.265,34.178h-3.648l-1.094-4.977c-0.052-0.208-0.134-0.622-0.246-1.242
			c-0.112-0.62-0.194-1.138-0.246-1.555c-0.042,0.339-0.109,0.759-0.203,1.262c-0.094,0.503-0.187,0.965-0.277,1.387
			s-0.47,2.13-1.137,5.125h-3.648l-2.828-11.422h2.977l1.242,5.727c0.281,1.266,0.474,2.273,0.578,3.023
			c0.067-0.531,0.188-1.252,0.363-2.164c0.175-0.911,0.337-1.667,0.488-2.266l1.008-4.32h2.859l0.977,4.32
			c0.167,0.693,0.336,1.492,0.508,2.398s0.286,1.583,0.344,2.031c0.067-0.578,0.253-1.581,0.555-3.008l1.266-5.742h2.977
			L119.265,34.178z"/>
		<path fill="#FFFFFF" d="M130.335,34.178h-6.781V22.756h6.781v2.477h-3.695v1.797h3.422v2.477h-3.422v2.156h3.695V34.178z"/>
		<path fill="#FFFFFF" d="M132.335,34.178V22.756h3.086v8.93h4.398v2.492H132.335z"/>
		<path fill="#FFFFFF" d="M146.687,34.178h-3.086v-8.898h-2.789v-2.523h8.656v2.523h-2.781V34.178z"/>
	</g>
</g>
<g>
	<path fill="#2FA84A" d="M41.245,16.557c-14.963,0-27.136,12.173-27.136,27.136c0,14.962,12.173,27.136,27.136,27.136
		c14.963,0,27.137-12.175,27.137-27.136C68.382,28.73,56.209,16.557,41.245,16.557z"/>
	<path fill="#FFFFFF" d="M59.236,56.295c-0.437-0.588,0.008-1.529-0.151-2.214c-0.159-0.692-1.219-0.762-0.7-1.752
		c0.405-0.774,1.001-1.298,0.559-2.08c-0.16-0.281-1.422-3.025-1.652-4.221c-0.066-0.35-0.168-0.587-0.502-0.71
		c-0.586-0.218-1.152-0.569-1.58-0.569c-0.963,0-1.277,0.504-2.276,0.504c-2.274,0-2.329-0.149-4.082-2.145
		c-0.731-0.832-0.449-2.018-0.074-2.939c0.134-0.33-0.053-0.59-0.339-0.801c-0.699-0.518,1.1-1.577,1.711-2.017
		c1.165-0.84,0.429-1.807,1.562-2.437c1.328-0.736,3.676-0.857,5.412-0.969c0.355-0.023,0.533,0.235,0.55,0.59
		c0.051,1.097,1.41,1.331,2.54,1.553c0.35,0.068,0.498-0.244,0.792-0.446c0.511-0.35,1.971,0.077,3.099,0.363
		c0.345,0.088,0.541-0.128,0.423-0.463c-0.091-0.262-0.186-0.52-0.286-0.777c-0.13-0.332-0.549-0.601-0.848-0.796
		c-0.347-0.227-0.575-0.628-0.654-1.088c-0.063-0.35-0.304-0.546-0.552-0.29c-0.209,0.215-0.345,0.488-0.422,0.797
		c-0.086,0.346-0.332,0.48-0.549,0.199c-0.758-0.99-0.889-2.714-2.28-2.793c-0.356-0.02-0.627,0.367-0.453,0.676
		c0.254,0.451,0.714,0.673,1.174,0.956c0.303,0.187,0.456,0.663,0.261,0.961c-0.271,0.417-0.693,0.734-1.115,0.472
		c-0.302-0.188-0.146-0.439,0.16-0.545c0.308-0.108,0.308-0.369,0-0.551c-0.481-0.285-0.963-0.568-1.278-0.979
		c-0.216-0.282-0.431-0.298-0.739-0.116c-0.533,0.313-1.08-0.002-1.594,0.665c-0.365,0.473-0.905,1.652-1.434,1.702
		c-0.601,0.054-1.804,0.264-2.259-0.285c-0.394-0.474-0.312-1.966,0.354-2.112c0.764-0.168,1.065-0.155,1.839,0
		c0.374,0.075,0.402-0.003,0.392-0.152c-0.019-0.289-0.202-0.497-0.337-0.826c-0.15-0.368-0.144-0.884,0.416-0.972
		c1.593-0.25,1.764-1.526,3.333-1.529c0.356-0.001,0.665-0.217,0.617-0.553c-0.047-0.336-0.364-0.463-0.661-0.382
		c-0.299,0.08-0.624-0.072-0.855-0.342c-0.472-0.55-1.053-0.818-0.248-1.594c0.11-0.091,0.233-0.154,0.359-0.206
		c0.213-0.087,0.173-0.329-0.103-0.554c-4.238-3.437-9.637-5.496-15.517-5.496c-3.536,0-6.899,0.747-9.94,2.088
		c-0.326,0.144-0.283,0.301,0.003,0.512c0.154,0.113,0.305,0.268,0.454,0.473c0.509,0.704,1.205,0.175,1.829-0.048
		c0.335-0.119,0.49,0.211,0.224,0.449c-0.465,0.412-1.003,0.424-1.73,0.424c-0.325,0,1.191,1.99,1.736,0.625
		c0.18-0.448,0.578-0.249,0.903-0.395c0.325-0.145,0.229-0.526,0.056-0.557c-0.173-0.029-0.242-0.366,0.044-0.579
		c0.346-0.26,0.853-0.25,1.369-0.188c0.354,0.043,0.362,0.2,0.109,0.45c-0.439,0.433-0.433,0.961,0.088,1.173
		c0.33,0.136,0.503-0.181,0.539-0.534c0.098-1.019,1.564-1.34,2.582-1.212c0.695,0.089,1.545,0.686,2.189,0.972
		c0.454,0.2,0.153,0.611,0.361,0.898c0.209,0.289,0.541,0.596,0.271,0.828c-0.188,0.162-0.444,0.15-0.868,0.15
		c-0.601,0-0.248,0.776-0.59,0.814c-0.511,0.058-1.212-0.19-1.822-0.39c-0.338-0.11-0.363-0.32-0.049-0.488
		c0.259-0.138,0.518-0.276,0.779-0.414c0.315-0.169,0.412-0.56,0.119-0.763c-0.898-0.621-1.843,0.318-2.745,0.668
		c-0.332,0.129-0.546,0.26-0.473,0.447c0.072,0.185-0.053,0.503-0.374,0.654c-0.242,0.114-0.454,0.141-0.613-0.001
		c-0.266-0.238-0.532-0.518-0.869-0.401c-1.063,0.365-2.807,1.16-2.659,1.705c0.409,1.505,2.137,0.773,2.158,2.057
		c0.007,0.355,0.24,0.636,0.482,0.372c0.304-0.331,0.311-0.87,0.89-1.054c1.212-0.385,0.989-0.497,0.989-1.755
		c0-1.011,2.423-1.135,2.526,0.096c0.03,0.354,0.175,0.628,0.519,0.538c0.209-0.055,0.415-0.133,0.612-0.228
		c0.32-0.156,0.514-0.035,0.619,0.305c0.301,0.965,1.304,2.07,0.619,2.476c-0.306,0.182-0.395,0.335-0.137,0.58
		c0.611,0.577,1.081,1.214-0.358,0.768c-1.078-0.334-0.577-0.607-0.488-0.95c0.09-0.345-0.316-0.269-0.648-0.161
		c-0.333,0.109-0.847,0.183-0.951-0.014c-0.048-0.093-0.09-0.202-0.274-0.284c-0.79-0.35-1.14,0.345-0.61,0.669
		c0.304,0.185,0.464,0.226,0.337,0.388c-0.128,0.161-0.518,0.121-0.859,0.223c-1.088,0.327-2.947,2.161-3.599,2.841
		c-0.363,0.377-0.396,1.026-0.653,1.285c-0.423,0.426-1.154,0.572-1.553,1.019c-0.705,0.793-6.198,0.576-6.921,2.934
		c-0.809,2.637,1.285,1.963,2.759,1.121c0.309-0.176,0.659-0.059,0.638,0.295c-0.012,0.2-0.062,0.395-0.149,0.583
		c-0.148,0.323-0.068,0.504,0.285,0.558c1.071,0.165,0.871,0.99,0.952,2.253c0.053,0.802,2.029,0.568,2.472,0.055
		c0.725-0.84,1.785-1.47,2.648-0.265c0.317,0.443,0.956,0.535,1.389,0.323c0.32-0.157,0.709-0.406,0.974-0.168
		c0.5,0.45,0.545,1.173,1.172,1.54c0.545,0.318,1.371-0.362,1.742,0.288c0.304,0.531,0.384,1.964,0.791,2.118
		c0.821,0.312,1.402,0.563,2.267,0.571c1.355,0.015,3.123,0.963,2.878,2.275c-0.106,0.575-1.031,0.917-1.095,1.536
		c-0.093,0.899-0.186,1.797-0.279,2.696c-0.149,1.446-2.377,0.424-2.915,1.73c-0.337,0.819,0.622,1.232-0.05,2.091
		c-0.438,0.56-0.953,1.104-1.294,1.729c-0.539,0.986-1.654,1.132-2.402,1.558c-0.309,0.177-0.13,0.33,0.022,0.651
		c0.086,0.18,0.066,0.429-0.216,0.702c-0.416,0.403-0.191,0.63,0.173,0.732c0.344,0.094,0.541,0.331,0.463,0.678
		c-0.127,0.559-0.09,1.012,0.424,1.445c1.091,0.919-0.09,1.241-1.092,0.918c-2.417-0.779-2.235-3.525-2.492-5.315
		c-0.06-0.419-0.834-0.752-0.879-1.171c-0.056-0.53,0.225-1.258,0.318-1.784c0.09-0.505-0.485-0.068-0.485-0.471
		c0-0.678,0-1.357,0-2.036c0-1.787,0.215-2.057-1.272-3.091c-0.95-0.661-0.854-0.748-1.576-1.651
		c-1.076-1.346-1.393-1.539-1.323-3.134c0.065-1.484,1.434-1.38,1.268-2.745c-0.195-1.611-1.353-0.174-2.174-1.106
		c-0.918-1.044-1.404-1.168-2.418-1.829c-0.019-0.012-0.22-0.185-0.403-0.362c-0.215-0.209-0.51-0.419-0.8-0.372
		c-0.29,0.049-0.556,0.116-0.899,0.02c-1.086-0.305-1.552-0.307-2.328-1.495c-0.297-0.454,0.395-0.615,0.119-1.018
		c-0.395-0.576-0.79-1.153-1.185-1.729c-0.337-0.493-0.122-1.114-0.327-1.431c-0.193-0.299-0.553,0.084-0.444,0.423
		c0.368,1.14,1.309,2.949,0.503,2.824c-1.263-0.195-1.401-1.914-1.413-3.122c-0.004-0.356-0.325-0.664-0.567-0.925
		c-0.014-0.015-0.027-0.03-0.04-0.047c-0.219-0.28-0.293-0.338-0.42-0.005c-1.036,2.721-1.605,5.673-1.605,8.758
		c0,13.623,11.049,24.659,24.66,24.659c7.848,0,14.837-3.662,19.353-9.372c0.221-0.28,0.211-0.284-0.069-0.063
		c-0.287,0.229-0.487,0.254-0.487-0.118C60.047,57.544,59.981,57.3,59.236,56.295z"/>
	<path fill="#FFFFFF" d="M12.566,18.532c0,0-0.484,4.012,2.045,8.82c0.028,0.01,0.046,0.017,0.046,0.017
		c8.578-10.32-0.215-20.263-0.215-20.263c-1.711,3.855-7.713,7.228-5.65,14.142c0.705,2.368,2.24,4.123,3.767,5.009
		C12.22,25.543,10.71,22.14,12.566,18.532z"/>
	<path fill="#4F9E4D" d="M51.246,18.377c-5.785,5.644-15.954,11.881-30.398,7.335c-0.096,0.106-0.191,0.211-0.282,0.323
		c-0.547,0.64-1.063,1.314-1.553,2.014c16.787,6.31,27.672-2.347,33.257-9.238c0.647-0.799,1.224-1.573,1.73-2.298
		c1.868-2.676,2.781-4.673,2.781-4.673c-0.063-0.005,0.229-0.608,0.165-0.612c-0.481,0.768-1.803,2.802-3.247,4.506
		C53.572,15.885,51.352,18.417,51.246,18.377z"/>
	<path fill="#FFFFFF" d="M68.011,30.178c-0.04-0.086-0.085-0.171-0.126-0.252c-0.781-1.52-1.687-2.98-2.729-4.36
		c-2.205-2.935-4.994-5.503-8.312-7.527c-0.932-0.569-1.88-1.073-2.845-1.527c-0.506,0.725-1.082,1.499-1.73,2.298
		c1.058,0.469,2.099,1.008,3.115,1.625c3.917,2.392,7.013,5.624,9.198,9.324c0.609,1.027,1.143,2.085,1.606,3.177
		c0.609,1.414,1.092,2.88,1.445,4.375c0.005,0.02,0.01,0.045,0.02,0.071c1.586,6.716,0.639,14.026-3.227,20.37
		c-7.169,11.755-21.905,16.13-34.169,10.688c-1.067-0.473-2.12-1.022-3.141-1.646c-12.783-7.794-16.84-24.533-9.047-37.311
		c0.3-0.493,0.617-0.968,0.944-1.435c0.49-0.7,1.006-1.374,1.553-2.014c0.091-0.111,0.186-0.217,0.282-0.323
		c14.444,4.546,24.614-1.691,30.398-7.335c0.106,0.04,2.326-2.492,2.452-2.643c1.445-1.703,2.405-3.136,2.885-3.904
		c0.24-0.382,0.362-0.602,0.362-0.602c-8.362-0.649-18.683-9.656-30.277-1.188c-3.972,2.9-6.243,6.948-6.892,10.401
		c0.891-0.891,4.511-4.329,10.024-5.11c0.674-0.106,1.384-0.161,2.114-0.166c-0.015,0.005-0.025,0.01-0.04,0.015
		c-0.236,0.076-0.473,0.161-0.71,0.247c-0.423,0.146-0.846,0.307-1.264,0.478c-5.724,2.331-10.774,6.444-14.233,12.113
		c-0.171,0.282-0.337,0.564-0.493,0.846c-0.086,0.156-0.171,0.307-0.252,0.464c-0.131,0.236-0.257,0.468-0.378,0.709
		c-2.482,4.768-3.731,10.381-3.368,16.051c0.02,0.332,0.045,0.659,0.075,0.991c1.118,8.826,6.092,17.092,14.258,22.071
		c0.176,0.106,0.347,0.211,0.529,0.317c2.698,1.571,5.548,2.678,8.448,3.338c0.317,0.076,0.634,0.146,0.952,0.207
		c2.548,0.499,5.135,0.659,7.688,0.494c0.312-0.015,0.629-0.04,0.946-0.076c0.317-0.03,0.635-0.065,0.952-0.106
		c0.111-0.01,0.221-0.025,0.332-0.045c0.493-0.065,0.987-0.146,1.475-0.242c8.03-1.53,15.411-6.308,19.992-13.825
		C72.396,50.075,72.482,39.109,68.011,30.178z"/>
</g>
<g>
</g>
<g>
</g>
<g>
</g>
<g>
</g>
<g>
</g>
<g>
</g>
</svg>
