<?xml version="1.0" encoding="UTF-8" standalone="no"?>
<svg width="51px" height="50px" viewBox="0 0 51 50" version="1.1" xmlns="http://www.w3.org/2000/svg" xmlns:xlink="http://www.w3.org/1999/xlink" xmlns:sketch="http://www.bohemiancoding.com/sketch/ns">
    <!-- Generator: Sketch 3.3.2 (12043) - http://www.bohemiancoding.com/sketch -->
    <title>phone</title>
    <g fill-rule="evenodd">
        <g>
            <path d="M50,39.5 C50,40.1 49.9,41 49.6,42 C49.3,43 49.1,43.8 48.9,44.4 C48.4,45.6 47,46.8 44.6,48.2 C42.4,49.4 40.2,50 38,50 C37.4,50 36.7,50 36.1,49.9 C35.5,49.8 34.8,49.7 34.1,49.5 C33.3,49.3 32.8,49.1 32.4,49 C32,48.9 31.4,48.6 30.4,48.3 C29.5,47.9 28.9,47.7 28.7,47.7 C26.4,46.9 24.3,45.9 22.5,44.8 C19.5,42.9 16.3,40.4 13.1,37.1 C9.9,33.9 7.3,30.7 5.4,27.7 C4.3,25.9 3.3,23.8 2.5,21.5 C2.4,21.3 2.2,20.7 1.9,19.8 C1.5,18.9 1.3,18.2 1.2,17.8 C1.1,17.4 0.9,16.9 0.7,16.1 C0.5,15.3 0.3,14.7 0.3,14.1 C0.2,13.5 0.2,12.9 0.2,12.2 C0.2,10 0.8,7.8 2,5.6 C3.3,3.2 4.6,1.8 5.8,1.3 C6.4,1 7.2,0.8 8.2,0.6 C9.2,0.4 10.1,0.2 10.7,0.2 C11,0.2 11.3,0.2 11.4,0.3 C11.8,0.4 12.5,1.3 13.3,3 C13.6,3.4 13.9,4.1 14.4,4.9 C14.8,5.7 15.3,6.5 15.6,7.2 C16,7.9 16.3,8.5 16.7,9.1 C16.8,9.2 17,9.5 17.3,10 C17.6,10.5 17.9,10.9 18.1,11.3 C18.3,11.6 18.3,12 18.3,12.3 C18.3,12.8 18,13.4 17.3,14.1 C16.6,14.8 15.9,15.5 15.1,16.1 C14.3,16.7 13.6,17.3 12.9,18 C12.2,18.7 11.9,19.2 11.9,19.6 C11.9,19.8 12,20.1 12.1,20.4 C12.2,20.7 12.3,21 12.4,21.1 C12.5,21.3 12.6,21.5 12.9,22 C13.2,22.5 13.3,22.6 13.3,22.7 C15.1,25.9 17.2,28.7 19.5,31 C21.8,33.3 24.6,35.4 27.8,37.2 C27.8,37.2 28.1,37.4 28.5,37.6 C28.9,37.8 29.2,38 29.4,38.1 C29.6,38.2 29.8,38.3 30.1,38.4 C30.4,38.5 30.7,38.6 30.9,38.6 C31.3,38.6 31.9,38.3 32.5,37.6 C33.2,36.9 33.8,36.2 34.4,35.4 C35,34.6 35.6,33.9 36.4,33.2 C37.1,32.5 37.7,32.2 38.2,32.2 C38.5,32.2 38.9,32.3 39.2,32.4 C39.5,32.6 40,32.8 40.5,33.2 C41,33.5 41.3,33.8 41.4,33.8 C42,34.2 42.6,34.5 43.3,34.9 C44,35.3 44.7,35.7 45.6,36.1 C46.4,36.5 47.1,36.9 47.5,37.2 C49.2,38 50.1,38.7 50.2,39.1 C50,38.9 50,39.2 50,39.5 L50,39.5 Z"></path>
        </g>
    </g>
</svg>