<?xml version="1.0" encoding="UTF-8" standalone="no"?>
<svg width="125px" height="100px" viewBox="0 0 125 100" version="1.1" xmlns="http://www.w3.org/2000/svg" xmlns:xlink="http://www.w3.org/1999/xlink" xmlns:sketch="http://www.bohemiancoding.com/sketch/ns">
    <!-- Generator: Sketch 3.3.2 (12043) - http://www.bohemiancoding.com/sketch -->
    <title>picture</title>
    <g fill-rule="evenodd">
            <path d="M41.625,29.125 C41.625,32.625 40.375,35.5 38,38 C35.625,40.375 32.625,41.625 29.125,41.625 C25.625,41.625 22.75,40.375 20.25,38 C17.875,35.625 16.625,32.625 16.625,29.125 C16.625,25.625 17.875,22.75 20.25,20.25 C22.625,17.875 25.625,16.625 29.125,16.625 C32.625,16.625 35.5,17.875 38,20.25 C40.5,22.75 41.625,25.75 41.625,29.125 L41.625,29.125 Z M108.375,54.125 L108.375,83.25 L16.75,83.25 L16.75,70.75 L37.5,50 L47.875,60.375 L81.25,27 L108.375,54.125 L108.375,54.125 Z M114.625,8.375 L10.5,8.375 C9.875,8.375 9.5,8.625 9,9 C8.5,9.375 8.375,9.875 8.375,10.5 L8.375,89.625 C8.375,90.25 8.625,90.625 9,91.125 C9.375,91.625 9.875,91.75 10.5,91.75 L114.625,91.75 C115.25,91.75 115.625,91.5 116.125,91.125 C116.625,90.75 116.75,90.25 116.75,89.625 L116.75,10.5 C116.75,9.875 116.5,9.5 116.125,9 C115.75,8.5 115.125,8.375 114.625,8.375 L114.625,8.375 Z M125,10.375 L125,89.5 C125,92.375 124,94.875 122,96.875 C120,98.875 117.5,99.875 114.625,99.875 L10.5,99.875 C7.625,99.875 5.125,98.875 3.125,96.875 C1.125,94.875 0.125,92.375 0.125,89.5 L0.125,10.375 C0.125,7.5 1.125,5 3.125,3 C5.125,1 7.625,0 10.5,0 L114.625,0 C117.5,0 120,1 122,3 C124,5.125 125,7.5 125,10.375 L125,10.375 Z"></path>
    </g>
</svg>