<?xml version="1.0" encoding="UTF-8" standalone="no"?>
<svg width="49px" height="50px" viewBox="0 0 49 50" version="1.1" xmlns="http://www.w3.org/2000/svg" xmlns:xlink="http://www.w3.org/1999/xlink" xmlns:sketch="http://www.bohemiancoding.com/sketch/ns">
    <!-- Generator: Sketch 3.3.2 (12043) - http://www.bohemiancoding.com/sketch -->
    <title>pinterest</title>
    <g fill-rule="evenodd">
        <g fill="#B22025">
            <path d="M25,0.714285714 C11.5714286,0.714285714 0.714285714,11.5714286 0.714285714,25 C0.714285714,38.4285714 11.5714286,49.2857143 25,49.2857143 C38.4285714,49.2857143 49.2857143,38.4285714 49.2857143,25 C49.2857143,11.5714286 38.4285714,0.714285714 25,0.714285714 L25,0.714285714 Z M27.5714286,32.4285714 C25.5714286,32.4285714 23.5714286,31.2857143 22.8571429,30 C22.8571429,30 21.7142857,34.4285714 21.5714286,35.2857143 C20.7142857,38.2857143 18.2857143,41.2857143 18.1428571,41.5714286 C18,41.7142857 17.7142857,41.7142857 17.7142857,41.4285714 C17.7142857,41 17,37.2857143 17.7142857,34.1428571 C18.1428571,32.5714286 20.1428571,23.7142857 20.1428571,23.7142857 C20.1428571,23.7142857 19.5714286,22.4285714 19.5714286,20.7142857 C19.5714286,17.8571429 21.2857143,15.7142857 23.2857143,15.7142857 C25,15.7142857 25.8571429,17 25.8571429,18.5714286 C25.8571429,20.2857143 24.7142857,23 24.1428571,25.4285714 C23.7142857,27.4285714 25.1428571,29.1428571 27.1428571,29.1428571 C30.7142857,29.1428571 33.2857143,24.4285714 33.2857143,19 C33.2857143,14.8571429 30.4285714,11.7142857 25.2857143,11.7142857 C19.4285714,11.7142857 15.8571429,16 15.8571429,20.8571429 C15.8571429,22.5714286 16.2857143,23.7142857 17.1428571,24.5714286 C17.4285714,25 17.5714286,25.1428571 17.4285714,25.5714286 C17.2857143,25.8571429 17.1428571,26.7142857 17,27.1428571 C16.8571429,27.5714286 16.4285714,27.8571429 16,27.5714286 C13.2857143,26.4285714 12.1428571,23.5714286 12.1428571,20.2857143 C12.1428571,14.8571429 16.7142857,8.28571429 25.8571429,8.28571429 C33.1428571,8.28571429 38,13.5714286 38,19.2857143 C37.8571429,26.8571429 33.7142857,32.4285714 27.5714286,32.4285714 L27.5714286,32.4285714 Z"></path>
        </g>
    </g>
</svg>