<svg xmlns="http://www.w3.org/2000/svg" viewBox="0 0 56.7 56.7"><path d="M20.6 37.3C20.9 35 16.8 24 16 22.2c-.3-1-.9-1.8-2-1.7s-2.7.6-1.9 3.6c.8 2.9 1.3 5 1.1 5.8-.2.4-.4.9-.5 1.4 0-.1-3.7-4.3-3.9-5.6-.7-4.6.8-9.4.8-10.8s-.4-2.2-1.5-2.4c-1.1-.1-1.7.5-2.3 1.4-.5.8-3.2 10.7-4 14-.2.6-.4 1.8.4 3.1L10 44.1c.7 3.5.5 2.2.7 6.2 1.1.3 5.7.4 9.1-.7-.7-3.6-.6-5.2-.1-7.1.3-1.3.7-3 .9-5.2zm34.3-9.4c-.9-3.3-3.5-13.2-4-14-.6-.9-1.2-1.4-2.3-1.3s-1.5 1-1.5 2.4 1.5 6.2.8 10.8c-.2 1.3-3.9 5.6-3.9 5.6-.1-.5-.3-1-.5-1.4-.1-.8.3-2.9 1.1-5.8.8-3-.8-3.5-1.9-3.6s-1.7.8-2 1.7c-.8 1.7-4.9 12.7-4.7 15s.7 4 .9 5.2c.5 1.9.5 3.5-.1 7.1 3.5 1.1 8.1 1 9.1.7.2-3.9 0-2.6.7-6.2.4-.6 5.4-9.1 7.8-13.1.9-1.3.7-2.5.5-3.1zm-16.7-4.8v-9.9c0-.6-.3-1.1-.8-1.4-.1-.1-8.4-5.4-8.4-5.4a1.72 1.72 0 0 0-1.7 0l-8.7 5.5c-.4.3-.6.7-.6 1.2V23c0 .5.3 1 .7 1.3l8.5 5.4c.3.2.5.2.8.2s.6-.1.8-.2l8.5-5.4c.6-.2.9-.7.9-1.2zM28.1 9.7l5.6 3.6-5.6 3.6-5.6-3.6 5.6-3.6zM35 22.2l-6.9 4.4-6.9-4.4V16l6.1 3.9a1.72 1.72 0 0 0 1.7 0l6.1-3.9v6.2z" fill="#5f5e5e"/></svg>