<?xml version="1.0" encoding="UTF-8"?>
<svg width="29px" height="60px" viewBox="0 0 29 60" version="1.1" xmlns="http://www.w3.org/2000/svg" xmlns:xlink="http://www.w3.org/1999/xlink">
    <!-- Generator: sketchtool 61.2 (101010) - https://sketch.com -->
    <title>6CAEACB2-1877-48E7-8C90-B66FFE7E5832</title>
    <desc>Created with sketchtool.</desc>
    <g id="!!-meinfotoDE" stroke="none" stroke-width="1" fill="none" fill-rule="evenodd">
        <g id="mfDE-B2B-AccountRegistration(DT)" transform="translate(-291.000000, -492.000000)" fill-rule="nonzero">
            <g id="B2B-Block" transform="translate(221.000000, 317.000000)">
                <g id="Rabatte" transform="translate(32.000000, 175.000000)">
                    <g id="rabatte-icon" transform="translate(38.000000, 0.000000)">
                        <path d="M5.69999987,20.7719995 C5.57780432,20.7702959 5.4596286,20.7280903 5.36399988,20.6519995 C3.39599992,19.2239996 1.81199996,17.0759996 0.91199998,14.6279997 C-0.155999997,11.7599997 -0.239999995,8.72399981 0.659999985,6.07199986 C1.55999997,3.41999992 3.40799992,1.39199997 5.81999987,0.503999989 C8.23199982,-0.383999991 10.8959998,-0.0839999981 13.3559997,1.35599997 C15.8159996,2.79599994 17.6879996,5.13599989 18.7559996,8.00399982 C20.1839995,11.8559997 19.8119996,16.0919996 17.7599996,19.0319996 C17.5810593,19.2904688 17.2264689,19.3549398 16.9679996,19.1759996 C16.7095304,18.9970593 16.6450594,18.6424688 16.8239996,18.3839996 C18.6599996,15.7439996 18.9839996,11.9159997 17.6879996,8.39999981 C16.7159996,5.77199987 14.9639997,3.62399992 12.7799997,2.33999995 C10.5959998,1.05599998 8.29199981,0.803999982 6.21599986,1.57199996 C4.13999991,2.33999995 2.54399994,4.06799991 1.73999996,6.43199986 C0.935999979,8.7959998 1.00799998,11.6039997 1.97999996,14.2319997 C2.80799994,16.4759996 4.24799991,18.4319996 6.04799986,19.7399996 C6.24256423,19.8901392 6.32043895,20.147188 6.24191143,20.3800627 C6.16338391,20.6129375 5.9457527,20.7703389 5.69999987,20.7719995 Z" id="Path" fill="#CE0E2D"></path>
                        <path d="M26.7119994,29.6159993 L25.4279994,17.9279996 L25.3439994,17.2079996 L22.7999995,12.5879997 L19.4759996,14.5079997 L9.93599978,20.0159996 L9.82799978,20.0759996 L7.31999984,27.6119994 L5.98799987,42.0599991 L5.02799989,52.4759988 L4.3319999,59.9999987 L11.2079997,56.0279987 L20.7239995,50.5319989 L28.5239994,46.031999 L26.7119994,29.6159993 Z M16.4159996,18.1199996 C17.1839996,17.6879996 17.7959996,18.0359996 17.7959996,18.9119996 C17.7959996,19.7879996 17.1839996,20.8439995 16.4279996,21.2879995 C15.6719996,21.7319995 15.0479997,21.3719995 15.0479997,20.4959995 C15.0479997,19.6199996 15.6599996,18.5639996 16.4159996,18.1199996 Z" id="Shape" fill="#E01E31"></path>
                        <polygon id="Path" fill="#AA182C" points="4.3319999 59.9999987 0.851999981 57.8039987 3.85199991 25.4159994 7.31999984 27.6119994"></polygon>
                        <polygon id="Path" fill="#CE0E2D" points="7.31999984 27.6119994 3.85199991 25.4159994 6.35999986 17.8799996 9.82799978 20.0759996"></polygon>
                        <polygon id="Path" fill="#CE0E2D" points="9.82799978 20.0759996 6.35999986 17.8799996 19.3319996 10.3919998 22.7999995 12.5879997"></polygon>
                        <polygon id="Path" fill="#BC1622" points="25.4279994 17.9279996 19.4759996 14.5079997 9.93599978 20.0159996 26.7119994 29.6159993"></polygon>
                        <polygon id="Path" fill="#BB192A" points="20.7239995 50.5319989 11.2079997 56.0279987 5.02799989 52.4759988 5.98799987 42.0599991 12.7319997 45.947999 13.8839997 46.595999"></polygon>
                        <path d="M16.4279996,21.2879995 C15.6719996,21.7199995 15.0479997,21.3719995 15.0479997,20.4959995 C15.0479997,19.6199996 15.6599996,18.5639996 16.4159996,18.1199996 C17.1719996,17.6759996 17.7959996,18.0359996 17.7959996,18.9119996 C17.7959996,19.7879996 17.1839996,20.8439995 16.4279996,21.2879995 Z" id="Path" fill="#79242F"></path>
                        <path d="M20.4839995,36.6359992 C22.4999995,35.4719992 24.1439995,36.4079992 24.1560647,38.7359991 C24.1679995,41.0639991 22.5239995,43.883999 20.5079995,45.047999 C18.4919996,46.211999 16.8359996,45.275999 16.8359996,42.959999 C16.8359996,40.6439991 18.4559996,37.7999992 20.4839995,36.6359992 Z M20.4959995,43.259999 C21.6599995,42.587999 22.5959995,40.9559991 22.5959995,39.6239991 C22.5959995,38.2919991 21.6479995,37.7519992 20.4839995,38.4239991 C19.3199996,39.0959991 18.3839996,40.7279991 18.3839996,42.0599991 C18.3839996,43.391999 19.3319996,43.931999 20.4959995,43.259999" id="Shape" fill="#FFFFFF"></path>
                        <path d="M22.3319995,28.4279994 C22.5479995,28.3079994 22.7639995,28.2839994 22.9199995,28.3799994 C23.0759995,28.4759994 23.2199995,29.1719993 22.8959995,29.7119993 L11.5799997,48.6599989 C11.4407578,48.8903794 11.2522492,49.087084 11.0279998,49.2359989 C10.8119998,49.3559989 10.5959998,49.3799989 10.4399998,49.2839989 C10.2839998,49.1879989 10.1399998,48.4919989 10.4639998,47.9519989 L21.7799995,29.0039994 C21.9158276,28.771024 22.1050123,28.5736139 22.3319995,28.4279994 Z" id="Path" fill="#FFFFFF"></path>
                        <path d="M12.8519997,32.6159993 C14.8679997,31.4519993 16.5239996,32.3879993 16.5239996,34.7039992 C16.5239996,37.0199992 14.8919997,39.8639991 12.8759997,41.0279991 C10.8599998,42.1919991 9.21599979,41.2559991 9.20393452,38.9279991 C9.19199979,36.5999992 10.8359998,33.7799992 12.8519997,32.6159993 Z M12.8759997,39.2399991 C14.0279997,38.5679991 14.9759997,36.9359992 14.9759997,35.6039992 C14.9759997,34.2719992 14.0159997,33.7319992 12.8639997,34.4039992 C11.7119997,35.0759992 10.7519998,36.6959992 10.7639998,38.0399991 C10.7759998,39.3839991 11.7119997,39.9119991 12.8759997,39.2399991" id="Shape" fill="#FFFFFF"></path>
                    </g>
                </g>
            </g>
        </g>
    </g>
</svg>