<?xml version="1.0" encoding="UTF-8" standalone="no"?>
<svg width="51px" height="50px" viewBox="0 0 51 50" version="1.1" xmlns="http://www.w3.org/2000/svg" xmlns:xlink="http://www.w3.org/1999/xlink" xmlns:sketch="http://www.bohemiancoding.com/sketch/ns">
    <!-- Generator: Sketch 3.3.2 (12043) - http://www.bohemiancoding.com/sketch -->
    <title>refresh</title>
    <g fill-rule="evenodd">
            <path d="M48.7128713,30.049505 C48.7128713,30.1485149 48.7128713,30.2475248 48.6633663,30.2970297 C47.2772277,36.039604 44.4059406,40.7425743 40.049505,44.3069307 C35.6930693,47.8712871 30.5445545,49.6534653 24.6534653,49.6534653 C21.5346535,49.6534653 18.4653465,49.0594059 15.5445545,47.8712871 C12.6237624,46.6831683 10,45 7.67326733,42.8217822 L3.51485149,46.980198 C3.11881188,47.3762376 2.62376238,47.5742574 2.07920792,47.5742574 C1.53465347,47.5742574 1.03960396,47.3762376 0.643564356,46.980198 C0.247524752,46.5841584 0.0495049505,46.0891089 0.0495049505,45.5445545 L0.0495049505,31.0891089 C0.0495049505,30.5445545 0.247524752,30.049505 0.643564356,29.6534653 C1.03960396,29.2574257 1.53465347,29.0594059 2.07920792,29.0594059 L16.5346535,29.0594059 C17.0792079,29.0594059 17.5742574,29.2574257 17.970297,29.6534653 C18.3663366,30.049505 18.5643564,30.5445545 18.5643564,31.0891089 C18.5643564,31.6336634 18.3663366,32.1287129 17.970297,32.5247525 L13.5643564,36.9306931 C15.0990099,38.3663366 16.8316832,39.4554455 18.7623762,40.1980198 C20.6930693,40.9405941 22.7227723,41.3366337 24.8019802,41.3366337 C27.6732673,41.3366337 30.3465347,40.6435644 32.8712871,39.2574257 C35.3465347,37.8712871 37.3762376,35.9405941 38.8613861,33.4653465 C39.1089109,33.1188119 39.6534653,31.8316832 40.5940594,29.7029703 C40.7425743,29.2079208 41.0891089,28.960396 41.5841584,28.960396 L47.7722772,28.960396 C48.0693069,28.960396 48.3168317,29.0594059 48.5148515,29.2574257 C48.7128713,29.4554455 48.7128713,29.8019802 48.7128713,30.049505 L48.7128713,30.049505 Z M49.5049505,4.25742574 L49.5049505,18.7128713 C49.5049505,19.2574257 49.3069307,19.7524752 48.9108911,20.1485149 C48.5148515,20.5445545 48.019802,20.7425743 47.4752475,20.7425743 L33.019802,20.7425743 C32.4752475,20.7425743 31.980198,20.5445545 31.5841584,20.1485149 C31.1881188,19.7524752 30.990099,19.2574257 30.990099,18.7128713 C30.990099,18.1683168 31.1881188,17.6732673 31.5841584,17.2772277 L36.039604,12.8217822 C32.8712871,9.9009901 29.1089109,8.41584158 24.8019802,8.41584158 C21.9306931,8.41584158 19.2574257,9.10891089 16.7326733,10.4950495 C14.2574257,11.8811881 12.2277228,13.8118812 10.7425743,16.2871287 C10.4950495,16.6336634 9.95049505,17.9207921 9.00990099,20.049505 C8.86138614,20.5445545 8.51485149,20.7920792 8.01980198,20.7920792 L1.58415842,20.7920792 C1.28712871,20.7920792 1.03960396,20.6930693 0.841584158,20.4950495 C0.643564356,20.2970297 0.544554455,20.049505 0.544554455,19.7524752 L0.544554455,19.5049505 C1.93069307,13.7623762 4.85148515,9.05940594 9.25742574,5.4950495 C13.6633663,1.93069307 18.8118812,0.148514851 24.7029703,0.148514851 C27.8217822,0.148514851 30.8910891,0.742574257 33.8613861,1.93069307 C36.8316832,3.11881188 39.4554455,4.8019802 41.7821782,6.98019802 L45.990099,2.82178218 C46.3861386,2.42574257 46.8811881,2.22772277 47.4257426,2.22772277 C47.970297,2.22772277 48.4653465,2.42574257 48.8613861,2.82178218 C49.3069307,3.21782178 49.5049505,3.71287129 49.5049505,4.25742574 L49.5049505,4.25742574 Z"></path>
    </g>
</svg>