<?xml version="1.0" encoding="utf-8"?>
<!-- Generator: Adobe Illustrator 22.1.0, SVG Export Plug-In . SVG Version: 6.00 Build 0)  -->
<svg version="1.1" id="Isolationsmodus" xmlns="http://www.w3.org/2000/svg" xmlns:xlink="http://www.w3.org/1999/xlink" x="0px"
	 y="0px" viewBox="0 0 56.7 56.7" style="enable-background:new 0 0 56.7 56.7;" xml:space="preserve">
<style type="text/css">
	.st0{fill:#5F5E5E;}
</style>
<g id="piggy_bank_2_">
	<path class="st0" d="M52.8,22.8h-1.4c-1.5-4-4.1-7.5-7.5-10c0,0,0,0,0,0V3.9c0-1.2-1-2.2-2.2-2.2c-5.1,0-8.4,3.7-10.3,6.7
		c-0.3,0-0.6,0-0.9,0c-11.7,0-21.3,9-22.2,20.5c0,0,0,0,0,0L7.2,33c0,0.2-0.2,0.3-0.3,0.4c-0.1,0.1-0.2,0.1-0.6,0.1
		c-0.1,0-0.2-0.2-0.2-0.3c0.3-1.2-0.4-2.4-1.6-2.7c-1.2-0.3-2.4,0.4-2.7,1.6c-0.6,2.5,0.9,5.1,3.5,5.7C5.6,38,6,38,6.5,38
		c0.9,0,1.9-0.3,2.7-0.8c0.1,0,0.1-0.1,0.1-0.1c1.1,3.6,3.1,6.7,5.7,9.3v6.4c0,1.2,1,2.2,2.2,2.2h8.9c1.2,0,2.2-1,2.2-2.2v-0.1
		c0.7,0.1,1.5,0.1,2.2,0.1c0.8,0,1.5,0,2.2-0.1v0.1c0,1.2,1,2.2,2.2,2.2h8.9c1.2,0,2.2-1,2.2-2.2v-6.4c2.3-2.3,4.1-5,5.2-8.1h1.4
		c1.2,0,2.2-1,2.2-2.2V25C55.1,23.8,54.1,22.8,52.8,22.8z M23.8,12.9c4.4-1.7,9.1-1.7,13.5,0c1.1,0.4,1.7,1.7,1.3,2.9
		c-0.4,1.2-1.7,1.7-2.9,1.3c-3.3-1.3-7-1.3-10.3,0c-0.3,0.1-0.5,0.1-0.8,0.1c-0.9,0-1.7-0.5-2.1-1.4C22.1,14.6,22.7,13.4,23.8,12.9z
		 M30.6,43.9c-5.5,0-10-4.5-10-10c0-5.5,4.5-10,10-10c5.5,0,10,4.5,10,10C40.6,39.4,36.1,43.9,30.6,43.9z M42.3,24.6
		c-1.2,0-2.2-1-2.2-2.2c0-1.2,1-2.2,2.2-2.2c1.2,0,2.2,1,2.2,2.2C44.5,23.6,43.5,24.6,42.3,24.6z"/>
	<g>
		<g>
			<path class="st0" d="M29.6,31.3c0,2.7-1.2,3.9-2.5,3.9c-1.8,0-2.5-1.9-2.5-3.8c0-2,0.9-3.9,2.6-3.9C29,27.5,29.6,29.5,29.6,31.3z
				 M26.3,31.3c0,1.6,0.2,2.5,0.8,2.5c0.6,0,0.8-0.9,0.8-2.5c0-1.5-0.2-2.5-0.8-2.5C26.5,28.8,26.3,29.7,26.3,31.3z M26.5,40.4
				l6.8-13h1.3l-6.8,13H26.5z M36.6,36.4c0,2.7-1.2,3.9-2.5,3.9c-1.8,0-2.5-1.9-2.5-3.8c0-2,0.9-3.9,2.6-3.9
				C36,32.6,36.6,34.7,36.6,36.4z M33.3,36.4c0,1.6,0.3,2.5,0.8,2.5c0.6,0,0.8-0.9,0.8-2.5c0-1.5-0.2-2.5-0.8-2.5
				C33.5,33.9,33.3,34.9,33.3,36.4z"/>
		</g>
	</g>
</g>
</svg>
