<?xml version="1.0" encoding="UTF-8" standalone="no"?>
<svg width="50px" height="50px" viewBox="0 0 50 50" version="1.1" xmlns="http://www.w3.org/2000/svg" xmlns:xlink="http://www.w3.org/1999/xlink" xmlns:sketch="http://www.bohemiancoding.com/sketch/ns">
    <!-- Generator: Sketch 3.3.2 (12043) - http://www.bohemiancoding.com/sketch -->
    <title>search</title>
    <g fill-rule="evenodd">
            <path d="M48.7945378,43.3661765 L38.5078782,33.079937 C40.9868697,29.5013655 42.2269958,25.5119748 42.2269958,21.1138655 C42.2269958,18.2548319 41.6719538,15.5204832 40.5618697,12.9114496 C39.452521,10.3019958 37.9528361,8.05283613 36.0634454,6.16344538 C34.1740546,4.27405462 31.9252101,2.77436975 29.3162815,1.66491597 C26.7065126,0.555147059 23.9723739,0.00031512605 21.1133403,0.00031512605 C18.2545168,0.00031512605 15.5201681,0.555147059 12.9111345,1.66491597 C10.3016807,2.77436975 8.05252101,4.27405462 6.16313025,6.16344538 C4.27352941,8.05283613 2.77405462,10.302416 1.6644958,12.9114496 C0.554831933,15.5207983 0,18.2548319 0,21.1138655 C0,23.9726891 0.554831933,26.7060924 1.6644958,29.3158613 C2.77394958,31.924895 4.27352941,34.1737395 6.16313025,36.0631303 C8.05252101,37.9531513 10.3021008,39.4522059 12.9111345,40.5622899 C15.5204832,41.6718487 18.2545168,42.2265756 21.1133403,42.2265756 C25.512395,42.2265756 29.5011555,40.9863445 33.079937,38.507563 L43.3665966,48.7639706 C44.0863445,49.5235294 44.9848739,49.9035714 46.0654412,49.9035714 C47.105042,49.9035714 48.0052521,49.5236345 48.7643908,48.7639706 C49.5238445,48.0045168 49.9038866,47.1047269 49.9038866,46.0651261 C49.9042017,45.0060924 49.5343487,44.1059874 48.7945378,43.3661765 L48.7945378,43.3661765 Z M30.6053571,30.6048319 C27.9762605,33.2343487 24.8125,34.5490546 21.1133403,34.5490546 C17.4148109,34.5490546 14.2510504,33.2340336 11.6217437,30.6048319 C8.99243697,27.9757353 7.67783613,24.812395 7.67783613,21.1132353 C7.67783613,17.4147059 8.9927521,14.2504202 11.6217437,11.6216387 C14.2505252,8.99222689 17.4148109,7.67773109 21.1133403,7.67773109 C24.8120798,7.67773109 27.9758403,8.9927521 30.6053571,11.6216387 C33.2348739,14.2504202 34.5494748,17.4147059 34.5494748,21.1132353 C34.5494748,24.812395 33.2344538,27.9757353 30.6053571,30.6048319 L30.6053571,30.6048319 Z"></path>
    </g>
</svg>