<?xml version="1.0" encoding="UTF-8" standalone="no"?>
<svg width="59px" height="50px" viewBox="0 0 59 50" version="1.1" xmlns="http://www.w3.org/2000/svg" xmlns:xlink="http://www.w3.org/1999/xlink" xmlns:sketch="http://www.bohemiancoding.com/sketch/ns">
    <!-- Generator: Sketch 3.3.2 (12043) - http://www.bohemiancoding.com/sketch -->
    <title>shopping-cart</title>
    <g fill-rule="evenodd">
            <path d="M22.6470588,45.4705882 C22.6470588,46.7058824 22.1764706,47.7647059 21.2941176,48.6470588 C20.4117647,49.5294118 19.3529412,50 18.1176471,50 C16.8823529,50 15.8235294,49.5294118 14.9411765,48.6470588 C14.0588235,47.7647059 13.5882353,46.7058824 13.5882353,45.4705882 C13.5882353,44.2352941 14.0588235,43.1764706 14.9411765,42.2941176 C15.8235294,41.4117647 16.8823529,40.9411765 18.1176471,40.9411765 C19.3529412,40.9411765 20.4117647,41.4117647 21.2941176,42.2941176 C22.1764706,43.1764706 22.6470588,44.2352941 22.6470588,45.4705882 L22.6470588,45.4705882 Z M54.2941176,45.4705882 C54.2941176,46.7058824 53.8235294,47.7647059 52.9411765,48.6470588 C52.0588235,49.5294118 51,50 49.7647059,50 C48.5294118,50 47.4705882,49.5294118 46.5882353,48.6470588 C45.7058824,47.7647059 45.2352941,46.7058824 45.2352941,45.4705882 C45.2352941,44.2352941 45.7058824,43.1764706 46.5882353,42.2941176 C47.4705882,41.4117647 48.5294118,40.9411765 49.7647059,40.9411765 C51,40.9411765 52.0588235,41.4117647 52.9411765,42.2941176 C53.8235294,43.1764706 54.2941176,44.2352941 54.2941176,45.4705882 L54.2941176,45.4705882 Z M58.8235294,7 L58.8235294,25.1176471 C58.8235294,25.7058824 58.6470588,26.1764706 58.2352941,26.6470588 C57.8235294,27.0588235 57.3529412,27.3529412 56.8235294,27.4117647 L19.9411765,31.7058824 C20.2352941,33.1176471 20.4117647,33.9411765 20.4117647,34.1764706 C20.4117647,34.5294118 20.1176471,35.2941176 19.5882353,36.4117647 L52.1176471,36.4117647 C52.7058824,36.4117647 53.2352941,36.6470588 53.7058824,37.0588235 C54.1764706,37.5294118 54.3529412,38.0588235 54.3529412,38.6470588 C54.3529412,39.2352941 54.1176471,39.7647059 53.7058824,40.2352941 C53.2352941,40.7058824 52.7058824,40.8823529 52.1176471,40.8823529 L15.9411765,40.8823529 C15.3529412,40.8823529 14.8235294,40.6470588 14.3529412,40.2352941 C13.8823529,39.7647059 13.7058824,39.2352941 13.7058824,38.6470588 C13.7058824,38.4117647 13.8235294,38 14,37.5294118 C14.1764706,37.0588235 14.3529412,36.6470588 14.5882353,36.2352941 C14.7647059,35.8823529 15.0588235,35.4117647 15.3529412,34.8235294 C15.6470588,34.2352941 15.8823529,33.8823529 15.8823529,33.7647059 L9.64705882,4.64705882 L2.41176471,4.64705882 C1.82352941,4.64705882 1.29411765,4.41176471 0.823529412,4 C0.352941176,3.52941176 0.176470588,3 0.176470588,2.41176471 C0.176470588,1.82352941 0.411764706,1.29411765 0.823529412,0.823529412 C1.29411765,0.352941176 1.82352941,0.176470588 2.41176471,0.176470588 L11.4705882,0.176470588 C11.8235294,0.176470588 12.1764706,0.235294118 12.4705882,0.411764706 C12.7647059,0.588235294 13,0.764705882 13.1764706,0.941176471 C13.3529412,1.17647059 13.4705882,1.47058824 13.6470588,1.82352941 C13.7647059,2.17647059 13.8823529,2.47058824 13.9411765,2.76470588 C14,3 14.0588235,3.35294118 14.1176471,3.82352941 C14.1764706,4.29411765 14.2352941,4.58823529 14.2941176,4.76470588 L56.7647059,4.76470588 C57.3529412,4.76470588 57.8823529,5 58.3529412,5.41176471 C58.5882353,5.88235294 58.8235294,6.41176471 58.8235294,7 L58.8235294,7 Z"></path>
    </g>
</svg>