<?xml version="1.0" encoding="UTF-8" standalone="no"?>
<svg width="279px" height="49px" viewBox="0 0 279 49" version="1.1" xmlns="http://www.w3.org/2000/svg" xmlns:xlink="http://www.w3.org/1999/xlink" xmlns:sketch="http://www.bohemiancoding.com/sketch/ns">
    <!-- Generator: Sketch 3.3.2 (12043) - http://www.bohemiancoding.com/sketch -->
    <title>stars</title>
    <g fill-rule="evenodd">
        <g fill="#FED800">
            <g>
                <path d="M252.222222,0 L260.555556,15.2777778 L277.777778,18.6111111 L265.833333,31.1111111 L268.055556,48.3333333 L252.222222,41.1111111 L236.388889,48.3333333 L238.611111,31.1111111 L226.666667,18.6111111 L243.888889,15.2777778 L252.222222,0"></path>
                <path d="M195.555556,0 L203.888889,15.2777778 L221.111111,18.6111111 L209.166667,31.1111111 L211.388889,48.3333333 L195.555556,41.1111111 L179.722222,48.3333333 L181.944444,31.1111111 L170,18.6111111 L187.222222,15.2777778 L195.555556,0"></path>
                <path d="M138.888889,0 L147.222222,15.2777778 L164.444444,18.6111111 L152.5,31.1111111 L154.722222,48.3333333 L138.888889,40.8333333 L123.055556,48.0555556 L125.277778,30.8333333 L113.333333,18.3333333 L130.555556,15.2777778 L138.888889,0"></path>
                <path d="M82.2222222,0 L90.5555556,15.2777778 L107.777778,18.6111111 L95.8333333,31.1111111 L98.0555556,48.3333333 L82.2222222,41.1111111 L66.3888889,48.3333333 L68.6111111,31.1111111 L56.6666667,18.6111111 L73.8888889,15.2777778 L82.2222222,0"></path>
                <path d="M25.5555556,0 L33.8888889,15.2777778 L51.1111111,18.6111111 L39.1666667,31.1111111 L41.3888889,48.3333333 L25.5555556,41.1111111 L9.72222222,48.3333333 L11.9444444,31.1111111 L0,18.3333333 L17.2222222,15 L25.5555556,0"></path>
            </g>
        </g>
    </g>
</svg>