<?xml version="1.0" encoding="UTF-8" standalone="no"?>
<svg width="96px" height="100px" viewBox="0 0 96 100" version="1.1" xmlns="http://www.w3.org/2000/svg" xmlns:xlink="http://www.w3.org/1999/xlink" xmlns:sketch="http://www.bohemiancoding.com/sketch/ns">
    <!-- Generator: Sketch 3.3.2 (12043) - http://www.bohemiancoding.com/sketch -->
    <title>sun-o</title>
    <g fill-rule="evenodd">
            <path d="M79.8571429,49.9047619 C79.8571429,45.5714286 79,41.3809524 77.3333333,37.4285714 C75.6666667,33.4761905 73.3333333,30.047619 70.4761905,27.1428571 C67.5714286,24.2380952 64.1904762,21.952381 60.1904762,20.2857143 C56.2380952,18.6190476 52.0952381,17.7619048 47.7142857,17.7619048 C43.3809524,17.7619048 39.1904762,18.6190476 35.2380952,20.2857143 C31.2857143,21.952381 27.8571429,24.2857143 24.952381,27.1428571 C22.047619,30.047619 19.7619048,33.4285714 18.0952381,37.4285714 C16.4285714,41.3809524 15.5714286,45.5238095 15.5714286,49.9047619 C15.5714286,54.2857143 16.4285714,58.4285714 18.0952381,62.3809524 C19.7619048,66.3333333 22.0952381,69.7619048 24.952381,72.6666667 C27.8095238,75.5714286 31.2380952,77.8571429 35.2380952,79.5238095 C39.1904762,81.1904762 43.3333333,82.047619 47.7142857,82.047619 C52.047619,82.047619 56.2380952,81.1904762 60.1904762,79.5238095 C64.1428571,77.8571429 67.5714286,75.5238095 70.4761905,72.6666667 C73.3809524,69.7619048 75.6666667,66.3809524 77.3333333,62.3809524 C79,58.4285714 79.8571429,54.2857143 79.8571429,49.9047619 L79.8571429,49.9047619 Z M95.2380952,65.3809524 C95.0952381,65.952381 94.7142857,66.3333333 94.1428571,66.4761905 L77.8571429,71.8095238 L77.8571429,88.8571429 C77.8571429,89.4761905 77.6190476,89.952381 77.1428571,90.2857143 C76.5714286,90.6666667 76.047619,90.7142857 75.5238095,90.5238095 L59.2380952,85.2857143 L49.1904762,99.0952381 C48.8095238,99.5714286 48.3333333,99.8095238 47.7619048,99.8095238 C47.1428571,99.8095238 46.6666667,99.5714286 46.3333333,99.0952381 L36.2857143,85.2857143 L20,90.5238095 C19.4761905,90.7619048 18.952381,90.6666667 18.3809524,90.2857143 C17.9047619,89.9047619 17.6666667,89.4285714 17.6666667,88.8571429 L17.6666667,71.8095238 L1.38095238,66.4761905 C0.761904762,66.2857143 0.428571429,65.9047619 0.285714286,65.3809524 C0.0952380952,64.7619048 0.19047619,64.1904762 0.523809524,63.7619048 L10.5714286,49.952381 L0.523809524,36.1428571 C0.19047619,35.6666667 0.0952380952,35.1428571 0.285714286,34.5238095 C0.428571429,33.952381 0.80952381,33.5714286 1.38095238,33.4285714 L17.6666667,28.0952381 L17.6666667,11.047619 C17.6666667,10.4285714 17.9047619,9.95238095 18.3809524,9.61904762 C18.952381,9.23809524 19.4761905,9.19047619 20,9.38095238 L36.2857143,14.6190476 L46.3333333,0.80952381 C46.6666667,0.380952381 47.1428571,0.142857143 47.7619048,0.142857143 C48.3809524,0.142857143 48.8571429,0.380952381 49.1904762,0.80952381 L59.2380952,14.6190476 L75.5238095,9.38095238 C76.047619,9.14285714 76.5714286,9.23809524 77.1428571,9.61904762 C77.6190476,10 77.8571429,10.4761905 77.8571429,11.047619 L77.8571429,28.0952381 L94.1428571,33.4285714 C94.7619048,33.6190476 95.0952381,34 95.2380952,34.5238095 C95.4285714,35.1428571 95.3333333,35.6666667 95,36.1428571 L84.952381,49.952381 L95,63.7619048 C95.3809524,64.1904762 95.4285714,64.7142857 95.2380952,65.3809524 L95.2380952,65.3809524 Z"></path>
    </g>
</svg>