<svg xmlns="http://www.w3.org/2000/svg" viewBox="0 0 56.7 56.7" viewBox="0 0 56.7 56.7" ><path d="M26.4 54.9c-2.1-.5-4.3-2.2-4.3-3.3 0-.3-.4-.6-1-.9-1.7-.7-2-1.8-1.9-6.4 0-2.6-.1-4.8-.4-6.8l-.4-3-2.4-2.3c-2-2-2.5-2.6-3.5-4.7-1.5-3.2-2.1-5.7-1.9-8.9C11.2 8.1 20.5.4 30.7 1.8 39.3 3 45.6 9.9 46.1 18.5c.2 3.2-.4 5.7-1.9 8.9-1 2.1-1.5 2.8-3.5 4.7l-2.3 2.3-.4 3c-.3 2-.4 4.2-.4 6.8.1 4.7-.2 5.7-1.9 6.4-.6.3-1 .6-1 .9 0 .7-1.5 2.2-2.8 2.7-1.6.8-4.1 1.1-5.5.7zm4.4-2.8c1.2-.5 1.7-1.1 1.4-1.5-.2-.4-.7-.3-2.1.3-1.3.6-2.4.5-4.4-.3-.6-.2-.9-.3-1.1-.1-.5.5 0 1.1 1.2 1.6a7.17 7.17 0 0 0 5 0zm-2.7-4.6l5.8-1.3c1.1-.3 1.5-1.1.9-1.7-.4-.4-1-.3-6.5.9-3.4.7-6.2 1.5-6.4 1.6-.7.6 0 1.9 1 1.6.1 0 2.5-.6 5.2-1.1zm6.5 1c.6-.3.6-1.1.1-1.5-.3-.2-1.2-.1-4.5.6-2.3.5-4.2 1-4.3 1-.2.3 8.3.1 8.7-.1zm-6.5-3.6l5.8-1.3c1.1-.3 1.5-1.1.9-1.7-.4-.4-.9-.3-6.5.9-3.3.7-6.2 1.5-6.4 1.6s-.3.4-.3.6c0 .5.8 1.2 1.2 1 .2 0 2.6-.5 5.3-1.1zm.6-2.8l1.9-.5h-4.2c-4.2 0-4.9.1-4.9.9 0 .2.2.5.4.7.4.4 1.4.2 6.8-1.1zm1.1-2.6l.2-4.7c.2-4.9.2-4.7 2.3-10.1.3-.7.4-1.4.4-1.4-.4-.2-8.6 0-8.6.2 0 .1.6 1.7 1.2 3.5l1.2 3.2.2 4.6.2 4.7a9.44 9.44 0 0 0 1.4.1c.8-.1 1.5-.1 1.5-.1z" fill="#5f5e5e"/></svg>