<?xml version="1.0" encoding="utf-8"?>
<!-- Generator: Adobe Illustrator 26.0.3, SVG Export Plug-In . SVG Version: 6.00 Build 0)  -->
<svg version="1.1" xmlns="http://www.w3.org/2000/svg" xmlns:xlink="http://www.w3.org/1999/xlink" x="0px" y="0px" width="365px"
	 height="35px" viewBox="0 0 365 35" enable-background="new 0 0 365 35" xml:space="preserve">
<g id="Ebene_3">
	<rect fill-rule="evenodd" clip-rule="evenodd" fill="#D40140" width="365" height="35"/>
	<polygon fill="#FFFFFF" points="360,35 0,35 5,0 365,0 	"/>
</g>
<g id="Ebene_4">
	<g>
		<path fill="#0D6A6D" d="M26.2,35c-0.4,0-0.7-0.3-0.7-0.7C25.2,28,23.3,23.1,20,20c-1.3-1.2-2.6-1.9-3.4-2.3
			c-0.9-0.4-1.5-0.5-1.5-0.5c-0.4-0.1-0.6-0.4-0.6-0.8c0.1-0.4,0.4-0.6,0.8-0.6c0.1,0,2.8,0.6,5.6,3.1c1.6,1.5,2.9,3.4,3.9,5.6
			c1.2,2.8,1.9,6,2.1,9.8C27,34.6,26.7,35,26.2,35C26.3,35,26.3,35,26.2,35z"/>
		<path fill="#D40140" d="M15,23.2c-1.3-1.8-2.2-4.8-0.4-6.1c1.8-1.3,4.4,0.4,5.7,2.3c1.1,1.5,0.8,3.6-0.6,4.7
			C18.2,25.1,16,24.7,15,23.2z"/>
		<path fill="#D40140" d="M20.8,17.7c-2.2,0.7-5.2,0.6-5.9-1.5c-0.7-2.2,1.8-4,3.9-4.7c1.7-0.6,3.7,0.3,4.3,2
			C23.6,15.2,22.5,17.1,20.8,17.7z"/>
		<path fill="#D40140" d="M17.4,10.4c0,2.3-1,5.2-3.3,5.2c-2.3,0-3.3-2.9-3.3-5.2c0-1.8,1.5-3.4,3.3-3.4C15.9,7,17.4,8.6,17.4,10.4z
			"/>
		<path fill="#D40140" d="M9.4,11.5c2.2,0.7,4.6,2.6,3.9,4.7c-0.7,2.2-3.8,2.2-5.9,1.5c-1.7-0.6-2.8-2.5-2.3-4.2
			C5.7,11.8,7.7,10.9,9.4,11.5z"/>
		<path fill="#D40140" d="M8,19.4c1.3-1.8,3.9-3.6,5.7-2.3c1.8,1.3,0.9,4.3-0.4,6.1c-1.1,1.5-3.2,1.9-4.7,0.9
			C7.1,23,6.9,20.8,8,19.4z"/>
		<path display="none" fill="#FFFFFF" stroke="#FFFFFF" stroke-width="13" stroke-miterlimit="10" d="M14.2,16.4
			C14.2,16.5,14.1,16.5,14.2,16.4c-0.1,0.1-0.1,0-0.1,0C14.1,16.4,14.1,16.4,14.2,16.4C14.1,16.4,14.2,16.4,14.2,16.4z"/>
		<path fill="#FFFFFF" d="M16.5,16.4c0,1.3-1.1,2.4-2.4,2.4c-1.3,0-2.4-1.1-2.4-2.4c0-1.3,1.1-2.4,2.4-2.4
			C15.5,14,16.5,15.1,16.5,16.4z"/>
		<path fill="#103436" d="M16,16.4c0,1-0.8,1.9-1.9,1.9c-1,0-1.9-0.8-1.9-1.9c0-1,0.8-1.9,1.9-1.9C15.1,14.6,16,15.4,16,16.4z"/>
		<g>
			<path fill="#0D6A6D" d="M28,29.5c0.5,0.1,3.1,1,4.4-3.8c1.2-4.5-0.3-7.4-0.3-7.4s-3.3,2.2-5,6.4C25.5,28.5,28,29.5,28,29.5z"/>
			<path fill="#FFFFFF" d="M28,29.7c2.6-3.6,3.3-8.8,3.3-8.8s-1.3,4.8-3.8,8.5L28,29.7z"/>
		</g>
		<g>
			<path fill="#0D6A6D" d="M24.5,32.3c-0.3,0.3-2,2.1-4.9,0.1c-3.1-2.2-3.8-4.9-3.8-4.9s3.4-0.3,6.7,1.5
				C25.4,30.5,24.5,32.3,24.5,32.3z"/>
			<path fill="#FFFFFF" d="M24.6,32.4c-3.5-0.8-6.7-3.6-6.7-3.6s3.3,2.2,6.8,3.1L24.6,32.4z"/>
		</g>
	</g>
	<g>
		<path fill="#0D6A6D" d="M338.8,35c0.4,0,0.7-0.3,0.7-0.7c0.3-6.3,2.2-11.2,5.5-14.4c1.3-1.2,2.6-1.9,3.4-2.3
			c0.9-0.4,1.5-0.5,1.5-0.5c0.4-0.1,0.6-0.4,0.6-0.8c-0.1-0.4-0.4-0.6-0.8-0.6c-0.1,0-2.8,0.6-5.6,3.1c-1.6,1.5-2.9,3.4-3.9,5.6
			c-1.2,2.8-1.9,6-2.1,9.8C338,34.6,338.3,35,338.8,35C338.7,35,338.7,35,338.8,35z"/>
		<path fill="#D40140" d="M350,23.2c1.3-1.8,2.2-4.8,0.4-6.1s-4.4,0.4-5.7,2.3c-1.1,1.5-0.8,3.6,0.6,4.7
			C346.8,25.1,349,24.7,350,23.2z"/>
		<path fill="#D40140" d="M344.2,17.7c2.2,0.7,5.2,0.6,5.9-1.5c0.7-2.2-1.8-4-3.9-4.7c-1.7-0.6-3.7,0.3-4.3,2
			C341.4,15.2,342.5,17.1,344.2,17.7z"/>
		<path fill="#D40140" d="M347.6,10.4c0,2.3,1,5.2,3.3,5.2c2.3,0,3.3-2.9,3.3-5.2c0-1.8-1.5-3.4-3.3-3.4
			C349.1,7,347.6,8.6,347.6,10.4z"/>
		<path fill="#D40140" d="M355.6,11.5c-2.2,0.7-4.6,2.6-3.9,4.7c0.7,2.2,3.8,2.2,5.9,1.5c1.7-0.6,2.8-2.5,2.3-4.2
			C359.3,11.8,357.3,10.9,355.6,11.5z"/>
		<path fill="#D40140" d="M357,19.4c-1.3-1.8-3.9-3.6-5.7-2.3c-1.8,1.3-0.9,4.3,0.4,6.1c1.1,1.5,3.2,1.9,4.7,0.9
			C357.9,23,358.1,20.8,357,19.4z"/>
		<path display="none" fill="#FFFFFF" stroke="#FFFFFF" stroke-width="13" stroke-miterlimit="10" d="M350.8,16.4
			C350.8,16.5,350.9,16.5,350.8,16.4c0.1,0.1,0.1,0,0.1,0C350.9,16.4,350.9,16.4,350.8,16.4C350.9,16.4,350.8,16.4,350.8,16.4z"/>
		<path fill="#FFFFFF" d="M348.5,16.4c0,1.3,1.1,2.4,2.4,2.4s2.4-1.1,2.4-2.4c0-1.3-1.1-2.4-2.4-2.4S348.5,15.1,348.5,16.4z"/>
		<path fill="#103436" d="M349,16.4c0,1,0.8,1.9,1.9,1.9c1,0,1.9-0.8,1.9-1.9c0-1-0.8-1.9-1.9-1.9C349.9,14.6,349,15.4,349,16.4z"/>
		<g>
			<path fill="#0D6A6D" d="M337,29.5c-0.5,0.1-3.1,1-4.4-3.8c-1.2-4.5,0.3-7.4,0.3-7.4s3.3,2.2,5,6.4C339.5,28.5,337,29.5,337,29.5z
				"/>
			<path fill="#FFFFFF" d="M337,29.7c-2.6-3.6-3.3-8.8-3.3-8.8s1.3,4.8,3.8,8.5L337,29.7z"/>
		</g>
		<g>
			<path fill="#0D6A6D" d="M340.5,32.3c0.3,0.3,2,2.1,4.9,0.1c3.1-2.2,3.8-4.9,3.8-4.9s-3.4-0.3-6.7,1.5
				C339.6,30.5,340.5,32.3,340.5,32.3z"/>
			<path fill="#FFFFFF" d="M340.4,32.4c3.5-0.8,6.7-3.6,6.7-3.6s-3.3,2.2-6.8,3.1L340.4,32.4z"/>
		</g>
	</g>
</g>
<g id="Ebene_2">
	<g>
		<path fill="#D40140" d="M70.4,11.6l-8.5,19.6h-3.6l-8.6-19.6h4l6.5,15.1l6.6-15.1H70.4z"/>
		<path fill="#D40140" d="M84.6,26.7h-9.8l-1.9,4.5h-3.8l8.8-19.6h3.6l8.9,19.6h-3.8L84.6,26.7z M83.4,23.8l-3.7-8.6L76,23.8H83.4z
			 M77.4,9c-0.6-0.6-0.9-1.4-0.9-2.3c0-0.9,0.3-1.7,0.9-2.3c0.6-0.6,1.4-1,2.3-1c0.9,0,1.7,0.3,2.3,1C82.7,5.1,83,5.9,83,6.8
			C83,7.6,82.7,8.4,82,9c-0.6,0.6-1.4,0.9-2.3,0.9C78.8,9.9,78,9.6,77.4,9z M81,8c0.3-0.3,0.5-0.8,0.5-1.3c0-0.5-0.2-1-0.5-1.3
			c-0.3-0.3-0.8-0.5-1.3-0.5c-0.5,0-0.9,0.2-1.3,0.5c-0.3,0.3-0.5,0.8-0.5,1.3c0,0.5,0.2,0.9,0.5,1.3c0.3,0.3,0.8,0.5,1.3,0.5
			C80.2,8.5,80.7,8.3,81,8z"/>
		<path fill="#D40140" d="M105.7,31.2l-4-5.7c-0.2,0-0.4,0-0.8,0h-4.4v5.7h-3.6V11.6h8.1c1.7,0,3.2,0.3,4.4,0.8
			c1.3,0.6,2.2,1.4,2.9,2.4c0.7,1,1,2.3,1,3.7c0,1.5-0.4,2.7-1.1,3.8c-0.7,1.1-1.8,1.9-3.1,2.4l4.5,6.4H105.7z M104.4,15.7
			c-0.8-0.7-2-1-3.6-1h-4.3v7.8h4.3c1.6,0,2.8-0.3,3.6-1c0.8-0.7,1.2-1.6,1.2-2.9C105.6,17.3,105.2,16.4,104.4,15.7z"/>
		<path fill="#D40140" d="M128.1,28.2v3.1h-14.7V11.6h14.3v3.1H117v5.1h9.5v3H117v5.4H128.1z"/>
		<path fill="#D40140" d="M145,31.2l-4-5.7c-0.2,0-0.4,0-0.8,0h-4.4v5.7h-3.6V11.6h8.1c1.7,0,3.2,0.3,4.4,0.8
			c1.3,0.6,2.2,1.4,2.9,2.4c0.7,1,1,2.3,1,3.7c0,1.5-0.4,2.7-1.1,3.8c-0.7,1.1-1.8,1.9-3.1,2.4l4.5,6.4H145z M143.7,15.7
			c-0.8-0.7-2-1-3.6-1h-4.3v7.8h4.3c1.6,0,2.8-0.3,3.6-1c0.8-0.7,1.2-1.6,1.2-2.9C144.9,17.3,144.5,16.4,143.7,15.7z"/>
		<path fill="#D40140" d="M169.1,22.8c0.6,0.8,1,1.9,1,3.1c0,1.7-0.7,3-2,3.9c-1.3,0.9-3.2,1.4-5.7,1.4h-9.8V11.6h9.2
			c2.3,0,4.1,0.5,5.4,1.4c1.2,0.9,1.9,2.2,1.9,3.7c0,1-0.2,1.8-0.7,2.6c-0.4,0.7-1.1,1.3-1.8,1.7C167.6,21.4,168.5,22,169.1,22.8z
			 M156.3,14.5v5.4h5.2c1.3,0,2.2-0.2,2.9-0.7c0.7-0.5,1-1.1,1-2c0-0.9-0.3-1.6-1-2c-0.7-0.5-1.7-0.7-2.9-0.7H156.3z M166.4,25.5
			c0-1.9-1.4-2.8-4.2-2.8h-5.9v5.7h5.9C165,28.4,166.4,27.4,166.4,25.5z"/>
		<path fill="#D40140" d="M173.6,30.8c-1.1-0.5-1.9-1.2-2.6-2.1l2.1-2.5c1.1,1.5,2.4,2.2,3.9,2.2c2,0,3.1-1.2,3.1-3.6V14.7h-7v-3.1
			h10.6v13c0,2.3-0.6,4-1.7,5.2c-1.1,1.1-2.8,1.7-4.9,1.7C175.8,31.5,174.6,31.3,173.6,30.8z"/>
		<path fill="#D40140" d="M190.8,29.2c-1.5-1.5-2.3-3.7-2.3-6.5V11.6h3.6v10.9c0,3.9,1.7,5.8,5,5.8c3.3,0,5-1.9,5-5.8V11.6h3.6v11.1
			c0,2.8-0.8,5-2.3,6.5c-1.5,1.5-3.6,2.3-6.3,2.3C194.5,31.5,192.3,30.7,190.8,29.2z"/>
		<path fill="#D40140" d="M210.8,11.6h8.6c2.1,0,4,0.4,5.6,1.2c1.6,0.8,2.9,2,3.8,3.4c0.9,1.5,1.3,3.2,1.3,5.1
			c0,1.9-0.4,3.7-1.3,5.1c-0.9,1.5-2.2,2.6-3.8,3.4c-1.6,0.8-3.5,1.2-5.6,1.2h-8.6V11.6z M219.3,28.1c1.4,0,2.7-0.3,3.8-0.8
			c1.1-0.6,1.9-1.3,2.5-2.4c0.6-1,0.9-2.2,0.9-3.5c0-1.3-0.3-2.5-0.9-3.5c-0.6-1-1.4-1.8-2.5-2.4c-1.1-0.6-2.4-0.8-3.8-0.8h-4.8
			v13.5H219.3z"/>
		<path fill="#D40140" d="M246.4,26.7h-9.8l-1.9,4.5h-3.8l8.8-19.6h3.6l8.9,19.6h-3.8L246.4,26.7z M245.2,23.8l-3.7-8.6l-3.7,8.6
			H245.2z"/>
		<path fill="#D40140" d="M272.1,11.6v19.6h-3l-10.8-13.3v13.3h-3.6V11.6h3l10.8,13.3V11.6H272.1z"/>
		<path fill="#D40140" d="M277.4,11.6h8.6c2.1,0,4,0.4,5.6,1.2c1.6,0.8,2.9,2,3.8,3.4c0.9,1.5,1.3,3.2,1.3,5.1
			c0,1.9-0.4,3.7-1.3,5.1c-0.9,1.5-2.2,2.6-3.8,3.4c-1.6,0.8-3.5,1.2-5.6,1.2h-8.6V11.6z M285.8,28.1c1.4,0,2.7-0.3,3.8-0.8
			c1.1-0.6,1.9-1.3,2.5-2.4s0.9-2.2,0.9-3.5c0-1.3-0.3-2.5-0.9-3.5c-0.6-1-1.4-1.8-2.5-2.4c-1.1-0.6-2.4-0.8-3.8-0.8h-4.8v13.5
			H285.8z"/>
		<path fill="#D40140" d="M315.3,28.2v3.1h-14.7V11.6h14.3v3.1h-10.7v5.1h9.5v3h-9.5v5.4H315.3z"/>
	</g>
</g>
</svg>
