<?xml version="1.0" encoding="utf-8"?>
<!-- Generator: Adobe Illustrator 26.0.3, SVG Export Plug-In . SVG Version: 6.00 Build 0)  -->
<svg version="1.1" xmlns="http://www.w3.org/2000/svg" xmlns:xlink="http://www.w3.org/1999/xlink" x="0px" y="0px" width="365px"
	 height="35px" viewBox="0 0 365 35" enable-background="new 0 0 365 35" xml:space="preserve">
<g id="Ebene_3">
	<rect fill-rule="evenodd" clip-rule="evenodd" fill="#D40140" width="365" height="35"/>
	<polygon fill="#85C3D6" points="360,0 343,0 16,0 5,0 0,35 21,35 338,35 365,35 	"/>
</g>
<g id="Ebene_4">
	<g>
		<g>
			<g>
				<path fill="#F2D662" d="M345.4,9c2.8,0,5.3,1.1,7.1,2.9c1.8,1.8,2.9,4.3,2.9,7.1c0,2.8-1.1,5.3-2.9,7.1
					c-1.8,1.8-4.3,2.9-7.1,2.9c-2.8,0-5.3-1.1-7.1-2.9c-1.8-1.8-2.9-4.3-2.9-7.1c0-2.8,1.1-5.3,2.9-7.1C340.1,10.1,342.6,9,345.4,9
					L345.4,9z"/>
				<path fill-rule="evenodd" clip-rule="evenodd" fill="#F2D662" d="M349.5,32.8c0.5,0,1,0.1,1.4,0.2c0.1-0.2,0.1-0.4,0.1-0.6
					l-0.9-2.4c-0.1-0.4-0.6-0.6-1-0.5c-0.4,0.1-0.6,0.6-0.5,1L349.5,32.8z"/>
				<path fill-rule="evenodd" clip-rule="evenodd" fill="#F2D662" d="M352.5,27.6L352.5,27.6c0.3-0.3,0.8-0.2,1.1,0.1l1.7,2
					c0.3,0.3,0.2,0.8-0.1,1.1l0,0c-0.3,0.3-0.8,0.2-1.1-0.1l-1.7-2C352.1,28.3,352.2,27.8,352.5,27.6L352.5,27.6z"/>
				<path fill-rule="evenodd" clip-rule="evenodd" fill="#F2D662" d="M355,24.6L355,24.6c0.2-0.4,0.7-0.5,1-0.3l2.2,1.3
					c0.4,0.2,0.5,0.7,0.3,1l0,0c-0.2,0.4-0.7,0.5-1,0.3l-2.2-1.3C354.9,25.4,354.8,25,355,24.6L355,24.6z"/>
				<path fill-rule="evenodd" clip-rule="evenodd" fill="#F2D662" d="M356.3,21L356.3,21c0.1-0.4,0.5-0.7,0.9-0.6l2.6,0.5
					c0.4,0.1,0.7,0.5,0.6,0.9l0,0c-0.1,0.4-0.5,0.7-0.9,0.6l-2.6-0.5C356.5,21.8,356.2,21.4,356.3,21L356.3,21z"/>
				<path fill-rule="evenodd" clip-rule="evenodd" fill="#F2D662" d="M356.3,17.1L356.3,17.1c-0.1-0.4,0.2-0.8,0.6-0.9l2.6-0.4
					c0.4-0.1,0.8,0.2,0.9,0.6l0,0c0.1,0.4-0.2,0.8-0.6,0.9l-2.6,0.4C356.8,17.8,356.4,17.5,356.3,17.1L356.3,17.1z"/>
				<path fill-rule="evenodd" clip-rule="evenodd" fill="#F2D662" d="M355,13.5L355,13.5c-0.2-0.4-0.1-0.8,0.3-1l2.2-1.3
					c0.4-0.2,0.8-0.1,1,0.3l0,0c0.2,0.4,0.1,0.8-0.3,1l-2.2,1.3C355.6,14,355.2,13.9,355,13.5L355,13.5z"/>
				<path fill-rule="evenodd" clip-rule="evenodd" fill="#F2D662" d="M352.5,10.6L352.5,10.6c-0.3-0.3-0.4-0.8-0.1-1.1l1.7-2
					c0.3-0.3,0.8-0.4,1.1-0.1l0,0c0.3,0.3,0.4,0.8,0.1,1.1l-1.7,2C353.3,10.8,352.8,10.8,352.5,10.6L352.5,10.6z"/>
				<path fill-rule="evenodd" clip-rule="evenodd" fill="#F2D662" d="M349.2,8.6L349.2,8.6c-0.4-0.1-0.6-0.6-0.5-1l0.9-2.4
					c0.1-0.4,0.6-0.6,1-0.5l0,0c0.4,0.1,0.6,0.6,0.5,1l-0.9,2.4C350,8.6,349.5,8.8,349.2,8.6L349.2,8.6z"/>
				<path fill-rule="evenodd" clip-rule="evenodd" fill="#F2D662" d="M345.4,8L345.4,8c-0.4,0-0.8-0.3-0.8-0.8V4.6
					c0-0.4,0.3-0.8,0.8-0.8l0,0c0.4,0,0.8,0.3,0.8,0.8v2.6C346.1,7.6,345.8,8,345.4,8L345.4,8z"/>
				<path fill-rule="evenodd" clip-rule="evenodd" fill="#F2D662" d="M341.6,8.6L341.6,8.6c-0.4,0.1-0.8-0.1-1-0.5l-0.9-2.4
					c-0.1-0.4,0.1-0.8,0.5-1l0,0c0.4-0.1,0.8,0.1,1,0.5l0.9,2.4C342.2,8,342,8.5,341.6,8.6L341.6,8.6z"/>
				<path fill-rule="evenodd" clip-rule="evenodd" fill="#F2D662" d="M338.2,10.6L338.2,10.6c-0.3,0.3-0.8,0.2-1.1-0.1l-1.7-2
					c-0.3-0.3-0.2-0.8,0.1-1.1l0,0c0.3-0.3,0.8-0.2,1.1,0.1l1.7,2C338.6,9.8,338.5,10.3,338.2,10.6L338.2,10.6z"/>
				<path fill-rule="evenodd" clip-rule="evenodd" fill="#F2D662" d="M335.7,13.5L335.7,13.5c-0.2,0.4-0.7,0.5-1,0.3l-2.2-1.3
					c-0.4-0.2-0.5-0.7-0.3-1l0,0c0.2-0.4,0.7-0.5,1-0.3l2.2,1.3C335.8,12.7,336,13.1,335.7,13.5L335.7,13.5z"/>
				<path fill-rule="evenodd" clip-rule="evenodd" fill="#F2D662" d="M334.4,17.1L334.4,17.1c-0.1,0.4-0.5,0.7-0.9,0.6l-2.6-0.4
					c-0.4-0.1-0.7-0.5-0.6-0.9l0,0c0.1-0.4,0.5-0.7,0.9-0.6l2.6,0.4C334.2,16.3,334.5,16.7,334.4,17.1L334.4,17.1z"/>
				<path fill-rule="evenodd" clip-rule="evenodd" fill="#F2D662" d="M334.4,21L334.4,21c0.1,0.4-0.2,0.8-0.6,0.9l-2.6,0.5
					c-0.4,0.1-0.8-0.2-0.9-0.6l0,0c-0.1-0.4,0.2-0.8,0.6-0.9l2.6-0.5C334,20.3,334.4,20.6,334.4,21L334.4,21z"/>
				<path fill-rule="evenodd" clip-rule="evenodd" fill="#F2D662" d="M335.7,24.6L335.7,24.6c0.2,0.4,0.1,0.8-0.3,1l-2.2,1.3
					c-0.4,0.2-0.8,0.1-1-0.3l0,0c-0.2-0.4-0.1-0.8,0.3-1l2.2-1.3C335.1,24.1,335.5,24.2,335.7,24.6L335.7,24.6z"/>
				<path fill-rule="evenodd" clip-rule="evenodd" fill="#F2D662" d="M338.2,27.6L338.2,27.6c0.3,0.3,0.4,0.8,0.1,1.1l-1.7,2
					c-0.3,0.3-0.8,0.4-1.1,0.1l0,0c-0.3-0.3-0.4-0.8-0.1-1.1l1.7-2C337.4,27.3,337.9,27.3,338.2,27.6L338.2,27.6z"/>
				<path fill-rule="evenodd" clip-rule="evenodd" fill="#F2D662" d="M341.4,32.2l0.6-1.8c0.1-0.4-0.1-0.8-0.5-1
					c-0.4-0.1-0.8,0.1-1,0.5l-0.9,2.4c-0.1,0.2-0.1,0.4,0,0.6C340.2,32.6,340.7,32.4,341.4,32.2z"/>
			</g>
			<path fill-rule="evenodd" clip-rule="evenodd" fill="#F2D662" d="M344.4,33.3c0.5,0.2,0.9,0.5,1.2,0.8c0.2-0.1,0.3-0.3,0.3-0.5
				l0.2-2.6c0-0.4-0.3-0.8-0.7-0.8c-0.4,0-0.8,0.3-0.8,0.7L344.4,33.3z"/>
		</g>
		<g>
			<rect x="25.7" y="31.5" fill="#2C7FE8" width="339.3" height="3.5"/>
		</g>
		<g>
			<path fill="#D99B4F" d="M29.8,35C20.6,21.5,2.1,20.1,2.1,20.1L0,35H29.8z"/>
			<g>
				<g>
					<path fill="#692E09" d="M20.6,8.4l0.2-0.7c0.1-0.2-0.1-0.4-0.3-0.5c-0.2-0.1-0.4,0.1-0.5,0.3l-0.2,0.7c0.1,0,0.2,0.1,0.4,0.1
						C20.3,8.4,20.5,8.4,20.6,8.4z"/>
					<path fill="#692E09" d="M14.7,27.7c-0.1,0.2,0.1,0.4,0.3,0.5c0,0,0.1,0,0.1,0c0.2,0,0.3-0.1,0.4-0.3l3.3-12.3L18,15.4
						L14.7,27.7z"/>
					<path fill="#692E09" d="M16.6,9.3c-1.1,0.6-1.9,1.7-2.4,3l9.1,2.5c0.6-2.6-0.9-5.3-3.3-6C18.9,8.5,17.7,8.7,16.6,9.3z"/>
					<polygon fill="#692E09" points="14.3,12.9 14.6,13.8 22.3,16 23,15.3 					"/>
					<polygon fill="#692E09" points="9.9,11.7 9.6,12.5 13.1,13.4 13.5,12.7 					"/>
					<path fill="#692E09" d="M13.8,12.2c0.4-1.4,1.4-2.6,2.6-3.3c0.3-0.1,0.5-0.3,0.8-0.4c-2.6,0-5.1,1-6.9,2.7L13.8,12.2z"/>
					<polygon fill="#692E09" points="23.9,15.5 23.9,16.4 27.3,17.4 27.5,16.5 					"/>
					<path fill="#692E09" d="M27.4,15.9c-0.7-2.5-2.4-4.6-4.6-5.9c1,1.3,1.5,3.1,1.1,4.9L27.4,15.9z"/>
				</g>
			</g>
		</g>
	</g>
</g>
<g id="Ebene_2">
	<g>
		<path fill="#FFFFFF" d="M51.4,30.6c-2-0.6-3.5-1.4-4.6-2.4l1.8-3.9c1.1,0.9,2.5,1.6,4.1,2.2c1.6,0.6,3.2,0.8,4.9,0.8
			c2,0,3.5-0.3,4.5-1c1-0.6,1.5-1.5,1.5-2.6c0-0.8-0.3-1.4-0.8-1.9c-0.6-0.5-1.3-0.9-2.1-1.2c-0.9-0.3-2-0.6-3.5-1
			c-2.1-0.5-3.8-1-5-1.5c-1.3-0.5-2.4-1.3-3.3-2.3c-0.9-1.1-1.4-2.5-1.4-4.3c0-1.5,0.4-2.9,1.2-4.1c0.8-1.2,2.1-2.2,3.7-2.9
			c1.6-0.7,3.7-1.1,6-1.1c1.7,0,3.3,0.2,4.9,0.6c1.6,0.4,3,1,4.2,1.8l-1.6,3.9c-1.2-0.7-2.4-1.2-3.7-1.6c-1.3-0.4-2.6-0.5-3.8-0.5
			c-2,0-3.5,0.3-4.5,1c-1,0.7-1.5,1.6-1.5,2.7c0,0.8,0.3,1.4,0.8,1.9c0.6,0.5,1.3,0.9,2.1,1.2c0.9,0.3,2,0.6,3.5,1
			c2,0.5,3.7,1,5,1.5c1.3,0.5,2.4,1.3,3.3,2.3s1.4,2.4,1.4,4.2c0,1.5-0.4,2.9-1.2,4.1c-0.8,1.2-2.1,2.2-3.7,2.9
			c-1.7,0.7-3.7,1.1-6.1,1.1C55.4,31.5,53.4,31.2,51.4,30.6z"/>
		<path fill="#FFFFFF" d="M78.7,29.7c-2.2-1.2-4-2.9-5.3-5c-1.3-2.1-1.9-4.5-1.9-7.2c0-2.6,0.6-5,1.9-7.2c1.3-2.1,3-3.8,5.3-5
			c2.2-1.2,4.7-1.8,7.5-1.8c2.8,0,5.3,0.6,7.5,1.8c2.2,1.2,4,2.9,5.3,5c1.3,2.1,1.9,4.5,1.9,7.2c0,2.7-0.6,5.1-1.9,7.2
			c-1.3,2.1-3,3.8-5.3,5c-2.2,1.2-4.7,1.8-7.5,1.8C83.5,31.5,81,30.9,78.7,29.7z M91.1,25.8c1.4-0.8,2.6-2,3.4-3.4
			c0.8-1.5,1.2-3.1,1.2-4.9c0-1.8-0.4-3.5-1.2-4.9s-2-2.6-3.4-3.4c-1.5-0.8-3.1-1.2-4.9-1.2c-1.8,0-3.4,0.4-4.9,1.2s-2.6,2-3.4,3.4
			c-0.8,1.5-1.2,3.1-1.2,4.9c0,1.8,0.4,3.5,1.2,4.9c0.8,1.5,2,2.6,3.4,3.4c1.5,0.8,3.1,1.2,4.9,1.2C88,27.1,89.7,26.7,91.1,25.8z"/>
		<path fill="#FFFFFF" d="M131.3,31.1l0-18L122.3,28H120l-8.9-14.7v17.8h-4.8V3.9h4.2l10.8,18l10.6-18h4.2l0,27.2H131.3z"/>
		<path fill="#FFFFFF" d="M168.4,31.1l0-18L159.4,28h-2.3l-8.9-14.7v17.8h-4.8V3.9h4.2l10.8,18l10.6-18h4.2l0,27.2H168.4z"/>
		<path fill="#FFFFFF" d="M198.2,24.8h-13.6l-2.7,6.3h-5.2l12.2-27.2h5l12.3,27.2h-5.3L198.2,24.8z M196.5,20.8l-5.1-11.9l-5.1,11.9
			H196.5z"/>
		<path fill="#FFFFFF" d="M227.5,31.1l-5.6-8c-0.2,0-0.6,0-1.1,0h-6.1v7.9h-5.1V3.9h11.2c2.4,0,4.4,0.4,6.2,1.2s3.1,1.9,4,3.3
			c0.9,1.5,1.4,3.2,1.4,5.2c0,2-0.5,3.8-1.5,5.3c-1,1.5-2.4,2.6-4.3,3.3l6.3,8.9H227.5z M225.6,9.6c-1.1-0.9-2.8-1.4-5-1.4h-5.9V19
			h5.9c2.2,0,3.9-0.5,5-1.4c1.1-0.9,1.7-2.3,1.7-4S226.8,10.5,225.6,9.6z"/>
		<path fill="#FFFFFF" d="M255.9,31.1l-5.6-8c-0.2,0-0.6,0-1.1,0h-6.1v7.9h-5.1V3.9h11.2c2.4,0,4.4,0.4,6.2,1.2
			c1.8,0.8,3.1,1.9,4,3.3c0.9,1.5,1.4,3.2,1.4,5.2c0,2-0.5,3.8-1.5,5.3c-1,1.5-2.4,2.6-4.3,3.3l6.3,8.9H255.9z M254.1,9.6
			c-1.1-0.9-2.8-1.4-5-1.4h-5.9V19h5.9c2.2,0,3.9-0.5,5-1.4c1.1-0.9,1.7-2.3,1.7-4S255.2,10.5,254.1,9.6z"/>
		<path fill="#FFFFFF" d="M286.9,26.9v4.2h-20.4V3.9h19.9v4.2h-14.8v7.1h13.1v4.2h-13.1v7.5H286.9z"/>
		<path fill="#FFFFFF" d="M310.2,24.8h-13.6l-2.7,6.3h-5.2L301,3.9h5l12.3,27.2H313L310.2,24.8z M308.6,20.8l-5.1-11.9l-5.1,11.9
			H308.6z"/>
	</g>
</g>
</svg>
