<?xml version="1.0" encoding="utf-8"?>
<!-- Generator: Adobe Illustrator 26.0.3, SVG Export Plug-In . SVG Version: 6.00 Build 0)  -->
<svg version="1.1" xmlns="http://www.w3.org/2000/svg" xmlns:xlink="http://www.w3.org/1999/xlink" x="0px" y="0px" width="365px"
	 height="35px" viewBox="0 0 365 35" enable-background="new 0 0 365 35" xml:space="preserve">
<g id="Ebene_3">
	<rect fill-rule="evenodd" clip-rule="evenodd" fill="#D40140" width="365" height="35"/>
	<polygon fill="#FFFFFF" points="360,35 0,35 5,0 365,0 	"/>
</g>
<g id="Ebene_4">
	<g>
		<g>
			<defs>
				<path id="SVGID_00000001627129027101268950000006656447801137558680_" d="M12.9,5.8c0,0,5-2.9,7.1,4.6c0,0,3.9,12.3-4,17.2
					c0,0-4.8,2.5-8.9-1.3c0,0-7.2-5.1,1.4-16.8C8.5,9.6,10.3,7.2,12.9,5.8z"/>
			</defs>
			<clipPath id="SVGID_00000093868823906029676690000016239511965968775331_">
				<use xlink:href="#SVGID_00000001627129027101268950000006656447801137558680_"  overflow="visible"/>
			</clipPath>
			<path clip-path="url(#SVGID_00000093868823906029676690000016239511965968775331_)" fill="#D40140" d="M12.9,5.8
				c0,0,5-2.9,7.1,4.6c0,0,3.9,12.3-4,17.2c0,0-4.8,2.5-8.9-1.3c0,0-7.2-5.1,1.4-16.8C8.5,9.6,10.3,7.2,12.9,5.8z"/>
			
				<path clip-path="url(#SVGID_00000093868823906029676690000016239511965968775331_)" fill="none" stroke="#FCFCFC" stroke-width="0.75" stroke-miterlimit="10" d="
				M7.7,5.1c0,0,5,4.6,12.3,3.6"/>
			
				<path clip-path="url(#SVGID_00000093868823906029676690000016239511965968775331_)" fill="none" stroke="#FCFCFC" stroke-width="0.75" stroke-miterlimit="10" d="
				M7,7.3c0,0,6.1,5.2,14.2,3.2"/>
			
				<path clip-path="url(#SVGID_00000093868823906029676690000016239511965968775331_)" fill="none" stroke="#FCFCFC" stroke-width="0.75" stroke-miterlimit="10" d="
				M5.3,11c0,0,7.2,5.7,17.3,4.7"/>
			
				<path clip-path="url(#SVGID_00000093868823906029676690000016239511965968775331_)" fill="none" stroke="#FCFCFC" stroke-width="0.75" stroke-miterlimit="10" d="
				M3.8,12.1c0,0,6.8,6.9,17.4,7.1"/>
			
				<path clip-path="url(#SVGID_00000093868823906029676690000016239511965968775331_)" fill="none" stroke="#FCFCFC" stroke-width="0.75" stroke-miterlimit="10" d="
				M3.9,16.5c0,0,7.4,6.3,18,5.5"/>
			
				<path clip-path="url(#SVGID_00000093868823906029676690000016239511965968775331_)" fill="none" stroke="#FCFCFC" stroke-width="0.75" stroke-miterlimit="10" d="
				M2.6,18.6c0,0,7.4,6.3,18,5.5"/>
			
				<path clip-path="url(#SVGID_00000093868823906029676690000016239511965968775331_)" fill="none" stroke="#FCFCFC" stroke-width="0.75" stroke-miterlimit="10" d="
				M4,22.8c0,0,7.8,5.7,18.4,4.1"/>
		</g>
		<g>
			<defs>
				<path id="SVGID_00000085930913990799943880000004364149868952345781_" d="M24.5,6c0,0,4.4-3.7,7.8,3.3c0,0,6,11.4-0.8,17.7
					c0,0-4.3,3.3-9,0.3c0,0-8-3.7-1.7-16.8C20.8,10.5,22.1,7.8,24.5,6z"/>
			</defs>
			<clipPath id="SVGID_00000169523673152400912520000001580125838535204539_">
				<use xlink:href="#SVGID_00000085930913990799943880000004364149868952345781_"  overflow="visible"/>
			</clipPath>
			<path clip-path="url(#SVGID_00000169523673152400912520000001580125838535204539_)" fill="#35B2B6" d="M24.5,6
				c0,0,4.4-3.7,7.8,3.3c0,0,6,11.4-0.8,17.7c0,0-4.3,3.3-9,0.3c0,0-8-3.7-1.7-16.8C20.8,10.5,22.1,7.8,24.5,6z"/>
			<path clip-path="url(#SVGID_00000169523673152400912520000001580125838535204539_)" fill="#0D6A6D" d="M25.4,6.3
				c-0.2,0.3-0.5,0.4-0.8,0.3c-0.3-0.2-0.4-0.5-0.3-0.8c0.2-0.3,0.5-0.4,0.8-0.3C25.5,5.6,25.6,6,25.4,6.3z"/>
			<path clip-path="url(#SVGID_00000169523673152400912520000001580125838535204539_)" fill="#0D6A6D" d="M29.1,7.5
				c-0.2,0.3-0.5,0.4-0.8,0.3c-0.3-0.2-0.4-0.5-0.3-0.8c0.2-0.3,0.5-0.4,0.8-0.3C29.1,6.8,29.2,7.2,29.1,7.5z"/>
			<path clip-path="url(#SVGID_00000169523673152400912520000001580125838535204539_)" fill="#0D6A6D" d="M25.8,9.7
				c-0.2,0.3-0.5,0.4-0.8,0.3c-0.3-0.2-0.4-0.5-0.3-0.8c0.2-0.3,0.5-0.4,0.8-0.3C25.9,9,26,9.4,25.8,9.7z"/>
			<path clip-path="url(#SVGID_00000169523673152400912520000001580125838535204539_)" fill="#0D6A6D" d="M33,9.6
				c-0.2,0.3-0.5,0.4-0.8,0.3c-0.3-0.2-0.4-0.5-0.3-0.8c0.2-0.3,0.5-0.4,0.8-0.3C33.1,8.9,33.2,9.3,33,9.6z"/>
			<path clip-path="url(#SVGID_00000169523673152400912520000001580125838535204539_)" fill="#0D6A6D" d="M30.2,10.2
				c-0.2,0.3-0.5,0.4-0.8,0.3c-0.3-0.2-0.4-0.5-0.3-0.8c0.2-0.3,0.5-0.4,0.8-0.3C30.3,9.6,30.4,9.9,30.2,10.2z"/>
			<path clip-path="url(#SVGID_00000169523673152400912520000001580125838535204539_)" fill="#0D6A6D" d="M23.4,11.4
				c-0.2,0.3-0.5,0.4-0.8,0.3c-0.3-0.2-0.4-0.5-0.3-0.8c0.2-0.3,0.5-0.4,0.8-0.3C23.4,10.8,23.6,11.1,23.4,11.4z"/>
			<path clip-path="url(#SVGID_00000169523673152400912520000001580125838535204539_)" fill="#0D6A6D" d="M32.5,14.6
				c-0.2,0.3-0.5,0.4-0.8,0.3c-0.3-0.2-0.4-0.5-0.3-0.8c0.2-0.3,0.5-0.4,0.8-0.3C32.6,14,32.7,14.3,32.5,14.6z"/>
			<path clip-path="url(#SVGID_00000169523673152400912520000001580125838535204539_)" fill="#0D6A6D" d="M28,13.2
				c-0.2,0.3-0.5,0.4-0.8,0.3c-0.3-0.2-0.4-0.5-0.3-0.8c0.2-0.3,0.5-0.4,0.8-0.3C28,12.5,28.1,12.8,28,13.2z"/>
			<path clip-path="url(#SVGID_00000169523673152400912520000001580125838535204539_)" fill="#0D6A6D" d="M29.9,14.9
				c-0.2,0.3-0.5,0.4-0.8,0.3c-0.3-0.2-0.4-0.5-0.3-0.8c0.2-0.3,0.5-0.4,0.8-0.3C29.9,14.2,30,14.6,29.9,14.9z"/>
			<path clip-path="url(#SVGID_00000169523673152400912520000001580125838535204539_)" fill="#0D6A6D" d="M24.1,14.1
				c-0.2,0.3-0.5,0.4-0.8,0.3c-0.3-0.2-0.4-0.5-0.3-0.8c0.2-0.3,0.5-0.4,0.8-0.3C24.2,13.4,24.3,13.8,24.1,14.1z"/>
			<path clip-path="url(#SVGID_00000169523673152400912520000001580125838535204539_)" fill="#0D6A6D" d="M20.3,12.7
				c-0.2,0.3-0.5,0.4-0.8,0.3c-0.3-0.2-0.4-0.5-0.3-0.8c0.2-0.3,0.5-0.4,0.8-0.3C20.3,12.1,20.4,12.4,20.3,12.7z"/>
			<path clip-path="url(#SVGID_00000169523673152400912520000001580125838535204539_)" fill="#0D6A6D" d="M34.2,18.6
				c-0.2,0.3-0.5,0.4-0.8,0.3c-0.3-0.2-0.4-0.5-0.3-0.8c0.2-0.3,0.5-0.4,0.8-0.3C34.2,17.9,34.3,18.3,34.2,18.6z"/>
			<path clip-path="url(#SVGID_00000169523673152400912520000001580125838535204539_)" fill="#0D6A6D" d="M26.4,16
				c-0.2,0.3-0.5,0.4-0.8,0.3c-0.3-0.2-0.4-0.5-0.3-0.8c0.2-0.3,0.5-0.4,0.8-0.3C26.5,15.3,26.6,15.7,26.4,16z"/>
			<path clip-path="url(#SVGID_00000169523673152400912520000001580125838535204539_)" fill="#0D6A6D" d="M30.6,18.2
				c-0.2,0.3-0.5,0.4-0.8,0.3c-0.3-0.2-0.4-0.5-0.3-0.8c0.2-0.3,0.5-0.4,0.8-0.3C30.7,17.6,30.8,17.9,30.6,18.2z"/>
			<path clip-path="url(#SVGID_00000169523673152400912520000001580125838535204539_)" fill="#0D6A6D" d="M21,16
				c-0.2,0.3-0.5,0.4-0.8,0.3c-0.3-0.2-0.4-0.5-0.3-0.8c0.2-0.3,0.5-0.4,0.8-0.3C21,15.3,21.2,15.7,21,16z"/>
			<path clip-path="url(#SVGID_00000169523673152400912520000001580125838535204539_)" fill="#0D6A6D" d="M22.9,17.7
				c-0.2,0.3-0.5,0.4-0.8,0.3c-0.3-0.2-0.4-0.5-0.3-0.8c0.2-0.3,0.5-0.4,0.8-0.3C23,17,23.1,17.4,22.9,17.7z"/>
			<path clip-path="url(#SVGID_00000169523673152400912520000001580125838535204539_)" fill="#0D6A6D" d="M26.9,19.1
				c-0.2,0.3-0.5,0.4-0.8,0.3c-0.3-0.2-0.4-0.5-0.3-0.8c0.2-0.3,0.5-0.4,0.8-0.3C27,18.4,27.1,18.8,26.9,19.1z"/>
			<path clip-path="url(#SVGID_00000169523673152400912520000001580125838535204539_)" fill="#0D6A6D" d="M34.5,22.4
				c-0.2,0.3-0.5,0.4-0.8,0.3c-0.3-0.2-0.4-0.5-0.3-0.8c0.2-0.3,0.5-0.4,0.8-0.3C34.5,21.7,34.6,22.1,34.5,22.4z"/>
			<path clip-path="url(#SVGID_00000169523673152400912520000001580125838535204539_)" fill="#0D6A6D" d="M28.5,23.5
				c-0.2,0.3-0.5,0.4-0.8,0.3c-0.3-0.2-0.4-0.5-0.3-0.8c0.2-0.3,0.5-0.4,0.8-0.3C28.5,22.9,28.7,23.2,28.5,23.5z"/>
			<path clip-path="url(#SVGID_00000169523673152400912520000001580125838535204539_)" fill="#0D6A6D" d="M24.6,20.8
				c-0.2,0.3-0.5,0.4-0.8,0.3c-0.3-0.2-0.4-0.5-0.3-0.8c0.2-0.3,0.5-0.4,0.8-0.3C24.7,20.1,24.8,20.5,24.6,20.8z"/>
			<path clip-path="url(#SVGID_00000169523673152400912520000001580125838535204539_)" fill="#0D6A6D" d="M20.6,20.8
				c-0.2,0.3-0.5,0.4-0.8,0.3c-0.3-0.2-0.4-0.5-0.3-0.8c0.2-0.3,0.5-0.4,0.8-0.3C20.6,20.1,20.8,20.5,20.6,20.8z"/>
			<path clip-path="url(#SVGID_00000169523673152400912520000001580125838535204539_)" fill="#0D6A6D" d="M22.8,24.2
				c-0.2,0.3-0.5,0.4-0.8,0.3c-0.3-0.2-0.4-0.5-0.3-0.8c0.2-0.3,0.5-0.4,0.8-0.3C22.9,23.5,23,23.9,22.8,24.2z"/>
			<path clip-path="url(#SVGID_00000169523673152400912520000001580125838535204539_)" fill="#0D6A6D" d="M26.4,26.1
				c-0.2,0.3-0.5,0.4-0.8,0.3c-0.3-0.2-0.4-0.5-0.3-0.8c0.2-0.3,0.5-0.4,0.8-0.3C26.5,25.4,26.6,25.8,26.4,26.1z"/>
			<path clip-path="url(#SVGID_00000169523673152400912520000001580125838535204539_)" fill="#0D6A6D" d="M31.6,25.2
				c-0.2,0.3-0.5,0.4-0.8,0.3c-0.3-0.2-0.4-0.5-0.3-0.8c0.2-0.3,0.5-0.4,0.8-0.3C31.6,24.5,31.8,24.9,31.6,25.2z"/>
			<path clip-path="url(#SVGID_00000169523673152400912520000001580125838535204539_)" fill="#0D6A6D" d="M29.9,28
				c-0.2,0.3-0.5,0.4-0.8,0.3c-0.3-0.2-0.4-0.5-0.3-0.8c0.2-0.3,0.5-0.4,0.8-0.3C30,27.3,30.1,27.6,29.9,28z"/>
			<path clip-path="url(#SVGID_00000169523673152400912520000001580125838535204539_)" fill="#0D6A6D" d="M22.9,27.5
				c-0.2,0.3-0.5,0.4-0.8,0.3c-0.3-0.2-0.4-0.5-0.3-0.8c0.2-0.3,0.5-0.4,0.8-0.3C22.9,26.8,23,27.2,22.9,27.5z"/>
			<path clip-path="url(#SVGID_00000169523673152400912520000001580125838535204539_)" fill="#0D6A6D" d="M18.9,18.5
				c-0.2,0.3-0.5,0.4-0.8,0.3c-0.3-0.2-0.4-0.5-0.3-0.8c0.2-0.3,0.5-0.4,0.8-0.3C19,17.8,19.1,18.2,18.9,18.5z"/>
			<path clip-path="url(#SVGID_00000169523673152400912520000001580125838535204539_)" fill="#0D6A6D" d="M31.1,21.3
				c-0.2,0.3-0.5,0.4-0.8,0.3c-0.3-0.2-0.4-0.5-0.3-0.8c0.2-0.3,0.5-0.4,0.8-0.3C31.1,20.6,31.2,21,31.1,21.3z"/>
		</g>
		<g>
			<defs>
				<path id="SVGID_00000171712218646188804210000002714623998112618936_" d="M12.9,29.9c0,0,5,0.2,7.1-0.3c0,0,3.9-0.8-4-1.1
					c0,0-4.8-0.2-8.9,0.1c0,0-7.2,0.3,1.4,1.1C8.5,29.7,10.3,29.9,12.9,29.9z"/>
			</defs>
			<use xlink:href="#SVGID_00000171712218646188804210000002714623998112618936_"  overflow="visible" fill="#757575"/>
			<clipPath id="SVGID_00000111887626402708202120000016679328058613215888_">
				<use xlink:href="#SVGID_00000171712218646188804210000002714623998112618936_"  overflow="visible"/>
			</clipPath>
			<path clip-path="url(#SVGID_00000111887626402708202120000016679328058613215888_)" fill="#757575" d="M12.9,29.9
				c0,0,5,0.2,7.1-0.3c0,0,3.9-0.8-4-1.1c0,0-4.8-0.2-8.9,0.1c0,0-7.2,0.3,1.4,1.1C8.5,29.7,10.3,29.9,12.9,29.9z"/>
			<path clip-path="url(#SVGID_00000111887626402708202120000016679328058613215888_)" fill="#757575" d="M7.7,30
				c0,0,5-0.3,12.3-0.2"/>
			<path clip-path="url(#SVGID_00000111887626402708202120000016679328058613215888_)" fill="#757575" d="M7,29.8
				c0,0,6.1-0.3,14.2-0.2"/>
			<path clip-path="url(#SVGID_00000111887626402708202120000016679328058613215888_)" fill="#757575" d="M5.3,29.6
				c0,0,7.2-0.4,17.3-0.3"/>
			<path clip-path="url(#SVGID_00000111887626402708202120000016679328058613215888_)" fill="#757575" d="M3.8,29.5
				c0,0,6.8-0.5,17.4-0.5"/>
			<path clip-path="url(#SVGID_00000111887626402708202120000016679328058613215888_)" fill="#757575" d="M3.9,29.2
				c0,0,7.4-0.4,18-0.4"/>
			<path clip-path="url(#SVGID_00000111887626402708202120000016679328058613215888_)" fill="#757575" d="M2.6,29.1
				c0,0,7.4-0.4,18-0.4"/>
			<path clip-path="url(#SVGID_00000111887626402708202120000016679328058613215888_)" fill="#757575" d="M4,28.8
				c0,0,7.8-0.4,18.4-0.3"/>
		</g>
		<g>
			<defs>
				<path id="SVGID_00000114778876595746671200000003498395939089254555_" d="M24.5,29.9c0,0,4.4,0.2,7.8-0.2c0,0,6-0.8-0.8-1.2
					c0,0-4.3-0.2-9,0c0,0-8,0.2-1.7,1.1C20.8,29.6,22.1,29.8,24.5,29.9z"/>
			</defs>
			<use xlink:href="#SVGID_00000114778876595746671200000003498395939089254555_"  overflow="visible" fill="#D69859"/>
			<clipPath id="SVGID_00000085934656967541955720000005018098577793995660_">
				<use xlink:href="#SVGID_00000114778876595746671200000003498395939089254555_"  overflow="visible"/>
			</clipPath>
			<path clip-path="url(#SVGID_00000085934656967541955720000005018098577793995660_)" fill="#757575" d="M24.5,29.9
				c0,0,4.4,0.2,7.8-0.2c0,0,6-0.8-0.8-1.2c0,0-4.3-0.2-9,0c0,0-8,0.2-1.7,1.1C20.8,29.6,22.1,29.8,24.5,29.9z"/>
			<path clip-path="url(#SVGID_00000085934656967541955720000005018098577793995660_)" fill="#757575" d="M25.4,29.9
				c-0.2,0-0.5,0-0.8,0c-0.3,0-0.4,0-0.3,0.1c0.2,0,0.5,0,0.8,0C25.5,30,25.6,29.9,25.4,29.9z"/>
			<path clip-path="url(#SVGID_00000085934656967541955720000005018098577793995660_)" fill="#757575" d="M29.1,29.8
				c-0.2,0-0.5,0-0.8,0c-0.3,0-0.4,0-0.3,0.1c0.2,0,0.5,0,0.8,0C29.1,29.9,29.2,29.9,29.1,29.8z"/>
			<path clip-path="url(#SVGID_00000085934656967541955720000005018098577793995660_)" fill="#757575" d="M25.8,29.7
				c-0.2,0-0.5,0-0.8,0c-0.3,0-0.4,0-0.3,0.1c0.2,0,0.5,0,0.8,0C25.9,29.7,26,29.7,25.8,29.7z"/>
			<path clip-path="url(#SVGID_00000085934656967541955720000005018098577793995660_)" fill="#757575" d="M33,29.7
				c-0.2,0-0.5,0-0.8,0c-0.3,0-0.4,0-0.3,0.1c0.2,0,0.5,0,0.8,0C33.1,29.7,33.2,29.7,33,29.7z"/>
			<path clip-path="url(#SVGID_00000085934656967541955720000005018098577793995660_)" fill="#757575" d="M30.2,29.7
				c-0.2,0-0.5,0-0.8,0c-0.3,0-0.4,0-0.3,0.1c0.2,0,0.5,0,0.8,0C30.2,29.7,30.4,29.7,30.2,29.7z"/>
			<path clip-path="url(#SVGID_00000085934656967541955720000005018098577793995660_)" fill="#757575" d="M23.4,29.6
				c-0.2,0-0.5,0-0.8,0c-0.3,0-0.4,0-0.3,0.1c0.2,0,0.5,0,0.8,0C23.4,29.6,23.5,29.6,23.4,29.6z"/>
			<path clip-path="url(#SVGID_00000085934656967541955720000005018098577793995660_)" fill="#757575" d="M32.5,29.4
				c-0.2,0-0.5,0-0.8,0c-0.3,0-0.4,0-0.3,0.1c0.2,0,0.5,0,0.8,0C32.6,29.4,32.7,29.4,32.5,29.4z"/>
			<path clip-path="url(#SVGID_00000085934656967541955720000005018098577793995660_)" fill="#757575" d="M27.9,29.5
				c-0.2,0-0.5,0-0.8,0c-0.3,0-0.4,0-0.3,0.1c0.2,0,0.5,0,0.8,0C28,29.5,28.1,29.5,27.9,29.5z"/>
			<path clip-path="url(#SVGID_00000085934656967541955720000005018098577793995660_)" fill="#757575" d="M29.9,29.3
				c-0.2,0-0.5,0-0.8,0c-0.3,0-0.4,0-0.3,0.1c0.2,0,0.5,0,0.8,0C29.9,29.4,30,29.4,29.9,29.3z"/>
			<path clip-path="url(#SVGID_00000085934656967541955720000005018098577793995660_)" fill="#757575" d="M24.1,29.4
				c-0.2,0-0.5,0-0.8,0c-0.3,0-0.4,0-0.3,0.1c0.2,0,0.5,0,0.8,0C24.2,29.4,24.3,29.4,24.1,29.4z"/>
			<path clip-path="url(#SVGID_00000085934656967541955720000005018098577793995660_)" fill="#757575" d="M20.2,29.5
				c-0.2,0-0.5,0-0.8,0c-0.3,0-0.4,0-0.3,0.1c0.2,0,0.5,0,0.8,0C20.3,29.5,20.4,29.5,20.2,29.5z"/>
			<path clip-path="url(#SVGID_00000085934656967541955720000005018098577793995660_)" fill="#757575" d="M34.2,29.1
				c-0.2,0-0.5,0-0.8,0c-0.3,0-0.4,0-0.3,0.1c0.2,0,0.5,0,0.8,0C34.2,29.1,34.3,29.1,34.2,29.1z"/>
			<path clip-path="url(#SVGID_00000085934656967541955720000005018098577793995660_)" fill="#757575" d="M26.4,29.3
				c-0.2,0-0.5,0-0.8,0c-0.3,0-0.4,0-0.3,0.1c0.2,0,0.5,0,0.8,0C26.5,29.3,26.6,29.3,26.4,29.3z"/>
			<path clip-path="url(#SVGID_00000085934656967541955720000005018098577793995660_)" fill="#757575" d="M30.6,29.1
				c-0.2,0-0.5,0-0.8,0c-0.3,0-0.4,0-0.3,0.1c0.2,0,0.5,0,0.8,0C30.6,29.2,30.8,29.1,30.6,29.1z"/>
			<path clip-path="url(#SVGID_00000085934656967541955720000005018098577793995660_)" fill="#757575" d="M21,29.3
				c-0.2,0-0.5,0-0.8,0c-0.3,0-0.4,0-0.3,0.1c0.2,0,0.5,0,0.8,0C21,29.3,21.2,29.3,21,29.3z"/>
			<path clip-path="url(#SVGID_00000085934656967541955720000005018098577793995660_)" fill="#757575" d="M22.9,29.2
				c-0.2,0-0.5,0-0.8,0c-0.3,0-0.4,0-0.3,0.1c0.2,0,0.5,0,0.8,0C23,29.2,23.1,29.2,22.9,29.2z"/>
			<path clip-path="url(#SVGID_00000085934656967541955720000005018098577793995660_)" fill="#757575" d="M26.9,29.1
				c-0.2,0-0.5,0-0.8,0c-0.3,0-0.4,0-0.3,0.1c0.2,0,0.5,0,0.8,0C27,29.1,27.1,29.1,26.9,29.1z"/>
			<path clip-path="url(#SVGID_00000085934656967541955720000005018098577793995660_)" fill="#757575" d="M34.5,28.8
				c-0.2,0-0.5,0-0.8,0c-0.3,0-0.4,0-0.3,0.1c0.2,0,0.5,0,0.8,0C34.5,28.9,34.6,28.9,34.5,28.8z"/>
			<path clip-path="url(#SVGID_00000085934656967541955720000005018098577793995660_)" fill="#757575" d="M28.5,28.8
				c-0.2,0-0.5,0-0.8,0c-0.3,0-0.4,0-0.3,0.1c0.2,0,0.5,0,0.8,0C28.5,28.8,28.7,28.8,28.5,28.8z"/>
			<path clip-path="url(#SVGID_00000085934656967541955720000005018098577793995660_)" fill="#757575" d="M24.6,28.9
				c-0.2,0-0.5,0-0.8,0c-0.3,0-0.4,0-0.3,0.1c0.2,0,0.5,0,0.8,0C24.7,29,24.8,29,24.6,28.9z"/>
			<path clip-path="url(#SVGID_00000085934656967541955720000005018098577793995660_)" fill="#757575" d="M20.6,28.9
				c-0.2,0-0.5,0-0.8,0c-0.3,0-0.4,0-0.3,0.1c0.2,0,0.5,0,0.8,0C20.6,29,20.8,29,20.6,28.9z"/>
			<path clip-path="url(#SVGID_00000085934656967541955720000005018098577793995660_)" fill="#757575" d="M22.8,28.7
				c-0.2,0-0.5,0-0.8,0c-0.3,0-0.4,0-0.3,0.1c0.2,0,0.5,0,0.8,0C22.8,28.8,23,28.7,22.8,28.7z"/>
			<path clip-path="url(#SVGID_00000085934656967541955720000005018098577793995660_)" fill="#757575" d="M26.4,28.6
				c-0.2,0-0.5,0-0.8,0c-0.3,0-0.4,0-0.3,0.1c0.2,0,0.5,0,0.8,0C26.5,28.6,26.6,28.6,26.4,28.6z"/>
			<path clip-path="url(#SVGID_00000085934656967541955720000005018098577793995660_)" fill="#757575" d="M31.6,28.7
				c-0.2,0-0.5,0-0.8,0c-0.3,0-0.4,0-0.3,0.1c0.2,0,0.5,0,0.8,0C31.6,28.7,31.8,28.7,31.6,28.7z"/>
			<path clip-path="url(#SVGID_00000085934656967541955720000005018098577793995660_)" fill="#757575" d="M29.9,28.5
				c-0.2,0-0.5,0-0.8,0c-0.3,0-0.4,0-0.3,0.1c0.2,0,0.5,0,0.8,0C29.9,28.5,30.1,28.5,29.9,28.5z"/>
			<path clip-path="url(#SVGID_00000085934656967541955720000005018098577793995660_)" fill="#757575" d="M22.9,28.5
				c-0.2,0-0.5,0-0.8,0c-0.3,0-0.4,0-0.3,0.1c0.2,0,0.5,0,0.8,0C22.9,28.5,23,28.5,22.9,28.5z"/>
			<path clip-path="url(#SVGID_00000085934656967541955720000005018098577793995660_)" fill="#757575" d="M18.9,29.1
				c-0.2,0-0.5,0-0.8,0c-0.3,0-0.4,0-0.3,0.1c0.2,0,0.5,0,0.8,0C19,29.1,19.1,29.1,18.9,29.1z"/>
			<path clip-path="url(#SVGID_00000085934656967541955720000005018098577793995660_)" fill="#757575" d="M31.1,28.9
				c-0.2,0-0.5,0-0.8,0c-0.3,0-0.4,0-0.3,0.1c0.2,0,0.5,0,0.8,0C31.1,29,31.2,28.9,31.1,28.9z"/>
		</g>
	</g>
	<g>
		<g>
			<defs>
				<path id="SVGID_00000162342595230127136500000000102353432763989646_" d="M351.3,6.1c0,0,4.8-3.2,7.3,4.2c0,0,4.6,12.1-3,17.4
					c0,0-4.6,2.7-8.9-0.8c0,0-7.4-4.7,0.4-16.8C347.1,10.1,348.8,7.6,351.3,6.1z"/>
			</defs>
			<clipPath id="SVGID_00000147220680783913891520000007298212521568284595_">
				<use xlink:href="#SVGID_00000162342595230127136500000000102353432763989646_"  overflow="visible"/>
			</clipPath>
			<path clip-path="url(#SVGID_00000147220680783913891520000007298212521568284595_)" fill="#F2D662" d="M351.4,6.3
				c0,0,4.8-3.2,7.3,4.2c0,0,4.6,12.1-3,17.4c0,0-4.6,2.7-8.9-0.8c0,0-7.4-4.7,0.4-16.8C347.2,10.3,348.9,7.8,351.4,6.3z"/>
			<g clip-path="url(#SVGID_00000147220680783913891520000007298212521568284595_)">
				<path fill="#E83E2C" d="M346.7,19.7c0,0-1.4-1.3-0.4-1.7C346.3,18,347.4,17.6,346.7,19.7z"/>
				<path fill="#E83E2C" d="M346.8,19.7c0,0,0.1-1.9,1-1.4C347.8,18.3,348.9,18.9,346.8,19.7z"/>
				<path fill="#E83E2C" d="M346.9,19.9c0,0,1.4-1.2,1.7-0.2C348.7,19.7,348.9,20.8,346.9,19.9z"/>
				<path fill="#E83E2C" d="M346.8,20c0,0,1.9,0.3,1.3,1.2C348.1,21.2,347.4,22.1,346.8,20z"/>
				<path fill="#E83E2C" d="M346.7,20c0,0,0.9,1.6-0.1,1.7C346.6,21.7,345.4,21.8,346.7,20z"/>
				<path fill="#E83E2C" d="M346.5,19.8c0,0-1.8,0.4-1.6-0.7C344.9,19.1,345.3,18,346.5,19.8z"/>
				<path fill="#E83E2C" d="M346.6,19.9c0,0-0.7,1.8-1.4,1C345.1,20.9,344.4,20,346.6,19.9z"/>
				<path fill="#F2D491" d="M346.9,19.8c0,0.1-0.1,0.2-0.2,0.2c-0.1,0-0.2-0.1-0.2-0.2c0-0.1,0.1-0.2,0.2-0.2
					C346.8,19.6,346.9,19.7,346.9,19.8z"/>
			</g>
			<g clip-path="url(#SVGID_00000147220680783913891520000007298212521568284595_)">
				<path fill="#E83E2C" d="M350.3,24.1c0,0-1-0.9-0.3-1.2C350,22.9,350.9,22.6,350.3,24.1z"/>
				<path fill="#E83E2C" d="M350.4,24.2c0,0,0-1.4,0.7-1C351.2,23.1,351.9,23.6,350.4,24.2z"/>
				<path fill="#E83E2C" d="M350.5,24.3c0,0,1-0.9,1.3-0.1C351.8,24.1,351.9,25,350.5,24.3z"/>
				<path fill="#E83E2C" d="M350.5,24.3c0,0,1.4,0.2,0.9,0.9C351.4,25.2,350.9,25.9,350.5,24.3z"/>
				<path fill="#E83E2C" d="M350.4,24.4c0,0,0.7,1.2-0.1,1.3C350.3,25.6,349.4,25.6,350.4,24.4z"/>
				<path fill="#E83E2C" d="M350.2,24.2c0,0-1.3,0.3-1.2-0.5C349.1,23.7,349.3,22.9,350.2,24.2z"/>
				<path fill="#E83E2C" d="M350.2,24.3c0,0-0.5,1.3-1,0.7C349.2,25,348.7,24.4,350.2,24.3z"/>
				<path fill="#F2D491" d="M350.5,24.2c0,0.1-0.1,0.1-0.2,0.1c-0.1,0-0.1-0.1-0.1-0.2c0-0.1,0.1-0.1,0.2-0.1
					C350.5,24.1,350.5,24.2,350.5,24.2z"/>
			</g>
			<g clip-path="url(#SVGID_00000147220680783913891520000007298212521568284595_)">
				<path fill="#E83E2C" d="M357.8,25c0,0-1.4-1.3-0.4-1.7C357.4,23.3,358.5,23,357.8,25z"/>
				<path fill="#E83E2C" d="M357.9,25.1c0,0,0.1-1.9,1-1.4C358.9,23.7,359.9,24.3,357.9,25.1z"/>
				<path fill="#E83E2C" d="M358,25.2c0,0,1.4-1.2,1.7-0.2C359.7,25,360,26.2,358,25.2z"/>
				<path fill="#E83E2C" d="M357.9,25.3c0,0,1.9,0.3,1.3,1.2C359.2,26.5,358.5,27.5,357.9,25.3z"/>
				<path fill="#E83E2C" d="M357.8,25.4c0,0,0.9,1.6-0.1,1.7C357.7,27.1,356.5,27.1,357.8,25.4z"/>
				<path fill="#E83E2C" d="M357.6,25.1c0,0-1.8,0.4-1.6-0.7C356,24.5,356.4,23.3,357.6,25.1z"/>
				<path fill="#E83E2C" d="M357.6,25.2c0,0-0.7,1.8-1.4,1C356.2,26.3,355.5,25.4,357.6,25.2z"/>
				<path fill="#F2D491" d="M358,25.2c0,0.1-0.1,0.2-0.2,0.2c-0.1,0-0.2-0.1-0.2-0.2c0-0.1,0.1-0.2,0.2-0.2
					C357.9,25,358,25.1,358,25.2z"/>
			</g>
			<g clip-path="url(#SVGID_00000147220680783913891520000007298212521568284595_)">
				<path fill="#E83E2C" d="M355.3,21.1c0,0-0.8-0.8-0.2-1C355.1,20,355.8,19.8,355.3,21.1z"/>
				<path fill="#E83E2C" d="M355.4,21.1c0,0,0-1.2,0.6-0.9C356.1,20.2,356.7,20.6,355.4,21.1z"/>
				<path fill="#E83E2C" d="M355.5,21.2c0,0,0.9-0.7,1.1-0.1C356.5,21.1,356.7,21.8,355.5,21.2z"/>
				<path fill="#E83E2C" d="M355.4,21.3c0,0,1.1,0.2,0.8,0.7C356.2,22,355.8,22.6,355.4,21.3z"/>
				<path fill="#E83E2C" d="M355.4,21.3c0,0,0.6,1-0.1,1.1C355.3,22.3,354.6,22.4,355.4,21.3z"/>
				<path fill="#E83E2C" d="M355.3,21.1c0,0-1.1,0.2-1-0.4C354.3,20.7,354.5,20,355.3,21.1z"/>
				<path fill="#E83E2C" d="M355.3,21.2c0,0-0.4,1.1-0.9,0.6C354.4,21.8,353.9,21.3,355.3,21.2z"/>
				<path fill="#F2D491" d="M355.5,21.2c0,0.1-0.1,0.1-0.1,0.1c-0.1,0-0.1-0.1-0.1-0.1c0-0.1,0.1-0.1,0.1-0.1
					C355.4,21.1,355.5,21.1,355.5,21.2z"/>
			</g>
			<g clip-path="url(#SVGID_00000147220680783913891520000007298212521568284595_)">
				<path fill="#E83E2C" d="M345.5,13.8c0,0-1.4-1.3-0.4-1.7C345.1,12,346.2,11.7,345.5,13.8z"/>
				<path fill="#E83E2C" d="M345.7,13.8c0,0,0.1-1.9,1-1.4C346.7,12.4,347.7,13,345.7,13.8z"/>
				<path fill="#E83E2C" d="M345.7,13.9c0,0,1.4-1.2,1.7-0.2C347.5,13.7,347.7,14.9,345.7,13.9z"/>
				<path fill="#E83E2C" d="M345.7,14.1c0,0,1.9,0.3,1.3,1.2C347,15.3,346.2,16.2,345.7,14.1z"/>
				<path fill="#E83E2C" d="M345.5,14.1c0,0,0.9,1.6-0.1,1.7C345.4,15.8,344.2,15.8,345.5,14.1z"/>
				<path fill="#E83E2C" d="M345.4,13.8c0,0-1.8,0.4-1.6-0.7C343.8,13.2,344.1,12,345.4,13.8z"/>
				<path fill="#E83E2C" d="M345.4,14c0,0-0.7,1.8-1.4,1C344,15,343.2,14.1,345.4,14z"/>
				<path fill="#F2D491" d="M345.7,13.9c0,0.1-0.1,0.2-0.2,0.2c-0.1,0-0.2-0.1-0.2-0.2c0-0.1,0.1-0.2,0.2-0.2
					C345.7,13.7,345.8,13.8,345.7,13.9z"/>
			</g>
			<g clip-path="url(#SVGID_00000147220680783913891520000007298212521568284595_)">
				<path fill="#E83E2C" d="M351.2,16.3c0,0-0.8-0.8-0.2-1C351,15.2,351.7,15,351.2,16.3z"/>
				<path fill="#E83E2C" d="M351.3,16.3c0,0,0-1.2,0.6-0.9C351.9,15.4,352.6,15.8,351.3,16.3z"/>
				<path fill="#E83E2C" d="M351.4,16.4c0,0,0.9-0.7,1.1-0.1C352.4,16.3,352.6,17,351.4,16.4z"/>
				<path fill="#E83E2C" d="M351.3,16.5c0,0,1.1,0.2,0.8,0.7C352.1,17.2,351.7,17.8,351.3,16.5z"/>
				<path fill="#E83E2C" d="M351.2,16.5c0,0,0.6,1-0.1,1.1C351.2,17.5,350.4,17.6,351.2,16.5z"/>
				<path fill="#E83E2C" d="M351.1,16.3c0,0-1.1,0.2-1-0.4C350.1,15.9,350.4,15.2,351.1,16.3z"/>
				<path fill="#E83E2C" d="M351.1,16.4c0,0-0.4,1.1-0.9,0.6C350.3,17,349.8,16.5,351.1,16.4z"/>
				<path fill="#F2D491" d="M351.4,16.4c0,0.1-0.1,0.1-0.1,0.1c-0.1,0-0.1-0.1-0.1-0.1c0-0.1,0.1-0.1,0.1-0.1
					C351.3,16.3,351.4,16.3,351.4,16.4z"/>
			</g>
			<g clip-path="url(#SVGID_00000147220680783913891520000007298212521568284595_)">
				<path fill="#E83E2C" d="M344.7,25.2c0,0-1.7-1.6-0.5-2.2C344.2,23,345.6,22.6,344.7,25.2z"/>
				<path fill="#E83E2C" d="M344.9,25.2c0,0,0.1-2.4,1.3-1.8C346.2,23.4,347.5,24.2,344.9,25.2z"/>
				<path fill="#E83E2C" d="M345,25.4c0,0,1.8-1.5,2.2-0.3C347.2,25.1,347.5,26.6,345,25.4z"/>
				<path fill="#E83E2C" d="M344.9,25.5c0,0,2.3,0.4,1.6,1.5C346.5,27,345.6,28.2,344.9,25.5z"/>
				<path fill="#E83E2C" d="M344.8,25.6c0,0,1.2,2.1-0.2,2.2C344.6,27.8,343.1,27.8,344.8,25.6z"/>
				<path fill="#E83E2C" d="M344.5,25.3c0,0-2.3,0.5-2-0.8C342.5,24.4,343,23,344.5,25.3z"/>
				<path fill="#E83E2C" d="M344.6,25.4c0,0-0.8,2.2-1.8,1.3C342.8,26.7,341.8,25.6,344.6,25.4z"/>
				<path fill="#F2D491" d="M345,25.4c0,0.1-0.1,0.2-0.3,0.2c-0.1,0-0.2-0.1-0.2-0.3c0-0.1,0.1-0.2,0.3-0.2
					C344.9,25.1,345,25.2,345,25.4z"/>
			</g>
			<g clip-path="url(#SVGID_00000147220680783913891520000007298212521568284595_)">
				<path fill="#E83E2C" d="M359.3,15.9c0,0-1.4-1.3-0.4-1.7C358.9,14.2,360.1,13.9,359.3,15.9z"/>
				<path fill="#E83E2C" d="M359.5,16c0,0,0.1-1.9,1-1.4C360.5,14.6,361.5,15.2,359.5,16z"/>
				<path fill="#E83E2C" d="M359.6,16.1c0,0,1.4-1.2,1.7-0.2C361.3,15.9,361.5,17.1,359.6,16.1z"/>
				<path fill="#E83E2C" d="M359.5,16.3c0,0,1.9,0.3,1.3,1.2C360.8,17.4,360.1,18.4,359.5,16.3z"/>
				<path fill="#E83E2C" d="M359.4,16.3c0,0,0.9,1.6-0.1,1.7C359.2,18,358.1,18,359.4,16.3z"/>
				<path fill="#E83E2C" d="M359.2,16c0,0-1.8,0.4-1.6-0.7C357.6,15.4,357.9,14.2,359.2,16z"/>
				<path fill="#E83E2C" d="M359.2,16.2c0,0-0.7,1.8-1.4,1C357.8,17.2,357,16.3,359.2,16.2z"/>
				<path fill="#F2D491" d="M359.6,16.1c0,0.1-0.1,0.2-0.2,0.2c-0.1,0-0.2-0.1-0.2-0.2c0-0.1,0.1-0.2,0.2-0.2
					C359.5,15.9,359.6,16,359.6,16.1z"/>
			</g>
			<g clip-path="url(#SVGID_00000147220680783913891520000007298212521568284595_)">
				<path fill="#E83E2C" d="M354.2,12c0,0-1.4-1.3-0.4-1.7C353.8,10.3,354.9,10,354.2,12z"/>
				<path fill="#E83E2C" d="M354.3,12.1c0,0,0.1-1.9,1-1.4C355.3,10.6,356.4,11.2,354.3,12.1z"/>
				<path fill="#E83E2C" d="M354.4,12.2c0,0,1.4-1.2,1.7-0.2C356.2,12,356.4,13.2,354.4,12.2z"/>
				<path fill="#E83E2C" d="M354.3,12.3c0,0,1.9,0.3,1.3,1.2C355.6,13.5,354.9,14.4,354.3,12.3z"/>
				<path fill="#E83E2C" d="M354.2,12.3c0,0,0.9,1.6-0.1,1.7C354.1,14.1,352.9,14.1,354.2,12.3z"/>
				<path fill="#E83E2C" d="M354.1,12.1c0,0-1.8,0.4-1.6-0.7C352.4,11.4,352.8,10.3,354.1,12.1z"/>
				<path fill="#E83E2C" d="M354.1,12.2c0,0-0.7,1.8-1.4,1C352.6,13.3,351.9,12.4,354.1,12.2z"/>
				<path fill="#F2D491" d="M354.4,12.2c0,0.1-0.1,0.2-0.2,0.2c-0.1,0-0.2-0.1-0.2-0.2c0-0.1,0.1-0.2,0.2-0.2
					C354.3,12,354.4,12.1,354.4,12.2z"/>
			</g>
			<g clip-path="url(#SVGID_00000147220680783913891520000007298212521568284595_)">
				<path fill="#E83E2C" d="M349.4,9.4c0,0-0.8-0.8-0.2-1C349.2,8.3,349.9,8.1,349.4,9.4z"/>
				<path fill="#E83E2C" d="M349.5,9.4c0,0,0-1.2,0.6-0.9C350.1,8.5,350.7,8.9,349.5,9.4z"/>
				<path fill="#E83E2C" d="M349.6,9.5c0,0,0.9-0.8,1.1-0.1C350.6,9.4,350.8,10.1,349.6,9.5z"/>
				<path fill="#E83E2C" d="M349.5,9.6c0,0,1.1,0.2,0.8,0.7C350.3,10.3,349.9,10.9,349.5,9.6z"/>
				<path fill="#E83E2C" d="M349.4,9.6c0,0,0.6,1-0.1,1.1C349.4,10.6,348.6,10.6,349.4,9.6z"/>
				<path fill="#E83E2C" d="M349.3,9.4c0,0-1.1,0.2-1-0.4C348.3,9,348.6,8.3,349.3,9.4z"/>
				<path fill="#E83E2C" d="M349.3,9.5c0,0-0.4,1.1-0.9,0.6C348.5,10.1,348,9.6,349.3,9.5z"/>
				<path fill="#F2D491" d="M349.6,9.5c0,0.1-0.1,0.1-0.1,0.1c-0.1,0-0.1-0.1-0.1-0.1c0-0.1,0.1-0.1,0.1-0.1
					C349.5,9.4,349.6,9.4,349.6,9.5z"/>
			</g>
			<g clip-path="url(#SVGID_00000147220680783913891520000007298212521568284595_)">
				<path fill="#E83E2C" d="M356.6,7.1c0,0-0.8-0.8-0.2-1C356.4,6.1,357.1,5.9,356.6,7.1z"/>
				<path fill="#E83E2C" d="M356.7,7.2c0,0,0-1.2,0.6-0.9C357.3,6.3,358,6.7,356.7,7.2z"/>
				<path fill="#E83E2C" d="M356.8,7.3c0,0,0.9-0.7,1.1-0.1C357.8,7.1,358,7.8,356.8,7.3z"/>
				<path fill="#E83E2C" d="M356.7,7.3c0,0,1.1,0.2,0.8,0.7C357.5,8.1,357.1,8.6,356.7,7.3z"/>
				<path fill="#E83E2C" d="M356.6,7.3c0,0,0.6,1-0.1,1.1C356.6,8.4,355.8,8.4,356.6,7.3z"/>
				<path fill="#E83E2C" d="M356.5,7.2c0,0-1.1,0.2-1-0.4C355.5,6.8,355.8,6.1,356.5,7.2z"/>
				<path fill="#E83E2C" d="M356.6,7.3c0,0-0.4,1.1-0.9,0.6C355.7,7.9,355.2,7.3,356.6,7.3z"/>
				<path fill="#F2D491" d="M356.8,7.3c0,0.1-0.1,0.1-0.1,0.1c-0.1,0-0.1-0.1-0.1-0.1c0-0.1,0.1-0.1,0.1-0.1
					C356.7,7.1,356.8,7.2,356.8,7.3z"/>
			</g>
		</g>
		<g>
			<defs>
				<path id="SVGID_00000181049885293120079170000004732806874722068620_" d="M338.2,30.3c0,0,5,0.2,7.1-0.3c0,0,3.9-0.8-4-1.1
					c0,0-4.8-0.2-8.9,0.1c0,0-7.2,0.3,1.4,1.1C333.7,30.1,335.6,30.2,338.2,30.3z"/>
			</defs>
			<use xlink:href="#SVGID_00000181049885293120079170000004732806874722068620_"  overflow="visible" fill="#757575"/>
			<clipPath id="SVGID_00000060730863999787764480000016735727855645125034_">
				<use xlink:href="#SVGID_00000181049885293120079170000004732806874722068620_"  overflow="visible"/>
			</clipPath>
			<path clip-path="url(#SVGID_00000060730863999787764480000016735727855645125034_)" fill="#757575" d="M338.2,30.3
				c0,0,5,0.2,7.1-0.3c0,0,3.9-0.8-4-1.1c0,0-4.8-0.2-8.9,0.1c0,0-7.2,0.3,1.4,1.1C333.7,30.1,335.6,30.2,338.2,30.3z"/>
			<path clip-path="url(#SVGID_00000060730863999787764480000016735727855645125034_)" fill="#757575" d="M333,30.4
				c0,0,5-0.3,12.3-0.2"/>
			<path clip-path="url(#SVGID_00000060730863999787764480000016735727855645125034_)" fill="#757575" d="M332.3,30.2
				c0,0,6.1-0.3,14.2-0.2"/>
			<path clip-path="url(#SVGID_00000060730863999787764480000016735727855645125034_)" fill="#757575" d="M330.6,30
				c0,0,7.2-0.4,17.3-0.3"/>
			<path clip-path="url(#SVGID_00000060730863999787764480000016735727855645125034_)" fill="#757575" d="M329.1,29.9
				c0,0,6.8-0.5,17.4-0.5"/>
			<path clip-path="url(#SVGID_00000060730863999787764480000016735727855645125034_)" fill="#757575" d="M329.2,29.6
				c0,0,7.4-0.4,18-0.4"/>
			<path clip-path="url(#SVGID_00000060730863999787764480000016735727855645125034_)" fill="#757575" d="M327.9,29.5
				c0,0,7.4-0.4,18-0.4"/>
			<path clip-path="url(#SVGID_00000060730863999787764480000016735727855645125034_)" fill="#757575" d="M329.3,29.2
				c0,0,7.8-0.4,18.4-0.3"/>
		</g>
		<g>
			<defs>
				<path id="SVGID_00000065770340496408814570000009242759585379420045_" d="M349.7,30.3c0,0,4.4,0.2,7.8-0.2c0,0,6-0.8-0.8-1.2
					c0,0-4.3-0.2-9,0c0,0-8,0.2-1.7,1.1C346,30,347.4,30.2,349.7,30.3z"/>
			</defs>
			<use xlink:href="#SVGID_00000065770340496408814570000009242759585379420045_"  overflow="visible" fill="#D69859"/>
			<clipPath id="SVGID_00000067234145727651182320000001894798904048201638_">
				<use xlink:href="#SVGID_00000065770340496408814570000009242759585379420045_"  overflow="visible"/>
			</clipPath>
			<path clip-path="url(#SVGID_00000067234145727651182320000001894798904048201638_)" fill="#757575" d="M349.7,30.3
				c0,0,4.4,0.2,7.8-0.2c0,0,6-0.8-0.8-1.2c0,0-4.3-0.2-9,0c0,0-8,0.2-1.7,1.1C346,30,347.4,30.2,349.7,30.3z"/>
			<path clip-path="url(#SVGID_00000067234145727651182320000001894798904048201638_)" fill="#757575" d="M350.7,30.3
				c-0.2,0-0.5,0-0.8,0c-0.3,0-0.4,0-0.3,0.1c0.2,0,0.5,0,0.8,0C350.7,30.3,350.9,30.3,350.7,30.3z"/>
			<path clip-path="url(#SVGID_00000067234145727651182320000001894798904048201638_)" fill="#757575" d="M354.3,30.2
				c-0.2,0-0.5,0-0.8,0c-0.3,0-0.4,0-0.3,0.1c0.2,0,0.5,0,0.8,0C354.4,30.2,354.5,30.2,354.3,30.2z"/>
			<path clip-path="url(#SVGID_00000067234145727651182320000001894798904048201638_)" fill="#757575" d="M351.1,30
				c-0.2,0-0.5,0-0.8,0c-0.3,0-0.4,0-0.3,0.1c0.2,0,0.5,0,0.8,0C351.1,30.1,351.3,30.1,351.1,30z"/>
			<path clip-path="url(#SVGID_00000067234145727651182320000001894798904048201638_)" fill="#757575" d="M358.3,30.1
				c-0.2,0-0.5,0-0.8,0c-0.3,0-0.4,0-0.3,0.1c0.2,0,0.5,0,0.8,0C358.4,30.1,358.5,30.1,358.3,30.1z"/>
			<path clip-path="url(#SVGID_00000067234145727651182320000001894798904048201638_)" fill="#757575" d="M355.5,30
				c-0.2,0-0.5,0-0.8,0c-0.3,0-0.4,0-0.3,0.1c0.2,0,0.5,0,0.8,0C355.5,30.1,355.6,30,355.5,30z"/>
			<path clip-path="url(#SVGID_00000067234145727651182320000001894798904048201638_)" fill="#757575" d="M348.7,29.9
				c-0.2,0-0.5,0-0.8,0c-0.3,0-0.4,0-0.3,0.1c0.2,0,0.5,0,0.8,0C348.7,30,348.8,30,348.7,29.9z"/>
			<path clip-path="url(#SVGID_00000067234145727651182320000001894798904048201638_)" fill="#757575" d="M357.8,29.7
				c-0.2,0-0.5,0-0.8,0c-0.3,0-0.4,0-0.3,0.1c0.2,0,0.5,0,0.8,0C357.8,29.8,358,29.7,357.8,29.7z"/>
			<path clip-path="url(#SVGID_00000067234145727651182320000001894798904048201638_)" fill="#757575" d="M353.2,29.8
				c-0.2,0-0.5,0-0.8,0c-0.3,0-0.4,0-0.3,0.1c0.2,0,0.5,0,0.8,0C353.3,29.9,353.4,29.8,353.2,29.8z"/>
			<path clip-path="url(#SVGID_00000067234145727651182320000001894798904048201638_)" fill="#757575" d="M355.1,29.7
				c-0.2,0-0.5,0-0.8,0c-0.3,0-0.4,0-0.3,0.1c0.2,0,0.5,0,0.8,0C355.2,29.7,355.3,29.7,355.1,29.7z"/>
			<path clip-path="url(#SVGID_00000067234145727651182320000001894798904048201638_)" fill="#757575" d="M349.4,29.8
				c-0.2,0-0.5,0-0.8,0c-0.3,0-0.4,0-0.3,0.1c0.2,0,0.5,0,0.8,0C349.5,29.8,349.6,29.8,349.4,29.8z"/>
			<path clip-path="url(#SVGID_00000067234145727651182320000001894798904048201638_)" fill="#757575" d="M345.5,29.8
				c-0.2,0-0.5,0-0.8,0c-0.3,0-0.4,0-0.3,0.1c0.2,0,0.5,0,0.8,0C345.6,29.9,345.7,29.9,345.5,29.8z"/>
			<path clip-path="url(#SVGID_00000067234145727651182320000001894798904048201638_)" fill="#757575" d="M359.5,29.5
				c-0.2,0-0.5,0-0.8,0c-0.3,0-0.4,0-0.3,0.1c0.2,0,0.5,0,0.8,0C359.5,29.5,359.6,29.5,359.5,29.5z"/>
			<path clip-path="url(#SVGID_00000067234145727651182320000001894798904048201638_)" fill="#757575" d="M351.7,29.6
				c-0.2,0-0.5,0-0.8,0c-0.3,0-0.4,0-0.3,0.1c0.2,0,0.5,0,0.8,0C351.8,29.7,351.9,29.6,351.7,29.6z"/>
			<path clip-path="url(#SVGID_00000067234145727651182320000001894798904048201638_)" fill="#757575" d="M355.9,29.5
				c-0.2,0-0.5,0-0.8,0c-0.3,0-0.4,0-0.3,0.1c0.2,0,0.5,0,0.8,0C355.9,29.5,356,29.5,355.9,29.5z"/>
			<path clip-path="url(#SVGID_00000067234145727651182320000001894798904048201638_)" fill="#757575" d="M346.3,29.6
				c-0.2,0-0.5,0-0.8,0c-0.3,0-0.4,0-0.3,0.1c0.2,0,0.5,0,0.8,0C346.3,29.7,346.4,29.7,346.3,29.6z"/>
			<path clip-path="url(#SVGID_00000067234145727651182320000001894798904048201638_)" fill="#757575" d="M348.2,29.5
				c-0.2,0-0.5,0-0.8,0c-0.3,0-0.4,0-0.3,0.1c0.2,0,0.5,0,0.8,0C348.3,29.6,348.4,29.5,348.2,29.5z"/>
			<path clip-path="url(#SVGID_00000067234145727651182320000001894798904048201638_)" fill="#757575" d="M352.2,29.4
				c-0.2,0-0.5,0-0.8,0c-0.3,0-0.4,0-0.3,0.1c0.2,0,0.5,0,0.8,0C352.2,29.5,352.4,29.4,352.2,29.4z"/>
			<path clip-path="url(#SVGID_00000067234145727651182320000001894798904048201638_)" fill="#757575" d="M359.7,29.2
				c-0.2,0-0.5,0-0.8,0c-0.3,0-0.4,0-0.3,0.1c0.2,0,0.5,0,0.8,0C359.8,29.2,359.9,29.2,359.7,29.2z"/>
			<path clip-path="url(#SVGID_00000067234145727651182320000001894798904048201638_)" fill="#757575" d="M353.8,29.1
				c-0.2,0-0.5,0-0.8,0c-0.3,0-0.4,0-0.3,0.1c0.2,0,0.5,0,0.8,0C353.8,29.2,353.9,29.1,353.8,29.1z"/>
			<path clip-path="url(#SVGID_00000067234145727651182320000001894798904048201638_)" fill="#757575" d="M349.9,29.3
				c-0.2,0-0.5,0-0.8,0c-0.3,0-0.4,0-0.3,0.1c0.2,0,0.5,0,0.8,0C349.9,29.4,350.1,29.3,349.9,29.3z"/>
			<path clip-path="url(#SVGID_00000067234145727651182320000001894798904048201638_)" fill="#757575" d="M345.9,29.3
				c-0.2,0-0.5,0-0.8,0c-0.3,0-0.4,0-0.3,0.1c0.2,0,0.5,0,0.8,0C345.9,29.4,346,29.3,345.9,29.3z"/>
			<path clip-path="url(#SVGID_00000067234145727651182320000001894798904048201638_)" fill="#757575" d="M348.1,29.1
				c-0.2,0-0.5,0-0.8,0c-0.3,0-0.4,0-0.3,0.1c0.2,0,0.5,0,0.8,0C348.1,29.1,348.2,29.1,348.1,29.1z"/>
			<path clip-path="url(#SVGID_00000067234145727651182320000001894798904048201638_)" fill="#757575" d="M351.7,29
				c-0.2,0-0.5,0-0.8,0c-0.3,0-0.4,0-0.3,0.1c0.2,0,0.5,0,0.8,0C351.8,29,351.9,29,351.7,29z"/>
			<path clip-path="url(#SVGID_00000067234145727651182320000001894798904048201638_)" fill="#757575" d="M356.9,29
				c-0.2,0-0.5,0-0.8,0c-0.3,0-0.4,0-0.3,0.1c0.2,0,0.5,0,0.8,0C356.9,29.1,357,29,356.9,29z"/>
			<path clip-path="url(#SVGID_00000067234145727651182320000001894798904048201638_)" fill="#757575" d="M355.2,28.8
				c-0.2,0-0.5,0-0.8,0c-0.3,0-0.4,0-0.3,0.1c0.2,0,0.5,0,0.8,0C355.2,28.9,355.3,28.9,355.2,28.8z"/>
			<path clip-path="url(#SVGID_00000067234145727651182320000001894798904048201638_)" fill="#757575" d="M348.1,28.9
				c-0.2,0-0.5,0-0.8,0c-0.3,0-0.4,0-0.3,0.1c0.2,0,0.5,0,0.8,0C348.2,28.9,348.3,28.9,348.1,28.9z"/>
			<path clip-path="url(#SVGID_00000067234145727651182320000001894798904048201638_)" fill="#757575" d="M344.2,29.5
				c-0.2,0-0.5,0-0.8,0c-0.3,0-0.4,0-0.3,0.1c0.2,0,0.5,0,0.8,0C344.3,29.5,344.4,29.5,344.2,29.5z"/>
			<path clip-path="url(#SVGID_00000067234145727651182320000001894798904048201638_)" fill="#757575" d="M356.4,29.3
				c-0.2,0-0.5,0-0.8,0c-0.3,0-0.4,0-0.3,0.1c0.2,0,0.5,0,0.8,0C356.4,29.3,356.5,29.3,356.4,29.3z"/>
		</g>
		<g>
			<defs>
				<path id="SVGID_00000036226684597577977000000002611023972857565331_" d="M335.6,5.7c0,0,4.4-3.9,8,3.2c0,0,6.4,11.6-0.5,18.1
					c0,0-4.3,3.4-9.2,0.5c0,0-8.2-3.7-2-17.1C331.8,10.3,333.2,7.6,335.6,5.7z"/>
			</defs>
			<clipPath id="SVGID_00000156554991126027891960000008068791000494811779_">
				<use xlink:href="#SVGID_00000036226684597577977000000002611023972857565331_"  overflow="visible"/>
			</clipPath>
			<path clip-path="url(#SVGID_00000156554991126027891960000008068791000494811779_)" fill="#72BFC1" d="M335.6,5.7
				c0,0,4.4-3.9,8,3.2c0,0,6.4,11.6-0.5,18.1c0,0-4.3,3.4-9.2,0.5c0,0-8.2-3.7-2-17.1C331.8,10.3,333.2,7.6,335.6,5.7z"/>
			<g clip-path="url(#SVGID_00000156554991126027891960000008068791000494811779_)">
				<path fill="#EE99B3" d="M333,5.3c0,0,4.3,1.6,9-0.3c0,0,1.1,1.6,1.4,2c0,0-5.2,2.6-11.9,0.4C331.5,7.5,332.4,6,333,5.3z"/>
				<path fill="#73848A" d="M330.5,9.5c0,0,6.5,3.3,13.9-0.4c0,0,0.6,1.3,0.9,2.2c0,0-6.3,4.4-15.6,0.5
					C329.7,11.7,330,10.5,330.5,9.5z"/>
				<path fill="#EE99B3" d="M329.2,13.8c0,0,7.6,4.9,16.8-0.5c0,0,0.4,1.5,0.5,2.3c0,0-8.6,5.9-17.7,0.5
					C328.8,16.1,328.8,15.3,329.2,13.8z"/>
				<path fill="#73848A" d="M328.7,18.2c0,0,9.3,6.2,18-0.5c0,0,0,1.8-0.1,2.4c0,0-7,6.7-17.7,0.5C328.9,20.6,328.7,19,328.7,18.2z"
					/>
				<path fill="#EE99B3" d="M329.6,22.9c0,0,9.1,5.4,16.5-0.5c0,0-0.8,1.9-1.1,2.3c0,0-6.4,5.1-14.1,0.5
					C331,25.2,329.9,23.5,329.6,22.9z"/>
			</g>
		</g>
	</g>
</g>
<g id="Ebene_2">
	<g>
		<path fill="#D40140" d="M55,12.4c1.3,0.6,2.2,1.4,2.9,2.4c0.7,1,1,2.3,1,3.7c0,1.4-0.3,2.7-1,3.7c-0.7,1.1-1.6,1.9-2.9,2.4
			c-1.3,0.6-2.7,0.8-4.4,0.8h-4.4v5.7h-3.6V11.6h8.1C52.3,11.6,53.8,11.9,55,12.4z M54,21.5c0.8-0.7,1.2-1.6,1.2-2.9
			c0-1.3-0.4-2.2-1.2-2.9c-0.8-0.7-2-1-3.6-1h-4.3v7.8h4.3C52,22.5,53.2,22.1,54,21.5z"/>
		<path fill="#D40140" d="M74.3,26.7h-9.8l-1.9,4.5h-3.8l8.8-19.6h3.6l8.9,19.6h-3.8L74.3,26.7z M73.1,23.8l-3.7-8.6l-3.7,8.6H73.1z
			 M67.1,9c-0.6-0.6-0.9-1.4-0.9-2.3c0-0.9,0.3-1.7,0.9-2.3c0.6-0.6,1.4-1,2.3-1c0.9,0,1.7,0.3,2.3,1c0.6,0.6,0.9,1.4,0.9,2.3
			c0,0.9-0.3,1.7-0.9,2.3c-0.6,0.6-1.4,0.9-2.3,0.9C68.5,9.9,67.7,9.6,67.1,9z M70.7,8c0.3-0.3,0.5-0.8,0.5-1.3c0-0.5-0.2-1-0.5-1.3
			c-0.3-0.3-0.8-0.5-1.3-0.5c-0.5,0-0.9,0.2-1.3,0.5c-0.3,0.3-0.5,0.8-0.5,1.3c0,0.5,0.2,0.9,0.5,1.3c0.3,0.3,0.8,0.5,1.3,0.5
			C69.9,8.5,70.4,8.4,70.7,8z"/>
		<path fill="#D40140" d="M84.3,30.9c-1.4-0.4-2.5-1-3.3-1.7l1.3-2.8c0.8,0.6,1.8,1.2,3,1.6c1.2,0.4,2.3,0.6,3.5,0.6
			c1.5,0,2.5-0.2,3.3-0.7c0.7-0.5,1.1-1.1,1.1-1.8c0-0.6-0.2-1-0.6-1.4c-0.4-0.4-0.9-0.6-1.5-0.9c-0.6-0.2-1.5-0.4-2.5-0.7
			c-1.5-0.4-2.7-0.7-3.6-1.1c-0.9-0.4-1.7-0.9-2.4-1.7c-0.7-0.8-1-1.8-1-3.1c0-1.1,0.3-2.1,0.9-3c0.6-0.9,1.5-1.6,2.7-2.1
			c1.2-0.5,2.6-0.8,4.4-0.8c1.2,0,2.4,0.1,3.5,0.4s2.2,0.7,3,1.3l-1.1,2.8c-0.9-0.5-1.8-0.9-2.7-1.1c-0.9-0.3-1.8-0.4-2.7-0.4
			c-1.4,0-2.5,0.2-3.2,0.7c-0.7,0.5-1,1.1-1,1.9c0,0.6,0.2,1,0.6,1.4c0.4,0.4,0.9,0.6,1.5,0.8c0.6,0.2,1.5,0.4,2.5,0.7
			c1.5,0.3,2.7,0.7,3.6,1.1c0.9,0.4,1.7,0.9,2.4,1.7c0.7,0.7,1,1.8,1,3c0,1.1-0.3,2.1-0.9,2.9c-0.6,0.9-1.5,1.6-2.7,2.1
			c-1.2,0.5-2.7,0.8-4.4,0.8C87.1,31.5,85.7,31.3,84.3,30.9z"/>
		<path fill="#D40140" d="M107,23l-3.1,3.2v5h-3.6V11.6h3.6v10.1l9.7-10.1h4.1l-8.2,8.8l8.7,10.8h-4.3L107,23z"/>
		<path fill="#D40140" d="M135.3,28.2v3.1h-14.7V11.6h14.3v3.1h-10.7v5.1h9.5v3h-9.5v5.4H135.3z"/>
		<path fill="#D40140" d="M152.2,31.2l-4-5.7c-0.2,0-0.4,0-0.8,0H143v5.7h-3.6V11.6h8.1c1.7,0,3.2,0.3,4.4,0.8
			c1.3,0.6,2.2,1.4,2.9,2.4c0.7,1,1,2.3,1,3.7c0,1.5-0.4,2.7-1.1,3.8c-0.7,1.1-1.8,1.9-3.1,2.4l4.5,6.4H152.2z M150.9,15.7
			c-0.8-0.7-2-1-3.6-1H143v7.8h4.3c1.6,0,2.8-0.3,3.6-1c0.8-0.7,1.2-1.6,1.2-2.9C152.2,17.3,151.7,16.4,150.9,15.7z"/>
		<path fill="#D40140" d="M176.4,22.8c0.6,0.8,1,1.9,1,3.1c0,1.7-0.7,3-2,3.9c-1.3,0.9-3.2,1.4-5.7,1.4h-9.8V11.6h9.2
			c2.3,0,4.1,0.5,5.4,1.4c1.2,0.9,1.9,2.2,1.9,3.7c0,1-0.2,1.8-0.7,2.6c-0.4,0.7-1.1,1.3-1.8,1.7C174.9,21.4,175.7,22,176.4,22.8z
			 M163.5,14.5v5.4h5.2c1.3,0,2.2-0.2,2.9-0.7c0.7-0.5,1-1.1,1-2c0-0.9-0.3-1.6-1-2c-0.7-0.5-1.7-0.7-2.9-0.7H163.5z M173.6,25.5
			c0-1.9-1.4-2.8-4.2-2.8h-5.9v5.7h5.9C172.2,28.4,173.6,27.4,173.6,25.5z"/>
		<path fill="#D40140" d="M180.8,30.8c-1.1-0.5-1.9-1.2-2.6-2.1l2.1-2.5c1.1,1.5,2.4,2.2,3.9,2.2c2,0,3.1-1.2,3.1-3.6V14.7h-7v-3.1
			h10.6v13c0,2.3-0.6,4-1.7,5.2c-1.1,1.1-2.8,1.7-4.9,1.7C183,31.5,181.9,31.2,180.8,30.8z"/>
		<path fill="#D40140" d="M198.1,29.2c-1.5-1.5-2.3-3.7-2.3-6.5V11.6h3.6v10.9c0,3.8,1.7,5.8,5,5.8c3.3,0,5-1.9,5-5.8V11.6h3.6v11.1
			c0,2.8-0.8,5-2.3,6.5c-1.5,1.5-3.6,2.3-6.3,2.3C201.7,31.5,199.6,30.7,198.1,29.2z"/>
		<path fill="#D40140" d="M218.1,11.6h8.6c2.1,0,4,0.4,5.6,1.2c1.6,0.8,2.9,2,3.8,3.4c0.9,1.5,1.3,3.2,1.3,5.1s-0.4,3.7-1.3,5.1
			c-0.9,1.5-2.2,2.6-3.8,3.4c-1.6,0.8-3.5,1.2-5.6,1.2h-8.6V11.6z M226.5,28.1c1.4,0,2.7-0.3,3.8-0.8c1.1-0.6,1.9-1.3,2.5-2.4
			c0.6-1,0.9-2.2,0.9-3.5c0-1.3-0.3-2.5-0.9-3.5c-0.6-1-1.4-1.8-2.5-2.4c-1.1-0.6-2.4-0.8-3.8-0.8h-4.8v13.5H226.5z"/>
		<path fill="#D40140" d="M253.7,26.7h-9.8l-1.9,4.5h-3.8l8.8-19.6h3.6l8.9,19.6h-3.8L253.7,26.7z M252.5,23.8l-3.7-8.6l-3.7,8.6
			H252.5z"/>
		<path fill="#D40140" d="M279.4,11.6v19.6h-3l-10.8-13.3v13.3h-3.6V11.6h3l10.8,13.3V11.6H279.4z"/>
		<path fill="#D40140" d="M284.6,11.6h8.6c2.1,0,4,0.4,5.6,1.2c1.6,0.8,2.9,2,3.8,3.4c0.9,1.5,1.3,3.2,1.3,5.1s-0.4,3.7-1.3,5.1
			c-0.9,1.5-2.2,2.6-3.8,3.4c-1.6,0.8-3.5,1.2-5.6,1.2h-8.6V11.6z M293,28.1c1.4,0,2.7-0.3,3.8-0.8c1.1-0.6,1.9-1.3,2.5-2.4
			c0.6-1,0.9-2.2,0.9-3.5c0-1.3-0.3-2.5-0.9-3.5c-0.6-1-1.4-1.8-2.5-2.4c-1.1-0.6-2.4-0.8-3.8-0.8h-4.8v13.5H293z"/>
		<path fill="#D40140" d="M322.5,28.2v3.1h-14.7V11.6h14.3v3.1h-10.7v5.1h9.5v3h-9.5v5.4H322.5z"/>
	</g>
</g>
</svg>
