<?xml version="1.0" encoding="utf-8"?>
<!-- Generator: Adobe Illustrator 26.0.0, SVG Export Plug-In . SVG Version: 6.00 Build 0)  -->
<svg version="1.1" xmlns="http://www.w3.org/2000/svg" xmlns:xlink="http://www.w3.org/1999/xlink" x="0px" y="0px" width="365px"
	 height="35px" viewBox="0 0 365 35" enable-background="new 0 0 365 35" xml:space="preserve">
<g id="Ebene_3">
	<rect fill="#D40140" width="365" height="35"/>
</g>
<g id="Ebene_4">
	<g>
		<path opacity="0.2" d="M29.9,7.9L29.9,7.9L24,7.4c-0.1-0.1-1.5-1.7-1.6-1.7c-0.1-0.1-0.2-0.3-0.3-0.4c-0.1-0.1-0.5-0.6-0.7-0.7
			c-0.1-0.1-0.5-0.6-0.7-0.7c-0.8-1-1.9-1.4-3.1-1.3c-1.6,0.1-2.5,0.8-2.8,1.5c-1.1,0.6-1.9,1.5-2.6,2.6l-2.1-0.2L8.8,7
			c0,0-3.2,0.6-3.2,0.6l-0.9,22L5,29.6c0,0.3,3,2.4,6.7,5.4l21,0c4.8-4,9.1-6.5,9.5-13.3C42.1,21.6,29.9,8.3,29.9,7.9z M14.5,4.7
			c-0.1,0.1-0.2,0.2-0.3,0.2C14.3,4.8,14.4,4.8,14.5,4.7L14.5,4.7z"/>
		<g>
			<path fill="#FAFAFA" d="M14.5,4.7c0,0.3,0,0.5,0,0.8c0,0.2,0,0.5,0,0.7c0,0.2,0,0.4,0,0.5l0.6,0c0.1-1.5,0-1.9,0.2-2.5
				C15,4.4,14.7,4.5,14.5,4.7z"/>
			<path fill="#FAFAFA" d="M19.3,2.8c-0.5-0.2-1.2-0.3-1.8-0.3c-1.1,0-2.3,0.5-2.8,1.5c0.3-0.2,0.6-0.3,1-0.4
				C16.2,3.2,16.9,3,17.5,3c0.5,0,1,0.1,1.4,0.2c1.6,0.6,2,2.3,2.1,4l0.6,0C21.5,4.5,20.5,3.3,19.3,2.8z"/>
			<polygon fill="#F0ECEC" points="29.9,7.9 26.8,8.4 26.9,28.7 26.9,28.7 30.9,31.2 29.9,7.9 			"/>
			<polygon fill="#FFFFFF" points="24.9,9.1 24.1,33.1 4.6,29.5 5.6,7.5 			"/>
			<polygon fill="#E0D9D9" points="26.9,28.7 24.1,33.1 24.1,33.1 30.9,31.2 26.9,28.7 			"/>
			<polygon fill="#E0D9D9" points="24.9,9.1 24.1,33.1 26.9,28.7 26.9,28.7 26.8,8.4 			"/>
			<polygon fill="#B2A1A1" points="24.9,9.1 26.8,8.4 29.9,7.9 10.1,6.4 10.1,6.4 8.8,7 5.6,7.5 			"/>
			<path fill="#595050" d="M12.5,8.1l0.7,0.1c-0.2,0.2-0.4,0.5-0.5,0.8c-0.2,0.3-0.4,0.5-0.8,1c0,0,0.1,0.1,0.1,0.1
				c0.1,0.2-0.1,0.3-0.3,0.3c-0.2-0.1-0.3-0.2-0.3-0.5v0c0,0,0,0,0,0c0.7-0.9,0.7-0.8,1.1-1.5c0,0,0,0,0,0
				C12.4,8.2,12.4,8.1,12.5,8.1z"/>
			<path fill="#595050" d="M19.1,10.7c0.1-0.3,0.3-0.5,0.4-0.8c0.3-0.4,0.5-0.8,0.8-1.2l-0.7-0.1c-0.1,0.2-0.2,0.4-0.4,0.5
				c-0.2,0.3-0.3,0.5-0.5,0.8c-0.1,0.2-0.2,0.4-0.3,0.6c0,0,0,0,0,0C18.7,10.6,18.9,10.7,19.1,10.7z"/>
			<path fill="#FAFAFA" d="M13.1,5.3c-0.7,0.8-1.3,1.8-1.7,2.8l0,0c0,0.1,0,0.1-0.1,0.2c0,0,0,0,0,0c0,0.2-0.3,1-0.2,1.7
				c0,0,0,0,0,0c0,0,0,0.1,0,0.1c0,0,0,0,0,0c0.1,0.3,0.5,0.3,0.6,0.2c0.1-0.1,0.2-0.2,0.1-0.3c0,0-0.1,0-0.1-0.1
				c-0.1-0.3,0-1.2,0.3-1.8c0-0.1,0.4-0.9,1-1.8c0.6-0.9,1.3-1.6,2.3-2.1c0.2-0.1,0.3-0.1,0.5-0.2c1.1-0.3,3.2-0.3,3.5,0.8
				c0.1,0.5-0.2,1-0.3,1.5c-0.1,0.2-0.1,0.4-0.2,0.7c-0.1,0.3-0.2,0.6-0.2,0.9c0,0.2-0.1,0.4-0.1,0.7c0,0.3-0.1,0.5-0.1,0.8l0,0
				c0,0,0,0.1,0,0.1c0,0.2,0,0.3,0,0.5c0,0.2,0,0.3,0,0.5c0,0.1,0,0.1,0,0.2c0,0,0,0,0,0l0,0c0,0.1,0.1,0.2,0.1,0.2v0
				c0.1,0.1,0.2,0.2,0.4,0.2c0,0,0,0,0.1,0c0.2,0,0.3-0.1,0.3-0.2c0-0.1,0-0.1-0.1-0.2c-0.1,0-0.1,0-0.1-0.1
				c-0.1-0.1-0.1-0.3-0.1-0.5c0-0.2,0-0.4,0-0.6c0-0.3,0-0.5,0.1-0.8c0.1-0.5,0.2-1,0.3-1.5c0.1-0.3,0.2-0.6,0.3-0.9
				c0.1-0.2,0.2-0.5,0.2-0.7c0.1-0.3,0-0.6-0.1-0.8C19.1,3.2,15.4,2.6,13.1,5.3z"/>
		</g>
	</g>
	<g>
		<path fill="#D40140" d="M9.3,15.9l-0.6,5.7l-1.1-0.1l0.5-4.8L7,16.5l0.1-0.9L9.3,15.9z"/>
		<path fill="#D40140" d="M12.4,16.2l-0.6,5.7l-1.1-0.1l0.5-4.8l-1.2-0.1l0.1-0.9L12.4,16.2z"/>
		<path fill="#D40140" d="M13.2,21.9C13,21.8,13,21.6,13,21.4c0-0.2,0.1-0.4,0.2-0.5c0.1-0.1,0.3-0.2,0.5-0.1s0.3,0.1,0.5,0.2
			c0.1,0.1,0.2,0.3,0.1,0.5c0,0.2-0.1,0.4-0.2,0.5c-0.1,0.1-0.3,0.2-0.5,0.1C13.4,22.1,13.3,22,13.2,21.9z"/>
		<path fill="#D40140" d="M17.4,16.7l-0.6,5.7l-1.1-0.1l0.5-4.8L15,17.4l0.1-0.9L17.4,16.7z"/>
		<path fill="#D40140" d="M20.5,17l-0.6,5.7l-1.1-0.1l0.5-4.8l-1.2-0.1l0.1-0.9L20.5,17z"/>
		<path fill="#D40140" d="M21.2,22.7c-0.1-0.1-0.2-0.3-0.1-0.5c0-0.2,0.1-0.4,0.2-0.5c0.1-0.1,0.3-0.2,0.5-0.1
			c0.2,0,0.3,0.1,0.5,0.2c0.1,0.1,0.2,0.3,0.1,0.5c0,0.2-0.1,0.4-0.2,0.5C22,22.9,21.9,23,21.7,23C21.5,22.9,21.4,22.9,21.2,22.7z"
			/>
	</g>
	<polygon fill="#FFFFFF" points="333.1,35 30,35 61.9,0 365,0 	"/>
</g>
<g id="Ebene_2">
	<g>
		<path fill="#D40140" d="M59.8,24c-1-0.3-1.8-0.7-2.3-1.2l0.9-2c0.6,0.4,1.2,0.8,2,1.1s1.6,0.4,2.4,0.4c1,0,1.8-0.2,2.3-0.5
			c0.5-0.3,0.7-0.8,0.7-1.3c0-0.4-0.1-0.7-0.4-1c-0.3-0.3-0.6-0.4-1.1-0.6c-0.4-0.1-1-0.3-1.7-0.5c-1-0.2-1.9-0.5-2.5-0.7
			c-0.6-0.2-1.2-0.6-1.6-1.2c-0.5-0.5-0.7-1.2-0.7-2.1c0-0.8,0.2-1.4,0.6-2c0.4-0.6,1-1.1,1.8-1.5c0.8-0.4,1.8-0.5,3-0.5
			c0.8,0,1.6,0.1,2.4,0.3s1.5,0.5,2.1,0.9l-0.8,2c-0.6-0.3-1.2-0.6-1.9-0.8c-0.6-0.2-1.3-0.3-1.9-0.3c-1,0-1.7,0.2-2.2,0.5
			c-0.5,0.3-0.7,0.8-0.7,1.3c0,0.4,0.1,0.7,0.4,1c0.3,0.2,0.6,0.4,1.1,0.6c0.4,0.1,1,0.3,1.7,0.5c1,0.2,1.8,0.5,2.5,0.7
			c0.6,0.3,1.2,0.6,1.7,1.2c0.5,0.5,0.7,1.2,0.7,2.1c0,0.8-0.2,1.4-0.6,2c-0.4,0.6-1,1.1-1.9,1.5c-0.8,0.4-1.8,0.5-3,0.5
			C61.8,24.5,60.8,24.3,59.8,24z"/>
		<path fill="#D40140" d="M70.9,10.7h2.5v13.6h-2.5V10.7z"/>
		<path fill="#D40140" d="M89.1,10.7v13.6H87l-7.5-9.2v9.2H77V10.7h2.1l7.5,9.2v-9.2H89.1z"/>
		<path fill="#D40140" d="M102,17.3h2.4v5.4c-0.7,0.6-1.5,1-2.4,1.3c-0.9,0.3-1.9,0.4-2.9,0.4c-1.4,0-2.6-0.3-3.7-0.9
			c-1.1-0.6-2-1.4-2.6-2.5c-0.6-1.1-1-2.3-1-3.6c0-1.3,0.3-2.5,1-3.6c0.6-1.1,1.5-1.9,2.6-2.5c1.1-0.6,2.4-0.9,3.8-0.9
			c1.1,0,2.2,0.2,3.1,0.6c0.9,0.4,1.7,0.9,2.3,1.6l-1.6,1.6c-1-1-2.3-1.6-3.7-1.6c-1,0-1.8,0.2-2.6,0.6c-0.7,0.4-1.3,1-1.7,1.7
			c-0.4,0.7-0.6,1.6-0.6,2.5c0,0.9,0.2,1.7,0.6,2.4c0.4,0.7,1,1.3,1.7,1.7c0.7,0.4,1.6,0.6,2.5,0.6c1.1,0,2-0.2,2.8-0.7V17.3z"/>
		<path fill="#D40140" d="M107.7,10.7h2.5v11.5h7.1v2.1h-9.6V10.7z"/>
		<path fill="#D40140" d="M129.6,22.2v2.1h-10.2V10.7h9.9v2.1h-7.4v3.5h6.6v2.1h-6.6v3.7H129.6z"/>
		<path fill="#D40140" d="M133.6,24c-1-0.3-1.8-0.7-2.3-1.2l0.9-2c0.6,0.4,1.2,0.8,2,1.1c0.8,0.3,1.6,0.4,2.4,0.4
			c1,0,1.8-0.2,2.3-0.5c0.5-0.3,0.7-0.8,0.7-1.3c0-0.4-0.1-0.7-0.4-1c-0.3-0.3-0.6-0.4-1.1-0.6c-0.4-0.1-1-0.3-1.7-0.5
			c-1-0.2-1.9-0.5-2.5-0.7c-0.6-0.2-1.2-0.6-1.6-1.2c-0.5-0.5-0.7-1.2-0.7-2.1c0-0.8,0.2-1.4,0.6-2c0.4-0.6,1-1.1,1.8-1.5
			c0.8-0.4,1.8-0.5,3-0.5c0.8,0,1.6,0.1,2.4,0.3c0.8,0.2,1.5,0.5,2.1,0.9l-0.8,2c-0.6-0.3-1.2-0.6-1.9-0.8c-0.6-0.2-1.3-0.3-1.9-0.3
			c-1,0-1.7,0.2-2.2,0.5c-0.5,0.3-0.7,0.8-0.7,1.3c0,0.4,0.1,0.7,0.4,1c0.3,0.2,0.6,0.4,1.1,0.6c0.4,0.1,1,0.3,1.7,0.5
			c1,0.2,1.8,0.5,2.5,0.7c0.6,0.3,1.2,0.6,1.7,1.2c0.5,0.5,0.7,1.2,0.7,2.1c0,0.8-0.2,1.4-0.6,2s-1,1.1-1.9,1.5
			c-0.8,0.4-1.8,0.5-3,0.5C135.5,24.5,134.5,24.3,133.6,24z"/>
		<path fill="#D40140" d="M149.9,10.7h5.9c1.4,0,2.7,0.3,3.9,0.8c1.1,0.6,2,1.4,2.6,2.4c0.6,1,0.9,2.2,0.9,3.6s-0.3,2.5-0.9,3.6
			c-0.6,1-1.5,1.8-2.6,2.4c-1.1,0.6-2.4,0.8-3.9,0.8h-5.9V10.7z M155.8,22.2c1,0,1.9-0.2,2.6-0.6c0.8-0.4,1.3-0.9,1.7-1.6
			c0.4-0.7,0.6-1.5,0.6-2.5s-0.2-1.8-0.6-2.5c-0.4-0.7-1-1.2-1.7-1.6c-0.8-0.4-1.6-0.6-2.6-0.6h-3.3v9.3H155.8z"/>
		<path fill="#D40140" d="M174.6,21.1h-6.8l-1.3,3.1h-2.6l6.1-13.6h2.5l6.1,13.6h-2.6L174.6,21.1z M173.8,19.2l-2.6-5.9l-2.5,5.9
			H173.8z"/>
		<path fill="#D40140" d="M185.4,19.5v4.8h-2.5v-4.8l-5.3-8.8h2.7l4,6.6l4-6.6h2.5L185.4,19.5z"/>
		<path fill="#D40140" d="M207.9,22.2v2.1h-10.2V10.7h9.9v2.1h-7.4v3.5h6.6v2.1h-6.6v3.7H207.9z"/>
		<path fill="#D40140" d="M219.6,24.3l-2.8-4c-0.1,0-0.3,0-0.5,0h-3.1v4h-2.5V10.7h5.6c1.2,0,2.2,0.2,3.1,0.6c0.9,0.4,1.5,0.9,2,1.7
			c0.5,0.7,0.7,1.6,0.7,2.6c0,1-0.2,1.9-0.7,2.6c-0.5,0.7-1.2,1.3-2.1,1.7l3.1,4.5H219.6z M218.7,13.5c-0.6-0.5-1.4-0.7-2.5-0.7
			h-2.9v5.4h2.9c1.1,0,1.9-0.2,2.5-0.7c0.6-0.5,0.9-1.1,0.9-2C219.5,14.7,219.2,14,218.7,13.5z"/>
		<path fill="#D40140" d="M236.3,18.5c0.4,0.6,0.7,1.3,0.7,2.1c0,1.2-0.5,2.1-1.4,2.7c-0.9,0.6-2.2,1-4,1h-6.8V10.7h6.4
			c1.6,0,2.8,0.3,3.7,0.9c0.9,0.6,1.3,1.5,1.3,2.6c0,0.7-0.2,1.3-0.5,1.8c-0.3,0.5-0.7,0.9-1.3,1.2
			C235.3,17.5,235.8,17.9,236.3,18.5z M227.4,12.7v3.7h3.6c0.9,0,1.6-0.2,2-0.5c0.5-0.3,0.7-0.8,0.7-1.4c0-0.6-0.2-1.1-0.7-1.4
			c-0.5-0.3-1.1-0.5-2-0.5H227.4z M234.4,20.4c0-1.3-1-2-2.9-2h-4.1v3.9h4.1C233.4,22.3,234.4,21.7,234.4,20.4z"/>
		<path fill="#D40140" d="M239.4,24c-0.7-0.3-1.3-0.8-1.8-1.4l1.4-1.7c0.8,1,1.6,1.6,2.7,1.6c1.4,0,2.1-0.8,2.1-2.5v-7H239v-2.1h7.4
			v9c0,1.6-0.4,2.8-1.2,3.6c-0.8,0.8-1.9,1.2-3.4,1.2C240.9,24.5,240.1,24.3,239.4,24z"/>
		<path fill="#D40140" d="M251.3,22.9c-1-1.1-1.6-2.6-1.6-4.5v-7.7h2.5v7.6c0,2.7,1.2,4,3.5,4c2.3,0,3.4-1.3,3.4-4v-7.6h2.5v7.7
			c0,2-0.5,3.5-1.6,4.5c-1,1.1-2.5,1.6-4.4,1.6C253.8,24.5,252.4,24,251.3,22.9z"/>
		<path fill="#D40140" d="M265.2,10.7h5.9c1.4,0,2.7,0.3,3.9,0.8c1.1,0.6,2,1.4,2.6,2.4c0.6,1,0.9,2.2,0.9,3.6s-0.3,2.5-0.9,3.6
			c-0.6,1-1.5,1.8-2.6,2.4c-1.1,0.6-2.4,0.8-3.9,0.8h-5.9V10.7z M271,22.2c1,0,1.9-0.2,2.6-0.6c0.8-0.4,1.3-0.9,1.7-1.6
			c0.4-0.7,0.6-1.5,0.6-2.5s-0.2-1.8-0.6-2.5c-0.4-0.7-1-1.2-1.7-1.6c-0.8-0.4-1.6-0.6-2.6-0.6h-3.3v9.3H271z"/>
		<path fill="#D40140" d="M289.8,21.1H283l-1.3,3.1h-2.6l6.1-13.6h2.5l6.1,13.6h-2.6L289.8,21.1z M289,19.2l-2.6-5.9l-2.5,5.9H289z"
			/>
		<path fill="#D40140" d="M307.6,10.7v13.6h-2.1l-7.5-9.2v9.2h-2.5V10.7h2.1l7.5,9.2v-9.2H307.6z"/>
		<path fill="#D40140" d="M311.3,10.7h5.9c1.4,0,2.7,0.3,3.9,0.8c1.1,0.6,2,1.4,2.6,2.4c0.6,1,0.9,2.2,0.9,3.6s-0.3,2.5-0.9,3.6
			c-0.6,1-1.5,1.8-2.6,2.4c-1.1,0.6-2.4,0.8-3.9,0.8h-5.9V10.7z M317.1,22.2c1,0,1.9-0.2,2.6-0.6c0.8-0.4,1.3-0.9,1.7-1.6
			c0.4-0.7,0.6-1.5,0.6-2.5s-0.2-1.8-0.6-2.5c-0.4-0.7-1-1.2-1.7-1.6c-0.8-0.4-1.6-0.6-2.6-0.6h-3.3v9.3H317.1z"/>
		<path fill="#D40140" d="M337.5,22.2v2.1h-10.2V10.7h9.9v2.1h-7.4v3.5h6.6v2.1h-6.6v3.7H337.5z"/>
	</g>
</g>
</svg>
