<?xml version="1.0" encoding="utf-8"?>
<!-- Generator: Adobe Illustrator 26.1.0, SVG Export Plug-In . SVG Version: 6.00 Build 0)  -->
<svg version="1.1" xmlns="http://www.w3.org/2000/svg" xmlns:xlink="http://www.w3.org/1999/xlink" x="0px" y="0px" width="365px"
	 height="35px" viewBox="0 0 365 35" enable-background="new 0 0 365 35" xml:space="preserve">
<g id="Ebene_3">
	<rect fill-rule="evenodd" clip-rule="evenodd" fill="#D40140" width="365" height="35"/>
	<polygon fill="#FFFFFF" points="360,0 343,0 16,0 5,0 0,35 21,35 338,35 365,35 	"/>
</g>
<g id="Ebene_4">
	<g>
		<g>
			<path fill="#EDAE2C" d="M357,31.8c0.3,0.1,0.7,0.2,0.9,0.3c0.3,0.2,0.6,0.5,0.6,0.5l-0.1-0.7c0,0-0.1-1.1,0.5-2
				c1.1-1.5,2.6-2.3,2.6-2.3s-1.9,0.4-2.5,0.2c-0.2-0.1-0.6-0.2-0.5-0.8c0.1-0.6,0.6-1.1,1.1-1.4c0.6-0.3,2.3-1,2.3-1
				s-0.3-0.6-0.1-1.5c0.2-1,2-2.4,2-2.4s-2,1.2-3.6,1.8c-1.6,0.5-3.4,0.9-3.8,0.1c-0.2-0.6,0.2-1.4,1.6-2.4c1.4-0.9,3.3-1.1,3.3-1.1
				s0-0.5,0.3-1.3c0.4-0.8,1.8-2.1,1.8-2.1s-1.6,0.3-2.3-0.1c-1.3-0.6-1.7-1.3-1.5-2.5c0.6-2.5,1.4-3.3,1.4-3.3s-1,0.6-1.7-0.3
				c-0.6-0.9-0.7-3-0.7-3s-0.1,1.2-1.3,2.4c-1,1-2.1,0.1-2.1,0.1s0.6,1.4-0.1,3.3c-0.4,1.2-1.3,2.3-1.9,2.2
				c-1.2-0.3-1.6-2.4-1.4-4.1c0.2-1.7,2.1-3.9,2.1-3.9s-1,0.3-1.4-0.4c-0.5-1-0.5-3.1-0.5-3.1s-0.3,0.9-0.9,1.9
				c-0.4,0.7-1.6,1.8-2.5,1.9s-1.4-0.3-1.9-1.2c-0.5-0.9-1.4-3.4-1.4-3.4s0.1,1-0.3,1.2c-0.4,0.2-0.7,0.3-1.4-0.2
				c-1-0.7-2.3-2.4-2.3-2.4s0.9,2.6,0.5,3.6s-1.5,0.4-1.5,0.4c0.9,1,2.7,3.7,1.4,5.1c-1,1-4.9,0.1-4.9,0.1s1.2,1.5,1.7,2.4
				c0.5,0.9-0.1,1.2-0.1,1.2s2,0,4.1,1c2.1,1.1,3.1,2.1,3,3.2c-0.1,1.1-1.5,1.1-2.5,0.6c-1.1-0.4-3.8-2.3-3.8-2.3s0.3,0.8,0,1.2
				c-0.5,0.6-1.5,0.8-2.4,0.7c-1.4-0.2-2-0.3-2-0.3s1.8,1.3,2.2,2.3s-0.4,1.5-0.4,1.5s2.9,0,4.7,1.4c0.8,0.6-0.3,1.3-0.9,1.8
				c-0.5,0.4-1.3,0.8-1.3,0.8s1.5-0.2,2.9,0.2c1.2,0.4,1,0.9,1,0.9s2.7-1.7,4.6-2.1c2.5-0.4,3.5,0.4,3.5,1.3
				c0.1,0.9-3.2,2.1-3.9,2.3s-1.9,0.2-1.9,0.2s2.1,0.3,2.9,0.9c0.7,0.5,1,1.2,1,1.2s2.1-1,3.1-1c1,0,1.8,0.6,1.5,1.1
				c-0.3,0.5-1.2,1.1-1.2,1.1S354.8,31.4,357,31.8z"/>
			<g>
				<path fill="#94692F" d="M361.9,22.3c-0.7,0.4-1.3,0.8-1.8,1.2c-0.3,0.2-0.6,0.4-0.9,0.6l-0.2,0.2c0,0,0,0-0.1,0.1
					c0,0-0.1,0.1-0.1,0.1c-0.1,0-0.1,0.1-0.1,0.1c0,0,0,0,0,0c-0.1,0.1-0.1,0.1-0.2,0.2c-0.4,0.5-0.8,1.1-1.3,1.7
					c-0.4,0.6-0.8,1.2-1.2,1.8c0,0,0,0,0,0c0,0,0,0,0,0l0.1,0.1c0,0,0,0,0,0c0,0,0,0,0,0c0,0,0,0,0,0c0.4-0.6,0.7-1.2,1.2-1.8
					c0.5-0.7,0.8-1.2,1.3-1.7c0-0.1,0.1-0.1,0.2-0.2c0,0,0,0,0,0c0-0.1,0.1-0.1,0.1-0.1c0,0,0.1-0.1,0.1-0.1c0,0,0,0,0.1-0.1
					l0.2-0.2c0.3-0.2,0.6-0.4,0.9-0.6C360.7,23.1,361.3,22.7,361.9,22.3C362,22.3,362,22.3,361.9,22.3
					C361.9,22.3,361.9,22.3,361.9,22.3z"/>
				<path fill="#94692F" d="M348.5,15.2C348.5,15.2,348.5,15.2,348.5,15.2l0.8-2.7c0.1-0.4,0.3-0.9,0.4-1.3c0,0,0-0.1,0-0.1
					c0.1-0.2,0.1-0.3,0.2-0.5c0.1-0.2,0.2-0.4,0.3-0.6c0.2-0.4,0.4-0.8,0.6-1.2l0.3-0.6c0,0,0,0,0-0.1c0-0.1,0.1-0.2,0.1-0.2
					c0-0.1,0.1-0.2,0.1-0.3c0.3-0.9,0.5-1.7,0.7-2.6l0-0.1c0,0,0,0,0,0c0,0,0,0,0,0l0,0.1c-0.2,0.9-0.5,1.7-0.8,2.6
					c0,0.1-0.1,0.2-0.1,0.3c0,0.1-0.1,0.2-0.1,0.2c0,0,0,0,0,0.1l-0.3,0.6c-0.2,0.4-0.4,0.8-0.6,1.2c-0.1,0.2-0.2,0.4-0.3,0.6
					c-0.1,0.2-0.1,0.3-0.2,0.5c0,0,0,0.1,0,0.1c-0.1,0.5-0.3,0.9-0.4,1.3l-0.8,2.7c0,0,0,0,0,0c0,0,0,0,0,0L348.5,15.2
					C348.5,15.2,348.5,15.2,348.5,15.2z"/>
				<path fill="#94692F" d="M362.6,16.5c-0.3,0.1-0.6,0.2-0.9,0.3c-0.3,0.1-0.6,0.2-0.9,0.2c-0.1,0-0.3,0.1-0.4,0.1
					c-0.1,0-0.2,0-0.2,0c0,0-0.1,0-0.1,0c0,0-0.1,0-0.1,0c-0.3,0-0.5,0.1-0.8,0.1l-0.1,0c-0.3,0-0.6,0.1-0.9,0.1c-0.1,0-0.2,0-0.3,0
					c-0.1,0-0.1,0-0.2,0c-0.2,0-0.3,0-0.5,0.1c-0.6,0.1-1.2,0.2-1.7,0.3l0.1-0.2c0.1-0.2,0.2-0.3,0.2-0.4c0,0,0-0.1,0.1-0.1
					c0-0.1,0.1-0.2,0.1-0.3c0.2-0.5,0.5-1.1,0.8-1.8c0.2-0.6,0.5-1.2,0.7-1.8c0.1-0.2,0.2-0.5,0.2-0.7l0.1-0.2l0-0.1
					c0.1-0.3,0.2-0.5,0.2-0.8c0.2-0.7,0.3-1.3,0.4-1.9c0,0,0,0,0,0c0,0,0,0,0,0c0,0,0,0,0,0c-0.1,0.6-0.3,1.2-0.5,1.9
					c-0.1,0.3-0.2,0.5-0.2,0.8l0,0.1l-0.1,0.2c-0.1,0.2-0.2,0.5-0.2,0.7c-0.2,0.6-0.4,1.2-0.7,1.8c-0.3,0.7-0.5,1.3-0.8,1.8
					c0,0.1-0.1,0.2-0.1,0.3c0,0,0,0.1-0.1,0.1c-0.1,0.1-0.1,0.3-0.2,0.4l-0.1,0.2l-0.2,0.4c-0.1-0.4-0.2-0.8-0.3-1.2
					c-0.1-0.3-0.1-0.5-0.1-0.7c0-0.1,0-0.2,0-0.3c0-0.1,0-0.2,0-0.3c0-0.5,0-0.9,0.2-1.3c0-0.1,0.1-0.2,0.1-0.3l0,0
					c0-0.1,0.1-0.2,0.1-0.3c0.1-0.2,0.1-0.5,0.2-0.7c0,0,0,0,0,0c0,0,0,0,0,0c0,0.2-0.1,0.4-0.2,0.7c0,0.1-0.1,0.2-0.1,0.3l0,0
					c0,0.1-0.1,0.2-0.1,0.3c-0.1,0.4-0.2,0.8-0.2,1.3l0,0.2l0,0c0,0,0,0.1,0,0.1c0,0.1,0,0.2,0,0.3c0,0.2,0.1,0.4,0.1,0.7
					c0.1,0.4,0.2,0.9,0.3,1.3c0,0,0,0,0,0s0,0,0,0l0,0l0,0c-0.3,0.5-0.5,1.1-0.8,1.8c-0.2,0.6-0.4,1.2-0.6,1.9
					c-0.1,0.4-0.2,0.7-0.2,1c0,0.2-0.1,0.3-0.1,0.5c0,0.1,0,0.2,0,0.3c0,0,0,0.1,0,0.1l0,0c0,0,0,0.1,0,0.1c0,0,0,0,0,0c0,0,0,0,0,0
					c0,0,0,0,0,0l0.1,0.1c0,0,0-0.1,0-0.1c0,0,0-0.1,0-0.1c0,0,0-0.1,0-0.1c0-0.1,0-0.2,0-0.2c0-0.1,0-0.3,0.1-0.5
					c0.1-0.3,0.1-0.6,0.2-0.9c0.2-0.6,0.4-1.2,0.6-1.8c0.3-0.7,0.5-1.3,0.8-1.8l0.3-0.6l0,0c0,0,0,0,0,0c0,0,0,0,0,0
					c0.5-0.1,1.2-0.2,1.8-0.3c0.1,0,0.3,0,0.4-0.1c0,0,0.1,0,0.1,0c0.1,0,0.2,0,0.3,0c0.3,0,0.6-0.1,0.9-0.1l0.1,0
					c0.3,0,0.5-0.1,0.8-0.1c0,0,0.1,0,0.1,0c0,0,0.1,0,0.1,0c0.1,0,0.2,0,0.2,0c0.2,0,0.3-0.1,0.4-0.1c0.3-0.1,0.6-0.2,0.9-0.2
					C362,16.7,362.3,16.6,362.6,16.5C362.6,16.5,362.6,16.5,362.6,16.5C362.6,16.5,362.6,16.5,362.6,16.5
					C362.6,16.5,362.6,16.5,362.6,16.5z"/>
			</g>
			<g>
				<path fill="#94692F" d="M355.9,28.3c-0.7,0-1.5-0.1-2.2-0.1c-0.9,0-1.6,0-2.2,0.1c-0.2,0-0.4,0.1-0.6,0.1
					c-0.2,0-0.3,0.1-0.5,0.1c-0.4,0.1-0.7,0.1-1.1,0.1c-0.4,0-0.8,0.1-1.1,0.1c-0.2,0-0.4,0-0.6,0c-0.2,0-0.4,0-0.5,0c0,0,0,0,0,0
					c0,0,0,0,0,0c0.2,0,0.4,0,0.6,0c0.2,0,0.3,0,0.6,0c0.3,0,0.7,0,1.1-0.1c0.4,0,0.7-0.1,1.1-0.1c0.2,0,0.3,0,0.5-0.1
					c0.2,0,0.4-0.1,0.6-0.1c0.6-0.1,1.3-0.1,2.2-0.1c0.7,0,1.5,0,2.2,0.1c0,0,0,0,0,0c0,0,0,0,0,0L355.9,28.3
					C355.9,28.4,355.9,28.4,355.9,28.3C355.9,28.3,355.9,28.3,355.9,28.3z"/>
				<path fill="#94692F" d="M338,11.1c0.1,0,0.2,0.1,0.2,0.1c0.1,0.1,0.2,0.1,0.3,0.1c0.2,0.1,0.4,0.2,0.6,0.3
					c0.4,0.1,0.8,0.3,1.3,0.5c0.4,0.1,0.8,0.3,1.3,0.4l0.6,0.2l0.1,0c0.2,0.1,0.4,0.1,0.5,0.2c0.7,0.3,1.5,0.6,2.2,0.9l2.9,1.2
					c0,0,0,0,0,0c0,0,0,0,0,0c0,0,0,0,0,0l-0.1-0.2c0,0,0,0,0,0c0,0,0,0,0,0l-2.5-1l-0.3-0.1c-0.7-0.3-1.5-0.6-2.2-0.8
					c-0.2-0.1-0.4-0.1-0.5-0.2l-0.7-0.2c-0.5-0.2-0.9-0.3-1.3-0.4c-0.5-0.2-0.9-0.3-1.3-0.5c-0.2-0.1-0.4-0.2-0.6-0.3
					c-0.1,0-0.2-0.1-0.3-0.1C338.2,11.1,338.1,11.1,338,11.1C338,11,338,11,338,11.1C338,11,338,11,338,11.1C338,11,338,11,338,11.1
					L338,11.1z"/>
				<path fill="#94692F" d="M349,22.3c-0.1,0-0.2,0-0.3-0.1l-2.7-0.4l-0.5-0.1l0,0c-0.1,0-0.2,0-0.3,0c-0.1,0-0.2-0.1-0.3-0.1
					c-0.8-0.2-1.5-0.5-2.1-0.7c-0.7-0.2-1.4-0.5-2.1-0.8c-0.7-0.3-1.5-0.6-2.1-0.8l-1-0.4l-0.1,0c-0.3-0.1-0.6-0.2-0.9-0.4
					c0,0,0,0,0,0c0,0,0,0,0,0c0.3,0.1,0.6,0.3,0.9,0.4l1.2,0.4c0.8,0.3,1.4,0.5,2.1,0.8c0.7,0.3,1.4,0.5,2.1,0.8
					c0.6,0.2,1.3,0.5,2.1,0.7c0.1,0,0.2,0,0.3,0.1c0.1,0,0.2,0,0.3,0.1l0.6,0.1l2.2,0.3l0.5,0.1c0,0,0.1,0,0.1,0l-2.8,0.8
					c-0.1,0-0.1,0-0.2,0.1c-0.1,0-0.2,0.1-0.3,0.1c-0.2,0.1-0.4,0.1-0.5,0.2c-0.6,0.2-1.1,0.5-1.7,0.7c-0.1,0-0.2,0.1-0.3,0.1
					l-0.1,0.1c-0.3,0.1-0.6,0.2-0.9,0.4l0,0c-0.3,0.1-0.6,0.3-1,0.4c0,0,0,0,0,0c0,0,0,0,0,0c0.3-0.1,0.7-0.2,1-0.4l0,0
					c0.3-0.1,0.6-0.2,0.9-0.4l0.1-0.1c0.1,0,0.2-0.1,0.3-0.1c0.6-0.2,1.1-0.5,1.7-0.7c0.2-0.1,0.3-0.1,0.5-0.2
					c0.1,0,0.2-0.1,0.3-0.1c0.1,0,0.1,0,0.2-0.1l3.1-0.9c0,0,0.1,0,0.1,0c0.7,0.2,1.3,0.5,2,0.8l0.1,0c0.6,0.3,1.3,0.6,2,0.9
					c0,0,0,0,0,0c0,0,0,0,0,0c0,0,0,0,0,0l0.1-0.1c0,0,0,0,0,0c0,0,0,0,0,0c-0.7-0.3-1.4-0.6-2-0.9l-0.1,0c-0.5-0.2-1.1-0.4-1.6-0.6
					c0,0,0,0,0,0c0,0,0,0,0,0l-1-1.2l-0.5-0.6c0,0,0,0-0.1-0.1c-0.1-0.1-0.1-0.2-0.2-0.2c-0.1-0.1-0.2-0.2-0.3-0.2
					c-0.2-0.1-0.4-0.2-0.7-0.4c-0.3-0.1-0.5-0.2-0.7-0.3c-0.1,0-0.3-0.1-0.4-0.1l-1.1-0.2c0,0,0,0,0,0c0,0,0,0,0,0l1.1,0.2
					c0.1,0,0.2,0,0.4,0.1c0.2,0.1,0.4,0.2,0.7,0.3c0.3,0.1,0.5,0.2,0.7,0.4c0.1,0.1,0.2,0.1,0.3,0.2c0.1,0.1,0.1,0.1,0.2,0.2
					c0,0,0,0,0.1,0.1l0.5,0.6l0.9,1.1c-0.1,0-0.2-0.1-0.2-0.1C349.2,22.4,349.1,22.4,349,22.3L349,22.3z"/>
			</g>
			<path fill="#916531" d="M359.8,34.3c-1.4-2.4-3.2-5.3-4.8-7.8c-0.3-0.4-0.6-0.9-0.9-1.4c-0.2-0.4-0.4-0.8-0.7-1.2
				c-0.9-1.5-1.7-2.8-2.4-4.1c0,0,0,0,0,0c-1.8-3.2-3.2-5.7-4.1-7.6c-1.2-2.4-2.2-4.6-2.9-6.1l0-0.1c-0.1-0.2-0.1-0.3-0.2-0.4
				c-0.4-1-1-2.2-1.3-2.6c0,0,0,0,0,0c0,0,0,0,0,0c0,0,0,0,0,0l0.2,0.5c0,0,0.3,0.7,0.8,1.9c0,0.1,0.1,0.2,0.1,0.3
				c0.1,0.1,0.1,0.3,0.2,0.4l0.2,0.4c0.6,1.4,1.5,3.4,2.7,5.8c1.4,2.8,2.7,5.3,4,7.6c0,0,0,0,0,0c0.8,1.3,1.5,2.7,2.3,4
				c0.2,0.4,0.5,0.8,0.7,1.2c0.3,0.5,0.6,1,0.8,1.5c1.9,3,3.5,5.6,4.7,7.7C359.5,34.3,359.6,34.3,359.8,34.3z"/>
		</g>
		<g>
			<path fill="#F0B400" d="M10.1,2c0,0-5.6,7.6-6.8,14.7c-1.1,6.9,1.2,13,6.9,14.6c4.4,1.2,8.4-0.2,9.9-1.5c1.5-1.3,1.9-2.5,1.9-2.5
				s2,0.6,3.7-0.1c2-0.8,6.1-3.6,6.3-7.5c0.3-5.3-2.7-9.8-6.8-12.5C19.8,3.8,10.1,2,10.1,2z"/>
			<path fill="#444118" d="M5.8,27.6C5.8,27.6,5.8,27.6,5.8,27.6C5.8,27.6,5.8,27.6,5.8,27.6C5.8,27.6,5.8,27.6,5.8,27.6
				c0.5,0.3,1.1,0.6,1.9,0.9c0.6,0.2,1.3,0.4,2,0.6c0.7,0.2,1.4,0.3,2,0.3c0.7,0.1,1.4,0,2.1,0c1.2-0.1,2.4-0.5,3.8-1
				c0,0,0.1,0,0.1-0.1c0.6-0.3,1.2-0.6,1.9-0.9c0.5-0.3,1.1-0.6,1.7-1l-0.4-0.7l-0.2,0.1c-0.1,0-0.2,0.1-0.3,0.1
				c-0.2,0.1-0.4,0.1-0.6,0.2c-0.4,0.1-0.8,0.2-1.1,0.3c-0.8,0.2-1.6,0.3-2.3,0.3c-1.6,0.1-3.2-0.1-4.7-0.5
				c-1.5-0.5-2.9-1.1-4.3-1.9c-1.4-0.8-2.6-1.8-3.7-2.9c0,0,0,0,0,0c0,0,0,0,0,0c0,0,0,0,0,0c0,0,0,0,0,0c1.1,1.1,2.3,2,3.7,2.9
				c1.4,0.8,2.8,1.5,4.3,1.9c1.5,0.4,3.1,0.6,4.7,0.5c0.8-0.1,1.6-0.2,2.3-0.3c0.4-0.1,0.8-0.2,1.1-0.3c0.2-0.1,0.4-0.1,0.6-0.2
				c0.1,0,0.2-0.1,0.3-0.1l0.1-0.1l0,0c-0.3-0.5-0.6-1-0.9-1.4c-0.3-0.5-0.6-1-0.9-1.5c-0.3,0.1-0.6,0.1-1,0.1c-0.2,0-0.3,0-0.5,0
				l0,0c-0.1,0-0.1,0-0.2,0c-0.1,0-0.2,0-0.3,0c-0.7,0-1.4-0.1-2.1-0.2l-0.3,0l-0.8-0.1l-0.5-0.1c-0.2,0-0.4-0.1-0.5-0.1
				c-0.1,0-0.2,0-0.2-0.1c-0.3-0.1-0.5-0.1-0.8-0.2l-0.5-0.1c-0.1,0-0.2-0.1-0.3-0.1c-0.1,0-0.1,0-0.2-0.1c-0.1,0-0.1,0-0.2-0.1
				c-0.1,0-0.2-0.1-0.3-0.1l-0.7-0.3c-0.1,0-0.1,0-0.2-0.1c0,0-0.1,0-0.1,0L8.7,21c-0.5-0.3-1.2-0.7-1.8-1.1c-1.2-0.9-2.2-1.9-3-3
				c0,0,0,0,0,0l0,0c0,0,0,0,0,0c0,0,0,0,0,0c0.8,1.1,1.8,2.1,3,2.9c0.6,0.5,1.3,0.8,1.8,1.1l0.5,0.2c0,0,0.1,0,0.1,0
				c0.1,0,0.1,0,0.2,0.1l0.7,0.3c0.1,0,0.2,0.1,0.3,0.1c0.1,0,0.1,0,0.2,0.1c0.1,0,0.1,0,0.2,0.1c0.1,0,0.2,0.1,0.3,0.1l0.5,0.1
				c0.3,0.1,0.5,0.1,0.8,0.2c0.1,0,0.2,0,0.2,0.1c0.2,0,0.3,0.1,0.5,0.1l0.5,0.1l0.8,0.1l0.3,0c0.7,0.1,1.4,0.2,2.1,0.2
				c0.1,0,0.2,0,0.3,0c0.1,0,0.1,0,0.2,0l0,0c0.2,0,0.3,0,0.5,0c0.3,0,0.6-0.1,0.9-0.1c-0.3-0.4-0.5-0.9-0.8-1.3
				c-0.4-0.7-0.8-1.3-1.2-2c-0.5-0.1-1-0.1-1.6-0.2c-0.6-0.1-1.1-0.2-1.7-0.3c-1.3-0.3-2.3-0.5-3.2-0.8c-0.1,0-0.2-0.1-0.3-0.1
				c0,0-0.1,0-0.1,0l-0.2-0.1l-0.2-0.1c0,0-0.1,0-0.1-0.1c-0.1,0-0.2-0.1-0.3-0.1l-0.4-0.2c-0.5-0.2-1-0.5-1.5-0.8
				c-1-0.6-1.9-1.2-2.7-1.9c0,0,0,0,0,0c0,0,0,0,0,0c0,0,0,0,0,0c0,0,0,0,0,0c0.8,0.7,1.7,1.3,2.7,1.9c0.5,0.3,1,0.5,1.5,0.8
				l0.4,0.2c0.1,0,0.2,0.1,0.2,0.1c0,0,0.1,0,0.1,0.1l0.2,0.1l0.2,0.1c0,0,0.1,0,0.1,0c0.1,0,0.2,0.1,0.3,0.1c0.9,0.3,2,0.6,3.2,0.8
				c0.5,0.1,1.1,0.2,1.6,0.3c0.5,0.1,1,0.2,1.5,0.2c-0.5-1-1.1-1.9-1.6-2.9c-0.7-0.2-1.5-0.5-2.3-0.8c-0.8-0.3-1.6-0.7-2.3-1.1
				C10,14,9.3,13.5,8.5,13l-0.5-0.4c-0.1,0-0.1-0.1-0.2-0.2L7.2,12c-0.1,0-0.1-0.1-0.2-0.1c0,0-0.1-0.1-0.1-0.1l-0.5-0.4
				c0,0,0,0,0,0c0,0,0,0,0,0L7,11.8c0,0,0.1,0.1,0.1,0.1c0,0,0.1,0.1,0.2,0.1l0.6,0.4c0.1,0.1,0.1,0.1,0.2,0.2l0.5,0.4
				c0.8,0.5,1.5,1,2.2,1.3c0.8,0.4,1.6,0.7,2.3,1.1c0.8,0.3,1.5,0.5,2.2,0.7c-0.1-0.3-0.3-0.5-0.4-0.8c-0.2-0.4-0.4-0.8-0.6-1.3
				l-0.1-0.3l-0.2-0.4c0,0,0,0,0,0c0,0,0,0,0,0l-0.3-0.1c-0.1,0-0.1,0-0.2-0.1c-0.1,0-0.3-0.1-0.5-0.2c-0.3-0.1-0.6-0.2-0.9-0.4
				c-0.6-0.2-1.2-0.5-1.7-0.8c-0.5-0.3-1.1-0.6-1.6-1l-0.4-0.3c-0.1-0.1-0.2-0.1-0.2-0.2c0,0-0.1-0.1-0.1-0.1L7.8,10
				c0,0-0.1-0.1-0.1-0.1c0,0,0,0-0.1-0.1L7.2,9.5c0,0,0,0,0,0c0,0,0,0,0,0l0.4,0.3c0,0,0,0,0.1,0.1c0,0,0.1,0.1,0.1,0.1L8,10.1
				c0,0,0.1,0.1,0.1,0.1c0.1,0.1,0.2,0.1,0.2,0.2l0.4,0.3c0.6,0.4,1.1,0.7,1.6,1c0.6,0.3,1.2,0.6,1.7,0.8c0.3,0.1,0.6,0.2,0.9,0.3
				c0.2,0.1,0.3,0.1,0.5,0.2c0.1,0,0.1,0,0.2,0.1l0.2,0.1l-0.1-0.2l-0.3-0.8c-0.3-0.8-0.7-1.7-1-2.6c-0.3-0.1-0.7-0.3-1.1-0.5
				c-0.4-0.2-0.7-0.4-1-0.7C10,8,9.6,7.7,9.3,7.4L9.1,7.2L8.8,6.9L8.5,6.5c0,0,0,0,0,0c0,0,0,0,0,0l0.3,0.4l0.3,0.3l0.2,0.2
				c0.3,0.3,0.6,0.6,1,0.8c0.3,0.2,0.7,0.5,1,0.7c0.3,0.2,0.7,0.3,1,0.5c-0.1-0.1-0.1-0.3-0.2-0.4c-0.7-2.1-1.4-4.3-2-6.6
				c0,0,0-0.1,0-0.1c0,0,0.1,0,0.1,0c0.6,2.2,1.3,4.4,2.1,6.5c0,0.1,0,0.1,0.1,0.2l0.1-0.2c0.1-0.1,0.1-0.2,0.1-0.3
				c0.1-0.2,0.2-0.4,0.2-0.7c0.1-0.4,0.3-0.9,0.3-1.3c0.1-0.4,0.1-0.9,0.2-1.4c0-0.5,0-0.9-0.1-1.4c0,0,0,0,0,0c0,0,0,0,0,0
				c0.1,0.5,0.1,0.9,0.1,1.4c0,0.5-0.1,0.9-0.2,1.4c-0.1,0.5-0.2,0.9-0.3,1.4c-0.1,0.2-0.1,0.5-0.2,0.7c0,0.1-0.1,0.2-0.1,0.3
				L12.5,9l0,0.1c0,0,0,0,0,0c0.4,1.1,0.8,2,1.1,2.9l0.3,0.7l0.2-0.3c0.1-0.2,0.2-0.3,0.2-0.5c0.2-0.4,0.3-0.7,0.4-1
				c0.3-0.7,0.5-1.4,0.6-2c0.1-0.4,0.1-0.7,0.2-1c0-0.3,0.1-0.7,0.1-1.1c0-0.8,0-1.5-0.1-2.1c0,0,0,0,0,0c0,0,0,0,0,0
				c0.1,0.7,0.2,1.4,0.1,2.1c0,0.4,0,0.7-0.1,1.1c0,0.3-0.1,0.6-0.2,1.1c-0.1,0.7-0.4,1.4-0.6,2.1c-0.1,0.3-0.2,0.6-0.4,1
				c-0.1,0.2-0.1,0.3-0.2,0.5l-0.1,0.2L14,12.8l0,0.1l0.3,0.7l0.1,0.3c0.2,0.4,0.4,0.8,0.6,1.2c0.3,0.5,0.5,1,0.8,1.5l0.1-0.2
				c0-0.1,0.1-0.2,0.1-0.3c0.1-0.1,0.1-0.2,0.2-0.3c0.1-0.1,0.1-0.2,0.2-0.3c0.2-0.4,0.4-0.9,0.6-1.3c0.4-0.9,0.6-1.8,0.8-2.7
				l0.1-0.4l0.1-0.4c0-0.2,0.1-0.5,0.1-0.7l0,0c0-0.2,0-0.3,0-0.5c0-0.1,0-0.2,0-0.3c0-0.1,0-0.1,0-0.2c0-0.2,0-0.3,0-0.5
				c0-0.5,0-1,0-1.4C18,7,18,6.7,18,6.5c0-0.2-0.1-0.5-0.2-0.7c0,0,0,0,0,0c0,0,0,0,0,0C17.9,6,18,6.2,18,6.5c0,0.2,0.1,0.5,0.1,0.7
				c0,0.4,0.1,0.9,0,1.4c0,0.2,0,0.3,0,0.5c0,0.1,0,0.2,0,0.2c0,0.1,0,0.2,0,0.3c0,0.2,0,0.3,0,0.5l0,0c0,0.2,0,0.5-0.1,0.7L18,11.1
				l-0.1,0.4c-0.2,0.9-0.4,1.8-0.8,2.8c-0.2,0.4-0.4,0.9-0.6,1.3c0,0.1-0.1,0.2-0.2,0.3c-0.1,0.1-0.1,0.2-0.2,0.3
				c0,0.1-0.1,0.2-0.1,0.3l-0.1,0.2l-0.1,0.1c0.8,1.5,1.7,3,2.5,4.4c0.2,0.3,0.4,0.7,0.6,1l0,0c0,0,0-0.1,0.1-0.1c0,0,0-0.1,0-0.1
				c0-0.1,0.1-0.2,0.1-0.3c0-0.1,0-0.1,0.1-0.2l0.2-0.4l0.2-0.4c0.3-0.6,0.5-1.2,0.7-1.8c0.5-1.3,0.8-2.6,0.9-3.8
				c0.1-0.8,0.1-1.4,0.1-1.9c0-0.7,0-1.3-0.1-1.9c0-0.7-0.1-1.3-0.2-1.9c-0.1-0.6-0.2-1.3-0.3-1.9c0,0,0,0,0,0c0,0,0,0,0,0
				c0,0,0,0,0,0c0,0,0,0,0,0c0.2,0.6,0.3,1.3,0.3,1.9c0.1,0.6,0.1,1.3,0.2,1.9c0,0.6,0.1,1.3,0.1,2c0,0.6,0,1.2-0.1,2
				c-0.2,1.2-0.5,2.4-0.9,3.8c-0.2,0.6-0.4,1.2-0.7,1.8l-0.2,0.5l-0.2,0.4c0,0.1,0,0.1-0.1,0.2c0,0.1-0.1,0.2-0.1,0.3
				c0,0,0,0.1,0,0.1c0,0,0,0.1-0.1,0.1l0,0c0,0,0,0,0,0c0.4,0.6,0.7,1.2,1.1,1.8c0.3,0.4,0.5,0.9,0.9,1.4c0,0,0,0,0,0l0,0
				c0.1-0.1,0.1-0.1,0.2-0.2c0.1-0.1,0.2-0.2,0.3-0.3c0,0,0.1-0.1,0.1-0.1c0.3-0.4,0.5-0.7,0.6-0.9c0.4-0.7,0.8-1.3,1.1-2
				c0.4-0.8,0.6-1.4,0.9-2.1l0.1-0.4l0.2-0.7c0-0.1,0.1-0.3,0.1-0.4c0,0,0-0.1,0-0.1l0.1-0.6l0.1-0.8c0-0.1,0-0.1,0-0.2
				c0,0,0-0.1,0-0.1l0.1-0.6c0-0.1,0-0.2,0-0.4c0-0.1,0-0.1,0-0.2l0-0.3c0-0.1,0-0.1,0-0.2c0,0,0-0.1,0-0.1l0-0.6c0-0.1,0-0.2,0-0.3
				c0-0.3,0-0.5-0.1-0.8c-0.1-0.8-0.2-1.5-0.3-2.2C24.5,10,24.3,9.3,24,8.6c0,0,0,0,0,0c0,0,0,0,0,0c0,0,0,0,0,0c0,0,0,0,0,0
				c0,0,0,0,0,0c0.3,0.7,0.5,1.4,0.7,2.2c0.2,0.7,0.3,1.5,0.4,2.3c0,0.3,0,0.6,0.1,0.8c0,0.1,0,0.2,0,0.3l0,0.6c0,0,0,0.1,0,0.1
				c0,0.1,0,0.1,0,0.2l0,0.3c0,0.1,0,0.1,0,0.2c0,0.1,0,0.2,0,0.4l-0.1,0.6c0,0,0,0.1,0,0.1c0,0.1,0,0.1,0,0.2l-0.1,0.8l-0.1,0.6
				c0,0,0,0.1,0,0.1c0,0.1-0.1,0.3-0.1,0.4l-0.2,0.7l-0.1,0.4c-0.2,0.7-0.5,1.3-0.9,2.1c-0.3,0.7-0.7,1.3-1.1,2
				c-0.2,0.3-0.4,0.6-0.6,0.9c0,0-0.1,0.1-0.1,0.1c-0.1,0.1-0.2,0.2-0.3,0.3c-0.1,0.1-0.1,0.1-0.2,0.2l0,0c0,0,0,0.1-0.1,0.1
				l0.4,0.7l0.1,0.2c0,0,0,0,0.1,0l0.2-0.1c0.2-0.1,0.3-0.2,0.5-0.2c0.3-0.1,0.6-0.3,0.9-0.5c0.6-0.4,1.2-0.7,1.7-1.1
				c0.6-0.5,1.1-0.9,1.5-1.4c0.1-0.1,0.1-0.2,0.2-0.3c0,0,0.1-0.1,0.1-0.1c0.1-0.1,0.2-0.2,0.3-0.4l0,0c0,0,0-0.1,0.1-0.1
				c0.1-0.1,0.2-0.2,0.2-0.3l0.1-0.2l0.1-0.2c0.2-0.3,0.3-0.6,0.5-0.9c0.1-0.3,0.3-0.6,0.4-1c0.2-0.6,0.4-1.3,0.5-2
				c0.1-0.7,0.1-1.4,0.1-2.1c0-0.8-0.1-1.4-0.2-2.1c0,0,0,0,0,0c0,0,0,0,0,0c0.1,0.6,0.2,1.3,0.2,2.1c0,0.7,0,1.4-0.1,2.1
				c-0.1,0.7-0.3,1.4-0.5,2c-0.1,0.3-0.2,0.7-0.4,1c-0.1,0.3-0.3,0.6-0.5,0.9l-0.1,0.2l-0.1,0.2c-0.1,0.1-0.1,0.2-0.2,0.3
				c0,0,0,0.1-0.1,0.1l0,0c-0.1,0.1-0.2,0.3-0.3,0.4c0,0-0.1,0.1-0.1,0.1c-0.1,0.1-0.1,0.2-0.2,0.3c-0.4,0.5-0.9,0.9-1.5,1.4
				c-0.5,0.4-1.1,0.8-1.7,1.2c-0.4,0.2-0.6,0.4-0.9,0.5c-0.1,0.1-0.3,0.1-0.5,0.2l-0.3,0.1l0.4,0.6c0,0,0,0.1,0.1,0.1c0,0,0,0,0,0.1
				c2,2.4,4.8,4.4,4.8,4.4l-0.7,0.7c-2.6-1.9-4.3-4.7-4.3-4.7c0,0-0.1-0.1-0.1-0.2c0,0,0,0,0,0l0,0c0-0.1-0.1-0.2-0.1-0.2l-0.5-0.8
				c-0.6,0.4-1.2,0.7-1.7,1c-0.6,0.3-1.3,0.6-1.9,0.9c0,0,0,0-0.1,0c-1.4,0.6-2.7,0.9-3.9,1.1c-0.7,0.1-1.4,0.1-2.1,0
				c-0.6-0.1-1.3-0.2-2.1-0.3c-0.7-0.2-1.4-0.4-2-0.6C6.9,28.3,6.3,28,5.8,27.6C5.8,27.7,5.8,27.6,5.8,27.6z"/>
		</g>
	</g>
</g>
<g id="Ebene_2">
	<g>
		<path fill="#D40140" d="M60.8,30.8c-1.6-0.5-2.8-1.1-3.7-1.9l1.4-3.1c0.9,0.7,2,1.3,3.3,1.7c1.3,0.4,2.6,0.7,3.9,0.7
			c1.6,0,2.8-0.3,3.6-0.8c0.8-0.5,1.2-1.2,1.2-2.1c0-0.6-0.2-1.1-0.7-1.5c-0.4-0.4-1-0.7-1.7-0.9c-0.7-0.2-1.6-0.5-2.8-0.8
			c-1.7-0.4-3-0.8-4-1.2c-1-0.4-1.9-1-2.6-1.9c-0.7-0.8-1.1-2-1.1-3.4c0-1.2,0.3-2.3,1-3.3c0.7-1,1.6-1.8,3-2.3
			c1.3-0.6,2.9-0.9,4.8-0.9c1.3,0,2.6,0.2,3.9,0.5s2.4,0.8,3.3,1.4l-1.3,3.1c-1-0.6-2-1-3-1.3c-1-0.3-2-0.4-3-0.4
			c-1.6,0-2.8,0.3-3.6,0.8c-0.8,0.5-1.2,1.3-1.2,2.1c0,0.6,0.2,1.1,0.7,1.5c0.4,0.4,1,0.7,1.7,0.9c0.7,0.2,1.6,0.5,2.8,0.8
			c1.6,0.4,2.9,0.8,4,1.2c1,0.4,1.9,1,2.7,1.9c0.7,0.8,1.1,2,1.1,3.4c0,1.2-0.3,2.3-1,3.3c-0.7,1-1.6,1.8-3,2.3
			c-1.3,0.6-2.9,0.9-4.9,0.9C64,31.5,62.4,31.3,60.8,30.8z"/>
		<path fill="#D40140" d="M82.6,12.8h-7.2V9.4h18.5v3.4h-7.2v18.4h-4V12.8z"/>
		<path fill="#D40140" d="M100.8,30.1c-1.8-1-3.2-2.3-4.2-4c-1-1.7-1.5-3.6-1.5-5.7c0-2.1,0.5-4,1.5-5.7c1-1.7,2.4-3.1,4.2-4
			c1.8-1,3.8-1.4,6-1.4c2.2,0,4.2,0.5,6,1.4c1.8,1,3.2,2.3,4.2,4c1,1.7,1.5,3.6,1.5,5.8c0,2.1-0.5,4.1-1.5,5.8c-1,1.7-2.4,3-4.2,4
			c-1.8,1-3.8,1.4-6,1.4C104.6,31.5,102.6,31,100.8,30.1z M110.8,27c1.2-0.7,2.1-1.6,2.7-2.7c0.7-1.2,1-2.5,1-3.9
			c0-1.5-0.3-2.8-1-3.9s-1.6-2.1-2.7-2.7c-1.2-0.7-2.5-1-3.9-1c-1.5,0-2.8,0.3-3.9,1c-1.2,0.7-2.1,1.6-2.7,2.7c-0.7,1.2-1,2.5-1,3.9
			c0,1.5,0.3,2.8,1,3.9c0.7,1.2,1.6,2.1,2.7,2.7c1.2,0.7,2.5,1,3.9,1C108.3,27.9,109.6,27.6,110.8,27z"/>
		<path fill="#D40140" d="M137.1,31.2l-4.5-6.4c-0.2,0-0.5,0-0.8,0h-4.9v6.4h-4.1V9.4h9c1.9,0,3.5,0.3,4.9,0.9
			c1.4,0.6,2.5,1.5,3.2,2.7c0.7,1.2,1.1,2.5,1.1,4.1c0,1.6-0.4,3.1-1.2,4.2c-0.8,1.2-1.9,2.1-3.4,2.6l5,7.2H137.1z M135.7,13.9
			c-0.9-0.7-2.3-1.1-4-1.1h-4.7v8.7h4.7c1.8,0,3.1-0.4,4-1.1c0.9-0.8,1.4-1.8,1.4-3.2C137,15.7,136.6,14.7,135.7,13.9z"/>
		<path fill="#D40140" d="M173.6,9.4v21.8h-4v-9.3h-11.3v9.3h-4.1V9.4h4.1v9h11.3v-9H173.6z"/>
		<path fill="#D40140" d="M183.6,30.1c-1.8-1-3.2-2.3-4.2-4c-1-1.7-1.5-3.6-1.5-5.7c0-2.1,0.5-4,1.5-5.7c1-1.7,2.4-3.1,4.2-4
			c1.8-1,3.8-1.4,6-1.4c2.2,0,4.2,0.5,6,1.4c1.8,1,3.2,2.3,4.2,4c1,1.7,1.5,3.6,1.5,5.8c0,2.1-0.5,4.1-1.5,5.8c-1,1.7-2.4,3-4.2,4
			c-1.8,1-3.8,1.4-6,1.4C187.4,31.5,185.4,31,183.6,30.1z M193.6,27c1.2-0.7,2.1-1.6,2.7-2.7c0.7-1.2,1-2.5,1-3.9
			c0-1.5-0.3-2.8-1-3.9s-1.6-2.1-2.7-2.7c-1.2-0.7-2.5-1-3.9-1c-1.5,0-2.8,0.3-3.9,1c-1.2,0.7-2.1,1.6-2.7,2.7c-0.7,1.2-1,2.5-1,3.9
			c0,1.5,0.3,2.8,1,3.9c0.7,1.2,1.6,2.1,2.7,2.7c1.2,0.7,2.5,1,3.9,1C191.1,27.9,192.4,27.6,193.6,27z M185.3,6.7
			c-0.4-0.4-0.5-0.8-0.5-1.3c0-0.6,0.2-1,0.5-1.4s0.8-0.5,1.3-0.5c0.5,0,1,0.2,1.3,0.5c0.4,0.4,0.5,0.8,0.5,1.4c0,0.5-0.2,1-0.5,1.3
			c-0.4,0.4-0.8,0.5-1.3,0.5C186.1,7.3,185.6,7.1,185.3,6.7z M191.3,6.7c-0.4-0.4-0.5-0.8-0.5-1.3c0-0.6,0.2-1,0.5-1.4
			c0.4-0.4,0.8-0.5,1.3-0.5s1,0.2,1.3,0.5c0.4,0.4,0.5,0.8,0.5,1.4c0,0.5-0.2,1-0.5,1.3c-0.4,0.4-0.8,0.5-1.3,0.5
			S191.7,7.1,191.3,6.7z"/>
		<path fill="#D40140" d="M207.6,30.8c-1.6-0.5-2.8-1.1-3.7-1.9l1.4-3.1c0.9,0.7,2,1.3,3.3,1.7c1.3,0.4,2.6,0.7,3.9,0.7
			c1.6,0,2.8-0.3,3.6-0.8c0.8-0.5,1.2-1.2,1.2-2.1c0-0.6-0.2-1.1-0.7-1.5c-0.4-0.4-1-0.7-1.7-0.9c-0.7-0.2-1.6-0.5-2.8-0.8
			c-1.7-0.4-3-0.8-4-1.2c-1-0.4-1.9-1-2.6-1.9c-0.7-0.8-1.1-2-1.1-3.4c0-1.2,0.3-2.3,1-3.3c0.7-1,1.6-1.8,3-2.3
			c1.3-0.6,2.9-0.9,4.8-0.9c1.3,0,2.6,0.2,3.9,0.5c1.3,0.3,2.4,0.8,3.3,1.4l-1.3,3.1c-1-0.6-2-1-3-1.3c-1-0.3-2-0.4-3-0.4
			c-1.6,0-2.8,0.3-3.6,0.8c-0.8,0.5-1.2,1.3-1.2,2.1c0,0.6,0.2,1.1,0.7,1.5c0.4,0.4,1,0.7,1.7,0.9c0.7,0.2,1.6,0.5,2.8,0.8
			c1.6,0.4,2.9,0.8,4,1.2c1,0.4,1.9,1,2.7,1.9c0.7,0.8,1.1,2,1.1,3.4c0,1.2-0.3,2.3-1,3.3c-0.7,1-1.6,1.8-3,2.3
			c-1.3,0.6-2.9,0.9-4.9,0.9C210.8,31.5,209.1,31.3,207.6,30.8z"/>
		<path fill="#D40140" d="M229.4,12.8h-7.2V9.4h18.5v3.4h-7.2v18.4h-4V12.8z"/>
		<path fill="#D40140" d="M258,31.2l-4.5-6.4c-0.2,0-0.5,0-0.8,0h-4.9v6.4h-4.1V9.4h9c1.9,0,3.5,0.3,4.9,0.9
			c1.4,0.6,2.5,1.5,3.2,2.7c0.7,1.2,1.1,2.5,1.1,4.1c0,1.6-0.4,3.1-1.2,4.2c-0.8,1.2-1.9,2.1-3.4,2.6l5,7.2H258z M256.5,13.9
			c-0.9-0.7-2.3-1.1-4-1.1h-4.7v8.7h4.7c1.8,0,3.1-0.4,4-1.1c0.9-0.8,1.4-1.8,1.4-3.2C257.9,15.7,257.4,14.7,256.5,13.9z"/>
		<path fill="#D40140" d="M282.8,27.8v3.4h-16.4V9.4h15.9v3.4h-11.9v5.7h10.5v3.3h-10.5v6H282.8z"/>
		<path fill="#D40140" d="M301.5,26.1h-10.9l-2.1,5h-4.2l9.8-21.8h4l9.8,21.8h-4.2L301.5,26.1z M300.1,23l-4.1-9.5L292,23H300.1z"/>
	</g>
</g>
</svg>
