<?xml version="1.0" encoding="utf-8"?>
<!-- Generator: Adobe Illustrator 26.0.0, SVG Export Plug-In . SVG Version: 6.00 Build 0)  -->
<svg version="1.1" xmlns="http://www.w3.org/2000/svg" xmlns:xlink="http://www.w3.org/1999/xlink" x="0px" y="0px" width="365px"
	 height="35px" viewBox="0 0 365 35" enable-background="new 0 0 365 35" xml:space="preserve">
<g id="Ebene_3">
	<rect x="0" fill="#EB6123" width="365" height="35"/>
</g>
<g id="Ebene_2">
</g>
<g id="Ebene_4">
	<g>
		<path fill-rule="evenodd" clip-rule="evenodd" fill="#FFFFFF" d="M25.3,33.3c3,0.7,5.3-0.4,7-2.8C44.9,27.3,45.4,9.8,32,9.4
			c-1.7-1.9-6.5-2.2-9.1-0.9c-0.4-2.4,0.6-4.1,2.4-5.8C26.1,1.9,24,0.4,23,1.2c-2.1,2.1-2.9,4.5-1.9,6.9c-2.7-0.8-6.5-0.5-8.1,1.2
			C-0.4,9.7,0,27.2,12.6,30.4c1.7,2.4,4,3.5,7,2.8C21.4,34.2,23.5,34.2,25.3,33.3z M11.4,22.7c1.3,0.7,2.8,1.3,4.2,1.7
			c0.4,1.3,1.2,2.2,1.8,2.1c0.4-0.1,0.6-0.7,0.6-1.5c2.9,0.4,5.9,0.4,8.8,0c0,0.7,0.2,1.3,0.6,1.5c0.6,0.1,1.5-0.7,1.8-2.1
			c1.5-0.4,2.9-1,4.2-1.7C33.5,32.3,11.4,32.3,11.4,22.7z M21.5,21.5c-1.2,1.7-1.3,1.3,1,1.3c2.2,0,2.1,0.4,0.8-1.3
			C22.3,19.8,22.6,19.8,21.5,21.5z M16.4,17l3.3,1.8c-1.1,1.9-2.5,2.4-4.4,1.5c-1.7-1.1-2.9-3.6-2.1-5.2L16.4,17z M28.4,17l-3.3,1.8
			c1.1,1.9,2.5,2.4,4.4,1.5c1.8-1.1,2.9-3.6,2.1-5.2L28.4,17z M18.3,9.9c1.7,0.8,0.7,0.8-1.1,0.2c-7.4-2.3-10.9,10.3-5,18.4
			c0.4,0.6-1-0.2-1.8-1.7C4.3,17,11.2,6.4,18.3,9.9z M26.6,9.9c-1.6,0.8-0.7,0.8,1.1,0.2c7.4-2.3,10.9,10.3,5,18.4
			c-0.4,0.6,1-0.2,1.8-1.7C40.6,17,33.6,6.4,26.6,9.9z"/>
	</g>
	<g>
		<path fill-rule="evenodd" clip-rule="evenodd" fill="#FFFFFF" d="M345.4,33.3c3,0.7,5.3-0.4,7-2.8c12.6-3.2,13.1-20.7-0.3-21.1
			c-1.7-1.9-6.5-2.2-9.1-0.9c-0.4-2.4,0.6-4.1,2.4-5.8c0.8-0.8-1.3-2.3-2.3-1.5c-2.1,2.1-2.9,4.5-1.9,6.9c-2.7-0.8-6.5-0.5-8.1,1.2
			c-13.4,0.4-13,17.9-0.4,21.1c1.7,2.4,4,3.5,7,2.8C341.5,34.2,343.6,34.2,345.4,33.3z M331.5,22.7c1.3,0.7,2.8,1.3,4.2,1.7
			c0.4,1.3,1.2,2.2,1.8,2.1c0.4-0.1,0.6-0.7,0.6-1.5c2.9,0.4,5.9,0.4,8.8,0c0,0.7,0.2,1.3,0.6,1.5c0.6,0.1,1.5-0.7,1.8-2.1
			c1.5-0.4,2.9-1,4.2-1.7C353.6,32.3,331.5,32.3,331.5,22.7z M341.6,21.5c-1.2,1.7-1.3,1.3,1,1.3c2.2,0,2.1,0.4,0.8-1.3
			C342.4,19.8,342.7,19.8,341.6,21.5z M336.5,17l3.3,1.8c-1.1,1.9-2.5,2.4-4.4,1.5c-1.7-1.1-2.9-3.6-2.1-5.2L336.5,17z M348.5,17
			l-3.3,1.8c1.1,1.9,2.5,2.4,4.4,1.5c1.8-1.1,2.9-3.6,2.1-5.2L348.5,17z M338.4,9.9c1.7,0.8,0.7,0.8-1.1,0.2
			c-7.4-2.3-10.9,10.3-5,18.4c0.4,0.6-1-0.2-1.8-1.7C324.4,17,331.3,6.4,338.4,9.9z M346.7,9.9c-1.6,0.8-0.7,0.8,1.1,0.2
			c7.4-2.3,10.9,10.3,5,18.4c-0.4,0.6,1-0.2,1.8-1.7C360.7,17,353.7,6.4,346.7,9.9z"/>
	</g>
	<g>
		<path fill="#FFFFFF" d="M57.5,25c-0.6,0.2-1.3,0.4-1.9,0.3c-0.3,0-0.5,0-0.8-0.1c-0.3-0.1-0.6-0.1-0.8-0.3c-0.6-0.3-1.1-0.6-1.5-1
			c-0.5-0.5-0.7-1.1-0.7-1.7c0-0.3,0.1-0.6,0.3-0.8c0.1-0.2,0.3-0.3,0.5-0.4c0,0.1,0,0.3,0.1,0.5c0.1,0.2,0.1,0.3,0.2,0.5
			c0.1,0.1,0.1,0.2,0.2,0.3c0.4,0.4,0.9,0.8,1.6,1c0.5,0.1,0.9,0.2,1.4,0.1c0.4-0.1,0.8-0.2,1.1-0.5c0.8-0.6,0.8-1.2,0-2.1
			c-0.3-0.3-0.6-0.6-1.1-0.9c-0.2-0.1-0.3-0.2-0.5-0.4l-0.1-0.1l-0.1-0.1c-0.1-0.1-0.2-0.1-0.2-0.1c-0.4-0.2-0.7-0.4-0.9-0.6
			c-0.3-0.2-0.6-0.5-0.9-0.7c-0.9-0.9-1.4-2-1.7-3.3c-0.1-0.4-0.1-0.9-0.1-1.3c0-0.5,0.2-1,0.4-1.4c0.4-0.8,1.1-1.4,2-1.9
			c0.4-0.2,0.8-0.3,1.2-0.4c0.9-0.2,1.7-0.1,2.5,0.3c0.7,0.3,1.3,0.9,1.6,1.5c0.3,0.6,0.4,1.1,0.2,1.6c-0.1,0.2-0.2,0.4-0.3,0.5
			c-0.3,0.2-0.5,0.2-0.8,0c-0.1-0.1-0.2-0.1-0.3-0.3l-0.2-0.2l-0.2-0.2c-0.3-0.2-0.6-0.4-0.9-0.5c-0.4-0.2-0.9-0.2-1.4-0.1
			c-0.6,0.1-0.9,0.4-1,0.8c-0.1,0.3-0.1,0.6,0,1c0.1,0.8,0.5,1.5,1.1,2c0.2,0.2,0.6,0.5,1.1,0.9l0.3,0.2l0.3,0.2
			c0.3,0.2,0.5,0.4,0.7,0.5c0.7,0.6,1.3,1.3,1.6,2.1c0.4,0.9,0.5,1.8,0.2,2.5C59.4,23.9,58.7,24.6,57.5,25z"/>
		<path fill="#FFFFFF" d="M67.9,10.4l0.2,0.1l0.2,0.1c0.1,0.1,0.2,0.2,0.3,0.3c0.2,0.3,0.2,0.7,0.1,1.3c0,0.2-0.1,0.4-0.2,0.7
			l-0.1,0.2l-0.1,0.2c0,0.1-0.1,0.2-0.1,0.3c-0.3,1-0.6,1.8-1,2.6c-0.5,1-1,1.8-1.6,2.5c-0.3,0.3-0.6,0.6-0.8,0.7
			c0.5,0.7,1.1,1.5,1.8,2.6c0.4,0.6,0.7,1.1,1,1.6l0.1,0.2l0.1,0.2c0.1,0.2,0.2,0.3,0.2,0.4c0.2,0.3,0.2,0.6,0.2,0.8l-0.2,0.1
			l-0.2,0.1c-0.1,0.1-0.3,0.1-0.4,0.1c-0.3,0.1-0.7-0.1-1-0.3c-0.1-0.1-0.3-0.2-0.4-0.4l-0.1-0.1l-0.1-0.1c-0.1-0.1-0.1-0.1-0.2-0.2
			c-1.1-0.9-2-1.9-2.8-2.8l-0.1,0.8c0,0.1,0,0.2,0,0.4l0,0.4c0,0.4,0,0.6-0.1,0.8c-0.1,0.7-0.2,1.1-0.4,1.4L62,25.3l-0.2-0.1
			c-0.2-0.1-0.3-0.2-0.3-0.3c-0.3-0.3-0.4-0.9-0.5-1.8c0-0.3-0.1-0.6-0.1-1.1l0-0.2l0-0.2c0-0.2,0-0.3,0-0.4
			c-0.2-2.9-0.2-5.5-0.2-7.9l0-0.5l0-0.5c0-0.4,0-0.7,0.1-0.9c0.1-0.7,0.3-1.2,0.7-1.4c0.1-0.1,0.3-0.2,0.4-0.2c0.6-0.2,1,0,1.3,0.6
			c0.2,0.5,0.4,1.2,0.3,2c0,1.3-0.1,2.9-0.3,4.6c0.3-0.3,0.7-0.7,1-1.2c0.4-0.5,0.8-1.1,1.2-1.7c0.2-0.3,0.4-0.6,0.6-1l0.6-1
			c0.1-0.1,0.1-0.2,0.2-0.4l0.1-0.2l0.1-0.2C67.4,10.8,67.6,10.5,67.9,10.4z"/>
		<path fill="#FFFFFF" d="M76.1,12.6c0.4,0.6,0.7,1.3,0.7,2.1c0.1,0.7,0,1.4-0.2,2.1c-0.1,0.4-0.3,0.7-0.5,1
			c-0.2,0.3-0.5,0.6-0.8,0.8c-0.5,0.4-1.1,0.7-1.8,0.8c0.2,0.3,0.5,0.8,0.8,1.3l0.4,0.7l0.4,0.7l0.8,1.4c0,0.1,0.1,0.2,0.2,0.3
			l0.1,0.2l0.1,0.2c0.2,0.3,0.2,0.5,0.2,0.8l-0.2,0.1l-0.2,0.1c-0.1,0.1-0.3,0.1-0.3,0.2c-0.3,0.1-0.6,0-1-0.3
			c-0.1-0.1-0.3-0.2-0.4-0.3l-0.1-0.1l-0.1-0.1c-0.1-0.1-0.1-0.1-0.2-0.2c-1-0.9-1.9-1.9-2.6-3l-0.1,1.1c0,0.1,0,0.2,0,0.3l0,0.4
			c0,0.3,0,0.6-0.1,0.7c-0.1,0.6-0.2,1-0.4,1.3l-0.2-0.1l-0.2-0.1c-0.2-0.1-0.3-0.2-0.3-0.2c-0.3-0.3-0.4-0.9-0.5-1.6
			c0-0.3-0.1-0.6-0.1-1l0-0.2l0-0.2c0-0.2,0-0.3,0-0.4c-0.2-2.6-0.2-5-0.2-7.2l0-0.4l0-0.4c0-0.3,0-0.6,0.1-0.8
			c0.1-0.6,0.3-1,0.5-1.3c-0.1-0.1-0.1-0.1-0.1-0.2c-0.1-0.3-0.2-0.6-0.1-0.8c0.1-0.2,0.3-0.4,0.7-0.6c0.3-0.1,0.7-0.2,1.2-0.2
			c0.4,0,0.9,0.1,1.3,0.3c0.7,0.3,1.3,0.6,1.8,1C75.3,11.5,75.8,12,76.1,12.6z M74.3,16.4c0.1-0.4,0.1-0.9,0-1.3
			c-0.1-0.4-0.3-0.8-0.6-1.2c-0.3-0.4-0.7-0.7-1.2-0.9c-0.1-0.1-0.3-0.2-0.5-0.2c0,0.2,0,0.5,0,0.7c0,1.3-0.1,2.9-0.3,4.7l0.5-0.2
			c0.4-0.1,0.6-0.2,0.8-0.3c0.2-0.1,0.4-0.2,0.6-0.3C74,17.1,74.2,16.8,74.3,16.4z"/>
		<path fill="#FFFFFF" d="M86.6,23.7l0.4,0l0.4,0c0.3,0,0.6,0,0.9,0c0.4,0,0.7,0.1,0.9,0.2c0,0-0.1,0.1-0.1,0.2L89,24.3
			c-0.1,0.2-0.2,0.3-0.3,0.4c-0.3,0.2-0.6,0.3-1,0.5c-0.5,0.2-1,0.2-1.5,0.3c-0.7,0.1-1.3,0-1.7-0.1c-0.1-0.1-0.3-0.1-0.4-0.2
			c-0.2-0.1-0.4-0.3-0.6-0.5c-0.1-0.2-0.2-0.3-0.3-0.5c-0.1-0.1-0.1-0.3-0.2-0.4c0-0.1-0.1-0.2-0.1-0.4c-0.1-0.3-0.1-0.6-0.2-1
			c-0.8,0.1-1.6,0.2-2.1,0.2l-0.1,0.4l-0.1,0.3c-0.1,0.3-0.1,0.5-0.2,0.7c-0.2,0.6-0.5,1.1-0.8,1.3c-0.1,0.1-0.3,0.2-0.4,0.2
			c-0.6,0.2-1-0.1-1.3-0.7c-0.2-0.6-0.2-1.3,0-2.2c0.4-1.9,1.3-4.1,2.5-6.5c0.2-0.4,0.5-0.9,0.8-1.4l0.4-0.7l0.4-0.7l0.2-0.3
			l0.2-0.3c0.1-0.3,0.3-0.5,0.4-0.6c0.3-0.5,0.6-0.9,0.9-1.1c0.3-0.2,0.8-0.5,1.3-0.6c0.5-0.2,1-0.2,1.4-0.2c0.3,0,0.6,0,0.9,0
			c0.3,0,0.7,0.1,0.9,0.2c0.7,0.2,1.1,0.6,1.3,1.1c0.1,0.3,0.1,0.6-0.1,0.8c-0.2,0.2-0.4,0.3-0.6,0.4c-0.2,0.1-0.5,0.1-0.7,0.2
			c-0.2,0-0.4,0.1-0.8,0.1l-0.3,0l-0.3,0c-0.2,0-0.4,0-0.6,0c-0.1,0-0.1,0-0.2,0.1l-0.2,0.8l0,0.4l-0.2,1.4L85.2,16
			c0.4,0.1,0.9,0.2,1.5,0.4l0.2,0.1l0.2,0.1c0.1,0,0.3,0.1,0.3,0.1c0.3,0.1,0.5,0.2,0.6,0.3c0.4,0.3,0.4,0.7,0,1.2
			c-0.3,0.3-0.7,0.6-1.3,0.6c-0.2,0-0.5,0-0.8,0l-0.4,0l-0.2,0l-0.2,0l-0.2,0l-0.1,0l0,0.5c0,0.1,0,0.2,0,0.3l0,0.3
			c-0.1,1-0.1,1.8-0.1,2.3v0.2v0.2c0,0.1,0,0.3,0,0.4c0,0.3,0.1,0.5,0.3,0.6c0.2,0.1,0.4,0.2,0.7,0.2c0.1,0,0.2,0,0.4,0l0.2,0
			L86.6,23.7z M82.6,18.7c0-0.4,0-0.9,0-1.4c0-0.4,0-0.9,0-1.4c-0.5,1.4-1,2.7-1.3,3.8c0.3,0.1,0.6,0.1,0.8,0.2l0.4,0.1v-0.7v-0.2
			v-0.1V18.7z"/>
		<path fill="#FFFFFF" d="M96.7,16.6c-0.4,1-0.8,1.7-1.2,2c-0.3,0.2-0.7,0.3-1.1,0.2c-0.3-0.1-0.6-0.3-0.8-0.7
			c-0.2-0.3-0.4-0.7-0.6-1.2c0-0.1-0.1-0.2-0.1-0.3l-0.1-0.2l-0.1-0.2c-0.1-0.3-0.2-0.6-0.2-0.7c-0.1,0.7-0.2,1.6-0.2,2.8l-0.1,1.4
			c0,0.5-0.1,1-0.1,1.4c0,0.1,0,0.3,0,0.5l0,0.3l0,0.3c0,0.5-0.1,0.9-0.1,1.2c-0.1,1-0.2,1.7-0.4,2.1l-0.2-0.1l-0.2-0.1
			c-0.2-0.1-0.3-0.2-0.4-0.4c-0.3-0.5-0.4-1.4-0.5-2.6c0-0.4-0.1-0.9-0.1-1.5v-0.4l0-0.3c0-0.3,0-0.5,0-0.6c-0.1-2-0.1-3.7-0.2-4.9
			l0-0.6v-0.2l0-0.1l0-0.3c0-0.3,0-0.5,0-0.7c0-0.3,0-0.6,0.1-0.8c0-0.2,0.1-0.3,0.1-0.5c0.1-0.2,0.2-0.4,0.3-0.6
			c0.4-0.6,0.9-0.9,1.5-0.9c0.7,0,1.2,0.3,1.6,0.8c0.3,0.4,0.5,0.8,0.7,1.3c0.1,0.2,0.2,0.5,0.2,0.7l0.1,0.4l0.1,0.4l0,0.1
			c0.1-0.2,0.2-0.5,0.3-0.7c0.2-0.4,0.4-0.7,0.5-1c0.2-0.3,0.4-0.6,0.6-0.9c0.2-0.3,0.4-0.5,0.6-0.6c0.7-0.6,1.4-0.6,2,0
			c0.6,0.5,0.9,1.2,1,2.1c0.1,0.8,0.1,1.9,0,3.1l-0.1,0.8l-0.1,0.8c-0.1,0.7-0.1,1.2-0.1,1.5c-0.1,0.9-0.1,1.7-0.2,2.6
			c0,0.1,0,0.3,0,0.5l0,0.3l0,0.3c0,0.5,0,0.9-0.1,1.2c-0.1,1-0.2,1.7-0.4,2.1l-0.2-0.1l-0.2-0.1c-0.2-0.1-0.3-0.2-0.3-0.4
			c-0.3-0.5-0.4-1.4-0.5-2.6c0-0.4-0.1-0.9-0.1-1.6l0-0.4l0-0.3c0-0.3,0-0.5,0-0.6c0-0.1,0-0.3,0-0.8c0-0.3,0-0.5,0-0.7
			c0-0.3,0-0.5,0-0.7c0-1.3-0.1-1.9-0.1-1.9c-0.1,0-0.1,0.1-0.1,0.2l0,0.1l0,0.1L96.9,16L96.7,16.6z"/>
		<path fill="#FFFFFF" d="M107.3,16.6c-0.4,1-0.8,1.7-1.2,2c-0.3,0.2-0.7,0.3-1.1,0.2c-0.3-0.1-0.6-0.3-0.8-0.7
			c-0.2-0.3-0.4-0.7-0.6-1.2c0-0.1-0.1-0.2-0.1-0.3l-0.1-0.2l-0.1-0.2c-0.1-0.3-0.2-0.6-0.2-0.7c-0.1,0.7-0.2,1.6-0.2,2.8l-0.1,1.4
			c0,0.5-0.1,1-0.1,1.4c0,0.1,0,0.3,0,0.5l0,0.3l0,0.3c0,0.5-0.1,0.9-0.1,1.2c-0.1,1-0.2,1.7-0.4,2.1l-0.2-0.1l-0.2-0.1
			c-0.2-0.1-0.3-0.2-0.4-0.4c-0.3-0.5-0.4-1.4-0.5-2.6c0-0.4-0.1-0.9-0.1-1.5v-0.4l0-0.3c0-0.3,0-0.5,0-0.6c-0.1-2-0.1-3.7-0.2-4.9
			l0-0.6v-0.2l0-0.1l0-0.3c0-0.3,0-0.5,0-0.7c0-0.3,0-0.6,0.1-0.8c0-0.2,0.1-0.3,0.1-0.5c0.1-0.2,0.2-0.4,0.3-0.6
			c0.4-0.6,0.9-0.9,1.5-0.9c0.7,0,1.2,0.3,1.6,0.8c0.3,0.4,0.5,0.8,0.7,1.3c0.1,0.2,0.2,0.5,0.2,0.7l0.1,0.4l0.1,0.4l0,0.1
			c0.1-0.2,0.2-0.5,0.3-0.7c0.2-0.4,0.4-0.7,0.5-1c0.2-0.3,0.4-0.6,0.6-0.9c0.2-0.3,0.4-0.5,0.6-0.6c0.7-0.6,1.4-0.6,2,0
			c0.6,0.5,0.9,1.2,1,2.1c0.1,0.8,0.1,1.9,0,3.1l-0.1,0.8l-0.1,0.8c-0.1,0.7-0.1,1.2-0.1,1.5c-0.1,0.9-0.1,1.7-0.2,2.6
			c0,0.1,0,0.3,0,0.5l0,0.3l0,0.3c0,0.5,0,0.9-0.1,1.2c-0.1,1-0.2,1.7-0.4,2.1l-0.2-0.1l-0.2-0.1c-0.2-0.1-0.3-0.2-0.3-0.4
			c-0.3-0.5-0.4-1.4-0.5-2.6c0-0.4-0.1-0.9-0.1-1.6l0-0.4l0-0.3c0-0.3,0-0.5,0-0.6c0-0.1,0-0.3,0-0.8c0-0.3,0-0.5,0-0.7
			c0-0.3,0-0.5,0-0.7c0-1.3-0.1-1.9-0.1-1.9c-0.1,0-0.1,0.1-0.1,0.2l0,0.1l0,0.1l-0.2,0.6L107.3,16.6z"/>
		<path fill="#FFFFFF" d="M115.8,23.6c0.5,0,0.9,0,1.1,0c0.4,0,0.7,0.1,0.9,0.2c0,0.1-0.1,0.1-0.1,0.2l-0.1,0.2
			c-0.1,0.2-0.2,0.3-0.4,0.4c-0.3,0.2-0.6,0.3-1,0.4c-0.7,0.2-1.3,0.3-1.8,0.3c-0.7,0-1.3-0.1-1.8-0.4c-0.5-0.4-0.9-1-1.1-1.8
			c-0.1-0.4-0.2-1-0.2-1.6c0-0.4,0-0.9,0-1.5v-1v-0.9l0-0.9c0-0.8,0.1-1.8,0.1-2.8l0-0.7l0-0.7c0-0.5,0.1-1,0.2-1.3
			c0.1-0.2,0.1-0.4,0.2-0.6c0.1-0.2,0.3-0.4,0.4-0.6c0.4-0.4,1-0.7,1.7-0.8c0.2,0,0.5,0,0.8-0.1c0.6,0,1.1,0,1.5,0.1
			c0.6,0.1,1,0.4,1.3,0.7c0.1,0.1,0.2,0.3,0.3,0.4c0.1,0.3,0.1,0.6-0.1,0.8c-0.2,0.2-0.4,0.3-0.8,0.4c-0.3,0.1-0.7,0.1-1.2,0.2
			l-0.7,0.1l-0.7,0.1l-0.1,0l0,0.1l0,0.2l0,0.1l0,0.1l-0.1,0.6l-0.1,0.7l-0.1,0.6l0,0.2l-0.1,0.8c0,0,0.3,0.1,0.9,0.2
			c0.2,0.1,0.4,0.1,0.6,0.2c0.1,0,0.2,0.1,0.2,0.1c0,0,0,0,0.1,0l0,0l0,0l0.2,0.1l0.2,0.1c0.1,0,0.3,0.1,0.4,0.1
			c0.3,0.1,0.5,0.3,0.5,0.5l0,0.2l0,0.2c0,0.2,0,0.3-0.1,0.3c-0.1,0.2-0.2,0.4-0.4,0.5c-0.1,0.1-0.3,0.1-0.6,0.2
			c-0.8,0.1-1.5,0.2-2,0.2l-0.1,0l-0.2,0l0,0.5c0,0.1,0,0.2,0,0.3l0,0.3c-0.1,1-0.1,1.8-0.1,2.3c0,0,0,0.1,0,0.2v0.2
			c0,0.1,0,0.3,0,0.4c0,0.3,0.1,0.5,0.2,0.6c0.1,0.1,0.3,0.1,0.5,0.1c0.1,0,0.2,0,0.3,0h0.1l0.1,0l0.6,0L115.8,23.6z"/>
		<path fill="#FFFFFF" d="M126,9.8c0.6-0.2,1,0,1.3,0.6c0.2,0.5,0.4,1.1,0.3,2c-0.1,1.6-0.2,3.7-0.4,6.4c-0.1,1.3-0.2,2.4-0.3,3.3
			c0,0.1,0,0.2,0,0.3l0,0.4c0,0.3-0.1,0.6-0.1,0.8c0.1,0.5,0.1,0.9-0.1,1.2c-0.1,0.2-0.2,0.3-0.3,0.4c-0.2,0.2-0.5,0.3-0.8,0.2
			c-0.2,0-0.4-0.1-0.7-0.3c-0.2-0.2-0.4-0.4-0.6-0.7l-0.1-0.1l-0.4-0.7c-0.8-1.7-1.6-4-2.4-6.9l-0.2-0.6c-0.1,0.8-0.1,1.8-0.2,2.9
			c-0.1,1.3-0.2,2.4-0.3,3.4c0,0.1,0,0.2,0,0.4l0,0.4c0,0.3,0,0.6-0.1,0.8c-0.1,0.6-0.2,1.1-0.4,1.4l-0.2-0.1l-0.2-0.1
			c-0.2-0.1-0.3-0.2-0.3-0.3c-0.3-0.3-0.4-0.9-0.5-1.8c0-0.3-0.1-0.6-0.1-1l0-0.2l0-0.2c0-0.2,0-0.3,0-0.4c-0.2-2.8-0.2-5.4-0.2-7.8
			l0-0.4l0-0.5c0-0.4,0-0.7,0.1-0.9c0.1-0.7,0.3-1.2,0.7-1.4c0.4-0.3,0.9-0.3,1.5,0c0.4,0.3,0.8,0.8,1.2,1.6
			c0.1,0.3,0.3,0.6,0.4,1.1l0.1,0.2l0.1,0.2c0.1,0.2,0.1,0.3,0.2,0.4c0.5,1.4,1.2,3.1,2,5.2c-0.1-2-0.1-3.8-0.1-5.6l0-0.4l0-0.5
			c0-0.3,0.1-0.6,0.1-0.9c0.1-0.7,0.3-1.1,0.7-1.4C125.7,10,125.8,9.9,126,9.8z"/>
		<path fill="#FFFFFF" d="M129.2,25c-0.3-0.4-0.5-0.9-0.6-1.7c0-0.2,0-0.6,0-1l0-0.2v-0.2c0-0.2,0-0.3,0-0.4
			c-0.2-2.7-0.2-5.2-0.2-7.5l0-0.4l0-0.4c0-0.3,0-0.5,0.1-0.7c0.1-0.6,0.2-1,0.4-1.3l0-0.1c0-0.2-0.1-0.3-0.1-0.5
			c-0.1-0.4,0-0.6,0.2-0.8c0.2-0.2,0.6-0.2,1.1-0.1c0.2,0,0.4,0.1,0.6,0.2c1.2,0.5,2.4,1.5,3.5,3c0.5,0.7,0.9,1.4,1.2,2.1
			c0.2,0.4,0.3,0.8,0.4,1.2c0.1,0.4,0.2,0.8,0.2,1.2c0.1,0.8,0.1,1.6-0.1,2.4c-0.2,1.3-0.7,2.4-1.5,3.3c-0.8,1-1.8,1.6-3,2
			c-0.2,0.1-0.4,0.1-0.6,0.1c-0.2,0-0.4,0.1-0.6,0.1C129.7,25.4,129.4,25.2,129.2,25z M130.4,22.6c0,0.1,0,0.2,0,0.3l0,0.4
			c0,0.3,0,0.6-0.1,0.8l0.3-0.2l0.3-0.2c0.3-0.2,0.5-0.3,0.7-0.4c0.2-0.1,0.3-0.2,0.5-0.3c0.2-0.1,0.3-0.2,0.4-0.3
			c0.2-0.2,0.4-0.5,0.5-0.7c0.3-0.5,0.5-1.2,0.6-1.9c0-0.2,0-0.4,0-0.5c0-0.2,0-0.4,0-0.5c0-0.3-0.1-0.7-0.1-1
			c0-0.2-0.1-0.3-0.1-0.5l-0.1-0.2c0-0.1,0-0.2-0.1-0.2c-0.1-0.3-0.3-0.6-0.4-0.9c-0.3-0.6-0.8-1.2-1.3-1.8l-0.2-0.2
			c-0.1,1.4-0.2,3.3-0.4,5.5C130.6,20.6,130.5,21.7,130.4,22.6z"/>
		<path fill="#FFFFFF" d="M141.3,23.6c0.5,0,0.9,0,1.1,0c0.4,0,0.7,0.1,0.9,0.2c0,0.1-0.1,0.1-0.1,0.2l-0.1,0.2
			c-0.1,0.2-0.2,0.3-0.4,0.4c-0.3,0.2-0.6,0.3-1,0.4c-0.7,0.2-1.3,0.3-1.8,0.3c-0.7,0-1.3-0.1-1.8-0.4c-0.5-0.4-0.9-1-1.1-1.8
			c-0.1-0.4-0.2-1-0.2-1.6c0-0.4,0-0.9,0-1.5v-1v-0.9l0-0.9c0-0.8,0.1-1.8,0.1-2.8l0-0.7l0-0.7c0-0.5,0.1-1,0.2-1.3
			c0.1-0.2,0.1-0.4,0.2-0.6c0.1-0.2,0.3-0.4,0.4-0.6c0.4-0.4,1-0.7,1.7-0.8c0.2,0,0.5,0,0.8-0.1c0.6,0,1.1,0,1.5,0.1
			c0.6,0.1,1,0.4,1.3,0.7c0.1,0.1,0.2,0.3,0.3,0.4c0.1,0.3,0.1,0.6-0.1,0.8c-0.2,0.2-0.4,0.3-0.8,0.4c-0.3,0.1-0.7,0.1-1.2,0.2
			l-0.7,0.1l-0.7,0.1l-0.1,0l0,0.1l0,0.2l0,0.1l0,0.1l-0.1,0.6l-0.1,0.7l-0.1,0.6l0,0.2l-0.1,0.8c0,0,0.3,0.1,0.9,0.2
			c0.2,0.1,0.4,0.1,0.6,0.2c0.1,0,0.2,0.1,0.2,0.1c0,0,0,0,0.1,0l0,0l0,0l0.2,0.1l0.2,0.1c0.1,0,0.3,0.1,0.4,0.1
			c0.3,0.1,0.5,0.3,0.5,0.5l0,0.2l0,0.2c0,0.2,0,0.3-0.1,0.3c-0.1,0.2-0.2,0.4-0.4,0.5c-0.1,0.1-0.3,0.1-0.6,0.2
			c-0.8,0.1-1.5,0.2-2,0.2l-0.1,0l-0.2,0l0,0.5c0,0.1,0,0.2,0,0.3l0,0.3c-0.1,1-0.1,1.8-0.1,2.3c0,0,0,0.1,0,0.2v0.2
			c0,0.1,0,0.3,0,0.4c0,0.3,0.1,0.5,0.2,0.6c0.1,0.1,0.3,0.1,0.5,0.1c0.1,0,0.2,0,0.3,0h0.1l0.1,0l0.6,0L141.3,23.6z"/>
		<path fill="#FFFFFF" d="M156.5,23.9c-0.9,1-1.8,1.5-2.9,1.5c-1.1,0-2.1-0.5-2.9-1.4c-0.4-0.4-0.7-0.9-1-1.5
			c-0.4-0.9-0.7-2-0.9-3.2c-0.1-1.1-0.1-2.1,0-3.2c0.2-1.2,0.4-2.3,0.9-3.2c0.3-0.6,0.6-1.1,0.9-1.5c0.4-0.5,0.9-0.9,1.4-1.2
			c0.3-0.1,0.5-0.2,0.7-0.3c0.9-0.3,1.8,0,2.5,0.7c0.4,0.3,0.7,0.8,0.9,1.3c0.2,0.4,0.3,0.8,0.3,1.2c-0.1,0-0.1-0.1-0.2-0.1
			l-0.2-0.1c-0.2-0.1-0.4-0.1-0.5-0.2c-0.1,0-0.2-0.1-0.3-0.2l-0.3-0.2c-0.2-0.2-0.4-0.3-0.6-0.4c-0.5-0.3-0.9-0.3-1.3-0.1
			c-0.1,0.1-0.3,0.2-0.4,0.3c-0.3,0.3-0.5,0.6-0.7,1c-0.4,0.8-0.7,1.8-0.8,2.9c-0.2,2.4,0.1,4.4,1.1,5.9c0.5,0.7,1,1,1.5,0.7
			c0.4-0.2,0.8-0.7,1.3-1.4c0.1-0.2,0.2-0.4,0.4-0.6l0.2-0.3l0.2-0.3c-0.1,0-0.3,0.1-0.4,0.1l-0.2,0l-0.2,0l-0.1,0l-0.1,0
			c-0.1,0-0.2,0-0.2,0c-0.2,0-0.4-0.2-0.6-0.5c-0.1-0.1-0.2-0.2-0.3-0.3c-0.1-0.1-0.2-0.3-0.3-0.4c-0.2-0.3-0.2-0.6-0.1-0.9
			c0.1-0.3,0.3-0.6,0.7-0.6c0.5-0.1,1.2-0.2,2.1-0.1l0.5,0l0.5,0c0.4,0,0.7,0,1,0c0.2,0,0.4,0.1,0.6,0.2l0.1,0.2l0.1,0.2
			c0,0.2,0.1,0.3,0.1,0.4c0,0.3-0.2,0.6-0.5,0.8c-0.1,0.1-0.2,0.1-0.3,0.2c-0.1,0-0.2,0.1-0.3,0.1c0.1,0.2,0.1,0.4,0.1,0.7
			c0,0.6,0,1.3-0.3,1.9c-0.1,0.4-0.3,0.7-0.5,1.1C157,23.2,156.7,23.6,156.5,23.9z"/>
		<path fill="#FFFFFF" d="M167.4,11c0.5,0.6,0.9,1.3,1.2,2.2c0.2,0.7,0.4,1.5,0.5,2.4c0.1,0.7,0.1,1.4,0.1,2.1
			c0,0.8-0.1,1.6-0.2,2.3c-0.1,0.7-0.3,1.4-0.6,2.1c-0.4,1.1-1.1,2-1.9,2.6c-1,0.7-2,0.9-3,0.6c-0.5-0.2-1-0.4-1.4-0.8
			c-0.3-0.3-0.6-0.7-0.9-1.1c-0.4-0.6-0.8-1.4-1.1-2.3c-0.4-1.4-0.6-3-0.5-4.7c0.1-1.7,0.5-3.2,1.1-4.3c0.4-0.7,0.8-1.3,1.4-1.7
			c0.3-0.2,0.6-0.4,0.8-0.5c0.3-0.1,0.6-0.1,0.8-0.1c0.3,0,0.5,0.1,0.7,0.3c0.1,0.1,0.2,0.3,0.2,0.4c0,0.1-0.1,0.2-0.1,0.4
			c0,0.1-0.1,0.2-0.2,0.3l-0.1,0.2c-0.1,0.1-0.1,0.2-0.1,0.2c-0.3,0.4-0.5,0.8-0.7,1.3c-0.2,0.6-0.4,1.2-0.6,1.9
			c-0.2,1-0.3,2-0.3,3.1c0,1.1,0.2,2.1,0.6,3c0.2,0.5,0.4,0.9,0.7,1.2c0.2,0.3,0.4,0.5,0.7,0.6c0.3,0.1,0.6,0.1,0.8-0.1
			c0.3-0.2,0.6-0.5,0.9-1c0.3-0.4,0.5-0.9,0.7-1.5c0.2-0.5,0.3-1.1,0.4-1.6c0.2-1.1,0.2-2.2,0.1-3.5c-0.1-1.2-0.4-2.2-0.8-3
			c-0.2-0.5-0.5-0.9-0.9-1.2c-0.3-0.2-0.6-0.4-1.1-0.6l0.1-0.1l0.1-0.1c0.1-0.1,0.2-0.1,0.2-0.2c0.2-0.1,0.5-0.2,0.8-0.1
			c0.3,0,0.6,0.1,0.9,0.3C166.8,10.4,167.1,10.7,167.4,11z"/>
		<path fill="#FFFFFF" d="M170.7,25c-0.3-0.4-0.5-0.9-0.6-1.7c0-0.2,0-0.6,0-1l0-0.2v-0.2c0-0.2,0-0.3,0-0.4
			c-0.2-2.7-0.2-5.2-0.2-7.5l0-0.4l0-0.4c0-0.3,0-0.5,0.1-0.7c0.1-0.6,0.2-1,0.4-1.3l0-0.1c0-0.2-0.1-0.3-0.1-0.5
			c-0.1-0.4,0-0.6,0.2-0.8c0.2-0.2,0.6-0.2,1.1-0.1c0.2,0,0.4,0.1,0.6,0.2c1.2,0.5,2.4,1.5,3.5,3c0.5,0.7,0.9,1.4,1.2,2.1
			c0.2,0.4,0.3,0.8,0.4,1.2c0.1,0.4,0.2,0.8,0.2,1.2c0.1,0.8,0.1,1.6-0.1,2.4c-0.2,1.3-0.7,2.4-1.5,3.3c-0.8,1-1.8,1.6-3,2
			c-0.2,0.1-0.4,0.1-0.6,0.1c-0.2,0-0.4,0.1-0.6,0.1C171.3,25.4,170.9,25.2,170.7,25z M172,22.6c0,0.1,0,0.2,0,0.3l0,0.4
			c0,0.3,0,0.6-0.1,0.8l0.3-0.2l0.3-0.2c0.3-0.2,0.5-0.3,0.7-0.4c0.2-0.1,0.3-0.2,0.5-0.3c0.2-0.1,0.3-0.2,0.4-0.3
			c0.2-0.2,0.4-0.5,0.5-0.7c0.3-0.5,0.5-1.2,0.6-1.9c0-0.2,0-0.4,0-0.5c0-0.2,0-0.4,0-0.5c0-0.3-0.1-0.7-0.1-1
			c0-0.2-0.1-0.3-0.1-0.5l-0.1-0.2c0-0.1,0-0.2-0.1-0.2c-0.1-0.3-0.3-0.6-0.4-0.9c-0.3-0.6-0.8-1.2-1.3-1.8l-0.2-0.2
			c-0.1,1.4-0.2,3.3-0.4,5.5C172.2,20.6,172.1,21.7,172,22.6z"/>
		<path fill="#FFFFFF" d="M182.8,23.6c0.5,0,0.9,0,1.1,0c0.4,0,0.7,0.1,0.9,0.2c0,0.1-0.1,0.1-0.1,0.2l-0.1,0.2
			c-0.1,0.2-0.2,0.3-0.4,0.4c-0.3,0.2-0.6,0.3-1,0.4c-0.7,0.2-1.3,0.3-1.8,0.3c-0.7,0-1.3-0.1-1.8-0.4c-0.5-0.4-0.9-1-1.1-1.8
			c-0.1-0.4-0.2-1-0.2-1.6c0-0.4,0-0.9,0-1.5v-1v-0.9l0-0.9c0-0.8,0.1-1.8,0.1-2.8l0-0.7l0-0.7c0-0.5,0.1-1,0.2-1.3
			c0.1-0.2,0.1-0.4,0.2-0.6c0.1-0.2,0.3-0.4,0.4-0.6c0.4-0.4,1-0.7,1.7-0.8c0.2,0,0.5,0,0.8-0.1c0.6,0,1.1,0,1.5,0.1
			c0.6,0.1,1,0.4,1.3,0.7c0.1,0.1,0.2,0.3,0.3,0.4c0.1,0.3,0.1,0.6-0.1,0.8c-0.2,0.2-0.4,0.3-0.8,0.4c-0.3,0.1-0.7,0.1-1.2,0.2
			l-0.7,0.1l-0.7,0.1l-0.1,0l0,0.1l0,0.2l0,0.1l0,0.1l-0.1,0.6l-0.1,0.7l-0.1,0.6l0,0.2l-0.1,0.8c0,0,0.3,0.1,0.9,0.2
			c0.2,0.1,0.4,0.1,0.6,0.2c0.1,0,0.2,0.1,0.2,0.1c0,0,0,0,0.1,0l0,0l0,0l0.2,0.1l0.2,0.1c0.1,0,0.3,0.1,0.4,0.1
			c0.3,0.1,0.5,0.3,0.5,0.5l0,0.2l0,0.2c0,0.2,0,0.3-0.1,0.3c-0.1,0.2-0.2,0.4-0.4,0.5c-0.1,0.1-0.3,0.1-0.6,0.2
			c-0.8,0.1-1.5,0.2-2,0.2l-0.1,0l-0.2,0l0,0.5c0,0.1,0,0.2,0,0.3l0,0.3c-0.1,1-0.1,1.8-0.1,2.3c0,0,0,0.1,0,0.2v0.2
			c0,0.1,0,0.3,0,0.4c0,0.3,0.1,0.5,0.2,0.6c0.1,0.1,0.3,0.1,0.5,0.1c0.1,0,0.2,0,0.3,0h0.1l0.1,0l0.6,0L182.8,23.6z"/>
		<path fill="#FFFFFF" d="M198.3,19c-0.1,1.3-0.2,2.5-0.3,3.4c0,0.1,0,0.2,0,0.4l0,0.4c0,0.4,0,0.6-0.1,0.8
			c-0.1,0.7-0.2,1.1-0.4,1.4l-0.2-0.1l-0.2-0.1c-0.2-0.1-0.3-0.2-0.4-0.3c-0.3-0.3-0.4-0.9-0.5-1.8c0-0.3-0.1-0.6-0.1-1.1l0-0.2
			v-0.2c0-0.2,0-0.3,0-0.4c-0.1-0.8-0.1-1.7-0.1-2.5c-1.1,0.1-2.2,0.2-3.2,0.1l-0.1,0l0,0.2c-0.1,1.3-0.2,2.5-0.3,3.4
			c0,0.1,0,0.2,0,0.4l0,0.4c0,0.4,0,0.6-0.1,0.8c-0.1,0.7-0.2,1.1-0.4,1.4l-0.2-0.1l-0.2-0.1c-0.2-0.1-0.3-0.2-0.3-0.3
			c-0.3-0.3-0.4-0.9-0.5-1.8c0-0.3-0.1-0.6-0.1-1.1l0-0.2l0-0.2c0-0.2,0-0.3,0-0.4c-0.2-2.9-0.2-5.5-0.2-7.9l0-0.5l0-0.5
			c0-0.4,0-0.7,0.1-0.9c0.1-0.7,0.3-1.2,0.7-1.4c0.1-0.1,0.3-0.2,0.4-0.2c0.6-0.2,1,0,1.3,0.6c0.2,0.5,0.4,1.2,0.3,2
			c0,1.1-0.1,2.3-0.2,3.6c0.6,0.1,1.4,0.2,2.3,0.4l0.7,0.1c0-1.1,0-2.2,0-3.2l0-0.5l0-0.5c0-0.4,0.1-0.7,0.1-0.9
			c0.1-0.7,0.3-1.2,0.7-1.4c0.1-0.1,0.3-0.2,0.4-0.2c0.6-0.2,1,0,1.3,0.6c0.2,0.5,0.4,1.2,0.3,2C198.7,14.1,198.5,16.3,198.3,19z"/>
		<path fill="#FFFFFF" d="M206.4,19.7l0,0.3l0,0.3c0,0.3,0.1,0.6,0.1,0.8c0.1,0.6,0.1,1.1,0.1,1.6c0.1,1.2,0,2.1-0.2,2.8
			c-0.1,0-0.1-0.1-0.2-0.2l-0.2-0.2c-0.2-0.1-0.3-0.3-0.4-0.5c-0.2-0.4-0.4-1.2-0.7-2.3l-0.1,0l-0.1,0c-0.1,0-0.2,0-0.2,0
			c-1,0.1-1.7,0.2-2.4,0.2h-0.2c-0.2,1.2-0.5,2-0.8,2.4c-0.1,0.2-0.3,0.3-0.4,0.4c-0.6,0.4-1,0-1.3-1.2c-0.2-1.1-0.2-2.4,0.1-4.1
			c0.3-1.6,0.6-3.4,1.1-5.3c0-0.2,0.1-0.3,0.1-0.6l0.1-0.6c0.1-0.5,0.2-0.9,0.3-1.2c0.2-0.9,0.5-1.6,0.9-2.1
			c0.1-0.1,0.1-0.1,0.1-0.2c0.1-0.1,0.1-0.1,0.2-0.2c0.8-0.7,1.6-0.5,2.1,0.5c0.2,0.4,0.4,0.8,0.5,1.4c0.1,0.2,0.1,0.4,0.2,0.7
			c0,0.2,0.1,0.4,0.1,0.6c0.1,0.5,0.2,1,0.3,1.7l0.1,0.8l0.1,0.8C206.1,17.7,206.3,18.8,206.4,19.7z M204,20.1
			c0.2,0.1,0.4,0.1,0.6,0.2l-0.1-0.7c-0.1-0.3-0.1-0.5-0.1-0.7c-0.1-0.5-0.2-0.9-0.2-1.2l-0.6-2.6l0,0.1c-0.3,1.4-0.5,2.6-0.7,3.7
			c0,0.3-0.1,0.6-0.2,0.9C203,19.8,203.5,19.9,204,20.1z"/>
		<path fill="#FFFFFF" d="M213.4,23.9l-0.1,0.2l-0.1,0.2c-0.1,0.2-0.2,0.3-0.3,0.4c-0.2,0.2-0.5,0.3-0.9,0.5
			c-0.4,0.1-0.9,0.2-1.3,0.2c-0.8,0-1.4-0.2-1.8-0.5c-0.4-0.3-0.7-0.7-0.9-1.3c-0.2-0.4-0.3-1-0.4-1.6c-0.1-0.5-0.2-1.1-0.2-1.8
			c0-0.3,0-0.6,0-0.9v-0.9l0-0.3v-0.3c0-0.2,0-0.4,0-0.5c0-0.4,0-0.8,0-1.2c0-0.8,0-1.6,0.1-2.3l0-0.5l0-0.6c0-0.4,0.1-0.8,0.1-1.1
			c0.2-0.8,0.4-1.3,0.8-1.6c0.1-0.1,0.3-0.2,0.4-0.2c0.6-0.2,1,0.1,1.3,0.7c0.2,0.6,0.3,1.4,0.2,2.4l-0.3,3.8l-0.1,1.2L210,19
			c-0.1,0.9-0.1,1.7-0.1,2.4v0.5c0,0.5,0.1,0.9,0.2,1.1c0.2,0.4,0.4,0.6,0.9,0.6c0.2,0,0.5,0,0.9,0.1l0.4,0c0.2,0,0.3,0,0.4,0
			C213,23.8,213.2,23.8,213.4,23.9z"/>
		<path fill="#FFFFFF" d="M220.1,23.9l-0.1,0.2l-0.1,0.2c-0.1,0.2-0.2,0.3-0.3,0.4c-0.2,0.2-0.5,0.3-0.9,0.5
			c-0.4,0.1-0.9,0.2-1.3,0.2c-0.8,0-1.4-0.2-1.8-0.5c-0.4-0.3-0.7-0.7-0.9-1.3c-0.2-0.4-0.3-1-0.4-1.6c-0.1-0.5-0.2-1.1-0.2-1.8
			c0-0.3,0-0.6,0-0.9v-0.9l0-0.3v-0.3c0-0.2,0-0.4,0-0.5c0-0.4,0-0.8,0-1.2c0-0.8,0-1.6,0.1-2.3l0-0.5l0-0.6c0-0.4,0.1-0.8,0.1-1.1
			c0.2-0.8,0.4-1.3,0.8-1.6c0.1-0.1,0.3-0.2,0.4-0.2c0.6-0.2,1,0.1,1.3,0.7c0.2,0.6,0.3,1.4,0.2,2.4l-0.3,3.8l-0.1,1.2l-0.1,1.2
			c-0.1,0.9-0.1,1.7-0.1,2.4v0.5c0,0.5,0.1,0.9,0.2,1.1c0.2,0.4,0.4,0.6,0.9,0.6c0.2,0,0.5,0,0.9,0.1l0.4,0c0.2,0,0.3,0,0.4,0
			C219.7,23.8,219.9,23.8,220.1,23.9z"/>
		<path fill="#FFFFFF" d="M227,11c0.5,0.6,0.9,1.3,1.2,2.2c0.2,0.7,0.4,1.5,0.5,2.4c0.1,0.7,0.1,1.4,0.1,2.1c0,0.8-0.1,1.6-0.2,2.3
			c-0.1,0.7-0.3,1.4-0.6,2.1c-0.4,1.1-1.1,2-1.9,2.6c-1,0.7-2,0.9-3,0.6c-0.5-0.2-1-0.4-1.4-0.8c-0.3-0.3-0.6-0.7-0.9-1.1
			c-0.4-0.6-0.8-1.4-1.1-2.3c-0.4-1.4-0.6-3-0.5-4.7c0.1-1.7,0.5-3.2,1.1-4.3c0.4-0.7,0.8-1.3,1.4-1.7c0.3-0.2,0.6-0.4,0.8-0.5
			c0.3-0.1,0.6-0.1,0.8-0.1c0.3,0,0.5,0.1,0.7,0.3c0.1,0.1,0.2,0.3,0.2,0.4c0,0.1-0.1,0.2-0.1,0.4c0,0.1-0.1,0.2-0.2,0.3l-0.1,0.2
			c-0.1,0.1-0.1,0.2-0.1,0.2c-0.3,0.4-0.5,0.8-0.7,1.3c-0.2,0.6-0.4,1.2-0.6,1.9c-0.2,1-0.3,2-0.3,3.1c0,1.1,0.2,2.1,0.6,3
			c0.2,0.5,0.4,0.9,0.7,1.2c0.2,0.3,0.4,0.5,0.7,0.6c0.3,0.1,0.6,0.1,0.8-0.1c0.3-0.2,0.6-0.5,0.9-1c0.3-0.4,0.5-0.9,0.7-1.5
			c0.2-0.5,0.3-1.1,0.4-1.6c0.2-1.1,0.2-2.2,0.1-3.5c-0.1-1.2-0.4-2.2-0.8-3c-0.2-0.5-0.5-0.9-0.9-1.2c-0.3-0.2-0.6-0.4-1.1-0.6
			l0.1-0.1l0.1-0.1c0.1-0.1,0.2-0.1,0.2-0.2c0.2-0.1,0.5-0.2,0.8-0.1c0.3,0,0.6,0.1,0.9,0.3C226.5,10.4,226.8,10.7,227,11z"/>
		<path fill="#FFFFFF" d="M238.7,10.4c0.2,0.5,0.3,1.4,0.3,2.7c0,0.4,0,0.9-0.1,1.6l0,0.4l0,0.3c0,0.3,0,0.5,0,0.6l-0.1,1.2l0,1.2
			c0,0.9,0,1.7,0,2.4c0,0.7,0,1.3,0,1.7c-0.1,0.6-0.2,1.2-0.4,1.6c-0.2,0.5-0.5,0.8-1,1.1c-0.5,0.3-0.9,0.4-1.4,0.3
			c-0.2,0-0.3-0.1-0.4-0.2c-0.5-0.3-0.8-0.7-1.1-1.3c-0.1-0.2-0.2-0.5-0.3-0.9l-0.1-0.4l-0.2,0.5c-0.2,0.3-0.3,0.6-0.5,0.9
			c-0.3,0.5-0.7,0.9-1.2,1.1c-0.6,0.2-1.1,0.1-1.5-0.3c-0.2-0.1-0.3-0.3-0.4-0.5c-0.2-0.4-0.4-0.9-0.5-1.5c-0.1-0.5-0.1-1.2-0.2-2.1
			c0-0.5,0-1.2,0-2v-1v-1c0-0.9,0-1.8,0-2.6c0-0.1,0-0.3,0-0.5v-0.3l0-0.3c0-0.5,0-0.9,0-1.2c0-1,0.1-1.7,0.2-2.1l0.2,0.1l0.2,0.1
			c0.2,0.1,0.3,0.2,0.4,0.4c0.3,0.5,0.5,1.3,0.7,2.6c0.1,0.4,0.1,0.9,0.2,1.6l0,0.4l0,0.3c0,0.3,0.1,0.5,0.1,0.6l0.5,4.1l0.1-0.4
			l0.4-1.4l0.2-0.5c0.1-0.2,0.1-0.4,0.2-0.5c0.2-0.4,0.4-0.6,0.6-0.9c0.1-0.1,0.3-0.2,0.5-0.2c0.6-0.1,1.1,0.1,1.4,0.8
			c0.2,0.3,0.3,0.7,0.5,1.2l0.2,0.7l0.2,0.6l0-0.3c0.1-0.8,0.2-1.7,0.3-2.5c0.1-0.9,0.3-1.7,0.4-2.5c0-0.1,0-0.3,0.1-0.5l0-0.3
			l0-0.3c0.1-0.5,0.1-0.9,0.2-1.2c0.2-1,0.3-1.6,0.6-2.1l0.2,0.2l0.2,0.2C238.6,10.1,238.7,10.2,238.7,10.4z"/>
		<path fill="#FFFFFF" d="M244.3,23.6c0.5,0,0.9,0,1.1,0c0.4,0,0.7,0.1,0.9,0.2c0,0.1-0.1,0.1-0.1,0.2l-0.1,0.2
			c-0.1,0.2-0.2,0.3-0.4,0.4c-0.3,0.2-0.6,0.3-1,0.4c-0.7,0.2-1.3,0.3-1.8,0.3c-0.7,0-1.3-0.1-1.8-0.4c-0.5-0.4-0.9-1-1.1-1.8
			c-0.1-0.4-0.2-1-0.2-1.6c0-0.4,0-0.9,0-1.5v-1v-0.9l0-0.9c0-0.8,0.1-1.8,0.1-2.8l0-0.7l0-0.7c0-0.5,0.1-1,0.2-1.3
			c0.1-0.2,0.1-0.4,0.2-0.6c0.1-0.2,0.3-0.4,0.4-0.6c0.4-0.4,1-0.7,1.7-0.8c0.2,0,0.5,0,0.8-0.1c0.6,0,1.1,0,1.5,0.1
			c0.6,0.1,1,0.4,1.3,0.7c0.1,0.1,0.2,0.3,0.3,0.4c0.1,0.3,0.1,0.6-0.1,0.8c-0.2,0.2-0.4,0.3-0.8,0.4c-0.3,0.1-0.7,0.1-1.2,0.2
			l-0.7,0.1l-0.7,0.1l-0.1,0l0,0.1l0,0.2l0,0.1l0,0.1l-0.1,0.6l-0.1,0.7l-0.1,0.6l0,0.2l-0.1,0.8c0,0,0.3,0.1,0.9,0.2
			c0.2,0.1,0.4,0.1,0.6,0.2c0.1,0,0.2,0.1,0.2,0.1c0,0,0,0,0.1,0l0,0l0,0l0.2,0.1l0.2,0.1c0.1,0,0.3,0.1,0.4,0.1
			c0.3,0.1,0.5,0.3,0.5,0.5l0,0.2l0,0.2c0,0.2,0,0.3-0.1,0.3c-0.1,0.2-0.2,0.4-0.4,0.5c-0.1,0.1-0.3,0.1-0.6,0.2
			c-0.8,0.1-1.5,0.2-2,0.2l-0.1,0l-0.2,0l0,0.5c0,0.1,0,0.2,0,0.3l0,0.3c-0.1,1-0.1,1.8-0.1,2.3c0,0,0,0.1,0,0.2v0.2
			c0,0.1,0,0.3,0,0.4c0,0.3,0.1,0.5,0.2,0.6c0.1,0.1,0.3,0.1,0.5,0.1c0.1,0,0.2,0,0.3,0h0.1l0.1,0l0.6,0L244.3,23.6z"/>
		<path fill="#FFFFFF" d="M251.7,23.6c0.5,0,0.9,0,1.1,0c0.4,0,0.7,0.1,0.9,0.2c0,0.1-0.1,0.1-0.1,0.2l-0.1,0.2
			c-0.1,0.2-0.2,0.3-0.4,0.4c-0.3,0.2-0.6,0.3-1,0.4c-0.7,0.2-1.3,0.3-1.8,0.3c-0.7,0-1.3-0.1-1.8-0.4c-0.5-0.4-0.9-1-1.1-1.8
			c-0.1-0.4-0.2-1-0.2-1.6c0-0.4,0-0.9,0-1.5v-1v-0.9l0-0.9c0-0.8,0.1-1.8,0.1-2.8l0-0.7l0-0.7c0-0.5,0.1-1,0.2-1.3
			c0.1-0.2,0.1-0.4,0.2-0.6c0.1-0.2,0.3-0.4,0.4-0.6c0.4-0.4,1-0.7,1.7-0.8c0.2,0,0.5,0,0.8-0.1c0.6,0,1.1,0,1.5,0.1
			c0.6,0.1,1,0.4,1.3,0.7c0.1,0.1,0.2,0.3,0.3,0.4c0.1,0.3,0.1,0.6-0.1,0.8c-0.2,0.2-0.4,0.3-0.8,0.4c-0.3,0.1-0.7,0.1-1.2,0.2
			l-0.7,0.1l-0.7,0.1l-0.1,0l0,0.1l0,0.2l0,0.1l0,0.1l-0.1,0.6l-0.1,0.7l-0.1,0.6l0,0.2l-0.1,0.8c0,0,0.3,0.1,0.9,0.2
			c0.2,0.1,0.4,0.1,0.6,0.2c0.1,0,0.2,0.1,0.2,0.1c0,0,0,0,0.1,0l0,0l0,0l0.2,0.1l0.2,0.1c0.1,0,0.3,0.1,0.4,0.1
			c0.3,0.1,0.5,0.3,0.5,0.5l0,0.2l0,0.2c0,0.2,0,0.3-0.1,0.3c-0.1,0.2-0.2,0.4-0.4,0.5c-0.1,0.1-0.3,0.1-0.6,0.2
			c-0.8,0.1-1.5,0.2-2,0.2l-0.1,0l-0.2,0l0,0.5c0,0.1,0,0.2,0,0.3l0,0.3c-0.1,1-0.1,1.8-0.1,2.3c0,0,0,0.1,0,0.2v0.2
			c0,0.1,0,0.3,0,0.4c0,0.3,0.1,0.5,0.2,0.6c0.1,0.1,0.3,0.1,0.5,0.1c0.1,0,0.2,0,0.3,0h0.1l0.1,0l0.6,0L251.7,23.6z"/>
		<path fill="#FFFFFF" d="M261.9,9.8c0.6-0.2,1,0,1.3,0.6c0.2,0.5,0.4,1.1,0.3,2c-0.1,1.6-0.2,3.7-0.4,6.4c-0.1,1.3-0.2,2.4-0.3,3.3
			c0,0.1,0,0.2,0,0.3l0,0.4c0,0.3-0.1,0.6-0.1,0.8c0.1,0.5,0.1,0.9-0.1,1.2c-0.1,0.2-0.2,0.3-0.3,0.4c-0.2,0.2-0.5,0.3-0.8,0.2
			c-0.2,0-0.4-0.1-0.7-0.3c-0.2-0.2-0.4-0.4-0.6-0.7l-0.1-0.1l-0.4-0.7c-0.8-1.7-1.6-4-2.4-6.9l-0.2-0.6c-0.1,0.8-0.1,1.8-0.2,2.9
			c-0.1,1.3-0.2,2.4-0.3,3.4c0,0.1,0,0.2,0,0.4l0,0.4c0,0.3,0,0.6-0.1,0.8c-0.1,0.6-0.2,1.1-0.4,1.4l-0.2-0.1l-0.2-0.1
			c-0.2-0.1-0.3-0.2-0.3-0.3c-0.3-0.3-0.4-0.9-0.5-1.8c0-0.3-0.1-0.6-0.1-1l0-0.2l0-0.2c0-0.2,0-0.3,0-0.4c-0.2-2.8-0.2-5.4-0.2-7.8
			l0-0.4l0-0.5c0-0.4,0-0.7,0.1-0.9c0.1-0.7,0.3-1.2,0.7-1.4c0.4-0.3,0.9-0.3,1.5,0c0.4,0.3,0.8,0.8,1.2,1.6
			c0.1,0.3,0.3,0.6,0.4,1.1l0.1,0.2l0.1,0.2c0.1,0.2,0.1,0.3,0.2,0.4c0.5,1.4,1.2,3.1,2,5.2c-0.1-2-0.1-3.8-0.1-5.6l0-0.4l0-0.5
			c0-0.3,0.1-0.6,0.1-0.9c0.1-0.7,0.3-1.1,0.7-1.4C261.6,10,261.7,9.9,261.9,9.8z"/>
		<path fill="#FFFFFF" d="M275.3,10.4c1.1,0.2,1.6,0.4,1.5,0.6l0,0.2l0,0.2c0,0.2-0.1,0.3-0.1,0.3c-0.2,0.3-0.5,0.4-0.9,0.5
			c-0.1,0-0.3,0.1-0.5,0.1l-0.2,0c-0.1,0-0.2,0-0.2,0l-0.9,0.1c0,0.2,0,0.4,0,0.6c-0.1,1.6-0.2,3.7-0.4,6.3
			c-0.1,1.3-0.2,2.3-0.3,3.3c0,0.1,0,0.2,0,0.3l0,0.4c0,0.3-0.1,0.6-0.1,0.8c-0.1,0.6-0.2,1.1-0.4,1.3l-0.2-0.1l-0.2-0.1
			c-0.2-0.1-0.3-0.2-0.4-0.3c-0.3-0.3-0.4-0.9-0.5-1.7c0-0.3-0.1-0.6-0.1-1l0-0.2l0-0.2c0-0.2,0-0.3,0-0.4c-0.2-2.7-0.2-5.2-0.2-7.5
			l0-0.3l0-0.3c0-0.3,0-0.5,0-0.7l-0.3,0l-0.2,0l-0.2,0c-0.2,0-0.3-0.1-0.5-0.1c-0.3-0.1-0.6-0.3-0.7-0.7c-0.1-0.1-0.1-0.2-0.1-0.4
			c-0.1-0.6,0-1,0.3-1.3c0.2-0.2,0.6-0.3,1-0.3c0.8,0.1,2,0.2,3.3,0.4c0,0,0.1,0,0.2,0l0.1,0l0.1,0c0.1,0,0.2,0,0.2,0
			C274.7,10.2,275,10.3,275.3,10.4z"/>
		<path fill="#FFFFFF" d="M278.8,9.7c0.6-0.2,1,0,1.3,0.6c0.2,0.5,0.4,1.2,0.3,2c-0.1,1.7-0.2,3.9-0.4,6.6c-0.1,1.3-0.2,2.5-0.3,3.4
			c0,0.1,0,0.2,0,0.4l0,0.4c0,0.4,0,0.6-0.1,0.8c-0.1,0.7-0.2,1.1-0.4,1.4l-0.2-0.1l-0.2-0.1c-0.2-0.1-0.3-0.2-0.3-0.3
			c-0.3-0.3-0.4-0.9-0.5-1.8c0-0.3-0.1-0.6-0.1-1.1l0-0.2l0-0.2c0-0.2,0-0.3,0-0.4c-0.2-2.9-0.2-5.5-0.2-7.9l0-0.5l0-0.5
			c0-0.4,0-0.7,0.1-0.9c0.1-0.7,0.3-1.2,0.7-1.4C278.5,9.9,278.6,9.8,278.8,9.7z"/>
		<path fill="#FFFFFF" d="M287.1,23.9l-0.1,0.2l-0.1,0.2c-0.1,0.2-0.2,0.3-0.3,0.4c-0.2,0.2-0.5,0.3-0.9,0.5
			c-0.4,0.1-0.9,0.2-1.3,0.2c-0.8,0-1.4-0.2-1.8-0.5c-0.4-0.3-0.7-0.7-0.9-1.3c-0.2-0.4-0.3-1-0.4-1.6c-0.1-0.5-0.2-1.1-0.2-1.8
			c0-0.3,0-0.6,0-0.9v-0.9l0-0.3v-0.3c0-0.2,0-0.4,0-0.5c0-0.4,0-0.8,0-1.2c0-0.8,0-1.6,0.1-2.3l0-0.5l0-0.6c0-0.4,0.1-0.8,0.1-1.1
			c0.2-0.8,0.4-1.3,0.8-1.6c0.1-0.1,0.3-0.2,0.4-0.2c0.6-0.2,1,0.1,1.3,0.7c0.2,0.6,0.3,1.4,0.2,2.4l-0.3,3.8l-0.1,1.2l-0.1,1.2
			c-0.1,0.9-0.1,1.7-0.1,2.4v0.5c0,0.5,0.1,0.9,0.2,1.1c0.2,0.4,0.4,0.6,0.9,0.6c0.2,0,0.5,0,0.9,0.1l0.4,0c0.2,0,0.3,0,0.4,0
			C286.7,23.8,286.9,23.8,287.1,23.9z"/>
		<path fill="#FFFFFF" d="M295.1,19.2c0.3,0.4,0.6,0.9,0.6,1.4c0.1,0.5,0.1,1-0.1,1.5c-0.1,0.4-0.4,0.9-0.7,1.2
			c-0.3,0.3-0.6,0.6-0.9,0.8c-0.6,0.4-1.2,0.7-2,0.9c-0.7,0.2-1.4,0.3-1.9,0.3c-1,0-1.7-0.5-2-1.5c-0.1-0.3-0.2-0.8-0.2-1.3
			c0-0.2,0-0.4,0-0.7l0-0.3l0-0.3c-0.2-2.6-0.2-5-0.2-7.2l0-0.4l0-0.4c0-0.3,0-0.6,0.1-0.8c0.1-0.6,0.3-1,0.6-1.3
			c-0.1-0.3-0.2-0.6-0.1-0.8c0.1-0.2,0.3-0.4,0.6-0.5c0.7-0.3,1.5-0.3,2.4,0.1c0.6,0.2,1.2,0.5,1.8,0.9c0.6,0.4,1.1,0.9,1.5,1.5
			c0.4,0.6,0.7,1.3,0.8,2c0.1,0.7,0,1.4-0.2,2.1c-0.1,0.4-0.3,0.7-0.5,1c-0.1,0.1-0.2,0.2-0.4,0.4l-0.2,0.2l-0.2,0.2l0.3,0.2
			l0.3,0.2C294.8,18.8,295,19,295.1,19.2z M293.4,21c0-0.1,0-0.2,0-0.3c-0.1-0.2-0.3-0.5-0.7-0.7c-0.3-0.2-0.7-0.4-1.2-0.6
			c-0.2-0.1-0.4-0.1-0.6-0.2l-0.3-0.1l-0.3-0.1l0,0.1c-0.1,1.2-0.2,2.2-0.3,3.1c0,0.1,0,0.3,0,0.4c0.2-0.1,0.5-0.1,0.7-0.2
			c0.4-0.1,0.8-0.2,1.2-0.3c0.4-0.1,0.7-0.3,1-0.5c0.3-0.2,0.5-0.4,0.6-0.5C293.3,21.2,293.3,21.1,293.4,21z M290.6,12.5
			c0,0.2,0,0.4,0,0.7c0,1.2-0.1,2.7-0.3,4.3l0.3-0.1l0.3-0.1c0.4-0.1,0.7-0.2,0.8-0.3c0.5-0.2,0.8-0.5,1.1-0.9
			c0.2-0.4,0.3-0.9,0.1-1.4c-0.1-0.4-0.3-0.7-0.6-1c-0.3-0.3-0.7-0.6-1.2-0.8C291,12.7,290.8,12.6,290.6,12.5z"/>
		<path fill="#FFFFFF" d="M297.7,23.1c-0.2-0.3-0.3-0.7-0.4-1.1c-0.1-0.3-0.2-0.7-0.3-1.1c-0.1-0.6-0.3-1.3-0.4-2
			c-0.1-0.6-0.1-1.3-0.2-2c-0.1-1.4-0.1-2.7,0-3.7c0.1-0.6,0.1-1.2,0.2-1.7c0.1-0.5,0.3-0.9,0.5-1.2c0.1-0.2,0.3-0.3,0.4-0.4
			c0.3-0.2,0.6-0.2,0.8,0c0.3,0.3,0.5,0.7,0.6,1.4c0,0.2,0.1,0.5,0.1,0.8c0,0.1,0,0.2,0,0.4l0,0.2l0,0.2c0,0.6,0.1,1.3,0.1,2.1
			c0,1.2,0.1,2.2,0.1,3.1c0.1,1.2,0.2,2.2,0.4,2.9c0.1,0.2,0.1,0.4,0.2,0.7c0.1,0.2,0.1,0.3,0.2,0.5c0.1,0.2,0.2,0.3,0.3,0.4
			c0.3,0.3,0.6,0.3,0.9,0c0.3-0.3,0.6-0.7,0.7-1.4c0.1-0.2,0.1-0.5,0.2-0.8l0-0.2l0-0.2c0-0.1,0.1-0.3,0.1-0.4
			c0.1-0.3,0.1-0.5,0.2-0.8c0.2-0.9,0.3-2,0.5-3.3c0-0.4,0.1-0.8,0.1-1.4l0.1-0.8l0.1-0.8c0.1-1.3,0.2-2.3,0.4-2.8
			c0.1,0,0.1,0.1,0.2,0.2l0.2,0.2c0.2,0.2,0.3,0.3,0.4,0.5c0.3,0.7,0.5,1.9,0.5,3.5c0,0.6,0,1.3,0,2.1c0,0.6-0.1,1.2-0.1,1.8
			c-0.1,0.7-0.1,1.4-0.2,2c-0.1,0.8-0.3,1.5-0.4,2.1c-0.1,0.4-0.3,0.7-0.4,1.1c-0.6,1.2-1.3,1.9-2.3,2.1c-0.6,0.1-1.2,0.1-1.8-0.2
			c-0.7-0.3-1.3-0.8-1.7-1.5C297.9,23.5,297.8,23.3,297.7,23.1z"/>
		<path fill="#FFFFFF" d="M306.6,25c-0.3-0.4-0.5-0.9-0.6-1.7c0-0.2,0-0.6,0-1l0-0.2v-0.2c0-0.2,0-0.3,0-0.4
			c-0.2-2.7-0.2-5.2-0.2-7.5l0-0.4l0-0.4c0-0.3,0-0.5,0.1-0.7c0.1-0.6,0.2-1,0.4-1.3l0-0.1c0-0.2-0.1-0.3-0.1-0.5
			c-0.1-0.4,0-0.6,0.2-0.8c0.2-0.2,0.6-0.2,1.1-0.1c0.2,0,0.4,0.1,0.6,0.2c1.2,0.5,2.4,1.5,3.5,3c0.5,0.7,0.9,1.4,1.2,2.1
			c0.2,0.4,0.3,0.8,0.4,1.2c0.1,0.4,0.2,0.8,0.2,1.2c0.1,0.8,0.1,1.6-0.1,2.4c-0.2,1.3-0.7,2.4-1.5,3.3c-0.8,1-1.8,1.6-3,2
			c-0.2,0.1-0.4,0.1-0.6,0.1c-0.2,0-0.4,0.1-0.6,0.1C307.2,25.4,306.9,25.2,306.6,25z M307.9,22.6c0,0.1,0,0.2,0,0.3l0,0.4
			c0,0.3,0,0.6-0.1,0.8l0.3-0.2l0.3-0.2c0.3-0.2,0.5-0.3,0.7-0.4c0.2-0.1,0.3-0.2,0.5-0.3c0.2-0.1,0.3-0.2,0.4-0.3
			c0.2-0.2,0.4-0.5,0.5-0.7c0.3-0.5,0.5-1.2,0.6-1.9c0-0.2,0-0.4,0-0.5c0-0.2,0-0.4,0-0.5c0-0.3-0.1-0.7-0.1-1
			c0-0.2-0.1-0.3-0.1-0.5l-0.1-0.2c0-0.1,0-0.2-0.1-0.2c-0.1-0.3-0.3-0.6-0.4-0.9c-0.3-0.6-0.8-1.2-1.3-1.8l-0.2-0.2
			c-0.1,1.4-0.2,3.3-0.4,5.5C308.1,20.6,308,21.7,307.9,22.6z"/>
	</g>
</g>
</svg>
