<?xml version="1.0" encoding="UTF-8" standalone="no"?>
<svg width="123px" height="100px" viewBox="0 0 123 100" version="1.1" xmlns="http://www.w3.org/2000/svg" xmlns:xlink="http://www.w3.org/1999/xlink" xmlns:sketch="http://www.bohemiancoding.com/sketch/ns">
    <!-- Generator: Sketch 3.3.2 (12043) - http://www.bohemiancoding.com/sketch -->
    <title>truck</title>
    <g fill-rule="evenodd">
        <g>
            <path d="M41.2804878,81.8902439 C41.2804878,79.4512195 40.3658537,77.3170732 38.597561,75.5487805 C36.8292683,73.7804878 34.695122,72.8658537 32.2560976,72.8658537 C29.8170732,72.8658537 27.6829268,73.7804878 25.9146341,75.5487805 C24.1463415,77.3170732 23.2317073,79.4512195 23.2317073,81.8902439 C23.2317073,84.3292683 24.1463415,86.4634146 25.9146341,88.2317073 C27.6829268,90 29.8170732,90.9146341 32.2560976,90.9146341 C34.695122,90.9146341 36.8292683,90 38.597561,88.2317073 C40.3658537,86.4634146 41.2804878,84.3292683 41.2804878,81.8902439 L41.2804878,81.8902439 Z M14.1463415,45.7926829 L41.2195122,45.7926829 L41.2195122,27.7439024 L30.0609756,27.7439024 C29.4512195,27.7439024 28.902439,27.9268293 28.5365854,28.3536585 L14.7560976,42.1341463 C14.3292683,42.5609756 14.1463415,43.0487805 14.1463415,43.6585366 L14.1463415,45.7926829 L14.1463415,45.7926829 Z M104.512195,81.8902439 C104.512195,79.4512195 103.597561,77.3170732 101.829268,75.5487805 C100.060976,73.7804878 97.9268293,72.8658537 95.4878049,72.8658537 C93.0487805,72.8658537 90.9146341,73.7804878 89.1463415,75.5487805 C87.3780488,77.3170732 86.4634146,79.4512195 86.4634146,81.8902439 C86.4634146,84.3292683 87.3780488,86.4634146 89.1463415,88.2317073 C90.9146341,90 93.0487805,90.9146341 95.4878049,90.9146341 C97.9268293,90.9146341 100.060976,90 101.829268,88.2317073 C103.597561,86.4634146 104.512195,84.3292683 104.512195,81.8902439 L104.512195,81.8902439 Z M122.560976,5.12195122 L122.560976,77.3780488 C122.560976,78.1097561 122.439024,78.7195122 122.256098,79.2682927 C122.073171,79.8170732 121.768293,80.2439024 121.280488,80.5487805 C120.853659,80.8536585 120.426829,81.1585366 120.121951,81.3414634 C119.817073,81.5243902 119.268293,81.7073171 118.47561,81.7682927 C117.682927,81.8292683 117.195122,81.8902439 116.890244,81.8902439 L115.060976,81.8902439 C114.146341,81.8902439 113.597561,81.8292683 113.47561,81.8292683 C113.47561,86.8292683 111.707317,91.097561 108.170732,94.5731707 C104.634146,98.0487805 100.365854,99.8780488 95.4268293,99.8780488 C90.4878049,99.8780488 86.1585366,98.1097561 82.6829268,94.5731707 C79.1463415,91.0365854 77.3780488,86.7682927 77.3780488,81.8292683 L50.304878,81.8292683 C50.304878,86.8292683 48.5365854,91.097561 45,94.5731707 C41.4634146,98.1097561 37.195122,99.8780488 32.2560976,99.8780488 C27.3170732,99.8780488 22.9878049,98.1097561 19.5121951,94.5731707 C15.9756098,91.0365854 14.2073171,86.7682927 14.2073171,81.8292683 L9.69512195,81.8292683 C9.57317073,81.8292683 9.02439024,81.8292683 8.1097561,81.8902439 L6.2804878,81.8902439 C5.97560976,81.8902439 5.48780488,81.8292683 4.69512195,81.7682927 C3.90243902,81.7073171 3.35365854,81.5853659 3.04878049,81.3414634 C2.74390244,81.097561 2.31707317,80.8536585 1.8902439,80.5487805 C1.46341463,80.2439024 1.15853659,79.8170732 0.914634146,79.2682927 C0.731707317,78.7195122 0.609756098,78.1097561 0.609756098,77.3780488 C0.609756098,76.1585366 1.03658537,75.1219512 1.95121951,74.2073171 C2.86585366,73.2926829 3.90243902,72.8658537 5.12195122,72.8658537 L5.12195122,50.304878 C5.12195122,49.9390244 5.12195122,49.0853659 5.06097561,47.804878 L5.06097561,45.1219512 C5.06097561,44.6341463 5.12195122,43.7804878 5.24390244,42.6829268 C5.36585366,41.5853659 5.48780488,40.7317073 5.73170732,40.0609756 C5.91463415,39.4512195 6.2804878,38.7195122 6.70731707,37.9268293 C7.13414634,37.1341463 7.68292683,36.402439 8.29268293,35.7926829 L22.2560976,21.8292683 C23.1707317,20.9146341 24.3292683,20.1829268 25.7926829,19.5731707 C27.2560976,18.9634146 28.6585366,18.6585366 29.9390244,18.6585366 L41.2195122,18.6585366 L41.2195122,5.12195122 C41.2195122,3.90243902 41.6463415,2.86585366 42.5609756,1.95121951 C43.4756098,1.03658537 44.5121951,0.609756098 45.7317073,0.609756098 L117.987805,0.609756098 C119.207317,0.609756098 120.243902,1.03658537 121.158537,1.95121951 C122.134146,2.86585366 122.560976,3.90243902 122.560976,5.12195122 L122.560976,5.12195122 Z" id="Shape" sketch:type="MSShapeGroup"></path>
        </g>
    </g>
</svg>