<?xml version="1.0" encoding="UTF-8" standalone="no"?>
<svg width="51px" height="50px" viewBox="0 0 51 50" version="1.1" xmlns="http://www.w3.org/2000/svg" xmlns:xlink="http://www.w3.org/1999/xlink" xmlns:sketch="http://www.bohemiancoding.com/sketch/ns">
    <!-- Generator: Sketch 3.3.2 (12043) - http://www.bohemiancoding.com/sketch -->
    <title>twitter</title>
    <g fill-rule="evenodd">
            <g id="Group" sketch:type="MSShapeGroup">
                <path d="M25.0224609,50 C38.7509766,50 50,38.7509766 50,25.0224609 C50,11.2484375 38.7509766,0 25.0224609,0 C11.2484375,0 0,11.2484375 0,25.0224609 C0,38.7509766 11.2484375,50 25.0224609,50 L25.0224609,50 L25.0224609,50 Z" id="Shape" fill="#1EBEF0"></path>
                <path d="M27.0151367,13.4186523 C26.1287109,14.0388672 25.4650391,14.9245117 24.9775391,15.8987305 L24.7563477,16.474707 C24.6236328,16.8728516 24.534375,17.271875 24.4901367,17.6701172 C24.4458984,17.8913086 24.4458984,18.069043 24.4016602,18.2460938 L24.4016602,18.6000977 L24.4458984,19.1760742 L24.534375,19.9290039 L24.4901367,19.9290039 L24.2246094,19.9290039 L24.0475586,19.9290039 C21.8772461,19.8847656 19.7519531,19.3972656 17.8913086,18.5558594 L16.7844727,18.0249023 C16.5632813,17.9356445 16.3862305,17.8029297 16.1642578,17.6702148 C14.9246094,16.9615234 13.8177734,16.031543 12.8427734,15.0131836 C12.2233398,14.3487305 11.6473633,13.6400391 11.1599609,12.8871094 C10.6289063,13.9063477 10.3185547,15.1016602 10.3185547,16.3420898 C10.3185547,16.7845703 10.362793,17.2277344 10.4512695,17.6702148 C10.4512695,17.8914062 10.4955078,18.0691406 10.5405273,18.2461914 C10.9387695,19.5743164 11.6473633,20.7705078 12.621582,21.6561523 L13.109082,22.0994141 L12.4888672,21.965918 C11.6916992,21.7446289 10.8945313,21.4791992 10.1416016,21.1686523 C10.2300781,22.7630859 10.850293,24.2246094 11.8244141,25.3765625 C12.7542969,26.4827148 13.9947266,27.3249023 15.4113281,27.7230469 L13.7727539,27.8115234 L12.400293,27.7672852 C13.41875,30.2480469 15.7660156,32.0636719 18.5558594,32.2849609 C15.9873047,34.1890625 12.7985352,35.2525391 9.38857422,35.2525391 C11.9128906,36.8026367 14.7918945,37.7760742 17.9355469,37.9530273 L19.9731445,37.9530273 C29.6713867,37.4219727 37.3334961,29.405957 37.3334961,19.5742188 L37.3334961,18.6443359 C37.6875,18.334668 38.0415039,18.0249023 38.3969727,17.6702148 C39.2375977,16.9172852 39.9913086,16.031543 40.6108398,15.1016602 C39.5916016,15.7661133 38.3969727,16.1201172 37.0681641,16.1201172 L37.0239258,16.1201172 L36.9796875,16.1201172 L37.0239258,16.1201172 C38.218457,15.3229492 39.1492188,14.1275391 39.6359375,12.7543945 C38.7067383,13.2418945 37.6433594,13.5958008 36.5798828,13.9063477 L36.447168,13.9505859 L35.6507813,14.1275391 C34.4989258,12.8871094 32.8602539,12.0899414 31.0446289,12.0899414 L31.0004883,12.0899414 L30.9120117,12.0899414 C30.425293,12.0899414 29.9371094,12.1341797 29.450293,12.2234375 C28.7423828,12.4003906 28.0329102,12.7101563 27.4577148,13.0648438 L27.0151367,13.4186523 L27.0151367,13.4186523 Z" id="Shape" fill="#FFFFFF"></path>
            </g>
    </g>
</svg>