<?xml version="1.0" encoding="UTF-8" standalone="no"?>
<svg width="92px" height="100px" viewBox="0 0 92 100" version="1.1" xmlns="http://www.w3.org/2000/svg" xmlns:xlink="http://www.w3.org/1999/xlink" xmlns:sketch="http://www.bohemiancoding.com/sketch/ns">
    <!-- Generator: Sketch 3.3.2 (12043) - http://www.bohemiancoding.com/sketch -->
    <title>user</title>
    <g fill-rule="evenodd">
            <g>
                <path d="M45.9090909,49.8181818 C52.7272727,49.8181818 58.5454545,47.3636364 63.3636364,42.5454545 C68.1818182,37.7272727 70.6363636,31.8181818 70.6363636,25.0909091 C70.6363636,18.3636364 68.1818182,12.4545455 63.3636364,7.63636364 C58.5454545,2.81818182 52.6363636,0.363636364 45.9090909,0.363636364 C39.1818182,0.363636364 33.2727273,2.81818182 28.4545455,7.63636364 C23.6363636,12.4545455 21.1818182,18.3636364 21.1818182,25.0909091 C21.1818182,31.8181818 23.6363636,37.7272727 28.4545455,42.5454545 C33.2727273,47.3636364 39.1818182,49.8181818 45.9090909,49.8181818 L45.9090909,49.8181818 Z"></path>
                <path d="M91.0909091,75.9090909 C90.9090909,73.7272727 90.6363636,71.3636364 90.1818182,68.9090909 C89.7272727,66.3636364 89.1818182,64.0909091 88.4545455,61.9090909 C87.7272727,59.7272727 86.9090909,57.6363636 85.7272727,55.6363636 C84.5454545,53.5454545 83.1818182,51.8181818 81.7272727,50.4545455 C80.1818182,49 78.3636364,47.8181818 76.1818182,47 C74,46.0909091 71.6363636,45.7272727 69,45.7272727 C68.6363636,45.7272727 67.7272727,46.1818182 66.2727273,47.1818182 C64.8181818,48.1818182 63.2727273,49.1818182 61.4545455,50.2727273 C59.6363636,51.3636364 57.3636364,52.4545455 54.4545455,53.3636364 C51.5454545,54.2727273 48.7272727,54.8181818 45.8181818,54.8181818 C43,54.8181818 40,54.3636364 37.1818182,53.3636364 C34.3636364,52.4545455 32,51.3636364 30.1818182,50.2727273 C28.3636364,49.1818182 26.8181818,48.0909091 25.3636364,47.1818182 C23.9090909,46.2727273 23.0909091,45.7272727 22.6363636,45.7272727 C20,45.7272727 17.6363636,46.0909091 15.4545455,47 C13.2727273,47.9090909 11.4545455,49 9.90909091,50.4545455 C8.36363636,51.9090909 7.09090909,53.6363636 5.90909091,55.6363636 C4.72727273,57.7272727 3.81818182,59.7272727 3.18181818,61.9090909 C2.45454545,64.0909091 1.90909091,66.4545455 1.45454545,68.9090909 C1,71.4545455 0.636363636,73.7272727 0.545454545,75.9090909 C0.363636364,78.0909091 0.272727273,80.3636364 0.272727273,82.5454545 C0.272727273,87.7272727 1.81818182,91.8181818 4.90909091,94.7272727 C8.09090909,97.7272727 12.1818182,99.2727273 17.4545455,99.2727273 L73.8181818,99.2727273 C79,99.2727273 83.1818182,97.7272727 86.3636364,94.7272727 C89.5454545,91.7272727 91,87.7272727 91,82.5454545 C91.3636364,80.3636364 91.2727273,78.1818182 91.0909091,75.9090909 L91.0909091,75.9090909 Z"></path>
            </g>
    </g>
</svg>