<?xml version="1.0" encoding="UTF-8"?>
<svg width="59px" height="60px" viewBox="0 0 59 60" version="1.1" xmlns="http://www.w3.org/2000/svg" xmlns:xlink="http://www.w3.org/1999/xlink">
    <!-- Generator: sketchtool 61.2 (101010) - https://sketch.com -->
    <title>3B9F510B-9C74-49C4-A910-555F5787DC61</title>
    <desc>Created with sketchtool.</desc>
    <g id="!!-meinfotoDE" stroke="none" stroke-width="1" fill="none" fill-rule="evenodd">
        <g id="mfDE-B2B-AccountRegistration(DT)" transform="translate(-438.000000, -492.000000)" fill-rule="nonzero">
            <g id="B2B-Block" transform="translate(221.000000, 317.000000)">
                <g id="Verpackung" transform="translate(202.000000, 175.000000)">
                    <g id="white-label-icon" transform="translate(15.000000, 0.000000)">
                        <polygon id="Path" fill="#C5C5C4" points="58.2479987 16.6319996 58.2479987 43.367999 55.6199988 44.867999 49.3559989 48.4439989 47.4119989 49.5599989 39.4679991 54.1079988 29.1599993 59.9999987 29.1599993 33.2639993 35.5319992 29.6279993 36.0719992 29.3159993 37.9319992 28.2599994 46.511999 23.3519995"></polygon>
                        <polygon id="Path" fill="#EBEBEB" points="29.1599993 33.2639993 29.1599993 59.9999987 0.0719999984 43.367999 0.0719999984 16.6319996 8.38799981 21.3839995 17.9279996 26.8439994"></polygon>
                        <polygon id="Path" fill="#E0E0E0" points="58.2479987 16.6319996 48.9959989 21.9239995 39.4559991 27.3839994 29.1599993 33.2639993 0.0719999984 16.6319996 10.3679998 10.7519998 19.9199996 5.29199988 29.1599993 0"></polygon>
                        <polygon id="Path" fill="#E01E31" points="48.9959989 21.9239995 39.5039991 27.4079994 39.3839991 27.3359994 10.3679998 10.7519998 19.9199996 5.29199988 48.9959989 21.9239995"></polygon>
                        <polygon id="Path" fill="#D8D8D8" points="58.2479987 42.623999 58.2479987 43.367999 55.6199988 44.867999 49.3559989 48.4439989 29.1599993 36.8999992 29.1599993 33.2639993 35.5319992 29.6279993"></polygon>
                        <polygon id="Path" fill="#BB192A" points="39.4319991 27.4439994 39.4319991 54.1679988 48.9959989 48.6719989 48.9959989 21.9479995"></polygon>
                        <path d="M13.7879997,46.127999 C13.8069943,46.646169 13.9599682,47.1505695 14.2319997,47.5919989 L14.2319997,47.5919989 C14.4790124,48.0335677 14.8341089,48.4051803 15.2639997,48.6719989 L17.7719996,50.1239989 L20.0399996,51.4319989 L25.2359994,54.4319988 C26.0639994,54.9119988 26.7239994,54.5279988 26.7239994,53.5919988 L26.7239994,46.835999 C26.7239994,46.319999 26.5199994,45.743999 26.2079994,45.239999 C25.9672793,44.8494842 25.6385142,44.5207192 25.2479994,44.279999 L22.5959995,42.755999 L20.3399995,41.4479991 L15.2879997,38.5199991 C14.4719997,38.0519991 13.8119997,38.4239991 13.8119997,39.3599991 L13.7879997,45.239999 L13.7879997,46.127999 Z" id="Path" fill="#FFFFFF"></path>
                    </g>
                </g>
            </g>
        </g>
    </g>
</svg>